<?xml version="1.0" standalone="no"?>
<!DOCTYPE svg PUBLIC "-//W3C//DTD SVG 20010904//EN"
 "http://www.w3.org/TR/2001/REC-SVG-20010904/DTD/svg10.dtd">
<svg version="1.0" xmlns="http://www.w3.org/2000/svg"
 width="512.000000pt" height="512.000000pt" viewBox="0 0 512.000000 512.000000"
 preserveAspectRatio="xMidYMid meet">

<g transform="translate(0.000000,512.000000) scale(0.100000,-0.100000)"
fill='#fff' stroke="none">
<path d="M1706 4704 c-139 -44 -252 -167 -292 -319 -15 -56 -18 -181 -5 -237
8 -35 8 -36 -32 -55 -61 -27 -139 -109 -173 -180 -21 -45 -33 -60 -44 -56 -94
38 -128 45 -210 41 -117 -6 -184 -34 -266 -110 -115 -108 -169 -263 -144 -419
6 -40 9 -73 8 -73 -115 -72 -128 -84 -128 -124 0 -11 9 -31 21 -46 26 -33 69
-34 112 -4 17 12 58 32 92 43 83 29 94 53 64 138 -46 129 -24 265 56 355 62
69 127 96 220 90 81 -6 120 -23 185 -84 58 -54 98 -138 109 -229 11 -95 19
-100 149 -100 99 0 111 -2 154 -27 102 -61 148 -154 148 -303 0 -107 1 -108
84 -149 60 -29 133 -103 161 -162 l17 -37 -50 -116 c-28 -64 -80 -185 -117
-268 l-67 -153 -188 0 -188 0 11 42 c24 96 138 218 268 288 72 38 88 68 65
117 -22 47 -56 52 -125 18 -106 -52 -241 -163 -278 -230 -7 -11 -13 -18 -15
-15 -3 3 -19 71 -37 152 -23 105 -31 159 -26 187 13 79 83 158 186 212 66 33
69 104 6 139 -26 14 -30 13 -92 -19 -36 -18 -88 -53 -115 -78 -41 -37 -49 -41
-54 -26 -2 10 -17 72 -31 138 -30 132 -50 165 -97 165 -29 0 -78 -38 -78 -61
0 -6 14 -72 31 -146 17 -74 28 -137 26 -140 -3 -2 -29 3 -59 12 -29 8 -85 18
-125 22 -67 5 -73 4 -97 -20 -31 -31 -33 -65 -6 -99 16 -21 31 -26 90 -32 127
-11 212 -56 249 -129 15 -30 81 -285 81 -313 0 -2 -26 10 -57 26 -82 40 -163
60 -276 67 -93 6 -99 5 -122 -17 -33 -31 -33 -73 0 -105 20 -21 33 -25 88 -25
114 0 284 -57 333 -112 17 -18 9 -18 -327 -16 l-344 3 -24 60 c-36 89 -35 208
3 290 15 33 38 71 50 85 54 58 55 79 5 159 -17 28 -35 76 -43 120 -16 85 -32
105 -82 105 -44 0 -74 -31 -74 -78 0 -42 25 -138 49 -183 l18 -37 -29 -45
c-77 -122 -95 -326 -41 -467 4 -11 -9 -14 -68 -14 -112 -1 -170 -33 -204 -113
-19 -45 -19 -88 -1 -130 7 -18 212 -268 455 -556 l441 -524 0 -136 c0 -122 3
-140 23 -176 13 -22 40 -49 62 -62 l40 -23 1525 0 1525 0 40 23 c22 13 49 40
62 62 20 36 23 54 23 176 l0 136 441 524 c243 288 448 538 455 556 19 44 17
90 -5 138 -37 81 -90 105 -229 105 l-98 0 4 88 c2 49 -1 128 -7 176 l-12 88
95 98 c223 233 281 398 173 498 -66 62 -202 42 -353 -52 l-42 -26 29 93 c16
50 37 127 45 171 14 69 21 82 56 114 112 101 218 472 219 766 0 168 -27 261
-91 306 -131 93 -279 -51 -356 -347 -14 -54 -27 -104 -30 -112 -3 -9 -28 12
-74 61 -81 88 -195 178 -264 209 -93 41 -185 23 -227 -44 -17 -27 -20 -45 -16
-108 3 -66 10 -88 50 -170 69 -139 166 -268 312 -414 108 -108 142 -136 202
-165 55 -27 72 -40 72 -56 1 -25 -38 -164 -69 -248 -22 -57 -22 -58 -42 -39
-12 12 -26 54 -38 111 -40 197 -118 302 -225 302 -92 0 -156 -78 -193 -236
l-18 -76 -70 -22 c-113 -37 -212 -93 -316 -179 -53 -43 -53 -43 -63 41 -24
204 -130 458 -271 645 -120 160 -374 372 -492 412 -30 10 -43 24 -72 76 -74
132 -197 217 -329 227 l-70 5 -20 66 c-40 133 -138 246 -261 305 -56 26 -78
31 -160 33 -65 2 -110 -2 -144 -13z m252 -164 c103 -52 164 -144 182 -272 8
-58 15 -78 35 -95 23 -20 32 -22 108 -16 71 5 89 3 134 -17 57 -24 126 -91
148 -143 11 -27 11 -34 -3 -56 -34 -51 -192 -426 -192 -455 0 -16 7 -38 17
-48 21 -24 84 -24 105 0 9 9 55 107 103 217 48 110 92 203 98 207 29 18 229
-125 342 -244 136 -143 228 -295 290 -481 46 -139 65 -256 65 -407 0 -194 -37
-367 -115 -537 l-34 -73 -60 0 c-34 0 -61 2 -61 5 0 3 15 36 34 73 102 203
149 445 126 656 -12 118 -30 193 -72 306 -53 140 -153 220 -273 220 -93 0
-203 -68 -248 -154 -32 -62 -31 -170 5 -256 52 -127 57 -293 12 -426 -54 -164
-177 -310 -319 -380 l-79 -39 -194 -3 c-184 -3 -193 -2 -184 15 51 97 452
1035 452 1056 0 37 -32 67 -73 67 -41 0 -57 -16 -94 -99 l-29 -65 -41 185
c-44 193 -45 218 -10 284 19 38 99 111 160 147 31 18 49 36 53 54 9 36 -13 76
-50 89 -23 8 -38 4 -89 -23 -34 -17 -85 -52 -113 -76 l-50 -44 -32 141 c-34
152 -48 177 -101 177 -37 0 -71 -34 -71 -70 0 -17 11 -79 25 -138 14 -59 27
-116 30 -128 5 -21 5 -21 -49 -3 -74 25 -178 35 -215 19 -52 -21 -61 -104 -14
-128 10 -5 48 -12 84 -16 119 -11 209 -58 244 -125 15 -29 135 -545 135 -580
0 -31 -11 -26 -65 30 -28 28 -69 62 -92 76 -42 25 -43 26 -43 81 -1 227 -176
424 -389 440 l-69 5 -7 36 c-8 47 -49 136 -82 179 -28 37 -28 73 2 135 31 67
135 147 189 147 8 0 25 9 40 21 32 25 33 55 6 127 -27 70 -27 173 0 245 62
164 233 234 388 157z m2861 -261 c31 -88 1 -395 -56 -582 -27 -88 -27 -89 -41
-60 -8 15 -32 59 -54 97 l-41 69 18 101 c9 56 32 146 50 202 31 95 87 204 105
204 4 0 13 -14 19 -31z m-696 -175 c163 -83 452 -445 493 -616 26 -111 -247
119 -408 342 -95 133 -164 290 -128 290 6 0 25 -7 43 -16z m118 -931 c11 -35
19 -66 17 -69 -4 -3 -117 15 -125 21 -5 3 19 81 34 113 15 31 17 32 34 16 10
-9 28 -45 40 -81z m-1244 37 c40 -24 65 -72 98 -186 80 -277 41 -570 -113
-826 l-46 -78 -54 0 c-46 0 -57 4 -74 25 -15 19 -29 25 -58 25 -29 0 -43 -6
-58 -25 -15 -19 -29 -25 -57 -25 l-37 0 65 69 c208 221 275 526 177 810 -34
101 -36 120 -15 162 33 63 112 86 172 49z m1192 -250 c171 -32 317 -184 390
-405 43 -132 63 -311 45 -404 l-6 -31 -108 0 -108 0 -11 51 c-28 129 -125 256
-236 309 -222 106 -483 10 -600 -221 -13 -25 -29 -67 -36 -93 l-11 -46 -49 0
c-27 0 -49 1 -49 3 0 1 14 36 31 77 40 99 77 243 92 360 l12 95 65 68 c172
183 392 273 579 237z m741 -15 c0 -42 -116 -211 -193 -283 l-24 -23 -37 78
c-26 54 -35 83 -28 93 14 24 171 119 222 135 58 18 60 18 60 0z m-850 -597
c75 -32 135 -104 158 -190 l10 -38 -293 0 -294 0 14 41 c61 171 245 256 405
187z m888 -398 c1 -9 -190 -245 -430 -530 l-433 -515 -317 -5 c-302 -5 -318
-6 -332 -25 -30 -39 -18 -88 25 -110 23 -12 81 -15 304 -15 l276 0 -3 -97 -3
-98 -1495 0 -1495 0 -3 98 -3 97 1066 0 c916 0 1070 2 1094 15 43 22 55 71 25
110 -15 20 -30 20 -1122 25 l-1107 5 -413 490 c-227 270 -422 503 -433 518
-46 62 -238 57 2393 55 2157 -3 2403 -5 2406 -18z"/>
<path d="M2444 2889 c-26 -13 -74 -110 -74 -149 0 -56 59 -87 112 -59 23 12
68 108 68 145 0 29 -41 74 -67 73 -10 0 -27 -5 -39 -10z"/>
<path d="M2277 2532 c-25 -28 -57 -104 -57 -139 0 -22 8 -38 26 -52 50 -40 93
-18 130 66 29 66 30 83 3 117 -25 31 -77 36 -102 8z"/>
<path d="M2935 3058 c-50 -27 -60 -80 -22 -116 48 -45 137 -10 137 53 0 14
-11 37 -25 50 -26 27 -58 31 -90 13z"/>
<path d="M2950 2730 c-57 -57 9 -149 86 -120 55 21 69 68 33 114 -26 33 -88
37 -119 6z"/>
<path d="M2895 2439 c-50 -28 -58 -72 -21 -115 47 -56 136 -26 136 45 0 50
-72 94 -115 70z"/>
</g>
</svg>
