<svg width="56" height="56" viewBox="0 0 56 56" fill="none" xmlns="http://www.w3.org/2000/svg">
<g clip-path="url(#clip0_8_969)">
<mask id="mask0_8_969" style="mask-type:luminance" maskUnits="userSpaceOnUse" x="0" y="0" width="56" height="56">
<path d="M0 3.8147e-06H56V56H0V3.8147e-06Z" fill="white"/>
</mask>
<g mask="url(#mask0_8_969)">
<path d="M47.3912 26.1827C47.6897 25.0272 47.5276 23.7555 46.8373 22.6679L45.6416 20.7844C45.1078 19.9433 43.8805 19.9433 43.3466 20.7844L42.1511 22.6679C41.4893 23.7104 41.313 24.9221 41.5624 26.0386" stroke="black" stroke-miterlimit="10" stroke-linecap="round" stroke-linejoin="round"/>
<path d="M44.4941 23.8343V27.3347" stroke="black" stroke-miterlimit="10" stroke-linecap="round" stroke-linejoin="round"/>
<path d="M45.038 27.6926C46.4466 25.9525 48.9682 25.5063 50.9054 26.7359L52.7888 27.9316C53.6298 28.4653 53.6298 29.6926 52.7888 30.2265L50.9054 31.4222C49.6725 32.2046 48.2029 32.3084 46.9343 31.8319" stroke="black" stroke-miterlimit="10" stroke-linecap="round" stroke-linejoin="round"/>
<path d="M49.7389 29.0791H45.9296" stroke="black" stroke-miterlimit="10" stroke-linecap="round" stroke-linejoin="round"/>
<path d="M11.8548 32.314C7.60638 33.5411 4.49445 37.4473 4.4671 42.0846" stroke="black" stroke-miterlimit="10" stroke-linecap="round" stroke-linejoin="round"/>
<path d="M19.1395 37.0252C17.9503 35.9932 16.3979 35.3686 14.6997 35.3686C10.9772 35.3686 7.95556 38.3699 7.92242 42.0846" stroke="black" stroke-miterlimit="10" stroke-linecap="round" stroke-linejoin="round"/>
<path d="M17.694 40.7278C17.1626 39.608 16.0215 38.8337 14.6997 38.8337C12.8702 38.8337 11.3872 40.3167 11.3872 42.1462" stroke="black" stroke-miterlimit="10" stroke-linecap="round" stroke-linejoin="round"/>
<path d="M19.2759 36.7955C18.329 38.3361 17.7788 40.1465 17.7674 42.0846" stroke="black" stroke-miterlimit="10" stroke-linecap="round" stroke-linejoin="round"/>
<path d="M32.4395 37.025C31.2503 35.9931 29.6981 35.3686 28 35.3686C24.2774 35.3686 21.2558 38.3699 21.2228 42.0846" stroke="black" stroke-miterlimit="10" stroke-linecap="round" stroke-linejoin="round"/>
<path d="M31.3083 41.9779C31.2207 40.2266 29.7731 38.8336 28 38.8336C26.2093 38.8336 24.7506 40.2544 24.6895 42.0303" stroke="black" stroke-miterlimit="10" stroke-linecap="round" stroke-linejoin="round"/>
<path d="M51.5332 42.1461C51.5332 38.778 49.9059 35.79 47.3947 33.9253" stroke="black" stroke-miterlimit="10" stroke-linecap="round" stroke-linejoin="round"/>
<path d="M33.2977 35.7685C31.9018 37.5176 31.0675 39.7345 31.0675 42.1462" stroke="black" stroke-miterlimit="10" stroke-linecap="round" stroke-linejoin="round"/>
<path d="M35.3901 38.8264C34.8621 39.7645 34.5508 40.841 34.5246 41.9879" stroke="black" stroke-miterlimit="10" stroke-linecap="round" stroke-linejoin="round"/>
<path d="M42.6947 35.5122C42.2448 35.4181 41.7783 35.3687 41.3004 35.3687C40.1963 35.3687 39.1538 35.6327 38.2328 36.101" stroke="black" stroke-miterlimit="10" stroke-linecap="round" stroke-linejoin="round"/>
<path d="M48.0778 42.1461C48.0778 39.6118 46.6869 37.4024 44.6267 36.2396" stroke="black" stroke-miterlimit="10" stroke-linecap="round" stroke-linejoin="round"/>
<path d="M44.6123 42.0846C44.5794 40.2835 43.1093 38.8335 41.3004 38.8335C39.4915 38.8335 38.0213 40.2835 37.9883 42.0846" stroke="black" stroke-miterlimit="10" stroke-linecap="round" stroke-linejoin="round"/>
<path d="M6.01935 49.4119L8.98844 53.6608C9.65355 54.6127 10.7415 55.1797 11.9028 55.1797H44.0973C45.2585 55.1797 46.3467 54.6127 47.0118 53.6608L49.9808 49.4119" stroke="black" stroke-miterlimit="10" stroke-linecap="round" stroke-linejoin="round"/>
<path d="M37.0155 49.4119H4.64844C2.53422 49.4119 0.820312 47.698 0.820312 45.5837V43.6876C0.820312 42.8022 1.53803 42.0846 2.42342 42.0846H53.5766C54.462 42.0846 55.1797 42.8022 55.1797 43.6876V45.5837C55.1797 47.698 53.4658 49.4119 51.3516 49.4119H40.8231" stroke="black" stroke-miterlimit="10" stroke-linecap="round" stroke-linejoin="round"/>
<path d="M33.2456 22.9523C31.8933 22.6637 30.5228 22.4881 29.1484 22.4252" stroke="black" stroke-miterlimit="10" stroke-linecap="round" stroke-linejoin="round"/>
<path d="M45.7776 30.8678C45.9342 30.5246 46.0207 30.1428 46.0188 29.7405C46.0137 28.6643 45.3415 27.7025 44.3563 27.2691L38.5679 24.7232" stroke="black" stroke-miterlimit="10" stroke-linecap="round" stroke-linejoin="round"/>
<path d="M12.1644 27.0402L11.6438 27.2692C10.6587 27.7024 9.98622 28.6644 9.98129 29.7405C9.97418 31.2301 11.1796 32.4398 12.6674 32.4398H17.3568C18.1502 32.4398 18.7933 33.0829 18.7933 33.8762V35.2606C18.7933 36.7428 19.9949 37.9444 21.4773 37.9444C22.9595 37.9444 24.1611 36.7428 24.1611 35.2606V34.381C24.1611 33.5877 24.8042 32.9444 25.5976 32.9444H31.8613C32.6546 32.9444 33.2979 33.5877 33.2979 34.381V36.3662C33.2979 37.7289 34.4025 38.8336 35.7654 38.8336C37.1282 38.8336 38.2327 37.7289 38.2327 36.3662V33.8762C38.2327 33.0829 38.876 32.4398 39.6693 32.4398H41.9712" stroke="black" stroke-miterlimit="10" stroke-linecap="round" stroke-linejoin="round"/>
<path d="M19.9557 23.7208C19.2555 23.9574 18.5632 24.2258 17.8808 24.5258L17.3302 24.7681" stroke="black" stroke-miterlimit="10" stroke-linecap="round" stroke-linejoin="round"/>
<path d="M35.7829 27.0171C34.2232 27.0171 32.9588 25.7526 32.9588 24.193C32.9588 22.6333 34.2232 21.369 35.7829 21.369C37.3426 21.369 38.6069 22.6333 38.6069 24.193C38.6069 25.7526 37.3426 27.0171 35.7829 27.0171Z" stroke="black" stroke-miterlimit="10" stroke-linecap="round" stroke-linejoin="round"/>
<path d="M14.6997 28.6196C13.14 28.6196 11.8756 27.3553 11.8756 25.7956C11.8756 24.2359 13.14 22.9715 14.6997 22.9715C16.2594 22.9715 17.5237 24.2359 17.5237 25.7956C17.5237 27.3553 16.2594 28.6196 14.6997 28.6196Z" stroke="black" stroke-miterlimit="10" stroke-linecap="round" stroke-linejoin="round"/>
<path d="M44.6128 36.2644C43.0531 36.2644 41.7888 35 41.7888 33.4405C41.7888 31.8807 43.0531 30.6163 44.6128 30.6163C46.1725 30.6163 47.4369 31.8807 47.4369 33.4405C47.4369 35 46.1725 36.2644 44.6128 36.2644Z" stroke="black" stroke-miterlimit="10" stroke-linecap="round" stroke-linejoin="round"/>
<path d="M33.157 13.5685H36.0865C37.2142 13.5685 38.3077 13.1813 39.184 12.4717L39.94 11.8594C40.8163 11.1498 41.9097 10.7626 43.0375 10.7626H54.086C54.69 10.7626 55.1797 10.2728 55.1797 9.66883V7.91883C55.1797 7.31464 54.69 6.82508 54.086 6.82508H43.0375C41.9097 6.82508 40.8163 6.43778 39.94 5.72804L39.184 5.11598C38.3077 4.40614 37.2142 4.01895 36.0865 4.01895H33.157" stroke="black" stroke-miterlimit="10" stroke-linecap="round" stroke-linejoin="round"/>
<path d="M33.157 10.3854H35.5701" stroke="black" stroke-miterlimit="10" stroke-linecap="round" stroke-linejoin="round"/>
<path d="M33.157 7.20227H35.5701" stroke="black" stroke-miterlimit="10" stroke-linecap="round" stroke-linejoin="round"/>
<path d="M22.8801 5.73575V2.53325C22.8801 1.58716 23.647 0.820436 24.5929 0.820436C25.5389 0.820436 26.3058 1.58716 26.3058 2.53325V24.9747C26.3058 25.9208 25.5389 26.6876 24.5929 26.6876C23.647 26.6876 22.8801 25.9208 22.8801 24.9747V9.30575" stroke="black" stroke-miterlimit="10" stroke-linecap="round" stroke-linejoin="round"/>
<path d="M28.0185 16.3668C27.0726 16.3668 26.3057 15.6 26.3057 14.6541V2.53318C26.3057 1.58709 27.0726 0.82026 28.0185 0.82026C28.9645 0.82026 29.7313 1.58709 29.7313 2.53318V14.6541C29.7313 15.6 28.9645 16.3668 28.0185 16.3668Z" stroke="black" stroke-miterlimit="10" stroke-linecap="round" stroke-linejoin="round"/>
<path d="M31.4441 16.3668C30.4983 16.3668 29.7313 15.6 29.7313 14.6541V2.53318C29.7313 1.58709 30.4983 0.82026 31.4441 0.82026C32.3901 0.82026 33.1569 1.58709 33.1569 2.53318V14.6541C33.1569 15.6 32.3901 16.3668 31.4441 16.3668Z" stroke="black" stroke-miterlimit="10" stroke-linecap="round" stroke-linejoin="round"/>
<path d="M29.6323 26.3746C29.1237 26.3746 28.7114 25.9623 28.7114 25.4537C28.7114 24.9451 29.1237 24.5328 29.6323 24.5328C30.1408 24.5328 30.5532 24.9451 30.5532 25.4537C30.5532 25.9623 30.1408 26.3746 29.6323 26.3746Z" fill="black"/>
<path d="M33.157 30.9399C32.6484 30.9399 32.236 30.5276 32.236 30.019C32.236 29.5104 32.6484 29.0981 33.157 29.0981C33.6656 29.0981 34.0779 29.5104 34.0779 30.019C34.0779 30.5276 33.6656 30.9399 33.157 30.9399Z" fill="black"/>
<path d="M20.963 30.9399C20.4544 30.9399 20.0421 30.5276 20.0421 30.019C20.0421 29.5104 20.4544 29.0981 20.963 29.0981C21.4716 29.0981 21.8839 29.5104 21.8839 30.019C21.8839 30.5276 21.4716 30.9399 20.963 30.9399Z" fill="black"/>
<path d="M39.9023 30.019C39.3937 30.019 38.9813 29.6067 38.9813 29.0981C38.9813 28.5895 39.3937 28.1772 39.9023 28.1772C40.4109 28.1772 40.8232 28.5895 40.8232 29.0981C40.8232 29.6067 40.4109 30.019 39.9023 30.019Z" fill="black"/>
</g>
</g>
<defs>
<clipPath id="clip0_8_969">
<rect width="56" height="56" fill="white"/>
</clipPath>
</defs>
</svg>
