<svg width="56" height="56" viewBox="0 0 56 56" fill="none" xmlns="http://www.w3.org/2000/svg">
<mask id="mask0_8_972" style="mask-type:luminance" maskUnits="userSpaceOnUse" x="0" y="0" width="56" height="56">
<path d="M0 3.8147e-06H56V56H0V3.8147e-06Z" fill="white"/>
</mask>
<g mask="url(#mask0_8_972)">
<path d="M8.64426 48.9942L9.44094 52.2629C9.56038 52.7528 9.9993 53.0977 10.5036 53.0977H45.4961C46.0003 53.0977 46.4393 52.7528 46.5587 52.2629L47.3553 48.9942" stroke="black" stroke-miterlimit="10" stroke-linecap="round" stroke-linejoin="round"/>
<path d="M46.0206 19.0618C48.1206 19.0618 49.8225 20.7648 49.8225 22.8637C49.8225 24.0351 49.2931 25.0818 48.4609 25.7786" stroke="black" stroke-miterlimit="10" stroke-linecap="round" stroke-linejoin="round"/>
<path d="M40.7892 16.8481C41.3055 16.508 41.9246 16.31 42.5884 16.31C44.3986 16.31 45.8653 17.7778 45.8653 19.5869C45.8653 20.7441 45.266 21.7613 44.3593 22.3442" stroke="black" stroke-miterlimit="10" stroke-linecap="round" stroke-linejoin="round"/>
<path d="M35.5732 16.6589L35.8946 15.3683C35.9669 15.0773 36.2622 14.9002 36.5532 14.9734L40.4546 15.9458C40.7455 16.0191 40.9227 16.3133 40.8494 16.6053L40.331 18.6867C40.2872 18.8628 40.1625 18.9963 40.006 19.0597" stroke="black" stroke-miterlimit="10" stroke-linecap="round" stroke-linejoin="round"/>
<path d="M16.9488 11.317L15.435 8.07077C15.2305 7.63327 14.817 7.31827 14.3358 7.2778C13.6883 7.2242 13.09 6.81405 12.8352 6.15342C12.5136 5.31889 12.8899 4.34874 13.6894 3.94733C14.046 3.76795 14.4331 3.72311 14.7963 3.78874C14.9789 3.46827 15.2611 3.20139 15.6286 3.04389C16.45 2.68952 17.4344 3.0242 17.8664 3.80624C18.2099 4.42639 18.1388 5.14936 17.7647 5.67983C17.4858 6.07358 17.4617 6.59311 17.6652 7.03061L19.1789 10.278" stroke="black" stroke-miterlimit="10" stroke-linecap="round" stroke-linejoin="round"/>
<path d="M16.543 16.5802C16.6152 16.2215 16.7191 15.8758 16.8536 15.5488C17.2167 14.6618 17.2189 13.6686 16.8142 12.7991L16.7902 12.7499C16.4664 12.0554 16.7672 11.2296 17.4617 10.9058L18.5347 10.406C19.2293 10.0822 20.0539 10.383 20.3778 11.0765L20.4006 11.1268C20.8064 11.9952 21.5687 12.6329 22.482 12.9249C23.2455 13.1699 23.9848 13.5932 24.6389 14.1707" stroke="black" stroke-miterlimit="10" stroke-linecap="round" stroke-linejoin="round"/>
<path d="M28 14.3686C29.2184 14.3686 30.3122 14.9045 31.057 15.7544C31.3895 16.1328 31.8981 16.3013 32.3859 16.1733C32.7152 16.0869 33.0608 16.0409 33.4173 16.0409C34.8556 16.0409 36.1178 16.7869 36.8408 17.9134C37.0945 18.3083 37.5331 18.538 38.0034 18.5369H38.0111C39.5019 18.5369 40.8045 19.3386 41.5133 20.5352C41.6959 20.8436 41.9945 21.0645 42.3434 21.1499C43.4612 21.4244 44.3975 22.1627 44.9378 23.1481C45.1281 23.4949 45.4508 23.7486 45.8369 23.8361C47.2303 24.1522 48.3514 25.1825 48.7944 26.5224C48.9366 26.9489 49.2844 27.277 49.7197 27.3886C51.3155 27.7988 52.5328 29.1517 52.7395 30.8186" stroke="black" stroke-miterlimit="10" stroke-linecap="round" stroke-linejoin="round"/>
<path d="M19.331 17.6674C20.0724 16.6797 21.2516 16.041 22.5826 16.041C22.9392 16.041 23.2848 16.0869 23.6141 16.1733" stroke="black" stroke-miterlimit="10" stroke-linecap="round" stroke-linejoin="round"/>
<path d="M3.26044 30.8186C3.46727 29.1517 4.68461 27.7988 6.28028 27.3886C6.7157 27.277 7.06352 26.9489 7.20559 26.5224C7.64856 25.1825 8.76966 24.1522 10.1631 23.8361C10.5493 23.7486 10.872 23.4949 11.0622 23.1481C11.1486 22.9906 11.246 22.8386 11.351 22.6942" stroke="black" stroke-miterlimit="10" stroke-linecap="round" stroke-linejoin="round"/>
<path d="M30.6594 20.6479C30.4793 20.3943 30.1536 20.2244 29.7811 20.2244C29.4085 20.2244 29.0831 20.3943 28.9028 20.6479" stroke="black" stroke-miterlimit="10" stroke-linecap="round" stroke-linejoin="round"/>
<path d="M30.9648 26.8755C30.7846 26.6217 30.459 26.452 30.0865 26.452C29.7139 26.452 29.3885 26.6217 29.2082 26.8755" stroke="black" stroke-miterlimit="10" stroke-linecap="round" stroke-linejoin="round"/>
<path d="M42.8206 27.0516C42.6406 26.7979 42.315 26.6281 41.9425 26.6281C41.5698 26.6281 41.2443 26.7979 41.0641 27.0516" stroke="black" stroke-miterlimit="10" stroke-linecap="round" stroke-linejoin="round"/>
<path d="M9.78471 16.9116L7.25158 14.3774C6.91033 14.0372 6.41268 13.8819 5.94783 14.0088C5.32111 14.1794 4.61904 13.999 4.15299 13.4652C3.56565 12.7904 3.58752 11.7513 4.20112 11.1005C4.47565 10.8096 4.82346 10.6346 5.18658 10.5733C5.24893 10.2091 5.42283 9.86131 5.71377 9.58787C6.36444 8.97428 7.40351 8.95131 8.07846 9.53975C8.61221 10.0046 8.79377 10.7079 8.62205 11.3346C8.49518 11.7994 8.65049 12.2971 8.99174 12.6372L11.5238 15.1704" stroke="black" stroke-miterlimit="10" stroke-linecap="round" stroke-linejoin="round"/>
<path d="M22.5181 23.1023C22.5061 22.7337 22.4569 22.3596 22.3716 21.9867" stroke="black" stroke-miterlimit="10" stroke-linecap="round" stroke-linejoin="round"/>
<path d="M13.8939 26.4491C13.6566 26.2643 13.4268 26.0608 13.2071 25.841C11.7818 24.4169 11.0763 22.5903 11.1421 20.9202C11.1802 19.9621 10.8424 19.028 10.1641 18.3499L10.126 18.3116C9.58456 17.7691 9.58456 16.8908 10.126 16.3494L10.9627 15.5127C11.504 14.9702 12.3834 14.9702 12.9249 15.5127L12.963 15.551C13.6412 16.2291 14.5752 16.5671 15.5334 16.5288C17.2036 16.4621 19.0302 17.1686 20.4552 18.5927C20.5177 18.6561 20.5777 18.7196 20.638 18.7841" stroke="black" stroke-miterlimit="10" stroke-linecap="round" stroke-linejoin="round"/>
<path d="M12.1226 27.8485C12.6676 26.928 13.6704 26.3107 14.8178 26.3107H14.824C15.1857 26.3115 15.5232 26.1352 15.7186 25.8308C16.2751 24.964 17.2471 24.3895 18.3537 24.3895C18.6281 24.3895 18.8942 24.4252 19.1477 24.4917C19.5229 24.5901 19.9145 24.4602 20.1703 24.1687C20.7441 23.5151 21.5857 23.1025 22.5237 23.1025C23.4617 23.1025 24.3032 23.5151 24.877 24.1687" stroke="black" stroke-miterlimit="10" stroke-linecap="round" stroke-linejoin="round"/>
<path d="M23.4019 27.3367C23.2217 27.083 22.8962 26.9132 22.5237 26.9132C22.1511 26.9132 21.8256 27.083 21.6453 27.3367" stroke="black" stroke-miterlimit="10" stroke-linecap="round" stroke-linejoin="round"/>
<path d="M38.2415 30.8182H2.79866C1.61675 30.8182 0.69122 31.8497 0.835048 33.0228C1.30306 36.8369 2.55847 40.4055 4.43075 43.5659" stroke="black" stroke-miterlimit="10" stroke-linecap="round" stroke-linejoin="round"/>
<path d="M6.4873 46.5653C7.15854 47.417 7.87855 48.2284 8.64429 48.9943H47.3557C51.5582 44.7909 54.4031 39.2311 55.165 33.0229C55.3088 31.8497 54.3833 30.8182 53.2014 30.8182H41.8862" stroke="black" stroke-miterlimit="10" stroke-linecap="round" stroke-linejoin="round"/>
<path d="M1.16907 34.6188H54.831" stroke="black" stroke-miterlimit="10" stroke-linecap="round" stroke-linejoin="round"/>
<path d="M26.1594 18.4749L24.1031 17.8603C23.8154 17.7745 23.6519 17.4716 23.7379 17.1839L24.889 13.3319C24.975 13.0442 25.2778 12.8808 25.5654 12.9668L27.6218 13.5812C27.9094 13.6671 28.0729 13.97 27.987 14.2577L26.8359 18.1097C26.7499 18.3974 26.4471 18.5609 26.1594 18.4749Z" stroke="black" stroke-miterlimit="10" stroke-linecap="round" stroke-linejoin="round"/>
<path d="M33.8847 24.8285L33.9402 22.683C33.948 22.3829 34.1976 22.146 34.4977 22.1537L38.5168 22.2578C38.8168 22.2656 39.0538 22.5152 39.046 22.8153L38.9905 24.9608C38.9826 25.2609 38.7332 25.4979 38.433 25.49L34.414 25.386C34.1139 25.3783 33.877 25.1287 33.8847 24.8285Z" stroke="black" stroke-miterlimit="10" stroke-linecap="round" stroke-linejoin="round"/>
</g>
</svg>
