<svg width="56" height="56" viewBox="0 0 56 56" fill="none" xmlns="http://www.w3.org/2000/svg">
<g clip-path="url(#clip0_1_250)">
<path d="M51.6316 14.5644C53.8891 18.527 55.1797 23.1131 55.1797 28C55.1797 43.0106 43.0106 55.1797 28 55.1797C23.1875 55.1797 18.6681 53.9284 14.747 51.7355" stroke="white" stroke-width="2" stroke-miterlimit="10" stroke-linecap="round" stroke-linejoin="round"/>
<path d="M6.97485 10.7734C11.9602 4.69766 19.5278 0.820312 28 0.820312C32.8869 0.820312 37.473 2.11094 41.4356 4.36844" stroke="white" stroke-width="2" stroke-miterlimit="10" stroke-linecap="round" stroke-linejoin="round"/>
<path d="M4.76219 13.8972C2.26078 18.0086 0.820312 22.8364 0.820312 28C0.820312 32.8125 2.07156 37.3319 4.26453 41.253" stroke="white" stroke-width="2" stroke-miterlimit="10" stroke-linecap="round" stroke-linejoin="round"/>
<path d="M5.62516 43.435C7.49984 46.1464 9.85359 48.5002 12.565 50.3748" stroke="white" stroke-width="2" stroke-miterlimit="10" stroke-linecap="round" stroke-linejoin="round"/>
<path d="M46.3433 26.2095C46.4002 26.7991 46.4297 27.3963 46.4297 28C46.4297 30.5889 45.8959 33.0542 44.9312 35.2898" stroke="white" stroke-width="2" stroke-miterlimit="10" stroke-linecap="round" stroke-linejoin="round"/>
<path d="M19.2347 44.2159C21.8411 45.628 24.827 46.4297 28 46.4297C28.5414 46.4297 29.0773 46.4067 29.6067 46.3597H29.6078" stroke="white" stroke-width="2" stroke-miterlimit="10" stroke-linecap="round" stroke-linejoin="round"/>
<path d="M9.64031 26.3933C9.59328 26.9227 9.57031 27.4586 9.57031 28C9.57031 31.173 10.372 34.1589 11.7841 36.7653" stroke="white" stroke-width="2" stroke-miterlimit="10" stroke-linecap="round" stroke-linejoin="round"/>
<path d="M18.0009 26.3867C16.718 20.8173 17.8653 13.6314 21.933 8.17688C22.3584 7.60594 23.0398 7.27781 23.7508 7.29969C26.0728 7.37188 28.0919 8.05328 30.158 9.38438" stroke="white" stroke-width="2" stroke-miterlimit="10" stroke-linecap="round" stroke-linejoin="round"/>
<path d="M25.5927 13.4597C25.8858 13.1436 26.1866 12.8308 26.4961 12.5212C36.0981 2.91922 48.3733 2.86125 50.7566 5.24344C53.1388 7.62672 53.0808 19.9019 43.4788 29.5039C42.9614 30.0212 42.4353 30.5145 41.9016 30.9837" stroke="white" stroke-width="2" stroke-miterlimit="10" stroke-linecap="round" stroke-linejoin="round"/>
<path d="M23.1525 16.4084C18.2941 22.9983 16.5561 30.2827 16.088 35.4747C16.0355 36.062 15.5291 36.4995 14.9406 36.4744C10.3939 36.2808 6.06375 38.8664 4.15734 41.3919C3.72422 41.9661 3.95828 42.7952 4.62219 43.0708C5.89094 43.5947 8.11344 44.2564 10.8139 43.9709C11.5139 43.8966 12.1034 44.4861 12.0291 45.1861C11.7436 47.8866 12.4053 50.1091 12.9292 51.3778C13.2037 52.0417 14.0339 52.2758 14.6081 51.8427C17.1336 49.9362 19.7192 45.605 19.5256 41.0594C19.5005 40.4709 19.938 39.9645 20.5253 39.912C22.1211 39.7688 23.9137 39.5041 25.8245 39.0666" stroke="white" stroke-width="2" stroke-miterlimit="10" stroke-linecap="round" stroke-linejoin="round"/>
<path d="M49.8215 20.2835C38.0337 22.3156 34.474 12.9093 35.446 6.29935" stroke="white" stroke-width="2" stroke-miterlimit="10" stroke-linecap="round" stroke-linejoin="round"/>
<path d="M41.3308 10.2215L42.5438 11.4345" stroke="white" stroke-width="2" stroke-miterlimit="10" stroke-linecap="round" stroke-linejoin="round"/>
<path d="M37.5703 48.2497C42.0908 47.3605 45.5 43.3748 45.5 38.593C45.5 33.157 41.0933 28.7492 35.6562 28.7492C30.2192 28.7492 25.8125 33.157 25.8125 38.593C25.8125 43.3748 29.2217 47.3605 33.7422 48.2497" stroke="white" stroke-width="2" stroke-miterlimit="10" stroke-linecap="round" stroke-linejoin="round"/>
<path d="M35.6562 45.1558C39.2806 45.1558 42.2188 42.2177 42.2188 38.5933C42.2188 34.9689 39.2806 32.0308 35.6562 32.0308C32.0319 32.0308 29.0938 34.9689 29.0938 38.5933C29.0938 42.2177 32.0319 45.1558 35.6562 45.1558Z" stroke="white" stroke-width="2" stroke-miterlimit="10" stroke-linecap="round" stroke-linejoin="round"/>
<path d="M35.6562 44.8824V32.3042" stroke="white" stroke-width="2" stroke-miterlimit="10" stroke-linecap="round" stroke-linejoin="round"/>
<path d="M35.6562 45.1558C39.2806 45.1558 42.2188 42.2177 42.2188 38.5933C42.2188 34.9689 39.2806 32.0308 35.6562 32.0308C32.0319 32.0308 29.0938 34.9689 29.0938 38.5933C29.0938 42.2177 32.0319 45.1558 35.6562 45.1558Z" stroke="white" stroke-width="2" stroke-miterlimit="10" stroke-linecap="round" stroke-linejoin="round"/>
<path d="M30.2098 41.7378L41.1027 35.4488" stroke="white" stroke-width="2" stroke-miterlimit="10" stroke-linecap="round" stroke-linejoin="round"/>
<path d="M41.1027 41.7378L30.2098 35.4488" stroke="white" stroke-width="2" stroke-miterlimit="10" stroke-linecap="round" stroke-linejoin="round"/>
<path d="M16.9334 30.1755C11.7163 29.9294 7.56328 25.6222 7.56328 20.3438C7.56328 14.9067 11.97 10.5 17.407 10.5C18.3805 10.5 19.32 10.6411 20.2081 10.9047" stroke="white" stroke-width="2" stroke-miterlimit="10" stroke-linecap="round" stroke-linejoin="round"/>
<path d="M18.8694 13.9453C18.3991 13.8381 17.9102 13.7812 17.407 13.7812C13.7823 13.7812 10.8445 16.7191 10.8445 20.3438C10.8445 23.9684 13.7823 26.9062 17.407 26.9062C17.5503 26.9062 17.6936 26.9019 17.8347 26.892" stroke="white" stroke-width="2" stroke-miterlimit="10" stroke-linecap="round" stroke-linejoin="round"/>
<path d="M17.5514 20.3438H17.407H11.118" stroke="white" stroke-width="2" stroke-miterlimit="10" stroke-linecap="round" stroke-linejoin="round"/>
<path d="M18.8694 13.9453C18.3991 13.8381 17.9102 13.7812 17.407 13.7812C13.7823 13.7812 10.8445 16.7191 10.8445 20.3438C10.8445 23.9684 13.7823 26.9062 17.407 26.9062C17.5503 26.9062 17.6936 26.9019 17.8347 26.892" stroke="white" stroke-width="2" stroke-miterlimit="10" stroke-linecap="round" stroke-linejoin="round"/>
<path d="M17.5711 20.0594L17.407 20.3437L14.2625 25.7906" stroke="white" stroke-width="2" stroke-miterlimit="10" stroke-linecap="round" stroke-linejoin="round"/>
<path d="M17.5372 20.5691L17.407 20.3437L14.2625 14.8969" stroke="white" stroke-width="2" stroke-miterlimit="10" stroke-linecap="round" stroke-linejoin="round"/>
</g>
<defs>
<clipPath id="clip0_1_250">
<rect width="56" height="56" fill="white"/>
</clipPath>
</defs>
</svg>
