<svg width="56" height="56" viewBox="0 0 56 56" fill="none" xmlns="http://www.w3.org/2000/svg">
<g clip-path="url(#clip0_2_280)">
<path d="M19.4356 26.6165C24.5205 29.5522 24.2944 34.8411 22.712 37.5817C21.1297 40.3223 16.6625 43.1625 11.5777 40.2268C7.59303 37.9262 5.01441 31.7172 4.37402 28.6375C4.19727 27.7873 4.16817 27.1755 4.29811 26.9504C4.403 26.7688 4.77794 26.5508 5.35248 26.3304C8.06739 25.289 15.2389 24.1935 19.4356 26.6165Z" stroke="white" stroke-miterlimit="10" stroke-linecap="round" stroke-linejoin="round"/>
<path d="M8.15817 29.179L23.7698 38.1923C25.5905 39.2435 26.7121 41.1861 26.7121 43.2886" stroke="white" stroke-miterlimit="10" stroke-linecap="round" stroke-linejoin="round"/>
<path d="M10.4743 33.7186L15.0635 33.1657" stroke="white" stroke-miterlimit="10" stroke-linecap="round" stroke-linejoin="round"/>
<path d="M15.9072 36.8553L20.4963 36.3024" stroke="white" stroke-miterlimit="10" stroke-linecap="round" stroke-linejoin="round"/>
<path d="M15.6228 30.1999L17.4874 34.5652" stroke="white" stroke-miterlimit="10" stroke-linecap="round" stroke-linejoin="round"/>
<path d="M43.0815 8.4501L47.5499 12.9185" stroke="white" stroke-miterlimit="10" stroke-linecap="round" stroke-linejoin="round"/>
<path d="M47.5499 8.4501L43.0815 12.9185" stroke="white" stroke-miterlimit="10" stroke-linecap="round" stroke-linejoin="round"/>
<path d="M51.9964 17.0866C55.9705 13.1125 56.2634 6.96216 52.6506 3.34939C49.0378 -0.263375 42.8876 0.0294217 38.9134 4.00356C36.8303 6.08672 35.7586 8.76794 35.7308 11.3681C35.7144 12.9031 35.2532 14.4001 34.4016 15.6774L33.8387 16.5219C33.3662 17.2306 33.4596 18.1743 34.0619 18.7766L37.2234 21.9381C37.8257 22.5404 38.7694 22.6338 39.4781 22.1613L40.3225 21.5984C41.5998 20.7469 43.0968 20.2856 44.6318 20.2692C47.2322 20.2414 49.9133 19.1697 51.9964 17.0866Z" stroke="white" stroke-miterlimit="10" stroke-linecap="round" stroke-linejoin="round"/>
<path d="M37.7929 17.235C37.9404 17.4085 38.0959 17.5771 38.2594 17.7406C38.4229 17.9041 38.5915 18.0596 38.7649 18.207" stroke="white" stroke-miterlimit="10" stroke-linecap="round" stroke-linejoin="round"/>
<path d="M34.3345 19.049L31.4391 21.9443C30.9296 22.4538 30.1621 22.6372 29.4947 22.3655C28.4011 21.9204 27.081 22.2017 26.2736 23.2096C25.4803 24.1998 25.4699 25.6338 26.2507 26.634C26.6836 27.1885 27.2695 27.529 27.8904 27.6556C28.1175 27.7018 28.2983 27.8826 28.3445 28.1097C28.4711 28.7306 28.8116 29.3165 29.3661 29.7495C30.3663 30.5302 31.8002 30.5198 32.7905 29.7265C33.7983 28.9191 34.0797 27.599 33.6346 26.5054C33.363 25.8381 33.5463 25.0705 34.0558 24.561L36.9511 21.6657" stroke="white" stroke-miterlimit="10" stroke-linecap="round" stroke-linejoin="round"/>
<path d="M54.0018 20.0607C53.6226 18.8171 53.1566 17.6113 52.6108 16.4504" stroke="white" stroke-miterlimit="10" stroke-linecap="round" stroke-linejoin="round"/>
<path d="M53.1922 38.2213C54.4738 35.066 55.1797 31.6154 55.1797 28C55.1797 26.5553 55.0669 25.1369 54.8498 23.7531" stroke="white" stroke-miterlimit="10" stroke-linecap="round" stroke-linejoin="round"/>
<path d="M7.92509 9.67673C3.51203 14.5089 0.820312 20.9402 0.820312 28C0.820312 43.011 12.989 55.1797 28 55.1797C32.8287 55.1797 37.3632 53.9206 41.2932 51.7126" stroke="white" stroke-miterlimit="10" stroke-linecap="round" stroke-linejoin="round"/>
<path d="M39.5496 3.3892C36.0443 1.74136 32.1297 0.820312 28 0.820312C25.1022 0.820312 22.3103 1.27378 19.6914 2.11367" stroke="white" stroke-miterlimit="10" stroke-linecap="round" stroke-linejoin="round"/>
<path d="M14.9875 41.4106C18.352 44.6757 22.9412 46.6861 28 46.6861C29.6477 46.6861 31.2457 46.4728 32.7678 46.0722" stroke="white" stroke-miterlimit="10" stroke-linecap="round" stroke-linejoin="round"/>
<path d="M12.086 18.2016C10.7644 20.3436 9.863 22.7726 9.49714 25.3736" stroke="white" stroke-miterlimit="10" stroke-linecap="round" stroke-linejoin="round"/>
<path d="M35.7423 10.9885C33.3834 9.91309 30.7617 9.31394 28 9.31394C27.8595 9.31394 27.7192 9.31547 27.5793 9.31853" stroke="white" stroke-miterlimit="10" stroke-linecap="round" stroke-linejoin="round"/>
<path d="M46.523 30.4785C46.6305 29.6676 46.686 28.8403 46.686 28C46.686 25.2383 46.0868 22.6166 45.0114 20.2577" stroke="white" stroke-miterlimit="10" stroke-linecap="round" stroke-linejoin="round"/>
<path d="M17.2023 10.4074L20.5188 13.7238" stroke="white" stroke-miterlimit="10" stroke-linecap="round" stroke-linejoin="round"/>
<path d="M20.5188 10.4074L17.2023 13.7238" stroke="white" stroke-miterlimit="10" stroke-linecap="round" stroke-linejoin="round"/>
<path d="M32.8925 35.1889C34.806 31.9054 38.3648 29.6987 42.4391 29.6987C48.5373 29.6987 53.4809 34.6422 53.4809 40.7404C53.4809 46.8386 48.5373 51.7822 42.4391 51.7822C36.3409 51.7822 31.3974 46.8386 31.3974 40.7404C31.3974 40.1045 31.4512 39.4811 31.5544 38.8746" stroke="white" stroke-miterlimit="10" stroke-linecap="round" stroke-linejoin="round"/>
<path d="M24.857 5.16589C25.0211 5.3107 25.1766 5.45661 25.323 5.60306C28.8923 9.1723 28.8923 14.959 25.323 18.5282C21.7538 22.0975 15.9671 22.0975 12.3979 18.5282C9.38667 15.5169 6.61587 8.62695 7.96676 4.40311C8.21701 3.62064 8.6088 2.92961 9.16661 2.37169C9.72442 1.81376 10.4155 1.42209 11.198 1.17184C14.1188 0.237671 18.3143 1.27433 21.6207 2.99862" stroke="white" stroke-miterlimit="10" stroke-linecap="round" stroke-linejoin="round"/>
<path d="M18.8605 17.8076C22.0317 17.8076 24.6025 15.2368 24.6025 12.0656C24.6025 8.89439 22.0317 6.32362 18.8605 6.32362C15.6893 6.32362 13.1185 8.89439 13.1185 12.0656C13.1185 15.2368 15.6893 17.8076 18.8605 17.8076Z" stroke="white" stroke-miterlimit="10" stroke-linecap="round" stroke-linejoin="round"/>
<path d="M48.2157 40.7404C49.3022 40.7404 50.0917 39.7025 49.7961 38.6569C49.6322 38.0769 49.4015 37.5249 49.1129 37.0098C48.5824 36.0628 47.2907 35.889 46.5232 36.6565C47.2907 35.889 47.1169 34.5973 46.1699 34.0668C45.6548 33.7782 45.1027 33.5475 44.5227 33.3835C43.4772 33.088 42.4392 33.8776 42.4392 34.964C42.4392 33.8775 41.4013 33.088 40.3558 33.3835C39.7757 33.5475 39.2237 33.7782 38.7086 34.0668C37.7616 34.5973 37.5878 35.889 38.3553 36.6565C37.5878 35.889 36.2961 36.0628 35.7656 37.0098C35.477 37.5249 35.2463 38.0769 35.0824 38.6569C34.7868 39.7025 35.5764 40.7404 36.6628 40.7404C35.5763 40.7404 34.7868 41.7784 35.0824 42.8239C35.2463 43.4039 35.477 43.9559 35.7656 44.4711C36.2961 45.4181 37.5878 45.5919 38.3553 44.8244C37.5878 45.5919 37.7616 46.8836 38.7086 47.4141C39.2237 47.7027 39.7757 47.9334 40.3558 48.0973C41.4013 48.3929 42.4392 47.6033 42.4392 46.5169C42.4392 47.6034 43.4772 48.3929 44.5227 48.0973C45.1027 47.9334 45.6548 47.7027 46.1699 47.4141C47.1169 46.8836 47.2907 45.5919 46.5232 44.8244C47.2907 45.5919 48.5824 45.4181 49.1129 44.4711C49.4015 43.9559 49.6322 43.4039 49.7961 42.8239C50.0917 41.7784 49.3021 40.7404 48.2157 40.7404Z" stroke="white" stroke-miterlimit="10" stroke-linecap="round" stroke-linejoin="round"/>
<path d="M42.4392 40.7404L46.5232 36.6565" stroke="white" stroke-miterlimit="10" stroke-linecap="round" stroke-linejoin="round"/>
<path d="M42.4392 34.964V40.7404" stroke="white" stroke-miterlimit="10" stroke-linecap="round" stroke-linejoin="round"/>
<path d="M38.3553 36.6565L42.4392 40.7404" stroke="white" stroke-miterlimit="10" stroke-linecap="round" stroke-linejoin="round"/>
<path d="M48.2157 40.7404H42.4392" stroke="white" stroke-miterlimit="10" stroke-linecap="round" stroke-linejoin="round"/>
<path d="M42.4392 40.7404H36.6628" stroke="white" stroke-miterlimit="10" stroke-linecap="round" stroke-linejoin="round"/>
<path d="M38.3553 44.8244L42.4392 40.7404" stroke="white" stroke-miterlimit="10" stroke-linecap="round" stroke-linejoin="round"/>
<path d="M42.4392 40.7404V46.5169" stroke="white" stroke-miterlimit="10" stroke-linecap="round" stroke-linejoin="round"/>
<path d="M46.5232 44.8244L42.4392 40.7404" stroke="white" stroke-miterlimit="10" stroke-linecap="round" stroke-linejoin="round"/>
</g>
<defs>
<clipPath id="clip0_2_280">
<rect width="56" height="56" fill="white"/>
</clipPath>
</defs>
</svg>
