<svg width="56" height="56" viewBox="0 0 56 56" fill="none" xmlns="http://www.w3.org/2000/svg">
<g clip-path="url(#clip0_2_316)">
<path d="M28 7.8437V4.68955" stroke="white" stroke-miterlimit="10" stroke-linecap="round" stroke-linejoin="round"/>
<path d="M28 23.9115V17.3906" stroke="white" stroke-miterlimit="10" stroke-linecap="round" stroke-linejoin="round"/>
<path d="M28 51.3104V44.6585" stroke="white" stroke-miterlimit="10" stroke-linecap="round" stroke-linejoin="round"/>
<mask id="mask0_2_316" style="mask-type:luminance" maskUnits="userSpaceOnUse" x="0" y="0" width="56" height="56">
<path d="M0 3.8147e-06H56V56H0V3.8147e-06Z" fill="white"/>
</mask>
<g mask="url(#mask0_2_316)">
<path d="M28.4029 16.7136C26.0656 19.0508 22.5978 19.3727 20.6575 17.4323C18.7172 15.4919 19.039 12.0242 21.3763 9.68697C23.7136 7.34963 27.1813 7.02774 29.1216 8.96816C31.062 10.9085 30.7401 14.3762 28.4029 16.7136Z" stroke="white" stroke-miterlimit="10" stroke-linecap="round" stroke-linejoin="round"/>
<path d="M26.0754 16.4041C24.2953 18.1841 21.8697 18.6444 20.6575 17.4322C19.4454 16.22 19.9057 13.7945 21.6857 12.0145C23.4658 10.2345 25.8914 9.77413 27.1035 10.9862C28.3157 12.1984 27.8553 14.624 26.0754 16.4041Z" stroke="white" stroke-miterlimit="10" stroke-linecap="round" stroke-linejoin="round"/>
<path d="M45.0624 36.803C45.0624 40.1085 42.8379 42.7881 40.0938 42.7881C37.3498 42.7881 35.1252 40.1085 35.1252 36.803C35.1252 33.4976 37.3498 30.818 40.0938 30.818C42.8379 30.818 45.0624 33.4976 45.0624 36.803Z" stroke="white" stroke-miterlimit="10" stroke-linecap="round" stroke-linejoin="round"/>
<path d="M43.1978 38.23C43.1978 40.7474 41.8082 42.7881 40.0938 42.7881C38.3796 42.7881 36.9899 40.7474 36.9899 38.23C36.9899 35.7126 38.3796 33.672 40.0938 33.672C41.8082 33.672 43.1978 35.7126 43.1978 38.23Z" stroke="white" stroke-miterlimit="10" stroke-linecap="round" stroke-linejoin="round"/>
<path d="M37.2352 11.8628L38.6358 13.2634" stroke="white" stroke-miterlimit="10" stroke-linecap="round" stroke-linejoin="round"/>
<path d="M31.8559 42.0878L33.2564 43.4883" stroke="white" stroke-miterlimit="10" stroke-linecap="round" stroke-linejoin="round"/>
<path d="M37.7986 22.8561L39.1992 24.2567" stroke="white" stroke-miterlimit="10" stroke-linecap="round" stroke-linejoin="round"/>
<path d="M32.9255 28.6005L34.3262 30.0011" stroke="white" stroke-miterlimit="10" stroke-linecap="round" stroke-linejoin="round"/>
<path d="M43.5685 20.4103L44.9691 21.8109" stroke="white" stroke-miterlimit="10" stroke-linecap="round" stroke-linejoin="round"/>
<path d="M18.0983 20.529L19.4988 21.9296" stroke="white" stroke-miterlimit="10" stroke-linecap="round" stroke-linejoin="round"/>
<path d="M10.6658 19.2818L12.0663 20.6824" stroke="white" stroke-miterlimit="10" stroke-linecap="round" stroke-linejoin="round"/>
<path d="M22.2442 46.7346L23.6447 48.1353" stroke="white" stroke-miterlimit="10" stroke-linecap="round" stroke-linejoin="round"/>
<path d="M15.5859 31.19L16.812 32.4162" stroke="white" stroke-miterlimit="10" stroke-linecap="round" stroke-linejoin="round"/>
<path d="M34.7319 15.1132L33.3312 16.5138" stroke="white" stroke-miterlimit="10" stroke-linecap="round" stroke-linejoin="round"/>
<path d="M16.0331 24.0148L14.6324 25.4154" stroke="white" stroke-miterlimit="10" stroke-linecap="round" stroke-linejoin="round"/>
<path d="M16.3489 39.5344L14.9483 40.9349" stroke="white" stroke-miterlimit="10" stroke-linecap="round" stroke-linejoin="round"/>
<path d="M23.9877 22.4016L22.5872 23.8021" stroke="white" stroke-miterlimit="10" stroke-linecap="round" stroke-linejoin="round"/>
<path d="M12.2562 30.8572L10.8556 32.2579" stroke="white" stroke-miterlimit="10" stroke-linecap="round" stroke-linejoin="round"/>
<path d="M46.6769 26.0608L45.2763 27.4615" stroke="white" stroke-miterlimit="10" stroke-linecap="round" stroke-linejoin="round"/>
<path d="M35.0264 45.4875L33.6257 46.8882" stroke="white" stroke-miterlimit="10" stroke-linecap="round" stroke-linejoin="round"/>
<path d="M31.2176 23.2517L35.1629 19.3064C35.393 19.0763 35.7166 18.9658 36.0392 19.0073L38.8525 19.3682C39.2851 19.4237 39.4653 19.952 39.157 20.2603L34.0167 25.4005" stroke="white" stroke-miterlimit="10" stroke-linecap="round" stroke-linejoin="round"/>
<path d="M20.075 28.949C17.3729 30.7037 15.9053 33.8569 16.3188 37.0668L16.726 40.2283C16.8857 41.4678 17.8346 42.4584 19.066 42.671L28.4248 44.2876C30.376 44.6245 32.0673 42.9169 31.7113 40.969L30.0087 31.6533L33.5477 27.2021C34.1382 26.4593 33.9557 25.3687 33.1556 24.8586L30.8866 23.412C30.3725 23.0842 29.7167 23.0772 29.1959 23.3943L22.8752 27.2399" stroke="white" stroke-miterlimit="10" stroke-linecap="round" stroke-linejoin="round"/>
<path d="M19.8247 36.6372L22.3465 39.1589" stroke="white" stroke-miterlimit="10" stroke-linecap="round" stroke-linejoin="round"/>
<path d="M20.558 33.3814L23.0796 35.9031" stroke="white" stroke-miterlimit="10" stroke-linecap="round" stroke-linejoin="round"/>
<path d="M10.3574 23.6621L8.95686 25.0627" stroke="white" stroke-miterlimit="10" stroke-linecap="round" stroke-linejoin="round"/>
<path d="M15.3593 13.99L13.9587 15.3905" stroke="white" stroke-miterlimit="10" stroke-linecap="round" stroke-linejoin="round"/>
<path d="M11.4445 49.5551C16.029 53.0815 21.7691 55.1797 28 55.1797C43.0108 55.1797 55.1797 43.011 55.1797 28C55.1797 12.9891 43.0108 0.820335 28 0.820335C12.9891 0.820335 0.820282 12.9891 0.820282 28C0.820282 35.4792 3.84177 42.2521 8.72995 47.1666" stroke="white" stroke-miterlimit="10" stroke-linecap="round" stroke-linejoin="round"/>
<path d="M51.6699 26.0728C50.6888 13.8586 40.4667 4.25205 28 4.25205C14.8844 4.25205 4.25209 14.8844 4.25209 28C4.25209 41.1156 14.8844 51.7479 28 51.7479C40.5503 51.7479 50.8253 42.012 51.6879 29.6812" stroke="white" stroke-miterlimit="10" stroke-linecap="round" stroke-linejoin="round"/>
</g>
</g>
<defs>
<clipPath id="clip0_2_316">
<rect width="56" height="56" fill="white"/>
</clipPath>
</defs>
</svg>
