<svg width="56" height="56" viewBox="0 0 56 56" fill="none" xmlns="http://www.w3.org/2000/svg">
<g clip-path="url(#clip0_2_38)">
<mask id="mask0_2_38" style="mask-type:luminance" maskUnits="userSpaceOnUse" x="0" y="0" width="56" height="56">
<path d="M0 3.8147e-06H56V56H0V3.8147e-06Z" fill="white"/>
</mask>
<g mask="url(#mask0_2_38)">
<path d="M47.3912 26.1827C47.6897 25.0272 47.5276 23.7555 46.8373 22.6678L45.6416 20.7844C45.1078 19.9433 43.8805 19.9433 43.3466 20.7844L42.151 22.6678C41.4893 23.7104 41.313 24.9221 41.5624 26.0386" stroke="white" stroke-miterlimit="10" stroke-linecap="round" stroke-linejoin="round"/>
<path d="M44.4941 23.8342V27.3347" stroke="white" stroke-miterlimit="10" stroke-linecap="round" stroke-linejoin="round"/>
<path d="M45.0379 27.6926C46.4466 25.9526 48.9682 25.5063 50.9053 26.7359L52.7888 27.9316C53.6298 28.4653 53.6298 29.6926 52.7888 30.2265L50.9053 31.4222C49.6725 32.2046 48.2029 32.3084 46.9343 31.8319" stroke="white" stroke-miterlimit="10" stroke-linecap="round" stroke-linejoin="round"/>
<path d="M49.7389 29.079H45.9296" stroke="white" stroke-miterlimit="10" stroke-linecap="round" stroke-linejoin="round"/>
<path d="M11.8548 32.314C7.60635 33.5411 4.49441 37.4473 4.46706 42.0846" stroke="white" stroke-miterlimit="10" stroke-linecap="round" stroke-linejoin="round"/>
<path d="M19.1395 37.0251C17.9502 35.9931 16.3979 35.3686 14.6997 35.3686C10.9771 35.3686 7.95553 38.3698 7.92239 42.0845" stroke="white" stroke-miterlimit="10" stroke-linecap="round" stroke-linejoin="round"/>
<path d="M17.694 40.7277C17.1626 39.6079 16.0215 38.8336 14.6997 38.8336C12.8702 38.8336 11.3872 40.3166 11.3872 42.1461" stroke="white" stroke-miterlimit="10" stroke-linecap="round" stroke-linejoin="round"/>
<path d="M19.2758 36.7955C18.329 38.336 17.7787 40.1464 17.7673 42.0845" stroke="white" stroke-miterlimit="10" stroke-linecap="round" stroke-linejoin="round"/>
<path d="M32.4395 37.0249C31.2503 35.993 29.6981 35.3686 28 35.3686C24.2774 35.3686 21.2558 38.3698 21.2228 42.0845" stroke="white" stroke-miterlimit="10" stroke-linecap="round" stroke-linejoin="round"/>
<path d="M31.3083 41.9779C31.2207 40.2266 29.7731 38.8336 28 38.8336C26.2093 38.8336 24.7506 40.2544 24.6894 42.0303" stroke="white" stroke-miterlimit="10" stroke-linecap="round" stroke-linejoin="round"/>
<path d="M51.5331 42.1461C51.5331 38.778 49.9059 35.79 47.3946 33.9253" stroke="white" stroke-miterlimit="10" stroke-linecap="round" stroke-linejoin="round"/>
<path d="M33.2976 35.7684C31.9018 37.5175 31.0675 39.7345 31.0675 42.1462" stroke="white" stroke-miterlimit="10" stroke-linecap="round" stroke-linejoin="round"/>
<path d="M35.3901 38.8264C34.8621 39.7645 34.5508 40.841 34.5246 41.9879" stroke="white" stroke-miterlimit="10" stroke-linecap="round" stroke-linejoin="round"/>
<path d="M42.6947 35.5122C42.2447 35.4181 41.7782 35.3687 41.3004 35.3687C40.1962 35.3687 39.1538 35.6327 38.2327 36.1009" stroke="white" stroke-miterlimit="10" stroke-linecap="round" stroke-linejoin="round"/>
<path d="M48.0778 42.1461C48.0778 39.6118 46.6869 37.4024 44.6267 36.2396" stroke="white" stroke-miterlimit="10" stroke-linecap="round" stroke-linejoin="round"/>
<path d="M44.6123 42.0846C44.5794 40.2835 43.1093 38.8335 41.3004 38.8335C39.4915 38.8335 38.0212 40.2835 37.9883 42.0846" stroke="white" stroke-miterlimit="10" stroke-linecap="round" stroke-linejoin="round"/>
<path d="M6.01931 49.4119L8.9884 53.6608C9.65351 54.6126 10.7415 55.1796 11.9028 55.1796H44.0972C45.2585 55.1796 46.3466 54.6126 47.0117 53.6608L49.9807 49.4119" stroke="white" stroke-miterlimit="10" stroke-linecap="round" stroke-linejoin="round"/>
<path d="M37.0154 49.4119H4.64841C2.5342 49.4119 0.82029 47.698 0.82029 45.5837V43.6876C0.82029 42.8022 1.53801 42.0846 2.4234 42.0846H53.5766C54.4619 42.0846 55.1797 42.8022 55.1797 43.6876V45.5837C55.1797 47.698 53.4658 49.4119 51.3515 49.4119H40.8231" stroke="white" stroke-miterlimit="10" stroke-linecap="round" stroke-linejoin="round"/>
<path d="M33.2456 22.9522C31.8933 22.6637 30.5228 22.488 29.1484 22.4251" stroke="white" stroke-miterlimit="10" stroke-linecap="round" stroke-linejoin="round"/>
<path d="M45.7776 30.8678C45.9342 30.5246 46.0207 30.1427 46.0188 29.7405C46.0137 28.6643 45.3415 27.7025 44.3563 27.2691L38.5679 24.7232" stroke="white" stroke-miterlimit="10" stroke-linecap="round" stroke-linejoin="round"/>
<path d="M12.1644 27.0401L11.6438 27.2691C10.6586 27.7023 9.98618 28.6643 9.98126 29.7404C9.97415 31.23 11.1796 32.4397 12.6674 32.4397H17.3567C18.1502 32.4397 18.7933 33.0828 18.7933 33.8761V35.2605C18.7933 36.7427 19.9949 37.9443 21.4772 37.9443C22.9595 37.9443 24.1611 36.7427 24.1611 35.2605V34.3809C24.1611 33.5876 24.8042 32.9444 25.5976 32.9444H31.8613C32.6546 32.9444 33.2978 33.5876 33.2978 34.3809V36.3662C33.2978 37.7289 34.4025 38.8335 35.7653 38.8335C37.1281 38.8335 38.2327 37.7289 38.2327 36.3662V33.8761C38.2327 33.0828 38.876 32.4397 39.6692 32.4397H41.9712" stroke="white" stroke-miterlimit="10" stroke-linecap="round" stroke-linejoin="round"/>
<path d="M19.9557 23.7208C19.2555 23.9574 18.5631 24.2258 17.8807 24.5258L17.3301 24.7681" stroke="white" stroke-miterlimit="10" stroke-linecap="round" stroke-linejoin="round"/>
<path d="M35.7828 27.017C34.2231 27.017 32.9588 25.7525 32.9588 24.193C32.9588 22.6333 34.2231 21.3689 35.7828 21.3689C37.3425 21.3689 38.6069 22.6333 38.6069 24.193C38.6069 25.7525 37.3425 27.017 35.7828 27.017Z" stroke="white" stroke-miterlimit="10" stroke-linecap="round" stroke-linejoin="round"/>
<path d="M14.6997 28.6196C13.14 28.6196 11.8756 27.3552 11.8756 25.7955C11.8756 24.2359 13.14 22.9715 14.6997 22.9715C16.2594 22.9715 17.5237 24.2359 17.5237 25.7955C17.5237 27.3552 16.2594 28.6196 14.6997 28.6196Z" stroke="white" stroke-miterlimit="10" stroke-linecap="round" stroke-linejoin="round"/>
<path d="M44.6128 36.2643C43.0531 36.2643 41.7888 35 41.7888 33.4404C41.7888 31.8806 43.0531 30.6162 44.6128 30.6162C46.1725 30.6162 47.4369 31.8806 47.4369 33.4404C47.4369 35 46.1725 36.2643 44.6128 36.2643Z" stroke="white" stroke-miterlimit="10" stroke-linecap="round" stroke-linejoin="round"/>
<path d="M33.157 13.5685H36.0865C37.2142 13.5685 38.3077 13.1813 39.184 12.4717L39.94 11.8594C40.8163 11.1498 41.9097 10.7626 43.0375 10.7626H54.086C54.6899 10.7626 55.1797 10.2728 55.1797 9.66883V7.91883C55.1797 7.31464 54.6899 6.82508 54.086 6.82508H43.0375C41.9097 6.82508 40.8163 6.43778 39.94 5.72804L39.184 5.11598C38.3077 4.40614 37.2142 4.01895 36.0865 4.01895H33.157" stroke="white" stroke-miterlimit="10" stroke-linecap="round" stroke-linejoin="round"/>
<path d="M33.157 10.3853H35.5701" stroke="white" stroke-miterlimit="10" stroke-linecap="round" stroke-linejoin="round"/>
<path d="M33.157 7.20219H35.5701" stroke="white" stroke-miterlimit="10" stroke-linecap="round" stroke-linejoin="round"/>
<path d="M22.8801 5.73567V2.53317C22.8801 1.58708 23.6469 0.82036 24.5929 0.82036C25.5389 0.82036 26.3057 1.58708 26.3057 2.53317V24.9746C26.3057 25.9207 25.5389 26.6875 24.5929 26.6875C23.6469 26.6875 22.8801 25.9207 22.8801 24.9746V9.30567" stroke="white" stroke-miterlimit="10" stroke-linecap="round" stroke-linejoin="round"/>
<path d="M28.0185 16.3668C27.0725 16.3668 26.3057 15.6 26.3057 14.6541V2.53319C26.3057 1.5871 27.0725 0.820268 28.0185 0.820268C28.9645 0.820268 29.7313 1.5871 29.7313 2.53319V14.6541C29.7313 15.6 28.9645 16.3668 28.0185 16.3668Z" stroke="white" stroke-miterlimit="10" stroke-linecap="round" stroke-linejoin="round"/>
<path d="M31.4441 16.3668C30.4983 16.3668 29.7313 15.6 29.7313 14.6541V2.53319C29.7313 1.5871 30.4983 0.820268 31.4441 0.820268C32.3901 0.820268 33.1569 1.5871 33.1569 2.53319V14.6541C33.1569 15.6 32.3901 16.3668 31.4441 16.3668Z" stroke="white" stroke-miterlimit="10" stroke-linecap="round" stroke-linejoin="round"/>
<path d="M29.6323 26.3746C29.1237 26.3746 28.7113 25.9623 28.7113 25.4537C28.7113 24.9451 29.1237 24.5328 29.6323 24.5328C30.1408 24.5328 30.5532 24.9451 30.5532 25.4537C30.5532 25.9623 30.1408 26.3746 29.6323 26.3746Z" fill="white"/>
<path d="M33.157 30.9399C32.6484 30.9399 32.236 30.5275 32.236 30.0189C32.236 29.5103 32.6484 29.098 33.157 29.098C33.6656 29.098 34.0779 29.5103 34.0779 30.0189C34.0779 30.5275 33.6656 30.9399 33.157 30.9399Z" fill="white"/>
<path d="M20.963 30.9399C20.4544 30.9399 20.0421 30.5275 20.0421 30.0189C20.0421 29.5103 20.4544 29.098 20.963 29.098C21.4716 29.098 21.8839 29.5103 21.8839 30.0189C21.8839 30.5275 21.4716 30.9399 20.963 30.9399Z" fill="white"/>
<path d="M39.9022 30.019C39.3936 30.019 38.9813 29.6066 38.9813 29.098C38.9813 28.5894 39.3936 28.1771 39.9022 28.1771C40.4108 28.1771 40.8232 28.5894 40.8232 29.098C40.8232 29.6066 40.4108 30.019 39.9022 30.019Z" fill="white"/>
</g>
</g>
<defs>
<clipPath id="clip0_2_38">
<rect width="56" height="56" fill="white"/>
</clipPath>
</defs>
</svg>
