<svg width="56" height="56" viewBox="0 0 56 56" fill="none" xmlns="http://www.w3.org/2000/svg">
<g clip-path="url(#clip0_2_116)">
<mask id="mask0_2_116" style="mask-type:luminance" maskUnits="userSpaceOnUse" x="0" y="0" width="56" height="56">
<path d="M0 3.8147e-06H56V56H0V3.8147e-06Z" fill="white"/>
</mask>
<g mask="url(#mask0_2_116)">
<path d="M18.8803 7.68686C21.6628 6.4378 24.7494 5.74217 28 5.74217C31.2506 5.74217 34.3372 6.4378 37.1197 7.68686" stroke="white" stroke-miterlimit="10" stroke-linecap="round" stroke-linejoin="round"/>
<path d="M35.1728 49.0788C40.9883 47.1035 45.7188 42.7919 48.2497 37.2586" stroke="white" stroke-miterlimit="10" stroke-linecap="round" stroke-linejoin="round"/>
<path d="M20.8272 49.0788C19.9741 48.7889 19.1439 48.4488 18.3411 48.0605" stroke="white" stroke-miterlimit="10" stroke-linecap="round" stroke-linejoin="round"/>
<path d="M6.07469 24.1435C6.75719 20.2278 8.46125 16.6644 10.9036 13.7397" stroke="white" stroke-miterlimit="10" stroke-linecap="round" stroke-linejoin="round"/>
<path d="M49.4769 33.8713C49.502 33.7794 49.5261 33.6864 49.5501 33.5935C49.6037 33.3856 49.6551 33.1778 49.7022 32.9689C50.0653 31.371 50.2578 29.7085 50.2578 28C50.2578 22.5717 48.3197 17.5996 45.0964 13.7397" stroke="white" stroke-miterlimit="10" stroke-linecap="round" stroke-linejoin="round"/>
<path d="M40.8089 40.9981C40.7564 41.1042 40.7039 41.207 40.6514 41.3054C40.518 41.5537 40.6219 41.8644 40.8767 41.9869L42.7667 42.8969C43.0555 43.0358 43.3989 42.8706 43.47 42.5578C43.7106 41.4958 44.2892 39.2317 45.2539 37.1601" stroke="white" stroke-miterlimit="10" stroke-linecap="round" stroke-linejoin="round"/>
<path d="M42.7087 36.0675C42.5228 36.6395 42.3041 37.2892 42.0645 37.9542" stroke="white" stroke-miterlimit="10" stroke-linecap="round" stroke-linejoin="round"/>
<path d="M49.4965 33.6975C50.0373 32.7569 49.4688 31.5431 48.3871 31.3643C48.3212 31.3534 48.2617 31.3158 48.2327 31.2557C48.0671 30.9121 47.7821 30.6332 47.4048 30.4819C47.3434 30.4573 47.2975 30.4032 47.2824 30.3389C47.1686 29.851 46.8261 29.4251 46.3245 29.2282C45.6433 28.9608 44.8895 29.2009 44.4771 29.7651C44.4129 29.8531 44.2914 29.872 44.197 29.8178C43.214 29.2547 41.9544 29.7101 41.557 30.7747C41.5298 30.8477 41.4623 30.8989 41.3848 30.9077C40.7269 30.9824 40.131 31.4083 39.8721 32.0675C39.3808 33.3192 40.3456 34.6099 41.6151 34.5897C41.7291 34.5878 41.8304 34.6688 41.8388 34.7825C41.9178 35.8478 43.0384 36.5284 44.0193 36.1105C44.1305 36.063 44.2604 36.1174 44.3021 36.2308C44.6916 37.2878 46.0657 37.5942 46.8698 36.8138C46.9506 36.7354 47.0772 36.7235 47.1619 36.7975C47.3165 36.9329 47.4961 37.0448 47.6984 37.1243C49.6959 37.9084 51.1386 35.2427 49.5492 33.9777C49.4641 33.9098 49.4422 33.7919 49.4965 33.6975Z" stroke="white" stroke-miterlimit="10" stroke-linecap="round" stroke-linejoin="round"/>
<path d="M38.862 34.522C38.8052 33.4501 38.792 32.1726 38.9113 30.9105" stroke="white" stroke-miterlimit="10" stroke-linecap="round" stroke-linejoin="round"/>
<path d="M36.1463 30.7344C36.1714 31.6433 36.1856 32.7458 36.155 33.8177" stroke="white" stroke-miterlimit="10" stroke-linecap="round" stroke-linejoin="round"/>
<path d="M34.7102 24.3665C34.9453 24.3119 35.1969 24.302 35.4517 24.3479C35.5589 24.3676 35.6672 24.3086 35.6978 24.2047C35.7066 24.174 35.7164 24.1445 35.7284 24.115" stroke="white" stroke-miterlimit="10" stroke-linecap="round" stroke-linejoin="round"/>
<path d="M38.8227 23.9072C39.1781 23.9499 39.4931 24.1095 39.736 24.3491C39.783 24.3961 39.8519 24.4114 39.9175 24.3994C40.996 24.2047 41.9399 25.1574 41.7452 26.2249C41.7255 26.332 41.7856 26.4359 41.8896 26.4709C43.8113 27.1294 43.3464 30.1252 41.2016 30.0563C40.9839 30.0497 40.7772 30.0038 40.5858 29.9283C40.4819 29.8867 40.366 29.9414 40.3167 30.042C39.8213 31.0472 38.4235 31.2189 37.7016 30.3538C37.625 30.2619 37.4839 30.2542 37.3953 30.3352C36.6111 31.0581 35.3271 30.7934 34.895 29.8167C34.86 29.7369 34.7813 29.6942 34.6992 29.6953" stroke="white" stroke-miterlimit="10" stroke-linecap="round" stroke-linejoin="round"/>
<path d="M35.198 40.868C34.988 42.5414 34.6347 44.8744 34.1622 46.399C34.078 46.6681 34.2388 46.9525 34.5122 47.0258L36.5389 47.5639C36.8495 47.6459 37.1558 47.4195 37.1667 47.0991C37.2028 46.0097 37.345 43.6778 37.9039 41.4619" stroke="white" stroke-miterlimit="10" stroke-linecap="round" stroke-linejoin="round"/>
<path d="M32.9798 36.0249C33.0269 35.9931 33.0619 35.9428 33.0717 35.8859C33.2609 34.7659 34.4126 34.0813 35.4845 34.4499C35.5873 34.4849 35.7033 34.4433 35.7492 34.3449C36.0489 33.7127 36.7434 33.3353 37.4631 33.4699C37.9925 33.5694 38.4092 33.9227 38.6126 34.3809C38.64 34.4411 38.6947 34.4859 38.7592 34.498C39.1584 34.5756 39.4909 34.7966 39.7184 35.1028C39.7578 35.1564 39.8234 35.1816 39.8901 35.1805C40.9861 35.152 41.7736 36.237 41.4192 37.263C41.3831 37.3658 41.4269 37.4774 41.5231 37.5288C43.3223 38.4716 42.4069 41.3613 40.297 40.9664C40.0837 40.927 39.8869 40.8505 39.7086 40.7466C39.6123 40.6897 39.4898 40.7258 39.4253 40.8177C38.7822 41.7353 37.3756 41.6927 36.7937 40.728C36.7314 40.6252 36.5936 40.5956 36.4929 40.6634C35.6081 41.2584 34.3798 40.8002 34.102 39.7688C34.0725 39.6594 33.9576 39.5981 33.8461 39.6222C33.4086 39.713 32.9765 39.6375 32.6123 39.4428" stroke="white" stroke-miterlimit="10" stroke-linecap="round" stroke-linejoin="round"/>
<path d="M18.6812 18.9033L18.6823 18.9022C19.5912 18.2449 20.5154 17.2999 21.3292 16.1361C23.4347 13.1272 24.885 9.17767 23.4839 8.08063C22.8954 7.82032 21.6551 10.9824 18.4669 12.2391" stroke="white" stroke-miterlimit="10" stroke-linecap="round" stroke-linejoin="round"/>
<path d="M37.3188 18.9033L37.3177 18.9022C36.4088 18.2449 35.4845 17.2999 34.6708 16.1361C32.5653 13.1272 31.115 9.17767 32.5161 8.08063C33.1045 7.82032 34.3449 10.9824 37.5331 12.2391" stroke="white" stroke-miterlimit="10" stroke-linecap="round" stroke-linejoin="round"/>
<path d="M17.3874 20.5428C18.4188 20.744 19.6755 20.8468 21.1192 20.6981C21.4408 20.6653 21.7492 20.7254 22.0205 20.8567" stroke="white" stroke-miterlimit="10" stroke-linecap="round" stroke-linejoin="round"/>
<path d="M12.1111 21.9822C12.1745 22.0423 12.2445 22.0992 12.3189 22.1495C12.4655 22.2491 15.9162 24.5481 21.2898 24.0527" stroke="white" stroke-miterlimit="10" stroke-linecap="round" stroke-linejoin="round"/>
<path d="M34.7102 24.0527C40.0838 24.5481 43.5345 22.2491 43.6811 22.1496C43.7555 22.0992 43.8255 22.0424 43.8889 21.9822" stroke="white" stroke-miterlimit="10" stroke-linecap="round" stroke-linejoin="round"/>
<path d="M33.9795 20.8567C34.2508 20.7255 34.5592 20.6653 34.8808 20.6981C36.3245 20.8469 37.5812 20.744 38.6126 20.5428" stroke="white" stroke-miterlimit="10" stroke-linecap="round" stroke-linejoin="round"/>
<path d="M20.2462 2.92108C21.0455 3.64678 16.9177 8.49723 19.0166 14.8798C19.6009 16.6565 19.1497 18.6382 17.9361 19.9832C15.897 22.2434 13.5239 22.7504 11.8805 21.8706C9.65725 20.6803 9.68744 15.8296 11.9479 11.0363C14.2083 6.24301 18.0229 1.73075 20.2462 2.92108Z" stroke="white" stroke-miterlimit="10" stroke-linecap="round" stroke-linejoin="round"/>
<path d="M35.7538 2.92108C34.9545 3.64678 39.0823 8.49723 36.9834 14.8798C36.3991 16.6565 36.8503 18.6382 38.0639 19.9832C40.103 22.2434 42.4761 22.7504 44.1195 21.8706C46.3427 20.6803 46.3126 15.8296 44.0521 11.0363C41.7916 6.24301 37.9771 1.73075 35.7538 2.92108Z" stroke="white" stroke-miterlimit="10" stroke-linecap="round" stroke-linejoin="round"/>
<path d="M23.3592 32.7524C22.1331 32.1399 21.2898 30.8711 21.2898 29.4066V23.6163C21.2898 20.5396 23.7836 18.0469 26.8592 18.0469H29.1408C32.2164 18.0469 34.7101 20.5396 34.7101 23.6163V29.4066C34.7101 30.8711 33.8668 32.1399 32.6408 32.7524" stroke="white" stroke-miterlimit="10" stroke-linecap="round" stroke-linejoin="round"/>
<path d="M30.6443 42.2419H25.3556C24.2683 42.2419 23.3869 41.3604 23.3869 40.2731V39.5129C23.3869 38.4256 24.2683 37.5441 25.3556 37.5441H30.6443C31.7316 37.5441 32.6131 38.4256 32.6131 39.5129V40.2731C32.6131 41.3604 31.7316 42.2419 30.6443 42.2419Z" stroke="white" stroke-miterlimit="10" stroke-linecap="round" stroke-linejoin="round"/>
<path d="M30.225 46.5638H25.775C24.6878 46.5638 23.8062 45.6824 23.8062 44.5951V44.2106C23.8062 43.1232 24.6878 42.2419 25.775 42.2419H30.225C31.3123 42.2419 32.1937 43.1232 32.1937 44.2106V44.5951C32.1937 45.6824 31.3123 46.5638 30.225 46.5638Z" stroke="white" stroke-miterlimit="10" stroke-linecap="round" stroke-linejoin="round"/>
<path d="M28 51.5963C27.0736 51.5963 26.3225 50.8453 26.3225 49.9188V46.5639H29.6775V49.9188C29.6775 50.8453 28.9264 51.5963 28 51.5963Z" stroke="white" stroke-miterlimit="10" stroke-linecap="round" stroke-linejoin="round"/>
<path d="M26.3225 46.5638C26.3225 46.5638 20.4513 46.9269 20.4513 50.522C20.4513 52.3699 22.0024 52.5877 23.5102 52.3628C25.138 52.12 26.3225 50.768 26.3225 49.2106V46.5638Z" stroke="white" stroke-miterlimit="10" stroke-linecap="round" stroke-linejoin="round"/>
<path d="M29.6775 46.5638C29.6775 46.5638 35.5487 46.9269 35.5487 50.522C35.5487 52.3699 33.9976 52.5877 32.4898 52.3628C30.862 52.12 29.6775 50.768 29.6775 49.2106V46.5638Z" stroke="white" stroke-miterlimit="10" stroke-linecap="round" stroke-linejoin="round"/>
<path d="M31.0637 37.5441H24.9363C23.849 37.5441 22.9676 36.6627 22.9676 35.5754V33.9319C22.9676 32.8446 23.849 31.9632 24.9363 31.9632H31.0637C32.151 31.9632 33.0325 32.8446 33.0325 33.9319V35.5754C33.0325 36.6627 32.151 37.5441 31.0637 37.5441Z" stroke="white" stroke-miterlimit="10" stroke-linecap="round" stroke-linejoin="round"/>
<path d="M5.42053 26.4151C5.48845 27.1553 5.6501 27.8985 5.54992 28.6354C5.35403 30.0767 4.17639 31.408 4.5406 32.8157C4.83909 33.9698 6.07853 34.6632 6.48956 35.7823C6.93581 36.9972 6.29651 38.372 6.57848 39.6351C7.06739 41.8247 9.98376 41.6285 10.7435 43.7396C11.6393 46.2285 15.5057 47.959 16.914 48.0612C18.0938 48.1466 19.511 48.1223 20.1574 47.1342C21.3373 45.3304 18.8633 43.3732 18.7559 41.5323C18.7065 40.6863 19.0786 39.8242 18.8568 39.0064C18.511 37.7305 16.8889 37.1279 16.532 35.8551C16.2075 34.6974 17.0136 33.2523 16.2166 32.3505C15.5316 31.5755 14.0427 31.7681 13.5843 30.8417C13.2598 30.1859 13.6809 29.3273 13.3154 28.6935C12.9487 28.0572 12.0337 28.027 11.4531 27.5758C10.9325 27.1711 10.7438 26.4808 10.6131 25.8355C10.2899 24.2396 9.49693 23.2697 7.74835 23.4509C6.01093 23.6309 5.26609 24.7313 5.42053 26.4151Z" stroke="white" stroke-miterlimit="10" stroke-linecap="round" stroke-linejoin="round"/>
<path d="M7.80808 30.5602L8.45132 30.4304" stroke="white" stroke-miterlimit="10" stroke-linecap="round" stroke-linejoin="round"/>
<path d="M11.8657 40.0323L12.0161 39.3935" stroke="white" stroke-miterlimit="10" stroke-linecap="round" stroke-linejoin="round"/>
<path d="M12.2439 33.7883L12.6926 34.2672" stroke="white" stroke-miterlimit="10" stroke-linecap="round" stroke-linejoin="round"/>
<path d="M15.7302 44.1115L16.3592 43.9244" stroke="white" stroke-miterlimit="10" stroke-linecap="round" stroke-linejoin="round"/>
<path d="M5.55906 12.6747C5.96243 12.0839 6.38911 11.509 6.83798 10.9513" stroke="white" stroke-miterlimit="10" stroke-linecap="round" stroke-linejoin="round"/>
<path d="M45.0667 49.1538C41.7221 51.857 37.6854 53.8034 33.1691 54.6785C18.435 57.5333 4.17644 47.9033 1.32154 33.1691C0.122785 26.9825 1.12532 20.8797 3.78247 15.6696" stroke="white" stroke-miterlimit="10" stroke-linecap="round" stroke-linejoin="round"/>
<path d="M9.20134 8.37226C12.8451 4.87587 17.5044 2.35358 22.8309 1.32151C37.565 -1.53328 51.8236 8.09674 54.6785 22.8309C56.4199 31.8191 53.5155 40.6303 47.6404 46.7838" stroke="white" stroke-miterlimit="10" stroke-linecap="round" stroke-linejoin="round"/>
</g>
</g>
<defs>
<clipPath id="clip0_2_116">
<rect width="56" height="56" fill="white"/>
</clipPath>
</defs>
</svg>
