<svg width="71" height="71" viewBox="0 0 71 71" fill="none" xmlns="http://www.w3.org/2000/svg">
<mask id="mask0_191_198" style="mask-type:luminance" maskUnits="userSpaceOnUse" x="0" y="0" width="71" height="71">
<path d="M0 0H71V71H0V0Z" fill="white"/>
</mask>
<g mask="url(#mask0_191_198)">
<path d="M68.9199 35.5C68.9199 53.9574 53.9574 68.9199 35.5 68.9199C17.0426 68.9199 2.08008 53.9574 2.08008 35.5C2.08008 17.0426 17.0426 2.08008 35.5 2.08008C53.9574 2.08008 68.9199 17.0426 68.9199 35.5Z" stroke="#BBBBBB" stroke-width="3" stroke-miterlimit="10"/>
<path d="M9.79156 56.8547C15.9218 53.1687 25.1629 50.8222 35.5001 50.8222C45.8372 50.8222 55.0782 53.1687 61.2085 56.8547" stroke="#BBBBBB" stroke-width="3" stroke-miterlimit="10"/>
</g>
<path fill-rule="evenodd" clip-rule="evenodd" d="M35.5 70.4199C30.0115 70.4199 25.4463 66.0096 22.3426 59.8023C19.1941 53.5053 17.29 44.9111 17.29 35.5C17.29 26.0889 19.1941 17.4947 22.3426 11.1977C25.4463 4.99044 30.0115 0.580078 35.5 0.580078C39.2954 0.580078 42.6493 2.68905 45.3836 6.04281C44.9261 6.01441 44.4647 6 44 6C43.1141 6 42.2405 6.05236 41.382 6.15416C39.4973 4.45086 37.4916 3.58008 35.5 3.58008C31.7599 3.58008 27.9701 6.651 25.0259 12.5393C22.1266 18.338 20.29 26.4537 20.29 35.5C20.29 44.5463 22.1266 52.662 25.0259 58.4607C27.9701 64.349 31.7599 67.4199 35.5 67.4199C39.2401 67.4199 43.03 64.349 45.9741 58.4607C47.2738 55.8614 48.3599 52.7965 49.1627 49.3909C50.3021 49.1169 51.4069 48.7542 52.4694 48.3106C51.598 52.6244 50.2963 56.5246 48.6574 59.8023C45.5538 66.0096 40.9886 70.4199 35.5 70.4199Z" fill="#BBBBBB"/>
<path fill-rule="evenodd" clip-rule="evenodd" d="M37 48.863V68.9199H34V47.6012C34.9612 48.0925 35.9634 48.5153 37 48.863ZM37 7.13704V2.08008H34V8.39884C34.9612 7.90746 35.9634 7.4847 37 7.13704Z" fill="#BBBBBB"/>
<path fill-rule="evenodd" clip-rule="evenodd" d="M22.8281 34H2.08008V37H23.9192C23.486 36.0349 23.1203 35.0329 22.8281 34ZM64.0808 37H68.9199V34H65.1719C64.8797 35.0329 64.514 36.0349 64.0808 37Z" fill="#BBBBBB"/>
<path fill-rule="evenodd" clip-rule="evenodd" d="M23.2915 20.5554C23.6416 19.5816 24.0585 18.6395 24.5366 17.7348C18.9895 16.7458 14.1795 15.0332 10.5645 12.8596L9.01862 15.4306C12.8294 17.722 17.7333 19.4936 23.2915 20.5554ZM61.6044 14.8036L60.4355 12.8596C60.3349 12.9201 60.2334 12.9802 60.1309 13.04C60.6518 13.6014 61.1438 14.1901 61.6044 14.8036Z" fill="#BBBBBB"/>
<path d="M55.524 30.3184V38H36.276V34.9238L39.0006 34.3965V16.0273L36.276 15.5V12.4062H47.2271V15.5L44.1334 16.0273V34.0625H51.358L51.6041 30.3184H55.524Z" fill="#BBBBBB"/>
</svg>
