<svg width="54" height="51" viewBox="0 0 54 51" fill="none" xmlns="http://www.w3.org/2000/svg">
<path d="M14.2882 21.5169C11.948 21.5169 10.0509 19.7336 10.0509 17.5338V13.5508H18.5255V17.5338C18.5255 19.7336 16.6283 21.5169 14.2882 21.5169Z" stroke="black" stroke-width="4" stroke-miterlimit="10" stroke-linecap="round" stroke-linejoin="round"/>
<path d="M14.2881 21.5168V29.4829" stroke="black" stroke-width="4" stroke-miterlimit="10" stroke-linecap="round" stroke-linejoin="round"/>
<path d="M10.0509 29.4832H18.5255" stroke="black" stroke-width="4" stroke-miterlimit="10" stroke-linecap="round" stroke-linejoin="round"/>
<path d="M10.0509 37.4492H18.5255" stroke="black" stroke-width="4" stroke-miterlimit="10" stroke-linecap="round" stroke-linejoin="round"/>
<path d="M39.7119 13.5508H43.9492" stroke="black" stroke-width="4" stroke-miterlimit="10" stroke-linecap="round" stroke-linejoin="round"/>
<path d="M35.4746 21.5168H43.9492" stroke="black" stroke-width="4" stroke-miterlimit="10" stroke-linecap="round" stroke-linejoin="round"/>
<path d="M35.4746 29.4832H43.9492" stroke="black" stroke-width="4" stroke-miterlimit="10" stroke-linecap="round" stroke-linejoin="round"/>
<path d="M35.4746 37.4492H39.7119" stroke="black" stroke-width="4" stroke-miterlimit="10" stroke-linecap="round" stroke-linejoin="round"/>
<path d="M52 5.98305V45.0169C52 47.2076 50.0932 49 47.7627 49H31.2373C28.9068 49 27 47.2076 27 45.0169C27 47.2076 25.0932 49 22.7627 49H6.23729C3.90678 49 2 47.2076 2 45.0169V5.98305C2 3.79237 3.90678 2 6.23729 2H22.7627C25.0932 2 27 3.79237 27 5.98305C27 3.79237 28.9068 2 31.2373 2H47.7627C50.0932 2 52 3.79237 52 5.98305Z" stroke="black" stroke-width="4" stroke-miterlimit="10" stroke-linecap="round" stroke-linejoin="round"/>
<path d="M27 13.5508V37.4491" stroke="black" stroke-width="4" stroke-miterlimit="10" stroke-linecap="round" stroke-linejoin="round"/>
</svg>
