<svg width="71" height="64" viewBox="0 0 71 64" fill="none" xmlns="http://www.w3.org/2000/svg">
<rect x="8.5" y="1.5" width="61" height="61" rx="5.5" stroke="#BBBBBB" stroke-width="3"/>
<path d="M2 32.5H17" stroke="#BBBBBB" stroke-width="3" stroke-linecap="round"/>
<path d="M2 16.5H17" stroke="#BBBBBB" stroke-width="3" stroke-linecap="round"/>
<path d="M2 49.5H17" stroke="#BBBBBB" stroke-width="3" stroke-linecap="round"/>
<path d="M21.8217 46.5455H24.2869L26.8906 52.8977H27.0014L29.6051 46.5455H32.0703V56H30.1314V49.8462H30.0529L27.6062 55.9538H26.2859L23.8391 49.8232H23.7607V56H21.8217V46.5455ZM33.7172 56V46.5455H40.088V48.1935H35.7162V50.4464H39.7602V52.0945H35.7162V54.3519H40.1064V56H33.7172ZM49.5852 46.5455V56H47.8587L43.7454 50.0494H43.6761V56H41.6772V46.5455H43.4315L47.5124 52.4915H47.5955V46.5455H49.5852ZM57.0766 46.5455H59.0756V52.6854C59.0756 53.3748 58.9109 53.978 58.5816 54.495C58.2554 55.0121 57.7983 55.4152 57.2105 55.7045C56.6227 55.9908 55.9379 56.1339 55.1562 56.1339C54.3714 56.1339 53.685 55.9908 53.0972 55.7045C52.5094 55.4152 52.0523 55.0121 51.7261 54.495C51.3999 53.978 51.2368 53.3748 51.2368 52.6854V46.5455H53.2357V52.5146C53.2357 52.8746 53.3142 53.1947 53.4711 53.4748C53.6312 53.7549 53.8559 53.9749 54.1452 54.1349C54.4345 54.295 54.7715 54.375 55.1562 54.375C55.5439 54.375 55.8809 54.295 56.1672 54.1349C56.4565 53.9749 56.6796 53.7549 56.8366 53.4748C56.9966 53.1947 57.0766 52.8746 57.0766 52.5146V46.5455Z" fill="#BBBBBB"/>
<path d="M44.2188 35H32.2812C32.1771 35 32.125 34.9479 32.125 34.8438V31.2188C32.125 31.1771 32.1458 31.1354 32.1875 31.0938L40.0938 20.25C40.2396 20.0521 40.3594 19.8021 40.4531 19.5C40.5573 19.1875 40.6094 18.9167 40.6094 18.6875C40.6094 18.0625 40.3854 17.4896 39.9375 16.9688C39.4896 16.4479 38.9219 16.1875 38.2344 16.1875C37.5781 16.1875 37.0208 16.4375 36.5625 16.9375C36.1042 17.4375 35.875 18.0729 35.875 18.8438V20.4062C35.875 20.5104 35.8229 20.5625 35.7188 20.5625H32.125C32.0417 20.5625 32 20.5104 32 20.4062V18.8438C32 17.6458 32.2969 16.5573 32.8906 15.5781C33.474 14.599 34.2396 13.8229 35.1875 13.25C36.1354 12.6667 37.151 12.375 38.2344 12.375C39.3802 12.375 40.4271 12.6667 41.375 13.25C42.3125 13.8438 43.0625 14.6198 43.625 15.5781C44.1979 16.5365 44.4844 17.5729 44.4844 18.6875C44.4844 19.3854 44.3594 20.099 44.1094 20.8281C43.8698 21.5469 43.5365 22.1875 43.1094 22.75L37.0312 31.0938H44.2188C44.3125 31.0938 44.3594 31.1354 44.3594 31.2188V34.8438C44.3594 34.9479 44.3125 35 44.2188 35Z" fill="#BBBBBB"/>
</svg>
