<svg width="71" height="64" viewBox="0 0 71 64" fill="none" xmlns="http://www.w3.org/2000/svg">
<rect x="8.5" y="1.5" width="61" height="61" rx="5.5" stroke="#BBBBBB" stroke-width="3"/>
<path d="M2 32.5H17" stroke="#BBBBBB" stroke-width="3" stroke-linecap="round"/>
<path d="M2 16.5H17" stroke="#BBBBBB" stroke-width="3" stroke-linecap="round"/>
<path d="M2 49.5H17" stroke="#BBBBBB" stroke-width="3" stroke-linecap="round"/>
<path d="M21.8217 46.5455H24.2869L26.8906 52.8977H27.0014L29.6051 46.5455H32.0703V56H30.1314V49.8462H30.0529L27.6062 55.9538H26.2859L23.8391 49.8232H23.7607V56H21.8217V46.5455ZM33.7172 56V46.5455H40.088V48.1935H35.7162V50.4464H39.7602V52.0945H35.7162V54.3519H40.1064V56H33.7172ZM49.5852 46.5455V56H47.8587L43.7454 50.0494H43.6761V56H41.6772V46.5455H43.4315L47.5124 52.4915H47.5955V46.5455H49.5852ZM57.0766 46.5455H59.0756V52.6854C59.0756 53.3748 58.9109 53.978 58.5816 54.495C58.2554 55.0121 57.7983 55.4152 57.2105 55.7045C56.6227 55.9908 55.9379 56.1339 55.1562 56.1339C54.3714 56.1339 53.685 55.9908 53.0972 55.7045C52.5094 55.4152 52.0523 55.0121 51.7261 54.495C51.3999 53.978 51.2368 53.3748 51.2368 52.6854V46.5455H53.2357V52.5146C53.2357 52.8746 53.3142 53.1947 53.4711 53.4748C53.6312 53.7549 53.8559 53.9749 54.1452 54.1349C54.4345 54.295 54.7715 54.375 55.1562 54.375C55.5439 54.375 55.8809 54.295 56.1672 54.1349C56.4565 53.9749 56.6796 53.7549 56.8366 53.4748C56.9966 53.1947 57.0766 52.8746 57.0766 52.5146V46.5455Z" fill="#BBBBBB"/>
<path d="M38.2188 35.3594C37.1042 35.3594 36.0677 35.0625 35.1094 34.4688C34.1615 33.8854 33.401 33.1042 32.8281 32.125C32.2656 31.1354 31.9844 30.0573 31.9844 28.8906V27.4531C31.9844 27.3385 32.026 27.2812 32.1094 27.2812H35.7031C35.8073 27.2812 35.8594 27.3385 35.8594 27.4531V28.8906C35.8594 29.5885 36.0833 30.1927 36.5312 30.7031C36.9792 31.2031 37.5417 31.4531 38.2188 31.4531C38.9688 31.4531 39.5573 31.1927 39.9844 30.6719C40.4115 30.1406 40.625 29.5469 40.625 28.8906V28.0312C40.625 27.3646 40.4167 26.7656 40 26.2344C39.5833 25.7031 39.0573 25.4375 38.4219 25.4375H37.1719C37.0677 25.4375 37.0156 25.3802 37.0156 25.2656L37.0469 21.6875C37.0469 21.6042 37.0885 21.5625 37.1719 21.5625H38.4219C38.9948 21.5625 39.5052 21.3385 39.9531 20.8906C40.401 20.4427 40.625 19.8542 40.625 19.125V18.6875C40.625 18 40.3958 17.4167 39.9375 16.9375C39.4792 16.4583 38.9062 16.2188 38.2188 16.2188C37.5625 16.2188 37.0052 16.4583 36.5469 16.9375C36.0885 17.4167 35.8594 18 35.8594 18.6875V20.2188C35.8594 20.3229 35.8177 20.375 35.7344 20.375H32.1406C32.0573 20.375 32.0156 20.3229 32.0156 20.2188V18.5156C32.0156 17.349 32.3125 16.3073 32.9062 15.3906C33.4896 14.474 34.2552 13.7448 35.2031 13.2031C36.151 12.651 37.1562 12.375 38.2188 12.375C39.375 12.375 40.4271 12.6562 41.375 13.2188C42.3229 13.7917 43.0729 14.5469 43.625 15.4844C44.1875 16.4219 44.4688 17.4531 44.4688 18.5781V19.0938C44.4688 20.0312 44.3125 20.8438 44 21.5312C43.6875 22.2083 43.2552 22.8594 42.7031 23.4844C43.2552 24.1198 43.6927 24.8177 44.0156 25.5781C44.3385 26.3385 44.5 27.1198 44.5 27.9219V28.8906C44.5 30.0781 44.2188 31.1667 43.6562 32.1562C43.0833 33.1354 42.3229 33.9167 41.375 34.5C40.4271 35.0729 39.375 35.3594 38.2188 35.3594Z" fill="#BBBBBB"/>
</svg>
