<svg width="30" height="30" viewBox="0 0 66 66" fill="none" xmlns="http://www.w3.org/2000/svg">
<path d="M10.6015 2H2V29.6758H29.6758V2H20.7577" stroke="#777777" stroke-width="2" stroke-miterlimit="10" stroke-linecap="round" stroke-linejoin="round"/>
<path d="M2 23.9938L10.9939 15L24.5438 28.55" stroke="#777777" stroke-width="2" stroke-miterlimit="10" stroke-linecap="round" stroke-linejoin="round"/>
<path d="M16 20.1746L25.1745 11L29.5324 15.358" stroke="#777777" stroke-width="2" stroke-miterlimit="10" stroke-linecap="round" stroke-linejoin="round"/>
<path d="M58.1924 41.5395H43.5928V46.6176H48.3535V58.2456H53.4316V46.6176H58.1924V41.5395Z" stroke="#777777" stroke-width="2" stroke-miterlimit="10" stroke-linecap="round" stroke-linejoin="round"/>
<path d="M37.0547 63.7305H64.7305V36.0547H37.0547V63.7305Z" stroke="#777777" stroke-width="2" stroke-miterlimit="10" stroke-linecap="round" stroke-linejoin="round"/>
<path d="M13.5772 50.0107C13.5772 51.3837 14.6902 52.4968 16.0634 52.4968C17.4364 52.4968 18.5497 51.3837 18.5497 50.0107C18.5497 48.6376 17.4364 47.5245 16.0634 47.5245C14.6902 47.5245 13.5772 48.6376 13.5772 50.0107Z" stroke="#777777" stroke-width="2" stroke-miterlimit="10" stroke-linecap="round" stroke-linejoin="round"/>
<path d="M31 50.0001C31 58.2845 24.2833 65 16.0001 65C7.71558 65 1 58.2845 1 50.0001C1 41.7156 7.71558 35.0001 16.0001 35.0001C24.2833 35.0001 31 41.7156 31 50.0001Z" stroke="#777777" stroke-width="2" stroke-miterlimit="10" stroke-linecap="round" stroke-linejoin="round"/>
<path d="M20.5481 54.5482C21.7127 53.3836 22.4321 51.7764 22.4321 50.0006C22.4321 46.4476 19.5521 43.5677 15.9991 43.5677C12.4476 43.5677 9.56763 46.4476 9.56763 50.0006C9.56763 53.5522 12.4476 56.4321 15.9991 56.4321H16.0004" stroke="#777777" stroke-width="2" stroke-miterlimit="10" stroke-linecap="round" stroke-linejoin="round"/>
<path d="M9.56823 50H1" stroke="#777777" stroke-width="2" stroke-miterlimit="10" stroke-linecap="round" stroke-linejoin="round"/>
<path d="M31 50H22.4318" stroke="#777777" stroke-width="2" stroke-miterlimit="10" stroke-linecap="round" stroke-linejoin="round"/>
<path d="M11.4515 45.4514L5.39398 39.3939" stroke="#777777" stroke-width="2" stroke-miterlimit="10" stroke-linecap="round" stroke-linejoin="round"/>
<path d="M26.6061 60.606L20.5486 54.5485" stroke="#777777" stroke-width="2" stroke-miterlimit="10" stroke-linecap="round" stroke-linejoin="round"/>
<path d="M11.4515 54.5485L5.39398 60.606" stroke="#777777" stroke-width="2" stroke-miterlimit="10" stroke-linecap="round" stroke-linejoin="round"/>
<path d="M26.6061 39.3939L20.5486 45.4514" stroke="#777777" stroke-width="2" stroke-miterlimit="10" stroke-linecap="round" stroke-linejoin="round"/>
<path d="M16 43.5681V34.9999" stroke="#777777" stroke-width="2" stroke-miterlimit="10" stroke-linecap="round" stroke-linejoin="round"/>
<path d="M51.9473 30C50.5546 30 49.4255 28.9374 49.4255 27.6265V20.9948C49.4255 20.3912 49.9454 19.9018 50.5869 19.9018H53.3077C53.9492 19.9018 54.4691 20.3912 54.4691 20.9948V27.6265C54.4691 28.9374 53.34 30 51.9473 30Z" stroke="#777777" stroke-width="2" stroke-miterlimit="10" stroke-linecap="round" stroke-linejoin="round"/>
<path d="M51.9473 19.9016V14.5458C51.9473 13.5951 51.1284 12.8243 50.1181 12.8243H39.3433C38.0491 12.8243 37 11.8369 37 10.6188V7.12925C37 6.03215 37.9449 5.14277 39.1106 5.14277H40.894" stroke="#777777" stroke-width="2" stroke-miterlimit="10" stroke-linecap="round" stroke-linejoin="round"/>
<path d="M53.6896 6.79049V10.4944C53.6896 11.4001 54.4697 12.1343 55.4319 12.1343C56.3941 12.1343 57.1741 11.4001 57.1741 10.4944V6.49412C57.1741 5.41437 58.1041 4.53904 59.2512 4.53904H62.9704C62.8956 3.66743 62.6798 2.80391 62.3215 1.97981C62.0635 1.38623 61.4466 1.00037 60.7652 1.00037H43.144C44.4101 1.00037 45.4365 1.96642 45.4365 3.15812V9.0217C45.4365 9.88274 46.1782 10.5808 47.0929 10.5808C48.0032 10.5808 48.7428 9.88935 48.7493 9.03269L48.7665 6.73249C48.7759 5.47089 49.8654 4.45278 51.2058 4.45278C52.5775 4.45278 53.6896 5.49939 53.6896 6.79049Z" stroke="#777777" stroke-width="2" stroke-miterlimit="10" stroke-linecap="round" stroke-linejoin="round"/>
<path d="M62.9705 4.53907H59.2514C58.1042 4.53907 57.1744 5.41432 57.1744 6.49407V9.45874H60.7653C61.4497 9.45874 62.0658 9.06891 62.3246 8.47261C62.8695 7.21596 63.0844 5.86793 62.9705 4.53907Z" stroke="#777777" stroke-width="2" stroke-miterlimit="10" stroke-linecap="round" stroke-linejoin="round"/>
<path d="M45.4366 9.02149V3.15791C45.4366 1.96621 44.4102 1.00016 43.1441 1.00016H43.1294C42.4451 1.00016 41.8288 1.38998 41.5702 1.98629C40.6687 4.06505 40.6687 6.3936 41.5702 8.47236C41.8288 9.06875 42.4451 9.4585 43.1294 9.4585H45.5039C45.4608 9.31969 45.4366 9.17336 45.4366 9.02149Z" stroke="#777777" stroke-width="2" stroke-miterlimit="10" stroke-linecap="round" stroke-linejoin="round"/>
<path d="M60.8925 1.0042C60.8971 1.00453 60.9014 1.00553 60.906 1.00586" stroke="#777777" stroke-width="2" stroke-miterlimit="10" stroke-linecap="round" stroke-linejoin="round"/>
<path d="M51.2059 4.45257C49.8654 4.45257 48.776 5.47067 48.7666 6.73228L48.7494 9.03248C48.7483 9.18046 48.724 9.32307 48.682 9.4585H53.6896V6.79028C53.6896 5.49918 52.5776 4.45257 51.2059 4.45257Z" stroke="#777777" stroke-width="2" stroke-miterlimit="10" stroke-linecap="round" stroke-linejoin="round"/>
</svg>
