<svg width="65" height="65" viewBox="0 0 65 65" fill="none" xmlns="http://www.w3.org/2000/svg">
<mask id="mask0_194_225" style="mask-type:luminance" maskUnits="userSpaceOnUse" x="0" y="0" width="65" height="65">
<path d="M0 7.62939e-06H65V65H0V7.62939e-06Z" fill="white"/>
</mask>
<g mask="url(#mask0_194_225)">
<path d="M31.403 6.35694C30.1748 6.18085 28.9281 6.09033 27.6707 6.08843C13.09 6.06583 1.24671 17.8955 1.26956 32.459C1.29216 47.0224 13.1723 58.8889 27.753 58.9116C35.5189 58.9236 42.8603 55.539 47.8951 49.6261C48.0977 49.3881 48.2396 49.0643 48.3345 48.691C48.9622 46.2219 47.0266 43.8374 44.479 43.8374H40.5593C37.4686 43.8374 34.9633 41.3321 34.9633 38.2415C34.9633 35.151 37.4686 32.6456 40.5593 32.6456C48.3431 31.437 52.2882 22.5864 47.9681 15.9995C47.255 14.9123 46.4956 13.9523 45.6987 13.2101C44.8514 12.421 43.96 11.6928 43.0307 11.0278" stroke="#BBBBBB" stroke-width="3" stroke-miterlimit="10" stroke-linecap="round" stroke-linejoin="round"/>
<path d="M37.3391 13.2872C39.0715 14.8255 39.2321 17.4717 37.697 19.1979C36.1622 20.9239 33.5132 21.0764 31.7808 19.5383C30.0478 18 29.8874 15.354 31.4224 13.6273C32.957 11.9011 35.6062 11.7489 37.3391 13.2872Z" stroke="#BBBBBB" stroke-width="3" stroke-miterlimit="10" stroke-linecap="round" stroke-linejoin="round"/>
<path d="M20.8884 12.053C23.199 11.9201 25.1853 13.6831 25.3255 15.9916C25.4653 18.3001 23.7058 20.2788 21.395 20.4119C19.0844 20.5449 17.0983 18.7816 16.9581 16.473C16.818 14.1649 18.5778 12.186 20.8884 12.053Z" stroke="#BBBBBB" stroke-width="3" stroke-miterlimit="10" stroke-linecap="round" stroke-linejoin="round"/>
<path d="M8.41716 22.796C9.95164 21.07 12.6005 20.9174 14.3337 22.4557C16.0662 23.9941 16.2266 26.6404 14.6918 28.3665C13.1568 30.0928 10.5082 30.2449 8.77517 28.707C7.04226 27.1686 6.88179 24.5224 8.41716 22.796Z" stroke="#BBBBBB" stroke-width="3" stroke-miterlimit="10" stroke-linecap="round" stroke-linejoin="round"/>
<path d="M7.22969 39.2239C7.09005 36.9155 8.84924 34.9365 11.1599 34.8034C13.4707 34.6706 15.4573 36.4341 15.597 38.7423C15.7368 41.0507 13.9775 43.0294 11.6671 43.1623C9.35616 43.2956 7.3696 41.5324 7.22969 39.2239Z" stroke="#BBBBBB" stroke-width="3" stroke-miterlimit="10" stroke-linecap="round" stroke-linejoin="round"/>
<path d="M18.0227 51.713C16.2902 50.1747 16.1295 47.5289 17.6643 45.8023C19.1992 44.0765 21.8481 43.9241 23.581 45.4621C25.3133 47.0004 25.4739 49.6467 23.9391 51.3727C22.4043 53.0988 19.7554 53.2512 18.0227 51.713Z" stroke="#BBBBBB" stroke-width="3" stroke-miterlimit="10" stroke-linecap="round" stroke-linejoin="round"/>
<path d="M61.3221 42.0969C61.6713 40.2156 61.9303 37.9815 62.0694 35.5299C62.1447 34.2008 62.1848 30.0874 62.1848 28.6521C62.1848 19.4289 60.53 9.23156 58.4886 9.23156C56.4472 9.23156 54.7922 19.4289 54.7922 28.6521C54.7922 30.0874 54.8325 34.2008 54.9079 35.5299C55.0468 37.9814 55.3059 40.2155 55.655 42.0968" stroke="#BBBBBB" stroke-width="3" stroke-miterlimit="10" stroke-linecap="round" stroke-linejoin="round"/>
<path d="M53.2466 46.9053C53.2466 46.2789 53.3566 45.6782 53.5582 45.1214C54.2913 43.0965 56.2661 41.7879 58.4197 41.7879H58.5573C60.711 41.7879 62.6857 43.0965 63.4189 45.1214C63.6205 45.6781 63.7304 46.2788 63.7304 46.9053C63.7304 52.205 58.4882 55.6414 58.4882 55.6414C58.4882 55.6414 58.4174 55.5935 58.2925 55.5008C57.4144 54.8489 53.8625 51.9835 53.3175 47.9461C53.271 47.6075 53.2466 47.2603 53.2466 46.9053Z" stroke="#BBBBBB" stroke-width="3" stroke-miterlimit="10" stroke-linecap="round" stroke-linejoin="round"/>
</g>
</svg>
