<svg width="50" height="50" viewBox="0 0 50 50" fill="none" xmlns="http://www.w3.org/2000/svg">
<g clip-path="url(#clip0_228_10)">
<path d="M18.75 25C21.2223 25 23.639 24.2669 25.6946 22.8934C27.7502 21.5199 29.3524 19.5676 30.2985 17.2835C31.2446 14.9995 31.4921 12.4861 31.0098 10.0614C30.5275 7.63661 29.337 5.40933 27.5888 3.66117C25.8407 1.91301 23.6134 0.722505 21.1886 0.24019C18.7639 -0.242126 16.2505 0.00541608 13.9665 0.951511C11.6824 1.89761 9.73015 3.49976 8.35663 5.55538C6.98311 7.61099 6.25 10.0277 6.25 12.5C6.25331 15.8142 7.57133 18.9917 9.91482 21.3352C12.2583 23.6787 15.4358 24.9967 18.75 25ZM18.75 4.16667C20.3982 4.16667 22.0093 4.65541 23.3798 5.57109C24.7502 6.48677 25.8183 7.78826 26.449 9.31098C27.0797 10.8337 27.2448 12.5092 26.9232 14.1258C26.6017 15.7423 25.808 17.2271 24.6426 18.3926C23.4771 19.558 21.9923 20.3517 20.3758 20.6732C18.7592 20.9948 17.0837 20.8297 15.561 20.199C14.0383 19.5683 12.7368 18.5002 11.8211 17.1298C10.9054 15.7593 10.4167 14.1482 10.4167 12.5C10.4167 10.2899 11.2946 8.17025 12.8574 6.60745C14.4202 5.04465 16.5399 4.16667 18.75 4.16667Z" fill="black"/>
<path d="M27.1729 29.1667H10.3271C7.58919 29.1701 4.96437 30.2591 3.02839 32.1951C1.0924 34.1311 0.00330797 36.7559 0 39.4938L0 50.0001H4.16667V39.4938C4.16832 37.8605 4.81789 36.2945 5.97284 35.1396C7.12778 33.9846 8.69375 33.3351 10.3271 33.3334H27.1729C28.8063 33.3351 30.3722 33.9846 31.5272 35.1396C32.6821 36.2945 33.3317 37.8605 33.3333 39.4938V50.0001H37.5V39.4938C37.4967 36.7559 36.4076 34.1311 34.4716 32.1951C32.5356 30.2591 29.9108 29.1701 27.1729 29.1667Z" fill="black"/>
<path d="M43.4108 32H38.4108V29.0725C37.5419 28.7651 36.737 28.3001 36.0367 27.7008L33.5 29.1667L31 24.8333L33.5358 23.3708C33.3693 22.4645 33.3693 21.5355 33.5358 20.6292L31 19.1667L33.5 14.8333L36.0367 16.2992C36.737 15.6999 37.5419 15.2349 38.4108 14.9275V12H43.4108V14.9275C44.2798 15.2349 45.0846 15.6999 45.785 16.2992L48.3217 14.8333L50.8217 19.1667L48.2858 20.6292C48.4524 21.5355 48.4524 22.4645 48.2858 23.3708L50.8217 24.8333L48.3217 29.1667L45.785 27.7017C45.0846 28.3006 44.2797 28.7653 43.4108 29.0725V32ZM40.0775 30.3333H41.7442V27.8108L42.37 27.6492C43.3967 27.3832 44.3312 26.8418 45.0725 26.0833L45.525 25.6225L47.7108 26.885L48.5442 25.4417L46.3608 24.1808L46.5325 23.5592C46.8147 22.5366 46.8147 21.4567 46.5325 20.4342L46.3608 19.8125L48.5442 18.5517L47.7108 17.1083L45.525 18.3742L45.0725 17.9167C44.3308 17.1595 43.3963 16.6192 42.37 16.3542L41.7442 16.1892V13.6667H40.0775V16.1892L39.4517 16.3508C38.425 16.6168 37.4905 17.1582 36.7492 17.9167L36.2967 18.3775L34.1108 17.1117L33.2775 18.555L35.4608 19.8158L35.2892 20.4375C35.007 21.4601 35.007 22.5399 35.2892 23.5625L35.4608 24.1842L33.2775 25.445L34.1108 26.8883L36.2967 25.6258L36.7492 26.0867C37.4909 26.8439 38.4254 27.3841 39.4517 27.6492L40.0775 27.8108V30.3333ZM40.9108 25.3333C40.2516 25.3333 39.6071 25.1378 39.0589 24.7716C38.5108 24.4053 38.0835 23.8847 37.8312 23.2756C37.5789 22.6665 37.5129 21.9963 37.6415 21.3497C37.7702 20.7031 38.0876 20.1092 38.5538 19.643C39.02 19.1768 39.6139 18.8593 40.2605 18.7307C40.9071 18.6021 41.5774 18.6681 42.1864 18.9204C42.7955 19.1727 43.3161 19.5999 43.6824 20.1481C44.0487 20.6963 44.2442 21.3407 44.2442 22C44.2442 22.8841 43.893 23.7319 43.2679 24.357C42.6427 24.9821 41.7949 25.3333 40.9108 25.3333ZM40.9108 20.3333C40.5812 20.3333 40.259 20.4311 39.9849 20.6142C39.7108 20.7974 39.4972 21.0577 39.371 21.3622C39.2449 21.6667 39.2119 22.0018 39.2762 22.3252C39.3405 22.6485 39.4992 22.9454 39.7323 23.1785C39.9654 23.4116 40.2624 23.5703 40.5857 23.6346C40.909 23.699 41.2441 23.6659 41.5486 23.5398C41.8532 23.4137 42.1135 23.2 42.2966 22.9259C42.4798 22.6519 42.5775 22.3296 42.5775 22C42.5775 21.558 42.4019 21.134 42.0893 20.8215C41.7768 20.5089 41.3529 20.3333 40.9108 20.3333Z" fill="black"/>
</g>
<defs>
<clipPath id="clip0_228_10">
<rect width="50" height="50" fill="white"/>
</clipPath>
</defs>
</svg>
