<svg width="56" height="56" viewBox="0 0 56 56" fill="none" xmlns="http://www.w3.org/2000/svg">
<g clip-path="url(#clip0_8_971)">
<path d="M34.7471 54.7492C34.7473 54.7514 34.7471 54.7537 34.7473 54.7561H42.1584C47.9778 54.7561 53.4647 53.1603 57 48.538H2.11554C5.65079 53.1603 11.1378 54.7561 16.9571 54.7561H24.9309C24.9307 54.7537 24.9305 54.7515 24.9304 54.7492" stroke="black" stroke-miterlimit="10" stroke-linecap="round" stroke-linejoin="round"/>
<path d="M54.6117 48.3985C54.6117 48.4453 54.6105 48.4922 54.6083 48.5379H5.52465C5.52242 48.4933 5.5213 48.4487 5.5213 48.403C5.5213 46.3916 7.15222 44.7607 9.16353 44.7607C9.50823 44.7607 9.83955 44.8098 10.1552 44.8991C10.153 44.8522 10.1519 44.8065 10.1519 44.7607C10.1519 42.7483 11.7828 41.1185 13.7941 41.1185C14.3173 41.1185 14.8137 41.2289 15.2622 41.4264C15.5745 41.6272 15.946 41.7432 16.3443 41.7432H43.8311C44.2695 41.7432 44.6745 41.6038 45.0046 41.3661C45.4174 41.2022 45.867 41.1129 46.3388 41.1129C48.3501 41.1129 49.9811 42.7438 49.9811 44.7551C49.9811 44.802 49.9799 44.8477 49.9777 44.8935C50.2934 44.8042 50.6247 44.7551 50.9694 44.7551C52.9807 44.7551 54.6117 46.3861 54.6117 48.3985Z" stroke="black" stroke-miterlimit="10" stroke-linecap="round" stroke-linejoin="round"/>
<path d="M26.1513 35.0612C25.0736 34.6102 23.917 34.3778 22.7488 34.3778H22.2257C20.5365 34.3778 18.861 34.8723 17.4425 35.789C16.3146 36.5179 15.4671 37.4834 14.6999 38.57C14.4602 38.9096 14.3315 39.3152 14.3315 39.7308C14.3315 40.8425 15.2326 41.7436 16.3442 41.7436H28.6301C29.7417 41.7436 30.6429 40.8425 30.6429 39.7308C30.6429 39.0843 30.3023 38.6096 29.9482 38.1079C28.9938 36.756 27.6779 35.7002 26.1513 35.0612Z" stroke="black" stroke-miterlimit="10" stroke-linecap="round" stroke-linejoin="round"/>
<path d="M38.2433 39.7308C38.2433 40.843 37.342 41.7432 36.2309 41.7432H28.6296C29.7418 41.7432 30.6432 40.843 30.6432 39.7308C30.6432 39.0847 30.3013 38.6095 29.9482 38.1077C29.0212 36.7958 27.7562 35.7639 26.287 35.1191C27.3987 34.6311 28.6127 34.3784 29.8266 34.3784H30.3498C31.5177 34.3784 32.6746 34.6104 33.7522 35.0611C35.2782 35.7003 36.5946 36.7556 37.5483 38.1077C37.903 38.61 38.2433 39.0829 38.2433 39.7308Z" stroke="black" stroke-miterlimit="10" stroke-linecap="round" stroke-linejoin="round"/>
<path d="M45.8435 39.7308C45.8435 40.843 44.9433 41.7432 43.8311 41.7432H36.2309C37.342 41.7432 38.2434 40.843 38.2434 39.7308C38.2434 39.0835 37.9029 38.6097 37.5484 38.1077C36.6225 36.7958 35.3564 35.7639 33.8883 35.1191C34.9998 34.6312 36.2132 34.3784 37.4268 34.3784H37.95C39.1179 34.3784 40.2748 34.6104 41.3524 35.0611C42.8784 35.7003 44.1948 36.7556 45.1497 38.1077C45.5034 38.6103 45.8435 39.0831 45.8435 39.7308Z" stroke="black" stroke-miterlimit="10" stroke-linecap="round" stroke-linejoin="round"/>
<path d="M27.566 19.5542C27.566 19.5542 24.0854 22.8883 27.566 26.768" stroke="black" stroke-miterlimit="10" stroke-linecap="round" stroke-linejoin="round"/>
<path d="M32.1207 22.7873C32.1207 22.7873 35.6013 19.4532 32.1207 15.5735C28.6401 11.6937 32.1207 8.35962 32.1207 8.35962" stroke="black" stroke-miterlimit="10" stroke-linecap="round" stroke-linejoin="round"/>
<path d="M20.9636 45.4288C22.6806 45.4288 24.0726 46.8208 24.0726 48.5378" stroke="black" stroke-miterlimit="10" stroke-linecap="round" stroke-linejoin="round"/>
<path d="M38.8514 44.8528C37.1344 44.8528 35.7424 43.4608 35.7424 41.7438" stroke="black" stroke-miterlimit="10" stroke-linecap="round" stroke-linejoin="round"/>
</g>
<defs>
<clipPath id="clip0_8_971">
<rect width="56" height="56" fill="white"/>
</clipPath>
</defs>
</svg>
