<svg width="56" height="56" viewBox="0 0 56 56" fill="none" xmlns="http://www.w3.org/2000/svg">
<path d="M49.7842 40.2214H53.736C54.8002 40.2214 55.4181 41.4257 54.7969 42.2908L53.6452 43.8932" stroke="black" stroke-miterlimit="10" stroke-linecap="round" stroke-linejoin="round"/>
<path d="M8.83905 46.5685H5.68205C4.71518 46.5685 3.80627 46.1025 3.2419 45.3161L1.06861 42.2908C0.447365 41.4257 1.06533 40.2214 2.12955 40.2214H46.6856" stroke="black" stroke-miterlimit="10" stroke-linecap="round" stroke-linejoin="round"/>
<path d="M50.1824 46.5685H41.2902H12.6702" stroke="black" stroke-miterlimit="10" stroke-linecap="round" stroke-linejoin="round"/>
<path d="M55.1797 27.1937V15.3431C55.1797 14.5957 54.5739 13.99 53.8266 13.99H42.6432C41.8959 13.99 41.2902 14.5958 41.2902 15.3431V27.1937C41.2902 29.1096 42.4417 30.8376 44.2097 31.5751L46.6855 32.6079V43.4693H44.389C42.6776 43.4693 41.2902 44.8567 41.2902 46.5681H55.1797C55.1797 44.8567 53.7923 43.4693 52.0809 43.4693H49.7843V32.6079L52.26 31.5751C54.0282 30.8376 55.1797 29.1096 55.1797 27.1937Z" stroke="black" stroke-miterlimit="10" stroke-linecap="round" stroke-linejoin="round"/>
<path d="M45.4729 28.5473C44.925 28.3187 44.571 27.7875 44.571 27.1939V21.9908H51.8989V27.1939C51.8989 27.7875 51.5448 28.3188 50.9969 28.5474L48.235 29.6995L45.4729 28.5473Z" stroke="black" stroke-miterlimit="10" stroke-linecap="round" stroke-linejoin="round"/>
<path d="M15.6852 18.5485V9.43152" stroke="black" stroke-miterlimit="10" stroke-linecap="round" stroke-linejoin="round"/>
<path d="M20.5694 18.5485V16.2529C20.5694 15.221 20.9793 14.2313 21.709 13.5017C22.4386 12.772 22.8486 11.7823 22.8486 10.7505V9.43152" stroke="black" stroke-miterlimit="10" stroke-linecap="round" stroke-linejoin="round"/>
<path d="M25.7248 18.5485V16.2529C25.7248 15.221 26.1347 14.2313 26.8644 13.5017C27.594 12.772 28.004 11.7823 28.004 10.7505V9.43152" stroke="black" stroke-miterlimit="10" stroke-linecap="round" stroke-linejoin="round"/>
<path d="M32.7252 9.43152V12.2637" stroke="black" stroke-miterlimit="10" stroke-linecap="round" stroke-linejoin="round"/>
<path d="M9.88574 31.6572V35.7147C9.88574 36.3233 10.1549 36.9007 10.6211 37.2919L11.8725 38.3422C13.3188 39.556 15.1465 40.2213 17.0345 40.2213H21.5027C24.4361 40.2213 26.8143 37.8433 26.8143 34.9097C26.8143 31.9763 24.4362 29.5981 21.5027 29.5981H11.9448C10.8077 29.5981 9.88574 30.5201 9.88574 31.6572Z" stroke="black" stroke-miterlimit="10" stroke-linecap="round" stroke-linejoin="round"/>
<path d="M9.88575 34.9097H2.40516C1.52983 34.9097 0.820312 34.2001 0.820312 33.3248C0.820312 32.4495 1.52994 31.74 2.40516 31.74H9.88575V34.9097Z" stroke="black" stroke-miterlimit="10" stroke-linecap="round" stroke-linejoin="round"/>
<path d="M20.7823 29.5978C22.8036 27.0844 25.9055 25.4755 29.3825 25.4755H37.4515" stroke="black" stroke-miterlimit="10" stroke-linecap="round" stroke-linejoin="round"/>
<path d="M18.3499 40.2214H21.5031H46.6856" stroke="black" stroke-miterlimit="10" stroke-linecap="round" stroke-linejoin="round"/>
<path d="M36.5455 39.3869C35.852 39.9108 34.988 40.2215 34.0517 40.2215C31.7658 40.2215 29.913 38.3676 29.913 36.0816C29.913 33.7957 31.7658 31.9429 34.0517 31.9429C34.988 31.9429 35.852 32.2535 36.5455 32.7763" stroke="black" stroke-miterlimit="10" stroke-linecap="round" stroke-linejoin="round"/>
<path d="M39.037 40.2213C41.3232 40.2213 43.1766 38.368 43.1766 36.0818C43.1766 33.7956 41.3232 31.9423 39.037 31.9423C36.7508 31.9423 34.8975 33.7956 34.8975 36.0818C34.8975 38.368 36.7508 40.2213 39.037 40.2213Z" stroke="black" stroke-miterlimit="10" stroke-linecap="round" stroke-linejoin="round"/>
</svg>
