<?xml version="1.0" encoding="utf-8"?>
<!-- Svg Vector Icons : http://www.onlinewebfonts.com/icon -->
<!DOCTYPE svg PUBLIC "-//W3C//DTD SVG 1.1//EN" "http://www.w3.org/Graphics/SVG/1.1/DTD/svg11.dtd">
<svg version="1.1" xmlns="http://www.w3.org/2000/svg" xmlns:xlink="http://www.w3.org/1999/xlink" x="0px" y="0px" viewBox="0 0 1000 1000" enable-background="new 0 0 1000 1000" xml:space="preserve">
<metadata> Svg Vector Icons : http://www.onlinewebfonts.com/icon </metadata>
<g><path d="M336.3,9.9H10v326.2h326.3V9.9z M296.1,296h-246v-246h246L296.1,296L296.1,296z"/><path d="M91.5,745.1h163v163.1h-163V745.1z"/><path d="M50.6,499.8h81.5v81.5H50.6V499.8z"/><path d="M458.6,9.5h81.5v81.5h-81.5V9.5z"/><path d="M989.4,9.9H663.1v326.2h326.3V9.9z M949.3,296h-246v-246h246V296z"/><path d="M91.5,91.4h163v163.1h-163V91.4z"/><path d="M744.7,91.4h163.1v163.1H744.7V91.4z"/><path d="M377.2,254.4h81.9v81.5h81.5v-81.5h81.9v-81.5H458.7V91.4h-81.5v91h0.1V254.4z"/><path d="M745.3,662.6L745.3,662.6l-0.1-81.3h-41.7v-81.5v-0.3H827v81.9h81.5v-81.9h0.1V418H703.6h-81h-0.5v81.8h-82V418h-81.5v81.8h-80.9v-52.6h-0.5V418H132.4v81.5h163.9v0.3v35.5v46H459v81.5h0.1v81.6h81.5v-81.6h122.2V745h-81v163.2h81.5v-81.6h82v-82.2h81.5v-81.5h-81.5V662.6z"/><path d="M908.5,827.3H990v163.2h-81.5V827.3z"/><path d="M827,745.1h81.5v81.5H827V745.1z"/><path d="M908.5,581.6H990v163.3h-81.5V581.6z"/><path d="M10,989.8h326.2V663.5H10V989.8z M50.2,703.7h246v246h-246V703.7z"/><path d="M459.1,908.9h81.5v81.5h-81.5V908.9z"/><path d="M540.1,336.6h81.5V418h-81.5V336.6z"/><path d="M377.2,745h81.5v163.2h-81.5V745z"/><path d="M745.3,908.9h-82.4v81.5h82.4v0.1h81.5V827.3h-81.5V908.9z"/></g>
</svg>