<svg width="69" height="64" viewBox="0 0 69 64" fill="none" xmlns="http://www.w3.org/2000/svg">
<rect x="6" y="1" width="62" height="62" stroke="black" stroke-width="2"/>
<line y1="33" x2="15" y2="33" stroke="black" stroke-width="2"/>
<line y1="17" x2="15" y2="17" stroke="black" stroke-width="2"/>
<line y1="50" x2="15" y2="50" stroke="black" stroke-width="2"/>
<path d="M21.0568 46.2727H22.3182L25.2841 53.517H25.3864L28.3523 46.2727H29.6136V55H28.625V48.3693H28.5398L25.8125 55H24.858L22.1307 48.3693H22.0455V55H21.0568V46.2727ZM31.7326 55V46.2727H36.9996V47.2102H32.7894V50.1591H36.7269V51.0966H32.7894V54.0625H37.0678V55H31.7326ZM45.8249 46.2727V55H44.8022L40.0465 48.1477H39.9613V55H38.9045V46.2727H39.9272L44.6999 53.142H44.7852V46.2727H45.8249ZM53.6669 46.2727H54.7237V52.0511C54.7237 52.6477 54.5831 53.1804 54.3018 53.6491C54.0234 54.1151 53.63 54.483 53.1214 54.7528C52.6129 55.0199 52.0163 55.1534 51.3317 55.1534C50.647 55.1534 50.0504 55.0199 49.5419 54.7528C49.0334 54.483 48.6385 54.1151 48.3572 53.6491C48.0788 53.1804 47.9396 52.6477 47.9396 52.0511V46.2727H48.9964V51.9659C48.9964 52.392 49.0902 52.7713 49.2777 53.1037C49.4652 53.4332 49.7322 53.6932 50.0788 53.8835C50.4283 54.071 50.8459 54.1648 51.3317 54.1648C51.8175 54.1648 52.2351 54.071 52.5845 53.8835C52.9339 53.6932 53.201 53.4332 53.3857 53.1037C53.5732 52.7713 53.6669 52.392 53.6669 51.9659V46.2727Z" fill="black"/>
<path d="M36.8359 13.3867C38.3464 13.3867 39.668 13.6602 40.8008 14.207C41.9466 14.7409 42.832 15.5221 43.457 16.5508C44.082 17.5794 44.3945 18.8034 44.3945 20.2227C44.3945 21.5508 44.0625 22.7747 43.3984 23.8945C42.7474 25.0013 41.7253 26.2643 40.332 27.6836L33.7695 34.3438H42.2461V31.8828C42.2461 31.4271 42.3568 31.1016 42.5781 30.9062C42.7995 30.7109 43.1771 30.6133 43.7109 30.6133C44.2448 30.6133 44.6224 30.7109 44.8438 30.9062C45.0651 31.1016 45.1758 31.4271 45.1758 31.8828V35.6719C45.1758 36.1536 45.0781 36.4987 44.8828 36.707C44.7005 36.9023 44.388 37 43.9453 37H30.3906C29.9479 37 29.6289 36.9023 29.4336 36.707C29.2513 36.4987 29.1602 36.1536 29.1602 35.6719C29.1602 35.1771 29.2578 34.8255 29.4531 34.6172L38.0469 25.9062C39.2448 24.6823 40.0846 23.6667 40.5664 22.8594C41.0612 22.0391 41.3086 21.1602 41.3086 20.2227C41.3086 19.0117 40.918 18.0547 40.1367 17.3516C39.3685 16.6354 38.2747 16.2773 36.8555 16.2773C35.4232 16.2773 34.0755 16.6419 32.8125 17.3711V19.5195C32.8125 19.9753 32.7018 20.3008 32.4805 20.4961C32.2591 20.6914 31.8815 20.7891 31.3477 20.7891C30.8138 20.7891 30.4362 20.6914 30.2148 20.4961C29.9935 20.3008 29.8828 19.9753 29.8828 19.5195V16.6484C29.8828 16.1406 30.0326 15.7826 30.332 15.5742C31.2826 14.8841 32.3112 14.3503 33.418 13.9727C34.5247 13.582 35.6641 13.3867 36.8359 13.3867Z" fill="black"/>
</svg>
