<svg width="56" height="56" viewBox="0 0 56 56" fill="none" xmlns="http://www.w3.org/2000/svg">
<g clip-path="url(#clip0_8_965)">
<mask id="mask0_8_965" style="mask-type:luminance" maskUnits="userSpaceOnUse" x="0" y="0" width="56" height="56">
<path d="M0 3.8147e-06H56V56H0V3.8147e-06Z" fill="white"/>
</mask>
<g mask="url(#mask0_8_965)">
<path d="M18.8803 7.68677C21.6628 6.43771 24.7494 5.74208 28 5.74208C31.2506 5.74208 34.3372 6.43771 37.1197 7.68677" stroke="black" stroke-miterlimit="10" stroke-linecap="round" stroke-linejoin="round"/>
<path d="M35.1729 49.0787C40.9883 47.1034 45.7188 42.7919 48.2497 37.2586" stroke="black" stroke-miterlimit="10" stroke-linecap="round" stroke-linejoin="round"/>
<path d="M20.8272 49.0787C19.9741 48.7889 19.1439 48.4487 18.3411 48.0605" stroke="black" stroke-miterlimit="10" stroke-linecap="round" stroke-linejoin="round"/>
<path d="M6.07471 24.1434C6.75721 20.2278 8.46127 16.6644 10.9036 13.7397" stroke="black" stroke-miterlimit="10" stroke-linecap="round" stroke-linejoin="round"/>
<path d="M49.4769 33.8712C49.5021 33.7793 49.5261 33.6864 49.5502 33.5934C49.6038 33.3856 49.6552 33.1778 49.7022 32.9689C50.0653 31.3709 50.2578 29.7084 50.2578 28C50.2578 22.5717 48.3197 17.5995 45.0964 13.7397" stroke="black" stroke-miterlimit="10" stroke-linecap="round" stroke-linejoin="round"/>
<path d="M40.8089 40.998C40.7564 41.1041 40.7039 41.2069 40.6514 41.3054C40.518 41.5536 40.6219 41.8643 40.8767 41.9868L42.7667 42.8968C43.0555 43.0357 43.3989 42.8705 43.47 42.5577C43.7106 41.4957 44.2892 39.2316 45.2539 37.16" stroke="black" stroke-miterlimit="10" stroke-linecap="round" stroke-linejoin="round"/>
<path d="M42.7087 36.0674C42.5228 36.6394 42.304 37.2891 42.0645 37.9541" stroke="black" stroke-miterlimit="10" stroke-linecap="round" stroke-linejoin="round"/>
<path d="M49.4965 33.6975C50.0373 32.7569 49.4688 31.5431 48.3871 31.3643C48.3212 31.3534 48.2617 31.3158 48.2328 31.2557C48.0672 30.9121 47.7821 30.6332 47.4048 30.4819C47.3434 30.4572 47.2975 30.4032 47.2824 30.3389C47.1687 29.851 46.8261 29.4251 46.3245 29.2282C45.6433 28.9608 44.8895 29.2009 44.4772 29.7651C44.413 29.8531 44.2914 29.872 44.197 29.8178C43.214 29.2547 41.9544 29.7101 41.5571 30.7747C41.5298 30.8477 41.4623 30.8989 41.3848 30.9077C40.7269 30.9824 40.131 31.4083 39.8721 32.0675C39.3808 33.3192 40.3456 34.6099 41.6151 34.5897C41.7291 34.5878 41.8304 34.6688 41.8388 34.7825C41.9178 35.8478 43.0384 36.5284 44.0193 36.1105C44.1305 36.063 44.2604 36.1174 44.3022 36.2308C44.6916 37.2878 46.0657 37.5942 46.8698 36.8138C46.9507 36.7354 47.0772 36.7234 47.1619 36.7975C47.3165 36.9329 47.4961 37.0448 47.6985 37.1243C49.6959 37.9084 51.1386 35.2427 49.5492 33.9777C49.4641 33.9098 49.4422 33.7919 49.4965 33.6975Z" stroke="black" stroke-miterlimit="10" stroke-linecap="round" stroke-linejoin="round"/>
<path d="M38.8621 34.522C38.8052 33.4501 38.7921 32.1726 38.9113 30.9104" stroke="black" stroke-miterlimit="10" stroke-linecap="round" stroke-linejoin="round"/>
<path d="M36.1462 30.7343C36.1714 31.6433 36.1856 32.7458 36.155 33.8176" stroke="black" stroke-miterlimit="10" stroke-linecap="round" stroke-linejoin="round"/>
<path d="M34.7102 24.3665C34.9454 24.3118 35.1969 24.3019 35.4518 24.3479C35.559 24.3675 35.6672 24.3085 35.6979 24.2046C35.7066 24.174 35.7165 24.1444 35.7285 24.1149" stroke="black" stroke-miterlimit="10" stroke-linecap="round" stroke-linejoin="round"/>
<path d="M38.8227 23.9072C39.1782 23.9498 39.4932 24.1095 39.736 24.349C39.783 24.3961 39.8519 24.4114 39.9176 24.3993C40.996 24.2047 41.9399 25.1573 41.7452 26.2248C41.7255 26.332 41.7857 26.4359 41.8896 26.4709C43.8113 27.1293 43.3465 30.1251 41.2016 30.0562C40.984 30.0497 40.7772 30.0037 40.5858 29.9283C40.4819 29.8867 40.366 29.9414 40.3168 30.042C39.8213 31.0472 38.4235 31.2189 37.7016 30.3537C37.6251 30.2618 37.484 30.2542 37.3954 30.3351C36.6112 31.0581 35.3271 30.7934 34.8951 29.8167C34.8601 29.7368 34.7813 29.6942 34.6993 29.6953" stroke="black" stroke-miterlimit="10" stroke-linecap="round" stroke-linejoin="round"/>
<path d="M35.198 40.868C34.988 42.5414 34.6347 44.8744 34.1622 46.3991C34.078 46.6681 34.2388 46.9525 34.5122 47.0258L36.5389 47.5639C36.8496 47.6459 37.1558 47.4195 37.1667 47.0991C37.2028 46.0097 37.345 43.6778 37.9039 41.4619" stroke="black" stroke-miterlimit="10" stroke-linecap="round" stroke-linejoin="round"/>
<path d="M32.9798 36.0248C33.0268 35.9931 33.0618 35.9427 33.0717 35.8859C33.2609 34.7659 34.4126 34.0812 35.4845 34.4498C35.5873 34.4848 35.7032 34.4432 35.7492 34.3448C36.0489 33.7126 36.7434 33.3352 37.4631 33.4698C37.9925 33.5693 38.4092 33.9226 38.6126 34.3809C38.64 34.441 38.6946 34.4859 38.7592 34.4979C39.1584 34.5756 39.4909 34.7965 39.7184 35.1027C39.7578 35.1563 39.8234 35.1815 39.8901 35.1804C40.9861 35.152 41.7736 36.237 41.4192 37.2629C41.3831 37.3657 41.4268 37.4773 41.5231 37.5287C43.3223 38.4715 42.4068 41.3612 40.297 40.9663C40.0837 40.927 39.8868 40.8504 39.7086 40.7465C39.6123 40.6896 39.4898 40.7257 39.4253 40.8176C38.7821 41.7352 37.3756 41.6926 36.7937 40.7279C36.7314 40.6251 36.5936 40.5956 36.4929 40.6634C35.6081 41.2584 34.3798 40.8001 34.102 39.7687C34.0725 39.6593 33.9576 39.5981 33.8461 39.6221C33.4086 39.7129 32.9765 39.6374 32.6123 39.4427" stroke="black" stroke-miterlimit="10" stroke-linecap="round" stroke-linejoin="round"/>
<path d="M18.6812 18.9033L18.6823 18.9022C19.5912 18.2449 20.5155 17.2999 21.3292 16.1361C23.4347 13.1272 24.885 9.1777 23.4839 8.08067C22.8955 7.82035 21.6551 10.9824 18.4669 12.2391" stroke="black" stroke-miterlimit="10" stroke-linecap="round" stroke-linejoin="round"/>
<path d="M37.3188 18.9033L37.3177 18.9022C36.4088 18.2449 35.4846 17.2999 34.6708 16.1361C32.5654 13.1272 31.1151 9.1777 32.5162 8.08067C33.1046 7.82035 34.3449 10.9824 37.5332 12.2391" stroke="black" stroke-miterlimit="10" stroke-linecap="round" stroke-linejoin="round"/>
<path d="M17.3874 20.5428C18.4188 20.744 19.6755 20.8468 21.1193 20.6981C21.4408 20.6653 21.7493 20.7254 22.0205 20.8567" stroke="black" stroke-miterlimit="10" stroke-linecap="round" stroke-linejoin="round"/>
<path d="M12.1111 21.9821C12.1745 22.0423 12.2445 22.0991 12.3189 22.1495C12.4655 22.249 15.9162 24.548 21.2898 24.0526" stroke="black" stroke-miterlimit="10" stroke-linecap="round" stroke-linejoin="round"/>
<path d="M34.7102 24.0527C40.0838 24.5482 43.5346 22.2491 43.6811 22.1496C43.7555 22.0993 43.8255 22.0424 43.889 21.9822" stroke="black" stroke-miterlimit="10" stroke-linecap="round" stroke-linejoin="round"/>
<path d="M33.9796 20.8567C34.2508 20.7254 34.5592 20.6653 34.8808 20.6981C36.3246 20.8468 37.5813 20.744 38.6127 20.5428" stroke="black" stroke-miterlimit="10" stroke-linecap="round" stroke-linejoin="round"/>
<path d="M20.2462 2.92105C21.0455 3.64676 16.9177 8.49721 19.0166 14.8798C19.6009 16.6565 19.1497 18.6381 17.9361 19.9832C15.897 22.2434 13.5239 22.7504 11.8805 21.8706C9.65725 20.6803 9.68743 15.8296 11.9479 11.0362C14.2083 6.24299 18.0229 1.73073 20.2462 2.92105Z" stroke="black" stroke-miterlimit="10" stroke-linecap="round" stroke-linejoin="round"/>
<path d="M35.7538 2.92105C34.9545 3.64676 39.0823 8.49721 36.9834 14.8798C36.3991 16.6565 36.8503 18.6381 38.0639 19.9832C40.103 22.2434 42.4761 22.7504 44.1195 21.8706C46.3427 20.6803 46.3125 15.8296 44.0521 11.0362C41.7916 6.24299 37.9771 1.73073 35.7538 2.92105Z" stroke="black" stroke-miterlimit="10" stroke-linecap="round" stroke-linejoin="round"/>
<path d="M23.3592 32.7523C22.1331 32.1398 21.2899 30.8711 21.2899 29.4065V23.6162C21.2899 20.5395 23.7836 18.0469 26.8592 18.0469H29.1408C32.2164 18.0469 34.7102 20.5395 34.7102 23.6162V29.4065C34.7102 30.8711 33.8669 32.1398 32.6408 32.7523" stroke="black" stroke-miterlimit="10" stroke-linecap="round" stroke-linejoin="round"/>
<path d="M30.6444 42.2418H25.3557C24.2684 42.2418 23.3869 41.3604 23.3869 40.2731V39.5128C23.3869 38.4255 24.2684 37.5441 25.3557 37.5441H30.6444C31.7317 37.5441 32.6131 38.4255 32.6131 39.5128V40.2731C32.6131 41.3604 31.7317 42.2418 30.6444 42.2418Z" stroke="black" stroke-miterlimit="10" stroke-linecap="round" stroke-linejoin="round"/>
<path d="M30.225 46.5638H25.775C24.6878 46.5638 23.8062 45.6824 23.8062 44.5951V44.2106C23.8062 43.1232 24.6878 42.2419 25.775 42.2419H30.225C31.3123 42.2419 32.1937 43.1232 32.1937 44.2106V44.5951C32.1937 45.6824 31.3123 46.5638 30.225 46.5638Z" stroke="black" stroke-miterlimit="10" stroke-linecap="round" stroke-linejoin="round"/>
<path d="M28 51.5963C27.0736 51.5963 26.3225 50.8453 26.3225 49.9188V46.5639H29.6775V49.9188C29.6775 50.8453 28.9264 51.5963 28 51.5963Z" stroke="black" stroke-miterlimit="10" stroke-linecap="round" stroke-linejoin="round"/>
<path d="M26.3225 46.5638C26.3225 46.5638 20.4513 46.9268 20.4513 50.522C20.4513 52.3699 22.0025 52.5876 23.5102 52.3628C25.138 52.1199 26.3225 50.768 26.3225 49.2106V46.5638Z" stroke="black" stroke-miterlimit="10" stroke-linecap="round" stroke-linejoin="round"/>
<path d="M29.6775 46.5638C29.6775 46.5638 35.5487 46.9268 35.5487 50.522C35.5487 52.3699 33.9976 52.5876 32.4898 52.3628C30.862 52.1199 29.6775 50.768 29.6775 49.2106V46.5638Z" stroke="black" stroke-miterlimit="10" stroke-linecap="round" stroke-linejoin="round"/>
<path d="M31.0637 37.5441H24.9363C23.849 37.5441 22.9676 36.6626 22.9676 35.5753V33.9318C22.9676 32.8446 23.849 31.9631 24.9363 31.9631H31.0637C32.151 31.9631 33.0325 32.8446 33.0325 33.9318V35.5753C33.0325 36.6626 32.151 37.5441 31.0637 37.5441Z" stroke="black" stroke-miterlimit="10" stroke-linecap="round" stroke-linejoin="round"/>
<path d="M5.42055 26.4151C5.48847 27.1553 5.65013 27.8985 5.54994 28.6354C5.35405 30.0767 4.17641 31.408 4.54063 32.8157C4.83912 33.9698 6.07855 34.6631 6.48958 35.7823C6.93583 36.9972 6.29654 38.3719 6.57851 39.6351C7.06741 41.8247 9.98379 41.6285 10.7435 43.7396C11.6393 46.2284 15.5057 47.959 16.914 48.0611C18.0938 48.1466 19.511 48.1223 20.1574 47.1342C21.3373 45.3304 18.8633 43.3732 18.7559 41.5323C18.7066 40.6863 19.0786 39.8242 18.8568 39.0064C18.511 37.7304 16.889 37.1279 16.5321 35.8551C16.2076 34.6974 17.0136 33.2523 16.2166 32.3505C15.5316 31.5755 14.0427 31.7681 13.5843 30.8417C13.2598 30.1859 13.6809 29.3273 13.3155 28.6934C12.9487 28.0572 12.0337 28.027 11.4531 27.5757C10.9325 27.1711 10.7438 26.4808 10.6131 25.8355C10.2899 24.2396 9.49696 23.2696 7.74838 23.4509C6.01096 23.6309 5.26612 24.7312 5.42055 26.4151Z" stroke="black" stroke-miterlimit="10" stroke-linecap="round" stroke-linejoin="round"/>
<path d="M7.80811 30.5602L8.45134 30.4305" stroke="black" stroke-miterlimit="10" stroke-linecap="round" stroke-linejoin="round"/>
<path d="M11.8657 40.0322L12.0161 39.3935" stroke="black" stroke-miterlimit="10" stroke-linecap="round" stroke-linejoin="round"/>
<path d="M12.2439 33.7882L12.6927 34.2671" stroke="black" stroke-miterlimit="10" stroke-linecap="round" stroke-linejoin="round"/>
<path d="M15.7302 44.1115L16.3592 43.9243" stroke="black" stroke-miterlimit="10" stroke-linecap="round" stroke-linejoin="round"/>
<path d="M5.55908 12.6747C5.96246 12.0839 6.38913 11.509 6.838 10.9513" stroke="black" stroke-miterlimit="10" stroke-linecap="round" stroke-linejoin="round"/>
<path d="M45.0667 49.1537C41.7222 51.8569 37.6855 53.8034 33.1691 54.6785C18.435 57.5333 4.17646 47.9032 1.32155 33.1691C0.1228 26.9824 1.12533 20.8796 3.78249 15.6696" stroke="black" stroke-miterlimit="10" stroke-linecap="round" stroke-linejoin="round"/>
<path d="M9.20135 8.37218C12.8451 4.87579 17.5044 2.35349 22.8309 1.32143C37.565 -1.53337 51.8236 8.09666 54.6785 22.8308C56.42 31.819 53.5155 40.6303 47.6404 46.7837" stroke="black" stroke-miterlimit="10" stroke-linecap="round" stroke-linejoin="round"/>
</g>
</g>
<defs>
<clipPath id="clip0_8_965">
<rect width="56" height="56" fill="white"/>
</clipPath>
</defs>
</svg>
