<?xml version="1.0" encoding="UTF-8"?>
<svg id="Layer_2" data-name="Layer 2" xmlns="http://www.w3.org/2000/svg" viewBox="0 0 58.55 58.55">
  <g id="Layer_1-2" data-name="Layer 1">
    <g>
      <path d="m29.28,0C13.11,0,0,13.11,0,29.28s13.11,29.28,29.28,29.28,29.28-13.11,29.28-29.28S45.45,0,29.28,0Zm12.62,32.81c-.34.35-.5.84-.42,1.32l2.01,12.32c.21,1.27-1.14,2.22-2.27,1.6l-10.33-5.71c-.46-.26-1.03-.26-1.49,0l-10.33,5.71c-1.13.62-2.47-.33-2.27-1.6l2.01-12.32c.08-.48-.08-.97-.42-1.32l-8.57-8.78c-.88-.9-.37-2.41.87-2.6l11.71-1.79c.51-.08.94-.4,1.16-.87l5.18-11.04c.55-1.18,2.23-1.18,2.79,0l5.18,11.04c.22.47.65.79,1.16.87l11.71,1.79c1.24.19,1.75,1.7.87,2.6l-8.57,8.78Z" fill="#f6ed5b"/>
      <path d="m35.15,31.62c0,2.81-2.16,4.82-5.17,4.82s-5.14-1.99-5.14-4.79h3.55c0,.94.66,1.61,1.59,1.61s1.57-.7,1.57-1.63c0-.99-.7-1.67-1.71-1.67h-4.31l-.35-.46.77-7.21h8.21v3.16h-5.35l-.17,1.58h1.29c3.1,0,5.23,1.9,5.23,4.61Z" fill="#f68a1f"/>
    </g>
  </g>
</svg>