<?xml version="1.0" encoding="UTF-8"?>
<svg id="Layer_2" data-name="Layer 2" xmlns="http://www.w3.org/2000/svg" xmlns:xlink="http://www.w3.org/1999/xlink" viewBox="0 0 327.48 327.48">
  <defs>
    <linearGradient id="linear-gradient" x1="47.96" y1="279.52" x2="279.52" y2="47.96" gradientTransform="translate(163.74 -67.82) rotate(45)" gradientUnits="userSpaceOnUse">
      <stop offset="0" stop-color="#fff"/>
      <stop offset=".26" stop-color="#fbfbfb"/>
      <stop offset=".5" stop-color="#eff0f0"/>
      <stop offset=".73" stop-color="#dcddde"/>
      <stop offset=".96" stop-color="#c2c3c5"/>
      <stop offset="1" stop-color="#bdbec0"/>
    </linearGradient>
  </defs>
  <g id="Layer_1-2" data-name="Layer 1">
    <g>
      <g>
        <circle cx="163.74" cy="163.74" r="163.74" transform="translate(-67.82 163.74) rotate(-45)" fill="url(#linear-gradient)"/>
        <path d="m327.48,163.74c0,67.26-40.55,125.04-98.53,150.24,55.37-26.26,93.65-82.67,93.65-148.02C322.6,75.53,249.29,2.22,158.86,2.22c-23.17,0-45.21,4.81-65.19,13.49C114.92,5.63,138.67,0,163.74,0c90.43,0,163.74,73.31,163.74,163.74Z" fill="#fff"/>
      </g>
      <g>
        <path d="m135.59,189.66c-.69-1.11-1.35-2.24-1.97-3.38l-14.22-3.6-3.62-18.48c-2.27-.19-4.55-.18-6.81.05l-6.24-6.21-11.15,4.3-.64,8.69c-1.82,1.29-3.5,2.72-5.05,4.3l-8.96-.76-5.78,10.46,5.22,7.24c-.53,2.07-.89,4.16-1.06,6.25l-7.52,5.3,2.3,11.72,8.78,2.22c.05.1.1.21.15.31.86,1.76,1.85,3.44,2.95,5.02l-2.39,9,9.29,7.51,8.15-3.94c1.14.52,2.31.99,3.51,1.4.76.26,1.53.5,2.31.71l3.95,8.41,11.94-.23,3.65-8.13c2.05-.55,4.06-1.28,6.02-2.18l8.28,3.83,9.01-7.85-2.37-8.37c1.28-1.82,3.68-6.55,3.68-6.55l-15.3-12.36,3.89-14.67Z" fill="#2d3f50"/>
        <path d="m254.5,159.1l-10.47-7.11c-.28-3.43-.88-6.83-1.81-10.17l7.42-10.66-9.17-15.21-12.49,1.27c-2.46-2.48-5.15-4.72-8.03-6.69l-1.16-12.87-16.8-5.76-8.83,9.08c-3.42-.3-6.86-.27-10.26.07l-9.27-9.22-16.57,6.39-.95,12.91c-2.7,1.91-5.21,4.05-7.51,6.39l-13.33-1.13-8.59,15.54,7.76,10.76c-.79,3.07-1.32,6.18-1.58,9.29l-11.18,7.87,3.41,17.43,13.06,3.3c.07.15.14.31.22.46,1.28,2.62,2.75,5.11,4.39,7.46l-3.55,13.38,13.82,11.16,12.11-5.86c1.69.78,3.43,1.47,5.22,2.08,1.14.39,2.28.74,3.43,1.05l5.87,12.49,17.76-.34,5.43-12.08c3.04-.82,6.03-1.9,8.94-3.25l12.31,5.7,13.39-11.67-3.52-12.44c1.91-2.7,3.58-5.58,4.99-8.62l12.78-3.46,2.76-17.54Zm-27.38,10.69c-7.31,21.32-30.6,32.72-51.92,25.41-21.32-7.31-32.72-30.6-25.41-51.92,7.31-21.32,30.6-32.72,51.92-25.41,21.32,7.31,32.72,30.6,25.41,51.92Z" fill="#2d3f50"/>
      </g>
    </g>
  </g>
</svg>