<?xml version="1.0" encoding="UTF-8"?>
<svg id="Layer_1" data-name="Layer 1" xmlns="http://www.w3.org/2000/svg" viewBox="0 0 20 20">
  <g id="_1" data-name="1">
    <path d="m19.59,12.52l-1.57-.91c.09-.48.15-.97.15-1.47s-.06-1-.15-1.47l1.57-.91c.64-.37.86-1.2.49-1.84l-1.34-2.34c-.37-.65-1.19-.87-1.83-.49l-1.58.92c-.74-.64-1.58-1.15-2.52-1.49v-1.15c0-.75-.6-1.35-1.34-1.35h-2.68c-.74,0-1.34.6-1.34,1.35v1.15c-.94.33-1.78.85-2.52,1.49l-1.58-.92c-.64-.37-1.46-.15-1.83.49L.18,5.9c-.37.65-.15,1.47.49,1.84l1.57.91c-.09.48-.15.97-.15,1.47s.06,1,.15,1.47l-1.57.91c-.64.37-.86,1.2-.49,1.84l1.34,2.34c.37.65,1.19.87,1.83.49l1.58-.92c.74.64,1.58,1.15,2.52,1.49v1.15c0,.75.6,1.35,1.34,1.35h2.68c.74,0,1.34-.6,1.34-1.35v-1.15c.94-.33,1.78-.85,2.52-1.49l1.58.92c.64.37,1.46.15,1.83-.49l1.34-2.34c.37-.65.15-1.47-.49-1.84Zm-1,1.75l-.67,1.17c-.18.32-.59.43-.92.25l-1.86-1.08c-.94,1.07-2.22,1.84-3.67,2.14v1.49c0,.37-.3.68-.67.68h-1.34c-.37,0-.67-.3-.67-.68v-1.49c-1.45-.3-2.73-1.07-3.67-2.14l-1.86,1.08c-.32.19-.73.08-.92-.25l-.67-1.17c-.18-.32-.08-.74.25-.92l1.87-1.09c-.22-.67-.36-1.38-.36-2.13s.13-1.46.36-2.13l-1.87-1.09c-.32-.19-.43-.6-.25-.92l.67-1.17c.18-.32.59-.43.92-.25l1.86,1.08c.94-1.07,2.22-1.84,3.67-2.14v-1.49c0-.37.3-.68.67-.68h1.34c.37,0,.67.3.67.68v1.49c1.45.3,2.73,1.07,3.67,2.14l1.86-1.08c.32-.19.73-.08.92.25l.67,1.17c.18.32.08.74-.24.92l-1.87,1.09c.22.67.36,1.38.36,2.13s-.13,1.46-.36,2.13l1.87,1.09c.32.19.43.6.24.92Zm-8.45-7.52c-1.85,0-3.35,1.51-3.35,3.38s1.5,3.38,3.35,3.38,3.35-1.51,3.35-3.38-1.5-3.38-3.35-3.38Zm0,5.4c-1.11,0-2.01-.91-2.01-2.03s.9-2.03,2.01-2.03,2.01.91,2.01,2.03-.9,2.03-2.01,2.03Z" fill="#666"/>
  </g>
</svg>