<?xml version="1.0" encoding="UTF-8"?>
<svg id="Layer_2" data-name="Layer 2" xmlns="http://www.w3.org/2000/svg" viewBox="0 0 23.94 23.87">
  <g id="Layer_1-2" data-name="Layer 1">
    <g>
      <path d="m12.77.51l2.99,6.37c.13.27.38.46.67.5l6.75,1.03c.71.11,1.01.98.5,1.5l-4.94,5.06c-.2.2-.29.49-.24.76l1.16,7.1c.12.73-.66,1.28-1.31.92l-5.96-3.29c-.27-.15-.59-.15-.86,0l-5.96,3.29c-.65.36-1.43-.19-1.31-.92l1.16-7.1c.05-.28-.04-.56-.24-.76L.25,9.91c-.5-.52-.21-1.39.5-1.5l6.75-1.03c.29-.04.54-.23.67-.5L11.16.51c.32-.68,1.29-.68,1.61,0Z" fill="#555"/>
      <path d="m15,14.99v1.89h-5.93v-.49c3.21-3.79,3.65-4.4,3.65-5.08,0-.43-.29-.72-.69-.72-.45,0-.72.3-.72.78v.15h-2.11v-.15c0-1.61,1.06-2.68,2.8-2.68s2.86,1.04,2.86,2.54c0,1-.37,1.77-2.08,3.75h2.22Z" fill="#fff"/>
    </g>
  </g>
</svg>