<?xml version="1.0" encoding="UTF-8"?>
<svg id="Layer_2" data-name="Layer 2" xmlns="http://www.w3.org/2000/svg" viewBox="0 0 23.94 23.87">
  <g id="Layer_1-2" data-name="Layer 1">
    <g>
      <path d="m12.77.51l2.99,6.37c.13.27.38.46.67.5l6.75,1.03c.71.11,1.01.98.5,1.5l-4.94,5.06c-.2.2-.29.49-.24.76l1.16,7.1c.12.73-.66,1.28-1.31.92l-5.96-3.29c-.27-.15-.59-.15-.86,0l-5.96,3.29c-.65.36-1.43-.19-1.31-.92l1.16-7.1c.05-.28-.04-.56-.24-.76L.25,9.91c-.5-.52-.21-1.39.5-1.5l6.75-1.03c.29-.04.54-.23.67-.5L11.16.51c.32-.68,1.29-.68,1.61,0Z" fill="#555"/>
      <path d="m11.84,11.63c1.79,0,3.01,1.09,3.01,2.66s-1.24,2.78-2.98,2.78-2.96-1.14-2.96-2.76h2.05c0,.54.38.93.92.93s.91-.4.91-.94c0-.57-.4-.96-.99-.96h-2.48l-.2-.26.45-4.16h4.73v1.82h-3.08l-.1.91h.74Z" fill="#fff"/>
    </g>
  </g>
</svg>