<?xml version="1.0" encoding="UTF-8"?>
<svg id="Layer_1" data-name="Layer 1" xmlns="http://www.w3.org/2000/svg" xmlns:xlink="http://www.w3.org/1999/xlink" viewBox="0 0 60 60">
  <defs>
    <linearGradient id="linear-gradient" x1="30" y1="142" x2="30" y2="82" gradientTransform="translate(0 142) scale(1 -1)" gradientUnits="userSpaceOnUse">
      <stop offset="0" stop-color="#fea28c"/>
      <stop offset="1" stop-color="#fe4085"/>
    </linearGradient>
    <linearGradient id="linear-gradient-2" x1="3.16" y1="30" x2="182.78" y2="30" gradientUnits="userSpaceOnUse">
      <stop offset="0" stop-color="#f5faf4"/>
      <stop offset="1" stop-color="#fe4085"/>
    </linearGradient>
  </defs>
  <path d="m30,60c16.57,0,30-13.43,30-30S46.57,0,30,0,0,13.43,0,30s13.43,30,30,30Z" fill="url(#linear-gradient)"/>
  <path d="m53.75,17.51c-3.34-6.34-8.94-11.01-15.79-13.14-2.6-.81-5.28-1.22-7.97-1.22-11.81,0-22.11,7.58-25.61,18.87-2.13,6.84-1.46,14.11,1.87,20.45,3.34,6.34,8.94,11.01,15.79,13.14,2.6.81,5.28,1.22,7.97,1.22,11.81,0,22.11-7.58,25.61-18.87,2.13-6.84,1.46-14.11-1.87-20.45Zm-.04,19.86c-4.07,13.1-17.99,20.41-31.08,16.34C9.53,49.64,2.22,35.73,6.29,22.63S24.27,2.22,37.37,6.29c13.1,4.07,20.41,17.99,16.34,31.08Z" fill="url(#linear-gradient-2)"/>
  <g>
    <path d="m41.06,24.55c1.37-.99,1.72-2.98.78-4.45-.93-1.47-2.8-1.87-4.17-.88" fill="none" stroke="#fff" stroke-linecap="round" stroke-linejoin="round" stroke-width="1.5"/>
    <g>
      <path d="m43.61,19.28l2.29-1.52" fill="none" stroke="#fff" stroke-linecap="round" stroke-linejoin="round" stroke-width="1.5"/>
      <path d="m40.13,16.09l.62-2.88" fill="none" stroke="#fff" stroke-linecap="round" stroke-linejoin="round" stroke-width="1.5"/>
      <path d="m44.7,24.04l2.57.65" fill="none" stroke="#fff" stroke-linecap="round" stroke-linejoin="round" stroke-width="1.5"/>
    </g>
    <path d="m32.67,43.07l-4.18-6.6s-.01-.1.03-.13l1.47-.93c.55-.35.71-1.07.36-1.62l-6.34-10c-.29-.46-.91-.6-1.37-.31l-6.41,4.06c-3.7,2.35-4.71,7.51-1.83,10.81,2.05,2.35,5.12,2.76,8.04,1.6.03.06.05.12.09.17l4.23,6.68c.62.98,1.91,1.27,2.89.65l2.38-1.51c.98-.62,1.27-1.91.65-2.89Zm-2.4,1.63l-1.77,1.12h0s0,0,0,0h0s-3.89-6.13-4.22-6.65l-.04-.08-.46-.92c-.21-.42-.7-.61-1.14-.44l-.94.37c-.81.32-1.61.48-2.38.48-1.65,0-3.01-.77-3.93-2.22-1.98-3.12.05-5.95,2.39-7.44l4.31-2.73c.42-.27.98-.14,1.24.28l4.39,6.92c.27.42.14.98-.28,1.24l-1.01.64c-.42.27-.55.82-.28,1.24l4.39,6.92c.27.42.14.98-.28,1.24Z" fill="#fff"/>
    <path d="m43.97,31.72l-11.78-18.58c-.59-.93-1.83-1.21-2.76-.62l-3.41,7.69,8.92,14.08,8.41.19c.93-.59,1.21-1.83.62-2.76Zm-4.19.68l-3.07-.07c-.41,0-.79-.22-1-.57l-7.08-11.16c-.22-.35-.25-.78-.08-1.15l1.25-2.81c.4-.89,1.63-.98,2.15-.16l8.9,14.04c.52.82-.08,1.9-1.06,1.88Z" fill="#fff"/>
    <path d="m31.74,34.38l-7.49-11.82c-.19-.3-.12-.69.15-.87l.48-.31c.28-.18.66-.07.85.23l7.49,11.82c.19.3.12.69-.15.87l-.48.31c-.28.18-.66.07-.85-.23Z" fill="#fff"/>
  </g>
</svg>