<?xml version="1.0" encoding="UTF-8"?>
<svg id="Layer_1" data-name="Layer 1" xmlns="http://www.w3.org/2000/svg" xmlns:xlink="http://www.w3.org/1999/xlink" viewBox="0 0 60 60">
  <defs>
    <linearGradient id="linear-gradient" x1="30" y1="142" x2="30" y2="82" gradientTransform="translate(0 142) scale(1 -1)" gradientUnits="userSpaceOnUse">
      <stop offset="0" stop-color="#09c6f9"/>
      <stop offset="1" stop-color="#045de9"/>
    </linearGradient>
    <linearGradient id="linear-gradient-2" x1="-1556.96" y1="152.03" x2="-1507.3" y2="152.03" gradientTransform="translate(-122.03 -1502.13) rotate(-90)" gradientUnits="userSpaceOnUse">
      <stop offset="0" stop-color="#addcff"/>
      <stop offset=".5" stop-color="#eaf6ff"/>
      <stop offset="1" stop-color="#eaf6ff"/>
    </linearGradient>
  </defs>
  <path d="m30,60c16.57,0,30-13.43,30-30S46.57,0,30,0,0,13.43,0,30s13.43,30,30,30Z" fill="url(#linear-gradient)"/>
  <circle cx="30" cy="30" r="24.83" fill="url(#linear-gradient-2)"/>
  <path d="m29.24,35.68c0-.49.19-.87.66-1.36l4.82-5.01c1.25-1.27,2-2.56,2-3.97,0-1.5-1.08-2.47-2.56-2.47-1.34,0-2.19.71-2.75,1.46-.21.26-.47.52-.96.52-.59,0-1.06-.38-1.08-.96,0-.33.12-.63.28-.89.71-1.22,2.3-2.35,4.61-2.35,3.06,0,4.87,2,4.87,4.61,0,1.83-.85,3.46-2.59,5.27l-4.02,4.19h6.3c.61,0,1.11.42,1.11,1.08s-.49,1.08-1.11,1.08h-8.39c-.68,0-1.18-.45-1.18-1.18Z" fill="#2890ff" stroke="#2890ff" stroke-miterlimit="10" stroke-width=".5"/>
  <path d="m41.97,15.2h-21.81c-2.15,0-3.9,1.75-3.9,3.9v1.2h-1.27c-.47,0-.86.38-.86.86s.38.86.86.86h1.27v7.14h-1.27c-.47,0-.86.38-.86.86s.38.86.86.86h1.27v7.14h-1.27c-.47,0-.86.38-.86.86s.38.86.86.86h1.27v1.2c0,2.15,1.75,3.9,3.9,3.9h21.81c2.15,0,3.9-1.75,3.9-3.9v-21.81c0-2.15-1.75-3.9-3.9-3.9Zm-19.07,27.89h-2.74c-1.2,0-2.18-.98-2.18-2.18v-1.2h1.27c.47,0,.86-.38.86-.86s-.38-.86-.86-.86h-1.27v-7.14h1.27c.47,0,.86-.38.86-.86s-.38-.86-.86-.86h-1.27v-7.14h1.27c.47,0,.86-.38.86-.86s-.38-.86-.86-.86h-1.27v-1.2c0-1.2.98-2.18,2.18-2.18h2.83l-.09,26.17Zm21.25-2.18c0,1.2-.98,2.18-2.18,2.18h-17.36l.09-26.17h17.27c1.2,0,2.18.98,2.18,2.18v21.81Z" fill="#2890ff" stroke="#2890ff" stroke-miterlimit="10" stroke-width=".5"/>
</svg>