<?xml version="1.0" encoding="UTF-8"?>
<svg id="Layer_1" data-name="Layer 1" xmlns="http://www.w3.org/2000/svg" xmlns:xlink="http://www.w3.org/1999/xlink" viewBox="0 0 60 60">
  <defs>
    <linearGradient id="linear-gradient" x1="29.77" y1="142" x2="30.23" y2="82" gradientTransform="translate(0 142) scale(1 -1)" gradientUnits="userSpaceOnUse">
      <stop offset="0" stop-color="#1b5a6c"/>
      <stop offset="1" stop-color="#010409"/>
    </linearGradient>
  </defs>
  <path d="m30,60c16.57,0,30-13.43,30-30S46.57,0,30,0,0,13.43,0,30s13.43,30,30,30Z" fill="url(#linear-gradient)"/>
  <path d="m26.6,33.63v4.73c0,.35-.14.69-.39.94s-.59.39-.94.39h-4.73c-.35,0-.69-.14-.94-.39s-.39-.59-.39-.94v-4.73c0-.35.14-.69.39-.94.25-.25.59-.39.94-.39h4.73c.35,0,.69.14.94.39.25.25.39.59.39.94Zm2.07,4.73v-4.73c0-.45-.09-.89-.26-1.3-.17-.41-.42-.79-.74-1.1-.32-.32-.69-.57-1.1-.74-.41-.17-.85-.26-1.3-.26h-4.73c-.45,0-.89.09-1.3.26-.41.17-.79.42-1.1.74s-.57.69-.74,1.1c-.17.41-.26.85-.26,1.3v4.73c0,.45.09.89.26,1.3.17.41.42.79.74,1.1s.69.57,1.1.74c.41.17.85.26,1.3.26h4.73c.45,0,.89-.09,1.3-.26.41-.17.79-.42,1.1-.74.32-.32.57-.69.74-1.1.17-.41.26-.85.26-1.3Z" fill="#fff" fill-rule="evenodd"/>
  <path d="m40.79,19.44v4.73c0,.17-.03.35-.1.51-.07.16-.16.31-.29.43-.12.12-.27.22-.43.29-.16.07-.33.1-.51.1h-4.73c-.17,0-.35-.03-.51-.1-.16-.07-.31-.16-.43-.29-.12-.12-.22-.27-.29-.43-.07-.16-.1-.33-.1-.51v-4.73c0-.35.14-.69.39-.94.25-.25.59-.39.94-.39h4.73c.17,0,.35.03.51.1.16.07.31.16.43.29.12.12.22.27.29.43.07.16.1.33.1.51Zm2.07,4.73v-4.73c0-.45-.09-.89-.26-1.3-.17-.41-.42-.79-.74-1.1-.32-.32-.69-.57-1.1-.74s-.85-.26-1.3-.26h-4.73c-.45,0-.89.09-1.3.26-.41.17-.79.42-1.1.74-.32.32-.57.69-.74,1.1-.17.41-.26.85-.26,1.3v4.73c0,.45.09.89.26,1.3.17.41.42.79.74,1.1.32.32.69.57,1.1.74.41.17.85.26,1.3.26h4.73c.45,0,.89-.09,1.3-.26s.79-.42,1.1-.74c.32-.32.57-.69.74-1.1.17-.41.26-.85.26-1.3Z" fill="#fff" fill-rule="evenodd"/>
  <path d="m25.27,11.31h-7.09c-1.53,0-2.99.61-4.08,1.69-1.08,1.08-1.69,2.55-1.69,4.08v7.09c0,.27.11.54.3.73.19.19.46.3.73.3s.54-.11.73-.3.3-.46.3-.73v-7.09c0-.49.1-.97.28-1.41.19-.45.46-.86.8-1.2.34-.34.75-.62,1.2-.8.45-.19.93-.28,1.41-.28h7.09c.27,0,.54-.11.73-.3.19-.19.3-.46.3-.73s-.11-.54-.3-.73c-.19-.19-.46-.3-.73-.3Z" fill="#fff" fill-rule="evenodd"/>
  <path d="m12.41,33.63v7.09c0,1.53.61,2.99,1.69,4.08,1.08,1.08,2.55,1.69,4.08,1.69h7.09c.27,0,.54-.11.73-.3s.3-.46.3-.73-.11-.54-.3-.73-.46-.3-.73-.3h-7.09c-.49,0-.97-.1-1.41-.28-.45-.19-.86-.46-1.2-.8-.34-.34-.62-.75-.8-1.2-.19-.45-.28-.93-.28-1.41v-7.09c0-.27-.11-.54-.3-.73-.19-.19-.46-.3-.73-.3s-.54.11-.73.3c-.19.19-.3.46-.3.73Z" fill="#fff" fill-rule="evenodd"/>
  <path d="m34.73,46.48h7.09c.76,0,1.51-.15,2.21-.44.7-.29,1.33-.71,1.87-1.25.54-.54.96-1.17,1.25-1.87.29-.7.44-1.45.44-2.21v-7.09c0-.27-.11-.54-.3-.73-.19-.19-.46-.3-.73-.3s-.54.11-.73.3c-.19.19-.3.46-.3.73v7.09c0,.49-.1.97-.28,1.41-.19.45-.46.86-.8,1.2-.34.34-.75.62-1.2.8-.45.19-.93.28-1.41.28h-7.09c-.27,0-.54.11-.73.3s-.3.46-.3.73.11.54.3.73.46.3.73.3Z" fill="#fff" fill-rule="evenodd"/>
  <path d="m47.59,24.17v-7.09c0-.76-.15-1.51-.44-2.21-.29-.7-.71-1.33-1.25-1.87-.54-.54-1.17-.96-1.87-1.25-.7-.29-1.45-.44-2.21-.44h-7.09c-.27,0-.54.11-.73.3-.19.19-.3.46-.3.73s.11.54.3.73c.19.19.46.3.73.3h7.09c.49,0,.97.1,1.41.28.45.19.86.46,1.2.8.34.34.62.75.8,1.2.19.45.28.93.28,1.41v7.09c0,.27.11.54.3.73s.46.3.73.3.54-.11.73-.3.3-.46.3-.73Z" fill="#fff" fill-rule="evenodd"/>
  <rect x="31.33" y="30.23" width="11.01" height="2.07" rx="1.03" ry="1.03" fill="#fff"/>
  <rect x="31.33" y="39.68" width="11.01" height="2.07" rx="1.03" ry="1.03" fill="#fff"/>
  <rect x="31.33" y="34.96" width="4.85" height="2.07" rx="1.03" ry="1.03" fill="#fff"/>
  <rect x="37.5" y="34.96" width="4.85" height="2.07" rx="1.03" ry="1.03" fill="#fff"/>
  <circle cx="22.91" cy="21.62" r="4.56" fill="none" stroke="#fff" stroke-miterlimit="10" stroke-width="2"/>
</svg>