<?xml version="1.0" encoding="UTF-8"?>
<svg id="Layer_1" data-name="Layer 1" xmlns="http://www.w3.org/2000/svg" xmlns:xlink="http://www.w3.org/1999/xlink" viewBox="0 0 60 60">
  <defs>
    <linearGradient id="linear-gradient" x1="-1802.13" y1="232.03" x2="-1742.13" y2="232.03" gradientTransform="translate(-202.03 -1742.13) rotate(-90)" gradientUnits="userSpaceOnUse">
      <stop offset="0" stop-color="#fff"/>
      <stop offset=".5" stop-color="#eaf6ff"/>
      <stop offset="1" stop-color="#eaf6ff"/>
    </linearGradient>
    <linearGradient id="linear-gradient-2" x1="29.79" y1="56.66" x2="30.21" y2="3.34" gradientUnits="userSpaceOnUse">
      <stop offset="0" stop-color="#1b5a6c"/>
      <stop offset="1" stop-color="#010409"/>
    </linearGradient>
  </defs>
  <circle cx="30" cy="30" r="30" fill="url(#linear-gradient)"/>
  <path d="m30,3.34C15.28,3.34,3.34,15.28,3.34,30s11.94,26.66,26.66,26.66,26.66-11.94,26.66-26.66S44.72,3.34,30,3.34Zm0,52.32c-14.15,0-25.66-11.51-25.66-25.66S15.85,4.34,30,4.34s25.66,11.51,25.66,25.66-11.51,25.66-25.66,25.66Z" fill="url(#linear-gradient-2)" opacity=".32"/>
  <g>
    <path d="m9.68,38.39h0c0,2.39,1.94,4.33,4.33,4.33h31.97c2.39,0,4.33-1.94,4.33-4.33h0s-40.64,0-40.64,0Zm36.3,3.04H14.01c-1.21,0-2.26-.71-2.75-1.74h37.47c-.49,1.03-1.54,1.74-2.75,1.74Z"/>
    <g>
      <path d="m31.97,20.25c.14-.22.23-.45.3-.68.06-.24.1-.51.1-.83,0-.67-.22-1.36-.65-2.08-.43-.72-.65-1.38-.65-2,0-.18.02-.4.06-.64.04-.24.15-.49.32-.74h1.31c-.14.23-.24.47-.3.72-.06.25-.09.46-.09.66,0,.64.22,1.3.65,2,.43.69.65,1.39.65,2.08,0,.32-.03.6-.1.84-.07.24-.16.47-.29.67h-1.31Z"/>
      <path d="m40.43,20.25c.14-.22.23-.45.3-.68.06-.24.1-.51.1-.83,0-.67-.22-1.36-.65-2.08-.43-.72-.65-1.38-.65-2,0-.18.02-.4.06-.64.04-.24.15-.49.32-.74h1.31c-.14.23-.24.47-.3.72-.06.25-.09.46-.09.66,0,.64.22,1.3.65,2,.43.69.65,1.39.65,2.08,0,.32-.03.6-.1.84-.07.24-.16.47-.29.67,0,0-1.31,0-1.31,0Z"/>
      <path d="m36.2,20.25c.14-.22.23-.45.3-.68.06-.24.1-.51.1-.83,0-.67-.22-1.36-.65-2.08-.43-.72-.65-1.38-.65-2,0-.18.02-.4.06-.64.04-.24.15-.49.32-.74h1.31c-.14.23-.24.47-.3.72-.06.25-.09.46-.09.66,0,.64.22,1.3.65,2,.43.69.65,1.39.65,2.08,0,.32-.03.6-.1.84-.07.24-.16.47-.29.67,0,0-1.31,0-1.31,0Z"/>
    </g>
    <path d="m49.02,22.37c-.37-.37-.81-.55-1.31-.55h-19.6v7.57l1.02.41c.17.06.32.15.45.24v-6.76h13.99v12.02c0,.75-.28,1.41-.85,1.97-.57.57-1.23.85-1.99.85h-8.3c-.08,0-.16,0-.24-.01-.11.25-.27.48-.48.69-.26.24-.55.41-.87.51.49.19,1.02.28,1.59.28,0,0,8.3,0,8.3,0,1.2,0,2.22-.42,3.06-1.25.84-.83,1.26-1.85,1.26-3.05v-5.57h2.67c.51,0,.95-.18,1.31-.55s.55-.81.55-1.31v-4.18c0-.51-.18-.95-.55-1.31Zm-.92,5.5c0,.12-.04.21-.11.29-.07.07-.17.11-.29.11h-2.67s0-4.98,0-4.98h2.67c.12,0,.21.04.29.11.07.07.11.17.11.29v4.18Z"/>
    <path d="m30.29,37.81c.38.2.71.13.97-.19.26-.33.29-.67.1-1.02l-1.51-2.85-1.15,3.13,1.6.94Zm-4.51-.89h1.49l2.06-5.15c.09-.2.12-.39.1-.58s-.14-.34-.35-.44l-1.77-.77c-.2-.1-.4-.1-.6,0s-.3.25-.32.45l-.62,6.49Zm-6.3,0h1.47l-.6-6.49c-.01-.21-.11-.37-.29-.47s-.39-.09-.63.02l-1.68.72c-.18.07-.29.23-.31.48s0,.47.07.67l1.96,5.06Zm-3.02.89l1.6-.94-1.15-3.13-1.51,2.96c-.2.4-.16.72.13.97.28.25.6.29.94.14Zm5.76-.89h2.28l.7-7.74c.03-.2-.02-.37-.16-.5s-.3-.2-.5-.2h-2.34c-.23,0-.4.07-.51.2s-.16.3-.15.5l.68,7.74Zm-6.23,2.19c-.55,0-1.02-.2-1.4-.6s-.57-.87-.57-1.42c0-.17.03-.34.1-.5s.13-.32.2-.48l1.96-3.81c-.21-.55-.23-1.1-.06-1.65s.51-.93,1.02-1.16l1.77-.72c.23-.09.46-.13.69-.15s.45.04.65.17c.11-.45.34-.83.68-1.14s.74-.46,1.19-.46h2.34c.45,0,.85.14,1.19.43s.57.65.68,1.08c.21-.09.43-.12.66-.11s.45.07.66.17l1.79.72c.52.2.88.57,1.05,1.11s.15,1.06-.1,1.57l1.96,3.91c.06.16.12.31.19.46s.11.3.11.46c0,.6-.21,1.1-.64,1.5s-.94.61-1.53.61c-.16,0-.3-.03-.44-.1s-.27-.12-.41-.18l-1.3-.64h-10.1l-1.23.64c-.17.07-.34.13-.52.19s-.37.09-.56.09Z"/>
  </g>
</svg>