<svg xmlns="http://www.w3.org/2000/svg" style="display: none;">



<symbol id="app_list" data-name="Layer 1" xmlns="http://www.w3.org/2000/svg" viewbox="0 0 56 56">
      <path d="m24.91,0H1.92C.86,0,0,.86,0,1.92v1.6c0,1.06.86,1.92,1.92,1.92h22.99c1.06,0,1.92-.86,1.92-1.92v-1.6c0-1.06-.86-1.92-1.92-1.92Zm1.11,3.52c0,.61-.5,1.11-1.11,1.11H1.92c-.61,0-1.11-.5-1.11-1.11v-1.6c0-.61.5-1.11,1.11-1.11h22.99c.61,0,1.11.5,1.11,1.11v1.6Z" fill-rule="evenodd"/>
      <path d="m24.91,8.28H1.92c-1.06,0-1.92.86-1.92,1.92v1.6c0,1.06.86,1.92,1.92,1.92h22.99c1.06,0,1.92-.86,1.92-1.92v-1.6c0-1.06-.86-1.92-1.92-1.92Zm1.11,3.52c0,.61-.5,1.11-1.11,1.11H1.92c-.61,0-1.11-.5-1.11-1.11v-1.6c0-.61.5-1.11,1.11-1.11h22.99c.61,0,1.11.5,1.11,1.11v1.6Z" fill-rule="evenodd"/>
      <path d="m24.91,16.56H1.92c-1.06,0-1.92.86-1.92,1.92v1.6c0,1.06.86,1.92,1.92,1.92h22.99c1.06,0,1.92-.86,1.92-1.92v-1.6c0-1.06-.86-1.92-1.92-1.92Zm1.11,3.52c0,.61-.5,1.11-1.11,1.11H1.92c-.61,0-1.11-.5-1.11-1.11v-1.6c0-.61.5-1.11,1.11-1.11h22.99c.61,0,1.11.5,1.11,1.11v1.6Z" fill-rule="evenodd"/>

</symbol>
<symbol id="app_feed" data-name="Layer 1" xmlns="http://www.w3.org/2000/svg" viewbox="0 0 56 56">
  

      <path d="m24.64,4.08l-2.2-2.34c-.3-.32-.81-.33-1.12-.02l-9.57,9.58c-.08.08-.14.17-.19.27l-2.17,4.39c-.22.45.25.92.7.7l4.41-2.18c.09-.04.16-.1.23-.16l9.88-9.25c.28-.26.3-.7.03-.99Zm-.98.91l-9.45,8.78-2.84,1.41c-.33.17-.69-.19-.52-.52l1.37-2.76s.03-.05.05-.07L21.32,2.78c.29-.29.77-.29,1.05.01l1.32,1.37c.23.24.22.61-.02.83Z"/>
      <rect x="18.59" y="6" width="3.7" height=".74" transform="translate(10.49 -12.59) rotate(45)"/>
      <path d="m20.87,0H5.48C2.45,0,0,2.45,0,5.48v9.3c0,2.16,1.26,4.03,3.07,4.92-.32,1.04-.71,2.27-1.07,3.4-.4,1.25.93,2.34,2.08,1.71l6.86-3.77c.34-.19.55-.47.66-.78h9.28c3.03,0,5.48-2.45,5.48-5.48V5.48c0-3.03-2.45-5.48-5.48-5.48Zm4.68,14.78c0,2.58-2.1,4.68-4.68,4.68h-9.84l-.19.53c-.06.16-.15.27-.29.34l-6.86,3.77c-.1.06-.21.09-.32.09-.2,0-.41-.11-.53-.28-.09-.12-.17-.31-.09-.57.36-1.13.75-2.37,1.07-3.41l.2-.65-.61-.3c-1.62-.8-2.63-2.41-2.63-4.2V5.48C.8,2.9,2.9.8,5.48.8h15.39c2.58,0,4.68,2.1,4.68,4.68v9.3Z"/>
      <rect x="4.06" y="15.61" width="5.19" height="1.1" rx=".55" ry=".55"/>
      <rect x="4.06" y="10.36" width="6.61" height="1.1" rx=".55" ry=".55"/>
      <rect x="4.06" y="6.17" width="10.37" height="1.1" rx=".55" ry=".55"/>





    
    </symbol>
    <symbol id="app_lang" data-name="Layer 1" xmlns="http://www.w3.org/2000/svg" viewbox="0 0 56 56">
    <g>
      <g>
        <path d="m9.24,22.68h-1.7c-1.88,0-3.41-1.53-3.41-3.41v-2.55c0-.24.2-.44.44-.44s.44.2.44.44v2.55c0,1.4,1.14,2.53,2.53,2.53h1.7c.24,0,.44.2.44.44s-.2.44-.44.44Z"/>
        <path d="m8.39,23.96c-.13,0-.27-.06-.35-.18-.15-.19-.11-.47.09-.61l1.23-.92-1.23-.92c-.19-.15-.23-.42-.09-.61.15-.19.42-.23.61-.09l1.7,1.27c.11.08.18.21.18.35s-.07.27-.18.35l-1.7,1.27c-.08.06-.17.09-.26.09Z"/>
      </g>
      <g>
        <path d="m21.56,11.22c-.24,0-.44-.2-.44-.44v-2.55c0-1.4-1.14-2.53-2.53-2.53h-1.7c-.24,0-.44-.2-.44-.44s.2-.44.44-.44h1.7c1.88,0,3.41,1.53,3.41,3.41v2.55c0,.24-.2.44-.44.44Z"/>
        <path d="m17.73,6.97c-.09,0-.18-.03-.26-.09l-1.7-1.27c-.11-.08-.18-.21-.18-.35s.07-.27.18-.35l1.7-1.27c.19-.15.47-.11.61.09.15.19.11.47-.09.61l-1.23.92,1.23.92c.19.15.23.42.09.61-.09.11-.22.18-.35.18Z"/>
      </g>
      <path d="m22.95,11.34h-7.88c-1.87,0-3.39,1.52-3.39,3.39v7.88c0,1.87,1.52,3.39,3.39,3.39h7.88c1.87,0,3.39-1.52,3.39-3.39v-7.88c0-1.87-1.52-3.39-3.39-3.39Zm2.51,11.27c0,1.38-1.13,2.51-2.51,2.51h-7.88c-1.38,0-2.51-1.13-2.51-2.51v-7.88c0-1.38,1.13-2.51,2.51-2.51h7.88c1.38,0,2.51,1.13,2.51,2.51v7.88Z"/>
      <path d="m21.89,21.03l-2.33-6.17s0,0,0-.01c-.09-.22-.3-.36-.54-.36h0c-.24,0-.45.14-.54.36,0,0,0,0,0,0l-2.35,6.17c-.09.23.03.48.25.57.05.02.1.03.16.03.18,0,.34-.11.41-.28l.48-1.25h3.17l.47,1.25c.09.23.34.34.57.26.23-.09.34-.34.26-.57Zm-1.6-1.8s-.02.01-.03.01h-2.5s-.02,0-.03-.01c0,0,0-.02,0-.03l1.26-3.3s.02-.02.03-.02h0s.02,0,.03.02l1.25,3.3s0,.02,0,.03Z"/>
      <path d="m11.27,0H3.39C1.52,0,0,1.52,0,3.39v7.88c0,1.87,1.52,3.39,3.39,3.39h7.56v-.71c0-1.87,1.52-3.39,3.39-3.39h.32V3.39c0-1.87-1.52-3.39-3.39-3.39Zm2.54,9.75c-2.04.25-3.64,1.97-3.71,4.07H3.39c-1.4,0-2.54-1.14-2.54-2.54V3.39C.85,1.99,1.99.85,3.39.85h7.88c1.4,0,2.54,1.14,2.54,2.54v6.36Z"/>
      <g>
        <path d="m10.54,4.91h-6.42c-.24,0-.44-.2-.44-.44s.2-.44.44-.44h6.42c.24,0,.44.2.44.44s-.2.44-.44.44Z"/>
        <path d="m9.47,10.62c-.08,0-.15-.02-.23-.06-2.21-1.32-3.37-3.17-3.96-4.48-.1-.22,0-.48.22-.58.22-.1.48,0,.58.22.54,1.2,1.6,2.88,3.61,4.09.21.12.28.39.15.6-.08.14-.23.21-.38.21Z"/>
        <path d="m5.19,10.62c-.15,0-.29-.08-.38-.21-.12-.21-.06-.48.15-.6,3.35-2.01,4.07-5.39,4.08-5.42.05-.24.28-.39.52-.34.24.05.39.28.34.52-.03.15-.79,3.78-4.49,6-.07.04-.15.06-.23.06Z"/>
        <path d="m7.33,4.91c-.24,0-.44-.2-.44-.44v-.71c0-.24.2-.44.44-.44s.44.2.44.44v.71c0,.24-.2.44-.44.44Z"/>
      </g>
    </g>

</symbol>
</svg>