<svg xmlns="http://www.w3.org/2000/svg" style="display: none;">

<symbol id="fastfoodL_001-1" xmlns="http://www.w3.org/2000/svg" viewBox="0 0 512 512">
  <g>
    <path d="m396.53,83.76H115.47c-38.37,0-69.47,31.1-69.47,69.47v29.27c0,13.87,11.24,25.11,25.11,25.11h369.77c13.87,0,25.11-11.24,25.11-25.11v-29.27c0-38.37-31.1-69.47-69.47-69.47Zm56.04,98.74c0,6.44-5.24,11.68-11.68,11.68H71.11c-6.44,0-11.68-5.24-11.68-11.68v-29.27c0-30.9,25.14-56.04,56.04-56.04h281.06c30.9,0,56.04,25.14,56.04,56.04v29.27Z"></path>
    <rect x="139.9" y="82.71" width="13.43" height="52.67" rx="6.72" ry="6.72" transform="translate(91.62 -65.2) rotate(35.84)"></rect>
    <rect x="213.77" y="82.71" width="13.43" height="52.67" rx="6.72" ry="6.72" transform="translate(105.61 -108.46) rotate(35.84)"></rect>
    <rect x="285.69" y="82.71" width="13.43" height="52.67" rx="6.72" ry="6.72" transform="translate(119.22 -150.57) rotate(35.84)"></rect>
    <rect x="358.25" y="82.71" width="13.43" height="52.67" rx="6.72" ry="6.72" transform="translate(132.96 -193.06) rotate(35.84)"></rect>
  </g>
  <path d="m440.89,339.78H71.11c-13.87,0-25.11,8.03-25.11,17.93v20.9c0,27.4,31.1,49.61,69.47,49.61h281.06c38.37,0,69.47-22.21,69.47-49.61v-20.9c0-9.91-11.24-17.93-25.11-17.93Zm11.68,38.84c0,19.61-25.66,36.18-56.04,36.18H115.47c-30.38,0-56.04-16.57-56.04-36.18v-20.9c.34-1.18,4.46-4.5,11.68-4.5h369.77c7.22,0,11.34,3.33,11.69,4.59v20.82Z"></path>
  <path d="m411.49,288.03H100.51c-15.11,0-27.36,12.25-27.36,27.36v10.46c0,15.11,12.25,27.36,27.36,27.36h310.97c15.11,0,27.36-12.25,27.36-27.36v-10.46c0-15.11-12.25-27.36-27.36-27.36Zm13.93,37.82c0,7.68-6.25,13.93-13.93,13.93H100.51c-7.68,0-13.93-6.25-13.93-13.93v-10.46c0-7.68,6.25-13.93,13.93-13.93h310.97c7.68,0,13.93,6.25,13.93,13.93v10.46Z"></path>
  <path d="m411.49,193.61H100.51c-15.11,0-27.36,12.25-27.36,27.36v10.46c0,15.11,12.25,27.36,27.36,27.36h310.97c15.11,0,27.36-12.25,27.36-27.36v-10.46c0-15.11-12.25-27.36-27.36-27.36Zm13.93,37.82c0,7.68-6.25,13.93-13.93,13.93H100.51c-7.68,0-13.93-6.25-13.93-13.93v-10.46c0-7.68,6.25-13.93,13.93-13.93h310.97c7.68,0,13.93,6.25,13.93,13.93v10.46Z"></path>
  <path d="m224.32,245.94h-93.47c-13.67,0-24.75,11.08-24.75,24.75v6.01c0,13.67,11.08,24.75,24.75,24.75h93.47c13.67,0,24.75-11.08,24.75-24.75v-6.01c0-13.67-11.08-24.75-24.75-24.75Zm11.32,30.76c0,6.24-5.08,11.32-11.32,11.32h-93.47c-6.24,0-11.32-5.08-11.32-11.32v-6.01c0-6.24,5.08-11.32,11.32-11.32h93.47c6.24,0,11.32,5.08,11.32,11.32v6.01Z"></path>
  <path d="m389.31,245.94h-93.47c-13.67,0-24.75,11.08-24.75,24.75v6.01c0,13.67,11.08,24.75,24.75,24.75h93.47c13.67,0,24.75-11.08,24.75-24.75v-6.01c0-13.67-11.08-24.75-24.75-24.75Zm11.32,30.76c0,6.24-5.08,11.32-11.32,11.32h-93.47c-6.24,0-11.32-5.08-11.32-11.32v-6.01c0-6.24,5.08-11.32,11.32-11.32h93.47c6.24,0,11.32,5.08,11.32,11.32v6.01Z"></path>
</symbol><symbol id="fastfoodL_001-2" xmlns="http://www.w3.org/2000/svg" viewBox="0 0 512 512">
  <g>
    <path d="m397.25,82.87H114.75c-38.57,0-69.83,31.26-69.83,69.83v29.42c0,13.94,11.3,25.24,25.24,25.24h371.68c13.94,0,25.24-11.3,25.24-25.24v-29.42c0-38.57-31.26-69.83-69.83-69.83Zm56.33,99.25c0,6.47-5.27,11.74-11.74,11.74H70.16c-6.48,0-11.74-5.27-11.74-11.74v-29.42c0-31.06,25.27-56.33,56.33-56.33h282.51c31.06,0,56.33,25.27,56.33,56.33v29.42Z"></path>
    <rect x="139.3" y="81.81" width="13.5" height="52.94" rx="6.75" ry="6.75" transform="translate(91.07 -65.02) rotate(35.84)"></rect>
    <rect x="213.56" y="81.81" width="13.5" height="52.94" rx="6.75" ry="6.75" transform="translate(105.13 -108.5) rotate(35.84)"></rect>
    <rect x="285.84" y="81.81" width="13.5" height="52.94" rx="6.75" ry="6.75" transform="translate(118.82 -150.83) rotate(35.84)"></rect>
    <rect x="358.77" y="81.81" width="13.5" height="52.94" rx="6.75" ry="6.75" transform="translate(132.63 -193.53) rotate(35.84)"></rect>
  </g>
  <path d="m441.84,340.21H70.16c-13.94,0-25.24,8.07-25.24,18.03v21.01c0,27.54,31.26,49.87,69.83,49.87h282.51c38.57,0,69.83-22.33,69.83-49.87v-21.01c0-9.96-11.3-18.03-25.24-18.03Zm11.74,39.04c0,19.71-25.8,36.37-56.33,36.37H114.75c-30.53,0-56.33-16.66-56.33-36.37v-21.01c.34-1.18,4.48-4.53,11.74-4.53h371.68c7.26,0,11.4,3.34,11.75,4.61v20.93Z"></path>
  <path d="m409.39,193.29H99.47c-15.06,0-27.27,12.31-27.27,27.51v10.51c0,15.19,12.21,27.5,27.27,27.5h309.91c15.06,0,27.27-12.31,27.27-27.5v-10.51c0-15.19-12.21-27.51-27.27-27.51Zm13.89,38.02c0,7.72-6.23,14.01-13.89,14.01H99.48c-7.66,0-13.89-6.28-13.89-14.01v-10.51c0-7.72,6.23-14,13.89-14h309.91c7.66,0,13.89,6.28,13.89,14v10.51Z"></path>
  <path d="m390,243.15h-93.95c-13.74,0-24.88,11.14-24.88,24.88v6.04c0,13.74,11.14,24.88,24.88,24.88h93.95c13.74,0,24.88-11.14,24.88-24.88v-6.04c0-13.74-11.14-24.88-24.88-24.88Zm11.38,30.92c0,6.28-5.11,11.38-11.38,11.38h-93.95c-6.28,0-11.38-5.11-11.38-11.38v-6.04c0-6.28,5.11-11.38,11.38-11.38h93.95c6.28,0,11.38,5.11,11.38,11.38v6.04Z"></path>
  <path d="m90.17,243.15l62.51,86.78c5.57,7.74,16.41,9.4,24.05,3.7l121.19-90.47H90.17Zm78.49,79.66c-.63.47-1.34.71-2.12.71-.55,0-1.94-.14-2.91-1.48l-47.1-65.38h140.74l-88.62,66.16Z"></path>
  <path d="m412.29,288.19h-197.27l-18.08,13.5h215.36c7.72,0,14,6.28,14,14v10.51c0,7.72-6.28,14.01-14,14.01H99.71c-7.72,0-14.01-6.28-14.01-14.01v-10.51c0-7.72,6.28-14,14.01-14h49.27l-9.73-13.5h-39.55c-15.19,0-27.5,12.31-27.5,27.51v10.51c0,15.19,12.31,27.5,27.5,27.5h312.58c15.19,0,27.5-12.31,27.5-27.5v-10.51c0-15.19-12.31-27.51-27.5-27.51Z"></path>
  <g>
    <path d="m137.28,285.45h-7.07c-6.28,0-11.38-5.11-11.38-11.38v-6.04c0-2.16.61-4.17,1.66-5.89l-3.96-5.49h79.17s28.46,0,28.46,0c0,0,0,0,0,0h22.12c-4.13-8.02-12.48-13.5-22.12-13.5h-93.95c-13.74,0-24.88,11.14-24.88,24.88v6.04c0,13.74,11.14,24.88,24.88,24.88h16.8l-9.73-13.5Z"></path>
    <path d="m235.54,272.87v1.2c0,6.28-5.11,11.38-11.38,11.38h-5.47l-18.08,13.5h23.55c13.74,0,24.88-11.14,24.88-24.88v-6.04c0-1.67-.17-3.3-.48-4.88l-13.02,9.72Z"></path>
  </g>
</symbol><symbol id="fastfoodL_001-3" xmlns="http://www.w3.org/2000/svg" viewBox="0 0 512 512">
  <path d="m339.77,74.66h-157.73c-69.72,0-126.23,62.97-126.23,140.65h0c0,16.14,11.74,29.22,26.23,29.22h357.74c14.48,0,26.23-13.08,26.23-29.22h0c0-77.68-56.52-140.65-126.23-140.65Zm100.01,152.93H82.03c-6.07,0-11.02-5.51-11.02-12.27,0-68.21,49.8-123.71,111.02-123.71h157.73c61.22,0,111.02,55.49,111.02,123.71,0,6.77-4.94,12.28-11.02,12.28Z"></path>
  <path d="m431.71,350.77H85.42c-10.54,0-19.08,10.16-19.08,22.69v1.24c0,34.6,23.59,62.65,52.69,62.65h279.06c29.1,0,52.69-28.05,52.69-62.65v-1.24c0-12.53-8.54-22.69-19.08-22.69Zm4.83,23.92c0,25.2-17.24,45.7-38.44,45.7H119.04c-21.2,0-38.44-20.5-38.44-45.7v-1.24c0-3.16,2.17-5.74,4.83-5.74h346.29c2.66,0,4.83,2.57,4.83,5.74v1.24Z"></path>
  <path d="m441.44,263.66H70.56c-13.56,0-24.56,11.75-24.56,26.25v23.72c0,14.5,11,26.25,24.56,26.25h370.88c13.56,0,24.56-11.75,24.56-26.25v-23.72c0-14.5-11-26.25-24.56-26.25Zm8.71,49.97c0,5.13-3.91,9.31-8.71,9.31H70.56c-4.8,0-8.71-4.18-8.71-9.31v-23.72c0-5.13,3.91-9.31,8.71-9.31h370.88c4.8,0,8.71,4.17,8.71,9.31v23.72Z"></path>
  <rect x="185.17" y="72.38" width="16.95" height="66.46" rx="6.75" ry="6.75" transform="translate(98.51 -93.39) rotate(35.84)"></rect>
  <rect x="247.53" y="72.38" width="16.95" height="66.46" rx="6.75" ry="6.75" transform="translate(110.32 -129.9) rotate(35.84)"></rect>
  <rect x="308.68" y="72.38" width="16.95" height="66.46" rx="6.75" ry="6.75" transform="translate(121.9 -165.71) rotate(35.84)"></rect>
</symbol><symbol id="fastfoodL_001-4" xmlns="http://www.w3.org/2000/svg" viewBox="0 0 512 512">
  <path d="m339.77,48.94h-157.73c-69.72,0-126.23,62.97-126.23,140.65h0c0,16.14,11.74,29.22,26.23,29.22h357.74c14.48,0,26.23-13.08,26.23-29.22h0c0-77.68-56.52-140.65-126.23-140.65Zm100.01,152.93H82.03c-6.07,0-11.02-5.51-11.02-12.27,0-68.21,49.8-123.71,111.02-123.71h157.73c61.22,0,111.02,55.49,111.02,123.71,0,6.77-4.94,12.28-11.02,12.28Z"></path>
  <path d="m429.14,377.76H82.86c-10.54,0-19.08,10.16-19.08,22.69v1.24c0,34.6,23.59,62.65,52.69,62.65h279.06c29.1,0,52.69-28.05,52.69-62.65v-1.24c0-12.53-8.54-22.69-19.08-22.69Zm4.83,23.92c0,25.2-17.24,45.7-38.44,45.7H116.47c-21.2,0-38.44-20.5-38.44-45.7v-1.24c0-3.16,2.17-5.74,4.83-5.74h346.29c2.66,0,4.83,2.57,4.83,5.74v1.24Z"></path>
  <rect x="185.17" y="43.66" width="16.95" height="66.46" rx="6.75" ry="6.75" transform="translate(81.7 -98.83) rotate(35.84)"></rect>
  <rect x="247.53" y="43.66" width="16.95" height="66.46" rx="6.75" ry="6.75" transform="translate(93.5 -135.34) rotate(35.84)"></rect>
  <rect x="308.68" y="43.66" width="16.95" height="66.46" rx="6.75" ry="6.75" transform="translate(105.08 -171.15) rotate(35.84)"></rect>
  <path d="m88.6,233.28l78.47,108.93c7,9.71,20.6,11.8,30.19,4.64l152.13-113.57H88.6Zm98.53,99.99c-.79.59-1.68.89-2.66.89h0c-.69,0-2.44-.18-3.64-1.86l-59.13-82.08h176.67l-111.24,83.05Z"></path>
  <path d="m441.44,232.92H70.56c-13.56,0-24.56,11.75-24.56,26.25v23.72c0,14.5,11,26.25,24.56,26.25h93.57l-12.21-16.95h-81.37c-4.8,0-8.71-4.18-8.71-9.31v-23.72c0-5.13,3.91-9.31,8.71-9.31h370.88c4.8,0,8.71,4.17,8.71,9.31v23.72c0,5.13-3.91,9.31-8.71,9.31h-199.29l-22.7,16.95h221.99c13.56,0,24.56-11.75,24.56-26.25v-23.72c0-14.5-11-26.25-24.56-26.25Z"></path>
  <path d="m441.44,292.2h-199.29l-22.7,16.95h221.99c4.8,0,8.71,4.17,8.71,9.31v23.72c0,5.13-3.91,9.31-8.71,9.31H70.56c-4.8,0-8.71-4.18-8.71-9.31v-23.72c0-5.13,3.91-9.31,8.71-9.31h93.57l-12.21-16.95h-81.37c-13.56,0-24.56,11.75-24.56,26.25v23.72c0,14.5,11,26.25,24.56,26.25h370.88c13.56,0,24.56-11.75,24.56-26.25v-23.72c0-14.5-11-26.25-24.56-26.25Z"></path>
</symbol>
</svg>