<svg xmlns="http://www.w3.org/2000/svg" style="display: none;">


<symbol id="google-1" xmlns="http://www.w3.org/2000/svg" viewBox="0 0 512 512">
  <path d="m412.83,368.37c12.57,6.71,22.89,5.02,30.96-5.07,8.08-10.08,9.02-20.95,2.82-32.59l-41.19-77.24-35.78,91.03,43.19,23.88Zm-108.49-19.04h46.45l49.18-121.16c3.28-8.5,4.15-15.7,2.63-21.59s-5.68-10.27-12.46-13.11l-40.66-16.82c-6.96-3.1-13.73-3.54-20.31-1.34-6.58,2.2-10.03,6.91-10.37,14.13l-14.47,159.9Zm-143.89,0h46.34l-14.36-161.43c-.33-5.76-3.6-9.93-9.81-12.52-6.21-2.58-13.16-2.16-20.87,1.27l-39.43,16.2c-6.88,2.94-10.7,8.03-11.46,15.26-.76,7.23.34,14.71,3.28,22.44,0,0,46.3,118.78,46.3,118.78Zm-62.04,19.04l43.19-23.88-35.01-91.03-41.96,80.12c-6.45,12.39-5.26,22.71,3.57,30.96,8.83,8.25,18.9,9.53,30.21,3.82Zm123.73-19.04h66.84l16.47-183.97c.41-6.71-1.48-12.41-5.66-17.1-4.18-4.7-9.89-7.05-17.1-7.05h-54.13c-6.09,0-11.49,2.16-16.2,6.47-4.71,4.31-6.9,9.69-6.56,16.14,0,0,16.35,185.51,16.35,185.51Zm-136.59,36.82c-11.09,0-20.45-3.7-28.09-11.1-7.64-7.4-11.46-16.43-11.46-27.1,0-3.73.49-7.38,1.48-10.96.99-3.57,2.44-7.06,4.36-10.47l47.07-90.87c-4.48-11.44-5.3-22.73-2.46-33.88,2.84-11.15,9.35-18.87,19.54-23.17l40.66-16.59c6.09-2.51,12.27-3.74,18.52-3.69,6.26.05,11.72,2.34,16.37,6.87.1-10.65,3.76-19.87,10.98-27.66,7.22-7.79,16.09-11.69,26.62-11.69h53.54c10.39,0,19.26,3.52,26.6,10.56,7.35,7.04,11.33,15.84,11.94,26.41,3.97-4.3,9.06-6.09,15.28-5.37,6.22.72,12.21,2.24,17.97,4.57l40.77,16.59c10.26,3.89,17.03,11.39,20.29,22.5,3.26,11.11,2.45,22.01-2.44,32.71l47.07,92.22c1.08,2.64,2.32,5.29,3.72,7.96,1.41,2.67,2.11,5.51,2.11,8.51,0,12.18-4.22,22.5-12.67,30.96-8.45,8.46-18.7,12.69-30.77,12.69-3.01,0-5.75-.56-8.23-1.67-2.48-1.11-5.04-2.21-7.68-3.28l-31.98-16.51h-237.83l-30.87,15.74c-3.22,1.41-6.53,2.71-9.92,3.92-3.39,1.2-6.89,1.8-10.49,1.8Z"></path>
</symbol><symbol id="google-2" xmlns="http://www.w3.org/2000/svg" viewBox="0 0 512 512">
  <path d="m113.31,442.67c-5.03,0-9.27-1.74-12.74-5.21-3.47-3.47-5.21-7.72-5.21-12.74v-219.92c-13.07-7.36-24.57-16.48-34.48-27.35-9.92-10.87-14.88-24.72-14.88-41.53,0-18.82,6.39-34.62,19.18-47.41,12.79-12.79,28.59-19.18,47.41-19.18h286.82c18.82,0,34.62,6.39,47.41,19.18,12.79,12.79,19.18,28.59,19.18,47.41,0,16.81-4.96,30.65-14.88,41.53-9.92,10.87-21.37,19.99-34.35,27.35v219.92c0,5.03-1.74,9.27-5.21,12.74-3.47,3.47-7.72,5.21-12.74,5.21H113.31Zm0-17.95h285.52v-228.17l11.44-7.45c9.54-6.04,18.23-13.16,26.05-21.36,7.82-8.2,11.73-18.8,11.73-31.81,0-13.49-4.73-24.97-14.2-34.44-9.47-9.47-20.95-14.2-34.44-14.2H112.59c-13.49,0-24.97,4.73-34.44,14.2-9.47,9.47-14.2,20.95-14.2,34.44s3.89,23.73,11.67,31.88c7.78,8.15,16.68,15.29,26.7,21.43l10.99,7.31s0,228.17,0,228.17Zm135.38-53.71c2.39,2.39,4.85,3.59,7.38,3.59s4.99-1.2,7.38-3.59l85.26-84.36c2.39-2.39,3.59-4.85,3.59-7.38s-1.2-4.99-3.59-7.38l-85.26-85.26c-1.91-1.91-4.38-2.87-7.38-2.87s-5.47.96-7.38,2.87l-84.36,85.26c-2.39,2.39-3.59,4.85-3.59,7.38s1.2,4.99,3.59,7.38l84.36,84.36Zm7.31-17.63l-73.32-73.32,73.32-74.67,74.22,74.67-74.22,73.32Z"></path>
</symbol><symbol id="google-3" xmlns="http://www.w3.org/2000/svg" viewBox="0 0 512 512">
  <path d="m56.91,466v-18.18h38.36v-84.68c-12.27-2.42-21.73-8-28.39-16.72-6.65-8.72-9.98-18.83-9.98-30.32v-165.55h95.36v165.55c0,10.38-3.34,20.24-10.01,29.59-6.67,9.35-16.27,15.17-28.81,17.45v84.68h38.82v18.18H56.91Zm18.18-206.23h59v-91.05h-59s0,91.05,0,91.05Zm29.5,86.05c8.06,0,14.99-2.99,20.8-8.96,5.8-5.97,8.7-12.9,8.7-20.77v-38.14h-59v38.14c0,7.87,2.9,14.79,8.7,20.77,5.8,5.97,12.73,8.96,20.8,8.96Zm161.41,120.18c-4.7,0-8.91-1.85-12.62-5.56-3.71-3.71-5.56-7.92-5.56-12.62v-232.91c0-3.92,1.18-7.11,3.55-9.57,2.36-2.47,5.52-4.56,9.45-6.29l22-9.14c12.48-4.94,21.88-11,28.18-18.18,6.3-7.18,9.45-18.36,9.45-33.55V62.68c0-4.78,1.48-8.76,4.44-11.93,2.96-3.17,7.01-4.75,12.15-4.75h27.82c4.76,0,8.71,1.58,11.86,4.75,3.15,3.17,4.73,7.14,4.73,11.93v75.5c0,15.19,3.49,26.37,10.48,33.55,6.98,7.18,16.57,13.24,28.75,18.18l22.45,9.14c3.85,1.66,6.8,3.74,8.86,6.25,2.06,2.5,3.09,5.71,3.09,9.62v232.91c0,4.7-1.85,8.91-5.56,12.62-3.71,3.71-7.92,5.56-12.62,5.56h-170.91Zm72.64-375.36h24.64v-26.45h-24.64v26.45Zm-72.64,182.86h170.91v-58.59l-23.45-8.55c-15.45-5.61-27.68-13.74-36.68-24.41-9-10.67-13.5-25.74-13.5-45.23v-27.91h-24.64v27.91c0,19.49-4.43,34.27-13.3,44.36-8.86,10.09-20.63,18.03-35.3,23.82l-24.05,10.23s0,58.36,0,58.36Zm0,174.32h170.91v-69.05h-170.91v69.05Zm0-87.23h170.91v-68.91h-170.91v68.91Zm0,0v-68.91,68.91Z"></path>
</symbol><symbol id="google-4" xmlns="http://www.w3.org/2000/svg" viewBox="0 0 512 512">
  <path d="m158.23,466v-91.3h-25.49c-10.44,0-19.27-3.6-26.47-10.8-7.21-7.2-10.81-16.04-10.81-26.52s3.6-19.3,10.81-26.48c7.21-7.18,16.03-10.77,26.47-10.77h25.49v-36.52h-62.77v-74.57h62.77v-36.52h-25.49c-10.44,0-19.27-3.6-26.47-10.8-7.21-7.2-10.81-16.04-10.81-26.52s3.6-19.3,10.81-26.48c7.21-7.18,16.03-10.77,26.47-10.77h25.49v-31.96h12.93v31.96h25.49c10.44,0,19.26,3.6,26.47,10.81,7.21,7.2,10.81,16.02,10.81,26.46s-3.6,19.27-10.81,26.48c-7.21,7.22-16.03,10.82-26.47,10.82h-25.49v36.52h62.77v74.57h-62.77v36.52h25.49c10.44,0,19.26,3.6,26.47,10.81,7.21,7.2,10.81,16.02,10.81,26.46s-3.6,19.27-10.81,26.48c-7.21,7.22-16.03,10.82-26.47,10.82h-25.49v91.3s-12.93,0-12.93,0Zm182.61,0v-91.3h-25.49c-10.44,0-19.27-3.6-26.47-10.8s-10.81-16.04-10.81-26.52,3.6-19.3,10.81-26.48c7.21-7.18,16.03-10.77,26.47-10.77h25.49v-36.52h-62.77v-74.57h62.77v-36.52h-25.49c-10.44,0-19.27-3.6-26.47-10.8s-10.81-16.04-10.81-26.52,3.6-19.3,10.81-26.48c7.21-7.18,16.03-10.77,26.47-10.77h25.49v-31.96h12.93v31.96h25.49c10.44,0,19.26,3.6,26.47,10.81,7.21,7.2,10.81,16.02,10.81,26.46s-3.6,19.27-10.81,26.48c-7.21,7.22-16.03,10.82-26.47,10.82h-25.49v36.52h62.77v74.57h-62.77v36.52h25.49c10.44,0,19.26,3.6,26.47,10.81,7.21,7.2,10.81,16.02,10.81,26.46s-3.6,19.27-10.81,26.48c-7.21,7.22-16.03,10.82-26.47,10.82h-25.49v91.3s-12.93,0-12.93,0ZM132.74,137.3h63.91c6.06,0,11.25-2.17,15.58-6.51,4.32-4.34,6.49-9.52,6.49-15.56s-2.16-11.25-6.49-15.58c-4.32-4.32-9.52-6.49-15.58-6.49h-63.91c-6.04,0-11.22,2.16-15.56,6.49-4.34,4.32-6.51,9.5-6.51,15.52s2.17,11.22,6.51,15.58c4.34,4.36,9.52,6.54,15.56,6.54Zm182.61,0h63.91c6.06,0,11.25-2.17,15.58-6.51,4.32-4.34,6.49-9.52,6.49-15.56s-2.16-11.25-6.49-15.58c-4.32-4.32-9.52-6.49-15.58-6.49h-63.91c-6.04,0-11.22,2.16-15.56,6.49-4.34,4.32-6.51,9.5-6.51,15.52s2.17,11.22,6.51,15.58c4.34,4.36,9.52,6.54,15.56,6.54Zm-204.67,111.09h108.04v-44.13h-108.04s0,44.13,0,44.13Zm182.61,0h108.04v-44.13h-108.04s0,44.13,0,44.13Zm-160.54,111.09h63.91c6.06,0,11.25-2.17,15.58-6.51,4.32-4.34,6.49-9.52,6.49-15.56s-2.16-11.25-6.49-15.58c-4.32-4.32-9.52-6.49-15.58-6.49h-63.91c-6.04,0-11.22,2.16-15.56,6.49-4.34,4.32-6.51,9.5-6.51,15.52s2.17,11.22,6.51,15.58c4.34,4.36,9.52,6.54,15.56,6.54Zm182.61,0h63.91c6.06,0,11.25-2.17,15.58-6.51,4.32-4.34,6.49-9.52,6.49-15.56s-2.16-11.25-6.49-15.58c-4.32-4.32-9.52-6.49-15.58-6.49h-63.91c-6.04,0-11.22,2.16-15.56,6.49-4.34,4.32-6.51,9.5-6.51,15.52s2.17,11.22,6.51,15.58c4.34,4.36,9.52,6.54,15.56,6.54ZM110.67,137.3v-44.13,44.13Zm182.61,0v-44.13,44.13Zm-182.61,111.09v-44.13s0,44.13,0,44.13Zm182.61,0v-44.13s0,44.13,0,44.13Zm-182.61,111.09v-44.13s0,44.13,0,44.13Zm182.61,0v-44.13s0,44.13,0,44.13Z"></path>
</symbol>
</svg>