<?xml version="1.0" encoding="UTF-8"?>
<svg id="Layer_1" data-name="Layer 1" xmlns="http://www.w3.org/2000/svg" viewBox="0 0 15 15">
  <g id="_9" data-name="9">
    <path d="m3.47,8.79l3.59,3.23c.11.1.25.14.39.13.14,0,.29-.03.39-.13l3.59-3.23c.2-.18.2-.48,0-.66-.2-.18-.53-.18-.74,0l-2.73,2.46V.47c0-.26-.23-.47-.52-.47s-.52.21-.52.47v10.12l-2.73-2.46c-.2-.18-.53-.18-.74,0-.2.18-.2.48,0,.66ZM12.65,1.88h-1.56v.94h1.56c.57,0,1.04.42,1.04.94v9.38c0,.52-.47.94-1.04.94H2.25c-.57,0-1.04-.42-1.04-.94V3.75c0-.52.47-.94,1.04-.94h1.56v-.94h-1.56C1.1,1.88.17,2.71.17,3.75v9.38c0,1.04.93,1.88,2.08,1.88h10.4c1.15,0,2.08-.84,2.08-1.88V3.75c0-1.04-.93-1.88-2.08-1.88Z"/>
  </g>
</svg>