<?xml version="1.0" encoding="UTF-8"?>
<svg id="Layer_1" data-name="Layer 1" xmlns="http://www.w3.org/2000/svg" xmlns:xlink="http://www.w3.org/1999/xlink" viewBox="0 0 363 355">
  <defs>
    <linearGradient id="linear-gradient" x1="119.04" y1="179.02" x2="171.12" y2="179.02" gradientUnits="userSpaceOnUse">
      <stop offset="0" stop-color="#7e9cd4"/>
      <stop offset="1" stop-color="#cfdeff"/>
    </linearGradient>
    <linearGradient id="linear-gradient-2" x1="124.55" x2="165.61" xlink:href="#linear-gradient"/>
    <linearGradient id="linear-gradient-3" x1="180.99" y1="178.93" x2="243.96" y2="178.93" xlink:href="#linear-gradient"/>
    <linearGradient id="linear-gradient-4" x1="186.5" y1="178.91" x2="238.45" y2="178.91" xlink:href="#linear-gradient"/>
    <linearGradient id="linear-gradient-5" x1="212.73" y1="92.71" x2="212.74" y2="92.71" xlink:href="#linear-gradient"/>
    <linearGradient id="linear-gradient-6" x1="13.17" y1="178.93" x2="349.83" y2="178.93" xlink:href="#linear-gradient"/>
  </defs>
  <g>
    <path d="m145.08,270.71c-5.73,0-10.39-4.66-10.39-10.39v-99.65c-9.42-5.98-15.65-19.79-15.65-35.09,0-10.01,2.58-19.46,7.27-26.61,4.92-7.51,11.59-11.64,18.77-11.64s13.84,4.13,18.77,11.64c4.69,7.15,7.27,16.6,7.27,26.61,0,15.29-6.23,29.11-15.65,35.09v99.65c0,5.73-4.66,10.39-10.39,10.39Z" fill="url(#linear-gradient)"/>
    <path d="m145.08,92.84c-5.26,0-10.29,3.25-14.16,9.15-4.11,6.26-6.37,14.64-6.37,23.59,0,14.09,5.7,26.58,14.18,31.07.9.48,1.47,1.41,1.47,2.44v101.24c0,2.69,2.19,4.88,4.88,4.88s4.88-2.19,4.88-4.88v-101.24c0-1.02.56-1.96,1.47-2.44,8.48-4.49,14.18-16.98,14.18-31.07,0-8.95-2.26-17.33-6.37-23.59-3.87-5.9-8.9-9.15-14.16-9.15Z" fill="url(#linear-gradient-2)"/>
    <path d="m212.35,270.71c-.27,0-.53-.04-.78-.11-5.06-.73-8.95-5.32-8.95-10.7v-96.81c-12.84-4.4-21.63-16.55-21.63-30.26v-36.98c0-4.79,3.9-8.69,8.69-8.69s8.69,3.9,8.69,8.69v30.66c0,1.73,1.41,3.14,3.14,3.14s3.14-1.41,3.14-3.14v-31c0-3.99,2.84-7.44,6.76-8.2.11-.02.21-.03.32-.04.18-.03.43-.07.74-.06.32,0,.68.03,1.07.11,3.9.76,6.74,4.2,6.74,8.19v31c0,1.73,1.41,3.14,3.14,3.14s3.14-1.41,3.14-3.14v-30.66c0-4.79,3.9-8.69,8.69-8.69s8.69,3.9,8.69,8.69v36.98c0,13.71-8.79,25.86-21.63,30.26v96.81c0,5.39-3.91,10-9,10.71-.28.08-.57.12-.86.1-.04,0-.08,0-.12,0Z" fill="url(#linear-gradient-3)"/>
    <path d="m189.69,92.67c-1.75,0-3.18,1.43-3.18,3.18v36.98c0,11.94,8.06,22.45,19.59,25.56,1.2.32,2.04,1.41,2.04,2.66v98.84c0,2.69,1.9,4.98,4.34,5.26,2.45-.28,4.34-2.57,4.34-5.26v-98.84c0-1.25.83-2.34,2.04-2.66,11.54-3.11,19.59-13.63,19.59-25.56v-36.98c0-1.75-1.43-3.18-3.18-3.18s-3.18,1.43-3.18,3.18v30.66c0,4.77-3.88,8.65-8.65,8.65s-8.65-3.88-8.65-8.65v-31c0-1.35-.95-2.51-2.27-2.78-.05,0-.11.02-.18.02-1.26.31-2.17,1.45-2.17,2.76v31c0,4.77-3.88,8.65-8.65,8.65s-8.65-3.88-8.65-8.65v-30.66c0-1.75-1.43-3.18-3.18-3.18Z" fill="url(#linear-gradient-4)"/>
    <path d="m212.74,92.71s0,0,0,0c0,0,0,0,0,0Z" fill="url(#linear-gradient-5)"/>
  </g>
  <path d="m181.5,10.61C88.54,10.61,13.17,85.97,13.17,178.93s75.36,168.33,168.33,168.33,168.33-75.36,168.33-168.33S274.46,10.61,181.5,10.61Zm0,306.65c-76.27,0-138.33-62.05-138.33-138.33S105.23,40.61,181.5,40.61s138.33,62.05,138.33,138.33-62.05,138.33-138.33,138.33Z" fill="url(#linear-gradient-6)"/>
  <g>
    <path d="m269,171.54c45.56,0,82.5-36.94,82.5-82.5S314.57,6.54,269,6.54s-82.5,36.94-82.5,82.5,36.94,82.5,82.5,82.5Z" fill="#f56e4f"/>
    <path d="m270.5,42.54v90" fill="none" stroke="#fff" stroke-linecap="round" stroke-width="9"/>
    <path d="m225.5,87.54h90" fill="none" stroke="#fff" stroke-linecap="round" stroke-width="9"/>
  </g>
</svg>