<svg width="363" height="355" viewBox="0 0 363 355" fill="none" xmlns="http://www.w3.org/2000/svg">
<g opacity="0.4">
<path d="M39.9252 241.907C41.3358 225.681 51.6092 210.867 74.6465 201.707C76.5265 200.961 78.4105 200.254 80.2785 199.547C113.824 187.134 149.01 182.081 186.996 182.081C225.646 182.081 269.768 187.174 302.81 202.494C317.494 209.321 329.495 221.881 332.491 234.187C333.716 239.174 333.716 244.987 332.907 250.961C331.285 262.681 326.479 275.161 321.305 284.227C317.459 290.907 310.862 297.787 302.956 304.214C291.225 313.734 276.605 322.147 263.813 327.241C219.855 344.681 160.431 340.134 115.787 326.281C93.6372 319.414 73.7492 308.974 61.0372 293.961C51.9772 283.241 43.0785 266.747 40.5345 252.414C39.8652 248.734 39.6585 245.201 39.9252 241.907Z" fill="#F78F2C"/>
<path d="M40.5347 252.414C43.256 237.881 53.6627 224.827 74.6467 216.467C76.5267 215.721 78.4107 215.001 80.2787 214.321C113.824 201.921 149.011 196.867 186.996 196.867C225.647 196.867 269.768 201.934 302.811 217.254C317.495 224.067 329.495 236.641 332.491 248.947C332.64 249.614 332.784 250.267 332.907 250.961C331.285 262.681 326.479 275.161 321.305 284.227C317.459 290.907 310.863 297.787 302.956 304.214C291.225 313.734 276.605 322.147 263.813 327.241C219.855 344.681 160.431 340.134 115.787 326.281C93.6374 319.414 73.7493 308.974 61.0373 293.961C51.9773 283.241 43.0787 266.747 40.5347 252.414Z" fill="#F6882D"/>
<path d="M354.181 241.8C353.009 246.387 348.999 249.907 340.244 251.16C332.955 252.227 326.703 252.12 322.164 253.88C318.683 255.214 316.248 257.654 315.147 262.574C314.163 266.974 315.67 276.134 313.609 282.867C312.472 286.574 310.251 289.507 305.928 290.507C300.008 291.88 294.027 290.187 287.947 288.494C281.021 286.56 273.967 284.627 266.733 287.24C265.665 287.614 264.707 288.054 263.876 288.507C253.865 293.96 256.259 305.12 253.848 313.414C253.572 314.347 253.237 315.227 252.823 316.067C247.024 327.854 227.136 316.294 219.119 311.734C209.815 306.427 196.952 293.374 183.368 297.694C171.715 301.4 161.939 313.267 147.305 310.4C134.047 307.774 130.432 296.08 115.001 295.707C110.969 295.614 104.833 297.334 98.4639 299.04C89.4159 301.48 79.8946 303.907 75.2559 301.174C67.4372 296.56 74.6986 285.467 65.4146 280.147C58.2532 276.04 46.7585 278.507 44.7305 270.72C42.5425 262.32 46.7039 255.827 39.6932 247.934C33.2492 240.667 30.8292 235.547 31.5239 227.654C29.2506 225.054 27.4252 222.24 27.3119 219.387C27.1852 215.614 29.8799 212.787 34.0732 210.667C43.5079 205.827 60.4426 204.48 68.7119 203.467C100.092 199.587 131.808 196.84 163.333 193.667C193.863 190.56 224.389 187.547 254.813 183.907C273.321 181.68 290.86 180.947 309.089 184.987C324.551 188.387 342.371 194.88 346.428 207.08C349.115 215.107 350.475 223.374 353.207 231.467C354.448 235.16 354.949 238.734 354.181 241.8Z" fill="#A1AE5B"/>
<path d="M354.181 241.8C352.219 242.694 349.823 243.36 346.892 243.8C334.592 245.587 325.103 244.014 322.164 253.88C318.683 255.214 316.248 257.654 315.147 262.574C314.163 266.974 315.671 276.134 313.609 282.867C313.285 282.974 312.939 283.067 312.603 283.147C306.684 284.52 300.705 282.814 294.627 281.107C287.696 279.16 280.636 277.227 273.392 279.827C268.068 281.76 265.352 284.867 263.876 288.507C253.865 293.96 256.259 305.12 253.848 313.414C245.469 315.707 231.993 307.92 225.772 304.334C216.464 299.054 203.605 286 190.031 290.307C178.393 294.014 168.615 305.894 153.945 303C140.705 300.387 137.077 288.68 121.66 288.334C117.624 288.24 111.481 289.96 105.105 291.667C96.064 294.107 86.5506 296.547 81.9093 293.8C74.0946 289.187 81.3533 278.067 72.0613 272.76C64.904 268.654 53.3866 271.12 51.3813 263.32C49.176 254.934 53.352 248.44 46.3386 240.534C39.9253 233.28 37.504 228.2 38.2 220.28C35.92 217.667 34.0733 214.854 33.9907 212C33.9747 211.547 33.9906 211.08 34.0733 210.667C43.508 205.827 60.4426 204.48 68.712 203.467C100.092 199.587 131.808 196.84 163.333 193.667C193.863 190.56 224.389 187.547 254.813 183.907C273.321 181.68 290.86 180.947 309.089 184.987C324.551 188.387 342.371 194.88 346.428 207.08C349.115 215.107 350.475 223.374 353.207 231.467C354.448 235.16 354.949 238.734 354.181 241.8Z" fill="#B0BC6E"/>
<path d="M201.993 292.08C189.761 298.2 178.643 307.174 169.347 317.014C130.001 358.707 82.2534 296.147 63.3307 265.2C57.6774 255.974 52.3027 246.294 47.8334 236.427C38.1094 214.774 31.2254 192.214 23.3654 169.867C21.3107 164.04 17.5187 148.734 10.4907 146.08C13.1761 147.094 21.1027 147.014 32.532 146.2C87.6187 142.267 223.784 121.094 241.616 120.134C234.045 125.56 308.28 237.6 321.155 259.374C322.595 261.84 323.256 263.16 322.964 263.027C322.98 263.04 315.452 265.667 314.824 265.787C305.175 267.72 295.297 268.6 285.605 270.36C259.961 275.014 231.761 279.454 207.608 289.494C205.723 290.294 203.833 291.16 201.993 292.08Z" fill="#FBC064"/>
<path d="M198.477 293.934C199.637 293.294 200.811 292.667 201.993 292.081C202.491 291.841 202.992 291.587 203.496 291.347C203.012 291.627 202.532 291.921 202.061 292.214L202.025 292.227C200.86 292.814 199.673 293.374 198.477 293.934Z" fill="#AE9E2B"/>
<path d="M158.958 319.72C156.049 319.72 152.668 318.893 148.481 317C123.197 305.627 100.556 289.533 84.4038 266.867C110.74 280.947 148.181 289.733 189.728 289.733C195.689 289.733 201.566 289.56 207.337 289.2C206.014 289.907 204.736 290.613 203.496 291.347C202.992 291.587 202.49 291.84 201.993 292.08C200.81 292.667 199.637 293.293 198.477 293.933C191.25 297.307 183.642 300.467 178.097 306.36C170.969 313.987 166.588 319.72 158.958 319.72ZM302.657 262.454C307.885 259.174 312.556 255.653 316.593 251.934C318.503 254.987 320.053 257.52 321.155 259.373C315.833 260.253 309.555 261.267 302.657 262.454Z" fill="#F79943"/>
<path d="M334.092 217.374C334.092 257.347 269.447 289.734 189.728 289.734C109.983 289.734 45.3613 257.347 45.3613 217.374C45.3613 177.387 109.983 144.987 189.728 144.987C269.447 144.987 334.092 177.387 334.092 217.374Z" fill="#452115"/>
<path d="M346.445 205.04C346.445 196.627 340.475 189.574 332.543 187.92C322.699 152.747 262.452 125.694 189.595 125.694C114.477 125.694 52.8026 154.427 45.876 191.174C38.4493 193.2 32.98 199.987 32.98 208.04C32.98 216.374 38.828 223.334 46.6346 225.094C46.6146 225.254 46.5893 225.387 46.5893 225.547C46.5893 235.214 54.4306 243.054 64.1026 243.054C67.136 243.054 69.9613 242.294 72.4426 240.947C74.056 249.414 81.5866 255.4 90.1613 255.134C93.2773 259.96 98.6946 263.174 104.863 263.174C106.251 263.174 107.557 262.987 108.835 262.707C111.668 268.574 117.657 272.64 124.615 272.64C128.901 272.64 132.805 271.12 135.856 268.56C138.767 274.187 144.632 278.054 151.428 278.054C157.563 278.054 162.964 274.92 166.083 270.134C168.78 276.334 174.947 280.68 182.137 280.68C189.28 280.68 195.393 276.414 198.116 270.294C198.365 270.267 198.615 270.267 198.876 270.254C202.008 274.96 207.349 278.054 213.413 278.054C220.339 278.054 226.308 274.027 229.144 268.187C232.243 270.96 236.303 272.64 240.792 272.64C247.972 272.64 254.151 268.294 256.821 262.107C257.383 261.947 257.912 261.827 258.432 261.68C261.576 264.654 265.788 266.507 270.472 266.507C277.663 266.507 283.847 262.16 286.544 255.92C288.8 256.987 291.273 257.574 293.927 257.574C303.583 257.574 311.424 249.734 311.424 240.067C311.424 239.787 311.397 239.574 311.377 239.307C313 239.787 314.677 240.067 316.436 240.067C326.107 240.067 333.948 232.227 333.948 222.56C333.948 222.307 333.931 222.054 333.904 221.827C341.157 219.667 346.445 212.974 346.445 205.04Z" fill="#8C4425"/>
<path d="M31.9932 179.254C30.2319 189.201 32.3692 194.694 39.6932 202.947C46.7039 210.854 42.5265 217.347 44.7305 225.734C46.7585 233.507 58.2532 231.054 65.4146 235.161C74.6812 240.481 67.4372 251.574 75.2559 256.187C79.8986 258.934 89.4306 256.494 98.4852 254.054C104.847 252.347 110.973 250.627 115.001 250.721C130.432 251.094 134.047 262.787 147.287 265.401C161.953 268.281 171.732 256.427 183.368 252.721C196.952 248.401 209.815 261.454 219.119 266.747C227.117 271.307 247.044 282.867 252.823 271.121C257.249 262.054 252.045 247.507 266.733 242.241C273.984 239.627 281.047 241.574 287.977 243.507C294.051 245.201 300.021 246.907 305.928 245.534C318.092 242.707 313.625 224.387 315.147 217.574C317.659 206.254 327.401 208.067 340.244 206.187C354.896 204.041 356.276 195.627 353.207 186.494C350.475 178.387 349.115 170.121 346.445 162.081C342.396 149.894 324.551 143.401 309.089 139.987C290.86 135.961 273.321 136.707 254.813 138.934C224.389 142.561 193.88 145.574 163.36 148.681C131.825 151.894 100.092 154.627 68.7119 158.481C56.7972 159.947 26.8839 162.067 27.3319 174.401C27.5119 179.294 32.8372 184.107 36.5919 187.987L31.9932 179.254Z" fill="#B8C47A"/>
<path d="M340.115 203.934C340.115 225.16 305.772 242.374 263.365 242.374C221.003 242.374 186.633 225.16 186.633 203.934C186.633 182.667 221.003 165.454 263.365 165.454C305.772 165.454 340.115 182.667 340.115 203.934Z" fill="#A15554"/>
<path d="M340.115 196.121C340.115 217.374 305.772 234.601 263.365 234.601C221.003 234.601 186.633 217.374 186.633 196.121C186.633 174.894 221.003 157.654 263.365 157.654C305.772 157.654 340.115 174.894 340.115 196.121Z" fill="#DF6B62"/>
<path d="M333.803 196.12C333.803 215.627 302.275 231.414 263.365 231.414C224.483 231.414 192.952 215.627 192.952 196.12C192.952 176.627 224.483 160.84 263.365 160.84C302.275 160.84 333.803 176.627 333.803 196.12Z" fill="#DD7F7C"/>
<path d="M203.889 209.134C203.889 230.361 169.545 247.587 127.165 247.587C84.7746 247.587 50.4319 230.361 50.4319 209.134C50.4319 187.894 84.7746 170.667 127.165 170.667C169.545 170.667 203.889 187.894 203.889 209.134Z" fill="#B85655"/>
<path d="M203.889 201.334C203.889 222.574 169.545 239.787 127.165 239.787C84.7746 239.787 50.4319 222.574 50.4319 201.334C50.4319 180.08 84.7746 162.854 127.165 162.854C169.545 162.854 203.889 180.08 203.889 201.334Z" fill="#B9453C"/>
<path d="M197.599 201.334C197.599 220.841 166.063 236.627 127.165 236.627C88.2719 236.627 56.7493 220.841 56.7493 201.334C56.7493 181.827 88.2719 166.027 127.165 166.027C166.063 166.027 197.599 181.827 197.599 201.334Z" fill="#E9807D"/>
<path d="M333.716 160.787C333.716 201.467 267.887 234.454 186.711 234.454C105.535 234.454 39.7227 201.467 39.7227 160.787C39.7227 120.08 105.535 87.0936 186.711 87.0936C267.887 87.0936 333.716 120.08 333.716 160.787Z" fill="#8C452E"/>
<path d="M333.533 165.307C333.552 165.574 333.568 165.841 333.568 166.067C333.568 175.907 325.585 183.894 315.737 183.894C313.948 183.894 312.221 183.627 310.592 183.134C310.592 183.374 310.628 183.641 310.628 183.894C310.628 193.747 302.66 201.707 292.8 201.707C290.129 201.707 287.579 201.107 285.289 200.054C282.559 206.361 276.261 210.827 268.903 210.827C264.177 210.827 259.871 208.934 256.659 205.881C256.123 206.041 255.603 206.174 255.044 206.321C252.373 212.507 246.311 216.881 239.169 217.054C239.013 217.067 238.868 217.067 238.707 217.067C235.76 217.067 233.021 216.374 230.615 215.121C229.237 214.401 227.997 213.561 226.853 212.534C226.639 213.027 226.371 213.467 226.095 213.934C222.976 219.121 217.308 222.574 210.832 222.574C204.663 222.574 199.225 219.427 196.013 214.641C195.78 214.641 195.513 214.654 195.251 214.654C192.483 220.894 186.247 225.241 178.992 225.241C171.663 225.241 165.384 220.827 162.636 214.481C159.449 219.374 153.98 222.574 147.717 222.574C140.809 222.574 134.82 218.654 131.857 212.894C128.776 215.494 124.776 217.067 120.421 217.067C113.332 217.067 107.216 212.907 104.347 206.921C103.053 207.254 101.712 207.401 100.331 207.401C94.0373 207.401 88.516 204.147 85.3547 199.227C76.6187 199.521 68.9427 193.401 67.2893 184.761C64.756 186.147 61.8813 186.921 58.8053 186.921C48.96 186.921 40.9827 178.947 40.9827 169.094C40.9827 168.934 41.0026 168.801 41.0026 168.654C33.068 166.854 27.1333 159.761 27.1333 151.254C27.1333 143.081 32.6973 136.187 40.2426 134.094C42.004 124.721 47.272 115.867 55.3693 107.867C58.668 104.614 62.4173 101.494 66.5746 98.5608C93.2093 79.7208 137.029 67.414 186.567 67.414C215.117 67.414 241.772 71.5074 264.339 78.6008C300.403 89.8808 325.979 108.761 332.113 130.801C340.209 132.467 346.283 139.654 346.283 148.241C346.283 156.307 340.907 163.134 333.533 165.307Z" fill="#602E19"/>
<path d="M45.3613 97.7471C45.3613 97.7471 46.2587 98.7071 47.944 100.48C46.2587 100.64 45.3613 100.747 45.3613 100.747V97.7471Z" fill="#602E19"/>
<path d="M230.615 215.121C230.308 215.041 230.003 214.974 229.697 214.894C229.737 214.827 229.779 214.747 229.82 214.681C230.08 214.827 230.344 214.974 230.615 215.121Z" fill="#351710"/>
<path d="M239.169 217.054C236.318 216.468 233.466 215.801 230.614 215.121C230.344 214.974 230.08 214.827 229.82 214.681C233.804 207.907 240.941 200.934 249.938 194.001L249.953 193.988C256.36 189.068 263.698 184.187 271.488 179.441C278.108 177.414 284.658 175.094 291.146 172.467C291.798 172.201 292.422 171.961 293.069 171.681C294.953 170.894 296.813 170.121 298.701 169.267C308.709 164.827 316.304 159.174 321.812 152.721C330.542 148.521 338.546 144.828 345.08 141.788C345.856 143.788 346.282 145.961 346.282 148.241C346.282 156.307 340.906 163.134 333.533 165.307C333.552 165.574 333.568 165.841 333.568 166.067C333.568 175.907 325.585 183.894 315.737 183.894C313.948 183.894 312.221 183.627 310.592 183.134C310.592 183.374 310.628 183.641 310.628 183.894C310.628 193.748 302.66 201.707 292.8 201.707C290.129 201.707 287.578 201.108 285.289 200.054C282.558 206.361 276.261 210.828 268.902 210.828C264.177 210.828 259.87 208.934 256.658 205.881C256.122 206.041 255.602 206.174 255.044 206.321C252.373 212.508 246.31 216.881 239.169 217.054Z" fill="#A4543F"/>
<path d="M249.953 193.987L249.939 194.001C234.88 205.587 224.983 217.374 226.423 227.974C226.783 230.654 227.868 233.294 229.831 235.827C94.9987 270.107 24.376 132.774 0 132.774C3.09733 132.774 11.12 130.267 22.3973 126.081C76.816 105.881 207.013 46.5607 224.749 40.294C219.119 47.094 337.028 116.387 358.357 130.334C360.777 131.921 361.943 132.774 361.587 132.774C369.727 132.774 290.86 162.547 249.953 193.987Z" fill="#FAB763"/>
<path d="M358.357 130.334C330.217 143.427 273.711 169.214 249.953 193.987L249.939 194C240.213 201.494 232.659 209.04 228.913 216.32C226.819 220.294 225.896 224.214 226.423 227.974C116.199 245.667 51.8705 148.44 22.3972 126.08C24.8945 125.174 27.5466 124.147 30.3452 123.08C88.5159 100.574 207.813 46.307 224.749 40.2937C219.119 47.0937 337.028 116.387 358.357 130.334Z" fill="#FBC064"/>
<path d="M228.913 216.321C176.043 211.814 134.585 198.054 102.368 180.774C129.231 188.427 159.159 191.254 186.367 191.254C186.464 191.254 186.564 191.254 186.661 191.254C186.687 191.254 186.709 191.254 186.733 191.254C186.832 191.254 186.931 191.254 187.028 191.254C187.033 191.254 187.037 191.254 187.043 191.254C187.141 191.254 187.237 191.254 187.335 191.254C187.353 191.254 187.371 191.254 187.389 191.254C187.489 191.254 187.592 191.241 187.692 191.241C187.699 191.241 187.703 191.241 187.709 191.241C187.815 191.241 187.915 191.241 188.02 191.241C188.025 191.241 188.028 191.241 188.033 191.241C188.252 191.241 188.472 191.241 188.689 191.241H188.693C215.131 191.081 240.233 188.134 264.371 181.521C258.837 185.654 253.936 189.841 249.953 193.987L249.939 194.001C240.941 200.934 233.804 207.907 229.82 214.681C229.779 214.747 229.737 214.827 229.697 214.894C229.42 215.374 229.159 215.854 228.913 216.321Z" fill="#F79730"/>
<path d="M327.157 145.107C330.843 138.614 332.845 131.547 333.42 124.227C333.505 123.174 333.545 122.094 333.545 121C333.544 118.96 333.4 116.84 333.136 114.667C344.581 121.694 353.737 127.307 358.357 130.334C349.947 134.24 339.004 139.294 327.157 145.107ZM41.4612 135.294C37.4159 131.147 33.7159 127.054 30.3452 123.08C33.3959 121.894 36.6159 120.627 39.9785 119.294C39.9105 120.507 39.8759 121.707 39.8745 122.894C39.8719 126.427 40.1772 129.8 40.8532 132.907C41.0266 133.707 41.2292 134.494 41.4612 135.294Z" fill="#F79730"/>
<path d="M333.42 124.227C331.991 142.441 321.733 159.041 298.701 169.267C296.813 170.121 294.953 170.894 293.069 171.68C292.423 171.96 291.799 172.201 291.147 172.467C258.188 185.814 223.605 191.254 186.367 191.254C147.717 191.254 103.573 185.561 70.5373 168.401C55.852 160.787 43.868 146.694 40.8534 132.907C39.6587 127.294 39.6413 120.854 40.4413 114.134C42.0533 101.027 46.8587 87.0138 52.0427 76.9072C55.8853 69.4005 62.4827 61.6939 70.3907 54.4939C82.1227 43.8539 96.7427 34.4138 109.531 28.7072C153.496 9.17384 212.913 14.2672 257.551 29.7738C279.707 37.4805 299.615 49.1605 312.317 65.9738C313.677 67.7872 315.057 69.7871 316.399 71.8805C323.939 83.5205 330.665 98.8805 332.835 112.507C333.475 116.627 333.716 120.601 333.42 124.227Z" fill="#F78F2C"/>
<path d="M332.835 112.507C330.423 126.694 322.249 139.587 306.305 148.867C303.937 150.241 301.413 151.534 298.701 152.747C296.813 153.561 294.953 154.374 293.069 155.147C259.532 169.067 224.336 174.721 186.366 174.721C147.717 174.721 103.573 169.014 70.5372 151.867C55.8518 144.241 43.8678 130.161 40.8532 116.387C40.7065 115.654 40.5705 114.907 40.4412 114.134C42.0532 101.027 46.8585 87.014 52.0425 76.9073C55.8852 69.4006 62.4825 61.694 70.3905 54.494C82.1225 43.854 96.7425 34.414 109.53 28.7073C153.496 9.17395 212.913 14.2673 257.55 29.774C279.706 37.4806 299.614 49.1606 312.317 65.974C313.677 67.7873 315.057 69.7873 316.399 71.8806C323.939 83.5206 330.665 98.8806 332.835 112.507Z" fill="#F9A72B"/>
<path d="M267.386 180.667C267.456 180.641 267.532 180.627 267.601 180.601C267.531 180.627 267.457 180.641 267.386 180.667Z" fill="#F8A044"/>
<path d="M267.387 180.667C245.481 180.294 225.639 177.948 207.677 174.094C220.811 173.294 233.616 171.721 246.152 169.267C259.019 170.854 272.716 171.721 287.315 171.721C288.821 171.721 290.308 171.708 291.833 171.694C291.608 171.948 291.38 172.214 291.149 172.467C283.393 175.614 275.548 178.294 267.601 180.601C267.532 180.627 267.456 180.641 267.385 180.667" fill="#F57F24"/>
<path d="M66.9373 57.7603C68.0546 56.6669 69.2079 55.5736 70.3906 54.4936C69.2093 55.5736 68.0559 56.6669 66.9373 57.7603Z" fill="#30130A"/>
<path d="M207.677 174.094C120.653 155.454 77.804 101.694 58.6227 66.9204C61.0747 63.8271 63.8746 60.7604 66.9373 57.7604C68.056 56.6671 69.2093 55.5738 70.3907 54.4938C90.2293 92.1204 139.131 155.974 246.152 169.267C233.616 171.72 220.811 173.294 207.677 174.094Z" fill="#F79422"/>
<path d="M266.719 180.854C266.941 180.801 267.163 180.734 267.385 180.667C267.387 180.667 267.386 180.667 267.386 180.667C267.164 180.734 266.941 180.801 266.719 180.854Z" fill="#F78D32"/>
<path d="M39.98 119.281C40.06 117.841 40.184 116.401 40.3493 114.934C40.1893 116.401 40.068 117.841 39.9907 119.267C39.9867 119.267 39.984 119.281 39.98 119.281Z" fill="#301007"/>
<path d="M39.9785 119.294C39.9785 119.281 39.9799 119.281 39.9799 119.281C39.9839 119.281 39.9865 119.267 39.9905 119.267C39.9905 119.281 39.9905 119.281 39.9905 119.281C39.9865 119.281 39.9825 119.281 39.9785 119.294Z" fill="#F78D32"/>
<path d="M187.028 191.254C187.033 191.254 187.039 191.254 187.043 191.254C187.037 191.254 187.033 191.254 187.028 191.254ZM188.02 191.24C188.024 191.24 188.029 191.24 188.033 191.24C188.028 191.24 188.025 191.24 188.02 191.24ZM188.689 191.24C188.692 191.24 188.691 191.24 188.693 191.24H188.689ZM40.8532 132.907C40.1772 129.8 39.8719 126.427 39.8745 122.894C39.8759 121.707 39.9105 120.507 39.9785 119.294C39.9825 119.281 39.9865 119.28 39.9905 119.28C39.7292 124.134 39.9679 128.747 40.8532 132.907Z" fill="#F57721"/>
<path d="M186.367 191.254C147.717 191.254 103.573 185.561 70.5372 168.401C56.6959 161.227 45.2532 148.294 41.4612 135.294C41.2292 134.494 41.0266 133.707 40.8533 132.907C39.9679 128.747 39.7293 124.134 39.9906 119.28C39.9906 119.28 39.9906 119.281 39.9906 119.267C40.0679 117.841 40.1892 116.401 40.3492 114.934C40.3786 114.681 40.4092 114.414 40.4426 114.147C40.5719 114.92 40.7066 115.654 40.8533 116.387C43.8679 130.161 55.8519 144.241 70.5372 151.867C103.573 169.014 147.717 174.721 186.367 174.721C193.567 174.721 200.668 174.521 207.677 174.094C225.639 177.947 245.481 180.294 267.387 180.667C267.163 180.734 266.941 180.801 266.719 180.854C241.857 187.934 215.984 191.08 188.693 191.24C188.691 191.24 188.692 191.24 188.689 191.24C188.471 191.24 188.253 191.24 188.033 191.24C188.029 191.24 188.024 191.24 188.02 191.24C187.917 191.24 187.812 191.24 187.709 191.24C187.703 191.24 187.699 191.24 187.692 191.24C187.591 191.24 187.489 191.254 187.389 191.254C187.371 191.254 187.353 191.254 187.335 191.254C187.237 191.254 187.14 191.254 187.043 191.254C187.039 191.254 187.033 191.254 187.028 191.254C186.931 191.254 186.831 191.254 186.733 191.254C186.709 191.254 186.687 191.254 186.661 191.254C186.563 191.254 186.465 191.254 186.367 191.254Z" fill="#EE7B35"/>
<path d="M41.9958 105.134C44.2478 94.8805 48.0292 84.7338 52.0425 76.9071C48.0332 84.7338 44.2505 94.8805 41.9958 105.134Z" fill="#301007"/>
<path d="M52.0425 76.9072C53.0145 74.9872 54.1692 73.0806 55.4798 71.1606C54.1718 73.0806 53.0185 75.0006 52.0425 76.9072Z" fill="#301007"/>
<path d="M186.367 174.721C147.717 174.721 103.573 169.014 70.5373 151.867C55.852 144.241 43.868 130.161 40.8533 116.387C40.7066 115.654 40.572 114.921 40.4426 114.147C40.8026 111.201 41.3226 108.227 41.972 105.254C41.9786 105.214 41.9853 105.187 41.9919 105.161C41.9933 105.147 41.9946 105.147 41.9959 105.134C44.2506 94.8807 48.0333 84.734 52.0426 76.9073C53.0186 75.0006 54.172 73.0807 55.48 71.1607C56.4466 69.7473 57.4986 68.334 58.6226 66.9207C77.804 101.694 120.653 155.454 207.677 174.094C200.668 174.521 193.567 174.721 186.367 174.721Z" fill="#E7944C"/>
<path d="M83.5973 68.5737C85.2093 66.3871 87.2066 64.9471 88.7666 64.7071C88.6519 64.5737 88.552 64.4404 88.4173 64.3071C86.9306 63.2404 83.9333 64.8404 81.6946 67.8804C79.4533 70.947 78.8413 74.2804 80.3133 75.3737C80.7266 75.6671 81.2626 75.7471 81.8573 75.6671C80.8826 74.3071 81.5706 71.3204 83.5973 68.5737Z" fill="#FBC064"/>
<path d="M121.901 71.6405C123.519 69.4272 125.511 68.0139 127.087 67.7739C126.985 67.6272 126.879 67.494 126.735 67.3873C125.261 66.3206 122.247 67.8939 120.021 70.9739C117.784 74.0139 117.172 77.3606 118.631 78.454C119.06 78.734 119.573 78.814 120.188 78.7206C119.196 77.374 119.879 74.3739 121.901 71.6405Z" fill="#FBC064"/>
<path d="M113.116 49.4005C112.152 48.0938 112.832 45.0805 114.855 42.3205C116.475 40.1339 118.483 38.6938 120.041 38.4671C119.921 38.3471 119.808 38.1872 119.68 38.0938C118.212 37.0138 115.201 38.6005 112.96 41.6671C110.729 44.6938 110.083 48.0538 111.589 49.1471C111.989 49.4404 112.545 49.5071 113.116 49.4005Z" fill="#FBC064"/>
<path d="M161.784 59.9073C163.396 57.7206 165.4 56.2807 166.959 56.0541C166.859 55.9341 166.745 55.774 166.609 55.6673C165.133 54.6007 162.116 56.1873 159.895 59.2406C157.647 62.2806 157.047 65.6406 158.511 66.7073C158.924 67.0273 159.467 67.0807 160.06 67.0007C159.089 65.654 159.752 62.654 161.784 59.9073Z" fill="#FBC064"/>
<path d="M196.805 80.2941C198.427 78.0674 200.451 76.6541 201.993 76.4274C201.88 76.2941 201.795 76.1473 201.633 76.0407C200.159 74.974 197.151 76.5606 194.923 79.614C192.68 82.6673 192.071 86.0141 193.543 87.0941C193.953 87.4007 194.475 87.4674 195.081 87.3874C194.104 86.0407 194.803 83.0407 196.805 80.2941Z" fill="#FBC064"/>
<path d="M219.999 102.334C221.599 100.134 223.605 98.7072 225.165 98.4806C225.06 98.3472 224.947 98.214 224.821 98.094C223.336 97.014 220.323 98.614 218.081 101.654C215.852 104.721 215.223 108.054 216.715 109.161C217.111 109.454 217.668 109.534 218.276 109.441C217.276 108.081 217.953 105.081 219.999 102.334Z" fill="#FBC064"/>
<path d="M219.999 42.3205C221.599 40.1339 223.605 38.6938 225.165 38.4671C225.06 38.3471 224.947 38.1872 224.821 38.0938C223.336 37.0138 220.323 38.6005 218.081 41.6671C215.852 44.6938 215.223 48.0538 216.715 49.1471C217.111 49.4404 217.668 49.5071 218.276 49.4005C217.276 48.0938 217.953 45.0805 219.999 42.3205Z" fill="#FBC064"/>
<path d="M192.18 36.4672C193.776 34.2672 195.805 32.8538 197.338 32.6138C197.237 32.4672 197.15 32.3473 196.988 32.2273C195.513 31.1473 192.518 32.7473 190.277 35.7873C188.037 38.8406 187.425 42.2005 188.9 43.2805C189.313 43.5872 189.844 43.6539 190.444 43.5606C189.469 42.2139 190.157 39.2272 192.18 36.4672Z" fill="#FBC064"/>
<path d="M264.225 117.04C265.836 114.84 267.855 113.414 269.396 113.214C269.3 113.067 269.199 112.894 269.051 112.8C267.579 111.747 264.573 113.307 262.327 116.36C260.084 119.414 259.471 122.774 260.947 123.854C261.357 124.147 261.893 124.214 262.504 124.12C261.52 122.787 262.203 119.8 264.225 117.04Z" fill="#FBC064"/>
<path d="M290.376 80.2941C291.988 78.0674 293.988 76.6541 295.548 76.4274C295.433 76.2941 295.333 76.1473 295.183 76.0407C293.712 74.974 290.699 76.5606 288.476 79.614C286.235 82.6673 285.624 86.0141 287.079 87.0941C287.508 87.4007 288.045 87.4674 288.639 87.3874C287.648 86.0407 288.352 83.0407 290.376 80.2941Z" fill="#FBC064"/>
<path d="M300.088 108.187C301.68 106.001 303.706 104.561 305.245 104.347C305.158 104.214 305.048 104.054 304.894 103.974C303.42 102.894 300.422 104.467 298.181 107.547C295.933 110.574 295.333 113.907 296.794 115.014C297.206 115.307 297.753 115.374 298.344 115.294C297.373 113.961 298.056 110.947 300.088 108.187Z" fill="#FBC064"/>
<path d="M259.371 66.1207C260.981 63.934 262.996 62.5206 264.548 62.2806C264.444 62.1339 264.339 62.0272 264.191 61.9072C262.72 60.8139 259.721 62.4139 257.483 65.4673C255.243 68.5073 254.631 71.8806 256.103 72.9606C256.515 73.2406 257.052 73.3073 257.645 73.2273C256.659 71.894 257.347 68.894 259.371 66.1207Z" fill="#FBC064"/>
<path d="M280.655 48.2005C282.272 45.9872 284.28 44.5605 285.823 44.3339C285.735 44.2005 285.624 44.0672 285.495 43.9472C284.009 42.8672 281 44.4539 278.761 47.5072C276.537 50.5605 275.907 53.9072 277.375 54.9739C277.787 55.2939 278.345 55.3739 278.933 55.2939C277.948 53.9206 278.628 50.9472 280.655 48.2005Z" fill="#FBC064"/>
<path d="M109.999 117.04C111.615 114.84 113.616 113.414 115.185 113.214C115.071 113.067 114.967 112.894 114.837 112.8C113.357 111.747 110.341 113.307 108.111 116.36C105.853 119.414 105.259 122.774 106.717 123.854C107.147 124.147 107.663 124.214 108.292 124.12C107.292 122.787 107.972 119.8 109.999 117.04Z" fill="#FBC064"/>
<path d="M95.4145 97.147C97.0252 94.947 99.0425 93.5204 100.581 93.2938C100.488 93.1471 100.384 93.0137 100.237 92.9071C98.7665 91.8271 95.7585 93.4537 93.5105 96.4804C91.2732 99.547 90.6598 102.867 92.1332 103.96C92.5465 104.254 93.0985 104.334 93.6718 104.24C92.7118 102.92 93.3878 99.9204 95.4145 97.147Z" fill="#FBC064"/>
<path d="M72.1318 103C73.7691 100.814 75.7571 99.3738 77.3158 99.1604C77.2158 99.0271 77.1024 98.8804 76.9718 98.7737C75.4904 97.6804 72.4931 99.2937 70.2504 102.334C68.0131 105.387 67.4024 108.747 68.8744 109.814C69.2798 110.107 69.8238 110.214 70.4238 110.107C69.4438 108.76 70.1091 105.774 72.1318 103Z" fill="#FBC064"/>
<path d="M136.467 99.4672C138.087 97.2672 140.095 95.8271 141.655 95.6138C141.551 95.4805 141.436 95.3205 141.3 95.2405C139.808 94.1338 136.815 95.7472 134.573 98.7738C132.341 101.841 131.723 105.187 133.183 106.254C133.599 106.574 134.141 106.64 134.739 106.547C133.764 105.2 134.444 102.214 136.467 99.4672Z" fill="#FBC064"/>
<path d="M152.073 111.187C153.685 108.974 155.705 107.547 157.235 107.321C157.147 107.187 157.047 107.054 156.917 106.947C155.425 105.84 152.412 107.467 150.172 110.494C147.933 113.547 147.319 116.894 148.792 117.974C149.207 118.294 149.741 118.374 150.352 118.294C149.361 116.934 150.051 113.947 152.073 111.187Z" fill="#FBC064"/>
<path d="M196.805 128.267C198.427 126.081 200.451 124.627 201.993 124.427C201.88 124.267 201.795 124.121 201.633 124.041C200.159 122.947 197.151 124.548 194.923 127.588C192.68 130.641 192.071 134.001 193.543 135.067C193.953 135.374 194.475 135.467 195.081 135.374C194.104 134.041 194.803 131.041 196.805 128.267Z" fill="#FBC064"/>
<path d="M87.0412 71.8008C89.0519 69.0408 89.7425 66.0541 88.7665 64.7075C87.2065 64.9475 85.2092 66.3875 83.5972 68.5741C81.5705 71.3208 80.8826 74.3075 81.8572 75.6675C83.3959 75.4408 85.4225 74.0141 87.0412 71.8008Z" fill="#F9B14F"/>
<path d="M125.348 74.8673C127.379 72.1207 128.06 69.1473 127.087 67.774C125.511 68.014 123.519 69.4273 121.901 71.6406C119.879 74.374 119.196 77.374 120.188 78.7207C121.729 78.494 123.753 77.0807 125.348 74.8673Z" fill="#F9B14F"/>
<path d="M114.855 42.3204C112.832 45.0804 112.152 48.0937 113.116 49.4004C114.685 49.1871 116.688 47.7871 118.3 45.5604C120.324 42.8138 121.005 39.8271 120.041 38.4671C118.483 38.6937 116.475 40.1338 114.855 42.3204Z" fill="#F9B14F"/>
<path d="M165.237 63.1338C167.261 60.3872 167.933 57.4005 166.959 56.0539C165.4 56.2805 163.396 57.7205 161.784 59.9071C159.752 62.6538 159.089 65.6538 160.06 67.0005C161.595 66.7872 163.627 65.3472 165.237 63.1338Z" fill="#F9B14F"/>
<path d="M200.252 83.5205C202.295 80.7739 202.957 77.7738 201.993 76.4272C200.45 76.6538 198.427 78.0672 196.805 80.2938C194.803 83.0405 194.104 86.0405 195.081 87.3872C196.644 87.1472 198.652 85.7205 200.252 83.5205Z" fill="#F9B14F"/>
<path d="M223.444 105.574C225.447 102.84 226.129 99.8537 225.165 98.4804C223.605 98.7071 221.599 100.134 219.999 102.334C217.953 105.08 217.276 108.08 218.276 109.44C219.805 109.214 221.803 107.787 223.444 105.574Z" fill="#F9B14F"/>
<path d="M223.444 45.5604C225.447 42.8138 226.129 39.8271 225.165 38.4671C223.605 38.6937 221.599 40.1338 219.999 42.3204C217.953 45.0804 217.276 48.0937 218.276 49.4004C219.805 49.1871 221.803 47.7871 223.444 45.5604Z" fill="#F9B14F"/>
<path d="M195.617 39.7206C197.651 36.9339 198.333 33.9738 197.339 32.6138C195.805 32.8538 193.776 34.2672 192.18 36.4672C190.157 39.2272 189.469 42.2139 190.444 43.5605C192.003 43.3339 194.005 41.8939 195.617 39.7206Z" fill="#F9B14F"/>
<path d="M267.672 120.281C269.696 117.534 270.376 114.534 269.396 113.214C267.855 113.414 265.836 114.841 264.225 117.041C262.202 119.801 261.52 122.787 262.504 124.121C264.045 123.907 266.077 122.494 267.672 120.281Z" fill="#F9B14F"/>
<path d="M293.823 83.5205C295.845 80.7739 296.515 77.7738 295.548 76.4272C293.988 76.6538 291.988 78.0672 290.376 80.2938C288.352 83.0405 287.648 86.0405 288.639 87.3872C290.199 87.1472 292.201 85.7205 293.823 83.5205Z" fill="#F9B14F"/>
<path d="M303.524 111.441C305.548 108.694 306.236 105.694 305.245 104.347C303.707 104.561 301.68 106.001 300.088 108.187C298.056 110.947 297.373 113.961 298.344 115.294C299.907 115.067 301.913 113.641 303.524 111.441Z" fill="#F9B14F"/>
<path d="M262.807 69.3737C264.856 66.627 265.539 63.627 264.548 62.2803C262.996 62.5203 260.981 63.9337 259.371 66.1204C257.347 68.8937 256.659 71.8937 257.645 73.2271C259.188 73.0137 261.212 71.587 262.807 69.3737Z" fill="#F9B14F"/>
<path d="M284.097 51.4273C286.131 48.6673 286.802 45.6673 285.822 44.3339C284.28 44.5606 282.272 45.9873 280.655 48.2006C278.628 50.9473 277.948 53.9206 278.933 55.2939C280.483 55.0539 282.488 53.6406 284.097 51.4273Z" fill="#F9B14F"/>
<path d="M113.46 120.281C115.468 117.534 116.149 114.534 115.185 113.214C113.616 113.414 111.614 114.841 109.998 117.041C107.972 119.801 107.292 122.787 108.292 124.121C109.816 123.907 111.838 122.494 113.46 120.281Z" fill="#F9B14F"/>
<path d="M98.8573 100.401C100.884 97.6274 101.565 94.6408 100.581 93.2941C99.0426 93.5208 97.0253 94.9474 95.4146 97.1474C93.3879 99.9207 92.7119 102.921 93.6719 104.241C95.2319 104.027 97.2453 102.601 98.8573 100.401Z" fill="#F9B14F"/>
<path d="M75.5946 106.254C77.628 103.494 78.28 100.507 77.316 99.1603C75.7573 99.3737 73.7693 100.814 72.132 103C70.1093 105.774 69.444 108.76 70.424 110.107C71.96 109.867 73.984 108.454 75.5946 106.254Z" fill="#F9B14F"/>
<path d="M139.912 102.707C141.936 99.9607 142.625 96.9607 141.655 95.614C140.095 95.8274 138.087 97.2674 136.467 99.4674C134.444 102.214 133.764 105.201 134.739 106.547C136.287 106.307 138.319 104.894 139.912 102.707Z" fill="#F9B14F"/>
<path d="M155.54 114.427C157.544 111.667 158.225 108.681 157.235 107.321C155.705 107.547 153.685 108.974 152.073 111.187C150.051 113.947 149.361 116.934 150.352 118.294C151.895 118.041 153.899 116.627 155.54 114.427Z" fill="#F9B14F"/>
<path d="M200.252 131.52C202.295 128.747 202.957 125.774 201.993 124.427C200.45 124.627 198.427 126.08 196.805 128.267C194.803 131.04 194.104 134.04 195.081 135.374C196.644 135.134 198.652 133.72 200.252 131.52Z" fill="#F9B14F"/>
<path d="M291.146 172.467C291.148 172.467 291.148 172.467 291.149 172.467C291.789 172.201 292.429 171.947 293.069 171.681C292.422 171.961 291.798 172.201 291.146 172.467ZM291.833 171.694C297.96 164.707 302.694 156.961 306.305 148.867C322.249 139.587 330.423 126.694 332.835 112.507C333.289 115.427 333.542 118.281 333.545 121.001C333.545 122.094 333.505 123.174 333.42 124.227C331.99 142.441 321.733 159.041 298.701 169.267C296.813 170.121 294.953 170.894 293.069 171.681C292.658 171.681 292.242 171.694 291.833 171.694Z" fill="#F89C39"/>
<path d="M306.305 148.867C318.209 122.321 318.287 91.9738 316.399 71.8805C323.939 83.5205 330.665 98.8805 332.835 112.507C330.423 126.694 322.249 139.587 306.305 148.867Z" fill="#F9B239"/>
<path d="M291.149 172.467C291.38 172.214 291.608 171.947 291.833 171.694C292.242 171.694 292.658 171.681 293.069 171.681C292.429 171.947 291.789 172.201 291.149 172.467Z" fill="#F78D2E"/>
</g>
<path d="M278.5 169C324.063 169 361 132.063 361 86.5C361 40.9365 324.063 4 278.5 4C232.937 4 196 40.9365 196 86.5C196 132.063 232.937 169 278.5 169Z" fill="#F56E4F"/>
<path d="M280 40.001V130.001" stroke="white" stroke-width="9" stroke-linecap="round"/>
<path d="M235 85.001H325" stroke="white" stroke-width="9" stroke-linecap="round"/>
</svg>
