<?xml version="1.0" encoding="UTF-8"?>
<svg id="Layer_1" data-name="Layer 1" xmlns="http://www.w3.org/2000/svg" xmlns:xlink="http://www.w3.org/1999/xlink" viewBox="0 0 60 60">
  <defs>
    <linearGradient id="linear-gradient" x1="30.46" y1="-18" x2="30.46" y2="-78" gradientTransform="translate(0 -18) scale(1 -1)" gradientUnits="userSpaceOnUse">
      <stop offset="0" stop-color="#09c6f9"/>
      <stop offset="1" stop-color="#045de9"/>
    </linearGradient>
    <linearGradient id="linear-gradient-2" x1="3.76" y1="30" x2="57.16" y2="30" gradientUnits="userSpaceOnUse">
      <stop offset="0" stop-color="#addcff"/>
      <stop offset=".5" stop-color="#eaf6ff"/>
      <stop offset="1" stop-color="#eaf6ff"/>
    </linearGradient>
  </defs>
  <path d="m30.46,60c16.57,0,30-13.43,30-30S47.03,0,30.46,0,.46,13.43.46,30s13.43,30,30,30Z" fill="url(#linear-gradient)"/>
  <path d="m30.46,3.3C15.71,3.3,3.76,15.25,3.76,30s11.95,26.7,26.7,26.7,26.7-11.95,26.7-26.7S45.21,3.3,30.46,3.3Zm0,52.4c-14.17,0-25.7-11.53-25.7-25.7S16.29,4.3,30.46,4.3s25.7,11.53,25.7,25.7-11.53,25.7-25.7,25.7Z" fill="url(#linear-gradient-2)"/>
  <g id="_1" data-name="1">
    <path d="m31,15.62c-.87,0-1.58.71-1.58,1.58s.71,1.58,1.58,1.58,1.58-.71,1.58-1.58-.71-1.58-1.58-1.58Zm0-4.74c-3.49,0-6.32,2.83-6.32,6.32,0,2.64,5.27,10.55,6.32,10.54,1.03,0,6.32-7.93,6.32-10.54,0-3.49-2.83-6.32-6.32-6.32Zm0,8.96c-1.46,0-2.63-1.18-2.63-2.63s1.18-2.64,2.63-2.64,2.64,1.18,2.64,2.64-1.18,2.63-2.64,2.63Z" fill="#fff"/>
  </g>
  <g id="_3" data-name="3">
    <path d="m18.45,37.9c.54-.05,1.08-.07,1.64-.07s1.1.02,1.64.07c.17-.89.28-1.76.32-2.53h-3.92c.04.78.15,1.64.32,2.53Zm1.64-6.96c.43,0,.92-.03,1.43-.09-.33-1.43-.77-2.82-1.21-3.85-.08,0-.15-.01-.23-.01s-.15,0-.23.01c-.44,1.03-.87,2.42-1.2,3.84.5.06.99.1,1.43.1Zm2.61.78c.18.95.3,1.86.34,2.65h4.94c-.08-1.35-.51-2.61-1.19-3.69l-.68.24c-1.05.37-2.19.63-3.39.79Zm3.5-1.84c-1.16-1.42-2.81-2.42-4.69-2.76.35,1.02.71,2.3.99,3.59,1.26-.2,2.6-.51,3.7-.83Zm-7.52-2.76c-1.83.33-3.44,1.29-4.6,2.65,1.06.35,2.35.7,3.62.92.28-1.28.64-2.56.99-3.57Zm3.05,4.72c-.54.05-1.08.07-1.64.07s-1.1-.02-1.64-.07c-.17.89-.28,1.76-.32,2.53h3.92c-.04-.78-.15-1.64-.32-2.53Zm-.23,10.78c1.83-.33,3.44-1.29,4.6-2.65-1.06-.35-2.35-.7-3.62-.92-.28,1.28-.64,2.56-.99,3.57Zm-1.41-3.82c-.44,0-.93.04-1.43.1.33,1.42.77,2.81,1.2,3.84.08,0,.15.01.23.01s.15,0,.23-.01c.44-1.03.87-2.42,1.2-3.84-.5-.06-.99-.1-1.43-.1Zm2.61-.78c1.2.16,2.35.43,3.39.79l.68.24c.68-1.08,1.11-2.34,1.19-3.69h-4.94c-.04.79-.16,1.71-.34,2.65Zm-5.22,0c-.18-.95-.3-1.86-.34-2.65h-4.94c.08,1.35.51,2.61,1.19,3.69l.68-.24c1.05-.37,2.19-.63,3.39-.79Zm-3.41,1.96c1.16,1.36,2.77,2.32,4.6,2.65-.35-1.02-.7-2.29-.99-3.57-1.26.23-2.55.57-3.62.92Zm3.41-8.25c-1.2-.16-2.35-.43-3.39-.79l-.68-.24c-.68,1.08-1.11,2.34-1.19,3.69h4.94c.04-.79.16-1.71.34-2.65Z" fill="#fff"/>
  </g>
  <g id="_6" data-name="6">
    <path d="m44.86,35.29c-1.04,1.47-2.67,2.42-4.5,2.42s-3.46-.95-4.5-2.42c-.72.56-1.19,1.43-1.19,2.42v2.07c0,1.71,1.39,3.1,3.1,3.1h5.17c1.71,0,3.1-1.39,3.1-3.1v-2.07c0-.99-.47-1.86-1.19-2.42Zm-4.5,1.39c2.57,0,4.65-2.32,4.65-5.17s-2.08-5.17-4.65-5.17-4.65,2.32-4.65,5.17,2.08,5.17,4.65,5.17Z" fill="#fff"/>
  </g>
</svg>