<svg width="160" height="90" viewBox="0 0 160 90" fill="none" xmlns="http://www.w3.org/2000/svg">
<rect x="0.5" y="0.5" width="159" height="89" fill="white" stroke="white"/>
<path fill-rule="evenodd" clip-rule="evenodd" d="M73.48 62.6903C83.3028 62.6698 93.124 62.6698 102.944 62.6903C103.225 62.6914 103.495 62.8043 103.695 63.0043C103.894 63.2044 104.007 63.4756 104.01 63.7591C104.01 65.3579 103.34 68.4854 99.7508 68.4854H76.6774C73.0885 68.4854 72.4229 65.3579 72.4229 63.7591C72.4241 63.4767 72.5357 63.2062 72.7336 63.0061C72.9314 62.8061 73.1996 62.6926 73.48 62.6903ZM98.2152 36.8464C106.407 43.1979 109.33 40.6924 114.024 38.362C117.621 36.5793 119.027 34.8885 123.394 36.6712V30.1971H98.2239V36.8464H98.2152ZM114.207 28.2479L115.851 22.1155C115.9 21.8989 115.997 21.6962 116.134 21.5219C116.271 21.3477 116.445 21.2063 116.643 21.108L123.377 17.6432C123.726 17.4588 124.133 17.4188 124.511 17.5318C124.889 17.6448 125.208 17.9018 125.401 18.2482C125.593 18.5945 125.644 19.003 125.542 19.3865C125.441 19.7701 125.194 20.0985 124.856 20.302L118.644 23.4821L117.339 28.2479L117.456 27.88H124.634C124.885 27.8845 125.124 27.9871 125.301 28.1662C125.478 28.3452 125.579 28.5866 125.582 28.8392V41.218C125.582 49.2559 121.232 55.4934 113.08 56.1111V67.421H119.409C119.944 67.421 120.371 68.2708 120.371 68.8052C120.371 69.3396 119.936 70.1937 119.409 70.1937H105.593L105.802 69.9704C106.468 69.2216 106.994 68.3579 107.355 67.421H108.999V56.1461C108.564 56.1461 108.129 56.0935 107.694 56.0453C107.576 55.6565 107.421 55.2797 107.233 54.9196C107.439 54.6596 107.622 54.3827 107.781 54.0917C108.186 53.3443 108.433 52.5211 108.508 51.6734C108.583 50.8256 108.483 49.9714 108.216 49.1639C107.778 47.8119 107.065 46.5664 106.124 45.5063C104.131 43.1935 100.621 40.8369 95.914 39.5491V28.8392C95.914 28.5825 96.0152 28.3363 96.1955 28.1547C96.3758 27.9732 96.6204 27.8712 96.8754 27.8712H114.315L114.207 28.2391V28.2479ZM101.561 53.2726H75.2201C74.4125 53.2726 73.638 52.9496 73.0669 52.3745C72.4958 51.7995 72.175 51.0196 72.175 50.2064C72.175 45.8261 80.8101 42.6679 88.0662 42.5978C102.335 42.4532 108.738 53.2682 101.552 53.2682L101.561 53.2726ZM95.4702 46.2028C95.7948 46.2019 96.1123 46.298 96.3826 46.479C96.6528 46.6599 96.8637 46.9175 96.9885 47.2192C97.1133 47.5208 97.1464 47.853 97.0836 48.1736C97.0208 48.4943 96.865 48.7889 96.6358 49.0203C96.4066 49.2517 96.1144 49.4094 95.7961 49.4735C95.4779 49.5376 95.1479 49.5051 94.848 49.3803C94.5481 49.2554 94.2917 49.0437 94.1113 48.7721C93.9309 48.5004 93.8346 48.181 93.8346 47.8542C93.8346 47.417 94.0068 46.9976 94.3134 46.688C94.62 46.3784 95.036 46.204 95.4702 46.2028ZM81.1973 46.3211C81.5222 46.3185 81.8405 46.4131 82.112 46.593C82.3834 46.7728 82.5956 47.0298 82.7217 47.3313C82.8479 47.6328 82.8822 47.9653 82.8204 48.2865C82.7586 48.6077 82.6035 48.9031 82.3746 49.1354C82.1458 49.3677 81.8536 49.5263 81.5351 49.5911C81.2166 49.6558 80.8862 49.6239 80.5858 49.4993C80.2853 49.3747 80.0284 49.1631 79.8476 48.8912C79.6668 48.6194 79.5703 48.2996 79.5703 47.9724C79.5703 47.5352 79.7425 47.1159 80.0491 46.8063C80.3557 46.4967 80.7718 46.3222 81.206 46.3211H81.1973ZM88.2794 44.7485C88.6037 44.7485 88.9208 44.8454 89.1905 45.0268C89.4602 45.2083 89.6704 45.4662 89.7946 45.768C89.9187 46.0697 89.9512 46.4017 89.8879 46.7221C89.8246 47.0424 89.6684 47.3367 89.4391 47.5676C89.2097 47.7986 88.9175 47.9558 88.5993 48.0196C88.2812 48.0833 87.9514 48.0506 87.6518 47.9256C87.3521 47.8006 87.096 47.5889 86.9158 47.3174C86.7355 47.0458 86.6394 46.7265 86.6394 46.3999C86.6394 45.9619 86.8121 45.5419 87.1197 45.2322C87.4273 44.9225 87.8444 44.7485 88.2794 44.7485ZM103.931 57.4777C103.975 57.5519 103.999 57.6365 104.001 57.723C104.001 57.78 104.001 57.8413 104.001 57.9026C104.001 57.9639 104.001 58.0252 104.001 58.0778C103.999 58.1657 103.975 58.2516 103.931 58.3275C103.692 59.3875 102.722 60.7805 99.7465 60.7805H76.6774C73.7019 60.7805 72.7362 59.3919 72.4926 58.3275C72.4485 58.2516 72.4245 58.1657 72.4229 58.0778C72.4229 58.0252 72.4229 57.9639 72.4229 57.9026C72.4187 57.8428 72.4187 57.7828 72.4229 57.723C72.4245 57.6365 72.4485 57.5519 72.4926 57.4777C72.7362 56.4133 73.7063 55.0247 76.6774 55.0247H88.6317L93.0559 59.6065L97.4061 55.0247H99.7508C102.726 55.0247 103.696 56.4133 103.936 57.4777H103.931Z" fill="#AAAAAA"/>
<path fill-rule="evenodd" clip-rule="evenodd" d="M60.8262 18C60.279 17.6247 59.7146 17.2726 59.1346 16.945C58.6281 16.659 58.3 16.1303 58.3 15.5487C58.3 14.6934 58.9934 14 59.8487 14H62.0122H132H134C135.105 14 136 14.8954 136 16V18V72.4375V74.4375C136 75.5421 135.105 76.4375 134 76.4375H132H29H27C25.8954 76.4375 25 75.5421 25 74.4375V72.4375V51.0116V47.9249C25 47.1967 25.5903 46.6064 26.3186 46.6064C26.8299 46.6064 27.2921 46.9036 27.5261 47.3582C27.9665 48.2136 28.4592 49.0377 29 49.8262C33.1253 55.8416 40.0487 59.7875 47.8937 59.7875C60.5376 59.7875 70.7875 49.5376 70.7875 36.8937C70.7875 29.0487 66.8416 22.1253 60.8262 18ZM130 72.4375C131.105 72.4375 132 71.5421 132 70.4375V20C132 18.8954 131.105 18 130 18H71.818C71.2542 18 70.7716 18.2238 70.4076 18.5762L68.5036 18.5601L69.6815 20.1308C69.6337 20.6607 69.7523 21.2119 70.0768 21.6842C73.0485 26.0099 74.7875 31.2485 74.7875 36.8937C74.7875 51.7468 62.7468 63.7875 47.8937 63.7875C42.2482 63.7875 37.0098 62.0485 32.6843 59.0769C32.4015 58.8826 32.0904 58.7621 31.7725 58.7069L29.8106 57.2426L29.726 59.2665C29.2885 59.6426 29 60.1781 29 60.8181V70.4375C29 71.5421 29.8954 72.4375 31 72.4375H130Z" fill="#AAAAAA"/>
<circle cx="47.8937" cy="36.2" r="18.8125" stroke="#AAAAAA" stroke-width="4"/>
<path d="M45.8913 24.0741C46.6846 22.9035 48.4091 22.9035 49.2024 24.0741L57.1465 35.7952C58.0466 37.1232 57.0953 38.9173 55.491 38.9173H39.6028C37.9984 38.9173 37.0471 37.1232 37.9472 35.7952L45.8913 24.0741Z" fill="#AAAAAA"/>
<rect x="43.3844" y="36.6626" width="8.325" height="12.025" rx="2" fill="#AAAAAA"/>
</svg>
