<svg width="56" height="56" viewBox="0 0 56 56" fill="none" xmlns="http://www.w3.org/2000/svg">
<mask id="mask0_2_400" style="mask-type:luminance" maskUnits="userSpaceOnUse" x="0" y="0" width="56" height="56">
<path d="M0 3.8147e-06H56V56H0V3.8147e-06Z" fill="white"/>
</mask>
<g mask="url(#mask0_2_400)">
<path d="M8.64426 48.9942L9.44094 52.2629C9.56038 52.7527 9.9993 53.0976 10.5036 53.0976H45.4961C46.0003 53.0976 46.4393 52.7527 46.5587 52.2629L47.3553 48.9942" stroke="white" stroke-miterlimit="10" stroke-linecap="round" stroke-linejoin="round"/>
<path d="M46.0206 19.0618C48.1206 19.0618 49.8225 20.7648 49.8225 22.8637C49.8225 24.0351 49.2931 25.0818 48.4609 25.7786" stroke="white" stroke-miterlimit="10" stroke-linecap="round" stroke-linejoin="round"/>
<path d="M40.7892 16.8481C41.3055 16.508 41.9246 16.31 42.5884 16.31C44.3986 16.31 45.8653 17.7778 45.8653 19.5869C45.8653 20.7441 45.266 21.7613 44.3593 22.3442" stroke="white" stroke-miterlimit="10" stroke-linecap="round" stroke-linejoin="round"/>
<path d="M35.5732 16.6589L35.8946 15.3683C35.9669 15.0774 36.2622 14.9002 36.5532 14.9734L40.4546 15.9458C40.7455 16.0191 40.9227 16.3133 40.8494 16.6053L40.331 18.6867C40.2872 18.8628 40.1625 18.9963 40.006 19.0597" stroke="white" stroke-miterlimit="10" stroke-linecap="round" stroke-linejoin="round"/>
<path d="M16.9488 11.317L15.435 8.07075C15.2305 7.63325 14.817 7.31825 14.3358 7.27778C13.6883 7.22419 13.09 6.81403 12.8352 6.1534C12.5136 5.31887 12.8898 4.34872 13.6894 3.94731C14.0459 3.76794 14.4331 3.72309 14.7963 3.78872C14.9789 3.46825 15.2611 3.20137 15.6286 3.04387C16.45 2.6895 17.4344 3.02419 17.8664 3.80622C18.2098 4.42637 18.1388 5.14934 17.7647 5.67981C17.4858 6.07356 17.4617 6.59309 17.6652 7.03059L19.1789 10.2779" stroke="white" stroke-miterlimit="10" stroke-linecap="round" stroke-linejoin="round"/>
<path d="M16.543 16.5801C16.6152 16.2214 16.7191 15.8758 16.8536 15.5487C17.2167 14.6617 17.2189 13.6686 16.8142 12.799L16.7902 12.7498C16.4664 12.0553 16.7672 11.2295 17.4617 10.9058L18.5347 10.4059C19.2293 10.0822 20.0539 10.3829 20.3778 11.0764L20.4006 11.1267C20.8064 11.9951 21.5687 12.6328 22.482 12.9248C23.2455 13.1698 23.9848 13.5931 24.6389 14.1706" stroke="white" stroke-miterlimit="10" stroke-linecap="round" stroke-linejoin="round"/>
<path d="M28 14.3686C29.2184 14.3686 30.3122 14.9045 31.057 15.7544C31.3895 16.1328 31.8981 16.3013 32.3859 16.1733C32.7152 16.0869 33.0608 16.0409 33.4173 16.0409C34.8556 16.0409 36.1178 16.7869 36.8408 17.9134C37.0945 18.3083 37.5331 18.538 38.0034 18.5369H38.0111C39.5019 18.5369 40.8045 19.3386 41.5133 20.5352C41.6959 20.8436 41.9945 21.0645 42.3434 21.1499C43.4612 21.4244 44.3975 22.1627 44.9378 23.1481C45.1281 23.4949 45.4508 23.7486 45.8369 23.8361C47.2303 24.1522 48.3514 25.1825 48.7944 26.5224C48.9366 26.9489 49.2844 27.277 49.7197 27.3886C51.3155 27.7988 52.5328 29.1517 52.7395 30.8186" stroke="white" stroke-miterlimit="10" stroke-linecap="round" stroke-linejoin="round"/>
<path d="M19.331 17.6673C20.0724 16.6797 21.2516 16.0409 22.5826 16.0409C22.9392 16.0409 23.2848 16.0869 23.6141 16.1733" stroke="white" stroke-miterlimit="10" stroke-linecap="round" stroke-linejoin="round"/>
<path d="M3.26044 30.8186C3.46727 29.1517 4.68461 27.7988 6.28028 27.3886C6.7157 27.277 7.06352 26.9489 7.20559 26.5223C7.64856 25.1825 8.76966 24.1522 10.1631 23.8361C10.5493 23.7486 10.872 23.4948 11.0622 23.1481C11.1486 22.9906 11.246 22.8386 11.351 22.6942" stroke="white" stroke-miterlimit="10" stroke-linecap="round" stroke-linejoin="round"/>
<path d="M30.6594 20.6479C30.4793 20.3943 30.1537 20.2244 29.7811 20.2244C29.4085 20.2244 29.0831 20.3943 28.9028 20.6479" stroke="white" stroke-miterlimit="10" stroke-linecap="round" stroke-linejoin="round"/>
<path d="M30.9648 26.8754C30.7846 26.6216 30.459 26.4519 30.0865 26.4519C29.7138 26.4519 29.3885 26.6216 29.2082 26.8754" stroke="white" stroke-miterlimit="10" stroke-linecap="round" stroke-linejoin="round"/>
<path d="M42.8206 27.0516C42.6406 26.7979 42.315 26.6281 41.9425 26.6281C41.5698 26.6281 41.2443 26.7979 41.0641 27.0516" stroke="white" stroke-miterlimit="10" stroke-linecap="round" stroke-linejoin="round"/>
<path d="M9.78469 16.9116L7.25157 14.3774C6.91032 14.0372 6.41266 13.8819 5.94782 14.0088C5.3211 14.1794 4.61902 13.9989 4.15297 13.4652C3.56563 12.7903 3.58751 11.7513 4.2011 11.1005C4.47563 10.8095 4.82344 10.6345 5.18657 10.5733C5.24891 10.2091 5.42282 9.86126 5.71376 9.58782C6.36443 8.97423 7.40349 8.95126 8.07844 9.5397C8.61219 10.0045 8.79376 10.7078 8.62204 11.3345C8.49516 11.7994 8.65047 12.297 8.99172 12.6372L11.5238 15.1703" stroke="white" stroke-miterlimit="10" stroke-linecap="round" stroke-linejoin="round"/>
<path d="M22.5181 23.1022C22.5061 22.7336 22.4569 22.3596 22.3716 21.9866" stroke="white" stroke-miterlimit="10" stroke-linecap="round" stroke-linejoin="round"/>
<path d="M13.8939 26.449C13.6566 26.2642 13.4268 26.0608 13.2071 25.8409C11.7818 24.4168 11.0763 22.5903 11.1421 20.9201C11.1802 19.962 10.8424 19.0279 10.1642 18.3498L10.126 18.3115C9.58457 17.769 9.58457 16.8908 10.126 16.3493L10.9627 15.5126C11.504 14.9701 12.3834 14.9701 12.9249 15.5126L12.9631 15.5509C13.6412 16.229 14.5752 16.567 15.5334 16.5287C17.2036 16.462 19.0302 17.1686 20.4552 18.5926C20.5177 18.6561 20.5777 18.7195 20.638 18.784" stroke="white" stroke-miterlimit="10" stroke-linecap="round" stroke-linejoin="round"/>
<path d="M12.1226 27.8484C12.6676 26.9279 13.6704 26.3106 14.8178 26.3106H14.824C15.1857 26.3114 15.5232 26.1351 15.7186 25.8307C16.2751 24.9639 17.2471 24.3895 18.3537 24.3895C18.6281 24.3895 18.8942 24.4251 19.1477 24.4916C19.5229 24.59 19.9145 24.4601 20.1703 24.1686C20.7441 23.515 21.5857 23.1024 22.5237 23.1024C23.4617 23.1024 24.3032 23.515 24.877 24.1686" stroke="white" stroke-miterlimit="10" stroke-linecap="round" stroke-linejoin="round"/>
<path d="M23.4019 27.3366C23.2217 27.083 22.8962 26.9131 22.5237 26.9131C22.1511 26.9131 21.8256 27.083 21.6453 27.3366" stroke="white" stroke-miterlimit="10" stroke-linecap="round" stroke-linejoin="round"/>
<path d="M38.2415 30.8181H2.79866C1.61675 30.8181 0.69122 31.8496 0.835048 33.0228C1.30306 36.8369 2.55847 40.4055 4.43075 43.5659" stroke="white" stroke-miterlimit="10" stroke-linecap="round" stroke-linejoin="round"/>
<path d="M6.4873 46.5652C7.15854 47.4169 7.87855 48.2283 8.64429 48.9942H47.3557C51.5582 44.7908 54.4031 39.231 55.165 33.0228C55.3088 31.8496 54.3833 30.8181 53.2014 30.8181H41.8862" stroke="white" stroke-miterlimit="10" stroke-linecap="round" stroke-linejoin="round"/>
<path d="M1.16907 34.6187H54.831" stroke="white" stroke-miterlimit="10" stroke-linecap="round" stroke-linejoin="round"/>
<path d="M26.1594 18.4749L24.1031 17.8603C23.8154 17.7744 23.6519 17.4716 23.7379 17.1839L24.889 13.3318C24.975 13.0442 25.2778 12.8808 25.5654 12.9667L27.6218 13.5812C27.9094 13.6671 28.0729 13.9699 27.987 14.2577L26.8359 18.1097C26.7499 18.3973 26.4471 18.5608 26.1594 18.4749Z" stroke="white" stroke-miterlimit="10" stroke-linecap="round" stroke-linejoin="round"/>
<path d="M33.8847 24.8286L33.9402 22.6831C33.948 22.3829 34.1976 22.146 34.4977 22.1537L38.5168 22.2578C38.8168 22.2656 39.0538 22.5152 39.046 22.8153L38.9905 24.9608C38.9826 25.2609 38.7332 25.4979 38.433 25.4901L34.414 25.386C34.1139 25.3783 33.877 25.1287 33.8847 24.8286Z" stroke="white" stroke-miterlimit="10" stroke-linecap="round" stroke-linejoin="round"/>
</g>
</svg>
