<svg width="56" height="56" viewBox="0 0 56 56" fill="none" xmlns="http://www.w3.org/2000/svg">
<g clip-path="url(#clip0_8_966)">
<path d="M51.6315 14.5643C53.889 18.527 55.1797 23.1131 55.1797 28C55.1797 43.0106 43.0106 55.1796 28 55.1796C23.1875 55.1796 18.6681 53.9284 14.747 51.7354" stroke="black" stroke-miterlimit="10" stroke-linecap="round" stroke-linejoin="round"/>
<path d="M6.97485 10.7734C11.9602 4.69766 19.5278 0.820312 28 0.820312C32.8869 0.820312 37.473 2.11094 41.4356 4.36844" stroke="black" stroke-miterlimit="10" stroke-linecap="round" stroke-linejoin="round"/>
<path d="M4.76219 13.8972C2.26078 18.0086 0.820312 22.8364 0.820312 28C0.820312 32.8125 2.07156 37.3319 4.26453 41.253" stroke="black" stroke-miterlimit="10" stroke-linecap="round" stroke-linejoin="round"/>
<path d="M5.62518 43.4351C7.49987 46.1465 9.85362 48.5002 12.565 50.3749" stroke="black" stroke-miterlimit="10" stroke-linecap="round" stroke-linejoin="round"/>
<path d="M46.3433 26.2095C46.4002 26.799 46.4297 27.3962 46.4297 27.9999C46.4297 30.5888 45.896 33.0542 44.9313 35.2898" stroke="black" stroke-miterlimit="10" stroke-linecap="round" stroke-linejoin="round"/>
<path d="M19.2347 44.2159C21.8411 45.628 24.827 46.4297 28 46.4297C28.5414 46.4297 29.0773 46.4067 29.6067 46.3597H29.6078" stroke="black" stroke-miterlimit="10" stroke-linecap="round" stroke-linejoin="round"/>
<path d="M9.64031 26.3933C9.59328 26.9227 9.57031 27.4586 9.57031 28C9.57031 31.173 10.372 34.1589 11.7841 36.7653" stroke="black" stroke-miterlimit="10" stroke-linecap="round" stroke-linejoin="round"/>
<path d="M18.0009 26.3868C16.718 20.8174 17.8653 13.6315 21.933 8.17692C22.3584 7.60599 23.0398 7.27786 23.7508 7.29973C26.0728 7.37192 28.0919 8.05333 30.158 9.38442" stroke="black" stroke-miterlimit="10" stroke-linecap="round" stroke-linejoin="round"/>
<path d="M25.5927 13.4597C25.8858 13.1437 26.1866 12.8308 26.4961 12.5213C36.0981 2.91928 48.3733 2.86131 50.7566 5.2435C53.1387 7.62678 53.0808 19.9019 43.4787 29.504C42.9614 30.0213 42.4353 30.5146 41.9016 30.9838" stroke="black" stroke-miterlimit="10" stroke-linecap="round" stroke-linejoin="round"/>
<path d="M23.1525 16.4084C18.2941 22.9983 16.5561 30.2827 16.088 35.4747C16.0355 36.062 15.5291 36.4995 14.9406 36.4744C10.3939 36.2808 6.06376 38.8664 4.15736 41.3919C3.72423 41.9661 3.95829 42.7952 4.6222 43.0708C5.89095 43.5947 8.11345 44.2564 10.8139 43.9709C11.5139 43.8966 12.1035 44.4861 12.0291 45.1861C11.7436 47.8866 12.4053 50.1091 12.9292 51.3778C13.2038 52.0417 14.0339 52.2758 14.6081 51.8427C17.1336 49.9363 19.7192 45.605 19.5256 41.0594C19.5005 40.4709 19.938 39.9645 20.5253 39.912C22.1211 39.7688 23.9138 39.5041 25.8245 39.0666" stroke="black" stroke-miterlimit="10" stroke-linecap="round" stroke-linejoin="round"/>
<path d="M49.8215 20.2835C38.0337 22.3155 34.474 12.9093 35.446 6.29932" stroke="black" stroke-miterlimit="10" stroke-linecap="round" stroke-linejoin="round"/>
<path d="M41.3308 10.2216L42.5438 11.4345" stroke="black" stroke-miterlimit="10" stroke-linecap="round" stroke-linejoin="round"/>
<path d="M37.5703 48.2497C42.0908 47.3605 45.5 43.3749 45.5 38.593C45.5 33.1571 41.0933 28.7493 35.6562 28.7493C30.2192 28.7493 25.8125 33.1571 25.8125 38.593C25.8125 43.3749 29.2217 47.3605 33.7422 48.2497" stroke="black" stroke-miterlimit="10" stroke-linecap="round" stroke-linejoin="round"/>
<path d="M35.6562 45.1559C39.2806 45.1559 42.2188 42.2178 42.2188 38.5934C42.2188 34.969 39.2806 32.0309 35.6562 32.0309C32.0319 32.0309 29.0938 34.969 29.0938 38.5934C29.0938 42.2178 32.0319 45.1559 35.6562 45.1559Z" stroke="black" stroke-miterlimit="10" stroke-linecap="round" stroke-linejoin="round"/>
<path d="M35.6562 44.8824V32.3043" stroke="black" stroke-miterlimit="10" stroke-linecap="round" stroke-linejoin="round"/>
<path d="M35.6562 45.1559C39.2806 45.1559 42.2188 42.2178 42.2188 38.5934C42.2188 34.969 39.2806 32.0309 35.6562 32.0309C32.0319 32.0309 29.0938 34.969 29.0938 38.5934C29.0938 42.2178 32.0319 45.1559 35.6562 45.1559Z" stroke="black" stroke-miterlimit="10" stroke-linecap="round" stroke-linejoin="round"/>
<path d="M30.2098 41.7379L41.1027 35.4489" stroke="black" stroke-miterlimit="10" stroke-linecap="round" stroke-linejoin="round"/>
<path d="M41.1027 41.7379L30.2098 35.4489" stroke="black" stroke-miterlimit="10" stroke-linecap="round" stroke-linejoin="round"/>
<path d="M16.9335 30.1755C11.7163 29.9294 7.56329 25.6222 7.56329 20.3438C7.56329 14.9067 11.97 10.5 17.407 10.5C18.3805 10.5 19.32 10.6411 20.2081 10.9047" stroke="black" stroke-miterlimit="10" stroke-linecap="round" stroke-linejoin="round"/>
<path d="M18.8694 13.9453C18.3991 13.8381 17.9102 13.7812 17.407 13.7812C13.7824 13.7812 10.8445 16.7191 10.8445 20.3438C10.8445 23.9684 13.7824 26.9062 17.407 26.9062C17.5503 26.9062 17.6936 26.9019 17.8347 26.892" stroke="black" stroke-miterlimit="10" stroke-linecap="round" stroke-linejoin="round"/>
<path d="M17.5514 20.3438H17.407H11.118" stroke="black" stroke-miterlimit="10" stroke-linecap="round" stroke-linejoin="round"/>
<path d="M18.8694 13.9453C18.3991 13.8381 17.9102 13.7812 17.407 13.7812C13.7824 13.7812 10.8445 16.7191 10.8445 20.3438C10.8445 23.9684 13.7824 26.9062 17.407 26.9062C17.5503 26.9062 17.6936 26.9019 17.8347 26.892" stroke="black" stroke-miterlimit="10" stroke-linecap="round" stroke-linejoin="round"/>
<path d="M17.5711 20.0593L17.407 20.3437L14.2625 25.7906" stroke="black" stroke-miterlimit="10" stroke-linecap="round" stroke-linejoin="round"/>
<path d="M17.5372 20.569L17.407 20.3437L14.2625 14.8969" stroke="black" stroke-miterlimit="10" stroke-linecap="round" stroke-linejoin="round"/>
</g>
<defs>
<clipPath id="clip0_8_966">
<rect width="56" height="56" fill="white"/>
</clipPath>
</defs>
</svg>
