<svg width="56" height="56" viewBox="0 0 56 56" fill="none" xmlns="http://www.w3.org/2000/svg">
<mask id="mask0_8_964" style="mask-type:luminance" maskUnits="userSpaceOnUse" x="0" y="0" width="56" height="56">
<path d="M0 3.8147e-06H56V56H0V3.8147e-06Z" fill="white"/>
</mask>
<g mask="url(#mask0_8_964)">
<path d="M26.4948 17.1018C26.4173 16.0197 25.6018 12.6928 29.747 11.3101C33.8892 9.92418 33.0863 5.22696 33.0863 5.22696" stroke="black" stroke-miterlimit="10" stroke-linecap="round" stroke-linejoin="round"/>
<path d="M31.688 17.1018C31.6383 16.4445 31.1455 14.423 33.6629 13.5827C36.1804 12.7394 35.6905 9.88689 35.6905 9.88689" stroke="black" stroke-miterlimit="10" stroke-linecap="round" stroke-linejoin="round"/>
<path d="M20.3404 17.1018C20.2908 16.4445 19.7979 14.423 22.3154 13.5827C24.8329 12.7394 24.3431 9.88689 24.3431 9.88689" stroke="black" stroke-miterlimit="10" stroke-linecap="round" stroke-linejoin="round"/>
<path d="M5.15156 46.7549V48.764C5.15156 49.8708 6.0538 50.7731 7.16067 50.7731H48.8393C49.9431 50.7731 50.8484 49.8708 50.8484 48.764V46.7549M26.4762 36.0582C24.3182 37.5835 20.3466 37.5558 18.5764 35.6087C16.8649 33.7235 14.9147 34.3871 13.6653 34.5049C11.8701 34.6755 10.9091 33.2306 11.6594 30.8028C12.081 29.4418 13.2437 28.3256 14.769 27.4264M23.9865 24.5151C24.5323 24.4345 25.0469 24.3694 25.5119 24.3197C30.888 23.7616 31.8616 26.608 30.0169 30.1641C29.4525 31.2525 29.0402 32.1422 28.6651 32.9143M11.5632 31.144C11.4703 31.1315 11.3741 31.1284 11.278 31.1284C10.6424 31.1284 10.0564 31.3454 9.59448 31.7144C8.98056 32.1361 8.54962 32.7996 8.44112 33.5717C8.35122 33.5624 8.25825 33.5561 8.16517 33.5561C6.66455 33.5561 5.44917 34.7715 5.44917 36.2691C5.44917 36.455 5.46787 36.6349 5.50506 36.8086C4.34853 37.1217 3.49902 38.1759 3.49902 39.4285C3.49902 39.8997 3.61998 40.34 3.83086 40.7244M52.1692 40.7244C52.377 40.34 52.4979 39.8997 52.4979 39.4285C52.4979 38.1759 51.6483 37.1217 50.495 36.8086C50.5291 36.6349 50.5477 36.455 50.5477 36.2691C50.5477 34.7715 49.3324 33.5561 47.8348 33.5561C47.7387 33.5561 47.6457 33.5624 47.5558 33.5717C47.4473 32.7996 47.0164 32.1361 46.4055 31.7144C45.9436 31.3454 45.3576 31.1284 44.722 31.1284C44.4585 31.1284 44.2042 31.1656 43.9656 31.2339C43.609 30.2169 42.6664 29.4727 41.5411 29.4169C41.1318 28.4372 40.1645 27.7489 39.0359 27.7489C38.6669 27.7489 38.3166 27.8232 37.9941 27.9567C37.6779 26.8063 36.6268 25.9599 35.3774 25.9599C34.8193 25.9599 34.3015 26.1273 33.8738 26.4157C33.39 25.6654 32.5467 25.1694 31.5887 25.1694C31.1299 25.1694 30.6989 25.284 30.3206 25.4856M30.0943 46.7549H52.163C53.8217 46.7549 55.1797 45.3969 55.1797 43.7411V41.4314C55.1797 41.0437 54.8603 40.7244 54.4728 40.7244H1.5272C1.13652 40.7244 0.820312 41.0437 0.820312 41.4314V43.7411C0.820312 45.3969 2.17514 46.7549 3.83392 46.7549H26.2808M14.9644 27.0264C16.5642 23.898 21.3294 23.5539 23.7385 24.4004C26.3243 25.5135 26.5041 28.3814 22.5076 28.5147C20.4986 28.5829 20.0087 29.7084 19.1592 30.2355C17.3796 31.3424 15.228 30.1517 14.8403 28.8093C14.5304 27.7334 14.6791 27.6031 14.9644 27.0264Z" stroke="black" stroke-miterlimit="10" stroke-linecap="round" stroke-linejoin="round"/>
<path d="M45.2925 29.1038C45.6118 28.8651 45.9529 28.6481 46.3126 28.4589C48.3278 27.3924 50.6129 27.2901 52.7055 27.9814C53.3536 28.1954 53.4187 28.3163 53.2296 28.9737C52.6281 31.0819 51.2701 32.902 49.2765 33.9716" stroke="black" stroke-miterlimit="10" stroke-linecap="round" stroke-linejoin="round"/>
<path d="M44.9081 31.1346C45.2677 29.9968 45.398 28.7845 45.2522 27.5443C44.967 25.0701 43.6462 22.9463 41.7271 21.4859C41.1318 21.0333 40.9861 21.0518 40.5086 21.6285C39.0762 23.3586 38.2825 25.532 38.4096 27.8201" stroke="black" stroke-miterlimit="10" stroke-linecap="round" stroke-linejoin="round"/>
<path d="M33.3342 31.0913C34.1652 30.2603 35.5139 30.2603 36.3448 31.0913" stroke="black" stroke-miterlimit="10" stroke-linecap="round" stroke-linejoin="round"/>
<path d="M43.0944 36.8086C43.9253 35.9776 45.2739 35.9776 46.1048 36.8086" stroke="black" stroke-miterlimit="10" stroke-linecap="round" stroke-linejoin="round"/>
<path d="M31.2105 36.1605L31.2074 36.1575" stroke="black" stroke-miterlimit="10" stroke-linecap="round" stroke-linejoin="round"/>
<path d="M9.72779 37.01L9.72473 37.0069" stroke="black" stroke-miterlimit="10" stroke-linecap="round" stroke-linejoin="round"/>
<path d="M39.7335 33.6212V33.6182" stroke="black" stroke-miterlimit="10" stroke-linecap="round" stroke-linejoin="round"/>
<path d="M36.4564 36.7404L36.4532 36.7373" stroke="black" stroke-miterlimit="10" stroke-linecap="round" stroke-linejoin="round"/>
</g>
</svg>
