<svg xmlns="http://www.w3.org/2000/svg" style="display: none;">

<symbol id="i011_drink-1" xmlns="http://www.w3.org/2000/svg" viewBox="0 0 512 512">
  <path d="m415.82,66H96.18c-8.08,0-12.64,9.28-7.69,15.68l119.22,154.17c11.45,14.81,29.12,23.48,47.83,23.48h.92c18.72,0,36.38-8.67,47.83-23.48l119.22-154.17c4.94-6.39.39-15.68-7.69-15.68Zm-123.17,160.83c-8.6,11.12-22.13,17.76-36.18,17.76h-.92c-14.06,0-27.58-6.64-36.18-17.76L106.38,80.73h299.25l-112.98,146.1Z"></path>
  <rect x="122.1" y="116.04" width="265.38" height="9.24"></rect>
  <rect x="233.19" y="246.39" width="14.73" height="191.76"></rect>
  <rect x="261.59" y="246.87" width="14.73" height="191.76"></rect>
  <path d="m165.11,431.27h179.35c3.27,0,5.93,2.66,5.93,5.93v8.8h-191.21v-8.8c0-3.27,2.66-5.93,5.93-5.93Z"></path>
</symbol><symbol id="i011_drink-2" xmlns="http://www.w3.org/2000/svg" viewBox="0 0 512 512">
  <rect x="232.72" y="262.22" width="15.04" height="195.77"></rect>
  <rect x="261.71" y="262.71" width="15.04" height="195.77"></rect>
  <path d="m163.09,450.96h183.34c3.27,0,5.93,2.66,5.93,5.93v9.1h-195.21v-9.1c0-3.27,2.66-5.93,5.93-5.93Z"></path>
  <g>
    <path d="m323.57,129.15c.23,1.54.36,3.11.36,4.72s-.12,3.18-.36,4.72h66.65v-9.43h-66.65Z"></path>
    <path d="m261.71,133.86c0-1.6.12-3.18.36-4.72H119.3v9.43h142.76c-.23-1.54-.36-3.11-.36-4.72Z"></path>
  </g>
  <path d="m419.16,78.06h-53.87c1.47,3.61,2.28,7.56,2.28,11.69,0,1.13-.06,2.25-.18,3.34h41.37l-115.34,149.15c-8.78,11.35-22.59,18.13-36.94,18.13h-.94c-14.35,0-28.16-6.78-36.94-18.13L103.25,93.1h202.27c-.12-1.1-.18-2.21-.18-3.34,0-4.14.81-8.08,2.28-11.69H92.84c-8.25,0-12.9,9.48-7.86,16.01l121.71,157.39c11.69,15.12,29.72,23.97,48.83,23.97h.94c19.11,0,37.14-8.85,48.83-23.97l121.71-157.39c5.05-6.53.4-16.01-7.86-16.01Z"></path>
  <path d="m293.17,105.83c-17.18,0-31.11,13.93-31.11,31.11s13.93,31.11,31.11,31.11,31.11-13.93,31.11-31.11-13.93-31.11-31.11-31.11Zm0,47.19c-8.86,0-16.07-7.21-16.07-16.07s7.21-16.07,16.07-16.07,16.07,7.21,16.07,16.07-7.21,16.07-16.07,16.07Z"></path>
  <path d="m336.45,58.64c-17.18,0-31.11,13.93-31.11,31.11s13.93,31.11,31.11,31.11,31.11-13.93,31.11-31.11-13.93-31.11-31.11-31.11Zm0,47.19c-8.86,0-16.07-7.21-16.07-16.07s7.21-16.07,16.07-16.07,16.07,7.21,16.07,16.07-7.21,16.07-16.07,16.07Z"></path>
  <rect x="345.15" y="58.35" width="39.04" height="9.93" transform="translate(62.04 276.4) rotate(-45)"></rect>
  <rect x="241.55" y="161.95" width="39.04" height="9.93" transform="translate(-41.56 233.49) rotate(-45)"></rect>
</symbol><symbol id="i011_drink-3" xmlns="http://www.w3.org/2000/svg" viewBox="0 0 512 512">
  <g>
    <path d="m392.52,92.82H78.62c-7.94,0-12.41,9.12-7.56,15.4l117.08,151.4c11.25,14.54,28.59,23.06,46.98,23.06h.9c18.38,0,35.73-8.51,46.98-23.06l117.08-151.4c4.86-6.28.38-15.4-7.56-15.4Zm-120.96,157.95c-8.45,10.92-21.73,17.44-35.53,17.44h-.9c-13.8,0-27.09-6.52-35.53-17.44L88.63,107.29h293.88l-110.95,143.48Z"></path>
    <rect x="104.07" y="141.96" width="260.62" height="9.07"></rect>
    <rect x="213.17" y="269.97" width="14.47" height="188.32"></rect>
    <rect x="241.06" y="270.45" width="14.47" height="188.32"></rect>
    <path d="m146.42,451.53h175.91c3.27,0,5.93,2.66,5.93,5.93v8.53h-187.78v-8.53c0-3.27,2.66-5.93,5.93-5.93Z"></path>
  </g>
  <path d="m390.43,46c-27.13,0-49.45,20.57-52.22,46.96h14.58c2.7-18.36,18.55-32.49,37.64-32.49,20.98,0,38.05,17.07,38.05,38.05s-17.07,38.05-38.05,38.05c-4.33,0-8.49-.74-12.37-2.08l-9.2,11.9c6.58,2.97,13.88,4.64,21.57,4.64,29,0,52.52-23.51,52.52-52.52s-23.51-52.52-52.52-52.52Z"></path>
  <path d="m390.49,67.44c-16.05,0-29.26,12.17-30.9,27.79h8.63c1.6-10.86,10.98-19.23,22.28-19.23,12.42,0,22.52,10.1,22.52,22.52s-10.1,22.52-22.52,22.52c-2.56,0-5.02-.44-7.32-1.23l-5.45,7.04c3.9,1.76,8.21,2.74,12.77,2.74,17.16,0,31.08-13.91,31.08-31.08s-13.91-31.08-31.08-31.08Z"></path>
</symbol><symbol id="i011_drink-4" xmlns="http://www.w3.org/2000/svg" viewBox="0 0 512 512">
  <path d="m325.43,199.6l-17.43-153.6h-103.61l-17.06,151.84c-5.73,50.98,26.46,96.57,68.72,97.32h0c42.29.75,75.18-44.55,69.39-95.56Zm-31.32,64.84c-10.27,11.5-23.42,17.83-37.03,17.83-.27,0-.54,0-.8,0-13.86-.25-27.19-6.87-37.55-18.66-14.32-16.31-21.26-40.35-18.57-64.31l15.77-140.38h80.55l16.13,142.15c2.69,23.7-4.23,47.4-18.5,63.38Z"></path>
  <rect x="239.65" y="291.09" width="12.91" height="168.03"></rect>
  <path d="m188.61,453.09h134.79c3.27,0,5.93,2.66,5.93,5.93v6.97h-146.65v-6.97c0-3.27,2.66-5.93,5.93-5.93Z"></path>
  <rect x="205.15" y="79.52" width="100.54" height="8.53"></rect>
  <rect x="258.57" y="291.09" width="12.91" height="168.03"></rect>
  <path d="m232.56,106.75c-5.84,0-10.57,4.73-10.57,10.57s4.73,10.57,10.57,10.57,10.57-4.73,10.57-10.57-4.73-10.57-10.57-10.57Zm0,16.37c-3.19,0-5.79-2.6-5.79-5.79s2.6-5.79,5.79-5.79,5.79,2.6,5.79,5.79-2.6,5.79-5.79,5.79Z"></path>
  <path d="m279.72,130.55c-5.84,0-10.57,4.73-10.57,10.57s4.73,10.57,10.57,10.57,10.57-4.73,10.57-10.57-4.73-10.57-10.57-10.57Zm0,16.37c-3.19,0-5.79-2.6-5.79-5.79s2.6-5.79,5.79-5.79,5.79,2.6,5.79,5.79-2.6,5.79-5.79,5.79Z"></path>
  <path d="m238.36,176.11c-4.44,0-8.03,3.6-8.03,8.03s3.6,8.03,8.03,8.03,8.03-3.6,8.03-8.03-3.6-8.03-8.03-8.03Zm0,14.15c-3.37,0-6.12-2.74-6.12-6.12s2.74-6.12,6.12-6.12,6.12,2.74,6.12,6.12-2.74,6.12-6.12,6.12Z"></path>
</symbol><symbol id="i011_drink-5" xmlns="http://www.w3.org/2000/svg" viewBox="0 0 512 512">
  <path d="m364.05,197.22l-27.28-147.44h-162.12l-26.7,145.74c-8.96,48.93,41.41,92.69,107.52,93.41h0c66.16.72,117.63-42.76,108.58-91.72Zm-25.55,44.91c-17.36,20.86-47.79,33.32-81.41,33.32-.49,0-.98,0-1.47,0-33.95-.37-64.6-13.19-81.99-34.29-7.58-9.2-15.88-24.15-12.4-43.19l24.67-134.68h139.64l25.23,136.39c3.46,18.73-4.76,33.43-12.28,42.46Z"></path>
  <g>
    <rect x="238.9" y="279.27" width="13.5" height="175.75"></rect>
    <path d="m185.24,448.71h141.53c3.27,0,5.93,2.66,5.93,5.93v7.57h-153.39v-7.57c0-3.27,2.66-5.93,5.93-5.93Z"></path>
    <rect x="258.68" y="279.27" width="13.5" height="175.75"></rect>
  </g>
  <rect x="159.67" y="164.91" width="189.06" height="8.92"></rect>
</symbol><symbol id="i011_drink-6" xmlns="http://www.w3.org/2000/svg" viewBox="0 0 512 512">
  <path d="m346.14,198.22l-22.75-146.94h-135.25l-22.27,145.25c-7.48,48.77,34.54,92.38,89.7,93.1h0c55.2.72,98.14-42.62,90.58-91.41Zm-27.52,51.36c-14.74,17.2-37.23,27.06-61.71,27.06-.39,0-.79,0-1.18,0-24.77-.32-47.45-10.52-62.24-27.98-12.27-14.48-17.52-32.29-14.78-50.15l20.58-134.22h112.95l21.05,135.93c2.73,17.61-2.48,35.15-14.67,49.37Z"></path>
  <g>
    <rect x="238.9" y="277.77" width="13.5" height="175.75"></rect>
    <path d="m185.24,447.22h141.53c3.27,0,5.93,2.66,5.93,5.93v7.57h-153.39v-7.57c0-3.27,2.66-5.93,5.93-5.93Z"></path>
    <rect x="258.68" y="277.77" width="13.5" height="175.75"></rect>
  </g>
  <rect x="172.15" y="166.01" width="167.01" height="8.92"></rect>
</symbol><symbol id="i011_drink-7" xmlns="http://www.w3.org/2000/svg" viewBox="0 0 512 512">
  <path d="m196.71,124.5c-8.55,0-13.17-2.72-16.88-4.9-3.17-1.86-5.46-3.21-10.7-3.21s-7.53,1.35-10.7,3.21c-3.71,2.18-8.33,4.9-16.89,4.9s-13.17-2.72-16.88-4.9c-3.17-1.87-5.47-3.21-10.7-3.21s-7.53,1.35-10.7,3.21c-3.71,2.18-8.33,4.9-16.88,4.9s-13.17-2.72-16.88-4.9c-3.17-1.87-5.47-3.21-10.7-3.21-3.37,0-6.1-2.73-6.1-6.1s2.73-6.1,6.1-6.1c8.56,0,13.17,2.72,16.88,4.9,3.17,1.87,5.47,3.21,10.7,3.21s7.53-1.35,10.7-3.21c3.71-2.18,8.33-4.9,16.88-4.9s13.17,2.72,16.88,4.9c3.17,1.87,5.47,3.21,10.7,3.21s7.53-1.35,10.7-3.21c3.71-2.18,8.33-4.9,16.89-4.9s13.17,2.72,16.88,4.9c3.17,1.86,5.46,3.21,10.7,3.21s7.53-1.35,10.71-3.21c3.71-2.18,8.33-4.9,16.89-4.9,3.37,0,6.1,2.73,6.1,6.1s-2.73,6.1-6.1,6.1c-5.24,0-7.53,1.35-10.71,3.21-3.71,2.18-8.33,4.9-16.89,4.9Z"></path>
  <path d="m150.8,301.2h-18.18c-44.07,0-79.92-35.85-79.92-79.92V54.52c0-3.37,2.73-6.1,6.1-6.1h165.83c3.37,0,6.1,2.73,6.1,6.1v166.75c0,44.07-35.85,79.92-79.92,79.92ZM64.89,60.62v160.65c0,37.34,30.38,67.73,67.73,67.73h18.18c37.34,0,67.73-30.38,67.73-67.73V60.62H64.89Z"></path>
  <path d="m141.71,437.94c-3.37,0-6.1-2.73-6.1-6.1v-135.31c0-3.37,2.73-6.1,6.1-6.1s6.1,2.73,6.1,6.1v135.31c0,3.37-2.73,6.1-6.1,6.1Z"></path>
  <path d="m216.46,466H65.32c-3.37,0-6.1-2.73-6.1-6.1v-1.16c0-17.52,14.25-31.77,31.77-31.77h99.79c17.52,0,31.77,14.25,31.77,31.77v1.16c0,3.37-2.73,6.1-6.1,6.1Zm-144.41-12.2h137.68c-2.2-8.41-9.86-14.63-18.94-14.63h-99.79c-9.09,0-16.75,6.22-18.94,14.63Z"></path>
  <path d="m190.17,243.42c-3.37,0-6.1-2.73-6.1-6.1v-91.7c0-3.37,2.73-6.1,6.1-6.1s6.1,2.73,6.1,6.1v91.7c0,3.37-2.73,6.1-6.1,6.1Z"></path>
  <path d="m420.67,122.08c-8.56,0-13.17-2.72-16.88-4.9-3.17-1.87-5.46-3.21-10.7-3.21s-7.53,1.35-10.7,3.21c-3.71,2.18-8.33,4.9-16.89,4.9s-13.17-2.72-16.88-4.9c-3.17-1.87-5.47-3.21-10.7-3.21s-7.53,1.35-10.7,3.21c-3.71,2.18-8.33,4.9-16.88,4.9s-13.17-2.72-16.88-4.9c-3.17-1.87-5.47-3.21-10.7-3.21-3.37,0-6.1-2.73-6.1-6.1s2.73-6.1,6.1-6.1c8.56,0,13.17,2.72,16.88,4.9,3.17,1.87,5.47,3.21,10.7,3.21s7.53-1.35,10.7-3.21c3.71-2.18,8.33-4.9,16.88-4.9s13.17,2.72,16.88,4.9c3.17,1.87,5.47,3.21,10.7,3.21s7.53-1.35,10.7-3.21c3.71-2.18,8.33-4.9,16.89-4.9s13.17,2.72,16.88,4.9c3.17,1.87,5.46,3.21,10.7,3.21s7.53-1.35,10.71-3.21c3.71-2.18,8.33-4.9,16.89-4.9,3.37,0,6.1,2.73,6.1,6.1s-2.73,6.1-6.1,6.1c-5.24,0-7.53,1.35-10.71,3.21-3.71,2.18-8.33,4.9-16.89,4.9Z"></path>
  <path d="m374.76,298.78h-18.18c-44.07,0-79.92-35.85-79.92-79.92V52.1c0-3.37,2.73-6.1,6.1-6.1h165.83c3.37,0,6.1,2.73,6.1,6.1v166.75c0,44.07-35.85,79.92-79.92,79.92Zm-85.91-240.58v160.65c0,37.34,30.38,67.73,67.73,67.73h18.18c37.34,0,67.73-30.38,67.73-67.73V58.2h-153.63Z"></path>
  <path d="m365.67,435.52c-3.37,0-6.1-2.73-6.1-6.1v-135.31c0-3.37,2.73-6.1,6.1-6.1s6.1,2.73,6.1,6.1v135.31c0,3.37-2.73,6.1-6.1,6.1Z"></path>
  <path d="m440.41,463.24h-151.14c-3.37,0-6.1-2.73-6.1-6.1v-1.16c0-17.52,14.25-31.77,31.77-31.77h99.79c17.52,0,31.77,14.25,31.77,31.77v1.16c0,3.37-2.73,6.1-6.1,6.1Zm-144.4-12.2h137.67c-2.2-8.41-9.86-14.63-18.94-14.63h-99.79c-9.09,0-16.75,6.22-18.94,14.63Z"></path>
  <path d="m414.13,241c-3.37,0-6.1-2.73-6.1-6.1v-91.7c0-3.37,2.73-6.1,6.1-6.1s6.1,2.73,6.1,6.1v91.7c0,3.37-2.73,6.1-6.1,6.1Z"></path>
  <path d="m303.18,410.16c-12.67,0-26.19-5.46-36.78-16.05-9.05-9.06-14.69-20.52-15.87-32.28-1.22-12.22,2.46-23.31,10.38-31.22,16-15.99,44.48-13.52,63.5,5.49,19.02,19.02,21.49,47.51,5.49,63.5-7.09,7.09-16.64,10.55-26.72,10.55Zm-15.52-77.97c-6.94,0-13.38,2.3-18.13,7.05-5.28,5.28-7.71,12.87-6.86,21.38.9,8.97,5.29,17.8,12.36,24.87,14.26,14.27,35.01,16.73,46.25,5.5,11.24-11.24,8.77-31.99-5.49-46.25-8.24-8.24-18.64-12.54-28.12-12.54Z"></path>
  <path d="m312.08,386.64c-1.56,0-3.12-.6-4.31-1.79-2.38-2.38-2.38-6.24,0-8.63,2.02-2.02,2.08-4.82,1.93-6.31-.3-2.99-1.86-6.09-4.27-8.51-2.38-2.38-2.38-6.24,0-8.62,2.38-2.38,6.24-2.38,8.62,0,4.44,4.44,7.2,10.09,7.79,15.91.62,6.19-1.36,12.08-5.44,16.16-1.19,1.19-2.75,1.78-4.31,1.78Z"></path>
  <path d="m210.16,415.72c-10.98,0-22.68-4.71-31.84-13.87-16.49-16.49-18.58-41.24-4.66-55.16,13.92-13.92,38.67-11.83,55.16,4.66,7.83,7.83,12.7,17.75,13.72,27.94,1.07,10.64-2.15,20.31-9.07,27.22-6.19,6.19-14.52,9.22-23.32,9.22Zm-13.16-66.12c-5.64,0-10.87,1.86-14.72,5.71-9.16,9.17-7.08,26.17,4.66,37.91,11.74,11.74,28.75,13.82,37.91,4.66,4.27-4.27,6.25-10.45,5.55-17.38-.74-7.39-4.37-14.68-10.21-20.53-6.81-6.81-15.39-10.37-23.19-10.37Z"></path>
  <path d="m217.7,395.78c-1.56,0-3.12-.6-4.31-1.79-2.38-2.38-2.38-6.24,0-8.63,1.45-1.44,1.48-3.51,1.37-4.61-.23-2.32-1.46-4.75-3.36-6.64-2.38-2.38-2.38-6.24,0-8.63,2.38-2.38,6.24-2.38,8.63,0,3.91,3.91,6.35,8.91,6.87,14.06.55,5.53-1.23,10.8-4.88,14.45-1.19,1.19-2.75,1.78-4.31,1.78Z"></path>
  <path d="m426.73,412.98c-10.98,0-22.68-4.72-31.84-13.88-16.49-16.49-18.58-41.23-4.66-55.16,13.92-13.92,38.66-11.83,55.16,4.66,7.83,7.83,12.7,17.75,13.72,27.94,1.07,10.64-2.15,20.31-9.07,27.22-6.19,6.19-14.52,9.22-23.31,9.22Zm-13.16-66.12c-5.64,0-10.87,1.86-14.72,5.71-9.17,9.17-7.08,26.17,4.66,37.91,11.74,11.73,28.74,13.83,37.91,4.66,4.27-4.27,6.25-10.45,5.55-17.38-.74-7.39-4.37-14.68-10.21-20.53-6.81-6.81-15.39-10.37-23.19-10.37Z"></path>
  <path d="m434.26,393.04c-1.56,0-3.12-.6-4.31-1.79-2.38-2.38-2.38-6.24,0-8.62,2.51-2.51,1.6-7.67-1.99-11.26-2.38-2.38-2.38-6.24,0-8.62,2.38-2.38,6.24-2.38,8.62,0,8.41,8.41,9.3,21.2,1.99,28.51-1.19,1.19-2.75,1.79-4.31,1.79Z"></path>
</symbol><symbol id="i011_drink-8" xmlns="http://www.w3.org/2000/svg" viewBox="0 0 512 512">
  <g id="martini">
    <path id="martini-2" data-name="martini" d="m411.17,118.92c2.16-2.14,2.81-5.37,1.65-8.18-1.16-2.81-3.9-4.65-6.93-4.65h-211.86l-33.84-56.45c-2.13-3.55-6.74-4.7-10.29-2.58-3.55,2.13-4.7,6.74-2.58,10.29l29.21,48.74h-70.45c-3.03,0-5.75,1.82-6.92,4.61s-.53,6.01,1.6,8.16l146.4,147.66v184.48h-66.08c-4.14,0-7.5,3.36-7.5,7.5s3.36,7.5,7.5,7.5h149.97c4.14,0,7.5-3.36,7.5-7.5s-3.35-7.5-7.5-7.5h-68.89v-184.43l148.99-147.65Zm-23.5,2.17l-116.23,115.19-22.23-38c4.06-4.54,6.73-10.53,7.41-17.41.89-9.05-1.49-18.82-6.69-27.49-9.48-15.81-26.05-23.82-39.86-20.54l-7.04-11.75h184.65Zm-177,27.36c1.73-1.04,3.71-1.53,5.81-1.53,7,0,15.35,5.44,20.58,14.16,3.51,5.85,5.19,12.53,4.63,18.32-.29,2.92-1.44,8.22-5.92,10.91-4.49,2.69-9.7,1.2-12.41.08-5.37-2.23-10.46-6.86-13.97-12.72-6.8-11.34-6.21-24.73,1.3-29.22Zm-25.14-27.36l11.66,19.46c-9.41,10.63-10.16,29.03-.68,44.83,5.2,8.68,12.69,15.38,21.09,18.86,4.12,1.71,8.31,2.56,12.36,2.56,2.19,0,4.33-.28,6.39-.78l24.08,41.16-5.72,5.66L124.1,121.09h61.44Z"></path>
  </g>
</symbol><symbol id="i011_drink-9" xmlns="http://www.w3.org/2000/svg" viewBox="0 0 512 512">
  <path d="m310.59,462.89H110.81c-2.79,0-5.22-1.89-5.91-4.59-.69-2.7.54-5.52,2.99-6.86l99.89-54.47c1.82-.99,4.02-.99,5.83,0l99.89,54.47c2.45,1.34,3.68,4.16,2.99,6.86-.69,2.7-3.12,4.59-5.91,4.59Zm-175.87-12.19h151.96l-75.98-41.43-75.98,41.43Z"></path>
  <path d="m211.2,408.63c-3.37,0-6.1-2.73-6.1-6.1v-95.12c0-3.37,2.73-6.1,6.1-6.1s6.1,2.73,6.1,6.1v95.12c0,3.37-2.73,6.1-6.1,6.1Z"></path>
  <path d="m375.57,145.12c-3.37,0-6.1-2.73-6.1-6.1V55.68c0-3.37,2.73-6.1,6.1-6.1s6.1,2.73,6.1,6.1v83.34c0,3.37-2.73,6.1-6.1,6.1Z"></path>
  <path d="m434.5,204.06c-1.56,0-3.12-.6-4.31-1.79l-117.86-117.87c-2.38-2.38-2.38-6.24,0-8.62,2.38-2.38,6.24-2.38,8.62,0l117.86,117.87c2.38,2.38,2.38,6.24,0,8.62-1.19,1.19-2.75,1.79-4.31,1.79Z"></path>
  <path d="m458.91,145.12h-89.61c-3.37,0-6.1-2.73-6.1-6.1s2.73-6.1,6.1-6.1h89.61c3.37,0,6.1,2.73,6.1,6.1s-2.73,6.1-6.1,6.1Z"></path>
  <path d="m370.39,149.37c-1.58,0-3.15-.61-4.34-1.82-2.36-2.4-2.33-6.26.06-8.62l64.11-63.18c2.4-2.36,6.26-2.33,8.62.06,2.36,2.4,2.33,6.26-.06,8.62l-64.11,63.18c-1.19,1.17-2.73,1.75-4.28,1.75Z"></path>
  <path d="m370.39,143.27l.27-.65h-1.36v3.48c.37-.94.71-1.9,1.09-2.83Z"></path>
  <path d="m375.57,229.98c-7.75,0-15.69-1.08-23.58-3.22-1.6-.44-2.96-1.5-3.75-2.95-.8-1.45-.97-3.17-.48-4.75,5.97-19.14,15.44-52.03,15.44-58.81v-14.15c0-.59.09-1.18.25-1.74-.17-.55-.25-1.14-.25-1.74v-6.14h-71.46c-1.73,0-3.38-.73-4.54-2.02-1.16-1.29-1.71-3.01-1.52-4.73,4.99-45.96,43.63-80.63,89.88-80.63,49.87,0,90.43,40.57,90.43,90.44s-40.57,90.44-90.43,90.44Zm-14.23-13.57c4.79.91,9.55,1.37,14.23,1.37,43.14,0,78.24-35.1,78.24-78.24s-35.1-78.24-78.24-78.24c-37.72,0-69.58,26.64-76.73,62.99h70.46c3.37,0,6.1,2.73,6.1,6.1v8.41c.11.14.22.29.32.44,1.13,1.69,1.35,3.83.58,5.71l-.27.65c-.18.45-.36.92-.54,1.4l-.09.24v13.02c0,8.97-9.49,41.18-14.06,56.16Z"></path>
  <path d="m209.93,311.37c-65.01,0-119.58-47.42-128.99-111.13-19.7-2.65-34.94-19.57-34.94-39.99v-29.86c0-3.37,2.73-6.1,6.1-6.1h317.2c3.37,0,6.1,2.73,6.1,6.1v29.86c0,11.54-4.99,22.56-13.69,30.24-6.42,5.66-14.4,9.12-22.81,9.93-9.49,63.62-64.02,110.95-128.96,110.95ZM58.19,136.49v23.77c0,15.52,12.63,28.15,28.15,28.15,3.11,0,5.72,2.35,6.06,5.44,6.51,60.05,57.03,105.33,117.52,105.33s111-45.28,117.52-105.33c.34-3.09,2.95-5.44,6.06-5.44h1.54c6.83,0,13.43-2.51,18.59-7.06,6.08-5.36,9.56-13.05,9.56-21.09v-23.77H58.19Z"></path>
  <path d="m302.85,233.15c-.98,0-1.96-.23-2.88-.73-2.97-1.59-4.08-5.29-2.49-8.26,7.96-14.82,12.83-31.09,14.48-48.38.3-3.13,2.93-5.52,6.07-5.52h1.35c5.64,0,11.12-2.39,15.45-6.72,2.38-2.39,6.24-2.38,8.62,0,2.39,2.38,2.39,6.24,0,8.62-5.6,5.61-12.57,9.09-19.96,10.04-2.23,16.96-7.37,32.99-15.29,47.73-1.1,2.05-3.2,3.21-5.37,3.21Z"></path>
  <path d="m210.08,292.33c-3.37,0-6.1-2.73-6.1-6.1s2.73-6.1,6.1-6.1c30.3,0,58.9-15.23,78.45-41.79,2-2.71,5.81-3.29,8.53-1.29,2.71,2,3.29,5.81,1.29,8.53-21.87,29.71-54.04,46.75-88.27,46.75Z"></path>
  <path d="m144.35,211.84c-14.57,0-26.42-11.85-26.42-26.42s11.85-26.42,26.42-26.42,26.42,11.85,26.42,26.42-11.85,26.42-26.42,26.42Zm0-40.64c-7.84,0-14.23,6.38-14.23,14.23s6.38,14.23,14.23,14.23,14.23-6.38,14.23-14.23-6.38-14.23-14.23-14.23Z"></path>
</symbol><symbol id="i011_drink-10" xmlns="http://www.w3.org/2000/svg" viewBox="0 0 512 512">
  <path d="m185.19,208.84c-6.31,0-9.74-3.08-12.02-5.12-1.78-1.59-2.26-1.97-3.79-1.97s-2.01.38-3.78,1.97c-2.28,2.04-5.71,5.12-12.02,5.12s-9.74-3.08-12.01-5.12c-1.77-1.59-2.25-1.97-3.77-1.97s-2.01.38-3.78,1.97c-2.27,2.04-5.7,5.12-12.01,5.12s-9.74-3.08-12.02-5.12c-1.77-1.59-2.25-1.97-3.77-1.97s-2,.38-3.77,1.97c-2.27,2.04-5.7,5.12-12.01,5.12s-9.74-3.08-12.01-5.12c-1.77-1.59-2.25-1.97-3.77-1.97-3.4,0-6.17-2.76-6.17-6.17s2.76-6.17,6.17-6.17c6.31,0,9.74,3.08,12.01,5.12,1.77,1.59,2.25,1.97,3.77,1.97s2-.38,3.77-1.97c2.27-2.04,5.7-5.12,12.01-5.12s9.74,3.08,12.01,5.12c1.77,1.59,2.25,1.97,3.78,1.97s2-.38,3.77-1.97c2.27-2.04,5.7-5.12,12.02-5.12s9.74,3.08,12.01,5.12c1.77,1.59,2.24,1.96,3.77,1.96s2.01-.38,3.79-1.97c2.27-2.04,5.7-5.12,12.01-5.12s9.75,3.08,12.02,5.12c1.77,1.59,2.25,1.97,3.79,1.97s2.01-.38,3.79-1.97c2.27-2.04,5.71-5.12,12.02-5.12,3.4,0,6.17,2.76,6.17,6.17s-2.76,6.17-6.17,6.17c-1.53,0-2.01.38-3.79,1.97-2.27,2.04-5.71,5.12-12.02,5.12Z"></path>
  <path d="m217.5,118.54c-3.4,0-6.17-2.76-6.17-6.17v-59.86c0-3.41,2.76-6.17,6.17-6.17s6.17,2.76,6.17,6.17v59.86c0,3.41-2.76,6.17-6.17,6.17Z"></path>
  <path d="m259.83,160.87c-1.58,0-3.16-.6-4.36-1.81l-84.66-84.66c-2.41-2.41-2.41-6.31,0-8.72,2.41-2.41,6.31-2.41,8.72,0l84.66,84.66c2.41,2.41,2.41,6.31,0,8.72-1.2,1.2-2.78,1.81-4.36,1.81Z"></path>
  <path d="m277.36,118.54h-119.72c-3.4,0-6.17-2.76-6.17-6.17s2.76-6.17,6.17-6.17h119.72c3.4,0,6.17,2.76,6.17,6.17s-2.76,6.17-6.17,6.17Z"></path>
  <path d="m213.78,121.59c-1.59,0-3.18-.61-4.39-1.84-2.39-2.43-2.36-6.33.06-8.72l46.05-45.38c2.43-2.39,6.33-2.36,8.72.06,2.39,2.43,2.36,6.33-.06,8.72l-46.05,45.38c-1.2,1.18-2.77,1.77-4.33,1.77Z"></path>
  <path d="m150.98,332.69c-3.02,0-5.66-2.22-6.1-5.29-.48-3.37,1.86-6.5,5.23-6.98,14.08-2.01,24.42-7.55,30.73-16.46,9.72-13.72,8.56-32.74,5.87-46.27-.66-3.34,1.51-6.59,4.85-7.25,3.31-.67,6.58,1.5,7.25,4.85,3.16,15.91,4.35,38.5-7.91,55.81-8.35,11.78-21.49,19.03-39.05,21.54-.29.04-.59.06-.88.06Z"></path>
  <rect x="130.88" y="350.31" width="12.33" height="84.87"></rect>
  <path d="m210.4,461.21H64.64v-6.17c0-14.36,11.68-26.03,26.03-26.03h93.69c14.36,0,26.03,11.68,26.03,26.03v6.17Zm-131.96-12.33h118.15c-2.26-4.47-6.89-7.54-12.23-7.54h-93.69c-5.34,0-9.97,3.07-12.23,7.54Z"></path>
  <path d="m217.5,179.49c-5.72,0-11.58-.8-17.4-2.37-2.77-.75-4.66-3.31-4.55-6.18.64-17.06,3.82-33.78,9.47-49.81h-47.98c-3.32,0-6.04-2.62-6.16-5.93l-.04-.69c-.04-.58-.08-1.16-.08-1.75,0-36.8,29.94-66.75,66.75-66.75s66.74,29.94,66.74,66.75-29.94,66.75-66.74,66.75Zm-9.36-13.19c3.15.57,6.29.86,9.36.86,30,0,54.41-24.41,54.41-54.41s-24.41-54.41-54.41-54.41-52.24,22.3-54.27,50.46h50.75c2.06,0,3.98,1.03,5.13,2.74,1.14,1.71,1.36,3.88.57,5.79l-.19.47c-6.36,15.51-10.17,31.81-11.33,48.52Z"></path>
  <path d="m137.52,353.93c-30.87,0-57.36-11.27-72.67-30.92-12.48-16.01-16.46-36.33-11.19-57.2,2.49-11.74,6.42-32.7,11.03-58.8,5.17-29.27,1.93-59.32-9.4-86.88l-1.16-2.82c-.78-1.9-.56-4.07.58-5.78,1.15-1.71,3.07-2.73,5.12-2.73h154.14c2.06,0,3.98,1.03,5.13,2.74,1.14,1.71,1.36,3.88.57,5.79l-.19.47c-7.01,17.08-10.91,35.13-11.61,53.61-.41,11.01.34,22.08,2.24,32.92l1.5,8.6c3.22,18.5,6.55,37.62,9.81,53,5.22,20.84,1.23,41.11-11.23,57.09-15.31,19.65-41.8,30.92-72.67,30.92ZM68.92,121.13c10.4,28.15,13.14,58.45,7.92,88.02-3.28,18.56-7.87,43.93-11.16,59.44-4.43,17.58-1.33,33.7,8.91,46.83,12.96,16.63,35.9,26.17,62.95,26.17s49.98-9.54,62.94-26.17c10.24-13.14,13.34-29.25,8.96-46.61-.02-.08-.04-.15-.06-.23-3.31-15.62-6.67-34.91-9.92-53.56l-1.5-8.59c-2.04-11.69-2.85-23.64-2.41-35.51.64-17.06,3.82-33.78,9.47-49.81H68.92Z"></path>
  <path d="m378.01,258.32c-5.61,0-8.75-2.81-10.62-4.49-1.45-1.3-1.57-1.34-2.39-1.34s-.93.04-2.38,1.34c-1.88,1.68-5.01,4.49-10.62,4.49s-8.74-2.81-10.61-4.49c-1.45-1.3-1.57-1.34-2.37-1.34s-.93.04-2.38,1.34c-1.88,1.68-5.01,4.49-10.61,4.49s-8.74-2.81-10.61-4.49c-1.45-1.3-1.57-1.34-2.38-1.34s-.93.04-2.38,1.34c-1.87,1.68-5.01,4.49-10.61,4.49s-8.74-2.81-10.61-4.49c-1.45-1.3-1.57-1.34-2.38-1.34-3.4,0-6.17-2.76-6.17-6.17s2.76-6.17,6.17-6.17c5.61,0,8.74,2.81,10.61,4.49,1.45,1.3,1.57,1.34,2.38,1.34s.93-.04,2.38-1.34c1.87-1.68,5.01-4.49,10.61-4.49s8.74,2.81,10.61,4.49c1.45,1.3,1.57,1.34,2.38,1.34s.93-.04,2.38-1.34c1.87-1.68,5.01-4.49,10.62-4.49s8.74,2.81,10.61,4.49c1.45,1.3,1.57,1.34,2.38,1.34s.93-.04,2.38-1.34c1.87-1.68,5.01-4.49,10.62-4.49s8.75,2.81,10.62,4.49c1.45,1.3,1.57,1.34,2.39,1.34s.94-.04,2.39-1.34c1.87-1.68,5.01-4.49,10.62-4.49,3.4,0,6.17,2.76,6.17,6.17s-2.76,6.17-6.17,6.17c-.82,0-.94.04-2.39,1.34-1.87,1.68-5.01,4.49-10.62,4.49Z"></path>
  <path d="m404.59,184.01c-3.4,0-6.17-2.76-6.17-6.17v-49.26c0-3.41,2.76-6.17,6.17-6.17s6.17,2.76,6.17,6.17v49.26c0,3.41-2.76,6.17-6.17,6.17Z"></path>
  <path d="m439.42,218.84c-1.58,0-3.16-.6-4.36-1.81l-69.67-69.67c-2.41-2.41-2.41-6.31,0-8.72,2.41-2.41,6.31-2.41,8.72,0l69.67,69.67c2.41,2.41,2.41,6.31,0,8.72-1.2,1.2-2.78,1.81-4.36,1.81Z"></path>
  <path d="m453.85,184.01h-98.52c-3.4,0-6.17-2.76-6.17-6.17s2.76-6.17,6.17-6.17h98.52c3.4,0,6.17,2.76,6.17,6.17s-2.76,6.17-6.17,6.17Z"></path>
  <path d="m401.53,186.52c-1.59,0-3.18-.61-4.39-1.84-2.39-2.43-2.36-6.33.06-8.72l37.89-37.34c2.43-2.39,6.33-2.36,8.72.06,2.39,2.43,2.36,6.33-.06,8.72l-37.89,37.34c-1.2,1.18-2.77,1.77-4.33,1.77Z"></path>
  <path d="m349.85,360.24c-3.02,0-5.66-2.22-6.1-5.29-.48-3.37,1.86-6.5,5.23-6.98,11.28-1.61,19.54-6.02,24.55-13.09,7.78-10.98,6.83-26.31,4.65-37.24-.66-3.34,1.51-6.59,4.85-7.25,3.36-.66,6.58,1.51,7.25,4.85,2.64,13.3,3.62,32.21-6.69,46.77-7.05,9.95-18.11,16.06-32.88,18.17-.29.04-.59.06-.88.06Z"></path>
  <rect x="332.22" y="373.64" width="12.33" height="69.84"></rect>
  <path d="m399.84,466h-122.13v-6.17c0-12.42,10.1-22.52,22.52-22.52h77.1c12.41,0,22.51,10.1,22.51,22.52v6.17Zm-107.71-12.34h93.3c-1.86-2.44-4.8-4.02-8.1-4.02h-77.1c-3.3,0-6.24,1.58-8.1,4.02Z"></path>
  <path d="m404.59,234.17c-4.81,0-9.72-.67-14.61-1.99-2.77-.75-4.66-3.32-4.55-6.18.51-13.65,2.98-27.02,7.35-39.86h-37.95c-3.33,0-6.05-2.64-6.16-5.96l-.03-.54c-.04-.49-.06-.99-.06-1.49,0-30.89,25.13-56.02,56.02-56.02s56.02,25.13,56.02,56.02-25.13,56.02-56.02,56.02Zm-6.54-12.86c2.2.35,4.39.52,6.54.52,24.09,0,43.68-19.6,43.68-43.69s-19.6-43.69-43.68-43.69c-22.62,0-41.29,17.28-43.47,39.34h40.57c2.06,0,3.97,1.02,5.12,2.73,1.14,1.7,1.36,3.87.59,5.77l-.16.38c-5.07,12.36-8.15,25.33-9.19,38.63Z"></path>
  <path d="m338.78,377.72c-25.75,0-47.85-9.43-60.67-25.87-10.48-13.45-13.82-30.5-9.41-48.01,2.59-12.24,6.36-33.05,9.06-48.31,4.22-23.89,1.57-48.4-7.67-70.89l-.96-2.32c-.78-1.9-.56-4.07.58-5.78,1.14-1.71,3.07-2.73,5.12-2.73h126.85c2.06,0,3.97,1.02,5.12,2.73,1.14,1.7,1.36,3.87.59,5.77l-.16.38c-5.72,13.95-8.92,28.67-9.48,43.77-.33,8.98.28,18.02,1.82,26.86l1.3,7.48c2.63,15.06,5.34,30.63,7.99,43.15,4.37,17.47,1.02,34.48-9.44,47.9-12.81,16.44-34.92,25.87-60.66,25.87Zm-54.9-191.58c8.19,22.94,10.28,47.52,6.03,71.53-2.71,15.35-6.51,36.31-9.2,48.95-3.56,14.17-1.08,27.11,7.13,37.64,10.46,13.42,29.02,21.12,50.94,21.12s40.48-7.7,50.93-21.12c8.21-10.54,10.7-23.48,7.18-37.42-.02-.08-.04-.15-.06-.23-2.71-12.76-5.45-28.49-8.1-43.71l-1.3-7.47c-1.69-9.7-2.36-19.6-2-29.45.51-13.65,2.98-27.02,7.35-39.86h-108.91Z"></path>
</symbol><symbol id="i011_drink-11" xmlns="http://www.w3.org/2000/svg" viewBox="0 0 512 512">
  <path d="m356.71,466h-202.42c-2.8,0-5.25-1.89-5.97-4.59-.72-2.71.47-5.56,2.91-6.95l101.21-57.74c1.89-1.08,4.23-1.08,6.12,0l101.21,57.74c2.44,1.39,3.63,4.24,2.91,6.95-.72,2.71-3.17,4.59-5.97,4.59Zm-179.13-12.35h155.83l-77.92-44.45-77.92,44.45Z"></path>
  <path d="m256,408.48c-3.41,0-6.18-2.76-6.18-6.18v-100.83c0-3.41,2.76-6.18,6.18-6.18s6.18,2.76,6.18,6.18v100.83c0,3.41-2.76,6.18-6.18,6.18Z"></path>
  <path d="m256,307.65c-1.67,0-3.26-.67-4.43-1.87L55.1,104.02c-1.73-1.78-2.23-4.42-1.26-6.71.96-2.29,3.21-3.78,5.69-3.78h392.95c2.48,0,4.73,1.49,5.69,3.78.97,2.29.47,4.93-1.26,6.71l-196.48,201.76c-1.16,1.19-2.76,1.87-4.43,1.87ZM74.16,105.89l181.84,186.73,181.84-186.73H74.16Z"></path>
  <path d="m368.39,148.86c-15.19,0-23.18-3.84-30.23-7.24-6.71-3.23-12.51-6.02-24.88-6.02s-18.18,2.79-24.89,6.02c-7.06,3.39-15.05,7.24-30.25,7.24-12.31,0-19.75-2.52-25.4-4.98-1.66-.73-3.25-1.49-4.84-2.25-6.71-3.23-12.51-6.02-24.89-6.02s-18.17,2.79-24.89,6.02c-7.05,3.39-15.05,7.24-30.24,7.24s-23.18-3.84-30.24-7.24c-6.71-3.23-12.51-6.02-24.89-6.02-3.41,0-6.18-2.76-6.18-6.18s2.76-6.18,6.18-6.18c15.19,0,23.18,3.84,30.24,7.24,6.71,3.23,12.51,6.02,24.89,6.02s18.17-2.79,24.89-6.02c7.05-3.39,15.05-7.24,30.24-7.24s23.19,3.84,30.24,7.24c1.45.7,2.9,1.4,4.43,2.06,4.71,2.05,10.44,3.95,20.46,3.95,12.38,0,18.18-2.79,24.89-6.02,7.06-3.39,15.05-7.24,30.25-7.24s23.18,3.84,30.23,7.24c6.71,3.23,12.51,6.02,24.88,6.02s18.19-2.79,24.9-6.02c7.06-3.39,15.06-7.24,30.25-7.24,3.41,0,6.18,2.76,6.18,6.18s-2.76,6.18-6.18,6.18c-12.38,0-18.18,2.79-24.9,6.02-7.06,3.39-15.06,7.24-30.26,7.24Z"></path>
  <path d="m263.31,243.37c-19.7,0-35.73-20.4-35.73-45.48s16.03-45.48,35.73-45.48,35.73,20.4,35.73,45.48-16.03,45.48-35.73,45.48Zm0-78.61c-12.89,0-23.38,14.86-23.38,33.13s10.49,33.13,23.38,33.13,23.38-14.86,23.38-33.13-10.49-33.13-23.38-33.13Z"></path>
  <path d="m264.1,223.7c-3.41,0-6.18-2.76-6.18-6.18s2.76-6.18,6.18-6.18c1.82,0,4.56-3.51,4.56-8.81,0-3.41,2.76-6.18,6.18-6.18s6.18,2.76,6.18,6.18c0,11.87-7.43,21.16-16.92,21.16Z"></path>
  <path d="m219.6,240.54c-1.64,0-3.28-.65-4.5-1.94-2.34-2.48-2.22-6.39.26-8.73l18.02-16.96c2.48-2.34,6.39-2.22,8.73.26,2.34,2.48,2.22,6.39-.26,8.73l-18.02,16.96c-1.19,1.12-2.71,1.68-4.23,1.68Z"></path>
  <path d="m286.34,177.7c-1.6,0-3.21-.62-4.42-1.86-2.38-2.44-2.34-6.35.1-8.74l122.21-119.35c2.44-2.38,6.35-2.34,8.74.1,2.38,2.44,2.34,6.35-.1,8.74l-122.21,119.35c-1.2,1.17-2.76,1.76-4.32,1.76Z"></path>
</symbol><symbol id="i011_drink-12" xmlns="http://www.w3.org/2000/svg" viewBox="0 0 512 512">
  <path d="m193.63,465.6h-106.12c-2.51,0-4.75-1.56-5.61-3.91-.87-2.35-.18-4.99,1.73-6.62l53.06-45.26c2.24-1.91,5.53-1.91,7.76,0l53.06,45.26c1.91,1.63,2.6,4.27,1.73,6.62-.87,2.35-3.11,3.91-5.61,3.91Zm-89.89-11.96h73.66l-36.83-31.42-36.83,31.42Z"></path>
  <path d="m140.57,420.34c-3.3,0-5.98-2.68-5.98-5.98v-72.39c0-3.3,2.68-5.98,5.98-5.98s5.98,2.68,5.98,5.98v72.39c0,3.3-2.68,5.98-5.98,5.98Z"></path>
  <path d="m222.36,132.58H55.85c-2.2,0-4.23-1.21-5.27-3.15-2.06-3.83-3.1-7.87-3.1-12,0-12.07,8.42-22.2,19.69-24.84-.1-.92-.16-1.84-.16-2.77,0-14.07,11.44-25.51,25.51-25.51.98,0,1.96.06,2.94.18,2.65-5.95,7.13-10.99,12.82-14.28,11.11-6.41,24.6-5.36,34.44,2.24,6.58-3.79,14.23-4.8,21.58-2.83,7.18,1.92,13.21,6.47,17.03,12.82,12.23-3.42,25.84,1.74,32.42,13.14,2.6,4.51,3.9,9.63,3.8,14.8,4.23,2.48,7.78,6.04,10.25,10.32,5.19,9,5.07,20.11-.32,29.01-1.08,1.79-3.02,2.88-5.12,2.88Zm-162.5-11.96h158.77c1.67-4.55,1.28-9.67-1.2-13.95h0c-1.91-3.31-4.81-5.79-8.39-7.16-2.69-1.03-4.27-3.84-3.74-6.68.72-3.87.04-7.88-1.92-11.27-4.45-7.7-14.41-10.49-22.22-6.22-1.56.85-3.41.97-5.06.32-1.65-.65-2.93-2-3.49-3.69-.36-1.08-.82-2.12-1.39-3.09-2.21-3.82-5.77-6.56-10.03-7.7-4.26-1.14-8.71-.55-12.54,1.65-.86.49-1.7,1.1-2.52,1.8-2.44,2.11-6.11,1.89-8.3-.47-6.1-6.6-15.8-8.08-23.59-3.58-4.65,2.68-7.86,7.07-9.06,12.34-.38,1.69-1.48,3.12-3,3.94-1.52.82-3.32.94-4.94.33-9.57-3.6-18.29,3.61-18.29,12.63,0,1.92.45,3.85,1.33,5.72.92,1.94.71,4.23-.52,5.99-1.24,1.76-3.32,2.7-5.46,2.51l-1.36-.16c-7.44,0-13.52,6.08-13.52,13.55,0,1.07.14,2.13.42,3.19Z"></path>
  <path d="m218.5,288.57h-3.08c-5.05,0-10.13-.73-15.11-2.17-2.92-.84-4.74-3.73-4.24-6.73l19.62-117.56c.5-3.02,3.23-5.13,6.28-4.98,28.59,1.81,50.98,25.65,50.98,54.28v22.71c0,30.03-24.43,54.45-54.45,54.45Zm-9.7-12.5c2.21.36,4.42.54,6.62.54h3.08c23.43,0,42.49-19.06,42.49-42.49v-22.71c0-20.52-14.75-37.89-34.44-41.66l-17.75,106.33Z"></path>
  <path d="m140.57,347.95c-32.58,0-60.12-23.32-65.48-55.46l-5.92-35.46c-.29-1.73.2-3.51,1.34-4.85,1.13-1.34,2.81-2.12,4.56-2.12h131.01c1.76,0,3.43.77,4.56,2.11,1.14,1.34,1.63,3.12,1.34,4.85l-5.92,35.47c-5.36,32.14-32.91,55.46-65.49,55.46Zm-58.44-85.93l4.76,28.5c4.4,26.35,26.98,45.47,53.69,45.47s49.29-19.12,53.69-45.47l4.76-28.5h-116.89Z"></path>
  <path d="m216.96,196.84H64.18c-2.92,0-5.42-2.11-5.9-5l-10.73-64.26c-.29-1.73.2-3.51,1.34-4.85,1.14-1.34,2.81-2.12,4.56-2.12h174.23c1.76,0,3.43.77,4.56,2.12,1.14,1.34,1.63,3.12,1.34,4.85l-10.73,64.26c-.48,2.88-2.98,5-5.9,5Zm-147.71-11.96h142.64l8.73-52.29H60.52l8.73,52.29Z"></path>
  <path d="m206.08,262.02H75.07c-2.92,0-5.42-2.11-5.9-5l-10.88-65.19c-.29-1.73.2-3.51,1.34-4.85,1.13-1.34,2.81-2.12,4.56-2.12h152.78c1.76,0,3.43.77,4.56,2.12,1.14,1.34,1.63,3.12,1.34,4.85l-10.88,65.19c-.48,2.88-2.98,5-5.9,5Zm-125.95-11.96h120.88l8.89-53.22H71.25l8.89,53.22Z"></path>
  <path d="m399.05,466h-86.08c-2.51,0-4.75-1.56-5.61-3.91-.87-2.35-.18-4.99,1.73-6.62l43.04-36.71c2.24-1.91,5.53-1.91,7.76,0l43.04,36.71c1.91,1.63,2.6,4.27,1.73,6.62-.87,2.35-3.11,3.91-5.61,3.91Zm-69.85-11.96h53.62l-26.81-22.87-26.81,22.87Z"></path>
  <path d="m356.01,429.29c-3.3,0-5.98-2.68-5.98-5.98v-58.72c0-3.3,2.68-5.98,5.98-5.98s5.98,2.68,5.98,5.98v58.72c0,3.3-2.68,5.98-5.98,5.98Z"></path>
  <path d="m422.36,195.87h-135.07c-2.2,0-4.23-1.21-5.27-3.15-1.76-3.28-2.65-6.73-2.65-10.27,0-9.98,6.73-18.41,15.89-21-.03-.46-.05-.92-.05-1.39,0-12.6,10.82-22.8,23.52-21.75,2.28-4.72,5.94-8.71,10.52-11.36,9.18-5.3,20.3-4.58,28.59,1.45,5.44-2.92,11.71-3.65,17.7-2.04,5.83,1.56,10.78,5.16,14.04,10.19,10.19-2.47,21.3,1.95,26.75,11.39,2.11,3.64,3.21,7.76,3.24,11.93,3.35,2.09,6.17,4.99,8.16,8.44,4.42,7.65,4.32,17.11-.27,24.68-1.08,1.79-3.02,2.88-5.12,2.88Zm-130.9-11.96h127.06c.94-3.19.57-6.67-1.13-9.62h0c-1.42-2.46-3.57-4.3-6.23-5.31-2.69-1.03-4.27-3.84-3.74-6.68.54-2.88.03-5.85-1.43-8.37-3.3-5.72-10.71-7.79-16.5-4.62-1.55.85-3.41.97-5.06.32-1.65-.65-2.93-2-3.49-3.69-.26-.8-.61-1.57-1.03-2.3-1.64-2.84-4.28-4.87-7.45-5.72-3.17-.85-6.47-.41-9.31,1.23-.64.37-1.27.82-1.87,1.34-2.44,2.1-6.11,1.89-8.29-.47-4.59-4.97-11.89-6.08-17.74-2.69-3.49,2.02-5.91,5.31-6.81,9.29-.38,1.68-1.48,3.12-3,3.94-1.52.82-3.33.94-4.94.33-1.21-.45-2.33-.67-3.45-.67-5.44,0-9.86,4.42-9.86,9.86,0,1.39.33,2.79.97,4.16.92,1.95.71,4.24-.53,5.99-1.24,1.76-3.34,2.73-5.47,2.5l-.74-.09h-.07c-5.61,0-10,4.41-10,9.82,0,.49.04.98.12,1.46Z"></path>
  <path d="m419.23,322.41h-2.5c-4.2,0-8.43-.61-12.57-1.8-2.92-.84-4.74-3.74-4.24-6.73l15.92-95.36c.5-3.02,3.23-5.13,6.28-4.98,23.78,1.51,42.41,21.34,42.41,45.16v18.42c0,24.98-20.32,45.3-45.3,45.3Zm-6.57-12.22c1.36.17,2.72.26,4.07.26h2.5c18.38,0,33.34-14.95,33.34-33.34v-18.42c0-15.7-11.01-29.05-25.89-32.45l-14.01,83.95Z"></path>
  <path d="m356.01,370.57c-26.98,0-49.79-19.32-54.23-45.93l-4.8-28.77c-.29-1.73.2-3.51,1.34-4.85,1.14-1.34,2.81-2.12,4.56-2.12h106.27c1.76,0,3.43.77,4.56,2.11,1.14,1.34,1.63,3.12,1.34,4.85l-4.8,28.77c-4.44,26.61-27.25,45.93-54.23,45.93Zm-46.07-69.7l3.64,21.8c3.48,20.82,21.32,35.94,42.43,35.94s38.96-15.11,42.43-35.94l3.64-21.8h-92.14Z"></path>
  <path d="m417.98,247.99h-123.92c-2.92,0-5.42-2.11-5.9-5l-8.7-52.12c-.29-1.73.2-3.51,1.34-4.85,1.14-1.34,2.81-2.12,4.56-2.12h141.32c1.76,0,3.43.77,4.56,2.12,1.14,1.34,1.63,3.12,1.34,4.85l-8.7,52.12c-.48,2.89-2.98,5-5.9,5Zm-118.86-11.96h113.79l6.7-40.16h-127.2l6.71,40.16Z"></path>
  <path d="m409.15,300.87h-106.27c-2.92,0-5.42-2.11-5.9-5l-8.83-52.88c-.29-1.73.2-3.51,1.34-4.85,1.14-1.34,2.81-2.12,4.56-2.12h123.92c1.76,0,3.43.77,4.56,2.12,1.14,1.34,1.63,3.12,1.34,4.85l-8.83,52.88c-.48,2.88-2.98,5-5.9,5Zm-101.2-11.96h96.14l6.83-40.91h-109.8l6.83,40.91Z"></path>
</symbol><symbol id="i011_drink-13" xmlns="http://www.w3.org/2000/svg" viewBox="0 0 512 512">
  <path d="m237.49,194.39c-14.07-13.71-13.23-41.01-13.22-41.27v-88.99s-73.65,0-73.65,0v88.99c.02.27.73,27.67-13.22,41.27-2.46,2.2-21.01,19.74-21.01,47.64v174.04c.03.5,2.72,49.93,71.06,49.93s71.03-49.43,71.05-49.93v-174.04c0-27.89-18.55-45.44-21.01-47.64Zm8.01,221.16c-.16,1.51-1.36,10.33-7.99,18.77-9.73,12.39-26.58,18.68-50.06,18.68s-40.32-6.28-50.06-18.68c-6.73-8.56-7.87-17.52-8-18.83v-173.47c0-22.37,14.98-36.42,16.68-37.95l.2-.18.2-.19c17.78-17.32,17.24-48.13,17.15-50.93v-75.64s47.65,0,47.65,0v75.8c-.1,3.57-.32,33.74,17.15,50.77l.2.19.21.18c.68.61,16.68,15.19,16.68,37.95v173.53Z"></path>
  <path d="m214.62,46h-54.35c-8.32,0-15.07,2.63-15.07,5.87v25.66h84.5v-25.66c0-3.24-6.75-5.87-15.07-5.87Zm1.67,18.13h-57.7v-4.68c.52-.03,1.07-.05,1.67-.05h54.35c.6,0,1.16.02,1.67.05v4.68Z"></path>
  <polygon points="187.44 259.79 194.47 274.03 210.2 276.32 198.82 287.41 201.51 303.07 187.44 295.67 173.38 303.07 176.07 287.41 164.69 276.32 180.41 274.03 187.44 259.79"></polygon>
  <path d="m187.44,245.28c-18.52,0-33.53,18.01-33.53,40.24s15.01,40.24,33.53,40.24,33.53-18.01,33.53-40.24-15.01-40.24-33.53-40.24Zm0,72.23c-13.94,0-25.28-14.35-25.28-31.99s11.34-31.99,25.28-31.99,25.28,14.35,25.28,31.99-11.34,31.99-25.28,31.99Z"></path>
  <rect x="123.82" y="266.96" width="38.34" height="7.17"></rect>
  <rect x="120.26" y="287.42" width="38.34" height="7.17"></rect>
  <rect x="212.73" y="267.77" width="38.34" height="7.17"></rect>
  <rect x="216.29" y="287.42" width="38.34" height="7.17"></rect>
  <path d="m369.84,329.54c-2.06,0-4.07-.28-6.01-.81l-8.77,112.87h-51.38l-8.71-112.21c-3.94-.49-7.7-1.86-11.05-4.08-.38.02-.74.03-1.1.03-.72,0-1.43-.04-2.13-.1l9.21,118.57c.51,6.62,5.71,11.71,11.95,11.71h55.05c6.24,0,11.44-5.09,11.95-11.71l8.98-115.71c-2.49.93-5.18,1.45-7.99,1.45Z"></path>
  <path d="m373.31,290.19c-1.85-1.88-4.02-3.42-6.4-4.57-2.54-9.97-11.65-17.21-22.12-17.21-7.23,0-13.91,3.38-18.19,9.03-2.19-.69-4.47-1.04-6.81-1.04-6.46,0-12.62,2.78-16.93,7.53-.59-.04-1.16-.06-1.72-.06-3.86,0-7.69.87-11.17,2.52-1.41-.27-2.82-.41-4.21-.41-12.6,0-22.85,10.25-22.85,22.85s10.25,22.85,22.85,22.85c.36,0,.72-.01,1.1-.03,4.26,2.81,9.16,4.29,14.28,4.29,5.61,0,10.95-1.76,15.38-5.03,4.01,3.19,9.01,4.96,14.19,4.96,5.75,0,11.17-2.13,15.34-5.93,4.39,2.42,9.45,3.37,14.68,2.49,3.62,2.26,7.74,3.44,12.03,3.44,12.6,0,22.85-10.25,22.85-22.85s-9.96-22.55-22.31-22.84Zm-.54,37.44c-2.75,0-5.33-.74-7.66-2.19l-2.65-1.66-3.09.52c-.82.14-1.65.21-2.46.21-2.4,0-4.71-.6-6.86-1.79l-5.17-2.86-4.37,3.98c-2.67,2.44-6.14,3.78-9.78,3.78-3.27,0-6.49-1.13-9.06-3.17l-4.94-3.93-5.08,3.74c-3.04,2.24-6.67,3.42-10.49,3.42-3.47,0-6.84-1.01-9.74-2.93l-2.27-1.5-2.72.15c-.22.01-.43.02-.64.02-8.05,0-14.6-6.55-14.6-14.6s6.55-14.6,14.6-14.6c.87,0,1.76.09,2.66.26l2.65.51,2.44-1.16c2.37-1.13,5.01-1.72,7.63-1.72.36,0,.73.01,1.1.04l4.02.3,2.71-2.99c2.78-3.07,6.72-4.82,10.82-4.82,1.49,0,2.94.22,4.33.66l5.54,1.75,3.51-4.63c2.77-3.66,7.01-5.76,11.61-5.76,6.56,0,12.51,4.63,14.13,11l.95,3.74,3.48,1.66c1.53.73,2.91,1.71,4.09,2.91l2.34,2.38,3.34.08c7.86.18,14.25,6.73,14.25,14.6s-6.55,14.6-14.6,14.6Z"></path>
</symbol><symbol id="i011_drink-14" xmlns="http://www.w3.org/2000/svg" viewBox="0 0 512 512">
  <g>
    <path d="m260.35,245.04v106.94h117.73v-106.94h-117.73Zm109.96,99.17h-102.19v-91.41h102.19v91.41Z"></path>
    <path d="m361.37,170.5c-3.42-3.52-6.73-6.18-9.66-8.52-6.16-4.93-10.22-8.19-10.22-15.27v-54.3h-13.1v54.29c0,13.38,8.39,20.1,15.14,25.5,2.76,2.21,5.6,4.48,8.43,7.41,9.33,9.62,14.72,20.92,14.72,50.21v222.34c-6.46.64-16.29.71-25.35.71-3.09,0-6.34,0-9.72-.02-3.71-.01-7.58-.02-11.59-.02-4.9,0-9.52.02-13.83.03-3.77.01-7.31.03-10.62.03-5.9,0-15.83,0-22.21-.6v-222.47c0-29.29,5.4-40.59,14.72-50.21,2.84-2.93,5.69-5.21,8.44-7.41,6.75-5.4,15.14-12.12,15.14-25.5v-54.29h-13.1v54.3c0,7.08-4.07,10.34-10.22,15.26-2.93,2.34-6.24,5-9.66,8.52-13.43,13.85-18.42,29.93-18.42,59.33v227c0,3.64,2.4,6.77,5.84,7.6,8.44,2.03,26.67,1.51,53.93,1.51,25.08,0,44.47.45,53.8-1.61,3.46-.77,5.97-3.97,5.97-7.62v-226.88c0-29.4-4.99-45.48-18.42-59.33Z"></path>
    <path d="m335.77,46h-31.51c-4.82,0-8.74,3.91-8.74,8.74v38.21h48.98v-38.21c0-4.82-3.91-8.74-8.74-8.74Zm.97,39.18h-33.45v-25.74c0-3.13,2.54-5.67,5.67-5.67h22.1c3.13,0,5.67,2.54,5.67,5.67v25.74Z"></path>
  </g>
  <g>
    <path d="m259.74,310.34l-16.02-86.59h-95.22l-15.68,85.6c-5.26,28.74,24.32,54.44,63.15,54.86h0c38.86.42,69.09-25.12,63.77-53.87Zm-15.01,26.38c-10.19,12.25-28.07,19.57-47.81,19.57-.29,0-.58,0-.86,0-19.94-.22-37.94-7.75-48.16-20.14-4.45-5.4-9.33-14.19-7.28-25.37l14.49-79.1h82.01l14.82,80.11c2.03,11-2.8,19.63-7.21,24.94Z"></path>
    <g>
      <rect x="186.24" y="358.53" width="7.93" height="103.22"></rect>
      <path d="m157.17,458.05h78.23c3.27,0,5.93,2.66,5.93,5.93v2h-90.09v-2c0-3.27,2.66-5.93,5.93-5.93Z"></path>
      <rect x="197.86" y="358.53" width="7.93" height="103.22"></rect>
    </g>
    <rect x="139.71" y="291.37" width="111.04" height="5.24"></rect>
  </g>
</symbol><symbol id="i011_drink-15" xmlns="http://www.w3.org/2000/svg" viewBox="0 0 512 512">
  <g>
    <path d="m251.08,244.42v106.6h117.36v-106.6h-117.36Zm109.62,98.86h-101.88v-91.12h101.88v91.12Z"></path>
    <path d="m351.78,170.12c-3.41-3.51-6.71-6.16-9.63-8.49-6.14-4.91-10.19-8.16-10.19-15.22v-54.13h-13.06v54.13c0,13.34,8.37,20.04,15.09,25.42,2.75,2.2,5.58,4.47,8.41,7.39,9.3,9.59,14.68,20.85,14.68,50.05v221.65c-6.44.64-16.24.71-25.27.71-3.09,0-6.32,0-9.69-.02-3.69-.01-7.55-.02-11.56-.02-4.89,0-9.49.02-13.79.03-3.76.01-7.29.03-10.59.03-5.89,0-15.78,0-22.15-.59v-221.77c0-29.2,5.38-40.46,14.68-50.05,2.83-2.92,5.67-5.19,8.41-7.39,6.72-5.38,15.09-12.08,15.09-25.42v-54.13h-13.06v54.13c0,7.06-4.05,10.3-10.19,15.22-2.92,2.34-6.22,4.98-9.63,8.5-13.39,13.81-18.36,29.84-18.36,59.14v226.29c0,3.63,2.39,6.75,5.82,7.57,8.41,2.02,26.58,1.51,53.76,1.51,25,0,44.33.45,53.63-1.6,3.45-.77,5.95-3.96,5.95-7.6v-226.17c0-29.31-4.98-45.34-18.36-59.14Z"></path>
    <path d="m326.26,46h-31.41c-4.81,0-8.71,3.9-8.71,8.71v38.09h48.82v-38.09c0-4.81-3.9-8.71-8.71-8.71Zm.97,39.06h-33.34v-25.66c0-3.12,2.53-5.66,5.66-5.66h22.03c3.12,0,5.66,2.53,5.66,5.66v25.66Z"></path>
  </g>
  <g>
    <path d="m250.45,308.64l-13.64-88.08h-81.08l-13.35,87.07c-4.48,29.23,20.71,55.38,53.77,55.81h0c33.09.43,58.83-25.55,54.3-54.8Zm-16.5,30.79c-8.84,10.31-22.32,16.22-36.99,16.22-.24,0-.47,0-.71,0-14.85-.19-28.45-6.31-37.31-16.77-7.35-8.68-10.5-19.36-8.86-30.06l12.34-80.46h67.71l12.62,81.48c1.64,10.56-1.49,21.07-8.8,29.59Z"></path>
    <g>
      <rect x="186.16" y="356.33" width="8.09" height="105.36"></rect>
      <path d="m156.37,457.91h80.09c3.27,0,5.93,2.66,5.93,5.93v2.16h-91.95v-2.16c0-3.27,2.66-5.93,5.93-5.93Z"></path>
      <rect x="198.03" y="356.33" width="8.09" height="105.36"></rect>
    </g>
    <rect x="146.15" y="289.33" width="100.11" height="5.35"></rect>
  </g>
</symbol><symbol id="i011_drink-16" xmlns="http://www.w3.org/2000/svg" viewBox="0 0 512 512">
  <path d="m196.34,245.04v106.94h117.73v-106.94h-117.73Zm109.96,99.17h-102.19v-91.41h102.19v91.41Z"></path>
  <path d="m297.35,170.5c-3.42-3.52-6.73-6.18-9.66-8.52-6.16-4.93-10.22-8.19-10.22-15.27v-54.3h-13.1v54.29c0,13.38,8.39,20.1,15.14,25.5,2.76,2.21,5.6,4.48,8.43,7.41,9.33,9.62,14.72,20.92,14.72,50.21v222.34c-6.46.64-16.29.71-25.35.71-3.09,0-6.34,0-9.72-.02-3.71-.01-7.58-.02-11.59-.02-4.9,0-9.52.02-13.83.03-3.77.01-7.31.03-10.62.03-5.9,0-15.83,0-22.21-.6v-222.47c0-29.29,5.4-40.59,14.72-50.21,2.84-2.93,5.69-5.21,8.44-7.41,6.75-5.4,15.14-12.12,15.14-25.5v-54.29h-13.1v54.3c0,7.08-4.07,10.34-10.22,15.26-2.93,2.34-6.24,5-9.66,8.52-13.43,13.85-18.42,29.93-18.42,59.33v227c0,3.64,2.4,6.77,5.84,7.6,8.44,2.03,26.67,1.51,53.93,1.51,25.08,0,44.47.45,53.8-1.61,3.46-.77,5.97-3.97,5.97-7.62v-226.88c0-29.4-4.99-45.48-18.42-59.33Z"></path>
  <path d="m271.75,46h-31.51c-4.82,0-8.74,3.91-8.74,8.74v38.21h48.98v-38.21c0-4.82-3.91-8.74-8.74-8.74Zm.97,39.18h-33.45v-25.74c0-3.13,2.54-5.67,5.67-5.67h22.1c3.13,0,5.67,2.54,5.67,5.67v25.74Z"></path>
</symbol><symbol id="i011_drink-17" xmlns="http://www.w3.org/2000/svg" viewBox="0 0 512 512">
  <path d="m411.13,193.44l-27.25-41.01V53.25c0-4.01-3.25-7.25-7.25-7.25h-54.29c-4.01,0-7.25,3.25-7.25,7.25v99.22l-27.64,42.59c-6.87,10.59-10.5,22.85-10.5,35.47v212.54c0,12.64,10.28,22.92,22.92,22.92h99.24c12.64,0,22.92-10.28,22.92-22.92v-213.58c0-12.87-3.76-25.34-10.89-36.06Zm-3.62,184.78h-66.02v-115.42h66.02v115.42ZM329.58,60.51h39.79v86.86h-39.79V60.51Zm69.51,390.99h-99.24c-4.64,0-8.42-3.78-8.42-8.42v-212.54c0-9.81,2.82-19.34,8.17-27.57l26.67-41.08h46.46l26.31,39.59c5.54,8.33,8.47,18.03,8.47,28.03v18.8h-73.27c-4.01,0-7.25,3.25-7.25,7.25v129.92c0,4.01,3.25,7.25,7.25,7.25h73.27v50.35c0,4.64-3.78,8.42-8.42,8.42Z"></path>
  <path d="m225.33,307.25c22.82-41.39-20.63-111.44-22.49-114.4-.24-.39-.61-.63-.91-.95-.15-.17-.29-.32-.45-.48-.51-.46-1.04-.81-1.64-1.11-.27-.14-.54-.26-.83-.37-.55-.19-1.1-.29-1.68-.34-.26-.03-.48-.15-.74-.15h-71.38c-2.49,0-4.81,1.28-6.14,3.39-1.86,2.96-45.31,73.01-22.49,114.4,9.57,17.35,28.76,26.82,57.12,28.22v91.68c-16.96,1.06-32.27,6.58-44.32,16.12l-12.38,9.79c-2.42,1.92-3.37,5.15-2.35,8.07,1.01,2.91,3.76,4.87,6.85,4.87h118.92c3.09,0,5.84-1.95,6.85-4.87,1.02-2.92.07-6.16-2.35-8.07l-12.38-9.79c-12.05-9.53-27.17-14.93-44.33-16.07v-91.83c28.29-1.42,47.57-10.79,57.12-28.11Zm-116.04-6.99c-16.26-29.45,12.04-82.42,20.05-96.3h63.27c12.17,20.67,34.7,69.65,20.01,96.28-7.62,13.82-25,20.85-51.67,20.9-26.66-.06-44.04-7.08-51.66-20.89Zm13.5,151.23c10.46-6.72,23.56-10.27,38.39-10.03,14.43-.21,27.49,3.31,37.95,10.03h-76.34Z"></path>
</symbol><symbol id="i011_drink-18" xmlns="http://www.w3.org/2000/svg" viewBox="0 0 512 512">
  <g id="drink_2">
    <path d="m212.94,466h-100.22c-18.96,0-34.38-15.42-34.38-34.38v-227.54c0-4.2.76-8.33,2.26-12.26l37.83-99.13c.97-2.53,3.4-4.21,6.11-4.21h76.58c2.71,0,5.14,1.67,6.11,4.21l37.83,99.13c1.5,3.93,2.26,8.05,2.26,12.26v227.54c0,18.96-15.42,34.38-34.38,34.38ZM129.04,101.56l-36.22,94.93c-.93,2.43-1.4,4.99-1.4,7.59v227.54c0,11.74,9.55,21.3,21.3,21.3h100.22c11.74,0,21.3-9.55,21.3-21.3v-227.54c0-2.6-.47-5.16-1.4-7.59l-36.22-94.93h-67.57Z"></path>
    <path d="m212.53,101.56h-99.06c-4.67,0-8.48-3.8-8.48-8.48v-38.61c0-4.67,3.8-8.48,8.48-8.48h99.06c4.67,0,8.48,3.8,8.48,8.48v38.61c0,4.67-3.8,8.48-8.48,8.48Zm-94.46-13.08h89.86v-29.4h-89.86v29.4Z"></path>
    <path d="m185.38,186.87c-10.18,0-20.41-2.58-29.77-7.81-11.09-6.2-24.44-7.73-36.64-4.19l-23.26,6.75c-3.47,1.01-7.1-.99-8.1-4.46-1.01-3.47.99-7.1,4.46-8.1l23.26-6.75c15.54-4.51,32.55-2.57,46.67,5.34,17.18,9.62,38.16,7.81,53.45-4.61l7.2-5.85c2.8-2.28,6.92-1.85,9.2.95,2.28,2.8,1.85,6.92-.95,9.2l-7.2,5.85c-11.15,9.06-24.68,13.69-38.32,13.69Z"></path>
    <path d="m378.34,329.69c-11.21,0-22.47-2.52-32.77-7.65-12.78-6.36-28.19-7.92-42.28-4.29l-30.97,7.98c-3.5.9-7.06-1.2-7.96-4.7-.9-3.5,1.2-7.06,4.7-7.96l30.97-7.98c17.34-4.48,35.59-2.62,51.37,5.24,19.51,9.71,44.26,7.83,61.57-4.69l8.49-6.15c2.92-2.12,7.02-1.46,9.13,1.46,2.12,2.93,1.46,7.01-1.46,9.13l-8.5,6.15c-12.31,8.9-27.25,13.45-42.3,13.45Z"></path>
    <path d="m240.77,268.95H84.88c-3.61,0-6.54-2.93-6.54-6.54s2.93-6.54,6.54-6.54h155.89c3.61,0,6.54,2.93,6.54,6.54s-2.93,6.54-6.54,6.54Z"></path>
    <path d="m240.77,390.34H84.88c-3.61,0-6.54-2.93-6.54-6.54s2.93-6.54,6.54-6.54h155.89c3.61,0,6.54,2.93,6.54,6.54s-2.93,6.54-6.54,6.54Z"></path>
    <path d="m394.03,466h-92.77c-17.76,0-32.21-15.34-32.29-34.23l-7.26-168.98c-.08-1.78.58-3.52,1.81-4.8,1.23-1.29,2.94-2.02,4.72-2.02h158.87c1.78,0,3.49.73,4.72,2.02,1.23,1.29,1.89,3.02,1.81,4.8l-7.26,168.98c-.07,18.89-14.56,34.23-32.36,34.23Zm-118.96-196.95l6.97,162.29c0,.09,0,.19,0,.28,0,11.74,8.62,21.3,19.21,21.3h92.77c10.63,0,19.28-9.55,19.28-21.3,0-.09,0-.19,0-.28l6.97-162.29h-145.22Z"></path>
    <path d="m161.14,370.44c-2.67,0-5.19-1.04-7.08-2.93l-31.93-31.93c-3.9-3.91-3.9-10.26,0-14.16l34.38-34.39c2.55-2.55,6.69-2.55,9.25,0l34.38,34.38c1.89,1.89,2.93,4.41,2.93,7.08s-1.04,5.19-2.93,7.08l-31.93,31.93c-1.89,1.89-4.41,2.93-7.08,2.93Zm-27.59-41.94l27.59,27.59,27.59-27.59-27.59-27.59-27.59,27.59Z"></path>
    <path d="m163.19,347.81c-10.65,0-19.31-8.66-19.31-19.31,0-3.61,2.93-6.54,6.54-6.54s6.54,2.93,6.54,6.54,2.8,6.23,6.23,6.23c3.61,0,6.54,2.93,6.54,6.54s-2.93,6.54-6.54,6.54Z"></path>
    <path d="m197.56,450.8c-3.61,0-6.54-2.93-6.54-6.54s2.93-6.54,6.54-6.54c8.83,0,16.01-7.18,16.01-16.01,0-3.61,2.93-6.54,6.54-6.54s6.54,2.93,6.54,6.54c0,16.04-13.05,29.09-29.09,29.09Z"></path>
    <path d="m371.98,450.8c-3.61,0-6.54-2.93-6.54-6.54s2.93-6.54,6.54-6.54c12.72,0,23.08-10.35,23.08-23.08,0-3.61,2.93-6.54,6.54-6.54s6.54,2.93,6.54,6.54c0,19.94-16.22,36.16-36.16,36.16Z"></path>
  </g>
</symbol><symbol id="i011_drink-19" xmlns="http://www.w3.org/2000/svg" viewBox="0 0 512 512">
  <path d="m119.14,407.94v33.94c0,13.32,10.79,24.11,24.11,24.11h192.79c13.32,0,24.11-10.79,24.11-24.11v-33.94H119.14Zm225.93,33.94c0,4.98-4.05,9.02-9.02,9.02h-192.79c-4.98,0-9.02-4.05-9.02-9.02v-18.86h210.84v18.86Z"></path>
  <path d="m395.15,397.68h-47.73v-18.76h47.73c7.76,0,14.07-6.31,14.07-14.07v-152.76c0-7.76-6.31-14.07-14.07-14.07h-50.08v-18.76h50.08c18.1,0,32.83,14.73,32.83,32.83v152.76c0,18.1-14.73,32.83-32.83,32.83h0Z"></path>
  <path d="m180.99,207.36c-6.83,0-12.36,5.53-12.36,12.36s5.53,12.36,12.36,12.36,12.36-5.53,12.36-12.36-5.53-12.36-12.36-12.36Zm0,19.13c-3.73,0-6.77-3.04-6.77-6.77s3.04-6.77,6.77-6.77,6.77,3.04,6.77,6.77-3.04,6.77-6.77,6.77Z"></path>
  <path d="m268.03,301.06c-6.83,0-12.36,5.53-12.36,12.36s5.53,12.36,12.36,12.36,12.36-5.53,12.36-12.36-5.53-12.36-12.36-12.36Zm0,19.13c-3.73,0-6.77-3.04-6.77-6.77s3.04-6.77,6.77-6.77,6.77,3.04,6.77,6.77-3.04,6.77-6.77,6.77Z"></path>
  <path d="m233.13,197.98c-5.18,0-9.39,4.2-9.39,9.39s4.2,9.39,9.39,9.39,9.39-4.2,9.39-9.39-4.2-9.39-9.39-9.39Zm0,16.54c-3.94,0-7.15-3.21-7.15-7.15s3.21-7.15,7.15-7.15,7.15,3.21,7.15,7.15-3.21,7.15-7.15,7.15Z"></path>
  <path d="m294.44,191.46c-6.83,0-12.36,5.53-12.36,12.36s5.53,12.36,12.36,12.36,12.36-5.53,12.36-12.36-5.53-12.36-12.36-12.36Zm0,19.13c-3.73,0-6.77-3.04-6.77-6.77s3.04-6.77,6.77-6.77,6.77,3.04,6.77,6.77-3.04,6.77-6.77,6.77Z"></path>
  <path d="m339.75,192.73c-.57,0-1.13-.03-1.7-.06v210.95h-192.58v-213.02c-6.64-4.79-11.77-11.54-14.54-19.4-.18.02-.37.03-.55.04v247.46h222.75v-228.26c-4.19,1.47-8.7,2.28-13.39,2.28Z"></path>
  <path d="m350.62,115.23c-4.26-17.79-20.26-31.02-39.36-31.02-.55,0-1.09.02-1.64.04-5.71-22-25.7-38.25-49.49-38.25-17.72,0-33.33,9.02-42.5,22.71-5.26-2.53-11.15-3.95-17.37-3.95-14.51,0-27.23,7.72-34.26,19.27-3.41-1.7-7.25-2.66-11.32-2.66-8.81,0-16.57,4.49-21.12,11.31-2.92-.67-5.95-1.03-9.07-1.03-22.36,0-40.48,18.12-40.48,40.48s18.12,40.48,40.48,40.48c1.34,0,2.66-.07,3.97-.2,5.55,15.74,20.54,27.02,38.18,27.02,16.38,0,30.47-9.73,36.85-23.72,7.4,8,17.97,13.01,29.73,13.01,8.44,0,16.28-2.59,22.76-7,5.35,2.61,11.36,4.08,17.72,4.08,11.19,0,21.32-4.54,28.65-11.88,7.03,11.98,20.04,20.02,34.93,20.02,22.36,0,40.48-18.12,40.48-40.48,0-17.69-11.35-32.71-27.15-38.22Zm-13.33,63.62c-8.96,0-17.36-4.82-21.92-12.57l-9.89-16.84-13.8,13.82c-4.8,4.81-11.18,7.45-17.97,7.45-3.9,0-7.63-.86-11.11-2.55l-7.87-3.84-7.24,4.93c-4.21,2.87-9.14,4.39-14.27,4.39-7.16,0-13.78-2.9-18.65-8.17l-15.4-16.66-9.41,20.64c-4.12,9.04-13.2,14.89-23.12,14.89-10.75,0-20.38-6.81-23.95-16.95l-3.93-11.14-11.76,1.14c-.86.08-1.7.13-2.51.13-14,0-25.4-11.39-25.4-25.4s11.39-25.4,25.4-25.4c1.89,0,3.81.22,5.7.65l10.14,2.32,5.77-8.65c1.92-2.88,5.13-4.6,8.57-4.6,1.61,0,3.15.36,4.58,1.07l12.41,6.2,7.21-11.85c4.58-7.53,12.57-12.03,21.37-12.03,3.8,0,7.44.83,10.82,2.46l11.8,5.68,7.29-10.88c6.72-10.03,17.92-16.02,29.96-16.02,16.42,0,30.77,11.08,34.88,26.95l3.05,11.78,12.16-.49c.34-.01.68-.03,1.03-.03,11.79,0,21.94,8,24.69,19.45l1.92,8.02,7.78,2.71c10.19,3.55,17.03,13.19,17.03,23.98,0,14-11.39,25.4-25.4,25.4Z"></path>
  <rect x="119.21" y="310.19" width="137.11" height="6.47" transform="translate(501.19 125.66) rotate(90)"></rect>
  <rect x="174.32" y="310.19" width="137.11" height="6.47" transform="translate(556.31 70.55) rotate(90)"></rect>
  <rect x="232.65" y="310.19" width="137.11" height="6.47" transform="translate(614.63 12.22) rotate(90)"></rect>
</symbol><symbol id="i011_drink-20" xmlns="http://www.w3.org/2000/svg" viewBox="0 0 512 512">
  <path d="m333.61,163.76h-195.56c-.51,0-1.01-.08-1.48-.22h-41.15c-1.85,0-3.56-.99-4.48-2.59-2.31-4.04-3.49-8.3-3.49-12.66,0-13.14,10.08-24.09,23.29-26.26-.23-1.36-.35-2.74-.35-4.12,0-14.7,12.6-26.65,28.09-26.65,1.55,0,3.12.13,4.68.4,2.9-6.78,8.13-12.52,14.89-16.17,12.43-6.73,27.69-5.48,38.66,2.75,1.27-.94,2.6-1.78,3.97-2.53,12.69-6.86,28.22-5.46,39.22,3.16.39-.24.79-.46,1.19-.68,14.98-8.11,34.24-3.22,42.94,10.9.14.23.28.46.42.7,13.99-4.51,29.63.75,37.34,13.27,3.07,4.98,4.54,10.69,4.26,16.42,5.06,2.6,9.32,6.48,12.24,11.22h0c5.87,9.53,5.73,21.31-.36,30.73-.95,1.47-2.58,2.36-4.33,2.36Zm-194.18-10.31h191.15c2.57-5.58,2.23-12.03-1.06-17.37-2.44-3.96-6.16-6.93-10.77-8.58-2.4-.86-3.81-3.35-3.31-5.86.9-4.52.04-9.21-2.41-13.19-5.74-9.31-18.66-12.65-28.8-7.45-1.32.68-2.87.75-4.25.2-1.38-.55-2.46-1.67-2.96-3.07-.45-1.28-1.04-2.5-1.75-3.65-5.88-9.54-19-12.79-29.25-7.23-1.11.6-2.18,1.31-3.25,2.18-2.06,1.66-5.05,1.49-6.9-.4-7.68-7.79-20.4-9.59-30.24-4.26-1.9,1.03-3.69,2.35-5.31,3.93-2.02,1.96-5.24,1.95-7.24-.04-7.7-7.65-20.34-9.38-30.08-4.11-5.87,3.18-9.93,8.33-11.42,14.5-.34,1.42-1.27,2.62-2.55,3.32-1.29.7-2.8.82-4.17.33-12.35-4.34-24.11,4.3-24.11,15.2,0,2.28.56,4.57,1.68,6.79.84,1.67.7,3.67-.35,5.22-1.06,1.55-2.88,2.41-4.73,2.23l-.93-.11c-.27-.04-.54-.08-.82-.08-9.8,0-17.78,7.33-17.78,16.34,0,1.66.3,3.31.9,4.94h39.26c.51,0,1.01.08,1.48.22Z"></path>
  <path d="m413.57,395.18h-60.91c-2.85,0-5.16-2.31-5.16-5.16v-30.94c0-2.85,2.31-5.16,5.16-5.16h40.28v-115.11h-40.28c-2.85,0-5.16-2.31-5.16-5.16v-30.94c0-2.85,2.31-5.16,5.16-5.16h60.91c11.38,0,20.63,9.25,20.63,20.63v156.37c0,11.38-9.25,20.63-20.63,20.63Zm-55.75-10.31h55.75c5.69,0,10.31-4.63,10.31-10.31v-156.37c0-5.69-4.63-10.31-10.31-10.31h-55.75v20.63h40.28c2.85,0,5.16,2.31,5.16,5.16v125.42c0,2.85-2.31,5.16-5.16,5.16h-40.28v20.63Z"></path>
  <path d="m333.93,440.86H101.69c-13.17,0-23.89-10.72-23.89-23.89v-239.63c0-13.17,10.72-23.89,23.89-23.89h232.24c13.17,0,23.89,10.72,23.89,23.89v239.63c0,13.17-10.72,23.89-23.89,23.89ZM101.69,163.76c-7.48,0-13.57,6.09-13.57,13.57v239.63c0,7.49,6.09,13.57,13.57,13.57h232.24c7.48,0,13.57-6.09,13.57-13.57v-239.63c0-7.49-6.09-13.57-13.57-13.57H101.69Z"></path>
  <path d="m142.65,405.61h-3.97c-13.11,0-23.77-10.66-23.77-23.77v-163.51c0-13.11,10.66-23.77,23.77-23.77h3.97c13.1,0,23.77,10.66,23.77,23.77v163.51c0,13.11-10.66,23.77-23.77,23.77Zm-3.97-200.73c-7.42,0-13.46,6.03-13.46,13.45v163.51c0,7.42,6.04,13.45,13.46,13.45h3.97c7.42,0,13.45-6.03,13.45-13.45v-163.51c0-7.42-6.04-13.45-13.45-13.45h-3.97Z"></path>
  <path d="m220.56,405.61h-3.97c-13.11,0-23.77-10.66-23.77-23.77v-163.51c0-13.11,10.66-23.77,23.77-23.77h3.97c13.1,0,23.77,10.66,23.77,23.77v163.51c0,13.11-10.66,23.77-23.77,23.77Zm-3.97-200.73c-7.42,0-13.46,6.03-13.46,13.45v163.51c0,7.42,6.04,13.45,13.46,13.45h3.97c7.42,0,13.45-6.03,13.45-13.45v-163.51c0-7.42-6.04-13.45-13.45-13.45h-3.97Z"></path>
  <path d="m298.46,405.61h-3.97c-13.1,0-23.77-10.66-23.77-23.77v-163.51c0-13.11,10.66-23.77,23.77-23.77h3.97c13.1,0,23.77,10.66,23.77,23.77v163.51c0,13.11-10.66,23.77-23.77,23.77Zm-3.97-200.73c-7.42,0-13.45,6.03-13.45,13.45v163.51c0,7.42,6.04,13.45,13.45,13.45h3.97c7.42,0,13.45-6.03,13.45-13.45v-163.51c0-7.42-6.04-13.45-13.45-13.45h-3.97Z"></path>
  <path d="m129.33,144.33c0-2.85,2.3-5.16,5.16-5.16h0c2.85,0,5.16,2.3,5.16,5.16h0c0,2.85-2.3,5.16-5.16,5.16h0c-2.85,0-5.16-2.3-5.16-5.16Z"></path>
  <path d="m170.04,102.66c0-2.85,2.3-5.16,5.16-5.16h0c2.85,0,5.16,2.3,5.16,5.16h0c0,2.85-2.3,5.16-5.16,5.16h0c-2.85,0-5.16-2.3-5.16-5.16Z"></path>
  <path d="m244.71,110.32c-1.99-2.03-1.99-5.26,0-7.29h0c2.03-2.03,5.3-2.03,7.29,0h0c2.03,2.03,2.03,5.26,0,7.29h0c-1,1-2.3,1.51-3.64,1.51h0c-1.31,0-2.65-.52-3.65-1.51Z"></path>
  <path d="m209.89,130.75c0-2.85,2.3-5.16,5.16-5.16h0c2.85,0,5.16,2.3,5.16,5.16h0c0,2.85-2.3,5.16-5.16,5.16h0c-2.85,0-5.16-2.3-5.16-5.16Z"></path>
  <path d="m170.04,134.05c0-2.85,2.3-5.16,5.16-5.16h0c2.85,0,5.16,2.3,5.16,5.16h0c0,2.85-2.3,5.16-5.16,5.16h0c-2.85,0-5.16-2.3-5.16-5.16Z"></path>
  <path d="m254.69,144.33c0-2.85,2.3-5.16,5.16-5.16h0c2.85,0,5.16,2.3,5.16,5.16h0c0,2.85-2.3,5.16-5.16,5.16h0c-2.85,0-5.16-2.3-5.16-5.16Z"></path>
  <path d="m282.74,122.74c0-2.85,2.3-5.16,5.16-5.16h0c2.85,0,5.16,2.3,5.16,5.16h0c0,2.82-2.3,5.16-5.16,5.16h0c-2.85,0-5.16-2.34-5.16-5.16Z"></path>
  <path d="m311.93,141.65c0-2.85,2.31-5.16,5.16-5.16h0c2.82,0,5.16,2.3,5.16,5.16h0c0,2.82-2.34,5.16-5.16,5.16h0c-2.85,0-5.16-2.34-5.16-5.16Z"></path>
</symbol><symbol id="i011_drink-21" xmlns="http://www.w3.org/2000/svg" viewBox="0 0 512 512">
  <path d="m238.91,161.09c-9.79,0-14.89-2.7-19.4-5.08-3.92-2.07-7.02-3.71-13.86-3.71s-9.95,1.64-13.87,3.71c-4.51,2.38-9.62,5.08-19.41,5.08s-14.9-2.7-19.4-5.08c-3.92-2.07-7.02-3.71-13.87-3.71s-9.95,1.64-13.87,3.71c-4.51,2.38-9.62,5.08-19.4,5.08s-14.9-2.7-19.4-5.08c-3.92-2.07-7.02-3.71-13.87-3.71-3.27,0-5.93-2.66-5.93-5.93s2.65-5.93,5.93-5.93c9.79,0,14.9,2.7,19.4,5.08,3.92,2.07,7.02,3.71,13.87,3.71s9.95-1.64,13.87-3.71c4.51-2.38,9.62-5.08,19.4-5.08s14.9,2.7,19.4,5.08c3.92,2.07,7.02,3.71,13.87,3.71s9.95-1.64,13.87-3.71c4.51-2.38,9.62-5.08,19.41-5.08s14.89,2.7,19.4,5.08c3.92,2.07,7.02,3.71,13.86,3.71s9.96-1.64,13.88-3.71c4.51-2.38,9.62-5.08,19.41-5.08,3.27,0,5.93,2.66,5.93,5.93s-2.65,5.93-5.93,5.93c-6.85,0-9.96,1.64-13.88,3.71-4.51,2.38-9.62,5.08-19.41,5.08Z"></path>
  <path d="m173.24,359.84h0c-44.93,0-83.73-16.6-106.46-45.55-19.12-24.35-25.32-55.49-17.45-87.67,4.91-23.86,9.95-53.78,14.84-82.71,4.9-29.05,9.97-59.09,14.97-83.39l.97-4.73h186.25l.97,4.73c5,24.28,10.06,54.3,14.96,83.34,4.88,28.95,9.94,58.89,14.89,82.97,7.82,31.98,1.62,63.12-17.5,87.47-22.73,28.94-61.53,45.55-106.45,45.55ZM89.79,67.65c-4.65,23.21-9.36,51.15-13.93,78.23-4.9,29.04-9.97,59.06-14.96,83.34-7.03,28.78-1.61,56.32,15.21,77.75,20.47,26.07,55.87,41.02,97.13,41.02h0c41.26,0,76.66-14.95,97.12-41.01,16.82-21.42,22.24-48.96,15.26-77.54-5.05-24.5-10.12-54.55-15.02-83.6-4.57-27.06-9.28-54.99-13.92-78.19H89.79Z"></path>
  <path d="m193.66,326.61c-2.89,0-5.42-2.12-5.86-5.06-.48-3.24,1.76-6.25,5-6.73,21.94-3.23,38.23-12.15,48.4-26.48,16.04-22.61,14.31-53.88,10.03-76.12-.62-3.22,1.49-6.32,4.7-6.94,3.22-.62,6.32,1.49,6.94,4.7,4.72,24.51,6.47,59.19-12,85.22-12.12,17.08-31.08,27.63-56.34,31.36-.29.04-.58.06-.87.06Z"></path>
  <rect x="166.68" y="353.88" width="11.86" height="68.8"></rect>
  <path d="m266.63,455.48H79.84v-6.34c0-17.85,14.53-32.38,32.38-32.38h122.02c17.86,0,32.39,14.53,32.39,32.38v6.34Zm-174.18-11.86h161.57c-2.42-8.65-10.37-15.01-19.78-15.01h-122.02c-9.41,0-17.36,6.36-19.77,15.01Z"></path>
  <path d="m426.21,282.58c-6.49,0-10-1.8-12.82-3.24-2.28-1.17-3.79-1.94-7.42-1.94s-5.14.77-7.42,1.94c-2.82,1.44-6.33,3.24-12.83,3.24s-10-1.8-12.82-3.24c-2.28-1.17-3.79-1.94-7.42-1.94s-5.14.77-7.42,1.94c-2.82,1.44-6.33,3.24-12.82,3.24s-10-1.8-12.82-3.24c-2.28-1.17-3.79-1.94-7.42-1.94-3.27,0-5.93-2.66-5.93-5.93s2.65-5.93,5.93-5.93c6.49,0,10,1.8,12.82,3.24,2.28,1.17,3.79,1.94,7.42,1.94s5.14-.77,7.42-1.94c2.82-1.44,6.33-3.24,12.82-3.24s10,1.8,12.82,3.24c2.28,1.17,3.79,1.94,7.42,1.94s5.14-.77,7.42-1.94c2.82-1.44,6.33-3.24,12.83-3.24s10,1.8,12.82,3.24c2.28,1.17,3.79,1.94,7.41,1.94s5.14-.77,7.43-1.94c2.82-1.44,6.34-3.24,12.83-3.24,3.28,0,5.93,2.66,5.93,5.93s-2.65,5.93-5.93,5.93c-3.64,0-5.14.77-7.43,1.94-2.82,1.44-6.34,3.24-12.83,3.24Z"></path>
  <path d="m386.25,399.8c-28.56,0-53.08-10.44-67.26-28.63-11.56-14.84-15.25-33.66-10.37-53,2.95-13.94,6.02-31.57,8.99-48.61,2.99-17.16,6.07-34.89,9.12-49.26l1-4.7h117.04l1,4.7c3.05,14.36,6.13,32.09,9.12,49.24,2.97,17.06,6.04,34.69,9.05,48.85,4.82,19.12,1.14,37.94-10.42,52.78-14.18,18.19-38.69,28.63-67.26,28.63Zm-48.89-172.34c-2.69,13.25-5.42,28.92-8.07,44.13-2.99,17.16-6.07,34.89-9.12,49.26-4.07,16.16-1.22,30.97,8.18,43.03,11.92,15.29,33.02,24.06,57.91,24.06s45.99-8.77,57.9-24.06c9.4-12.06,12.25-26.87,8.23-42.81-3.1-14.59-6.19-32.34-9.18-49.5-2.65-15.2-5.37-30.86-8.06-44.11h-97.79Z"></path>
  <path d="m398.68,380.2c-2.9,0-5.44-2.13-5.86-5.09-.46-3.24,1.79-6.24,5.03-6.71,12.93-1.85,22.42-6.92,28.21-15.09,8.92-12.6,7.85-30.08,5.38-42.52-.64-3.21,1.45-6.33,4.66-6.97,3.2-.63,6.33,1.45,6.97,4.66,2.93,14.72,4.03,35.65-7.33,51.68-7.74,10.93-19.92,17.65-36.2,19.98-.29.04-.57.06-.85.06Z"></path>
  <rect x="379.94" y="393.85" width="11.86" height="40.58"></rect>
  <path d="m445.39,456.21h-118.28v-8.39c0-13.2,10.74-23.94,23.94-23.94h70.4c13.2,0,23.94,10.74,23.94,23.94v8.39Zm-105.92-11.86h93.55c-1.49-4.98-6.12-8.62-11.58-8.62h-70.4c-5.46,0-10.08,3.64-11.58,8.62Z"></path>
</symbol><symbol id="i011_drink-22" xmlns="http://www.w3.org/2000/svg" viewBox="0 0 512 512">
  <path d="m395.68,313.42h-26.24c-3.41,0-6.18-2.77-6.18-6.18v-153.97c0-3.41,2.77-6.18,6.18-6.18h26.24c3.41,0,6.18,2.77,6.18,6.18v153.97c0,3.41-2.77,6.18-6.18,6.18Zm-20.05-12.36h13.87v-141.61h-13.87v141.61Z"></path>
  <path d="m466,283.38h-12.36v-24.74c0-14.48-12.17-26.26-27.13-26.26h-30.42v-12.36h30.42c21.78,0,39.49,17.32,39.49,38.62v24.74Z"></path>
  <rect x="425.65" y="198.97" width="12.36" height="23.85"></rect>
  <path d="m445.95,205.15h-30.39c-3.41,0-6.18-2.77-6.18-6.18s2.77-6.18,6.18-6.18h30.39c3.41,0,6.18,2.77,6.18,6.18s-2.77,6.18-6.18,6.18Z"></path>
  <path d="m369.45,187.04c-14.86-2.16-30.01-4-45.37-5.52,15.36,1.52,30.52,3.37,45.37,5.52Z"></path>
  <path d="m52.18,273.47c16.33,2.37,33.01,4.36,49.94,5.97-16.93-1.61-33.62-3.6-49.94-5.97Z"></path>
  <path d="m369.45,316.68c-5.57,1.62-11.2,3.12-16.85,4.56,5.65-1.44,11.28-2.94,16.85-4.56Z"></path>
  <path d="m52.18,316.68c12.24,3.56,24.69,6.69,37.29,9.38-12.6-2.7-25.05-5.82-37.29-9.38Z"></path>
  <path d="m298.39,134.49c-.31,0-.62-.02-.92-.07-55.12-8.31-113.48-8.54-168.73-.67-1.8.26-3.57-.28-4.93-1.45-1.35-1.17-2.13-2.88-2.13-4.67v-51.31c0-2.92,2.04-5.43,4.89-6.04,56.72-12.12,116.61-11.76,173.18,1.03,2.82.64,4.82,3.14,4.82,6.03v50.98c0,1.8-.78,3.51-2.15,4.68-1.13.97-2.56,1.5-4.03,1.5Zm-87.61-18.84c27.37,0,54.74,1.84,81.43,5.52v-38.87c-51.78-11.01-106.24-11.34-158.16-.95v39.2c25.19-3.27,50.96-4.9,76.73-4.9Z"></path>
  <path d="m52.18,150.01c-1.32,0-2.63-.42-3.71-1.24-1.56-1.17-2.47-3-2.47-4.94v-43.21c0-2.46,1.46-4.68,3.71-5.67,16.43-7.16,33.49-13.28,50.72-18.18,1.85-.52,3.87-.16,5.42,1.01,1.55,1.17,2.45,3,2.45,4.93v49.18c0,2.97-2.11,5.52-5.03,6.07-16.78,3.18-33.39,7.15-49.37,11.8-.57.16-1.15.25-1.73.25Zm6.18-45.32v30.98c12.28-3.36,24.88-6.33,37.58-8.86v-35.81c-12.73,3.92-25.33,8.51-37.58,13.7Z"></path>
  <path d="m369.45,150.01c-.58,0-1.16-.08-1.72-.25-14.57-4.23-29.66-7.9-44.85-10.92-2.89-.57-4.98-3.11-4.98-6.06v-48.74c0-1.95.92-3.79,2.49-4.96,1.57-1.16,3.59-1.52,5.46-.97,15.62,4.65,31.12,10.31,46.08,16.83,2.25.98,3.71,3.21,3.71,5.67v43.21c0,1.94-.91,3.77-2.47,4.94-1.08.81-2.39,1.24-3.71,1.24Zm-39.19-22.28c11.13,2.32,22.19,4.97,33.01,7.94v-30.98c-10.79-4.57-21.85-8.68-33.01-12.26v35.3Z"></path>
  <path d="m52.18,193.22c-1.48,0-2.91-.53-4.04-1.51-1.36-1.17-2.14-2.88-2.14-4.67v-43.21c0-2.75,1.81-5.17,4.45-5.94,16.36-4.75,33.35-8.81,50.52-12.07,1.81-.34,3.68.14,5.09,1.31,1.42,1.17,2.24,2.92,2.24,4.76v49.18c0,3.19-2.42,5.85-5.6,6.15-16.89,1.6-33.59,3.6-49.64,5.93-.3.04-.6.06-.89.06Zm6.18-44.73v31.43c12.26-1.69,24.85-3.18,37.58-4.46v-36.06c-12.73,2.6-25.33,5.64-37.58,9.08Z"></path>
  <path d="m369.45,193.22c-.29,0-.59-.02-.89-.06-14.63-2.13-29.8-3.97-45.09-5.49-3.16-.31-5.57-2.97-5.57-6.15v-48.74c0-1.85.83-3.6,2.26-4.78,1.43-1.17,3.32-1.65,5.13-1.29,15.54,3.08,30.98,6.84,45.89,11.17,2.64.77,4.46,3.19,4.46,5.94v43.21c0,1.79-.78,3.5-2.14,4.67-1.13.98-2.57,1.51-4.04,1.51Zm-39.19-17.29c11.15,1.17,22.2,2.5,33.01,3.99v-31.43c-10.8-3.03-21.86-5.76-33.01-8.13v35.57Z"></path>
  <path d="m369.45,150.01c-.57,0-1.15-.08-1.73-.25-14.57-4.23-29.66-7.9-44.85-10.92-2.94-.58-4.98-3.17-4.98-6.06,0-.4.04-.8.12-1.21.66-3.35,3.92-5.52,7.27-4.86,15.54,3.08,30.98,6.84,45.89,11.17,2.7.78,4.46,3.25,4.46,5.93,0,.57-.08,1.15-.25,1.73-.78,2.7-3.25,4.46-5.93,4.46Z"></path>
  <path d="m298.39,185.46c-.15,0-.31,0-.46-.02-55.41-4.18-114.06-4.29-169.62-.34-1.7.11-3.4-.47-4.65-1.64-1.26-1.17-1.97-2.81-1.97-4.52v-51.31c0-3.08,2.26-5.69,5.31-6.12,56.44-8.04,116.02-7.8,172.32.68,3.02.46,5.26,3.05,5.26,6.11v50.98c0,1.72-.72,3.36-1.98,4.53-1.15,1.06-2.65,1.65-4.2,1.65Zm-87.61-15.6c27.37,0,54.74.93,81.43,2.77v-38.99c-51.8-7.3-106.25-7.52-158.16-.63v39.31c25.19-1.64,50.96-2.46,76.73-2.46Z"></path>
  <path d="m298.39,236.44H127.87c-3.41,0-6.18-2.77-6.18-6.18v-51.31c0-3.24,2.51-5.93,5.74-6.16,56.15-4,115.43-3.88,171.43.34,3.23.24,5.72,2.93,5.72,6.16v50.97c0,3.41-2.77,6.18-6.18,6.18Zm-164.34-12.36h158.16v-39.05c-51.81-3.64-106.22-3.74-158.16-.32v39.36Z"></path>
  <path d="m102.12,236.44h-49.94c-3.41,0-6.18-2.77-6.18-6.18v-43.21c0-3.07,2.25-5.68,5.29-6.12,16.25-2.36,33.16-4.38,50.25-6,1.72-.17,3.46.41,4.74,1.58,1.29,1.17,2.02,2.83,2.02,4.57v49.18c0,3.41-2.77,6.18-6.18,6.18Zm-43.76-12.36h37.58v-36.18c-12.74,1.29-25.33,2.8-37.58,4.51v31.67Z"></path>
  <path d="m369.45,236.44h-45.37c-3.41,0-6.18-2.77-6.18-6.18v-48.73c0-1.74.74-3.41,2.03-4.58,1.3-1.17,2.99-1.74,4.76-1.57,15.43,1.53,30.79,3.4,45.65,5.56,3.04.44,5.29,3.05,5.29,6.12v43.21c0,3.41-2.77,6.18-6.18,6.18Zm-39.19-12.36h33.01v-31.67c-10.82-1.51-21.88-2.86-33.01-4.04v35.71Z"></path>
  <path d="m324.08,285.17c-1.52,0-3.01-.57-4.15-1.6-1.3-1.17-2.03-2.83-2.03-4.58v-48.74c0-3.41,2.77-6.18,6.18-6.18h45.37c3.41,0,6.18,2.77,6.18,6.18v43.21c0,3.07-2.25,5.68-5.29,6.12-14.8,2.15-30.16,4.02-45.65,5.56-.21.02-.41.03-.61.03Zm6.18-48.74v35.71c11.17-1.18,22.22-2.54,33.01-4.04v-31.67h-33.01Z"></path>
  <path d="m210.77,290.65c-28.03,0-56.06-.97-83.34-2.91-3.24-.23-5.74-2.92-5.74-6.16v-51.32c0-3.41,2.77-6.18,6.18-6.18h170.52c3.41,0,6.18,2.77,6.18,6.18v50.98c0,3.23-2.49,5.92-5.72,6.16-28.79,2.17-58.44,3.26-88.08,3.26Zm87.62-9.42h.04-.04Zm-164.34-5.43c51.92,3.42,106.35,3.31,158.16-.32v-39.05h-158.16v39.36Z"></path>
  <path d="m102.12,285.61c-.19,0-.39,0-.58-.03-17.05-1.62-33.96-3.64-50.25-6-3.04-.44-5.29-3.05-5.29-6.12v-43.21c0-3.41,2.77-6.18,6.18-6.18h49.94c3.41,0,6.18,2.77,6.18,6.18v49.18c0,1.74-.73,3.4-2.02,4.57-1.14,1.04-2.63,1.61-4.16,1.61Zm-43.76-17.51c12.27,1.71,24.87,3.23,37.58,4.51v-36.18h-37.58v31.67Z"></path>
  <path d="m210.78,344.86c-28.18,0-56.35-1.95-83.79-5.86-3.05-.43-5.31-3.04-5.31-6.12v-51.31c0-1.72.71-3.35,1.97-4.52,1.26-1.17,2.95-1.76,4.65-1.64,55.55,3.95,114.2,3.84,169.62-.34,1.7-.14,3.4.46,4.67,1.63,1.26,1.17,1.98,2.81,1.98,4.53v50.98c0,3.06-2.24,5.66-5.26,6.11-28.93,4.36-58.74,6.54-88.53,6.54Zm-76.73-17.37c51.92,6.88,106.37,6.67,158.16-.63v-38.99c-51.83,3.59-106.22,3.7-158.16.31v39.31Z"></path>
  <path d="m324.08,333.91c-1.42,0-2.81-.49-3.92-1.4-1.43-1.17-2.26-2.93-2.26-4.78v-48.74c0-3.18,2.41-5.84,5.57-6.15,15.31-1.52,30.48-3.37,45.09-5.49,1.79-.26,3.58.27,4.93,1.44,1.36,1.17,2.14,2.88,2.14,4.67v43.21c0,2.75-1.81,5.17-4.45,5.93-5.11,1.48-10.52,2.95-17.04,4.61-9.82,2.5-19.53,4.71-28.85,6.56-.4.08-.8.12-1.2.12Zm6.18-49.33v35.57c6.81-1.46,13.78-3.1,20.81-4.89,4.53-1.15,8.5-2.21,12.2-3.24v-31.43c-10.8,1.49-21.86,2.82-33.01,3.99Z"></path>
  <path d="m324.07,285.17c-3.14,0-5.83-2.38-6.14-5.57-.02-.21-.03-.42-.03-.62,0-3.14,2.38-5.82,5.57-6.14,15.31-1.52,30.48-3.37,45.09-5.49,3.36-.49,6.51,1.85,7.01,5.23.04.3.06.6.06.89,0,3.02-2.21,5.67-5.29,6.11-14.8,2.15-30.16,4.02-45.65,5.56-.21.02-.41.03-.62.03Z"></path>
  <path d="m102.12,334.79c-.38,0-.77-.04-1.15-.11-4.28-.81-8.55-1.67-12.8-2.58-12.75-2.73-25.44-5.92-37.72-9.49-2.64-.77-4.45-3.19-4.45-5.93v-43.21c0-1.79.78-3.5,2.14-4.67,1.36-1.17,3.14-1.7,4.93-1.44,16.09,2.34,32.79,4.33,49.64,5.93,3.17.3,5.6,2.97,5.6,6.15v49.18c0,1.84-.82,3.59-2.24,4.76-1.12.93-2.51,1.42-3.94,1.42Zm-43.76-22.78c10.6,2.98,21.48,5.66,32.4,8,1.73.37,3.45.73,5.18,1.08v-36.06c-12.7-1.27-25.29-2.77-37.58-4.46v31.43Z"></path>
  <path d="m324.07,333.91c-2.89,0-5.47-2.04-6.06-4.98-.08-.41-.12-.81-.12-1.21,0-2.89,2.04-5.47,4.98-6.06,9.11-1.81,18.59-3.97,28.2-6.42,3.31-.84,6.67,1.15,7.52,4.46.13.51.19,1.03.19,1.54,0,2.76-1.86,5.27-4.65,5.98-9.82,2.5-19.53,4.71-28.85,6.56-.41.08-.81.12-1.21.12Z"></path>
  <path d="m151.14,456.23h-.03l-49.03-.39c-3.4-.03-6.13-2.79-6.13-6.18v-58.34c0-3.41,2.77-6.18,6.18-6.18,1.24,0,2.39.36,3.35.99,5.35,1.64,10.77,3.16,16.21,4.56v-6.49c0-1.86.84-3.63,2.29-4.8,1.45-1.18,3.36-1.63,5.18-1.24,7.28,1.56,14.98,2.96,22.91,4.16,3.02.46,5.25,3.06,5.25,6.11v61.63c0,1.65-.66,3.23-1.83,4.39-1.16,1.15-2.72,1.79-4.35,1.79Zm-42.83-12.7l36.65.29v-50.12c-3.7-.61-7.34-1.26-10.91-1.94v6.8c0,1.89-.86,3.67-2.34,4.84-1.48,1.17-3.41,1.61-5.25,1.18-6.06-1.42-12.14-3-18.16-4.72v43.67Z"></path>
  <path d="m102.12,383.97c-.57,0-1.13-.08-1.69-.24-2.88-.82-5.75-1.71-8.61-2.6l-.6-.19c-14.31-4.45-28.28-9.63-41.51-15.39-2.25-.98-3.71-3.21-3.71-5.67v-43.21c0-1.94.91-3.78,2.47-4.94,1.55-1.17,3.57-1.54,5.44-.99,12,3.49,24.4,6.61,36.86,9.27h0c4.15.89,8.32,1.73,12.51,2.52,2.92.55,5.03,3.1,5.03,6.07v49.18c0,1.94-.91,3.76-2.45,4.93-1.09.82-2.4,1.25-3.73,1.25Zm-43.76-28.15c11.71,4.95,23.97,9.43,36.53,13.33l.6.19c.15.05.31.09.46.14v-35.77c-2.6-.52-5.18-1.05-7.77-1.6-10.03-2.15-20.03-4.58-29.82-7.26v30.97Z"></path>
  <path d="m127.87,404.74c-.47,0-.94-.05-1.4-.16-8.77-2.05-17.58-4.44-26.18-7.12-2.58-.8-4.34-3.19-4.34-5.9V68.95c0-2.71,1.76-5.1,4.35-5.9,8.62-2.68,17.43-5.08,26.17-7.12,1.83-.43,3.77,0,5.25,1.18,1.48,1.17,2.34,2.96,2.34,4.84v336.61c0,1.89-.86,3.67-2.34,4.84-1.11.88-2.46,1.34-3.84,1.34Zm-19.56-17.76c4.43,1.32,8.9,2.56,13.38,3.71V69.83c-4.47,1.15-8.95,2.39-13.38,3.71v313.45Z"></path>
  <path d="m275.12,456.23c-1.61,0-3.16-.63-4.32-1.76-1.19-1.16-1.86-2.76-1.86-4.42v-62.36c0-3.03,2.19-5.61,5.18-6.1,7.89-1.3,15.6-2.79,22.91-4.44,1.83-.42,3.75.03,5.22,1.2,1.47,1.17,2.32,2.95,2.32,4.83v6.29c5.4-1.46,10.79-3.05,16.11-4.76.97-.64,2.14-1.02,3.4-1.02,3.41,0,6.18,2.77,6.18,6.18v59.05c0,3.36-2.68,6.1-6.04,6.18l-48.95,1.12s-.09,0-.14,0Zm6.18-63.32v50.82l36.59-.84v-44.37c-5.98,1.8-12.01,3.45-18.02,4.93-1.83.45-3.79.04-5.29-1.13-1.5-1.17-2.37-2.97-2.37-4.87v-6.62c-3.57.73-7.21,1.43-10.91,2.08Z"></path>
  <path d="m210.83,399.12c-20.25,0-40.5-1.53-60.62-4.59-8.16-1.24-16.11-2.68-23.63-4.29-2.85-.61-4.89-3.13-4.89-6.04v-51.31c0-1.79.78-3.49,2.13-4.67,1.35-1.18,3.13-1.7,4.93-1.45,55.26,7.87,113.62,7.64,168.73-.67,1.78-.27,3.59.26,4.95,1.43,1.36,1.17,2.15,2.88,2.15,4.68v50.97c0,2.89-2,5.39-4.82,6.03-7.54,1.71-15.5,3.25-23.63,4.58-21.65,3.55-43.47,5.33-65.3,5.33Zm-76.78-19.96c5.81,1.16,11.85,2.21,18.02,3.15,40.53,6.16,81.6,5.92,122.05-.72,6.18-1.01,12.24-2.15,18.09-3.39v-38.86c-51.83,7.14-106.2,7.35-158.16.62v39.2Z"></path>
  <path d="m324.08,382.64c-1.32,0-2.62-.42-3.69-1.22-1.57-1.17-2.49-3-2.49-4.96v-48.73c0-2.95,2.08-5.49,4.98-6.06,9.11-1.81,18.59-3.97,28.2-6.42h0c6.27-1.6,11.71-3.07,16.65-4.5,1.88-.54,3.88-.17,5.44.99,1.56,1.17,2.47,3,2.47,4.94v43.21c0,2.46-1.46,4.68-3.71,5.67-11.8,5.14-24.18,9.83-36.81,13.92-3.08,1-6.17,1.99-9.27,2.91-.58.17-1.17.26-1.76.26Zm6.18-49.87v35.28c.35-.11.69-.22,1.04-.34,10.93-3.54,21.67-7.54,31.97-11.9v-30.99c-2.86.77-5.9,1.57-9.14,2.4h0c-8.08,2.06-16.09,3.92-23.87,5.55Z"></path>
  <path d="m298.39,403.63c-1.37,0-2.71-.45-3.81-1.31-1.5-1.17-2.37-2.97-2.37-4.87V63.06c0-1.9.87-3.7,2.37-4.87,1.49-1.17,3.44-1.59,5.3-1.13,8.74,2.16,17.52,4.67,26.11,7.47,2.55.83,4.27,3.2,4.27,5.88v319.7c0,2.68-1.72,5.05-4.27,5.88-8.59,2.8-17.38,5.31-26.11,7.47-.49.12-.99.18-1.48.18Zm6.18-332.58v318.42c4.46-1.21,8.91-2.5,13.32-3.88V74.92c-4.41-1.37-8.86-2.67-13.32-3.88Z"></path>
</symbol><symbol id="i011_drink-23" xmlns="http://www.w3.org/2000/svg" viewBox="0 0 512 512">
  <g>
    <path d="m172.86,464.02h-98.21c-13.14,0-23.84-10.69-23.84-23.84v-14.48c0-3.36,2.72-6.08,6.08-6.08h133.73c3.36,0,6.08,2.72,6.08,6.08v14.48c0,13.14-10.69,23.84-23.84,23.84Zm-109.89-32.24v8.4c0,6.44,5.24,11.68,11.68,11.68h98.21c6.44,0,11.68-5.24,11.68-11.68v-8.4H62.97Z"></path>
    <path d="m190.62,248.28H56.89c-3.36,0-6.08-2.72-6.08-6.08v-94.55c0-3.36,2.72-6.08,6.08-6.08h133.73c3.36,0,6.08,2.72,6.08,6.08v94.55c0,3.36-2.72,6.08-6.08,6.08Zm-127.65-12.16h121.57v-82.39H62.97v82.39Z"></path>
    <path d="m190.62,431.78H56.89c-3.36,0-6.08-2.72-6.08-6.08v-78.38c0-3.36,2.72-6.08,6.08-6.08h133.73c3.36,0,6.08,2.72,6.08,6.08v78.38c0,3.36-2.72,6.08-6.08,6.08Zm-127.65-12.16h121.57v-66.22H62.97v66.22Z"></path>
    <path d="m190.62,353.4H56.89c-3.36,0-6.08-2.72-6.08-6.08v-105.12c0-3.36,2.72-6.08,6.08-6.08h133.73c3.36,0,6.08,2.72,6.08,6.08v105.12c0,3.36-2.72,6.08-6.08,6.08Zm-127.65-12.16h121.57v-92.96H62.97v92.96Z"></path>
  </g>
  <path d="m199.28,353.4h-8.66c-3.36,0-6.08-2.72-6.08-6.08v-105.12c0-3.36,2.72-6.08,6.08-6.08h8.66c29.16,0,52.88,23.72,52.88,52.87v11.53c0,29.16-23.72,52.88-52.88,52.88Zm-2.58-12.16h2.58c22.45,0,40.72-18.27,40.72-40.72v-11.53c0-22.45-18.27-40.72-40.72-40.72h-2.58v92.96Z"></path>
  <path d="m82.52,409.45c-3.36,0-6.08-2.72-6.08-6.08v-15.88c0-3.36,2.72-6.08,6.08-6.08s6.08,2.72,6.08,6.08v15.88c0,3.36-2.72,6.08-6.08,6.08Z"></path>
  <path d="m111.02,415.26c-3.36,0-6.08-2.72-6.08-6.08v-8.36c0-3.36,2.72-6.08,6.08-6.08s6.08,2.72,6.08,6.08v8.36c0,3.36-2.72,6.08-6.08,6.08Z"></path>
  <path d="m109.47,390.27c-3.36,0-6.08-2.72-6.08-6.08v-20.36c0-3.36,2.72-6.08,6.08-6.08s6.08,2.72,6.08,6.08v20.36c0,3.36-2.72,6.08-6.08,6.08Z"></path>
  <path d="m142.72,411.66c-3.36,0-6.08-2.72-6.08-6.08v-30.27c0-3.36,2.72-6.08,6.08-6.08s6.08,2.72,6.08,6.08v30.27c0,3.36-2.72,6.08-6.08,6.08Z"></path>
  <path d="m171.86,409.45c-3.36,0-6.08-2.72-6.08-6.08v-19.57c0-3.36,2.72-6.08,6.08-6.08s6.08,2.72,6.08,6.08v19.57c0,3.36-2.72,6.08-6.08,6.08Z"></path>
  <path d="m412.68,365.68h-7.86c-3.36,0-6.08-2.72-6.08-6.08v-95.32c0-3.36,2.72-6.08,6.08-6.08h7.86c26.75,0,48.52,21.76,48.52,48.52v10.45c0,26.75-21.76,48.52-48.52,48.52Zm-1.78-12.16h1.78c20.05,0,36.36-16.31,36.36-36.36v-10.45c0-20.05-16.31-36.36-36.36-36.36h-1.78v83.16Z"></path>
  <path d="m388.71,466h-89.06c-12.23,0-22.18-9.95-22.18-22.18v-13.13c0-3.36,2.72-6.08,6.08-6.08h121.27c3.36,0,6.08,2.72,6.08,6.08v13.13c0,12.23-9.95,22.18-22.18,22.18Zm-99.09-29.24v7.05c0,5.53,4.5,10.03,10.03,10.03h89.06c5.53,0,10.03-4.5,10.03-10.03v-7.05h-109.11Z"></path>
  <path d="m404.82,436.76h-121.27c-3.36,0-6.08-2.72-6.08-6.08v-71.08c0-3.36,2.72-6.08,6.08-6.08h121.27c3.36,0,6.08,2.72,6.08,6.08v71.08c0,3.36-2.72,6.08-6.08,6.08Zm-115.19-12.16h109.11v-58.92h-109.11v58.92Z"></path>
  <path d="m404.82,365.68h-121.27c-3.36,0-6.08-2.72-6.08-6.08v-95.32c0-3.36,2.72-6.08,6.08-6.08h121.27c3.36,0,6.08,2.72,6.08,6.08v95.32c0,3.36-2.72,6.08-6.08,6.08Zm-115.19-12.16h109.11v-83.16h-109.11v83.16Z"></path>
  <path d="m383.87,184.62h-74.02c-1.99,0-3.86-.97-4.99-2.61-3.84-5.52-7.01-12.48-9.41-20.7-10.73-36.71,31.59-84.93,33.4-86.96,2.04-2.3,5.48-2.71,8.01-.96,2.53,1.76,3.34,5.13,1.9,7.84-.57,1.11-13.33,27.26,18.21,60.83,8.14-15.65,2.88-26.58,2.63-27.1-1.37-2.73-.51-6.08,2.01-7.79,2.53-1.71,5.92-1.31,7.94.97,1.3,1.46,31.64,36.03,23.82,62.74h0c-1.12,3.83-2.49,7.35-4.09,10.44-1.04,2.02-3.13,3.29-5.4,3.29Zm-70.7-12.16h66.8c.63-1.55,1.21-3.22,1.73-4.99h0c2.92-9.99-2.45-23.18-8.88-34.03-1.25,6.48-4.12,13.93-9.79,21.92-1.06,1.5-2.75,2.43-4.58,2.55-1.83.1-3.62-.61-4.86-1.96l3.91-4.51h-.01s-4.29,4.07-4.29,4.07c-21.56-20.63-28.3-39.75-29.44-54.13-10.39,15.87-21.85,38.7-16.65,56.52,1.66,5.66,3.69,10.54,6.06,14.56Z"></path>
  <path d="m175.48,153.73h-105.04c-2.28,0-4.37-1.27-5.41-3.3-1.54-2.99-2.86-6.36-3.92-10.01-7.5-25.64,21.55-58.74,22.79-60.13,2.04-2.3,5.48-2.71,8.01-.96,2.53,1.75,3.35,5.12,1.91,7.84-.15.29-2.47,5.15-1.54,12.87,8.1-26.52,29.34-50.7,30.48-51.99,2.05-2.3,5.48-2.71,8.01-.96,2.53,1.76,3.34,5.13,1.9,7.84-.53,1.04-12.54,25.7,17.07,57.44,7.61-14.89,2.42-25.08,2.36-25.2-1.44-2.72-.62-6.08,1.91-7.84,2.53-1.75,5.97-1.34,8.01.96,1.24,1.4,30.29,34.49,22.79,60.13-1.07,3.67-2.39,7.04-3.93,10.01-1.04,2.02-3.13,3.29-5.4,3.29Zm-101.13-12.16h97.23c.57-1.43,1.1-2.95,1.57-4.56,2.71-9.26-2.13-21.46-8.08-31.64-1.27,6.05-4.01,12.95-9.24,20.32-1.06,1.49-2.73,2.43-4.56,2.55-1.87.12-3.61-.59-4.86-1.93l3.91-4.52h-.01s-4.29,4.09-4.29,4.09c-20.22-19.35-26.82-37.33-28.1-51-8.5,13.14-17.56,31.06-16.5,46.56.11,1.63-.44,3.24-1.53,4.46-.02.02-.28.31-.31.33-1.25,1.35-3.13,2.09-4.88,1.97-1.83-.12-3.54-1.03-4.6-2.52-5.23-7.37-7.97-14.27-9.24-20.32-5.94,10.18-10.79,22.37-8.08,31.64.47,1.61.99,3.13,1.57,4.56Z"></path>
  <path d="m404.82,270.36h-121.27c-3.36,0-6.08-2.72-6.08-6.08v-85.74c0-3.36,2.72-6.08,6.08-6.08h121.27c3.36,0,6.08,2.72,6.08,6.08v85.74c0,3.36-2.72,6.08-6.08,6.08Zm-115.19-12.16h109.11v-73.58h-109.11v73.58Z"></path>
  <path d="m299,377.51c0-3.36,2.72-6.08,6.08-6.08h0c3.36,0,6.08,2.72,6.08,6.08h0c0,3.36-2.72,6.08-6.08,6.08h0c-3.36,0-6.08-2.72-6.08-6.08Z"></path>
  <path d="m299,410.83c0-3.36,2.72-6.08,6.08-6.08h0c3.36,0,6.08,2.72,6.08,6.08h0c0,3.36-2.72,6.08-6.08,6.08h0c-3.36,0-6.08-2.72-6.08-6.08Z"></path>
  <path d="m326.11,395.02c0-3.36,2.72-6.08,6.08-6.08h0c3.36,0,6.08,2.72,6.08,6.08h0c0,3.36-2.72,6.08-6.08,6.08h0c-3.36,0-6.08-2.72-6.08-6.08Z"></path>
  <path d="m350.67,377.51c0-3.36,2.72-6.08,6.08-6.08h0c3.36,0,6.08,2.72,6.08,6.08h0c0,3.36-2.72,6.08-6.08,6.08h0c-3.36,0-6.08-2.72-6.08-6.08Z"></path>
  <path d="m350.67,410.83c0-3.36,2.72-6.08,6.08-6.08h0c3.36,0,6.08,2.72,6.08,6.08h0c0,3.36-2.72,6.08-6.08,6.08h0c-3.36,0-6.08-2.72-6.08-6.08Z"></path>
  <path d="m373.98,395.02c0-3.36,2.72-6.08,6.08-6.08h0c3.36,0,6.08,2.72,6.08,6.08h0c0,3.32-2.72,6.08-6.08,6.08h0c-3.36,0-6.08-2.75-6.08-6.08Z"></path>
</symbol><symbol id="i011_drink-24" xmlns="http://www.w3.org/2000/svg" viewBox="0 0 512 512">
  <path d="m429.73,316.86c-6.8,0-10.49-1.86-13.45-3.36-2.42-1.23-4.02-2.03-7.89-2.03s-5.47.81-7.89,2.03c-2.96,1.5-6.65,3.36-13.46,3.36s-10.49-1.86-13.45-3.36c-2.42-1.23-4.02-2.03-7.89-2.03s-5.47.81-7.89,2.03c-2.96,1.5-6.65,3.36-13.45,3.36s-10.49-1.86-13.46-3.36c-2.42-1.23-4.02-2.03-7.89-2.03-3.41,0-6.17-2.76-6.17-6.17s2.76-6.17,6.17-6.17c6.81,0,10.49,1.86,13.45,3.36,2.42,1.23,4.02,2.03,7.89,2.03s5.47-.81,7.89-2.03c2.96-1.5,6.65-3.36,13.45-3.36s10.49,1.86,13.45,3.36c2.42,1.23,4.02,2.03,7.89,2.03s5.47-.81,7.89-2.03c2.96-1.5,6.65-3.36,13.46-3.36s10.49,1.86,13.45,3.36c2.42,1.23,4.02,2.03,7.88,2.03s5.47-.81,7.9-2.04c2.96-1.49,6.65-3.36,13.46-3.36,3.41,0,6.17,2.76,6.17,6.17s-2.76,6.17-6.17,6.17c-3.87,0-5.47.81-7.9,2.03-2.96,1.5-6.65,3.36-13.46,3.36Z"></path>
  <path d="m257.93,466H90.66c-23.81,0-43.19-19.37-43.19-43.19v-219.82c0-23.82,19.38-43.19,43.19-43.19,18.33,0,33.25-14.92,33.25-33.25v-22.03c0-3.41,2.76-6.17,6.17-6.17h88.44c3.41,0,6.17,2.76,6.17,6.17v22.03c0,18.34,14.92,33.25,33.25,33.25,23.81,0,43.19,19.37,43.19,43.19v219.82c0,23.82-19.38,43.19-43.19,43.19ZM136.25,110.69v15.86c0,25.14-20.45,45.59-45.59,45.59-17.01,0-30.85,13.84-30.85,30.85v219.82c0,17.01,13.84,30.85,30.85,30.85h167.28c17.01,0,30.85-13.84,30.85-30.85v-219.82c0-17.01-13.84-30.85-30.85-30.85-25.14,0-45.59-20.45-45.59-45.59v-15.86h-76.1Z"></path>
  <path d="m198.29,110.69h-47.99c-3.41,0-6.17-2.76-6.17-6.17v-52.35c0-3.41,2.76-6.17,6.17-6.17h47.99c3.41,0,6.17,2.76,6.17,6.17v52.35c0,3.41-2.76,6.17-6.17,6.17Zm-41.82-12.34h35.65v-40.01h-35.65v40.01Z"></path>
  <path d="m174.29,419.73c-41.39,0-75.07-42.44-75.07-94.61s33.68-94.61,75.07-94.61,75.07,42.44,75.07,94.61-33.68,94.61-75.07,94.61Zm0-176.87c-34.59,0-62.73,36.9-62.73,82.27s28.14,82.27,62.73,82.27,62.73-36.9,62.73-82.27-28.14-82.27-62.73-82.27Z"></path>
  <g>
    <path d="m430.44,466h-88.42c-3.07,0-5.66-2.25-6.11-5.28l-5.46-37.45c-.26-1.78.27-3.57,1.44-4.93,1.17-1.35,2.88-2.13,4.67-2.13h99.34c1.79,0,3.49.78,4.67,2.13,1.17,1.36,1.7,3.15,1.44,4.93l-5.46,37.45c-.44,3.03-3.04,5.28-6.11,5.28Zm-83.08-12.34h77.75l3.66-25.12h-85.07l3.66,25.12Z"></path>
    <path d="m435.9,428.54h-99.34c-3.06,0-5.66-2.25-6.11-5.28l-22.47-154.23c-.26-1.77.27-3.57,1.44-4.92,1.17-1.35,2.88-2.13,4.67-2.13h144.27c1.79,0,3.5.78,4.67,2.13,1.17,1.36,1.7,3.15,1.44,4.92l-22.46,154.23c-.44,3.03-3.04,5.28-6.11,5.28Zm-94-12.34h88.66l20.67-141.89h-130l20.67,141.89Z"></path>
  </g>
  <path d="m101.62,237.96c-13.99,0-25.37-11.38-25.37-25.37s11.38-25.37,25.37-25.37,25.37,11.38,25.37,25.37-11.38,25.37-25.37,25.37Zm0-38.39c-7.18,0-13.02,5.84-13.02,13.03s5.84,13.03,13.02,13.03,13.03-5.84,13.03-13.03-5.84-13.03-13.03-13.03Z"></path>
  <path d="m418.36,397.58c-.25,0-.49-.01-.74-.04-3.38-.4-5.8-3.47-5.4-6.86l6.86-57.47c.4-3.39,3.48-5.83,6.86-5.39,3.38.4,5.8,3.47,5.4,6.86l-6.86,57.47c-.37,3.14-3.04,5.44-6.12,5.44Z"></path>
</symbol><symbol id="i011_drink-25" xmlns="http://www.w3.org/2000/svg" viewBox="0 0 512 512">
  <path d="m228.84,235.15c-1.61,0-3.23-.62-4.46-1.85l-108.64-108.64c-1.8-1.8-2.34-4.51-1.37-6.87.98-2.36,3.28-3.89,5.83-3.89h217.27c2.55,0,4.85,1.54,5.83,3.89.98,2.36.44,5.07-1.37,6.87l-108.64,108.64c-1.23,1.23-2.84,1.85-4.46,1.85Zm-93.42-108.64l93.42,93.42,93.42-93.42h-186.83Z"></path>
  <path d="m283.16,466h-108.64c-2.71,0-5.12-1.74-5.98-4.31s.03-5.41,2.2-7.04l54.32-40.74c2.24-1.68,5.32-1.68,7.57,0l54.32,40.74c2.17,1.63,3.06,4.46,2.2,7.04s-3.27,4.31-5.98,4.31Zm-89.72-12.61h70.81l-35.4-26.55-35.4,26.55Z"></path>
  <path d="m337.48,167.25c-12.43,0-24.39-3.76-34.6-10.88-1.53-1.07-2.51-2.76-2.68-4.62-.16-1.86.5-3.69,1.82-5.01l20.23-20.23h-37.32c-2.87,0-5.38-1.94-6.1-4.73-1.31-5.08-1.98-10.18-1.98-15.16,0-33.43,27.2-60.62,60.62-60.62s60.62,27.2,60.62,60.62-27.2,60.62-60.62,60.62Zm-20.78-17.35c6.45,3.12,13.52,4.74,20.78,4.74,26.47,0,48.01-21.54,48.01-48.01s-21.54-48.01-48.01-48.01-48.01,21.54-48.01,48.01c0,2.39.2,4.82.59,7.27h47.42c2.55,0,4.85,1.54,5.83,3.89.98,2.36.44,5.07-1.37,6.87l-25.24,25.24Z"></path>
  <path d="m228.84,425.26c-3.48,0-6.3-2.82-6.3-6.3v-190.12c0-3.48,2.82-6.3,6.3-6.3s6.3,2.82,6.3,6.3v190.12c0,3.48-2.82,6.3-6.3,6.3Z"></path>
</symbol><symbol id="i011_drink-26" xmlns="http://www.w3.org/2000/svg" viewBox="0 0 512 512">
  <g>
    <path d="m325.53,326.81c-1.61,0-3.23-.62-4.46-1.85l-81.48-81.48c-1.8-1.8-2.34-4.52-1.37-6.87.98-2.36,3.27-3.89,5.82-3.89h162.96c2.55,0,4.85,1.54,5.82,3.89.98,2.36.44,5.07-1.37,6.87l-81.48,81.48c-1.23,1.23-2.85,1.85-4.46,1.85Zm-66.26-81.48l66.26,66.26,66.26-66.26h-132.51Z"></path>
    <path d="m366.27,466h-81.48c-2.71,0-5.12-1.74-5.98-4.31s.03-5.41,2.2-7.04l40.74-30.55c2.24-1.68,5.32-1.68,7.57,0l40.74,30.55c2.17,1.63,3.06,4.46,2.2,7.04s-3.27,4.31-5.98,4.31Zm-62.56-12.61h43.65l-21.82-16.37-21.82,16.37Z"></path>
    <path d="m407.01,275.88c-9.64,0-18.93-2.92-26.85-8.44-1.53-1.07-2.51-2.76-2.68-4.62-.16-1.86.5-3.7,1.82-5.02l12.49-12.48h-24.18c-2.88,0-5.39-1.95-6.11-4.73-1.02-3.95-1.53-7.91-1.53-11.76,0-25.94,21.1-47.04,47.04-47.04s47.04,21.1,47.04,47.04-21.1,47.04-47.04,47.04Zm-12.84-15.1c4.06,1.64,8.4,2.49,12.84,2.49,18.99,0,34.43-15.45,34.43-34.43s-15.45-34.43-34.43-34.43-34.43,15.45-34.43,34.43c0,1.27.08,2.57.24,3.88h34.2c2.55,0,4.85,1.54,5.82,3.89.98,2.36.44,5.07-1.37,6.87l-17.3,17.3Z"></path>
    <path d="m325.53,435.45c-3.48,0-6.3-2.82-6.3-6.3v-108.64c0-3.48,2.82-6.3,6.3-6.3s6.3,2.82,6.3,6.3v108.64c0,3.48-2.82,6.3-6.3,6.3Z"></path>
    <path d="m195.56,466h-109.97c-15.24,0-27.63-12.4-27.63-27.64v-186.78c0-9.89,5.3-19.03,13.85-23.96l35.31-25.75V73.64c0-15.24,12.4-27.64,27.63-27.64h11.65c15.24,0,27.64,12.4,27.64,27.64v128.23l35.31,25.75c8.56,4.93,13.85,14.07,13.85,23.96v186.78c0,15.24-12.4,27.64-27.64,27.64ZM134.74,58.61c-8.28,0-15.03,6.74-15.03,15.03v131.44c0,2.01-.96,3.91-2.59,5.09l-38.19,27.85c-.21.15-.43.29-.65.42-4.77,2.65-7.73,7.69-7.73,13.14v186.78c0,8.29,6.74,15.03,15.03,15.03h109.97c8.29,0,15.03-6.74,15.03-15.03v-186.78c0-5.45-2.96-10.49-7.73-13.14-.23-.13-.44-.26-.65-.42l-38.19-27.85c-1.63-1.19-2.59-3.08-2.59-5.09V73.64c0-8.29-6.74-15.03-15.03-15.03h-11.65Z"></path>
    <path d="m167.73,85.77h-54.32c-3.48,0-6.3-2.82-6.3-6.3s2.82-6.3,6.3-6.3h54.32c3.48,0,6.3,2.82,6.3,6.3s-2.82,6.3-6.3,6.3Z"></path>
    <path d="m167.73,112.93h-54.32c-3.48,0-6.3-2.82-6.3-6.3s2.82-6.3,6.3-6.3h54.32c3.48,0,6.3,2.82,6.3,6.3s-2.82,6.3-6.3,6.3Z"></path>
  </g>
  <path d="m342.04,245.33c-.61,0-1.23-.09-1.85-.28-3.33-1.02-5.2-4.54-4.19-7.87l31.89-104.28c1.02-3.33,4.54-5.2,7.87-4.19,3.33,1.02,5.2,4.54,4.19,7.87l-31.89,104.28c-.83,2.72-3.33,4.46-6.03,4.46Z"></path>
  <path d="m331.45,279.97c-.61,0-1.23-.09-1.85-.28-3.33-1.02-5.2-4.54-4.19-7.87l4.94-16.15c1.02-3.33,4.54-5.2,7.87-4.19,3.33,1.02,5.2,4.54,4.19,7.87l-4.94,16.15c-.83,2.72-3.33,4.46-6.03,4.46Z"></path>
</symbol>





</svg>
