<svg xmlns="http://www.w3.org/2000/svg" style="display: none;">


<symbol id="i012_drink-1" xmlns="http://www.w3.org/2000/svg" viewBox="0 0 512 512">
  <g>
    <path d="m130.1,66l27.23,350.73c1.28,16.54,14.27,29.27,29.87,29.27h137.59c15.6,0,28.59-12.73,29.87-29.27l27.23-350.73h-251.8Zm211.93,349.75c-.77,9.86-8.34,17.58-17.24,17.58h-137.59c-8.9,0-16.47-7.72-17.24-17.58l-26.17-337.08h224.41l-26.17,337.08Z"></path>
    <rect x="159.43" y="395.75" width="193.14" height="9.11"></rect>
    <rect x="98.37" y="292.14" width="177.36" height="6.22" transform="translate(463.34 81.19) rotate(84.59)"></rect>
  </g>
  <rect x="143.8" y="163.65" width="224.41" height="12.21"></rect>
</symbol><symbol id="i012_drink-10" xmlns="http://www.w3.org/2000/svg" viewBox="0 0 512 512">
  <path d="m220.49,466h-105.26c-13.87,0-25.56-10.39-27.18-24.17L49.92,117.32c-.2-1.74.35-3.49,1.51-4.8,1.16-1.31,2.83-2.06,4.59-2.06h223.69c1.75,0,3.42.75,4.59,2.06,1.16,1.31,1.71,3.06,1.51,4.8l-38.13,324.51c-1.62,13.78-13.3,24.17-27.18,24.17ZM62.92,122.74l37.33,317.66c.89,7.59,7.33,13.32,14.98,13.32h105.26c7.65,0,14.09-5.73,14.98-13.33l37.33-317.65H62.92Z"></path>
  <path d="m244.1,197.17c-8.88,0-13.63-4.52-17.09-7.83-3.14-2.99-4.82-4.43-8.61-4.43s-5.47,1.44-8.61,4.43c-3.46,3.3-8.2,7.83-17.08,7.83s-13.61-4.52-17.07-7.83c-3.13-2.99-4.8-4.43-8.59-4.43s-5.47,1.44-8.6,4.43c-3.46,3.3-8.2,7.83-17.08,7.83s-13.62-4.52-17.08-7.83c-3.13-2.99-4.81-4.43-8.6-4.43s-5.46,1.44-8.6,4.43c-3.46,3.3-8.2,7.83-17.08,7.83s-13.62-4.52-17.08-7.83c-3.13-2.99-4.81-4.43-8.59-4.43-3.39,0-6.14-2.75-6.14-6.14s2.75-6.14,6.14-6.14c8.88,0,13.61,4.52,17.07,7.83,3.13,2.99,4.81,4.43,8.6,4.43s5.46-1.44,8.6-4.43c3.46-3.3,8.2-7.83,17.08-7.83s13.62,4.52,17.08,7.83c3.13,2.99,4.81,4.43,8.6,4.43s5.47-1.44,8.6-4.43c3.46-3.3,8.2-7.83,17.08-7.83s13.61,4.52,17.07,7.83c3.13,2.99,4.8,4.43,8.59,4.43s5.47-1.44,8.6-4.43c3.46-3.3,8.2-7.83,17.08-7.83s13.62,4.52,17.09,7.83c3.14,2.99,4.82,4.43,8.62,4.43s5.48-1.44,8.62-4.43c3.46-3.3,8.2-7.83,17.09-7.83,3.39,0,6.14,2.75,6.14,6.14s-2.75,6.14-6.14,6.14c-3.8,0-5.48,1.44-8.62,4.43-3.46,3.3-8.2,7.83-17.09,7.83Z"></path>
  <path d="m159.64,310.23c-.59,0-1.2-.09-1.79-.27-3.24-.99-5.07-4.42-4.08-7.66L230.72,50.35c.8-2.62,3.1-4.43,5.98-4.35l76.03,1.31c3.39.06,6.09,2.86,6.03,6.25-.06,3.39-2.83,6.05-6.24,6.03l-71.4-1.23-75.6,247.53c-.81,2.65-3.24,4.35-5.87,4.35Z"></path>
  <path d="m407.02,464.58h-76.3c-10.91,0-20.1-8.17-21.38-19.01l-27.64-235.23c-.2-1.74.35-3.49,1.51-4.8,1.17-1.31,2.84-2.06,4.59-2.06h162.15c1.75,0,3.42.75,4.59,2.06,1.16,1.31,1.71,3.06,1.51,4.8l-27.64,235.23c-1.27,10.84-10.46,19.01-21.38,19.01Zm-112.32-248.82l26.84,228.37c.55,4.66,4.49,8.17,9.18,8.17h76.3c4.69,0,8.64-3.51,9.18-8.17l26.84-228.37h-148.34Z"></path>
  <path d="m424.14,269.71c-7.12,0-10.99-3.69-13.56-6.14-2.19-2.09-2.98-2.75-5.08-2.75s-2.89.66-5.07,2.75c-2.56,2.45-6.43,6.14-13.55,6.14s-10.98-3.7-13.54-6.14c-2.18-2.08-2.97-2.74-5.06-2.74s-2.88.66-5.07,2.74c-2.56,2.45-6.43,6.14-13.55,6.14s-10.98-3.7-13.55-6.14c-2.18-2.08-2.97-2.74-5.06-2.74s-2.88.66-5.06,2.74c-2.56,2.45-6.43,6.14-13.55,6.14s-10.98-3.7-13.54-6.14c-2.18-2.08-2.97-2.74-5.06-2.74-3.39,0-6.14-2.75-6.14-6.14s2.75-6.14,6.14-6.14c7.11,0,10.98,3.7,13.55,6.14,2.18,2.08,2.97,2.74,5.06,2.74s2.88-.66,5.06-2.74c2.56-2.45,6.43-6.14,13.55-6.14s10.98,3.7,13.55,6.14c2.18,2.08,2.97,2.74,5.06,2.74s2.88-.66,5.07-2.74c2.56-2.45,6.43-6.14,13.55-6.14s10.98,3.7,13.54,6.14c2.18,2.08,2.97,2.74,5.06,2.74s2.89-.66,5.07-2.75c2.56-2.45,6.43-6.14,13.55-6.14s10.99,3.69,13.55,6.14c2.19,2.09,2.98,2.75,5.08,2.75s2.89-.66,5.08-2.75c2.56-2.45,6.44-6.14,13.55-6.14,3.39,0,6.14,2.75,6.14,6.14s-2.75,6.14-6.14,6.14c-2.1,0-2.89.66-5.08,2.75-2.56,2.45-6.44,6.14-13.55,6.14Z"></path>
  <path d="m345.1,349.28c-.59,0-1.2-.09-1.79-.27-3.24-.99-5.07-4.42-4.08-7.66l55.78-182.63c.8-2.62,3.09-4.41,5.98-4.35l55.11.95c3.39.06,6.09,2.85,6.03,6.24-.06,3.39-2.85,5.94-6.25,6.03l-50.48-.87-54.43,178.21c-.81,2.65-3.24,4.35-5.87,4.35Z"></path>
  <path d="m223.88,367.3c-.22,0-.44-.01-.67-.04-3.37-.36-5.81-3.39-5.44-6.76l11.93-110.26c.36-3.37,3.4-5.82,6.76-5.44,3.37.36,5.81,3.39,5.44,6.76l-11.93,110.26c-.34,3.15-3,5.48-6.1,5.48Z"></path>
  <path d="m215.57,435.18c-.26,0-.53-.02-.79-.05-3.36-.43-5.74-3.51-5.3-6.87l6-46.53c.44-3.36,3.5-5.74,6.87-5.3,3.36.43,5.74,3.51,5.3,6.87l-6,46.53c-.4,3.1-3.04,5.35-6.08,5.35Z"></path>
  <path d="m407.54,387.15c-.22,0-.44-.01-.67-.04-3.37-.36-5.81-3.39-5.44-6.76l10.04-92.78c.36-3.37,3.41-5.81,6.76-5.44,3.37.36,5.81,3.39,5.44,6.76l-10.04,92.78c-.34,3.15-3,5.48-6.1,5.48Z"></path>
  <path d="m400.55,444.27c-.26,0-.53-.02-.79-.05-3.36-.43-5.74-3.51-5.3-6.87l5.05-39.16c.43-3.36,3.5-5.74,6.87-5.3,3.36.43,5.74,3.51,5.3,6.87l-5.05,39.16c-.4,3.1-3.04,5.35-6.08,5.35Z"></path>
</symbol><symbol id="i012_drink-11" xmlns="http://www.w3.org/2000/svg" viewBox="0 0 512 512">
  <path d="m374.58,153.67c-15.94,0-24-3.3-31.8-6.5-7.08-2.9-13.77-5.64-27.45-5.64s-20.39,2.74-27.47,5.64c-7.8,3.2-15.86,6.5-31.81,6.5s-24.01-3.3-31.8-6.5c-7.08-2.9-13.77-5.64-27.46-5.64s-20.38,2.74-27.46,5.64c-7.8,3.2-15.86,6.5-31.8,6.5s-24.01-3.3-31.8-6.5c-7.08-2.9-13.77-5.64-27.46-5.64-3.16,0-5.73-2.57-5.73-5.73s2.56-5.73,5.73-5.73c15.94,0,24.01,3.3,31.8,6.5,7.08,2.9,13.77,5.64,27.46,5.64s20.38-2.74,27.46-5.64c7.8-3.2,15.86-6.5,31.8-6.5s24.01,3.3,31.8,6.5c7.08,2.9,13.77,5.64,27.46,5.64s20.38-2.74,27.47-5.64c7.8-3.2,15.86-6.5,31.81-6.5s24,3.3,31.8,6.5c7.08,2.9,13.77,5.64,27.45,5.64s20.39-2.74,27.48-5.64c7.8-3.19,15.87-6.49,31.82-6.49,3.16,0,5.73,2.57,5.73,5.73s-2.56,5.73-5.73,5.73c-13.7,0-20.39,2.74-27.48,5.64-7.8,3.2-15.87,6.5-31.82,6.5Z"></path>
  <g>
    <path d="m403.09,378.19H108.91c-2.86,0-5.28-2.11-5.68-4.95L61.05,67.61c-.23-1.64.27-3.3,1.36-4.55,1.09-1.25,2.66-1.97,4.32-1.97h378.54c1.66,0,3.23.72,4.32,1.97,1.09,1.25,1.58,2.91,1.36,4.55l-42.18,305.64c-.39,2.83-2.81,4.95-5.67,4.95Zm-289.19-11.46h284.2l40.6-294.18H73.3l40.6,294.18Z"></path>
    <path d="m393.06,450.91H118.94c-2.86,0-5.28-2.11-5.67-4.95l-10.04-72.72c-.23-1.64.27-3.3,1.36-4.55,1.09-1.25,2.66-1.97,4.32-1.97h294.19c1.66,0,3.23.72,4.32,1.97,1.09,1.25,1.58,2.91,1.36,4.55l-10.03,72.72c-.39,2.83-2.81,4.95-5.68,4.95Zm-269.12-11.46h264.13l8.45-61.26H115.48l8.45,61.26Z"></path>
  </g>
  <path d="m220.03,260.03h-69.7c-3.16,0-5.73-2.57-5.73-5.73v-69.7c0-3.16,2.56-5.73,5.73-5.73h69.7c3.16,0,5.73,2.57,5.73,5.73v69.7c0,3.16-2.56,5.73-5.73,5.73Zm-63.97-11.46h58.25v-58.25h-58.25v58.25Z"></path>
  <path d="m377.38,358.38h-85.73c-3.16,0-5.73-2.57-5.73-5.73v-85.73c0-3.16,2.56-5.73,5.73-5.73h85.73c3.16,0,5.73,2.57,5.73,5.73v85.73c0,3.16-2.56,5.73-5.73,5.73Zm-80-11.46h74.27v-74.28h-74.27v74.28Z"></path>
  <path d="m240.2,360.36h-67.79c-3.17,0-5.73-2.57-5.73-5.73v-67.79c0-3.16,2.56-5.73,5.73-5.73h67.79c3.16,0,5.73,2.57,5.73,5.73v67.79c0,3.16-2.56,5.73-5.73,5.73Zm-62.06-11.46h56.34v-56.34h-56.34v56.34Z"></path>
  <path d="m327.94,226.18h-51.99c-3.16,0-5.73-2.57-5.73-5.73v-51.99c0-3.16,2.56-5.73,5.73-5.73h51.99c3.16,0,5.73,2.57,5.73,5.73v51.99c0,3.16-2.56,5.73-5.73,5.73Zm-46.26-11.46h40.53v-40.53h-40.53v40.53Z"></path>
  <path d="m370.68,226.18c-13.04,0-23.65-10.61-23.65-23.65s10.61-23.65,23.65-23.65,23.65,10.61,23.65,23.65-10.61,23.65-23.65,23.65Zm0-35.85c-6.73,0-12.2,5.47-12.2,12.2s5.47,12.2,12.2,12.2,12.2-5.47,12.2-12.2-5.47-12.2-12.2-12.2Z"></path>
  <path d="m133.14,305.52c-10.08,0-18.27-8.2-18.27-18.28s8.2-18.28,18.27-18.28,18.27,8.2,18.27,18.28-8.2,18.28-18.27,18.28Zm0-25.09c-3.76,0-6.82,3.06-6.82,6.82s3.06,6.82,6.82,6.82,6.82-3.06,6.82-6.82-3.06-6.82-6.82-6.82Z"></path>
  <path d="m254.4,273.67c-10.08,0-18.28-8.2-18.28-18.28s8.2-18.28,18.28-18.28,18.27,8.2,18.27,18.28-8.2,18.28-18.27,18.28Zm0-25.09c-3.76,0-6.82,3.06-6.82,6.82s3.06,6.82,6.82,6.82,6.82-3.06,6.82-6.82-3.06-6.82-6.82-6.82Z"></path>
</symbol><symbol id="i012_drink-12" xmlns="http://www.w3.org/2000/svg" viewBox="0 0 512 512">
  <path d="m295.44,422.13c-1.66,0-3.25-.66-4.43-1.83l-90.05-90.05c-2.45-2.45-2.45-6.41,0-8.85l120.47-120.47c2.45-2.45,6.41-2.45,8.85,0l90.05,90.05c1.17,1.17,1.83,2.77,1.83,4.43s-.66,3.25-1.83,4.43l-120.47,120.47c-1.17,1.17-2.77,1.83-4.43,1.83Zm-81.19-96.31l81.19,81.19,111.61-111.62-81.19-81.19-111.61,111.61Z"></path>
  <path d="m82.72,146.25c-1.6,0-3.2-.61-4.43-1.83l-30.46-30.45c-1.17-1.17-1.83-2.77-1.83-4.43s.66-3.25,1.83-4.43l57.31-57.31c2.35-2.35,6.51-2.35,8.85,0l30.46,30.46c2.45,2.45,2.45,6.41,0,8.85l-57.31,57.31c-1.22,1.22-2.83,1.83-4.43,1.83Zm-21.6-36.72l21.6,21.6,48.46-48.45-21.6-21.6-48.45,48.46Z"></path>
  <path d="m107.54,234.24c-2.8,0-5.35-1.89-6.07-4.73-.85-3.35,1.18-6.76,4.54-7.6l8-2.02c2.79-.71,4.79-2.7,5.5-5.49,1.84-7.29,7.29-12.73,14.57-14.57,2.78-.71,4.79-2.71,5.49-5.49.02-.06.03-.12.05-.17,1.88-7.2,7.29-12.57,14.52-14.4,2.8-.71,4.8-2.71,5.51-5.49,1.85-7.3,7.29-12.74,14.56-14.58.14-.04.28-.07.42-.09,2.39-.62,4.39-2.62,5.1-5.41,1.84-7.29,7.29-12.74,14.56-14.57.14-.04.28-.07.41-.09,2.39-.62,4.39-2.62,5.1-5.4,1.85-7.31,7.29-12.75,14.56-14.59,2.84-.72,4.84-2.72,5.54-5.5l2.04-8.05c.85-3.35,4.25-5.37,7.61-4.53,3.35.85,5.38,4.26,4.53,7.61l-2.04,8.05c-1.84,7.26-7.28,12.7-14.54,14.54-2.84.72-4.84,2.72-5.54,5.5-1.85,7.31-7.3,12.76-14.57,14.6-.14.04-.28.07-.42.09-2.39.62-4.39,2.62-5.1,5.41-1.84,7.29-7.29,12.74-14.56,14.57-.14.04-.28.07-.41.09-2.39.62-4.39,2.62-5.1,5.41-1.85,7.3-7.29,12.74-14.56,14.58-2.8.71-4.8,2.71-5.51,5.5-.02.06-.03.12-.05.18-1.88,7.2-7.3,12.57-14.52,14.4-2.79.71-4.79,2.7-5.49,5.49-1.84,7.29-7.29,12.73-14.57,14.57l-8,2.02c-.52.13-1.03.19-1.54.19Z"></path>
  <path d="m347.51,465.97c-6.98,0-13.54-2.72-18.47-7.65l-138.32-138.32c-12.03-12.03-18.11-28.68-16.68-45.66.73-8.61-2.31-17-8.35-23.03-5.3-5.3-13.03-7.48-20.16-5.68-14.98,3.75-30.81-.91-41.34-12.19-15.43-16.51-14.54-43.39,1.98-59.91,2.51-2.51,3.89-5.84,3.89-9.38s-1.38-6.88-3.89-9.39l-19.01-19.01c-1.17-1.17-1.87-2.86-1.87-4.52s.73-3.42,1.97-4.61l39.49-39.49c2.38-2.38,6.79-2.33,9.12.09l18.93,18.93c5.01,5.01,13.75,5.01,18.77,0,16.47-16.47,43.23-17.4,59.73-2.15,11.96,11.04,16.52,27.6,11.91,43.2-2.28,7.73-.25,15.98,5.31,21.53h0c4.97,4.96,11.89,7.22,18.49,6.02,18.63-3.34,37.69,2.6,51.03,15.94l138.33,138.32c10.19,10.19,10.19,26.76,0,36.95-10.19,10.18-26.76,10.18-36.95,0-2.94-2.94-7-2.7-9.47-.23-2.55,2.55-2.55,6.69,0,9.24,5.17,5.17,7.88,11.73,7.88,18.7s-2.72,13.54-7.65,18.47c-4.93,4.94-11.49,7.65-18.47,7.65s-13.54-2.72-18.47-7.65c-2.78-2.78-6.93-2.78-9.47-.23-1.23,1.24-1.91,2.88-1.91,4.62s.68,3.38,1.91,4.62c10.42,10.42,10.42,27,.23,37.18-4.93,4.94-11.49,7.65-18.47,7.65Zm-197-233.48c8.86,0,17.59,3.52,24.03,9.96,8.65,8.64,13.01,20.65,11.97,32.94-1.12,13.3,3.63,26.33,13.05,35.75l138.32,138.32c5.14,5.14,14.1,5.14,19.23,0,5.31-5.3,5.31-13.93,0-19.24-3.83-3.83-5.81-8.61-5.81-13.71s1.98-9.88,5.58-13.48c7.43-7.43,19.52-7.43,26.95,0,5.61,5.6,14.33,5.37,19.47.23,2.57-2.57,3.99-5.98,3.99-9.62s-1.42-7.05-3.99-9.62c-7.66-7.66-7.66-19.75-.23-27.18,3.6-3.6,8.38-5.58,13.48-5.58s9.88,1.98,13.48,5.58c5.6,5.6,14.33,5.37,19.47.23,5.3-5.3,5.3-13.93,0-19.24l-138.32-138.32c-10.44-10.44-25.38-15.11-39.95-12.47-10.65,1.91-21.7-1.62-29.57-9.49h0c-8.8-8.8-12.05-21.81-8.46-33.94,3.25-11,.03-22.67-8.4-30.46-11.63-10.74-30.6-9.96-42.3,1.72-4.96,4.96-11.43,7.64-18.32,7.64s-13.37-2.68-18.24-7.55l-14.68-14.68-30.91,30.91,14.68,14.68c4.87,4.87,7.56,11.35,7.56,18.24s-2.68,13.37-7.56,18.24c-11.8,11.8-12.56,30.87-1.69,42.51,7.42,7.95,18.58,11.23,29.14,8.59,2.65-.66,5.35-.99,8.03-.99Z"></path>
</symbol><symbol id="i012_drink-13" xmlns="http://www.w3.org/2000/svg" viewBox="0 0 512 512">
  <path d="m369.46,462.3h-103.41c-13.63,0-25.11-10.21-26.7-23.75l-37.46-318.8c-.2-1.71.34-3.42,1.48-4.71,1.15-1.29,2.78-2.02,4.51-2.02h219.75c1.72,0,3.36.73,4.51,2.02,1.14,1.29,1.68,3,1.48,4.71l-37.46,318.8c-1.6,13.54-13.07,23.75-26.7,23.75ZM214.67,125.09l36.67,312.06c.88,7.46,7.2,13.09,14.72,13.09h103.41c7.51,0,13.84-5.63,14.72-13.09l36.67-312.06h-206.19Z"></path>
  <path d="m392.66,189.62c-7.4,0-11.29-1.45-14.73-2.73-2.96-1.1-5.3-1.97-10.53-1.97s-7.56.87-10.52,1.97c-3.43,1.28-7.32,2.73-14.72,2.73s-11.28-1.45-14.71-2.73c-2.95-1.1-5.29-1.97-10.5-1.97s-7.55.87-10.51,1.97c-3.44,1.28-7.33,2.73-14.72,2.73s-11.28-1.45-14.72-2.73c-2.95-1.1-5.29-1.97-10.51-1.97s-7.55.87-10.5,1.97c-3.43,1.28-7.32,2.73-14.71,2.73s-11.28-1.45-14.72-2.73c-2.95-1.1-5.29-1.97-10.5-1.97-3.33,0-6.03-2.7-6.03-6.03s2.7-6.03,6.03-6.03c7.39,0,11.28,1.45,14.71,2.72,2.95,1.1,5.29,1.97,10.51,1.97s7.55-.87,10.5-1.97c3.43-1.28,7.32-2.72,14.71-2.72s11.28,1.45,14.72,2.72c2.95,1.1,5.28,1.97,10.51,1.97s7.55-.87,10.51-1.97c3.44-1.28,7.33-2.72,14.72-2.72s11.28,1.45,14.71,2.72c2.95,1.1,5.28,1.97,10.5,1.97s7.56-.87,10.51-1.97c3.43-1.28,7.32-2.72,14.72-2.72s11.29,1.45,14.73,2.72c2.96,1.1,5.3,1.97,10.53,1.97s7.56-.87,10.52-1.97c3.44-1.28,7.33-2.72,14.73-2.72,3.33,0,6.03,2.7,6.03,6.03s-2.7,6.03-6.03,6.03c-5.23,0-7.57.87-10.53,1.97-3.44,1.28-7.33,2.73-14.72,2.73Z"></path>
  <path d="m309.69,309.27c-.59,0-1.18-.08-1.77-.26-3.18-.97-4.98-4.34-4-7.53l75.59-247.51c.79-2.57,3.12-4.28,5.87-4.27l74.69,1.28c3.33.06,5.98,2.8,5.93,6.13-.06,3.33-2.84,5.97-6.13,5.93l-70.15-1.21-74.26,243.17c-.79,2.6-3.18,4.27-5.76,4.27Z"></path>
  <path d="m372.79,365.34c-.22,0-.44-.01-.66-.04-3.31-.36-5.7-3.33-5.35-6.64l11.72-108.31c.36-3.31,3.34-5.71,6.64-5.35,3.31.36,5.71,3.33,5.35,6.64l-11.72,108.31c-.33,3.09-2.95,5.38-5.99,5.38Z"></path>
  <path d="m364.64,432.02c-.26,0-.52-.02-.78-.05-3.31-.42-5.64-3.45-5.21-6.75l5.89-45.71c.42-3.31,3.5-5.67,6.75-5.21,3.31.42,5.64,3.45,5.21,6.75l-5.89,45.71c-.39,3.04-2.98,5.26-5.97,5.26Z"></path>
  <path d="m163.28,460.86c-9.82,0-19.51-2.83-28.25-8.23-8.5,5.04-17.88,7.68-27.37,7.68-34,0-61.66-33.08-61.66-73.75s27.66-73.75,61.66-73.75c9.82,0,19.51,2.83,28.25,8.23,8.5-5.04,17.88-7.68,27.37-7.68,34,0,61.66,33.08,61.66,73.75s-27.66,73.75-61.66,73.75Zm-28.18-21.47c1.23,0,2.47.38,3.52,1.13,7.54,5.41,16.07,8.28,24.67,8.28,27.35,0,49.59-27.67,49.59-61.68s-22.25-61.68-49.59-61.68c-8.35,0-16.65,2.69-24,7.79-2.1,1.45-4.88,1.43-6.95-.06-7.54-5.41-16.07-8.28-24.67-8.28-27.35,0-49.59,27.67-49.59,61.68s22.25,61.68,49.59,61.68c8.35,0,16.65-2.69,24-7.79,1.04-.71,2.23-1.07,3.44-1.07Z"></path>
  <path d="m135.84,334.28c-3.33,0-6.03-2.7-6.03-6.03v-70.37c0-3.33,2.7-6.03,6.03-6.03s6.03,2.7,6.03,6.03v70.37c0,3.33-2.7,6.03-6.03,6.03Z"></path>
  <path d="m97.2,313.33c-23.76,0-42.21-22.73-42.98-23.7-1.76-2.2-1.76-5.33,0-7.53.77-.97,19.22-23.7,42.98-23.7s42.21,22.73,42.98,23.7c1.76,2.2,1.76,5.33,0,7.53-.77.97-19.22,23.7-42.98,23.7Zm-30.1-27.47c5.56,5.58,17.2,15.41,30.1,15.41s24.55-9.81,30.1-15.39c-5.57-5.59-17.21-15.41-30.1-15.41s-24.55,9.8-30.1,15.39Z"></path>
</symbol><symbol id="i012_drink-14" xmlns="http://www.w3.org/2000/svg" viewBox="0 0 512 512">
  <path d="m331.4,191.56h-21.39c-1.95,0-3.78-.92-4.93-2.49-1.16-1.56-1.5-3.58-.94-5.44l31.47-103.04c1.71-5.6,6.32-9.88,12.03-11.18l101.28-23c3.32-.75,6.6,1.32,7.34,4.63l4.53,19.95c.36,1.59.08,3.25-.79,4.63-.87,1.38-2.25,2.35-3.83,2.72l-92.03,20.89-26.87,87.99c-.79,2.58-3.17,4.35-5.87,4.35Zm-13.1-12.28h8.56l26.58-87.05c.64-2.11,2.36-3.71,4.51-4.19l89.51-20.32-1.81-7.98-95.3,21.64c-1.43.32-2.58,1.4-3.01,2.8l-29.05,95.11Z"></path>
  <path d="m258.74,466c-92.72,0-168.16-75.43-168.16-168.16,0-43.73,16.74-85.17,47.13-116.68,1.16-1.2,2.75-1.88,4.42-1.88h233.21c1.67,0,3.26.68,4.42,1.88,30.39,31.52,47.13,72.96,47.13,116.68,0,92.72-75.43,168.16-168.16,168.16Zm-113.97-274.44c-27.05,28.97-41.91,66.61-41.91,106.29,0,85.95,69.93,155.88,155.88,155.88s155.88-69.93,155.88-155.88c0-39.67-14.86-77.31-41.91-106.29h-227.94Z"></path>
  <path d="m384.15,362.59c-.87,0-1.75-.19-2.59-.58-3.07-1.43-4.4-5.09-2.96-8.16,8.09-17.31,12.19-35.86,12.19-55.13,0-3.39,2.75-6.14,6.14-6.14s6.14,2.75,6.14,6.14c0,21.08-4.49,41.37-13.34,60.33-1.04,2.23-3.25,3.54-5.56,3.54Z"></path>
  <path d="m359.65,398.6c-1.51,0-3.03-.56-4.21-1.68-2.46-2.33-2.57-6.21-.25-8.68,5.34-5.66,10.21-11.82,14.46-18.33,1.85-2.84,5.66-3.64,8.49-1.78,2.84,1.85,3.64,5.66,1.78,8.49-4.65,7.12-9.97,13.87-15.81,20.05-1.21,1.28-2.83,1.92-4.46,1.92Z"></path>
  <path d="m311.55,431.49c-2.43,0-4.73-1.45-5.69-3.84-1.27-3.14.25-6.72,3.39-7.99,10.14-4.1,19.76-9.49,28.58-16.02,2.73-2.01,6.57-1.44,8.59,1.28,2.02,2.73,1.44,6.57-1.28,8.59-9.65,7.14-20.18,13.03-31.27,17.53-.75.3-1.53.45-2.3.45Z"></path>
  <path d="m260.37,441.4c-3.39,0-6.14-2.75-6.14-6.14s2.75-6.14,6.14-6.14c11.36,0,22.64-1.46,33.53-4.35,3.26-.88,6.63,1.08,7.5,4.36.87,3.28-1.08,6.64-4.36,7.5-11.91,3.16-24.25,4.76-36.67,4.76Z"></path>
  <path d="m73.93,184.97c-1.57,0-3.14-.6-4.34-1.8-24.73-24.73-24.73-64.96,0-89.69l28.93-28.93c24.73-24.73,64.96-24.73,89.69,0,2.4,2.4,2.4,6.28,0,8.68-2.4,2.4-6.28,2.4-8.68,0-9.66-9.66-22.5-14.98-36.17-14.98s-26.51,5.32-36.17,14.98l-28.93,28.93c-19.94,19.94-19.94,52.39,0,72.33,2.4,2.4,2.4,6.28,0,8.68-1.2,1.2-2.77,1.8-4.34,1.8Z"></path>
  <path d="m188.15,190.51c-1.57,0-3.14-.6-4.34-1.8l-58.07-58.07c-2.4-2.4-2.4-6.28,0-8.68,2.4-2.4,6.28-2.4,8.68,0l58.07,58.07c2.4,2.4,2.4,6.28,0,8.68-1.2,1.2-2.77,1.8-4.34,1.8Z"></path>
  <path d="m87.77,90.13c-1.57,0-3.14-.6-4.34-1.8l-14.11-14.11c-2.4-2.4-2.4-6.28,0-8.68,2.4-2.4,6.28-2.4,8.68,0l14.11,14.11c2.4,2.4,2.4,6.28,0,8.68-1.2,1.2-2.77,1.8-4.34,1.8Z"></path>
  <path d="m74.19,184.72c-.18,0-.36,0-.54-.02-3.38-.29-5.88-3.26-5.59-6.64,1.37-15.9,12.86-28.75,28.06-32.15,3.05-13.62,13.69-24.26,27.3-27.31,3.05-13.63,13.69-24.27,27.32-27.32,3.39-15.21,16.24-26.7,32.12-28.09,3.36-.29,6.37,2.19,6.68,5.56.3,3.37-2.14,6.35-5.51,6.66-11.67,1.02-20.8,10.14-21.81,21.71-.26,2.98-2.63,5.4-5.61,5.65-11.57,1-20.69,10.12-21.71,21.67-.23,2.97-2.58,5.39-5.59,5.65-11.59,1-20.72,10.13-21.72,21.72-.18,2.13-1.46,4.01-3.37,4.96-.69.35-1.45.56-2.22.63-11.58,1-20.72,10.14-21.72,21.72-.28,3.2-2.96,5.61-6.11,5.61Z"></path>
  <path d="m170.67,287.51c-17.69,0-32.08-14.39-32.08-32.08s14.39-32.08,32.08-32.08,32.08,14.39,32.08,32.08-14.39,32.08-32.08,32.08Zm0-51.89c-10.92,0-19.81,8.88-19.81,19.81s8.88,19.81,19.81,19.81,19.81-8.88,19.81-19.81-8.88-19.81-19.81-19.81Z"></path>
</symbol><symbol id="i012_drink-15" xmlns="http://www.w3.org/2000/svg" viewBox="0 0 512 512">
  <path d="m348.94,465.69c-.25,0-.5,0-.75,0-10.02-.2-19.73-4.44-26.63-11.64-1.5-1.57-2.88-3.27-4.09-5.06-21.42-31.6-45.27-64.86-74.47-94.06l-86.92-86.92c-14.38-14.38-24.53-32.07-29.36-51.17l-.4-1.61c-7.77-31.35-23.75-59.8-46.22-82.26l-32.2-32.2c-1.21-1.21-1.9-2.86-1.9-4.58s.68-3.36,1.9-4.58l43.39-43.39c2.53-2.53,6.63-2.53,9.16,0l31.42,31.42c22.79,22.79,51.73,38.89,83.67,46.55l.94.23c19.44,4.73,37.42,14.95,52.06,29.59l86.69,86.68c29.22,29.22,62.48,53.06,94.07,74.48,1.8,1.22,3.5,2.6,5.06,4.09,7.2,6.9,11.44,16.6,11.64,26.62.19,9.54-3.19,18.41-9.52,24.97-6.5,6.73-15.32,10.49-24.85,10.57-2.52.11-4.95-.21-7.37-.69,2.19,11.32-.92,23.27-9.43,31.78-6.77,6.77-15.88,10.4-25.67,10.12-2.06-.05-4.1-.27-6.11-.66.48,2.42.71,4.89.69,7.36-.09,9.53-3.84,18.35-10.57,24.85-6.39,6.16-14.96,9.53-24.21,9.53ZM61.64,96.18l27.62,27.62c24.13,24.13,41.29,54.66,49.63,88.3l.38,1.54c4.26,16.84,13.24,32.46,25.97,45.19l86.92,86.92c29.96,29.96,54.25,63.82,76.04,95.95.8,1.18,1.72,2.31,2.72,3.36,4.54,4.74,10.93,7.53,17.53,7.66,6.03.16,11.65-1.97,15.72-5.9,4.21-4.06,6.56-9.61,6.61-15.64.06-6.53-2.64-13.01-7.41-17.78l-3.34-3.34c-1.27-1.26-1.9-2.92-1.9-4.58s.63-3.31,1.9-4.58c2.53-2.53,6.63-2.53,9.16,0l3.34,3.34c4.62,4.62,10.64,7.25,16.96,7.41,6.24.11,11.94-2.09,16.18-6.32,8.84-8.84,8.35-23.7-1.08-33.13l-3.34-3.34c-1.26-1.27-1.9-2.92-1.9-4.58s.63-3.32,1.9-4.58c2.53-2.53,6.63-2.53,9.16,0l3.34,3.34c4.77,4.77,11.26,7.47,17.77,7.41,6.03-.05,11.58-2.4,15.64-6.62,3.92-4.06,6.01-9.65,5.89-15.72-.13-6.6-2.92-12.99-7.65-17.52-1.04-1-2.17-1.91-3.37-2.73-32.11-21.77-65.97-46.05-95.95-76.03l-86.69-86.68c-12.95-12.95-28.83-21.99-45.91-26.15l-.92-.22c-34.3-8.23-65.36-25.51-89.84-50l-26.84-26.84-34.23,34.23Z"></path>
  <path d="m268.13,377.37c-1.66,0-3.31-.63-4.58-1.9l-103.07-103.07c-1.21-1.21-1.9-2.86-1.9-4.58s.68-3.36,1.9-4.58l103.07-103.07c2.43-2.43,6.73-2.43,9.16,0l103.07,103.07c1.21,1.21,1.9,2.86,1.9,4.58s-.68,3.36-1.9,4.58l-103.07,103.07c-1.26,1.27-2.92,1.9-4.58,1.9Zm-93.91-109.55l93.91,93.91,93.91-93.91-93.91-93.92-93.91,93.92Z"></path>
  <path d="m271.57,306.41c-9.89,0-19.78-3.77-27.3-11.29-7.29-7.29-11.31-16.99-11.31-27.31s4.02-20.01,11.31-27.3c7.29-7.29,16.99-11.31,27.3-11.31s20.01,4.02,27.3,11.31h0c7.29,7.29,11.31,16.99,11.31,27.3s-4.02,20.01-11.31,27.31c-7.53,7.53-17.42,11.29-27.3,11.29Zm0-64.26c-6.85,0-13.3,2.67-18.15,7.52-4.85,4.84-7.52,11.29-7.52,18.14s2.67,13.3,7.52,18.15c10.01,10.01,26.29,10,36.29,0,4.85-4.85,7.52-11.29,7.52-18.15s-2.67-13.3-7.52-18.14h0c-4.85-4.85-11.29-7.52-18.14-7.52Z"></path>
</symbol><symbol id="i012_drink-16" xmlns="http://www.w3.org/2000/svg" viewBox="0 0 512 512">
  <path d="m371.65,457.28h-111.31c-2.93,0-5.44-2.12-5.92-5.01-.47-2.84-.97-5.69-1.46-8.53l-1-5.83c-.39-2.3.58-4.61,2.5-5.94,21.33-14.79,37.82-36.34,46.42-60.71.85-2.4,3.11-4,5.66-4h78.89c1.78,0,3.47.79,4.62,2.16,1.14,1.37,1.61,3.18,1.28,4.93-4.81,25.84-9.44,52.05-13.75,77.91-.48,2.89-2.98,5.01-5.92,5.01Zm-106.24-12h101.17c3.68-21.93,7.59-44.09,11.63-66.02h-67.51c-9.31,23.88-25.56,45.07-46.27,60.33l.36,2.1c.21,1.2.42,2.39.62,3.59Z"></path>
  <path d="m385.42,379.26h-78.89c-1.95,0-3.77-.95-4.9-2.54-1.13-1.59-1.41-3.62-.76-5.46,4.02-11.39,6.34-23.23,6.92-35.27h-69.52c-2.87,0-5.33-2.03-5.89-4.84-18.18-92.28-39.8-185.69-64.27-277.61-.48-1.8-.09-3.72,1.04-5.2,1.14-1.48,2.89-2.34,4.76-2.34h284.18c1.86,0,3.62.87,4.76,2.34,1.13,1.48,1.52,3.4,1.04,5.2-28.33,106.44-52.74,214.37-72.56,320.81-.53,2.84-3.01,4.9-5.9,4.9Zm-70.68-12h65.7c14.4-76.83,31.18-154.42,50.09-231.63-5.6.64-9.08,2.54-12.99,4.68-5.42,2.96-11.56,6.32-22.71,6.32-11.27,0-16.99-3.42-22.03-6.44-4.48-2.68-8.02-4.8-16.19-4.8s-11.7,2-15.95,4.41c-.26.15-.53.3-.8.45-5.23,2.99-11.17,6.38-22.38,6.38-11.21,0-17.14-3.39-22.36-6.38-4.74-2.71-8.49-4.86-16.72-4.86s-11.72,2.12-16.21,4.8c-5.05,3.02-10.78,6.43-22.05,6.44-11.15,0-17.29-3.36-22.69-6.33-4.56-2.5-8.54-4.68-16.03-4.89,15.38,62.82,29.38,125.95,41.79,188.59h70.73c3.31,0,6,2.69,6,6,0,12.66-1.75,25.16-5.2,37.26Zm63.6-237.73c.2.12.41.25.62.37,4.42,2.64,7.91,4.74,15.87,4.74s12.2-2.25,16.96-4.85c5.26-2.88,11.2-6.13,21.76-6.37,5.42-21.85,11-43.66,16.75-65.41H181.7c5.76,21.81,11.37,43.7,16.8,65.63.54-.16,1.1-.24,1.68-.24,11.37,0,17.56,3.39,23.02,6.39,4.74,2.6,8.84,4.85,16.92,4.85s11.46-2.09,15.9-4.74c5.1-3.04,10.88-6.49,22.36-6.5,11.42,0,17.41,3.42,22.68,6.44,4.68,2.68,8.38,4.8,16.4,4.8s11.73-2.12,16.43-4.8c5.28-3.02,11.27-6.43,22.7-6.44h0c11.02,0,16.78,3.18,21.73,6.13Zm-13.74,185.23c-.29,0-.57-.02-.86-.06-2.99-.43-5.15-3-5.15-5.93,0-.29.02-.57.06-.86,5.72-39.8,12.02-80.12,18.7-119.86.55-3.27,3.65-5.46,6.91-4.92,2.93.49,5,3.03,5,5.91,0,.33-.03.67-.08,1.01-6.67,39.64-12.94,79.87-18.65,119.58-.43,2.99-3,5.14-5.93,5.14Z"></path>
  <path d="m183.92,466c-74.99,0-136-61.01-136-136,0-3.31,2.69-6,6-6h260c3.31,0,6,2.69,6,6,0,15.47-2.61,30.7-7.74,45.26-9.43,26.72-27.5,50.37-50.9,66.58-22.82,15.81-49.57,24.17-77.36,24.17Zm-123.86-130c3.14,65.6,57.5,118,123.86,118,25.34,0,49.73-7.62,70.53-22.03,21.33-14.78,37.82-36.34,46.42-60.7,4.02-11.39,6.34-23.23,6.92-35.27H60.06Z"></path>
  <path d="m182.92,442.44c-61.94,0-112.33-50.07-112.33-111.61,0-3.31,2.69-6,6-6h212.67c3.31,0,6,2.69,6,6,0,61.54-50.39,111.61-112.34,111.61Zm-100.15-105.61c3.14,52.14,46.86,93.61,100.15,93.61s97.02-41.47,100.16-93.61H82.77Z"></path>
  <path d="m182.92,441.62c-3.31,0-6-2.69-6-6v-104.78c0-3.31,2.69-6,6-6s6,2.69,6,6v104.78c0,3.31-2.69,6-6,6Z"></path>
  <path d="m258.02,410.09c-1.53,0-3.07-.59-4.24-1.76l-74.09-74.09c-2.34-2.34-2.34-6.14,0-8.48,2.34-2.34,6.14-2.34,8.48,0l74.09,74.09c2.34,2.34,2.34,6.14,0,8.48-1.17,1.17-2.71,1.76-4.24,1.76Z"></path>
  <path d="m108.83,410.09c-1.54,0-3.07-.59-4.24-1.76-2.34-2.34-2.34-6.14,0-8.48l74.09-74.09c2.34-2.34,6.14-2.34,8.48,0,2.34,2.34,2.34,6.14,0,8.48l-74.09,74.09c-1.17,1.17-2.71,1.76-4.24,1.76Z"></path>
</symbol><symbol id="i012_drink-17" xmlns="http://www.w3.org/2000/svg" viewBox="0 0 512 512">
  <path d="m219.79,420.08c-37.83,0-68.6-30.77-68.6-68.6s61.32-111.87,63.93-115.07c2.29-2.81,7.05-2.81,9.34,0,2.61,3.2,63.93,78.78,63.93,115.07s-30.78,68.6-68.6,68.6Zm0-170.2c-19.27,24.59-56.55,77.2-56.55,101.6,0,31.18,25.37,56.55,56.55,56.55s56.55-25.37,56.55-56.55c0-24.42-37.28-77.02-56.55-101.6Z"></path>
  <path d="m219.79,401.28c-3.33,0-6.03-2.7-6.03-6.03s2.7-6.03,6.03-6.03c21.26,0,38.55-17.29,38.55-38.54,0-3.33,2.7-6.03,6.03-6.03s6.03,2.7,6.03,6.03c0,27.9-22.7,50.6-50.6,50.6Z"></path>
  <path d="m395.86,466H55.49c-3.33,0-6.03-2.7-6.03-6.03V52.03c0-3.33,2.7-6.03,6.03-6.03h283.97c1.6,0,3.13.64,4.26,1.77l56.4,56.4c1.13,1.13,1.77,2.66,1.77,4.26v186.15c0,1.26-.39,2.48-1.13,3.51-18.83,26.31-29.63,47.46-29.63,58.03,0,16.88,10.73,31.93,26.71,37.46,2.42.84,4.05,3.12,4.05,5.69v60.71c0,3.33-2.7,6.03-6.03,6.03Zm-334.35-12.05h328.32v-50.58c-18.57-8.23-30.76-26.71-30.76-47.25,0-13.36,10.35-34.7,30.76-63.46V110.92l-52.87-52.87H61.51v395.89Z"></path>
  <path d="m410.81,407.85c-5.7,0-11.39-.97-16.92-2.88-20.82-7.21-34.82-26.84-34.82-48.85,0-13.6,10.73-35.48,31.89-65.04,8.27-11.55,14.9-19.7,15.18-20.04,2.29-2.81,7.05-2.82,9.34,0,4.82,5.9,47.06,58.46,47.06,85.08,0,28.53-23.21,51.74-51.73,51.74Zm.02-123.29c-2.64,3.42-6.19,8.11-10.06,13.53-18.83,26.31-29.63,47.46-29.63,58.03,0,16.88,10.73,31.93,26.71,37.46,4.26,1.47,8.62,2.22,12.97,2.22,21.88,0,39.68-17.8,39.68-39.68,0-16.87-25.4-53.14-39.67-71.55Z"></path>
  <path d="m417.4,387.52c-3.33,0-6.03-2.7-6.03-6.03s2.7-6.03,6.03-6.03c7.36,0,13.34-5.99,13.34-13.34,0-3.33,2.7-6.03,6.03-6.03s6.03,2.7,6.03,6.03c0,14-11.39,25.4-25.4,25.4Z"></path>
  <path d="m395.86,178.02H55.6c-3.33,0-6.03-2.7-6.03-6.03v-38.17c0-3.33,2.7-6.03,6.03-6.03h340.26c3.33,0,6.03,2.7,6.03,6.03v38.17c0,3.33-2.7,6.03-6.03,6.03Zm-334.23-12.05h328.21v-26.11H61.63v26.11Z"></path>
</symbol><symbol id="i012_drink-18" xmlns="http://www.w3.org/2000/svg" viewBox="0 0 512 512">
  <path d="m86.67,243.98c-1.57,0-3.14-.6-4.34-1.8-31.19-31.19-31.19-81.95,0-113.14l45.83-45.83c31.19-31.19,81.94-31.19,113.14,0,2.4,2.4,2.4,6.28,0,8.68L91.01,242.19c-1.2,1.2-2.77,1.8-4.34,1.8Zm98.06-171.89c-17.34,0-34.69,6.6-47.89,19.8l-45.83,45.83c-24.95,24.95-26.33,64.67-4.14,91.25L228.09,87.75c-12.51-10.44-27.93-15.66-43.36-15.66Z"></path>
  <path d="m85.81,281.79c-1.57,0-3.14-.6-4.34-1.8l-16.95-16.95c-1.15-1.15-1.8-2.71-1.8-4.34s.65-3.19,1.8-4.34L252.76,66.12c1.15-1.15,2.71-1.8,4.34-1.8h0c1.63,0,3.19.65,4.34,1.8l16.95,16.95c2.4,2.4,2.4,6.28,0,8.68l-188.24,188.24c-1.2,1.2-2.77,1.8-4.34,1.8Zm-8.27-23.09l8.27,8.27,179.56-179.56-8.27-8.27-179.57,179.56Z"></path>
  <path d="m164.02,333.03c-1.37,0-2.75-.46-3.88-1.38l-69.58-56.84c-1.34-1.1-2.16-2.71-2.25-4.45-.09-1.73.56-3.42,1.79-4.65l174.32-174.32c1.23-1.23,2.92-1.85,4.65-1.79,1.73.09,3.35.9,4.45,2.25l56.84,69.58c1.99,2.44,1.81,5.99-.42,8.22l-54.31,54.31c-1.18,1.18-2.61,1.76-4.47,1.8-1.67-.04-3.26-.76-4.39-1.99l-.53-.59c-.14-.17-.28-.34-.44-.5-12.33-12.33-32.39-12.32-44.72,0-5.97,5.97-9.26,13.91-9.26,22.36s3.29,16.38,9.26,22.36c.16.16.34.3.5.45l.58.52c1.23,1.13,1.95,2.72,1.99,4.39.04,1.67-.61,3.29-1.8,4.47l-54,54c-1.19,1.19-2.76,1.8-4.34,1.8Zm-60.44-63.43l60.03,49.03,45.83-45.83c-6.41-7.81-9.89-17.52-9.89-27.76,0-11.73,4.56-22.74,12.85-31.03,16.06-16.05,41.57-17.04,58.8-2.96l46.14-46.14-49.03-60.03-164.73,164.72Z"></path>
  <path d="m340.23,466c-9.8,0-19.65-3.29-27.81-9.96l-152.28-124.4c-1.34-1.1-2.16-2.71-2.25-4.45-.09-1.73.56-3.42,1.79-4.65l49.75-49.76c-14.08-17.22-13.1-42.74,2.96-58.8,16.06-16.05,41.57-17.04,58.8-2.96l50.06-50.06c1.23-1.23,2.94-1.86,4.65-1.79,1.73.09,3.35.9,4.45,2.25l124.4,152.28c14.33,17.55,13.06,42.86-2.96,58.88l-80.48,80.48c-8.57,8.57-19.8,12.92-31.07,12.92Zm-167.07-139.57l147.03,120.1c12.65,10.34,30.89,9.42,42.44-2.13l80.48-80.48c11.55-11.55,12.47-29.8,2.13-42.44l-120.1-147.03-49.51,49.51c-1.18,1.18-2.61,1.76-4.47,1.8-1.67-.04-3.26-.76-4.39-1.99l-.53-.59c-.14-.17-.28-.34-.44-.5-12.33-12.33-32.39-12.32-44.72,0-12.33,12.33-12.33,32.38,0,44.71.16.16.34.3.5.45l.58.52c1.23,1.13,1.95,2.72,1.99,4.39.04,1.67-.61,3.29-1.8,4.47l-49.2,49.2Z"></path>
  <path d="m299.28,348.89c-2.29,0-4.48-1.28-5.54-3.48l-41.15-85.93c-1.13-2.34-.65-5.15,1.19-6.99,1.84-1.85,4.65-2.33,6.99-1.19l85.93,41.15c3.06,1.46,4.35,5.13,2.88,8.19-1.47,3.06-5.12,4.35-8.19,2.88l-70.22-33.63,33.63,70.22c1.47,3.06.18,6.72-2.88,8.19-.86.41-1.76.6-2.65.6Z"></path>
  <path d="m313.71,401.67c-9.08,0-17.61-3.53-24.03-9.95-13.25-13.25-13.25-34.81,0-48.06,6.42-6.42,14.95-9.96,24.03-9.96s17.61,3.54,24.03,9.96h0c13.25,13.25,13.25,34.81,0,48.06-6.42,6.42-14.95,9.95-24.03,9.95Zm0-55.69c-5.8,0-11.25,2.26-15.35,6.36-8.47,8.47-8.47,22.24,0,30.7,4.1,4.1,9.55,6.36,15.35,6.36s11.25-2.26,15.35-6.36c8.47-8.47,8.47-22.24,0-30.7h0c-4.1-4.1-9.55-6.36-15.35-6.36Z"></path>
  <path d="m367.18,350.37c-8.7,0-17.4-3.31-24.03-9.94-13.25-13.25-13.25-34.81,0-48.06,13.24-13.24,34.81-13.25,48.06,0h0c13.24,13.25,13.24,34.81,0,48.06-6.62,6.62-15.33,9.94-24.03,9.94Zm0-55.66c-5.56,0-11.12,2.12-15.35,6.35-8.47,8.47-8.47,22.24,0,30.7,8.46,8.46,22.24,8.47,30.7,0,8.46-8.47,8.46-22.24,0-30.7-4.24-4.23-9.79-6.35-15.35-6.35Z"></path>
  <path d="m100.04,126.15c-1.57,0-3.14-.6-4.34-1.8l-46.61-46.6c-1.15-1.15-1.8-2.71-1.8-4.34s.65-3.19,1.8-4.34l21.27-21.27c2.4-2.4,6.28-2.4,8.68,0l46.61,46.61c1.15,1.15,1.8,2.71,1.8,4.34s-.65,3.19-1.8,4.34l-21.27,21.27c-1.2,1.2-2.77,1.8-4.34,1.8Zm-37.93-52.74l37.93,37.93,12.6-12.59-37.93-37.93-12.6,12.6Z"></path>
</symbol><symbol id="i012_drink-19" xmlns="http://www.w3.org/2000/svg" viewBox="0 0 512 512">
  <path d="m303.57,466c-5.78,0-11.21-2.25-15.29-6.34L67.35,238.74c-8.43-8.44-8.43-22.16,0-30.59L208.15,67.34c8.43-8.43,22.16-8.44,30.59,0l220.93,220.93c8.43,8.43,8.43,22.16,0,30.59l-140.8,140.8c-4.09,4.09-9.52,6.34-15.3,6.34ZM223.45,73.42c-2.36,0-4.72.9-6.52,2.7L76.13,216.92c-3.59,3.59-3.59,9.44,0,13.03l220.93,220.93c3.48,3.48,9.55,3.48,13.03,0l140.8-140.8c3.59-3.59,3.59-9.45,0-13.04L229.96,76.12c-1.8-1.79-4.16-2.7-6.51-2.7Z"></path>
  <path d="m74.27,216.21c-1.59,0-3.18-.61-4.39-1.82l-16.24-16.24c-10.18-10.18-10.18-26.75,0-36.93l107.59-107.59c10.18-10.18,26.75-10.18,36.93,0l16.24,16.24c2.43,2.42,2.43,6.35,0,8.78L78.66,214.39c-1.21,1.21-2.8,1.82-4.39,1.82ZM179.69,58.41c-3.51,0-7.02,1.33-9.69,4l-107.59,107.59c-5.34,5.34-5.34,14.03,0,19.38l11.85,11.85,126.97-126.97-11.85-11.85c-2.67-2.67-6.18-4-9.69-4Z"></path>
  <g>
    <path d="m325.76,323.21c-2.57,0-4.97-1.6-5.86-4.17l-33.8-97.26-65.1,66.87c-1.5,1.54-3.68,2.18-5.77,1.74-2.09-.46-3.8-1.96-4.52-3.98l-30.24-84.63c-1.16-3.23.53-6.78,3.75-7.93,3.22-1.16,6.78.52,7.93,3.75l26.89,75.26,65.17-66.94c1.5-1.55,3.7-2.21,5.8-1.73,2.1.46,3.81,1.99,4.52,4.02l37.1,106.76c1.12,3.24-.59,6.77-3.83,7.9-.67.23-1.36.34-2.04.34Z"></path>
    <polygon points="297.75 300.55 324.55 313.54 337.52 286.73 343.39 303.62 330.41 330.41 303.62 317.43 297.75 300.55"></polygon>
  </g>
  <path d="m90.87,259.69c-1.59,0-3.18-.61-4.39-1.82-2.43-2.42-2.43-6.35,0-8.78L249.1,86.47c2.43-2.42,6.35-2.42,8.78,0,2.43,2.43,2.43,6.35,0,8.78l-162.62,162.62c-1.21,1.21-2.8,1.82-4.39,1.82Z"></path>
  <path d="m273.53,442.35c-1.59,0-3.18-.61-4.39-1.82-2.43-2.42-2.43-6.35,0-8.78l162.62-162.62c2.43-2.42,6.35-2.42,8.78,0s2.43,6.35,0,8.78l-162.62,162.62c-1.21,1.21-2.8,1.82-4.39,1.82Z"></path>
</symbol><symbol id="i012_drink-2" xmlns="http://www.w3.org/2000/svg" viewBox="0 0 512 512">
  <path d="m130.6,93.9v354.44c0,14.7,11.92,26.62,26.62,26.62h138.44c14.7,0,26.62-11.92,26.62-26.62V93.9h-191.69Zm178.19,354.44c0,7.23-5.89,13.12-13.12,13.12h-138.44c-7.23,0-13.12-5.89-13.12-13.12V107.4h164.69v340.94Z"></path>
  <rect x="131.91" y="416.44" width="189.06" height="8.92"></rect>
  <rect x="131.91" y="174.52" width="189.06" height="8.92"></rect>
  <path d="m320.97,37.05c-33.38,0-60.44,27.06-60.44,60.44h12.41c0-26.48,21.55-48.03,48.03-48.03s48.03,21.55,48.03,48.03-21.55,48.03-48.03,48.03c-.46,0-.91-.02-1.36-.03l-.96,12.38c.77.03,1.54.06,2.32.06,33.38,0,60.44-27.06,60.44-60.44s-27.06-60.44-60.44-60.44Z"></path>
  <path d="m320.97,70.95c-16.69,0-30.22,13.53-30.22,30.22h6.2c0-13.24,10.77-24.02,24.02-24.02s24.02,10.77,24.02,24.02-10.77,24.02-24.02,24.02c-.23,0-.45-.01-.68-.02l-.48,6.19c.39.01.77.03,1.16.03,16.69,0,30.22-13.53,30.22-30.22s-13.53-30.22-30.22-30.22Z"></path>
  <rect x="79.76" y="296.89" width="173.61" height="6.08" transform="translate(466.5 133.37) rotate(90)"></rect>
</symbol><symbol id="i012_drink-20" xmlns="http://www.w3.org/2000/svg" viewBox="0 0 512 512">
  <path d="m254.88,142.29c-.65,0-1.31-.1-1.96-.32-3.23-1.08-4.97-4.58-3.89-7.81l27.97-83.41c.84-2.51,3.18-4.2,5.82-4.21l111.73-.54h.03c3.4,0,6.16,2.74,6.17,6.14.02,3.41-2.73,6.18-6.14,6.2l-107.31.52-26.57,79.22c-.86,2.58-3.27,4.21-5.85,4.21Z"></path>
  <path d="m324.84,465.69H53.28c-3.41,0-6.17-2.76-6.17-6.17V136.12c0-3.41,2.76-6.17,6.17-6.17h271.55c3.41,0,6.17,2.76,6.17,6.17v136.22c0,2.51-1.52,4.77-3.85,5.72-34.58,14.07-56.92,47.22-56.92,84.45s22.34,70.38,56.92,84.45c2.33.95,3.85,3.21,3.85,5.72v6.85c0,3.41-2.76,6.17-6.17,6.17Zm-265.38-12.34h252.4c-33.13-18.02-53.96-52.53-53.96-90.84,0-40.88,23.71-77.42,60.76-94.23v-125.98H59.46v311.06Z"></path>
  <path d="m361.39,466c-13.4,0-26.48-2.56-38.88-7.61-39.25-15.97-64.61-53.61-64.61-95.89s25.36-79.91,64.61-95.89c12.4-5.05,25.49-7.61,38.88-7.61,57.07,0,103.49,46.43,103.49,103.49s-46.43,103.49-103.49,103.49Zm0-194.64c-11.79,0-23.31,2.25-34.23,6.7-34.58,14.07-56.92,47.22-56.92,84.45s22.34,70.38,56.92,84.45c10.92,4.44,22.44,6.7,34.23,6.7,50.26,0,91.15-40.89,91.15-91.15s-40.89-91.15-91.15-91.15Z"></path>
  <path d="m361.39,464.25c-3.41,0-6.17-2.76-6.17-6.17v-192.33c0-3.41,2.76-6.17,6.17-6.17s6.17,2.76,6.17,6.17v192.33c0,3.41-2.76,6.17-6.17,6.17Z"></path>
  <path d="m429.39,436.08c-1.58,0-3.16-.6-4.36-1.81l-136-136c-2.41-2.41-2.41-6.32,0-8.73,2.41-2.41,6.32-2.41,8.73,0l136,136c2.41,2.41,2.41,6.32,0,8.73-1.21,1.21-2.78,1.81-4.36,1.81Z"></path>
  <path d="m457.56,368.08h-192.33c-3.41,0-6.17-2.76-6.17-6.17s2.76-6.17,6.17-6.17h192.33c3.41,0,6.17,2.76,6.17,6.17s-2.76,6.17-6.17,6.17Z"></path>
  <path d="m293.39,436.08c-1.58,0-3.16-.6-4.36-1.81-2.41-2.41-2.41-6.32,0-8.73l136-136c2.41-2.41,6.32-2.41,8.73,0,2.41,2.41,2.41,6.32,0,8.73l-136,136c-1.21,1.21-2.78,1.81-4.36,1.81Z"></path>
  <path d="m127.77,263.37c-18.49,0-34.93-10.91-42.22-27.59h-32.27c-3.41,0-6.17-2.76-6.17-6.17v-24.73c0-3.41,2.76-6.17,6.17-6.17h32.27c7.28-16.67,23.73-27.59,42.22-27.59s34.93,10.91,42.23,27.59h154.73c3.41,0,6.17,2.76,6.17,6.17v24.73c0,3.41-2.76,6.17-6.17,6.17h-154.73c-7.29,16.67-23.74,27.59-42.23,27.59Zm-68.32-39.93h30.34c2.67,0,5.04,1.72,5.87,4.26,4.54,13.95,17.44,23.32,32.11,23.32s27.57-9.37,32.11-23.32c.83-2.54,3.2-4.26,5.87-4.26h152.8v-12.38h-152.8c-2.67,0-5.04-1.72-5.87-4.26-4.54-13.95-17.44-23.32-32.11-23.32s-27.57,9.37-32.11,23.32c-.83,2.54-3.2,4.26-5.87,4.26h-30.34v12.38Z"></path>
</symbol><symbol id="i012_drink-21" xmlns="http://www.w3.org/2000/svg" viewBox="0 0 512 512">
  <path d="m223.92,188.35c-.59,0-1.18-.09-1.78-.27-3.2-.98-5.01-4.37-4.03-7.57l39.77-130.21c.78-2.55,3.14-4.29,5.8-4.29h63.25c3.35,0,6.07,2.72,6.07,6.07s-2.72,6.07-6.07,6.07h-58.76l-38.46,125.92c-.8,2.61-3.2,4.3-5.8,4.3Z"></path>
  <path d="m385.74,333.84c-2.79,0-5.3-1.93-5.92-4.77-3.66-16.69-5.94-25.39-11.1-42.3-.98-3.2.83-6.59,4.03-7.57,3.2-.98,6.59.82,7.57,4.03,5.22,17.08,7.66,26.38,11.35,43.25.72,3.27-1.35,6.51-4.62,7.22-.44.09-.88.14-1.3.14Z"></path>
  <path d="m345.41,382.36c-3.17,0-5.83-2.46-6.05-5.67-.97-14.76-2.65-29.98-4.99-45.25-.51-3.31,1.77-6.41,5.07-6.91,3.34-.51,6.41,1.77,6.91,5.08,2.39,15.61,4.11,31.19,5.11,46.29.22,3.34-2.31,6.23-5.65,6.45-.13,0-.27.01-.41.01Z"></path>
  <path d="m385.83,333.7c-2.8,0-5.31-1.94-5.92-4.78-.71-3.27,1.37-6.5,4.64-7.21,15.76-3.42,24.54-5.66,39.14-9.99,3.22-.95,6.59.88,7.54,4.09.95,3.21-.88,6.59-4.09,7.54-14.76,4.38-24.11,6.76-40.02,10.21-.43.09-.87.14-1.29.14Z"></path>
  <path d="m345.53,382.24c-3.1,0-5.75-2.36-6.03-5.51-.3-3.34,2.15-6.29,5.49-6.6,18.29-1.68,28.09-2.91,45.57-5.72,3.33-.54,6.42,1.72,6.95,5.03.53,3.31-1.72,6.42-5.03,6.95-17.81,2.86-27.78,4.11-46.39,5.82-.19.02-.38.03-.56.03Z"></path>
  <path d="m262.21,433.91c-2.43,0-4.72-1.47-5.66-3.87-1.21-3.12.34-6.64,3.46-7.85,84.51-32.78,142.68-104.28,151.81-186.59.37-3.33,3.42-5.74,6.7-5.36,3.33.37,5.73,3.37,5.36,6.7-9.63,86.82-70.74,162.13-159.48,196.56-.72.28-1.47.41-2.2.41Z"></path>
  <path d="m174.21,271.61c-27.69,0-50.23-22.53-50.23-50.23s22.53-50.22,50.23-50.22,50.22,22.53,50.22,50.22-22.53,50.23-50.22,50.23Zm0-88.32c-21.01,0-38.1,17.09-38.1,38.09s17.09,38.09,38.1,38.09,38.09-17.09,38.09-38.09-17.09-38.09-38.09-38.09Z"></path>
  <path d="m174.21,250.16c-3.35,0-6.07-2.72-6.07-6.07s2.72-6.07,6.07-6.07c9.18,0,16.64-7.47,16.64-16.65,0-3.35,2.72-6.07,6.07-6.07s6.07,2.72,6.07,6.07c0,15.87-12.91,28.78-28.77,28.78Z"></path>
  <path d="m218.37,358.08c-20.87,0-37.85-16.98-37.85-37.85s16.98-37.85,37.85-37.85,37.85,16.98,37.85,37.85-16.98,37.85-37.85,37.85Zm0-63.57c-14.18,0-25.72,11.54-25.72,25.72s11.54,25.72,25.72,25.72,25.72-11.54,25.72-25.72-11.54-25.72-25.72-25.72Z"></path>
  <path d="m221.12,339.61c-3.35,0-6.07-2.72-6.07-6.07s2.72-6.07,6.07-6.07c2.48,0,4.5-2.02,4.5-4.5,0-3.35,2.72-6.07,6.07-6.07s6.07,2.72,6.07,6.07c0,9.17-7.46,16.63-16.63,16.63Z"></path>
  <path d="m229.76,446.04c-13.98,0-25.35-11.37-25.35-25.35s11.37-25.35,25.35-25.35,25.35,11.37,25.35,25.35-11.37,25.35-25.35,25.35Zm0-38.56c-7.29,0-13.22,5.93-13.22,13.22s5.93,13.22,13.22,13.22,13.22-5.93,13.22-13.22-5.93-13.22-13.22-13.22Z"></path>
  <path d="m262.21,394.91c-9.39,0-17.03-7.64-17.03-17.03s7.64-17.03,17.03-17.03,17.02,7.64,17.02,17.03-7.64,17.03-17.02,17.03Zm0-21.92c-2.7,0-4.9,2.2-4.9,4.9s2.2,4.89,4.9,4.89,4.89-2.2,4.89-4.89-2.2-4.9-4.89-4.9Z"></path>
  <path d="m284.1,288.01c-12.38,0-22.46-10.08-22.46-22.46s10.08-22.46,22.46-22.46,22.46,10.08,22.46,22.46-10.08,22.46-22.46,22.46Zm0-32.8c-5.69,0-10.33,4.64-10.33,10.33s4.64,10.33,10.33,10.33,10.33-4.64,10.33-10.33-4.64-10.33-10.33-10.33Z"></path>
  <path d="m271,218.23c-12.39,0-22.47-10.08-22.47-22.46s10.08-22.46,22.47-22.46,22.46,10.08,22.46,22.46-10.08,22.46-22.46,22.46Zm0-32.79c-5.7,0-10.33,4.63-10.33,10.33s4.64,10.33,10.33,10.33,10.33-4.64,10.33-10.33-4.64-10.33-10.33-10.33Z"></path>
  <path d="m137.35,447.92c-12.38,0-22.46-10.08-22.46-22.46s10.08-22.46,22.46-22.46,22.46,10.08,22.46,22.46-10.08,22.46-22.46,22.46Zm0-32.8c-5.69,0-10.33,4.64-10.33,10.33s4.64,10.33,10.33,10.33,10.33-4.64,10.33-10.33-4.64-10.33-10.33-10.33Z"></path>
  <path d="m92.91,206.3c-13.25,0-24.02-10.78-24.02-24.02s10.78-24.02,24.02-24.02,24.02,10.78,24.02,24.02-10.78,24.02-24.02,24.02Zm0-35.91c-6.56,0-11.89,5.33-11.89,11.89s5.34,11.89,11.89,11.89,11.89-5.33,11.89-11.89-5.34-11.89-11.89-11.89Z"></path>
  <path d="m119.39,367.29c-21.14,0-38.34-17.2-38.34-38.34s17.2-38.34,38.34-38.34,38.35,17.2,38.35,38.34-17.2,38.34-38.35,38.34Zm0-64.55c-14.45,0-26.21,11.76-26.21,26.21s11.76,26.21,26.21,26.21,26.21-11.76,26.21-26.21-11.76-26.21-26.21-26.21Z"></path>
  <path d="m119.39,349.95c-3.35,0-6.07-2.72-6.07-6.07s2.72-6.07,6.07-6.07c4.89,0,8.87-3.98,8.87-8.87,0-3.35,2.72-6.07,6.07-6.07s6.07,2.72,6.07,6.07c0,11.58-9.42,21-21,21Z"></path>
  <path d="m284.96,142.49H92.91c-3.35,0-6.07-2.72-6.07-6.07v-50.99c0-3.35,2.72-6.07,6.07-6.07h192.05c3.35,0,6.07,2.72,6.07,6.07v50.99c0,3.35-2.72,6.07-6.07,6.07Zm-185.98-12.13h179.91v-38.85H98.98v38.85Z"></path>
  <path d="m325.64,314.98c-.27-1.33-.58-2.68-.86-4.01v4.54c.28-.18.58-.35.86-.54Z"></path>
  <path d="m289.85,466H88.02c-22.6,0-40.99-18.39-40.99-41v-250.81c0-22.61,18.39-41,40.99-41h201.84c22.61,0,41,18.39,41,41v114.97c0,2.39-1.39,4.49-3.46,5.48,1.11,4.79,2.21,9.77,3.33,15.08.09.41.13.83.13,1.25v4.54c0,2.05-1.03,3.95-2.74,5.08-6.08,3.98-12.35,7.78-18.7,11.36,3.34,4.07,6.66,8.12,9.98,12.17,2.11,2.57,1.75,6.36-.8,8.49-5.62,4.71-11.51,9.24-17.58,13.54l12.53,8.27c1.77,1.17,2.8,3.18,2.72,5.3-.25,6.26-.64,12.51-1.17,18.65,3.15-.12,6.29-.27,9.41-.42,1.67-.1,3.28.52,4.48,1.67,1.2,1.14,1.88,2.73,1.88,4.39v21c0,22.61-18.39,41-41,41ZM88.02,145.33c-15.91,0-28.86,12.95-28.86,28.87v250.81c0,15.92,12.95,28.87,28.86,28.87h201.84c15.92,0,28.87-12.95,28.87-28.87v-14.65c-3.36.14-6.75.27-10.16.37-1.7.1-3.44-.66-4.62-1.94-1.19-1.28-1.77-3.02-1.59-4.76.73-6.98,1.28-14.16,1.63-21.38l-17.21-11.35c-1.7-1.12-2.72-3.03-2.72-5.07s1.03-3.94,2.73-5.06c6.69-4.4,13.18-9.11,19.37-14.06-3.57-4.36-7.16-8.73-10.76-13.12-1.15-1.4-1.62-3.25-1.26-5.04.36-1.78,1.49-3.31,3.1-4.17,7.29-3.88,14.5-8.11,21.49-12.57v-.61c-1.52-7.21-3.01-13.81-4.56-20.15-.4-1.63-.1-3.36.82-4.77.86-1.32,2.21-2.24,3.74-2.59v-109.9c0-15.92-12.95-28.87-28.87-28.87H88.02Z"></path>
  <path d="m365.56,422.06c-1.16,0-2.32-.33-3.34-1l-18.36-12.11c-6.19.44-12.46.8-18.78,1.11-5.47.27-10.96.5-16.52.67-1.7.1-3.44-.66-4.62-1.94-1.19-1.28-1.77-3.02-1.59-4.76.73-6.98,1.28-14.16,1.63-21.38l-17.21-11.35c-1.7-1.12-2.72-3.03-2.72-5.07s1.03-3.94,2.73-5.06c6.69-4.4,13.18-9.11,19.37-14.06-3.57-4.36-7.16-8.73-10.76-13.12-1.15-1.4-1.62-3.25-1.26-5.04.36-1.78,1.49-3.31,3.1-4.17,7.33-3.91,14.58-8.15,21.61-12.65-1.56-7.43-3.09-14.19-4.67-20.69-.4-1.63-.1-3.36.82-4.77.92-1.41,2.39-2.37,4.05-2.65l4.7-.84c5.81-1.03,11.08-2.01,15.97-2.98,1.22-8.03,2.1-16.24,2.63-24.44.12-1.84,1.07-3.53,2.59-4.59,1.52-1.06,3.42-1.36,5.2-.83l15.95,4.76c1.83-7.32,3.29-14.78,4.37-22.24.3-2.06,1.62-3.82,3.51-4.67,1.89-.85,4.1-.68,5.83.47l17.24,11.37c6.24-2.95,12.26-6,17.93-9.09,1.49-.82,3.25-.97,4.86-.42,1.6.55,2.91,1.74,3.59,3.29,4.75,10.75,9.24,21.65,13.38,32.44l18.45,12.18c2.24,1.48,3.25,4.26,2.46,6.83-2.42,7.93-5.35,15.82-8.72,23.49,4.85,5.44,9.68,10.87,14.48,16.29,2.07,2.33,2.03,5.85-.09,8.14-5.24,5.67-10.9,11.24-16.85,16.58,2.07,7.42,4.02,14.86,5.8,22.17.4,1.63.1,3.36-.82,4.77-.92,1.41-2.39,2.37-4.05,2.65-7.4,1.26-14.98,2.44-22.58,3.52-2.56,7.71-5.48,15.3-8.7,22.61-1.25,2.85-4.47,4.28-7.42,3.33-6.87-2.22-13.77-4.46-20.67-6.71-5.81,6.43-12,12.61-18.47,18.4-1.14,1.03-2.59,1.55-4.05,1.55Zm-20.08-25.37c1.18,0,2.35.35,3.34,1l16.13,10.64c5.85-5.46,11.43-11.23,16.65-17.21,1.6-1.83,4.14-2.54,6.45-1.78,6.4,2.09,12.78,4.16,19.15,6.22,2.69-6.51,5.13-13.22,7.27-20,.71-2.24,2.64-3.86,4.96-4.18,6.54-.89,13.07-1.87,19.51-2.91-1.61-6.32-3.33-12.71-5.14-19.06-.64-2.26.08-4.69,1.85-6.24,5.26-4.58,10.3-9.35,15.03-14.23-4.44-5-8.91-10.01-13.39-15.04-1.61-1.8-1.99-4.39-.98-6.58,3.21-6.94,6.02-14.08,8.4-21.29l-16.25-10.72c-1.06-.7-1.88-1.72-2.33-2.91-3.49-9.19-7.26-18.48-11.22-27.69-5.09,2.65-10.4,5.25-15.86,7.77-1.9.88-4.13.71-5.88-.44l-12.27-8.09c-1.28,6.88-2.86,13.71-4.73,20.4-.44,1.57-1.48,2.89-2.91,3.68-1.42.79-3.11.97-4.66.5l-14.75-4.4c-.67,7.48-1.62,14.92-2.85,22.21-.41,2.47-2.31,4.43-4.76,4.94-5.71,1.17-11.87,2.35-18.8,3.59,1.1,4.73,2.18,9.64,3.28,14.87l.86,4.05c.5,2.44-.55,4.94-2.65,6.29l-.54.34c-6.3,4.11-12.62,7.95-18.99,11.53,3.34,4.07,6.66,8.13,9.98,12.17,2.11,2.57,1.75,6.36-.8,8.49-5.62,4.71-11.51,9.24-17.58,13.54l12.53,8.27c1.77,1.17,2.8,3.18,2.72,5.3-.25,6.26-.64,12.51-1.17,18.65,3.15-.12,6.29-.27,9.41-.42,6.92-.34,13.78-.74,20.54-1.24.15,0,.3-.02.45-.02Z"></path>
</symbol><symbol id="i012_drink-3" xmlns="http://www.w3.org/2000/svg" viewBox="0 0 512 512">
  <g id="juice">
    <path d="m325.06,466h-120.18c-18.53,0-34.12-14.47-35.51-32.95l-20.85-278.69c-.44-5.83,1.59-11.62,5.57-15.91,3.97-4.28,9.6-6.74,15.45-6.74h190.86c5.84,0,11.47,2.46,15.45,6.74,3.97,4.28,6,10.08,5.57,15.91l-20.85,278.69c-1.38,18.48-16.98,32.95-35.51,32.95ZM169.53,144.8c-2.25,0-4.33.91-5.86,2.56-1.53,1.65-2.28,3.79-2.11,6.03l20.85,278.69c.87,11.69,10.74,20.85,22.46,20.85h120.18c11.72,0,21.59-9.16,22.46-20.85l20.85-278.69c.17-2.24-.58-4.38-2.11-6.03-1.53-1.65-3.61-2.56-5.86-2.56h-190.86Z"></path>
    <path d="m369.64,230.47c-1.16,0-2.33-.31-3.39-.95l-17.19-10.46c-25.64-15.61-59.25-17.92-87.71-6.04-27.91,11.65-60.98,11.24-88.46-1.11l-17.22-7.73c-3.29-1.48-4.77-5.35-3.29-8.64,1.48-3.3,5.35-4.77,8.64-3.29l17.22,7.73c24.24,10.89,53.42,11.25,78.06.97,32.26-13.47,70.4-10.81,99.55,6.94l17.19,10.46c3.08,1.88,4.06,5.9,2.19,8.99-1.23,2.02-3.39,3.14-5.59,3.14Z"></path>
    <path d="m292.1,205.83c-.45,0-.9-.05-1.35-.14-3.53-.74-5.8-4.21-5.05-7.75l19.94-94.81c6.96-33.1,36.57-57.13,70.4-57.13h48.07c3.61,0,6.54,2.93,6.54,6.54s-2.93,6.54-6.54,6.54h-48.07c-27.68,0-51.9,19.66-57.6,46.74l-19.94,94.81c-.65,3.08-3.37,5.19-6.39,5.19Z"></path>
    <path d="m153.91,210.7c-40,0-72.54-32.51-72.54-72.47s32.54-72.46,72.54-72.46,72.47,32.51,72.47,72.46c0,3.61-2.93,6.54-6.54,6.54s-6.54-2.93-6.54-6.54c0-32.75-26.64-59.39-59.39-59.39s-59.47,26.64-59.47,59.39,26.68,59.39,59.47,59.39c1.51,0,2.98-.07,4.53-.15l.35,6.53.3,6.53c-1.65.08-3.35.17-5.19.17Z"></path>
    <g>
      <path d="m252.39,435.21c-1,0-2.02-.2-3-.63,0,0,0,0,0,0l-40.99-17.93c-1.84-.8-3.25-2.27-3.98-4.14-.73-1.87-.69-3.91.11-5.75l17.93-40.99c1.66-3.8,6.1-5.53,9.89-3.87l40.99,17.93c3.79,1.66,5.53,6.1,3.87,9.89l-17.93,40.99c-1.23,2.82-4,4.5-6.89,4.5Zm2.23-12.62h.01s0,0-.01,0Zm-35.87-15.69l30.78,13.47,13.47-30.78-30.78-13.47-13.47,30.78Z"></path>
      <path d="m312.42,382.63c-1.02,0-2.04-.21-3-.63,0,0,0,0,0,0l-40.99-17.93c-1.84-.8-3.25-2.27-3.98-4.14-.73-1.87-.69-3.91.11-5.74l17.93-40.99c1.66-3.79,6.09-5.53,9.89-3.87l40.99,17.93c3.79,1.66,5.53,6.09,3.87,9.89l-17.93,40.99c-.8,1.84-2.27,3.25-4.14,3.98-.89.35-1.81.52-2.74.52Zm-33.65-28.32l30.78,13.47,13.47-30.78-30.78-13.47-13.47,30.78Z"></path>
      <path d="m318.77,299.38c-1,0-2.02-.2-2.99-.63,0,0,0,0,0,0l-40.99-17.93c-1.84-.8-3.25-2.27-3.98-4.14-.73-1.87-.69-3.91.11-5.74l17.93-40.99c.8-1.84,2.27-3.25,4.14-3.98,1.87-.73,3.91-.69,5.75.11l40.99,17.93c3.79,1.66,5.53,6.1,3.87,9.89l-17.93,40.99c-1.23,2.82-4,4.5-6.89,4.5Zm-33.64-28.31l30.78,13.47,13.47-30.78-30.78-13.47-13.47,30.78Z"></path>
      <path d="m234.19,343.5c-1,0-2.02-.2-3-.63,0,0,0,0,0,0l-40.99-17.93c-3.79-1.66-5.53-6.09-3.87-9.89l17.93-40.99c1.66-3.79,6.09-5.53,9.89-3.87l40.99,17.93c1.84.8,3.25,2.27,3.98,4.14.73,1.87.69,3.91-.11,5.74l-17.93,40.99c-1.23,2.82-4,4.5-6.89,4.5Zm2.23-12.62h0s0,0,0,0Zm-35.87-15.69l30.78,13.47,13.47-30.78-30.78-13.47-13.47,30.78Z"></path>
    </g>
  </g>
</symbol><symbol id="i012_drink-4" xmlns="http://www.w3.org/2000/svg" viewBox="0 0 512 512">
  <g id="lemonade">
    <path d="m316.39,466h-120.77c-18.6,0-34.26-14.53-35.65-33.08l-20.95-280.06c-.44-5.85,1.6-11.66,5.59-15.96s9.64-6.76,15.5-6.76h191.8c5.86,0,11.51,2.46,15.5,6.76s6.02,10.11,5.59,15.96l-20.95,280.06c-1.39,18.55-17.05,33.08-35.65,33.08ZM160.1,143.22c-2.27,0-4.37.92-5.91,2.58s-2.3,3.82-2.13,6.09l20.95,280.06c.88,11.76,10.81,20.98,22.61,20.98h120.77c11.8,0,21.73-9.21,22.61-20.98l20.95-280.06c.17-2.26-.59-4.42-2.13-6.09s-3.64-2.58-5.91-2.58h-191.8Z"></path>
    <path d="m361.19,229.31c-1.16,0-2.33-.31-3.39-.95l-17.27-10.52c-25.77-15.69-59.56-18.02-88.17-6.07-28.04,11.71-61.26,11.29-88.87-1.11l-17.3-7.77c-3.29-1.48-4.77-5.35-3.29-8.65,1.48-3.29,5.35-4.77,8.64-3.29l17.3,7.77c24.37,10.95,53.7,11.31,78.47.97,32.41-13.53,70.73-10.86,100.01,6.97l17.27,10.52c3.08,1.88,4.06,5.9,2.19,8.99-1.23,2.02-3.39,3.14-5.59,3.14Z"></path>
    <path d="m306.92,205.57c-.51,0-1.03-.06-1.55-.19-3.51-.85-5.66-4.39-4.81-7.9l32.06-131.68c.4-1.63.03-3.32-1.01-4.64s-2.59-2.08-4.27-2.08c-2.53,0-4.7,1.72-5.29,4.18l-32.44,136.26c-.84,3.51-4.36,5.69-7.88,4.85-3.51-.84-5.68-4.36-4.85-7.88l32.44-136.27c1.99-8.38,9.4-14.23,18.01-14.23,5.72,0,11.02,2.58,14.56,7.08,3.53,4.5,4.78,10.26,3.43,15.82l-32.06,131.68c-.73,2.99-3.4,4.99-6.35,4.99Z"></path>
    <g>
      <path d="m243.37,435.07c-1.02,0-2.04-.21-3.01-.63,0,0,0,0,0,0l-41.2-18.02c-3.79-1.66-5.53-6.1-3.87-9.89l18.02-41.2c1.66-3.79,6.1-5.53,9.89-3.87l41.2,18.02c3.79,1.66,5.53,6.09,3.87,9.89l-18.02,41.2c-.8,1.84-2.27,3.25-4.14,3.98-.89.35-1.81.52-2.74.52Zm-33.86-28.41l30.99,13.56,13.56-30.99-30.99-13.56-13.56,30.99Z"></path>
      <path d="m303.69,367.69c-1.02,0-2.04-.21-3.01-.63l-41.2-18.02c-1.84-.8-3.25-2.27-3.98-4.14-.73-1.87-.69-3.91.11-5.75l18.02-41.2c.8-1.84,2.27-3.25,4.14-3.98,1.87-.73,3.91-.69,5.75.11l41.2,18.02c1.84.8,3.25,2.27,3.98,4.14.73,1.87.69,3.91-.11,5.75l-18.02,41.2c-.8,1.84-2.27,3.25-4.14,3.98-.89.35-1.81.52-2.74.52Zm2.24-12.62s0,0,0,0c0,0,0,0,0,0Zm-36.1-15.79l30.99,13.56,13.56-30.99-30.99-13.56-13.56,30.99Z"></path>
      <path d="m239.62,306.57c-1.02,0-2.04-.21-3-.63,0,0,0,0,0,0l-41.2-18.02c-3.8-1.66-5.53-6.1-3.87-9.89l18.02-41.2c1.66-3.79,6.09-5.53,9.89-3.87l41.2,18.02c1.84.8,3.25,2.27,3.98,4.14.73,1.87.69,3.91-.11,5.75l-18.02,41.2c-.8,1.84-2.27,3.25-4.14,3.98-.89.35-1.81.52-2.74.52Zm-33.86-28.41l30.99,13.56,13.56-30.99-30.99-13.56-13.56,30.99Z"></path>
    </g>
  </g>
</symbol><symbol id="i012_drink-5" xmlns="http://www.w3.org/2000/svg" viewBox="0 0 512 512">
  <g id="water">
    <path d="m349.27,466h-186.54c-27.55,0-49.97-24.03-49.97-53.56v-215.73c0-15.41,4.46-30.14,12.9-42.6l12.22-18.04c5.78-8.54,8.96-19.08,8.96-29.7v-35.02c0-13.98,10.73-25.35,23.91-25.35h170.5c13.18,0,23.91,11.37,23.91,25.35v35.02c0,10.62,3.18,21.17,8.96,29.7l12.22,18.04c8.44,12.46,12.9,27.19,12.9,42.6v215.73c0,29.53-22.41,53.56-49.97,53.56ZM170.75,59.08c-5.97,0-10.83,5.5-10.83,12.27v35.02c0,13.4-3.88,26.21-11.21,37.04l-12.22,18.04c-6.86,10.14-10.65,22.66-10.65,35.26v215.73c0,22.32,16.55,40.48,36.89,40.48h186.54c20.34,0,36.89-18.16,36.89-40.48v-215.73c0-12.61-3.78-25.13-10.65-35.26l-12.22-18.04c-7.34-10.83-11.21-23.64-11.21-37.04v-35.02c0-6.77-4.86-12.27-10.83-12.27h-170.5Z"></path>
    <path d="m320.48,440.17c-3.61,0-6.54-2.93-6.54-6.54s2.93-6.54,6.54-6.54c20.34,0,36.89-18.16,36.89-40.48,0-3.61,2.93-6.54,6.54-6.54s6.54,2.93,6.54,6.54c0,29.53-22.41,53.56-49.97,53.56Z"></path>
    <path d="m358.62,106.54h-205.24c-3.61,0-6.54-2.93-6.54-6.54s2.93-6.54,6.54-6.54h205.24c3.61,0,6.54,2.93,6.54,6.54s-2.93,6.54-6.54,6.54Z"></path>
    <path d="m358.62,83.29h-205.24c-3.61,0-6.54-2.93-6.54-6.54s2.93-6.54,6.54-6.54h205.24c3.61,0,6.54,2.93,6.54,6.54s-2.93,6.54-6.54,6.54Z"></path>
    <path d="m392.69,254.74c-1.2,0-2.41-.33-3.49-1.02l-32.38-20.51c-28.2-17.87-64.13-19.42-93.77-4.07-32,16.58-69.93,16.03-101.44-1.46l-45.48-25.25c-3.16-1.75-4.3-5.73-2.54-8.89,1.75-3.16,5.73-4.29,8.89-2.54l45.48,25.25c27.67,15.36,60.97,15.84,89.08,1.28,33.76-17.49,74.67-15.71,106.79,4.63l32.38,20.51c3.05,1.93,3.96,5.97,2.02,9.02-1.25,1.97-3.36,3.04-5.53,3.04Z"></path>
    <path d="m256,429.26c-3.4,0-6.8-1.29-9.39-3.88l-61.91-61.91c-5.18-5.18-5.18-13.6,0-18.77l66.68-66.68c2.55-2.55,6.69-2.55,9.25,0l66.68,66.68c5.18,5.18,5.18,13.6,0,18.77l-61.91,61.91c-2.59,2.59-5.99,3.88-9.39,3.88Zm0-137.37l-62.05,62.05c-.08.08-.08.2,0,.28l61.91,61.91c.08.08.2.08.28,0l61.91-61.91c.08-.08.08-.2,0-.28l-62.05-62.05Z"></path>
    <path d="m252.72,392.65c-17.26,0-31.31-14.05-31.31-31.31,0-3.61,2.93-6.54,6.54-6.54s6.54,2.93,6.54,6.54c0,10.05,8.18,18.23,18.23,18.23,3.61,0,6.54,2.93,6.54,6.54s-2.93,6.54-6.54,6.54Z"></path>
  </g>
</symbol><symbol id="i012_drink-6" xmlns="http://www.w3.org/2000/svg" viewBox="0 0 512 512">
  <g id="paper_cup" data-name="paper cup">
    <path d="m390.91,196.77l-26.59-55.58c-2.35-19.84-35.18-32.3-74.61-36.85l29.1-43.82h53.08c4.01,0,7.26-3.25,7.26-7.26s-3.25-7.26-7.26-7.26h-56.97c-2.43,0-4.7,1.22-6.04,3.24l-35.63,53.65c-6.03-.35-12.12-.55-18.21-.55-52.93,0-106.34,13.38-109.29,38.9l-24.72,54.52c-.86,1.91-.86,4.1,0,6.01s2.52,3.34,4.53,3.94l20.78,6.21,38.35,231.22c.4,2.44,2.03,4.51,4.3,5.48l16.2,6.92c16.31,6.97,33.85,10.45,51.39,10.45s34.22-3.32,50.19-9.95l15.04-6.25c2.32-.96,3.98-3.06,4.38-5.53l37.51-230.75c.46-.09.95-.14,1.41-.23.26-.05.52-.11.77-.19l20.6-6.25c2.02-.62,3.68-2.08,4.53-4.02.85-1.93.82-4.15-.1-6.06Zm-135.88-79.91c3.02,0,5.94.07,8.84.15l-14.89,22.42c-2.22,3.34-1.31,7.84,2.03,10.06,1.24.82,2.63,1.21,4.01,1.21,2.35,0,4.66-1.14,6.05-3.24l19.57-29.48c43.05,3.73,69.44,16.32,69.44,25.46,0,10.84-37.03,26.58-95.06,26.58s-95.06-15.74-95.06-26.58,37.03-26.58,95.06-26.58Zm57.47,321.09l-11.31,4.7c-28.75,11.96-61.67,11.8-90.31-.44l-12.54-5.36-36.82-222.04c31.16,5.23,64.03,8,97.02,8,30.52,0,60.96-2.38,90.05-6.86l-36.09,222Zm49.54-238.85c-66.75,12.44-143.06,12.27-209.52-.47l-14.85-4.44,15.65-34.53c17.04,16.36,59.51,24.87,101.7,24.87s85.04-8.59,101.93-25.1l17.21,35.98-12.13,3.68Z"></path>
    <path d="m288.76,407.31c.28.03.55.05.83.05,3.64,0,6.78-2.74,7.2-6.44l16.79-148.36c.45-3.98-2.41-7.58-6.4-8.03-3.97-.43-7.58,2.41-8.03,6.4l-16.79,148.36c-.45,3.98,2.41,7.58,6.4,8.03Z"></path>
  </g>
</symbol><symbol id="i012_drink-7" xmlns="http://www.w3.org/2000/svg" viewBox="0 0 512 512">
  <g id="drink_2">
    <path d="m304.46,466h-96.98c-14.63,0-27.04-11.42-28.24-26l-19.27-232.81c-.15-1.82.47-3.62,1.71-4.97,1.24-1.34,2.98-2.11,4.81-2.11h178.98c1.83,0,3.57.77,4.81,2.11,1.24,1.35,1.86,3.15,1.71,4.97l-19.27,232.81c-1.21,14.58-13.61,26-28.24,26Zm-130.88-252.81l18.69,225.73c.65,7.85,7.33,14,15.21,14h96.98c7.88,0,14.56-6.15,15.21-14l18.69-225.73h-164.77Z"></path>
    <path d="m290.87,449.75h-21.93c-3.61,0-6.54-2.93-6.54-6.54s2.93-6.54,6.54-6.54h21.93c7.43,0,13.73-5.8,14.34-13.2,0-.07.01-.15.02-.22l2.05-17.5c.42-3.59,3.67-6.15,7.26-5.73,3.59.42,6.15,3.67,5.73,7.26l-2.04,17.39c-1.23,14.08-13.22,25.08-27.37,25.08Z"></path>
    <path d="m346.31,213.19h-180.62c-6.03,0-11.86-2.42-15.98-6.65-4.19-4.19-6.53-9.85-6.53-15.87,0-12.42,10.1-22.52,22.52-22.52h180.62c6.02,0,11.68,2.34,15.93,6.59s6.59,9.91,6.59,15.93c0,12.42-10.1,22.52-22.52,22.52Zm-180.62-31.95c-5.29,0-9.44,4.15-9.44,9.44,0,2.53.98,4.9,2.76,6.68,1.73,1.77,4.15,2.76,6.68,2.76h180.62c5.2,0,9.44-4.23,9.44-9.44,0-2.53-.98-4.9-2.76-6.68-1.78-1.78-4.15-2.76-6.68-2.76h-180.62Z"></path>
    <path d="m346.31,181.24h-180.62c-2.04,0-3.96-.95-5.2-2.57-1.24-1.62-1.65-3.72-1.12-5.69,10.98-40.4,49.8-67.54,96.59-67.54,7,0,13.91.6,20.54,1.78,37.79,6.82,66.95,32.02,76.12,65.77.53,1.97.12,4.07-1.12,5.69-1.24,1.62-3.16,2.57-5.19,2.57Zm-171.52-13.08h162.42c-10.05-24.65-33.46-42.73-63.01-48.07-5.86-1.04-12-1.57-18.23-1.57-37.47,0-68.99,19.62-81.18,49.64Z"></path>
    <path d="m334.39,346.87c-1.35,0-2.7-.41-3.87-1.27l-13.61-10.01c-18.58-13.66-42.91-15.7-63.51-5.31-21.65,10.91-47.29,10.53-68.6-1.03l-12.33-6.69c-3.17-1.72-4.35-5.69-2.63-8.87,1.72-3.18,5.69-4.35,8.87-2.63l12.33,6.69c17.54,9.52,38.65,9.83,56.47.85,25.01-12.61,54.57-10.14,77.14,6.46l13.61,10c2.91,2.14,3.53,6.23,1.39,9.14-1.28,1.74-3.26,2.67-5.27,2.67Z"></path>
    <path d="m275.36,120.19c-.38,0-.76-.03-1.15-.1-5.87-1.04-12.01-1.57-18.25-1.57-2.1,0-4.08-1.01-5.31-2.72-1.23-1.71-1.56-3.9-.89-5.9l17.89-53.28c2.13-6.35,8.06-10.62,14.76-10.62,5.02,0,9.6,2.32,12.57,6.38,2.96,4.05,3.79,9.12,2.28,13.91l-15.66,49.35c-.87,2.75-3.43,4.56-6.23,4.56Zm-10.42-14.42c1.97.15,3.93.34,5.87.58l13.97-44.03h0c.33-1.05-.09-1.84-.36-2.23-.28-.38-.91-1.02-2.01-1.02s-2.02.68-2.36,1.7l-15.1,44.99Z"></path>
  </g>
</symbol><symbol id="i012_drink-8" xmlns="http://www.w3.org/2000/svg" viewBox="0 0 512 512">
  <g id="drink_1">
    <path d="m308.22,466h-104.43c-13.79,0-25.37-10.78-26.36-24.53l-18.56-258.26c-.13-1.81.5-3.59,1.74-4.92,1.24-1.33,2.97-2.08,4.79-2.08h181.22c1.82,0,3.55.76,4.79,2.08,1.24,1.33,1.87,3.11,1.74,4.92l-18.56,258.26c-.99,13.76-12.57,24.53-26.36,24.53ZM172.42,189.28l18.06,251.25c.5,6.95,6.35,12.39,13.31,12.39h104.43c6.97,0,12.81-5.44,13.31-12.39l18.06-251.25h-167.17Z"></path>
    <path d="m350.53,189.28h-189.06c-12.41,0-22.51-10.1-22.51-22.51s10.1-22.51,22.51-22.51h189.06c12.41,0,22.51,10.1,22.51,22.51s-10.1,22.51-22.51,22.51Zm-189.06-31.94c-5.2,0-9.43,4.23-9.43,9.43s4.23,9.43,9.43,9.43h189.06c5.2,0,9.43-4.23,9.43-9.43s-4.23-9.43-9.43-9.43h-189.06Z"></path>
    <path d="m333.42,157.34h-155.44c-3.61,0-6.54-2.93-6.54-6.54,0-15.84,12.89-28.73,28.73-28.73h111.06c15.84,0,28.73,12.89,28.73,28.73,0,3.61-2.93,6.54-6.54,6.54Zm-147.47-13.08h139.5c-2.48-5.38-7.92-9.11-14.22-9.11h-111.06c-6.3,0-11.74,3.74-14.22,9.11Z"></path>
    <path d="m305.78,135.15h-17.77c-1.9,0-3.7-.82-4.94-2.25-1.24-1.43-1.8-3.33-1.53-5.21l9.83-68.88c1.04-7.3,7.38-12.8,14.76-12.8,4.29,0,8.37,1.85,11.2,5.07,2.83,3.22,4.14,7.5,3.58,11.76l-8.64,66.63c-.42,3.26-3.2,5.7-6.49,5.7Zm-10.23-13.08h4.48l7.9-60.93c.09-.71-.24-1.21-.44-1.44-.2-.23-.65-.62-1.37-.62-.9,0-1.68.67-1.81,1.57l-8.77,61.42Z"></path>
    <path d="m289.49,446.13h-22.12c-3.61,0-6.54-2.93-6.54-6.54s2.93-6.54,6.54-6.54h22.12c4.01,0,7.32-3.01,7.7-6.99l2.78-28.79c.35-3.59,3.54-6.22,7.14-5.88,3.59.35,6.23,3.54,5.88,7.14l-2.78,28.79c-1.04,10.73-9.94,18.82-20.72,18.82Z"></path>
    <path d="m193.34,298.96c-3.43,0-6.31-2.67-6.52-6.14l-4.29-70.36c-.22-3.61,2.52-6.71,6.13-6.93,3.6-.22,6.71,2.52,6.93,6.13l4.29,70.36c.22,3.61-2.52,6.71-6.13,6.93-.14,0-.27.01-.4.01Z"></path>
  </g>
</symbol><symbol id="i012_drink-9" xmlns="http://www.w3.org/2000/svg" viewBox="0 0 512 512">
  <path d="m295.75,138.89c-8.2,0-12.49-3.47-15.95-6.25-2.81-2.26-4.66-3.75-8.87-3.75s-6.06,1.49-8.86,3.75c-3.45,2.79-7.75,6.25-15.94,6.25s-12.48-3.47-15.93-6.25c-2.8-2.26-4.64-3.75-8.85-3.75s-6.06,1.49-8.86,3.75c-3.45,2.79-7.75,6.25-15.94,6.25s-12.48-3.47-15.94-6.25c-2.8-2.26-4.65-3.75-8.85-3.75s-6.06,1.49-8.86,3.75c-3.45,2.79-7.74,6.25-15.93,6.25s-12.48-3.47-15.93-6.25c-2.8-2.26-4.65-3.75-8.86-3.75-3.11,0-5.63-2.52-5.63-5.63s2.52-5.63,5.63-5.63c8.19,0,12.48,3.47,15.94,6.25,2.8,2.26,4.65,3.75,8.85,3.75s6.05-1.49,8.85-3.75c3.45-2.79,7.75-6.25,15.94-6.25s12.48,3.47,15.93,6.25c2.8,2.26,4.65,3.75,8.86,3.75s6.06-1.49,8.86-3.75c3.45-2.79,7.75-6.25,15.94-6.25s12.48,3.47,15.93,6.25c2.8,2.26,4.65,3.75,8.85,3.75s6.06-1.49,8.86-3.75c3.45-2.79,7.75-6.25,15.94-6.25s12.49,3.47,15.95,6.25c2.81,2.26,4.66,3.75,8.87,3.75s6.07-1.49,8.87-3.75c3.46-2.78,7.75-6.25,15.95-6.25,3.11,0,5.63,2.52,5.63,5.63s-2.52,5.63-5.63,5.63c-4.22,0-6.07,1.49-8.87,3.75-3.46,2.78-7.75,6.25-15.95,6.25Z"></path>
  <path d="m220.48,451c-85.06,0-154.25-69.2-154.25-154.25,0-42.45,17.66-83.24,48.54-112.32v-71.43l-46.68-42.18c-1.73-1.56-2.32-4.03-1.48-6.2.84-2.18,2.93-3.61,5.26-3.61h248.7c3.11,0,5.63,2.52,5.63,5.63v117.79c30.88,29.08,48.54,69.87,48.54,112.32,0,85.06-69.2,154.25-154.25,154.25ZM86.51,72.27l37.67,34.04c1.18,1.07,1.86,2.59,1.86,4.18v76.39c0,1.58-.67,3.1-1.84,4.16-29.68,27.05-46.7,65.57-46.7,105.7,0,78.84,64.14,142.98,142.98,142.98s142.98-64.14,142.98-142.98c0-40.12-17.02-78.65-46.7-105.7-1.17-1.07-1.84-2.58-1.84-4.16v-114.62H86.51Z"></path>
  <path d="m196.24,282.63c-34.56,0-62.68-28.12-62.68-62.68s28.12-62.68,62.68-62.68,62.69,28.12,62.69,62.68-28.12,62.68-62.69,62.68Zm0-114.1c-28.35,0-51.41,23.07-51.41,51.41s23.06,51.41,51.41,51.41,51.42-23.06,51.42-51.41-23.07-51.41-51.42-51.41Z"></path>
  <path d="m196.24,281.6c-3.11,0-5.63-2.52-5.63-5.63v-112.75c0-3.11,2.52-5.63,5.63-5.63s5.63,2.52,5.63,5.63v112.75c0,3.11-2.52,5.63-5.63,5.63Z"></path>
  <path d="m236.1,265.09c-1.44,0-2.88-.55-3.98-1.65l-79.73-79.72c-2.2-2.2-2.2-5.77,0-7.97,2.2-2.2,5.77-2.2,7.97,0l79.73,79.72c2.2,2.2,2.2,5.77,0,7.97-1.1,1.1-2.54,1.65-3.98,1.65Z"></path>
  <path d="m252.62,225.23h-112.75c-3.11,0-5.63-2.52-5.63-5.63s2.52-5.63,5.63-5.63h112.75c3.11,0,5.63,2.52,5.63,5.63s-2.52,5.63-5.63,5.63Z"></path>
  <path d="m156.38,265.09c-1.44,0-2.88-.55-3.98-1.65-2.2-2.2-2.2-5.77,0-7.97l79.73-79.72c2.2-2.2,5.77-2.2,7.97,0,2.2,2.2,2.2,5.77,0,7.97l-79.73,79.72c-1.1,1.1-2.54,1.65-3.98,1.65Z"></path>
  <path d="m297.05,364.52c-28.93,0-52.47-23.53-52.47-52.46s23.54-52.47,52.47-52.47,52.46,23.54,52.46,52.47-23.53,52.46-52.46,52.46Zm0-93.66c-22.71,0-41.2,18.48-41.2,41.2s18.48,41.19,41.2,41.19,41.19-18.48,41.19-41.19-18.48-41.2-41.19-41.2Z"></path>
  <path d="m297.05,363.68c-3.11,0-5.63-2.52-5.63-5.63v-92.55c0-3.11,2.52-5.63,5.63-5.63s5.63,2.52,5.63,5.63v92.55c0,3.11-2.52,5.63-5.63,5.63Z"></path>
  <path d="m329.77,350.12c-1.44,0-2.88-.55-3.98-1.65l-65.44-65.44c-2.2-2.2-2.2-5.77,0-7.97,2.2-2.2,5.77-2.2,7.97,0l65.44,65.44c2.2,2.2,2.2,5.77,0,7.97-1.1,1.1-2.54,1.65-3.98,1.65Z"></path>
  <path d="m343.32,317.4h-92.55c-3.11,0-5.63-2.52-5.63-5.63s2.52-5.63,5.63-5.63h92.55c3.11,0,5.63,2.52,5.63,5.63s-2.52,5.63-5.63,5.63Z"></path>
  <path d="m264.33,350.12c-1.44,0-2.88-.55-3.98-1.65-2.2-2.2-2.2-5.77,0-7.97l65.44-65.44c2.2-2.2,5.77-2.2,7.97,0,2.2,2.2,2.2,5.77,0,7.97l-65.44,65.44c-1.1,1.1-2.54,1.65-3.98,1.65Z"></path>
  <path d="m178.21,409.37c-30.23,0-54.83-24.6-54.83-54.83s24.6-54.83,54.83-54.83,54.83,24.6,54.83,54.83-24.6,54.83-54.83,54.83Zm0-98.39c-24.02,0-43.56,19.54-43.56,43.56s19.54,43.56,43.56,43.56,43.56-19.54,43.56-43.56-19.54-43.56-43.56-43.56Z"></path>
  <path d="m178.21,408.49c-3.11,0-5.63-2.52-5.63-5.63v-97.23c0-3.11,2.52-5.63,5.63-5.63s5.63,2.52,5.63,5.63v97.23c0,3.11-2.52,5.63-5.63,5.63Z"></path>
  <path d="m212.59,394.25c-1.44,0-2.88-.55-3.98-1.65l-68.75-68.75c-2.2-2.2-2.2-5.77,0-7.97,2.2-2.2,5.77-2.2,7.97,0l68.75,68.75c2.2,2.2,2.2,5.77,0,7.97-1.1,1.1-2.54,1.65-3.98,1.65Z"></path>
  <path d="m226.82,359.88h-97.22c-3.11,0-5.63-2.52-5.63-5.63s2.52-5.63,5.63-5.63h97.22c3.11,0,5.63,2.52,5.63,5.63s-2.52,5.63-5.63,5.63Z"></path>
  <path d="m143.84,394.25c-1.44,0-2.88-.55-3.98-1.65-2.2-2.2-2.2-5.77,0-7.97l68.75-68.75c2.2-2.2,5.77-2.2,7.97,0,2.2,2.2,2.2,5.77,0,7.97l-68.75,68.75c-1.1,1.1-2.54,1.65-3.98,1.65Z"></path>
  <path d="m354.71,368.43c-2.43,0-4.67-1.58-5.4-4.03-.89-2.98.81-6.12,3.79-7.01,47.92-14.26,81.39-59.17,81.39-109.22v-78.83c0-8.66-7.05-15.72-15.72-15.72h-98.22c-3.11,0-5.63-2.52-5.63-5.63s2.52-5.63,5.63-5.63h98.22c14.88,0,26.98,12.11,26.98,26.98v78.83c0,55-36.78,104.35-89.44,120.02-.54.16-1.08.24-1.61.24Z"></path>
</symbol>
</svg>