<svg xmlns="http://www.w3.org/2000/svg" style="display: none;">

<symbol id="i013_drink-1" xmlns="http://www.w3.org/2000/svg" viewBox="0 0 512 512">
  <g id="coffee">
    <path d="m326.41,414.89h-145.37c-1.21,0-2.4-.34-3.43-.97-26.21-16.13-48.35-40.36-64.03-70.1-15.53-29.43-23.74-62.33-23.74-95.13v-23.55c0-11.62,9.45-21.07,21.07-21.07h285.54c11.62,0,21.07,9.45,21.07,21.07v23.55c0,32.81-8.19,65.71-23.69,95.13-15.67,29.74-37.8,53.98-64,70.1-1.03.63-2.22.97-3.43.97Zm-143.5-13.08h141.62c48.6-30.75,79.91-90.63,79.91-153.12v-23.55c0-4.41-3.59-7.99-7.99-7.99H110.92c-4.41,0-7.99,3.59-7.99,7.99v23.55c0,62.46,31.34,122.34,79.99,153.12Z"></path>
    <path d="m317.8,396.5c-2.12,0-4.2-1.03-5.46-2.93-1.99-3.01-1.17-7.07,1.85-9.06,15.31-10.13,28.94-23.33,40.51-39.24,2.13-2.92,6.21-3.57,9.14-1.44,2.92,2.12,3.57,6.21,1.44,9.14-12.49,17.17-27.25,31.46-43.87,42.45-1.11.73-2.36,1.09-3.6,1.09Z"></path>
    <path d="m393.67,365.31c-5.49,0-11.09-.58-16.71-1.78-3.53-.75-5.78-4.23-5.03-7.76.75-3.53,4.23-5.79,7.76-5.03,32.67,6.97,64.11-11.24,71.62-41.45,7.38-29.54-11.17-60.2-42.24-69.8-3.45-1.07-5.38-4.73-4.32-8.18,1.07-3.45,4.73-5.38,8.18-4.32,37.7,11.66,60.13,49.2,51.07,85.46-7.9,31.82-37.16,52.85-70.32,52.85Z"></path>
    <path d="m410.99,255.23H96.38c-3.61,0-6.54-2.93-6.54-6.54s2.93-6.54,6.54-6.54h314.61c3.61,0,6.54,2.93,6.54,6.54s-2.93,6.54-6.54,6.54Z"></path>
    <path d="m449.03,435.75H62.97c-9.36,0-16.97-7.61-16.97-16.97s7.61-16.97,16.97-16.97h386.05c9.36,0,16.97,7.61,16.97,16.97s-7.61,16.97-16.97,16.97Zm-386.05-20.87c-2.15,0-3.89,1.75-3.89,3.89s1.75,3.89,3.89,3.89h386.05c2.15,0,3.89-1.75,3.89-3.89s-1.75-3.89-3.89-3.89H62.97Z"></path>
    <path d="m238.03,167.83c-1.53,0-3.06-.53-4.3-1.62-2.72-2.38-2.99-6.51-.62-9.23l5.77-6.59c5.78-6.6,7.98-15.29,5.74-22.68-.31-1.02-.69-2.03-1.12-3.01-.66-1.47-1.23-3-1.69-4.55-3.53-11.67-.3-25.11,8.42-35.07l5.77-6.59c2.38-2.72,6.51-2.99,9.23-.62,2.72,2.38,2.99,6.51.62,9.23l-5.77,6.59c-5.78,6.6-7.98,15.29-5.74,22.68.31,1.02.69,2.03,1.12,3.01.65,1.47,1.22,3,1.69,4.54,3.53,11.67.3,25.11-8.42,35.07l-5.77,6.59c-1.29,1.48-3.1,2.23-4.92,2.23Z"></path>
    <path d="m207.13,158.66c-1.53,0-3.06-.53-4.3-1.62-2.72-2.38-2.99-6.51-.61-9.23l4.5-5.15c3.53-4.03,5.21-8.81,4.61-13.1-.23-1.68-.7-3.32-1.39-4.86-1.19-2.67-2-5.49-2.4-8.38-1.12-8.05,1.69-16.63,7.72-23.52l4.5-5.15c2.38-2.72,6.51-2.99,9.23-.62,2.72,2.38,2.99,6.51.61,9.23l-4.5,5.15c-3.53,4.03-5.21,8.81-4.61,13.1.23,1.68.7,3.31,1.39,4.86,1.19,2.67,1.99,5.48,2.4,8.38,1.12,8.06-1.69,16.63-7.72,23.52l-4.5,5.15c-1.29,1.48-3.1,2.23-4.92,2.23Z"></path>
    <path d="m274.41,158.66c-1.53,0-3.06-.53-4.3-1.62-2.72-2.38-2.99-6.51-.61-9.23l4.5-5.15c3.53-4.03,5.21-8.81,4.61-13.1-.23-1.68-.7-3.32-1.39-4.86-1.19-2.67-2-5.49-2.4-8.38-1.12-8.05,1.69-16.63,7.72-23.52l4.5-5.15c2.38-2.72,6.51-2.99,9.23-.62,2.72,2.38,2.99,6.51.61,9.23l-4.5,5.15c-3.53,4.03-5.21,8.81-4.61,13.1.23,1.68.7,3.32,1.39,4.87,1.19,2.67,1.99,5.48,2.4,8.38,1.12,8.06-1.69,16.63-7.72,23.52l-4.5,5.15c-1.29,1.48-3.1,2.23-4.92,2.23Z"></path>
    <path d="m160.28,278.69h-36.16c-3.61,0-6.54-2.93-6.54-6.54s2.93-6.54,6.54-6.54h36.16c3.61,0,6.54,2.93,6.54,6.54s-2.93,6.54-6.54,6.54Z"></path>
    <path d="m196.8,278.69h-11.65c-3.61,0-6.54-2.93-6.54-6.54s2.93-6.54,6.54-6.54h11.65c3.61,0,6.54,2.93,6.54,6.54s-2.93,6.54-6.54,6.54Z"></path>
  </g>
</symbol><symbol id="i013_drink-2" xmlns="http://www.w3.org/2000/svg" viewBox="0 0 512 512">
  <path d="m256,461.74c-117.76,0-210-35.95-210-81.85,0-24.78,25.85-46.95,72.8-62.44,1.61-.53,3.39-.36,4.87.48,1.48.84,2.54,2.27,2.91,3.93,8.94,39.94,45.17,68.92,86.14,68.92h84.66c41.23,0,77.51-29.21,86.27-69.45.36-1.66,1.41-3.1,2.89-3.95,1.48-.85,3.24-1.04,4.87-.51,48.1,15.51,74.59,37.89,74.59,63.02,0,45.9-92.24,81.85-210,81.85Zm-139.5-130.73c-36.72,13.18-58.42,31.24-58.42,48.88,0,33.7,79.53,69.77,197.92,69.77s197.92-36.08,197.92-69.77c0-17.95-22.34-36.22-60.12-49.47-12.28,42.36-51.8,72.44-96.42,72.44h-84.66c-44.32,0-83.76-29.84-96.23-71.85Z"></path>
  <path d="m297.39,402.86h-84.66c-46.57,0-87.76-32.96-97.93-78.36-1.63-7.26-2.45-14.67-2.45-22.02V123.48c0-3.34,2.7-6.04,6.04-6.04h273.34c3.34,0,6.04,2.7,6.04,6.04v179c0,7.15-.78,14.36-2.31,21.42-9.95,45.75-51.19,78.96-98.07,78.96ZM124.42,129.52v172.96c0,6.46.73,12.98,2.16,19.38,8.94,39.94,45.17,68.93,86.14,68.93h84.66c41.23,0,77.51-29.21,86.27-69.45,1.35-6.22,2.04-12.56,2.04-18.85v-172.96H124.42Z"></path>
  <path d="m299.7,374.68c-3.34,0-6.04-2.7-6.04-6.04s2.7-6.04,6.04-6.04c32.48,0,58.9-26.42,58.9-58.9,0-3.34,2.7-6.04,6.04-6.04s6.04,2.7,6.04,6.04c0,39.14-31.84,70.98-70.98,70.98Z"></path>
  <path d="m404.31,301.39h-12.58c-3.34,0-6.04-2.7-6.04-6.04v-124.11c0-3.34,2.7-6.04,6.04-6.04h41.93c17.17,0,31.13,13.97,31.13,31.13v44.57c0,33.35-27.13,60.48-60.48,60.48Zm-6.54-12.08h6.54c26.69,0,48.41-21.72,48.41-48.41v-44.57c0-10.51-8.55-19.06-19.06-19.06h-35.89v112.04Z"></path>
  <path d="m183.9,111.86c-1.07,0-2.15-.28-3.12-.87-2.85-1.73-3.76-5.44-2.03-8.29.06-.11,7.01-12.36,1.36-16.94-6.91-5.6-10.22-11.75-9.84-18.27.58-9.8,9.41-15.65,10.42-16.28,2.82-1.78,6.55-.94,8.33,1.88,1.77,2.81.95,6.52-1.85,8.31-1.21.79-4.68,3.74-4.84,6.84-.15,3,2.85,6.08,5.39,8.15,11.17,9.06,6.12,24.74,1.36,32.58-1.14,1.87-3.13,2.91-5.17,2.91Z"></path>
  <path d="m220.27,111.86c-1.07,0-2.15-.28-3.12-.87-2.85-1.73-3.76-5.44-2.03-8.29.06-.11,7.01-12.36,1.36-16.94-6.91-5.6-10.23-11.75-9.84-18.27.58-9.8,9.41-15.65,10.42-16.28,2.82-1.78,6.55-.94,8.33,1.88,1.77,2.81.94,6.52-1.85,8.31-1.21.79-4.68,3.74-4.84,6.84-.15,3,2.85,6.08,5.39,8.15,11.17,9.06,6.12,24.74,1.36,32.58-1.14,1.87-3.13,2.91-5.17,2.91Z"></path>
  <path d="m256.63,111.86c-1.07,0-2.15-.28-3.12-.87-2.85-1.73-3.76-5.44-2.03-8.29.06-.11,7.01-12.36,1.36-16.94-6.91-5.6-10.22-11.75-9.84-18.27.58-9.8,9.41-15.65,10.42-16.28,2.82-1.78,6.55-.94,8.33,1.88,1.78,2.81.95,6.52-1.85,8.31-1.21.79-4.68,3.74-4.84,6.84-.15,3,2.85,6.08,5.39,8.15,11.17,9.06,6.11,24.74,1.36,32.58-1.14,1.87-3.13,2.91-5.17,2.91Z"></path>
  <path d="m293,111.86c-1.07,0-2.15-.28-3.12-.87-2.85-1.73-3.76-5.44-2.03-8.29.06-.11,7.01-12.36,1.36-16.94-6.91-5.6-10.23-11.75-9.84-18.27.58-9.8,9.41-15.65,10.42-16.28,2.82-1.78,6.55-.94,8.33,1.88,1.77,2.81.94,6.52-1.85,8.31-1.21.79-4.68,3.74-4.84,6.84-.15,3,2.85,6.08,5.39,8.15,11.17,9.06,6.11,24.74,1.36,32.58-1.14,1.87-3.13,2.91-5.17,2.91Z"></path>
  <path d="m329.36,111.86c-1.07,0-2.15-.28-3.12-.87-2.85-1.73-3.76-5.44-2.03-8.29.06-.11,7.01-12.36,1.36-16.94-6.91-5.6-10.22-11.75-9.84-18.27.58-9.8,9.41-15.65,10.42-16.28,2.82-1.78,6.55-.94,8.33,1.88,1.77,2.81.95,6.52-1.85,8.31-1.21.79-4.68,3.74-4.84,6.84-.15,3,2.85,6.08,5.39,8.15,11.17,9.06,6.11,24.74,1.36,32.58-1.14,1.87-3.13,2.91-5.17,2.91Z"></path>
  <path d="m181.05,221.9c-14.39,0-26.09-11.7-26.09-26.09s11.7-26.09,26.09-26.09,26.09,11.7,26.09,26.09-11.7,26.09-26.09,26.09Zm0-40.1c-7.73,0-14.01,6.29-14.01,14.01s6.29,14.01,14.01,14.01,14.01-6.29,14.01-14.01-6.29-14.01-14.01-14.01Z"></path>
</symbol><symbol id="i013_drink-3" xmlns="http://www.w3.org/2000/svg" viewBox="0 0 512 512">
  <path d="m377.65,180.94H67.98c-2.16,0-4.17-1.13-5.3-2.98-3.54-5.83-5.34-11.99-5.34-18.29,0-19.47,16.23-35.59,37.15-37.98-.55-2.43-.83-4.9-.83-7.38,0-21.11,19.07-38.28,42.52-38.28,2.88,0,5.79.29,8.71.87,4.31-10.37,12.57-19.17,23.34-24.67,19.76-10.08,44.06-7.72,60.86,5.45,1.03-.63,2.07-1.21,3.11-1.74,22.71-11.59,51.95-4.56,65.17,15.66.5.77.98,1.55,1.43,2.35,21.65-7.39,46.34.09,58.37,18.5,4.88,7.47,7.12,16.07,6.49,24.66,8.14,3.72,15,9.48,19.64,16.59h0c9.03,13.82,8.82,30.89-.54,44.56-1.16,1.69-3.07,2.69-5.11,2.69Zm-305.95-12.39h302.48c4.81-8.93,4.4-19.43-1.25-28.08h0c-4.02-6.15-10.43-10.96-18.06-13.54-2.97-1.01-4.72-4.08-4.08-7.15,1.51-7.15.13-14.26-4-20.56-9.62-14.72-31.34-19.99-48.41-11.74-1.57.76-3.38.82-5,.17-1.62-.65-2.89-1.95-3.5-3.58-.74-1.97-1.71-3.89-2.89-5.69-9.86-15.09-31.92-20.2-49.16-11.4-1.86.95-3.69,2.1-5.44,3.44-2.43,1.85-5.83,1.65-8.03-.46-12.82-12.26-34.07-15.07-50.5-6.68-9.75,4.97-16.48,13.01-18.96,22.63-.43,1.66-1.52,3.08-3.03,3.9-1.51.82-3.29.98-4.92.44-3.63-1.21-7.26-1.82-10.78-1.82-16.61,0-30.13,11.61-30.13,25.89,0,3.59.94,7.18,2.8,10.67,1.07,2,.95,4.43-.3,6.32-1.25,1.89-3.45,2.93-5.7,2.76-.47-.04-.94-.1-1.41-.15-.52-.06-1.04-.14-1.58-.14-16.61,0-30.13,11.61-30.13,25.89,0,2.98.66,5.95,1.97,8.88Z"></path>
  <path d="m359.05,405.87h-16.28c-2.34,0-4.48-1.32-5.53-3.41-1.05-2.09-.84-4.59.55-6.47,5.32-7.19,10.48-15.29,15.32-24.08,1.09-1.98,3.17-3.21,5.43-3.21h.51c38.45,0,69.72-50.13,69.72-111.74,0-9.64-3.93-14.92-5.39-15.95h-30.06c-1.66,0-3.25-.66-4.41-1.85-1.16-1.18-1.81-2.78-1.79-4.43l.03-1.61c.02-.92.04-1.84.04-2.77v-20.31c0-3.42,2.77-6.2,6.2-6.2h30.57c23.55,0,41.99,23.33,41.99,53.12,0,82.11-47.95,148.91-106.9,148.91Zm-4.43-12.39h4.43c52.11,0,94.5-61.24,94.5-136.52,0-22.84-13-40.73-29.6-40.73h-24.37v12.39h24.37c9.33,0,17.21,12.98,17.21,28.34,0,66.84-35.13,121.51-78.94,124.04-2.47,4.33-5.01,8.5-7.61,12.48Z"></path>
  <path d="m237.9,466h-30.17c-89.15,0-161.68-105.72-161.68-235.66v-55.59c0-3.42,2.77-6.2,6.2-6.2h341.14c3.42,0,6.2,2.77,6.2,6.2v55.59c0,1.01-.02,2.01-.04,3.01l-.03,1.54c-.66,50.95-12.26,99.14-33.52,139.36-.41.78-.84,1.53-1.27,2.29l-.76,1.34c-5.11,9.28-10.57,17.85-16.22,25.48-29.91,40.39-68.92,62.64-109.84,62.64ZM58.44,180.94v49.4c0,123.11,66.97,223.27,149.29,223.27h30.17c36.9,0,72.37-20.46,99.89-57.62,5.32-7.19,10.48-15.29,15.32-24.08l.85-1.51c.36-.64.73-1.27,1.08-1.93,20.35-38.49,31.45-84.74,32.09-133.73l.03-1.62c.02-.92.04-1.84.04-2.77v-49.4H58.44Z"></path>
  <path d="m236.41,444.23h-25.56c-3.42,0-6.2-2.77-6.2-6.2s2.77-6.2,6.2-6.2h25.56c30.95,0,60.74-17.2,83.87-48.44,4.48-6.06,8.83-12.88,12.91-20.3l.73-1.29c.3-.53.61-1.06.9-1.61,1.6-3.03,5.34-4.18,8.37-2.59,3.03,1.6,4.18,5.34,2.59,8.37-.35.67-.72,1.32-1.1,1.97l-.63,1.12c-4.35,7.9-8.99,15.19-13.8,21.69-25.53,34.47-58.85,53.46-93.83,53.46Z"></path>
  <path d="m129.74,273.62c-16.9,0-30.65-13.75-30.65-30.65s13.75-30.65,30.65-30.65,30.65,13.75,30.65,30.65-13.75,30.65-30.65,30.65Zm0-48.91c-10.07,0-18.26,8.19-18.26,18.26s8.19,18.26,18.26,18.26,18.26-8.19,18.26-18.26-8.19-18.26-18.26-18.26Z"></path>
  <g>
    <path d="m93.2,159.7c-1.61,0-3.22-.66-4.38-1.82-1.16-1.16-1.82-2.73-1.82-4.38s.66-3.22,1.82-4.38c2.31-2.31,6.48-2.31,8.76,0,1.16,1.16,1.82,2.73,1.82,4.38s-.66,3.22-1.82,4.38-2.73,1.82-4.38,1.82Z"></path>
    <path d="m294.18,153.51c0-3.43,2.77-6.2,6.2-6.2h0c3.43,0,6.2,2.77,6.2,6.2h0c0,3.43-2.77,6.2-6.2,6.2h0c-3.43,0-6.2-2.77-6.2-6.2Zm-51.79,0c0-3.43,2.77-6.2,6.2-6.2h0c3.43,0,6.2,2.77,6.2,6.2h0c0,3.43-2.77,6.2-6.2,6.2h0c-3.43,0-6.2-2.77-6.2-6.2Zm-51.79,0c0-3.43,2.77-6.2,6.2-6.2h0c3.43,0,6.2,2.77,6.2,6.2h0c0,3.43-2.77,6.2-6.2,6.2h0c-3.43,0-6.2-2.77-6.2-6.2Zm-51.79,0c0-3.43,2.77-6.2,6.2-6.2h0c3.43,0,6.2,2.77,6.2,6.2h0c0,3.43-2.77,6.2-6.2,6.2h0c-3.43,0-6.2-2.77-6.2-6.2Z"></path>
    <path d="m352.16,159.7c-.41,0-.78-.04-1.2-.12-.41-.08-.79-.21-1.16-.37-.37-.13-.74-.33-1.07-.54-.33-.25-.66-.49-.95-.78-.29-.29-.54-.62-.79-.95-.21-.33-.41-.7-.54-1.07-.17-.37-.29-.74-.37-1.16-.08-.37-.13-.78-.13-1.2,0-1.65.66-3.22,1.82-4.38,1.44-1.44,3.55-2.11,5.62-1.69.37.08.74.21,1.16.33.37.16.7.37,1.03.58.37.25.66.5.95.78,1.16,1.16,1.82,2.73,1.82,4.38,0,.41-.04.83-.12,1.2-.08.41-.21.78-.33,1.16-.17.37-.37.74-.58,1.07-.25.33-.49.66-.78.95-.29.29-.58.54-.95.78-.33.21-.66.41-1.03.54-.41.16-.78.29-1.16.37-.41.08-.83.12-1.24.12Z"></path>
  </g>
  <g>
    <path d="m134.21,129.72c-1.61,0-3.22-.66-4.38-1.82-1.16-1.16-1.82-2.77-1.82-4.38s.66-3.22,1.82-4.38c2.31-2.31,6.48-2.31,8.8,0,1.12,1.16,1.77,2.73,1.77,4.38,0,.41-.04.78-.12,1.2-.04.41-.17.78-.33,1.16-.17.37-.33.74-.58,1.08-.21.33-.49.66-.74.95-.29.29-.62.54-.95.78-.33.21-.7.41-1.07.54-.37.17-.78.29-1.16.37-.41.08-.83.13-1.24.13Z"></path>
    <path d="m269.77,123.52c0-3.43,2.77-6.2,6.2-6.2h0c3.43,0,6.2,2.77,6.2,6.2h0c0,3.43-2.77,6.2-6.2,6.2h0c-3.43,0-6.2-2.77-6.2-6.2Zm-47.25,0c0-3.43,2.77-6.2,6.2-6.2h0c3.43,0,6.2,2.77,6.2,6.2h0c0,3.43-2.77,6.2-6.2,6.2h0c-3.43,0-6.2-2.77-6.2-6.2Zm-47.25,0c0-3.43,2.77-6.2,6.2-6.2h0c3.43,0,6.2,2.77,6.2,6.2h0c0,3.43-2.77,6.2-6.2,6.2h0c-3.43,0-6.2-2.77-6.2-6.2Z"></path>
    <path d="m323.17,129.72c-1.61,0-3.22-.66-4.38-1.82-1.12-1.16-1.82-2.77-1.82-4.38s.7-3.22,1.82-4.38c2.31-2.31,6.44-2.31,8.8,0,1.16,1.16,1.82,2.73,1.82,4.38s-.66,3.22-1.82,4.38c-1.16,1.16-2.77,1.82-4.42,1.82Z"></path>
  </g>
  <g>
    <path d="m178.69,97.34c-.41,0-.82,0-1.2-.08-.41-.08-.79-.21-1.16-.37-.37-.17-.74-.33-1.07-.58-.37-.21-.66-.49-.95-.74-1.16-1.2-1.82-2.77-1.82-4.42s.66-3.22,1.82-4.38c.29-.29.58-.54.95-.74.33-.25.7-.41,1.07-.58.37-.17.74-.29,1.16-.37,1.98-.37,4.13.29,5.57,1.69,1.16,1.16,1.82,2.77,1.82,4.38s-.66,3.22-1.82,4.42c-1.16,1.12-2.72,1.77-4.38,1.77Z"></path>
    <path d="m219.75,91.14c0-3.39,2.77-6.2,6.2-6.2h0c3.43,0,6.2,2.81,6.2,6.2h0c0,3.43-2.77,6.2-6.2,6.2h0c-3.43,0-6.2-2.77-6.2-6.2Z"></path>
    <path d="m273.19,97.34c-1.65,0-3.26-.66-4.42-1.77-.29-.29-.54-.62-.74-.95-.25-.33-.41-.7-.58-1.07-.17-.37-.29-.78-.33-1.16-.08-.41-.12-.83-.12-1.24,0-1.61.66-3.22,1.77-4.38,2.31-2.27,6.49-2.31,8.8,0,1.12,1.16,1.77,2.77,1.77,4.38s-.66,3.26-1.77,4.42c-1.16,1.12-2.77,1.77-4.38,1.77Z"></path>
  </g>
</symbol><symbol id="i013_drink-4" xmlns="http://www.w3.org/2000/svg" viewBox="0 0 512 512">
  <path d="m218.6,262.42c-1.33,0-2.66-.43-3.78-1.29-2.51-1.94-61.52-48.21-61.52-106.92s59.01-104.98,61.52-106.92c2.22-1.72,5.33-1.72,7.55,0,2.51,1.94,61.52,48.21,61.52,106.92s-59.01,104.98-61.52,106.92c-1.11.86-2.44,1.29-3.78,1.29Zm0-202.19c-12.69,11-52.95,49.45-52.95,93.99s40.25,83,52.94,93.99c12.69-11,52.95-49.45,52.95-93.99s-40.25-83-52.94-93.99Z"></path>
  <path d="m218.6,262.42c-3.41,0-6.18-2.77-6.18-6.18V52.18c0-3.41,2.77-6.18,6.18-6.18s6.18,2.77,6.18,6.18v204.06c0,3.41-2.77,6.18-6.18,6.18Z"></path>
  <path d="m218.6,152.96c-1.58,0-3.16-.6-4.37-1.81l-24.88-24.88c-2.41-2.41-2.41-6.32,0-8.74s6.32-2.41,8.74,0l24.88,24.88c2.41,2.41,2.41,6.32,0,8.74-1.21,1.21-2.79,1.81-4.37,1.81Z"></path>
  <path d="m218.6,196.98c-1.58,0-3.16-.6-4.37-1.81l-24.88-24.88c-2.41-2.41-2.41-6.33,0-8.74,2.41-2.41,6.32-2.41,8.74,0l24.88,24.88c2.41,2.41,2.41,6.33,0,8.74-1.21,1.21-2.79,1.81-4.37,1.81Z"></path>
  <path d="m218.6,152.84c-1.58,0-3.16-.6-4.37-1.81-2.41-2.41-2.41-6.33,0-8.74l24.88-24.88c2.41-2.41,6.32-2.41,8.74,0,2.41,2.41,2.41,6.33,0,8.74l-24.88,24.88c-1.21,1.21-2.79,1.81-4.37,1.81Z"></path>
  <path d="m218.6,196.87c-1.58,0-3.16-.6-4.37-1.81-2.41-2.41-2.41-6.32,0-8.74l24.88-24.88c2.41-2.41,6.32-2.41,8.74,0,2.41,2.41,2.41,6.32,0,8.74l-24.88,24.88c-1.21,1.21-2.79,1.81-4.37,1.81Z"></path>
  <path d="m379.89,409.54h-33.66c-2.36,0-4.52-1.35-5.55-3.47-1.04-2.12-.77-4.65.68-6.51,19.4-24.86,29.66-54.68,29.66-86.22v-6.49c0-3.41,2.77-6.18,6.18-6.18h58.77c14.55,0,26.4,11.84,26.4,26.4,0,45.48-37,82.47-82.47,82.47Zm-21.61-12.36h21.61c38.66,0,70.11-31.45,70.11-70.12,0-7.74-6.3-14.04-14.04-14.04h-52.59v.32c0,30.2-8.64,58.94-25.1,83.84Z"></path>
  <path d="m230.72,466h-28.42c-84.18,0-152.66-68.48-152.66-152.66v-35.49c0-3.41,2.77-6.18,6.18-6.18h321.39c3.41,0,6.18,2.77,6.18,6.18v35.49c0,34.32-11.16,66.76-32.27,93.82-29.18,37.39-73.06,58.84-120.39,58.84ZM61.99,284.03v29.31c0,77.36,62.94,140.3,140.3,140.3h28.42c43.49,0,83.82-19.71,110.64-54.08,19.4-24.86,29.66-54.68,29.66-86.22v-29.31H61.99Z"></path>
  <path d="m117.68,350.73c-14.57,0-26.42-11.85-26.42-26.42s11.85-26.41,26.42-26.41,26.41,11.85,26.41,26.41-11.85,26.42-26.41,26.42Zm0-40.47c-7.75,0-14.06,6.31-14.06,14.06s6.31,14.06,14.06,14.06,14.06-6.31,14.06-14.06-6.31-14.06-14.06-14.06Z"></path>
  <path d="m321.92,255.43c-1.02,0-2.06-.26-3.01-.79-10.32-5.78-17.77-15.23-20.98-26.62-3.21-11.38-1.79-23.34,3.99-33.66,9.88-17.63,32.27-23.94,49.91-14.06,14.7,8.24,19.96,26.9,11.72,41.61-3.35,5.99-8.84,10.31-15.44,12.17-6.61,1.87-13.54,1.04-19.53-2.32-5.07-2.84-8.74-7.49-10.32-13.1-1.58-5.6-.88-11.48,1.96-16.56,1.67-2.98,5.44-4.03,8.41-2.37,2.98,1.67,4.04,5.43,2.37,8.41-1.23,2.2-1.53,4.74-.85,7.17.68,2.42,2.27,4.44,4.47,5.67,3.11,1.74,6.7,2.17,10.13,1.2,3.43-.97,6.27-3.21,8.01-6.32,4.91-8.76,1.77-19.88-6.99-24.78-5.66-3.17-12.23-3.94-18.47-2.19-6.25,1.76-11.44,5.85-14.61,11.52-4.17,7.44-5.19,16.06-2.88,24.26,2.31,8.21,7.68,15.02,15.12,19.19,2.98,1.67,4.04,5.43,2.37,8.41-1.13,2.02-3.23,3.16-5.4,3.16Z"></path>
  <path d="m104.59,248.57c-1.02,0-2.06-.26-3.01-.79-10.32-5.78-17.77-15.24-20.98-26.62-3.21-11.38-1.79-23.34,3.99-33.66,9.88-17.63,32.27-23.94,49.91-14.06,7.12,3.99,12.26,10.52,14.48,18.37,2.21,7.86,1.24,16.11-2.75,23.23-3.35,5.99-8.84,10.31-15.44,12.17-6.61,1.87-13.54,1.04-19.52-2.31-10.48-5.87-14.23-19.17-8.36-29.66,1.67-2.97,5.44-4.04,8.41-2.37,2.98,1.67,4.04,5.43,2.37,8.41-2.54,4.53-.92,10.29,3.62,12.83,3.11,1.74,6.7,2.16,10.13,1.2,3.43-.97,6.27-3.21,8.01-6.31,4.91-8.76,1.77-19.88-6.99-24.78-11.69-6.55-26.53-2.37-33.08,9.33-4.17,7.44-5.19,16.05-2.88,24.26,2.31,8.21,7.69,15.03,15.13,19.19,2.98,1.67,4.04,5.43,2.37,8.41-1.13,2.02-3.23,3.16-5.4,3.16Z"></path>
</symbol><symbol id="i013_drink-5" xmlns="http://www.w3.org/2000/svg" viewBox="0 0 512 512">
  <path d="m143.99,138.74c-.75,0-1.51-.14-2.25-.43-3.14-1.24-4.69-4.8-3.45-7.94,2.3-5.84,7.4-24.3.93-32.31-16.56-20.52-6.91-39.5.51-46.66,2.43-2.35,6.32-2.28,8.66.15,2.34,2.42,2.28,6.28-.12,8.63-1.37,1.37-12.84,13.67.48,30.18,12.11,15,2.11,41.53.93,44.51-.95,2.4-3.25,3.87-5.69,3.87Z"></path>
  <path d="m180.88,138.74c-.75,0-1.51-.14-2.25-.43-3.14-1.24-4.69-4.8-3.45-7.94,2.3-5.84,7.4-24.3.93-32.31-16.57-20.52-6.91-39.5.51-46.66,2.43-2.35,6.32-2.28,8.66.15,2.34,2.42,2.28,6.29-.13,8.64-1.38,1.38-12.83,13.68.49,30.18,12.11,15,2.11,41.53.93,44.51-.95,2.4-3.25,3.87-5.69,3.87Z"></path>
  <path d="m217.78,138.74c-.75,0-1.51-.14-2.25-.43-3.14-1.24-4.69-4.8-3.45-7.94,2.3-5.84,7.4-24.3.93-32.31-16.57-20.52-6.91-39.5.51-46.66,2.43-2.35,6.32-2.28,8.66.15,2.34,2.42,2.28,6.29-.13,8.64-1.38,1.38-12.83,13.68.49,30.18,12.11,15,2.11,41.53.93,44.51-.95,2.4-3.25,3.87-5.69,3.87Z"></path>
  <path d="m254.66,138.74c-.75,0-1.51-.14-2.25-.43-3.14-1.24-4.69-4.8-3.45-7.94,2.3-5.84,7.4-24.3.93-32.31-16.56-20.52-6.91-39.5.51-46.66,2.44-2.35,6.31-2.28,8.66.15,2.34,2.42,2.28,6.28-.12,8.63-1.37,1.37-12.84,13.67.48,30.18,12.11,15,2.11,41.53.93,44.51-.95,2.4-3.25,3.87-5.69,3.87Z"></path>
  <path d="m291.56,138.74c-.75,0-1.51-.14-2.25-.43-3.14-1.24-4.69-4.8-3.45-7.94,2.3-5.84,7.4-24.3.93-32.31-16.56-20.52-6.91-39.5.51-46.66,2.44-2.35,6.32-2.28,8.66.15,2.34,2.42,2.28,6.28-.12,8.63-1.37,1.37-12.84,13.67.48,30.18,12.11,15,2.11,41.53.93,44.51-.95,2.4-3.25,3.87-5.7,3.87Z"></path>
  <path d="m298.22,462.32h-169.75c-3.38,0-6.13-2.74-6.13-6.13,0-15.59-8.94-29.68-22.78-35.87-32.54-14.57-53.57-47.02-53.57-82.66v-175.94c0-3.38,2.74-6.13,6.13-6.13h322.44c3.38,0,6.13,2.74,6.13,6.13v175.94c0,35.64-21.02,68.08-53.57,82.66-13.84,6.19-22.78,20.28-22.78,35.87,0,3.38-2.74,6.13-6.13,6.13Zm-163.62-6.13h.04-.04Zm-.35-6.13h158.2c2.09-17.92,13.28-33.59,29.67-40.93,28.14-12.6,46.32-40.66,46.32-71.47v-169.82H58.25v169.82c0,30.82,18.19,58.87,46.33,71.47,16.39,7.34,27.57,23.01,29.67,40.93Z"></path>
  <path d="m343.99,272.5c-3.38,0-6.13-2.74-6.13-6.13v-56.05c0-3.38,2.74-6.13,6.13-6.13s6.13,2.74,6.13,6.13v56.05c0,3.38-2.74,6.13-6.13,6.13Z"></path>
  <path d="m303.52,398.44c-2.34,0-4.57-1.35-5.6-3.62-1.38-3.09,0-6.71,3.09-8.1,22.39-10.03,36.85-32.34,36.85-56.86v-33.35c0-3.38,2.74-6.13,6.13-6.13s6.13,2.74,6.13,6.13v33.35c0,29.34-17.31,56.04-44.1,68.04-.81.36-1.66.54-2.5.54Z"></path>
  <path d="m374.57,341.95c-3.38,0-6.13-2.74-6.13-6.13v-146.89c0-3.38,2.74-6.13,6.13-6.13h47.13c24.43,0,44.3,19.87,44.3,44.3v23.41c0,50.42-41.02,91.43-91.43,91.43Zm6.13-146.89v134.4c40.81-3.13,73.06-37.35,73.06-78.95v-23.41c0-17.67-14.38-32.05-32.05-32.05h-41.01Z"></path>
  <path d="m139.74,250.51c-3.38,0-6.13-2.74-6.13-6.13v-89.19c0-3.38,2.74-6.13,6.13-6.13s6.13,2.74,6.13,6.13v89.19c0,3.38-2.74,6.13-6.13,6.13Z"></path>
  <path d="m167.8,354.76h-56.12c-11.63,0-21.1-9.47-21.1-21.1v-74.3c0-11.63,9.47-21.1,21.1-21.1h56.12c11.63,0,21.1,9.47,21.1,21.1v74.3c0,11.63-9.46,21.1-21.1,21.1Zm-56.12-104.25c-4.88,0-8.85,3.97-8.85,8.85v74.3c0,4.88,3.97,8.85,8.85,8.85h56.12c4.88,0,8.85-3.97,8.85-8.85v-74.3c0-4.88-3.97-8.85-8.85-8.85h-56.12Z"></path>
  <path d="m150.07,331.52h-25.37c-3.38,0-6.13-2.74-6.13-6.13s2.74-6.13,6.13-6.13h25.37c.35,0,.65-.29.65-.64v-33.59c0-3.38,2.74-6.13,6.13-6.13s6.13,2.74,6.13,6.13v33.59c0,7.11-5.79,12.89-12.9,12.89Z"></path>
</symbol><symbol id="i013_drink-6" xmlns="http://www.w3.org/2000/svg" viewBox="0 0 512 512">
  <g id="teapot">
    <path d="m266.8,418.26c-65.26,0-122.35-44.02-138.82-107.05-3.08-11.8-4.64-24.04-4.64-36.4,0-46.48,22.66-90.22,60.61-117,2.95-2.08,7.03-1.38,9.11,1.57,2.08,2.95,1.38,7.03-1.57,9.11-34.48,24.34-55.07,64.08-55.07,106.31,0,11.25,1.42,22.38,4.21,33.1,14.97,57.27,66.85,97.27,126.16,97.27s109.07-38.61,125.08-93.9c3.46-11.87,5.21-24.14,5.21-36.47,0-42.23-20.59-81.98-55.07-106.31-2.95-2.08-3.65-6.16-1.57-9.11,2.08-2.95,6.16-3.65,9.11-1.57,37.95,26.78,60.61,70.52,60.61,117,0,13.57-1.93,27.07-5.73,40.12-8.45,29.19-26.51,55.49-50.83,74.04-25.13,19.16-55.15,29.29-86.81,29.29Z"></path>
    <path d="m401.95,446.13H131.58c-4.53,0-8.22-3.69-8.22-8.22v-24.54c0-4.53,3.69-8.22,8.22-8.22h270.37c4.53,0,8.22,3.69,8.22,8.22v24.54c0,4.53-3.69,8.22-8.22,8.22Zm-265.51-13.08h260.65v-14.82H136.44v14.82Z"></path>
    <path d="m369.64,169.67h-205.75c-4.53,0-8.22-3.69-8.22-8.22v-24.54c0-4.53,3.69-8.22,8.22-8.22h205.75c4.53,0,8.22,3.69,8.22,8.22v24.54c0,4.53-3.69,8.22-8.22,8.22Zm-200.89-13.08h196.03v-14.82h-196.03v14.82Z"></path>
    <path d="m134.35,316.08c-2.17,0-4.3-1.08-5.54-3.06L47.01,183.13c-1.27-2.02-1.34-4.56-.19-6.65,1.15-2.08,3.34-3.38,5.73-3.38h50.63c1.73,0,3.4.69,4.62,1.92l38.81,38.81c2.55,2.55,2.55,6.69,0,9.25-2.55,2.55-6.69,2.55-9.25,0l-36.89-36.89h-36.07l75.49,119.87c1.92,3.06,1.01,7.09-2.05,9.02-1.08.68-2.29,1.01-3.48,1.01Z"></path>
    <path d="m398.18,319.62c-3.61,0-6.54-2.93-6.54-6.54s2.93-6.54,6.54-6.54c30.18,0,54.74-24.56,54.74-54.74v-27.38c0-30.18-24.56-54.74-54.74-54.74h-52.35c-3.61,0-6.54-2.93-6.54-6.54s2.93-6.54,6.54-6.54h52.35c37.4,0,67.82,30.42,67.82,67.82v27.38c0,37.4-30.42,67.82-67.82,67.82Z"></path>
    <path d="m193.27,141.78c-1.49,0-2.99-.51-4.22-1.55-2.76-2.33-3.1-6.46-.77-9.22,19.8-23.4,48.73-36.82,79.35-36.82,28.77,0,59.22,14.06,79.45,36.69,2.41,2.69,2.18,6.83-.52,9.23-2.69,2.41-6.82,2.18-9.23-.52-17.83-19.94-44.54-32.32-69.7-32.32-26.77,0-52.06,11.73-69.37,32.19-1.29,1.53-3.14,2.31-4.99,2.31Z"></path>
    <path d="m281.92,108.47c-3.61,0-6.54-2.93-6.54-6.54v-15.37c0-4.2-3.42-7.62-7.62-7.62s-7.62,3.42-7.62,7.62v15.2c0,3.61-2.93,6.54-6.54,6.54s-6.54-2.93-6.54-6.54v-15.2c0-11.41,9.28-20.7,20.7-20.7s20.7,9.29,20.7,20.7v15.37c0,3.61-2.93,6.54-6.54,6.54Z"></path>
  </g>
</symbol><symbol id="i013_drink-7" xmlns="http://www.w3.org/2000/svg" viewBox="0 0 512 512">
  <g id="kettle">
    <g id="ettle">
      <path d="m285.24,409.84h-133.49c-.66,0-1.32-.1-1.95-.3-24.78-7.74-42.2-22.97-51.79-45.26-28.88-67.16,23.54-175.5,25.79-180.08,1.1-2.24,3.38-3.66,5.87-3.66h178.15c2.51,0,4.79,1.43,5.88,3.68,2.23,4.6,54.32,113.41,25.19,180.44-9.64,22.17-27.04,37.28-51.72,44.89-.62.19-1.27.29-1.93.29Zm-132.47-13.08h131.47c20.65-6.6,34.61-18.81,42.65-37.31,23.94-55.09-14.52-146.43-23.26-165.83h-169.8c-8.79,19.32-47.52,110.37-23.8,165.51,8,18.6,21.99,30.92,42.73,37.63Z"></path>
      <path d="m307.81,193.62c-1.88,0-3.75-.81-5.04-2.37-19.37-23.42-29.1-35.18-39.12-40.6-9.68-5.24-21.45-5.24-44.92-5.24s-35.24,0-44.92,5.24c-10.02,5.42-19.74,17.18-39.12,40.6-2.3,2.78-6.42,3.17-9.21.87-2.78-2.3-3.17-6.43-.87-9.21,41.06-49.64,42.82-50.58,94.11-50.58s53.05.95,94.11,50.58c2.3,2.78,1.91,6.91-.87,9.21-1.22,1.01-2.7,1.5-4.17,1.5Z"></path>
      <path d="m247.84,145.41c-3.61,0-6.54-2.93-6.54-6.54,0-13.03-10.28-23.63-22.91-23.63s-22.91,10.6-22.91,23.63c0,3.61-2.93,6.54-6.54,6.54s-6.54-2.93-6.54-6.54c0-20.24,16.14-36.71,35.99-36.71s35.99,16.47,35.99,36.71c0,3.61-2.93,6.54-6.54,6.54Z"></path>
      <path d="m95.92,316.78c-.37,0-.74-.03-1.12-.1l-11.13-1.93c-12.57-2.17-23.73-9.71-30.61-20.67-6.93-11.03-8.87-24.51-5.31-36.97,2.31-8.11,5.23-16.14,8.68-23.87,5.36-12.04,13.41-19.97,23.93-23.55,18.71-6.38,38.04,3.85,38.86,4.28,3.18,1.71,4.37,5.68,2.66,8.86-1.71,3.18-5.67,4.37-8.85,2.66-.34-.18-15.33-7.94-28.5-3.4-6.9,2.38-12.33,7.92-16.14,16.47-3.19,7.17-5.9,14.62-8.05,22.14-2.54,8.9-1.15,18.53,3.81,26.42,4.91,7.82,12.85,13.19,21.76,14.74l11.13,1.93c3.56.62,5.95,4,5.33,7.56-.55,3.18-3.31,5.43-6.44,5.43Z"></path>
      <path d="m341.15,350.74c-3.61,0-6.54-2.93-6.54-6.54s2.93-6.54,6.54-6.54c17.03,0,29-4.18,35.56-12.41,11.69-14.67,5.69-40.93,2.1-56.63-1.39-6.1-2.4-10.51-2.4-13.76,0-3.91,1.69-7.45,4.77-9.94,8.43-6.84,27.46-5.07,38.77-3.23l3.05-17.35c-21.54-12.42-40.75-16.2-57.16-11.24-22.31,6.75-32.26,27.89-32.36,28.1-1.51,3.28-5.38,4.72-8.66,3.23-3.28-1.5-4.73-5.35-3.25-8.64.49-1.08,12.31-26.59,40.29-35.16,21.15-6.47,45.3-1.48,71.79,14.83,2.28,1.41,3.48,4.06,3.01,6.7l-4.98,28.3c-.31,1.75-1.31,3.29-2.78,4.29-1.47.99-3.28,1.35-5.01.98-.08-.02-8.11-1.69-16.83-2.33-12.98-.96-16.82,1.1-17.57,1.63.07,1.94,1.09,6.38,2.07,10.67,4.11,17.99,11,48.1-4.62,67.7-9.17,11.5-24.58,17.34-45.79,17.34Z"></path>
      <path d="m445.94,243.06c-1,0-2.02-.23-2.98-.72-3.21-1.65-4.48-5.59-2.84-8.8l10.05-19.6c5.63-10.97,2.57-23.79-7.61-31.89-12.75-10.15-16.79-27.1-9.82-41.2l9.87-19.96c1.6-3.24,5.53-4.56,8.76-2.97,3.24,1.6,4.57,5.52,2.97,8.76l-9.87,19.96c-4.29,8.67-1.78,18.79,6.24,25.17,14.95,11.91,19.51,31.68,11.1,48.1l-10.05,19.6c-1.16,2.26-3.45,3.56-5.83,3.56Z"></path>
    </g>
    <path d="m297.11,369.49c-1.37,0-2.75-.43-3.93-1.31-2.89-2.17-3.47-6.27-1.3-9.16,31.12-41.38-.53-122.81-.85-123.62-1.33-3.36.32-7.16,3.67-8.49,3.36-1.33,7.16.31,8.49,3.67,1.43,3.61,34.68,89.06-.85,136.31-1.29,1.71-3.25,2.61-5.23,2.61Z"></path>
  </g>
</symbol>
</svg>