<svg xmlns="http://www.w3.org/2000/svg" style="display: none;">

<symbol id="i031_salad-1" xmlns="http://www.w3.org/2000/svg" viewBox="0 0 512 512">
  <g id="salad">
    <path d="m337.71,416.52h-163.31c-4.27,0-7.75-3.48-7.75-7.75v-34.42c0-3.73,3.02-6.75,6.75-6.75h165.31c3.73,0,6.75,3.02,6.75,6.75v34.42c0,4.27-3.48,7.75-7.75,7.75Zm-157.56-13.5h151.81v-21.92h-151.81v21.92Z"></path>
    <path d="m173.44,386.88c-.82,0-1.65-.15-2.46-.47-59.53-23.3-107.36-70.65-131.24-129.9-.32-.8-.49-1.66-.49-2.52v-25.84c0-9.59,7.8-17.39,17.39-17.39h398.72c.59,0,1.52,0,2.57.2,8.47,1.22,14.82,8.55,14.82,17.18v25.84c0,.87-.17,1.72-.49,2.53-23.86,59.1-71.62,106.45-131.01,129.89-3.47,1.37-7.39-.33-8.76-3.8-1.37-3.47.33-7.39,3.8-8.76,55.56-21.93,100.31-66.06,122.96-121.18v-24.51c0-1.95-1.42-3.6-3.31-3.83-.12-.02-.25-.03-.37-.06-.07,0-.14,0-.2,0H56.64c-2.14,0-3.89,1.74-3.89,3.89v24.52c22.66,55.26,67.48,99.39,123.15,121.17,3.47,1.36,5.18,5.27,3.83,8.75-1.04,2.66-3.59,4.29-6.29,4.29Zm281.69-162.71s0,0,0,0c0,0,0,0,0,0Z"></path>
    <path d="m466,260.74H46c-3.73,0-6.75-3.02-6.75-6.75s3.02-6.75,6.75-6.75h420c3.73,0,6.75,3.02,6.75,6.75s-3.02,6.75-6.75,6.75Z"></path>
    <path d="m158.86,285.56h-67.68c-3.73,0-6.75-3.02-6.75-6.75s3.02-6.75,6.75-6.75h67.68c3.73,0,6.75,3.02,6.75,6.75s-3.02,6.75-6.75,6.75Z"></path>
    <path d="m211.77,285.56h-25.95c-3.73,0-6.75-3.02-6.75-6.75s3.02-6.75,6.75-6.75h25.95c3.73,0,6.75,3.02,6.75,6.75s-3.02,6.75-6.75,6.75Z"></path>
    <path d="m346.64,358.29c-2.95,0-5.66-1.95-6.5-4.93-1-3.59,1.09-7.32,4.68-8.32,28.34-7.93,42.67-27.55,42.81-27.75,2.17-3.03,6.39-3.73,9.42-1.55,3.03,2.17,3.72,6.39,1.55,9.42-.69.96-17.29,23.69-50.14,32.88-.61.17-1.22.25-1.82.25Z"></path>
    <path d="m58.48,224.27c-3.11,0-5.91-2.17-6.59-5.34-.4-1.86-.58-3.79-.58-6.08,0-14.51,8.47-27.43,21.47-33.34,2.81-12.36,11.91-22.51,23.77-26.63,2.32-17.97,17.71-31.89,36.3-31.89,10.92,0,21.2,4.8,28.19,13.17,2.39,2.86,2.01,7.12-.85,9.51-2.86,2.39-7.12,2.01-9.51-.85-4.42-5.29-10.92-8.33-17.83-8.33-12.74,0-23.1,10.36-23.1,23.1v.54c0,3.25-2.32,6.05-5.52,6.64-9.93,1.84-17.63,10.21-18.72,20.35-.28,2.65-2.1,4.88-4.63,5.7-9.61,3.12-16.07,11.97-16.07,22.02,0,1.33.09,2.34.28,3.25.78,3.65-1.54,7.23-5.19,8.01-.48.1-.95.15-1.42.15Z"></path>
    <path d="m456.77,224.38c-2.81,0-5.44-1.77-6.39-4.58-1.65-4.86-4.96-9.09-9.32-11.92-2.97-1.92-3.95-5.82-2.25-8.92,1.94-3.53,2.96-7.47,2.96-11.4,0-10.08-6.41-18.93-15.96-22.02-3.31-1.07-5.26-4.49-4.51-7.89.33-1.46.49-3.02.49-4.61,0-10.69-7.5-20.11-17.83-22.39-2.42-.54-4.35-2.36-5.03-4.74-2.83-9.96-12.04-16.92-22.38-16.92-5.38,0-10.56,1.84-14.58,5.18-2.5,2.07-6.12,2.07-8.62,0-4.02-3.34-9.24-5.18-14.69-5.18-7.63,0-14.56,3.62-19.01,9.95-2.55,3.66-4.01,8.19-4.09,12.73-.04,2.41-1.37,4.62-3.48,5.79-7.36,4.07-11.93,11.79-11.93,20.15,0,1.19.09,2.37.25,3.43.3,1.95-.27,3.93-1.55,5.42-1.28,1.49-3.15,2.35-5.12,2.35h-.33c-2.8,0-5.52.53-8.31,1.61-8.98,3.49-14.79,11.97-14.79,21.6,0,8.16,4.17,15.53,11.16,19.72,3.2,1.92,4.23,6.06,2.32,9.26-1.92,3.2-6.06,4.23-9.26,2.32-11.09-6.66-17.72-18.36-17.72-31.3,0-15.25,9.19-28.67,23.41-34.19,2.14-.83,4.3-1.45,6.48-1.87.52-11.37,6.33-21.82,15.64-28.3.71-5.93,2.85-11.56,6.27-16.46,6.93-9.84,18.16-15.7,30.07-15.7,6.78,0,13.36,1.83,18.99,5.23,5.63-3.4,12.17-5.23,18.89-5.23,15.04,0,28.55,9.3,34.1,23.03,14.49,4.94,24.65,18.87,24.65,34.52,0,.61-.02,1.22-.05,1.83,12.17,6.16,20.02,18.68,20.02,32.69,0,4.27-.76,8.53-2.22,12.57,4.61,4.16,8.12,9.46,10.11,15.33,1.2,3.53-.69,7.36-4.23,8.56-.72.24-1.45.36-2.17.36Z"></path>
    <path d="m155.42,224.27c-1.52,0-3.05-.51-4.31-1.56-9.55-7.94-16.4-18.94-19.29-30.97,0-.04-.02-.07-.03-.11-.23-1.02-.45-2.04-.68-3.18-.61-3.27-.89-6.58-.89-10.23v-.11c0-17.36,7.78-33.7,21.36-44.84,10.19-8.28,23.11-12.82,36.41-12.82,14.42,0,28.15,5.29,38.64,14.91,2.75,2.52,2.94,6.79.42,9.54-2.52,2.75-6.79,2.94-9.54.42-8-7.33-18.49-11.36-29.53-11.36-10.22,0-20.11,3.47-27.88,9.78-10.41,8.54-16.4,21.08-16.4,34.38v.11c0,2.81.21,5.32.65,7.67.19.92.39,1.83.59,2.75,2.22,9.2,7.47,17.61,14.78,23.69,2.87,2.38,3.26,6.64.88,9.51-1.33,1.61-3.26,2.44-5.19,2.44Z"></path>
    <path d="m218.49,224.27c-2.97,0-5.69-1.97-6.51-4.98-.45-1.66-.67-3.48-.67-5.58,0-4.73,1.25-9.27,3.56-13.23-6.06-4.86-9.86-12.4-9.86-20.53,0-8.86,4.5-17.01,11.53-21.77-1.23-3.7-1.87-7.61-1.87-11.56,0-2.63.26-5.14.8-7.69,3.1-13.88,13.93-24.69,27.63-27.65,2.43-.62,5.11-.94,7.96-.94,10.82,0,21.03,4.88,27.77,13.02,5.57-2.46,10.02-7.06,12.3-12.86.84-2.14,2.71-3.7,4.96-4.15,1.9-.38,3.93-.56,6.21-.56,5.18,0,10.1,1.04,14.63,3.1,3.39,1.54,4.89,5.54,3.35,8.94-1.54,3.39-5.55,4.89-8.94,3.35-2.76-1.26-5.8-1.89-9.04-1.89-.13,0-.25,0-.38,0-4.98,9.37-13.77,16.2-24.2,18.61-2.87.66-5.84-.61-7.34-3.15-3.97-6.73-11.38-10.91-19.33-10.91-1.75,0-3.33.18-4.69.54-.11.03-.21.05-.32.08-8.62,1.82-15.44,8.63-17.39,17.34-.32,1.54-.49,3.14-.49,4.83,0,4.03,1.04,7.97,3.01,11.4,1.03,1.79,1.18,3.94.42,5.86-.76,1.91-2.35,3.38-4.33,3.97-5.16,1.56-8.77,6.53-8.77,12.1s3.6,10.54,8.77,12.1c2.4.72,4.2,2.71,4.68,5.17.48,2.46-.44,4.98-2.39,6.55-3.02,2.43-4.76,6.06-4.76,9.94,0,1.08.11,1.69.2,2.02.98,3.6-1.14,7.31-4.74,8.29-.59.16-1.19.24-1.78.24Z"></path>
    <path d="m346.65,224.38c-.05,0-.1,0-.15,0-3.73-.08-6.68-3.17-6.6-6.9.04-1.8,1.42-44.52,39.51-72.63,3-2.22,7.23-1.58,9.44,1.42,2.21,3,1.58,7.23-1.42,9.44-32.82,24.22-34.02,61.7-34.03,62.07-.08,3.68-3.09,6.6-6.75,6.6Z"></path>
    <path d="m349.97,205.72c-.37,0-.74-.03-1.11-.09-7.16-1.18-21.29-7.68-23.53-23.8-.52-3.69,2.06-7.1,5.75-7.62,3.69-.52,7.1,2.06,7.62,5.75,1.4,10.05,11.3,12.15,12.42,12.35,3.68.61,6.14,4.08,5.53,7.76-.55,3.3-3.43,5.65-6.68,5.65Z"></path>
    <path d="m366.25,173.66c-2.11,0-4.2-.99-5.51-2.85-.42-.59-10.22-14.78-.48-33.41,1.73-3.3,5.81-4.58,9.11-2.85,3.3,1.73,4.58,5.81,2.85,9.11-5.86,11.21-.53,19.27-.48,19.35,2.16,3.04,1.44,7.25-1.6,9.41-1.19.84-2.55,1.24-3.9,1.24Z"></path>
    <path d="m357.22,190.72c-1,0-1.63-.02-1.77-.02-3.73-.12-6.65-3.24-6.52-6.97.12-3.72,3.24-6.65,6.96-6.52.26,0,21.53.58,33.68-6.95,3.17-1.96,7.33-.98,9.29,2.18,1.96,3.17.99,7.33-2.18,9.29-13.43,8.32-33.4,8.99-39.46,8.99Z"></path>
    <path d="m193.33,164.61c-3.73,0-6.75-3.02-6.75-6.75v-11.71c0-3.73,3.02-6.75,6.75-6.75s6.75,3.02,6.75,6.75v11.71c0,3.73-3.02,6.75-6.75,6.75Z"></path>
    <path d="m174.95,173.66c-1.73,0-3.46-.66-4.77-1.98l-8.82-8.82c-2.64-2.64-2.64-6.91,0-9.55s6.91-2.64,9.55,0l8.82,8.82c2.64,2.64,2.64,6.91,0,9.55-1.32,1.32-3.05,1.98-4.77,1.98Z"></path>
    <path d="m163.91,203.32c-1.73,0-3.45-.66-4.77-1.98-2.64-2.64-2.64-6.91,0-9.55l6.63-6.63c2.64-2.64,6.91-2.64,9.55,0s2.64,6.91,0,9.55l-6.63,6.63c-1.32,1.32-3.05,1.98-4.77,1.98Z"></path>
    <path d="m193.33,210.7c-3.73,0-6.75-3.02-6.75-6.75v-10.7c0-3.73,3.02-6.75,6.75-6.75s6.75,3.02,6.75,6.75v10.7c0,3.73-3.02,6.75-6.75,6.75Z"></path>
    <path d="m115.9,224.38c-.28,0-.56-.02-.84-.05-3.7-.46-6.32-3.83-5.86-7.52.04-.32,2.25-20.07-7.41-31.56-2.4-2.85-2.03-7.11.82-9.51,2.85-2.4,7.11-2.03,9.51.82,13.52,16.08,10.61,40.86,10.48,41.91-.43,3.42-3.33,5.91-6.69,5.91Z"></path>
  </g>
</symbol>
</svg>