<svg xmlns="http://www.w3.org/2000/svg" style="display: none;">


<symbol id="i051_main-1" xmlns="http://www.w3.org/2000/svg" viewBox="0 0 512 512">
  <g id="bisquit">
    <path d="m212.19,392.31c-8.47,0-17.01-.61-25.39-1.81-.29-.04-.58-.1-.86-.18-38.45-5.74-73.71-24.27-99.36-52.23-26.17-28.53-40.59-65.08-40.59-102.92,0-86.65,74.55-157.14,166.19-157.14,43.89,0,85.28,16.04,116.54,45.16,32.02,29.77,49.66,69.54,49.66,111.98,0,32.11-10.17,62.99-29.42,89.29-18.75,25.62-44.79,45.23-75.3,56.7-19.37,7.4-40.07,11.15-61.47,11.15Zm-22.78-14.65c7.53,1.04,15.19,1.57,22.78,1.57,19.8,0,38.93-3.47,56.84-10.3,58.5-21.99,96.28-74.49,96.28-133.76,0-38.77-16.15-75.14-45.49-102.41-28.83-26.86-67.05-41.65-107.62-41.65-84.43,0-153.11,64.63-153.11,144.06,0,70.45,55.68,131.64,129.51,142.32.28.04.55.1.82.17Z"></path>
    <path d="m272.3,363.54c-2.43,0-4.76-1.36-5.89-3.69-1.57-3.25-.22-7.16,3.04-8.74,27.36-13.25,49.63-33.68,64.42-59.09,1.82-3.12,5.82-4.18,8.94-2.36,3.12,1.82,4.18,5.82,2.36,8.94-16.1,27.66-40.31,49.89-70.02,64.28-.92.44-1.89.66-2.85.66Z"></path>
    <path d="m96.52,168.99c-1.37,0-2.74-.43-3.92-1.31-2.89-2.17-3.48-6.27-1.31-9.16,18.55-24.74,44.03-43.77,73.69-55.05,3.37-1.28,7.15.41,8.44,3.79,1.28,3.38-.41,7.15-3.79,8.44-27.33,10.39-50.8,27.91-67.87,50.67-1.28,1.71-3.25,2.62-5.24,2.62Z"></path>
    <path d="m73.37,214.62c-.63,0-1.26-.09-1.89-.28-3.46-1.04-5.42-4.69-4.38-8.15,3.27-10.87,7.82-21.43,13.5-31.39,1.79-3.14,5.79-4.23,8.92-2.44,3.14,1.79,4.23,5.78,2.44,8.92-5.2,9.1-9.35,18.75-12.33,28.67-.85,2.83-3.45,4.66-6.26,4.66Z"></path>
    <path d="m196.63,150.13c-1.54,0-3.09-.54-4.33-1.65l-14.36-12.72c-2.7-2.4-2.95-6.53-.56-9.23,2.4-2.7,6.53-2.95,9.23-.56l14.36,12.72c2.7,2.4,2.95,6.53.56,9.23-1.29,1.46-3.09,2.2-4.9,2.2Z"></path>
    <path d="m252.33,159.98c-1.67,0-3.34-.64-4.62-1.91-2.56-2.55-2.56-6.69,0-9.25l17.4-17.42c2.55-2.56,6.69-2.56,9.25,0,2.56,2.55,2.56,6.69,0,9.25l-17.4,17.42c-1.28,1.28-2.95,1.92-4.63,1.92Z"></path>
    <path d="m324.11,228.93c-1.58,0-3.16-.57-4.41-1.71l-15.66-14.32c-2.67-2.44-2.85-6.57-.42-9.24,2.44-2.67,6.57-2.85,9.24-.42l15.66,14.32c2.67,2.44,2.85,6.57.42,9.24-1.29,1.41-3.06,2.13-4.83,2.13Z"></path>
    <path d="m236.67,262.59c-1.77,0-3.53-.71-4.82-2.12-2.44-2.66-2.27-6.8.39-9.24l16.53-15.19c2.66-2.44,6.8-2.27,9.24.39s2.27,6.8-.39,9.24l-16.53,15.19c-1.26,1.15-2.84,1.72-4.42,1.72Z"></path>
    <path d="m212.2,208.41c-1.68,0-3.35-.64-4.63-1.92l-15.57-15.6c-2.55-2.56-2.55-6.7,0-9.25,2.56-2.55,6.7-2.55,9.25,0l15.57,15.6c2.55,2.56,2.55,6.7,0,9.25-1.28,1.27-2.95,1.91-4.62,1.91Z"></path>
    <path d="m111.79,214.62c-1.75,0-3.5-.7-4.78-2.08-2.46-2.64-2.32-6.78.32-9.24l16.1-15.01c2.64-2.46,6.78-2.32,9.24.32,2.46,2.64,2.32,6.78-.32,9.24l-16.1,15.01c-1.26,1.18-2.86,1.76-4.46,1.76Z"></path>
    <path d="m163.57,268.74c-1.74,0-3.47-.69-4.76-2.05-2.48-2.63-2.36-6.77.27-9.24l16.53-15.6c2.63-2.48,6.77-2.36,9.24.27,2.48,2.63,2.36,6.77-.27,9.24l-16.53,15.6c-1.26,1.19-2.88,1.78-4.49,1.78Z"></path>
    <path d="m127.45,297.06c-1.51,0-3.03-.52-4.27-1.59l-20.45-17.65c-2.73-2.36-3.04-6.49-.68-9.22,2.36-2.73,6.49-3.04,9.22-.68l20.45,17.65c2.73,2.36,3.04,6.49.68,9.22-1.29,1.5-3.12,2.27-4.95,2.27Z"></path>
    <path d="m189.46,345.08c-1.57,0-3.14-.56-4.4-1.7l-17.62-16.01c-2.67-2.43-2.87-6.56-.44-9.24,2.43-2.67,6.56-2.87,9.24-.44l17.62,16.01c2.67,2.43,2.87,6.56.44,9.24-1.29,1.42-3.06,2.14-4.84,2.14Z"></path>
    <path d="m266.68,313.48c-1.57,0-3.15-.56-4.41-1.71-2.67-2.43-2.86-6.57-.42-9.24l16.1-17.65c2.43-2.67,6.57-2.86,9.24-.42,2.67,2.43,2.86,6.57.42,9.24l-16.1,17.65c-1.29,1.41-3.06,2.13-4.83,2.13Z"></path>
    <path d="m299.81,433.97c-43.89,0-85.28-16.04-116.54-45.16-2.09-1.95-2.67-5.03-1.44-7.61s4.01-4.06,6.83-3.65c7.77,1.11,15.69,1.68,23.54,1.68,19.8,0,38.93-3.47,56.84-10.3,58.5-21.99,96.28-74.49,96.28-133.76,0-38.77-16.15-75.14-45.49-102.41-2.1-1.95-2.68-5.03-1.45-7.61,1.24-2.58,4-4.06,6.84-3.65,38.78,5.64,74.37,24.25,100.19,52.4,26.18,28.54,40.59,65.09,40.59,102.92,0,86.65-74.55,157.14-166.19,157.14Zm-91.59-41.7c26.3,18.57,58.15,28.62,91.59,28.62,84.43,0,153.11-64.63,153.11-144.06,0-65.06-45.02-120.46-109.6-138.21,22.75,27.46,35.07,61.07,35.07,96.55,0,32.11-10.17,62.99-29.42,89.29-18.75,25.62-44.79,45.23-75.3,56.7-20.57,7.85-42.67,11.62-65.45,11.11Z"></path>
    <path d="m187.73,390.57c-1.61,0-3.23-.59-4.5-1.79l-.07-.07c-2.62-2.48-2.74-6.62-.25-9.25,2.49-2.62,6.62-2.74,9.25-.25l.07.07c2.62,2.48,2.74,6.62.25,9.25-1.29,1.36-3.02,2.04-4.75,2.04Z"></path>
    <path d="m411.7,214.27c-1.58,0-3.16-.57-4.41-1.71l-15.66-14.32c-2.67-2.44-2.85-6.57-.42-9.24,2.44-2.67,6.57-2.85,9.24-.42l15.66,14.32c2.67,2.44,2.85,6.57.42,9.24-1.29,1.41-3.06,2.13-4.83,2.13Z"></path>
    <path d="m315.54,405.22c-1.57,0-3.15-.56-4.41-1.71-2.67-2.43-2.86-6.57-.42-9.24l16.1-17.65c2.43-2.67,6.57-2.86,9.24-.42,2.67,2.43,2.86,6.57.42,9.24l-16.1,17.65c-1.29,1.41-3.06,2.13-4.83,2.13Z"></path>
    <path d="m393.49,352.35c-1.63,0-3.25-.6-4.52-1.82l-15.95-15.27c-2.61-2.5-2.7-6.64-.2-9.25,2.5-2.61,6.64-2.7,9.25-.2l15.95,15.27c2.61,2.5,2.7,6.64.2,9.25-1.28,1.34-3,2.02-4.73,2.02Z"></path>
    <path d="m403.87,284.24c-1.98,0-3.94-.9-5.23-2.6-2.17-2.88-1.6-6.99,1.29-9.16l18.71-14.11c2.88-2.17,6.98-1.6,9.16,1.29,2.17,2.88,1.6,6.99-1.29,9.16l-18.71,14.11c-1.18.89-2.56,1.32-3.93,1.32Z"></path>
  </g>
</symbol><symbol id="i051_main-2" xmlns="http://www.w3.org/2000/svg" viewBox="0 0 512 512">
  <g id="porridge_1">
    <path d="m172.53,320.94h-64.71c-3.61,0-6.54-2.93-6.54-6.54s2.93-6.54,6.54-6.54h64.71c3.61,0,6.54,2.93,6.54,6.54s-2.93,6.54-6.54,6.54Z"></path>
    <path d="m223.11,320.94h-24.8c-3.61,0-6.54-2.93-6.54-6.54s2.93-6.54,6.54-6.54h24.8c3.61,0,6.54,2.93,6.54,6.54s-2.93,6.54-6.54,6.54Z"></path>
    <path d="m352.05,386.53c-2.9,0-5.54-1.94-6.32-4.87-.92-3.49,1.16-7.07,4.65-7.99,26.86-7.09,40.77-24.81,40.91-24.99,2.2-2.85,6.3-3.4,9.16-1.21,2.86,2.19,3.42,6.27,1.24,9.14-.66.87-16.57,21.42-47.97,29.71-.56.15-1.12.22-1.67.22Z"></path>
    <path d="m336.84,441.13h-156.01c-4.14,0-7.51-3.37-7.51-7.51v-30.96c0-3.61,2.93-6.54,6.54-6.54h157.95c3.61,0,6.54,2.93,6.54,6.54v30.96c0,4.14-3.37,7.51-7.51,7.51Zm-150.44-13.08h144.87v-18.85h-144.87v18.85Z"></path>
    <path d="m337.83,414.38c-2.66,0-5.16-1.63-6.13-4.27-1.25-3.39.47-7.15,3.86-8.4,53.02-19.64,95.72-59.26,117.37-108.83v-21.95c0-1.71-1.65-3.1-3.67-3.1H68.32c-2.03,0-3.67,1.39-3.67,3.1v21.8c21.64,49.71,64.41,89.39,117.53,108.98,3.39,1.25,5.12,5.01,3.87,8.4-1.25,3.39-5.01,5.12-8.4,3.87-56.92-20.99-102.68-63.75-125.56-117.33-.35-.81-.53-1.69-.53-2.57v-23.15c0-8.92,7.52-16.18,16.75-16.18h380.93c9.24,0,16.75,7.26,16.75,16.18v23.31c0,.88-.18,1.76-.53,2.57-22.88,53.42-68.57,96.13-125.37,117.17-.75.28-1.52.41-2.27.41Z"></path>
    <path d="m459.46,300.77H58.1c-3.61,0-6.54-2.93-6.54-6.54s2.93-6.54,6.54-6.54h401.36c3.61,0,6.54,2.93,6.54,6.54s-2.93,6.54-6.54,6.54Z"></path>
    <path d="m60.03,271.86c-1.68,0-3.35-.64-4.63-1.92-6.44-6.45-9.85-15.32-9.36-24.34.76-17.7,15.96-31.59,33.86-30.85,3.87.18,7.59,1,11.09,2.46,1.09.45,2.28.08,2.62-.55,7-13.19,17.64-19.53,29.97-17.88,3.76.23,7.41,1.07,10.87,2.52,1.08.45,2.23.22,3.07-.61,6.41-6.29,15.22-9.7,24.18-9.35,5.89.23,11.64,2.1,16.64,5.42.78.52,1.44,1.19,1.93,1.98,5.42,8.66,14.76,14.11,24.98,14.57,7.15.3,14.3-1.91,20.12-6.23,2.96-2.17,5.5-4.92,7.58-8.18.63-.98,1.5-1.78,2.54-2.31,3.43-1.75,7.18-2.64,11.15-2.64,5,0,9.83,1.39,13.94,4.02.91.59,2.22.49,2.73.02,4.92-4.53,11.64-6.95,18.46-6.64,5.8.21,11.4,2.41,15.73,6.19.89.78,2.02.83,3.02.15,4.68-3.19,10.43-4.79,16.2-4.51,2.45.11,4.86.55,7.15,1.3,2.55-5.02,6.83-9.17,12.24-11.63,9.31-4.24,20.26-2.8,29.31,3.83,2.53,1.86,4.42,4.65,5.3,7.85.48,1.73.9,3.26,1.25,4.65,1.97-.36,3.98-.5,6.01-.41,3.57.14,7.03.99,10.23,2.52.77.37,1.94.58,2.7-.04,8.26-6.69,15.63-9.96,21.96-9.71,14.55.66,26.23,11.29,28.1,24.62,13.9,4.21,23.59,17.46,22.81,32.36-.38,6.41-2.41,12.17-6.03,17.17-2.12,2.93-6.21,3.58-9.13,1.46-2.93-2.12-3.58-6.21-1.46-9.13,2.14-2.95,3.34-6.4,3.57-10.24.52-9.92-6.9-18.64-16.9-19.8-2.14-.25-4.03-1.54-5.03-3.45-.7-1.33-.91-2.84-.63-4.28.19-8.25-6.85-15.24-15.84-15.65-1.04-.05-5.17.32-13.17,6.8-4.59,3.72-10.94,4.37-16.57,1.68-1.6-.76-3.33-1.18-5.16-1.25-2.72-.13-5.45.59-7.74,2.01-2.31,1.43-5.27,1.28-7.43-.38-2.16-1.66-3.06-4.48-2.27-7.08.23-.76-.94-4.98-1.87-8.38-.11-.41-.34-.72-.44-.79-5.25-3.85-11.13-4.76-16.15-2.47-4.08,1.86-6.83,5.59-7.17,9.74-.2,2.42-1.73,4.53-3.96,5.48-2.24.95-4.81.58-6.69-.96-2.03-1.66-4.73-2.64-7.59-2.77-2.98-.14-5.89.66-8.24,2.26-5.96,4.06-13.59,3.61-18.99-1.12-2.1-1.84-4.75-2.86-7.65-2.97-3.41-.15-6.69,1.01-9.06,3.19-4.94,4.55-12.78,5.13-18.64,1.38-2.01-1.28-4.39-1.96-6.89-1.96-1.34,0-2.61.21-3.8.62-2.73,3.9-5.99,7.25-9.69,9.97-8.18,6.08-18.3,9.2-28.46,8.78-14.01-.63-26.84-7.84-34.64-19.38-2.74-1.58-5.77-2.47-8.85-2.59-5.45-.22-10.61,1.78-14.52,5.62-4.59,4.5-11.37,5.81-17.28,3.34-2.16-.9-4.44-1.42-6.8-1.54-.2-.01-.4-.03-.6-.06-6.78-.97-12.45,2.73-16.85,11.03-3.53,6.64-11.95,9.5-19.18,6.5-2.1-.87-4.33-1.36-6.64-1.47-10.68-.47-19.78,7.83-20.24,18.41-.29,5.39,1.73,10.64,5.55,14.47,2.55,2.56,2.55,6.7-.01,9.25-1.28,1.27-2.95,1.91-4.62,1.91Zm368.78-53.43h0,0Z"></path>
    <path d="m200.3,173.54c-1.74,0-3.47-.69-4.76-2.05-2.48-2.63-2.36-6.77.27-9.24l9.35-8.81c1.56-1.48,2.43-3.41,2.43-5.44s-.86-3.97-2.43-5.44c-4.21-3.97-6.53-9.28-6.53-14.96s2.32-10.98,6.53-14.96l9.75-9.19c2.63-2.48,6.77-2.36,9.24.27,2.48,2.63,2.36,6.77-.27,9.24l-9.75,9.19c-1.56,1.48-2.43,3.41-2.43,5.44s.86,3.97,2.43,5.44c4.21,3.97,6.53,9.28,6.53,14.96s-2.32,10.98-6.53,14.96l-9.35,8.81c-1.26,1.19-2.88,1.78-4.49,1.78Z"></path>
    <path d="m298.29,173.54c-1.74,0-3.47-.69-4.76-2.05-2.48-2.63-2.36-6.77.27-9.24l9.34-8.81c1.56-1.48,2.43-3.41,2.43-5.44s-.86-3.97-2.43-5.44c-4.21-3.97-6.53-9.28-6.53-14.96s2.32-10.98,6.53-14.96l9.75-9.19c2.63-2.48,6.77-2.36,9.24.27,2.48,2.63,2.36,6.77-.27,9.24l-9.75,9.19c-1.56,1.48-2.43,3.41-2.43,5.44s.86,3.97,2.43,5.44c4.21,3.97,6.53,9.28,6.53,14.96s-2.32,10.98-6.53,14.96l-9.34,8.81c-1.26,1.19-2.88,1.78-4.49,1.78Z"></path>
    <path d="m249.29,173.54c-1.25,0-2.52-.36-3.63-1.11-3-2.01-3.8-6.07-1.79-9.07l15-22.38c1.68-2.51,1.68-5.62,0-8.13l-11.3-16.87c-4.62-6.89-4.62-15.8,0-22.69.04-.06.08-.12.12-.18l14.04-19.51c2.11-2.93,6.2-3.6,9.13-1.49,2.93,2.11,3.6,6.2,1.49,9.13l-13.97,19.41c-1.63,2.5-1.61,5.57.05,8.06l11.3,16.87c4.62,6.89,4.62,15.8,0,22.69l-15,22.38c-1.26,1.88-3.33,2.9-5.44,2.9Z"></path>
  </g>
</symbol><symbol id="i051_main-3" xmlns="http://www.w3.org/2000/svg" viewBox="0 0 512 512">
  <g id="porridge_2">
    <path d="m328.07,438.61h-154.2c-4.14,0-7.51-3.37-7.51-7.51v-30.59c0-3.61,2.93-6.54,6.54-6.54h156.14c3.61,0,6.54,2.93,6.54,6.54v30.59c0,4.14-3.37,7.51-7.51,7.51Zm-148.63-13.08h143.06v-18.48h-143.06v18.48Z"></path>
    <path d="m329.06,412.17c-2.66,0-5.16-1.63-6.13-4.27-1.25-3.39.47-7.15,3.86-8.4,52.39-19.4,94.58-58.55,115.97-107.52v-21.68c0-1.65-1.6-2.99-3.56-2.99H62.64c-1.96,0-3.56,1.34-3.56,2.99v21.53c21.39,49.12,63.65,88.32,116.13,107.67,3.39,1.25,5.12,5.01,3.87,8.4-1.25,3.39-5.01,5.13-8.4,3.87-56.28-20.75-101.54-63.04-124.16-116.03-.35-.81-.53-1.69-.53-2.57v-22.88c0-8.86,7.46-16.06,16.64-16.06h376.56c9.17,0,16.64,7.21,16.64,16.06v23.04c0,.88-.18,1.76-.53,2.57-22.62,52.83-67.81,95.06-123.98,115.86-.75.28-1.52.41-2.27.41Z"></path>
    <path d="m449.3,299.86H52.54c-3.61,0-6.54-2.93-6.54-6.54s2.93-6.54,6.54-6.54h396.76c3.61,0,6.54,2.93,6.54,6.54s-2.93,6.54-6.54,6.54Z"></path>
    <path d="m407.26,267.29c-3.61,0-6.54-2.93-6.54-6.54,0-8.45-16.99-22.05-27.54-22.05-3.61,0-6.54-2.93-6.54-6.54s2.93-6.54,6.54-6.54c16.78,0,40.62,18.17,40.62,35.13,0,3.61-2.93,6.54-6.54,6.54Z"></path>
    <path d="m95.26,267.29c-3.61,0-6.54-2.93-6.54-6.54,0-15.64,12.77-28.48,28.87-29.52,15.29-10.15,31.27-14.54,47.52-13.09,3.6.32,6.25,3.5,5.93,7.1-.32,3.6-3.5,6.25-7.1,5.93-13.9-1.25-27.15,2.65-40.53,11.91-1.09.76-2.39,1.16-3.72,1.16-9.87,0-17.9,7.41-17.9,16.51,0,3.61-2.93,6.54-6.54,6.54Z"></path>
    <path d="m241.87,221.57c-3.5,0-6.4-2.77-6.53-6.3-.13-3.61,2.68-6.64,6.29-6.78,4.77-.18,9.81-.21,15.42-.1,3.61.07,6.48,3.06,6.41,6.67-.07,3.57-2.99,6.41-6.54,6.41-.04,0-.09,0-.13,0-5.35-.1-10.15-.07-14.67.09-.08,0-.16,0-.25,0Z"></path>
    <path d="m355.57,235.19h-.1c-.59,0-1.18-.08-1.76-.24-4.49-1.25-9.32-2.48-14.36-3.64-3.52-.81-5.71-4.33-4.9-7.85s4.33-5.71,7.85-4.9c5.04,1.17,9.9,2.39,14.43,3.65,3.06.55,5.38,3.22,5.38,6.44,0,3.61-2.93,6.54-6.54,6.54Z"></path>
    <path d="m309.73,225.57c-.31,0-.62-.02-.94-.07-6.66-.96-14.12-1.82-22.8-2.63-3.6-.33-6.24-3.52-5.9-7.12.33-3.6,3.54-6.24,7.12-5.9,8.9.83,16.57,1.71,23.45,2.71,3.57.52,6.06,3.83,5.54,7.41-.47,3.26-3.27,5.61-6.46,5.61Z"></path>
    <path d="m195.11,225.38c-3.21,0-6.01-2.36-6.47-5.63-.5-3.58,1.99-6.88,5.57-7.39,4.61-.65,9.4-1.23,14.26-1.74,3.61-.37,6.81,2.23,7.19,5.82.38,3.59-2.23,6.81-5.82,7.19-4.71.49-9.35,1.06-13.81,1.69-.31.04-.61.06-.92.06Z"></path>
    <path d="m180.76,248.31c-12.68,0-22.99-9.89-22.99-22.06s10.31-22.06,22.99-22.06,22.99,9.89,22.99,22.06-10.31,22.06-22.99,22.06Zm0-31.03c-5.46,0-9.91,4.03-9.91,8.98s4.45,8.98,9.91,8.98,9.91-4.03,9.91-8.98-4.45-8.98-9.91-8.98Z"></path>
    <path d="m225.61,238.73c-12.68,0-22.99-9.89-22.99-22.06s10.31-22.06,22.99-22.06,22.99,9.89,22.99,22.06-10.31,22.06-22.99,22.06Zm0-31.03c-5.46,0-9.91,4.03-9.91,8.98s4.45,8.98,9.91,8.98,9.91-4.03,9.91-8.98-4.45-8.98-9.91-8.98Z"></path>
    <path d="m271.35,244.21c-12.68,0-22.99-9.89-22.99-22.06s10.31-22.06,22.99-22.06,22.99,9.89,22.99,22.06-10.31,22.06-22.99,22.06Zm0-31.03c-5.46,0-9.91,4.03-9.91,8.98s4.45,8.98,9.91,8.98,9.91-4.03,9.91-8.98-4.45-8.98-9.91-8.98Z"></path>
    <path d="m326.1,240.31c-12.68,0-22.99-9.89-22.99-22.05s10.31-22.06,22.99-22.06,22.99,9.89,22.99,22.06-10.31,22.05-22.99,22.05Zm0-31.03c-5.46,0-9.91,4.03-9.91,8.98s4.45,8.98,9.91,8.98,9.91-4.03,9.91-8.98-4.45-8.98-9.91-8.98Z"></path>
    <path d="m357.42,254.53c-2.2,0-4.36-.5-6.33-1.56-3.14-1.68-5.44-4.58-6.46-8.16-1.24-4.33-.53-9.32,1.97-13.69l83.28-145.57s.05-.09.08-.13c6.32-10.49,18.34-14.91,27.34-10.08h0c3.92,2.1,6.76,5.75,8,10.26,1.56,5.68.48,12.22-2.96,17.93-.02.04-.05.08-.08.12l-89.89,142.01c-3.56,5.62-9.38,8.86-14.96,8.86Zm83.77-162.41l-83.24,145.5c-1.1,1.93-.9,3.54-.64,3.86.42.16,2.54-.48,4.01-2.8l89.85-141.95c1.55-2.6,2.12-5.46,1.51-7.66-.29-1.06-.82-1.8-1.57-2.2h0c-2.41-1.29-7.15.68-9.93,5.25Z"></path>
    <path d="m159.18,321.94h-63.92c-3.61,0-6.54-2.93-6.54-6.54s2.93-6.54,6.54-6.54h63.92c3.61,0,6.54,2.93,6.54,6.54s-2.93,6.54-6.54,6.54Z"></path>
    <path d="m209.15,321.94h-24.51c-3.61,0-6.54-2.93-6.54-6.54s2.93-6.54,6.54-6.54h24.51c3.61,0,6.54,2.93,6.54,6.54s-2.93,6.54-6.54,6.54Z"></path>
    <path d="m336.53,386.73c-2.9,0-5.54-1.94-6.32-4.87-.92-3.49,1.16-7.07,4.65-7.99,26.74-7.06,40.23-24.47,40.36-24.64,2.19-2.87,6.29-3.43,9.16-1.25,2.88,2.19,3.43,6.29,1.25,9.16-.65.86-16.38,21.18-47.43,29.38-.56.15-1.12.22-1.67.22Z"></path>
  </g>
</symbol><symbol id="i051_main-4" xmlns="http://www.w3.org/2000/svg" viewBox="0 0 512 512">
  <g id="pizza_2">
    <path d="m233.31,453.51c-103.28,0-187.31-79.82-187.31-177.92S130.03,97.73,233.31,97.73c24.49,0,48.22,4.39,70.54,13.04,1.65.64,2.97,1.92,3.66,3.55.69,1.63.69,3.47,0,5.1l-12.35,29.07-47.13,110.74,119.54-43.29,30.79-11.19c3.25-1.18,6.86.37,8.23,3.55,9.26,21.38,13.96,44.02,13.96,67.3,0,98.11-84,177.92-187.24,177.92Zm0-342.7c-96.07,0-174.23,73.92-174.23,164.78s78.16,164.84,174.23,164.84,174.16-73.95,174.16-164.84c0-19.43-3.54-38.37-10.54-56.41l-24.9,9.05-133.67,48.41c-2.45.89-5.19.24-6.98-1.65-1.79-1.89-2.29-4.66-1.27-7.06l53.01-124.56,9.66-22.74c-18.94-6.53-38.91-9.83-59.47-9.83Z"></path>
    <path d="m426.21,183.45c-2.52,0-4.91-1.47-5.98-3.89-15.47-34.95-45.88-63.19-83.43-77.5-1.67-.63-3-1.92-3.7-3.57-.69-1.64-.69-3.5.02-5.14l13.33-30.91c1.39-3.22,5.07-4.77,8.34-3.52,50.01,19.09,90.35,56.81,110.67,103.47.72,1.66.73,3.54,0,5.21-.72,1.66-2.09,2.95-3.8,3.56l-33.25,11.9c-.73.26-1.47.38-2.2.38Zm-78.43-91.06c35.93,15.38,65.26,42.75,81.83,76.36l20.93-7.49c-18.86-38.74-52.81-70.26-94.59-87.78l-8.16,18.92Z"></path>
    <path d="m233.31,422.21c-85.08,0-154.3-65.77-154.3-146.62s69.22-146.56,154.3-146.56c20.09,0,39.67,3.64,58.19,10.81,1.65.64,2.97,1.92,3.66,3.56s.69,3.47,0,5.1l-47.13,110.73,119.54-43.29c3.24-1.17,6.83.37,8.21,3.52,7.8,17.74,11.76,36.63,11.76,56.13,0,80.85-69.19,146.62-154.23,146.62Zm0-280.1c-77.87,0-141.22,59.88-141.22,133.48s63.35,133.54,141.22,133.54,141.15-59.91,141.15-133.54c0-15.63-2.8-30.81-8.33-45.22l-127.78,46.28c-2.45.89-5.19.24-6.98-1.65-1.79-1.89-2.29-4.66-1.27-7.06l50.3-118.2c-15.11-5.07-30.92-7.63-47.1-7.63Z"></path>
    <path d="m233.29,213.9c-1.09,0-2.18-.27-3.16-.81-12.04-6.64-19.52-18.94-19.52-32.08s7.48-25.44,19.52-32.08c1.97-1.09,4.35-1.09,6.32,0,12.04,6.64,19.52,18.94,19.52,32.08s-7.48,25.44-19.52,32.08c-.98.54-2.07.81-3.16.81Zm0-51.49c-6.07,4.54-9.6,11.27-9.6,18.59s3.53,14.05,9.6,18.59c6.07-4.54,9.6-11.27,9.6-18.59s-3.53-14.05-9.6-18.59Z"></path>
    <path d="m233.29,403.1c-1.09,0-2.18-.27-3.16-.81-12.04-6.64-19.52-18.94-19.52-32.08s7.48-25.44,19.52-32.08c1.97-1.08,4.35-1.08,6.32,0,12.04,6.64,19.52,18.94,19.52,32.08s-7.48,25.44-19.52,32.08c-.98.54-2.07.81-3.16.81Zm0-51.49c-6.07,4.54-9.6,11.27-9.6,18.59s3.53,14.05,9.6,18.59c6.07-4.54,9.6-11.27,9.6-18.59s-3.53-14.05-9.6-18.59Z"></path>
    <path d="m333.08,297.44c-13.82,0-26.29-6.89-33.37-18.42-1.29-2.1-1.29-4.74,0-6.84,7.08-11.53,19.56-18.42,33.37-18.42s26.29,6.89,33.37,18.42c1.29,2.1,1.29,4.74,0,6.84-7.08,11.53-19.56,18.42-33.37,18.42Zm-19.71-21.84c4.85,5.55,11.95,8.76,19.71,8.76s14.86-3.21,19.71-8.76c-4.85-5.55-11.95-8.76-19.71-8.76s-14.86,3.21-19.71,8.76Z"></path>
    <path d="m133.51,297.44c-13.82,0-26.29-6.89-33.37-18.42-1.29-2.1-1.29-4.74,0-6.84,7.08-11.53,19.56-18.42,33.37-18.42s26.29,6.89,33.37,18.42c1.29,2.1,1.29,4.74,0,6.84-7.08,11.53-19.56,18.42-33.37,18.42Zm-19.71-21.84c4.85,5.55,11.95,8.76,19.71,8.76s14.86-3.21,19.71-8.76c-4.85-5.55-11.95-8.76-19.71-8.76s-14.86,3.21-19.71,8.76Z"></path>
    <path d="m314.98,368.74c-10.05,0-19.7-3.72-27.04-10.67-9.79-9.28-13.64-23.06-10.05-35.96.63-2.27,2.43-4.02,4.71-4.59,13.48-3.38,27.37.14,37.16,9.42,9.79,9.28,13.64,23.06,10.05,35.96-.63,2.27-2.43,4.02-4.71,4.59-3.37.84-6.77,1.26-10.12,1.26Zm8.53-7.6h0,0Zm-33.76-31.62c-.74,7.05,1.82,13.97,7.19,19.06,5.48,5.2,13.26,7.69,21.01,6.91.74-7.05-1.82-13.97-7.19-19.06-5.48-5.2-13.25-7.69-21.01-6.91Z"></path>
    <path d="m173.86,234.95c-10.05,0-19.7-3.72-27.04-10.67-9.79-9.28-13.64-23.06-10.05-35.96.63-2.27,2.43-4.02,4.71-4.59,13.48-3.38,27.37.14,37.16,9.42,9.79,9.28,13.64,23.06,10.05,35.96-.63,2.27-2.43,4.02-4.71,4.59-3.37.84-6.77,1.26-10.12,1.26Zm8.53-7.6h0,0Zm-33.76-31.62c-.74,7.05,1.82,13.96,7.19,19.06,5.48,5.2,13.26,7.7,21.01,6.91.74-7.05-1.82-13.96-7.19-19.06-5.48-5.2-13.26-7.69-21.01-6.91Z"></path>
    <path d="m151.61,368.74c-3.35,0-6.75-.41-10.12-1.26-2.28-.57-4.08-2.32-4.71-4.59-3.59-12.9.25-26.67,10.05-35.96,9.78-9.28,23.67-12.79,37.16-9.42,2.28.57,4.08,2.32,4.71,4.59,3.59,12.9-.26,26.67-10.05,35.96-7.34,6.95-16.98,10.67-27.04,10.67Zm-2.98-13.25c7.76.78,15.53-1.72,21.01-6.91,5.37-5.09,7.92-12.01,7.19-19.06-7.76-.78-15.53,1.72-21.01,6.91-5.37,5.09-7.93,12.01-7.19,19.06Z"></path>
    <path d="m345.89,184.55c-3.35,0-6.75-.41-10.12-1.26-2.28-.57-4.08-2.32-4.71-4.59-3.59-12.9.25-26.67,10.05-35.96,9.78-9.27,23.67-12.79,37.16-9.42,2.28.57,4.08,2.32,4.71,4.59,3.59,12.9-.25,26.67-10.05,35.96-7.34,6.95-16.98,10.67-27.04,10.67Zm-2.98-13.25c7.76.78,15.53-1.72,21.01-6.91,5.37-5.09,7.93-12.01,7.19-19.06-7.75-.78-15.53,1.71-21.01,6.91-5.37,5.09-7.93,12.01-7.19,19.06Z"></path>
    <path d="m233.29,257.46c-3.61,0-6.54-2.93-6.54-6.54v-24.48c0-3.61,2.93-6.54,6.54-6.54s6.54,2.93,6.54,6.54v24.48c0,3.61-2.93,6.54-6.54,6.54Z"></path>
    <path d="m233.29,331.3c-3.61,0-6.54-2.93-6.54-6.54v-24.48c0-3.61,2.93-6.54,6.54-6.54s6.54,2.93,6.54,6.54v24.48c0,3.61-2.93,6.54-6.54,6.54Z"></path>
    <path d="m285.15,282.14h-25.82c-3.61,0-6.54-2.93-6.54-6.54s2.93-6.54,6.54-6.54h25.82c3.61,0,6.54,2.93,6.54,6.54s-2.93,6.54-6.54,6.54Z"></path>
    <path d="m207.26,282.14h-25.82c-3.61,0-6.54-2.93-6.54-6.54s2.93-6.54,6.54-6.54h25.82c3.61,0,6.54,2.93,6.54,6.54s-2.93,6.54-6.54,6.54Z"></path>
    <path d="m269.96,316.91c-1.62,0-3.23-.6-4.5-1.79l-18.26-17.31c-2.62-2.48-2.73-6.62-.25-9.25,2.48-2.62,6.62-2.73,9.25-.25l18.26,17.31c2.62,2.48,2.73,6.62.25,9.25-1.29,1.36-3.01,2.04-4.75,2.04Z"></path>
    <path d="m214.89,264.69c-1.62,0-3.23-.6-4.5-1.79l-18.26-17.31c-2.62-2.49-2.73-6.62-.25-9.25,2.49-2.62,6.62-2.73,9.25-.25l18.26,17.31c2.62,2.49,2.73,6.62.25,9.25-1.29,1.36-3.02,2.04-4.75,2.04Z"></path>
    <path d="m196.63,316.91c-1.73,0-3.46-.68-4.75-2.04-2.48-2.62-2.37-6.76.25-9.25l18.26-17.31c2.62-2.48,6.76-2.37,9.25.25,2.48,2.62,2.37,6.76-.25,9.25l-18.26,17.31c-1.27,1.2-2.88,1.79-4.5,1.79Z"></path>
    <path d="m306.77,212.48c-1.73,0-3.46-.68-4.75-2.04-2.48-2.62-2.37-6.76.25-9.25l18.26-17.31c2.62-2.48,6.76-2.37,9.24.25,2.48,2.62,2.37,6.76-.25,9.25l-18.26,17.31c-1.26,1.2-2.88,1.79-4.5,1.79Z"></path>
    <path d="m281.89,234.93c-1.78,0-3.51-.72-4.77-2.07-1.78-1.9-2.26-4.68-1.23-7.07l57.23-132.44c1.39-3.21,5.06-4.76,8.33-3.52,40.79,15.54,73.86,46.32,90.73,84.43.74,1.66.75,3.56.03,5.23-.72,1.67-2.1,2.97-3.81,3.58l-144.31,51.47c-.72.26-1.46.38-2.2.38Zm60.7-130.53l-48.73,112.77,123.34-43.99c-15.32-30.22-41.99-54.83-74.6-68.78Z"></path>
    <path d="m400.66,217.43h-.07c-3.61,0-6.54-2.93-6.54-6.54s2.93-6.54,6.54-6.54,6.57,2.93,6.57,6.54-2.9,6.54-6.51,6.54Z"></path>
  </g>
</symbol><symbol id="i051_main-5" xmlns="http://www.w3.org/2000/svg" viewBox="0 0 512 512">
  <g id="bowl">
    <path d="m339.5,382.78h-166.99c-.86,0-1.72-.17-2.52-.5-1.21-.5-29.92-12.64-59.67-38.16-39.74-34.09-61.97-75.89-64.3-120.88h0c-.2-3.84,1.2-7.64,3.85-10.42,2.59-2.73,6.2-4.29,9.91-4.29h392.45c3.71,0,7.32,1.57,9.91,4.29,2.64,2.78,4.04,6.58,3.85,10.42-2.33,44.99-24.56,86.79-64.3,120.88-29.75,25.52-58.46,37.65-59.67,38.16-.8.33-1.65.5-2.52.5Zm-165.63-13.08h164.25c5.55-2.5,30.37-14.27,55.33-35.76,37.29-32.1,57.3-69.58,59.46-111.38.02-.36-.13-.6-.27-.74-.06-.07-.23-.22-.43-.22H59.78c-.2,0-.36.16-.43.22-.13.14-.29.38-.27.74,2.17,41.92,22.27,79.48,59.75,111.63,24.94,21.4,49.51,33.03,55.04,35.51Z"></path>
    <path d="m455.97,254.46H56.02c-3.61,0-6.54-2.93-6.54-6.54s2.93-6.54,6.54-6.54h399.96c3.61,0,6.54,2.93,6.54,6.54s-2.93,6.54-6.54,6.54Z"></path>
    <path d="m266.47,221.6h-18.77c-3.61,0-6.54-2.93-6.54-6.54,0-14.78-8.3-27.84-21.14-33.29-2.93-1.25-4.55-4.43-3.81-7.53,3.66-15.43,11.07-29.81,22.02-42.72,1.18-1.38,2.87-2.22,4.69-2.3,1.83-.08,3.58.59,4.88,1.86l43.39,42.51c1.44,1.41,2.15,3.41,1.92,5.42-.23,2.01-1.38,3.79-3.1,4.84-10.48,6.36-16.99,18.31-16.99,31.2,0,3.61-2.93,6.54-6.54,6.54Zm-12.64-13.08h6.52c1.56-12.06,7.38-23.13,16.21-30.94l-32.72-32.06c-6.16,8.38-10.7,17.35-13.56,26.79,12.91,7.49,21.61,20.88,23.55,36.22Z"></path>
    <path d="m446.29,221.6h-28.01c-3.61,0-6.54-2.93-6.54-6.54,0-11.47-4.28-22.15-12.06-30.08-1.21-1.24-1.89-2.91-1.87-4.64.02-1.73.72-3.39,1.96-4.61l26.28-25.75c1.3-1.27,3.06-1.95,4.88-1.86,1.81.08,3.51.92,4.69,2.3,27.52,32.42,17.35,65.27,16.9,66.65-.87,2.7-3.39,4.53-6.22,4.53Zm-21.83-13.08h16.59c1.25-8.04,1.87-25.55-11.09-44.06l-16.64,16.3c6.16,8,9.99,17.54,11.14,27.76Z"></path>
    <path d="m202.94,221.6h-77.31c-2.84,0-5.35-1.83-6.22-4.53-.23-.71-5.55-17.65,1.37-39.07,3.09-9.79,8.32-19.08,15.53-27.59,1.17-1.38,2.87-2.22,4.68-2.3,1.82-.09,3.58.59,4.88,1.86l34.65,33.9,27.01,26.52c1.9,1.86,2.48,4.68,1.47,7.14-1.01,2.46-3.4,4.06-6.05,4.06Zm-72.02-13.08h56.03l-15.59-15.3-29.39-28.75c-3.88,5.56-6.81,11.44-8.74,17.52-3.66,11.31-3.13,21.1-2.32,26.53Z"></path>
    <path d="m347.03,221.6h-80.56c-3.61,0-6.54-2.93-6.54-6.54,0-17.43,8.92-33.67,23.29-42.39,7.04-4.35,15.19-6.66,23.53-6.66,12.94,0,25.38,5.66,34.13,15.53,8.17,9.08,12.69,20.99,12.69,33.51,0,3.61-2.93,6.54-6.54,6.54Zm-73.46-13.08h66.36c-1.18-6.83-4.21-13.15-8.81-18.26-6.39-7.21-15.04-11.17-24.38-11.17-5.99,0-11.61,1.59-16.7,4.74-8.72,5.29-14.68,14.4-16.47,24.69Z"></path>
    <path d="m247.7,221.6h-44.76c-1.71,0-3.36-.67-4.58-1.87l-27-26.51c-2.34-2.3-2.62-5.99-.64-8.61,8.92-11.82,22.3-18.6,36.69-18.6,6.13,0,12.11,1.26,17.78,3.75,17.61,7.47,29.04,25.26,29.04,45.3,0,3.61-2.93,6.54-6.54,6.54Zm-42.08-13.08h34.99c-2.05-12-9.68-22.12-20.58-26.75-4.08-1.79-8.3-2.68-12.61-2.68-8.4,0-16.34,3.28-22.47,9.14l20.66,20.29Z"></path>
    <path d="m125.63,221.6h-61.79c-3.61,0-6.54-2.93-6.54-6.54,0-27.04,21-49.05,46.82-49.05,9.51,0,18.74,3,26.69,8.69,2.32,1.66,3.29,4.62,2.42,7.33-5.56,17.21-1.41,30.91-1.36,31.05.62,1.99.27,4.16-.97,5.84-1.23,1.68-3.18,2.68-5.26,2.68Zm-54.7-13.08h46.78c-.73-6.16-.92-15.17,1.65-25.56-4.75-2.54-9.95-3.86-15.25-3.86-16.51,0-30.29,12.71-33.18,29.43Z"></path>
    <path d="m418.28,221.6h-71.25c-3.61,0-6.54-2.93-6.54-6.54,0-9.28-3.33-18.09-9.37-24.8-2.05-2.28-2.24-5.67-.47-8.17,9.79-13.74,25.41-21.94,41.78-21.94,13.84,0,26.84,5.58,36.61,15.71,10.15,10.35,15.77,24.29,15.77,39.2,0,3.61-2.93,6.54-6.54,6.54Zm-65.13-13.08h58.11c-1.31-8.95-5.31-17.14-11.59-23.54-7.32-7.59-16.98-11.75-27.24-11.75s-20.78,4.66-28.08,12.67c4.73,6.65,7.74,14.41,8.79,22.62Z"></path>
    <path d="m306.75,205.48c-3.61,0-6.54-2.93-6.54-6.54v-12.12c0-3.61,2.93-6.54,6.54-6.54s6.54,2.93,6.54,6.54v12.12c0,3.61-2.93,6.54-6.54,6.54Z"></path>
    <path d="m332.18,210.24h-11.49c-3.61,0-6.54-2.93-6.54-6.54s2.93-6.54,6.54-6.54h11.49c3.61,0,6.54,2.93,6.54,6.54s-2.93,6.54-6.54,6.54Z"></path>
    <path d="m292.35,210.24h-11.49c-3.61,0-6.54-2.93-6.54-6.54s2.93-6.54,6.54-6.54h11.49c3.61,0,6.54,2.93,6.54,6.54s-2.93,6.54-6.54,6.54Z"></path>
    <path d="m380.06,200.63c-.88,0-1.78-.18-2.64-.56-3.3-1.46-4.8-5.32-3.33-8.63l4.86-10.98c1.46-3.3,5.32-4.8,8.63-3.33,3.3,1.46,4.8,5.32,3.33,8.63l-4.86,10.98c-1.08,2.44-3.48,3.89-5.98,3.89Z"></path>
    <path d="m404.53,210.24h-11.49c-3.61,0-6.54-2.93-6.54-6.54s2.93-6.54,6.54-6.54h11.49c3.61,0,6.54,2.93,6.54,6.54s-2.93,6.54-6.54,6.54Z"></path>
    <path d="m364,203.71c-1.73,0-3.46-.68-4.75-2.04l-8.12-8.57c-2.48-2.62-2.37-6.76.25-9.25,2.62-2.48,6.76-2.37,9.24.25l8.12,8.57c2.48,2.62,2.37,6.76-.25,9.25-1.26,1.2-2.88,1.79-4.5,1.79Z"></path>
    <path d="m410.84,195.2c-2.45,0-4.8-1.38-5.92-3.75-1.54-3.27-.15-7.16,3.12-8.71l31.74-15.01c3.27-1.54,7.16-.15,8.71,3.12,1.54,3.27.15,7.16-3.12,8.71l-31.74,15.01c-.9.43-1.85.63-2.79.63Z"></path>
    <path d="m416.23,207.27c-3.47,0-6.36-2.72-6.53-6.22-.18-3.61,2.61-6.67,6.21-6.85l31.91-1.55c3.57-.18,6.68,2.61,6.85,6.21.18,3.61-2.61,6.67-6.21,6.85l-31.91,1.55c-.11,0-.22,0-.32,0Z"></path>
    <path d="m201.43,202.54c-3.48,0-6.37-2.74-6.53-6.25l-.5-11.14c-.16-3.61,2.63-6.66,6.24-6.83,3.62-.16,6.66,2.63,6.83,6.24l.5,11.14c.16,3.61-2.63,6.66-6.24,6.83-.1,0-.2,0-.3,0Z"></path>
    <path d="m233.25,206.5h-13.53c-3.61,0-6.54-2.93-6.54-6.54s2.93-6.54,6.54-6.54h13.53c3.61,0,6.54,2.93,6.54,6.54s-2.93,6.54-6.54,6.54Z"></path>
    <path d="m105.73,203.71c-3.55,0-6.46-2.84-6.54-6.41l-.25-12.31c-.07-3.61,2.79-6.6,6.41-6.67,3.59-.06,6.6,2.79,6.67,6.41l.25,12.31c.07,3.61-2.79,6.6-6.41,6.67-.05,0-.09,0-.14,0Z"></path>
    <path d="m92.2,210.24c-1,0-2.02-.23-2.97-.72l-12.78-6.53c-3.22-1.64-4.49-5.58-2.85-8.8,1.64-3.22,5.58-4.49,8.8-2.85l12.78,6.53c3.22,1.64,4.49,5.58,2.85,8.8-1.16,2.26-3.45,3.57-5.83,3.57Z"></path>
    <path d="m143.33,221.6c-.64,0-1.28-.09-1.93-.29-3.45-1.06-5.39-4.72-4.33-8.17l13.83-44.9c1.06-3.45,4.72-5.39,8.17-4.33,3.45,1.06,5.39,4.72,4.33,8.17l-13.83,44.9c-.87,2.81-3.45,4.62-6.25,4.62Z"></path>
    <path d="m173.7,221.6c-1.11,0-2.23-.28-3.26-.88-3.13-1.81-4.2-5.81-2.4-8.93l10.58-18.33c1.81-3.13,5.81-4.2,8.93-2.4,3.13,1.81,4.2,5.81,2.4,8.93l-10.58,18.33c-1.21,2.1-3.41,3.27-5.67,3.27Z"></path>
    <path d="m242.22,200.18c-.34,0-.69-.03-1.04-.08-3.57-.57-5.99-3.92-5.42-7.49l8.14-50.9c.57-3.57,3.91-6,7.49-5.43,3.57.57,5.99,3.92,5.42,7.49l-8.14,50.9c-.51,3.22-3.29,5.51-6.45,5.51Z"></path>
    <path d="m262.49,221.6c-.32,0-.64-.02-.97-.07-3.57-.53-6.04-3.86-5.51-7.43l7.83-52.76c.53-3.57,3.86-6.04,7.43-5.51,3.57.53,6.04,3.86,5.51,7.43l-7.83,52.76c-.48,3.25-3.27,5.58-6.46,5.58Z"></path>
    <path d="m343.88,359.47c-2.23,0-4.41-1.14-5.63-3.2-1.84-3.11-.82-7.12,2.28-8.96,21.61-12.83,39.92-27.89,54.42-44.76,2.35-2.74,6.48-3.05,9.22-.7,2.74,2.35,3.05,6.48.7,9.22-15.43,17.94-34.83,33.92-57.66,47.48-1.05.62-2.2.92-3.33.92Z"></path>
    <path d="m136.16,277.46h-36.16c-3.61,0-6.54-2.93-6.54-6.54s2.93-6.54,6.54-6.54h36.16c3.61,0,6.54,2.93,6.54,6.54s-2.93,6.54-6.54,6.54Z"></path>
    <path d="m172.68,277.46h-11.65c-3.61,0-6.54-2.93-6.54-6.54s2.93-6.54,6.54-6.54h11.65c3.61,0,6.54,2.93,6.54,6.54s-2.93,6.54-6.54,6.54Z"></path>
  </g>
</symbol><symbol id="i051_main-6" xmlns="http://www.w3.org/2000/svg" viewBox="0 0 512 512">
  <g id="noodles">
    <path d="m323.41,463.02h-138.04c-9.35,0-16.96-7.34-16.96-16.37v-22.21c0-3.61,2.93-6.54,6.54-6.54h158.87c3.61,0,6.54,2.93,6.54,6.54v22.21c0,9.03-7.61,16.37-16.96,16.37Zm-141.92-32.04v15.67c0,1.81,1.74,3.29,3.88,3.29h138.04c2.14,0,3.88-1.48,3.88-3.29v-15.67h-145.79Z"></path>
    <path d="m333.82,436.19c-2.65,0-5.15-1.63-6.13-4.26-1.26-3.39.47-7.15,3.85-8.41,53.35-19.83,96.31-59.7,118.05-109.51v-22.04c0-1.61-1.3-2.93-3.08-3.14-.12-.01-.24-.03-.37-.05-.08,0-.15,0-.22,0H62.85c-2.05,0-3.77,1.46-3.77,3.19v22.03c21.76,49.72,64.52,89.49,117.58,109.31,2.83.72,4.93,3.28,4.93,6.34,0,3.61-2.93,6.54-6.54,6.54h-.1c-.77,0-1.54-.14-2.27-.41-57.1-21.14-103.08-64.1-126.15-117.84-.35-.81-.53-1.69-.53-2.58v-23.39c0-8.97,7.56-16.27,16.85-16.27h383.07c.55,0,1.43,0,2.42.18,8.19,1.11,14.33,7.98,14.33,16.09v23.39c0,.88-.18,1.76-.53,2.57-22.97,53.66-68.91,96.61-126.04,117.85-.75.28-1.52.41-2.28.41Zm111.95-147.49s.09.02.13.03c-.04,0-.09-.02-.13-.03Z"></path>
    <path d="m456.13,321.9H52.54c-3.61,0-6.54-2.93-6.54-6.54s2.93-6.54,6.54-6.54h403.59c3.61,0,6.54,2.93,6.54,6.54s-2.93,6.54-6.54,6.54Z"></path>
    <path d="m161.02,344.38h-65.02c-3.61,0-6.54-2.93-6.54-6.54s2.93-6.54,6.54-6.54h65.02c3.61,0,6.54,2.93,6.54,6.54s-2.93,6.54-6.54,6.54Z"></path>
    <path d="m211.86,344.38h-24.93c-3.61,0-6.54-2.93-6.54-6.54s2.93-6.54,6.54-6.54h24.93c3.61,0,6.54,2.93,6.54,6.54s-2.93,6.54-6.54,6.54Z"></path>
    <path d="m341.43,410.29c-2.9,0-5.54-1.94-6.32-4.87-.92-3.49,1.16-7.07,4.65-7.99,27.01-7.13,40.99-24.95,41.13-25.13,2.2-2.85,6.3-3.4,9.16-1.21,2.86,2.19,3.42,6.27,1.24,9.14-.67.88-16.64,21.52-48.19,29.84-.56.15-1.12.22-1.67.22Z"></path>
    <path d="m276,288.78h-48.44c-2.22,0-4.29-1.13-5.49-2.99s-1.38-4.22-.47-6.24c3.43-7.58,9.97-13.62,17.97-16.57,2.99-1.21,6.04-1.93,9.32-2.18,1.08-.13,2.11-.13,2.94-.13,6.31,0,12.47,1.73,17.8,4.99.05.03.09.06.14.09,2.16,1.4,3.87,2.72,5.41,4.17,2.9,2.74,5.19,6,6.82,9.7.89,2.02.69,4.36-.51,6.2-1.21,1.85-3.27,2.96-5.47,2.96Zm-33.03-13.08h17.75c-2.76-1.28-5.79-1.96-8.89-1.96-.47,0-1.12,0-1.42.04-.13.02-.27.03-.4.04-1.99.14-3.82.57-5.6,1.3-.08.03-.16.06-.24.09-.41.15-.81.31-1.2.48Z"></path>
    <path d="m206,288.78c-.5,0-1.01-.06-1.52-.18-3.51-.83-5.69-4.36-4.85-7.87,1.51-6.37,4.22-12.22,8.05-17.41.14-.25.29-.49.46-.71,5.39-7.23,12.78-13.05,21.36-16.82,7.08-3.05,14.58-4.58,22.32-4.58,1.66,0,3.24.11,4.77.21,1.84.12,3.69.35,5.5.69,8.9,1.66,16.91,5.27,23.79,10.74,7.65,6.07,13.37,13.96,16.55,22.81.61,1.61,1.06,3.21,1.5,4.76.98,3.48-1.03,7.11-4.5,8.09-3.48.99-7.08-1.02-8.07-4.49-.4-1.4-.76-2.69-1.18-3.79-.01-.04-.03-.08-.04-.11-2.35-6.58-6.64-12.47-12.39-17.03-5.2-4.13-11.28-6.86-18.07-8.13-1.31-.25-2.61-.41-3.9-.49-1.44-.1-2.74-.18-3.96-.18-5.96,0-11.71,1.18-17.11,3.5-6.24,2.74-11.65,6.91-15.65,12.05-.15.26-.32.52-.5.76-2.98,3.88-5.07,8.31-6.22,13.16-.71,3.01-3.4,5.03-6.36,5.03Z"></path>
    <path d="m181.31,288.78c-.3,0-.6-.02-.9-.06-3.58-.49-6.08-3.8-5.58-7.37,1.67-12.09,6.75-23.68,14.68-33.53,5.67-7.3,12.56-13.34,20.5-17.95,7.85-4.92,16.67-8.34,26.22-10.16.17-.03.33-.06.5-.08,5-.94,10.08-1.42,15.1-1.42,10.79,0,21.21,2.05,30.95,6.1,8.16,3.32,15.63,8.01,22.14,13.92,6.81,5.88,12.26,12.73,16.21,20.36,4.02,7.17,6.58,14.84,7.6,22.81.46,3.58-2.07,6.86-5.65,7.32-3.58.46-6.86-2.07-7.32-5.65-.82-6.33-2.86-12.44-6.09-18.17-.04-.07-.08-.14-.12-.21-3.2-6.2-7.65-11.79-13.25-16.62-.04-.04-.09-.08-.13-.12-5.39-4.9-11.57-8.79-18.38-11.55-8.19-3.4-16.92-5.12-25.98-5.12-4.33,0-8.71.42-13.03,1.26-.17.03-.33.06-.5.08-7.83,1.54-15.04,4.36-21.43,8.37-.07.04-.13.08-.2.12-6.53,3.78-12.2,8.75-16.86,14.76-.03.03-.05.07-.08.1-6.47,8.01-10.6,17.4-11.95,27.15-.45,3.27-3.26,5.64-6.47,5.64Z"></path>
    <path d="m345.07,288.78c-3.27,0-6.09-2.45-6.49-5.78-.93-7.93-3.1-15.71-6.45-23.14-3.36-7.33-7.84-14.19-13.31-20.36-5.13-5.8-11.36-11.06-18.52-15.63-14.41-9.03-31.18-13.81-48.47-13.81-12.62,0-24.69,2.43-35.86,7.23-8.28,3.45-15.87,8.09-22.63,13.82-6.97,5.93-12.79,12.73-17.27,20.19-6.05,9.82-9.77,20.47-11.09,31.7-.42,3.59-3.67,6.15-7.26,5.73-3.59-.42-6.15-3.67-5.73-7.26,1.55-13.13,5.89-25.57,12.91-36.96,5.18-8.62,11.91-16.51,19.98-23.37,7.8-6.61,16.54-11.95,26-15.89,12.75-5.48,26.55-8.27,40.96-8.27,19.75,0,38.92,5.48,55.46,15.84,8.24,5.25,15.4,11.3,21.33,18.02,6.32,7.13,11.51,15.08,15.42,23.62,3.91,8.68,6.44,17.76,7.53,27.02.42,3.59-2.14,6.84-5.73,7.26-.26.03-.52.05-.77.05Z"></path>
    <path d="m378.42,288.78c-2.38,0-4.68-1.31-5.84-3.58-6.44-12.68-19.75-20.91-34.74-21.49-3.61-.14-6.42-3.18-6.28-6.79.14-3.61,3.2-6.43,6.79-6.28,19.72.76,37.3,11.73,45.89,28.63,1.64,3.22.35,7.16-2.87,8.79-.95.48-1.96.71-2.96.71Z"></path>
    <path d="m404.46,288.78c-2.78,0-5.36-1.79-6.24-4.59-8.04-25.65-33.58-43.57-62.1-43.57-3.67,0-7.37.32-11.31.99-3.56.6-6.94-1.8-7.54-5.36-.6-3.56,1.79-6.94,5.36-7.54,4.66-.79,9.08-1.17,13.49-1.17,17.05,0,33.24,5.13,46.8,14.83,13.21,9.45,23.08,22.91,27.78,37.91,1.08,3.45-.84,7.12-4.28,8.2-.65.2-1.31.3-1.96.3Z"></path>
    <path d="m427.79,288.78c-2.96,0-5.65-2.03-6.36-5.04-8.93-37.83-44.01-64.25-85.31-64.25-10.45,0-20.59,1.7-30.13,5.04-3.41,1.19-7.14-.6-8.33-4.01-1.19-3.41.6-7.14,4.01-8.33,10.94-3.83,22.54-5.77,34.46-5.77,22.95,0,45.37,7.49,63.14,21.1,17.59,13.47,29.98,32.37,34.91,53.22.83,3.51-1.35,7.04-4.86,7.87-.51.12-1.01.18-1.51.18Z"></path>
    <path d="m129.22,288.78c-.5,0-1.01-.06-1.51-.18-3.51-.83-5.69-4.36-4.86-7.87,5.07-21.39,23.96-37.18,47.02-39.3,3.59-.34,6.78,2.32,7.11,5.91.33,3.6-2.32,6.78-5.91,7.11-17.46,1.6-31.72,13.38-35.49,29.29-.71,3.01-3.4,5.03-6.36,5.03Z"></path>
    <path d="m104.53,288.78c-.32,0-.65-.02-.98-.07-3.57-.54-6.03-3.87-5.49-7.44,2.62-17.43,11.83-33.41,25.92-45.02,14.13-11.63,32.23-18.04,50.97-18.04,5.16,0,10.2.49,15.41,1.49,3.55.69,5.87,4.11,5.18,7.66-.68,3.55-4.12,5.87-7.66,5.18-4.38-.85-8.61-1.26-12.93-1.26-32.01,0-59.5,22.32-63.96,51.92-.49,3.24-3.28,5.57-6.46,5.57Z"></path>
    <path d="m81.72,288.78c-.26,0-.51-.02-.77-.05-3.59-.42-6.15-3.67-5.73-7.26,5.66-48.17,48.54-84.49,99.74-84.49,14.29,0,28.09,2.79,41,8.29,3.32,1.42,4.87,5.26,3.46,8.58-1.42,3.32-5.25,4.87-8.58,3.46-11.28-4.81-23.36-7.24-35.88-7.24-44.57,0-81.86,31.36-86.75,72.94-.39,3.33-3.22,5.78-6.49,5.78Z"></path>
    <path d="m296.54,220.83c-1.43,0-2.87-.47-4.07-1.42-2.83-2.25-3.29-6.36-1.04-9.19l108.71-136.54c2-2.66,2.96-5.74,2.55-8.25-.2-1.23-.7-2.14-1.5-2.69-2.53-1.7-8.07-.11-11.68,4.6l-104.66,144.01c-2.12,2.92-6.22,3.57-9.13,1.45-2.92-2.12-3.57-6.21-1.45-9.14l104.7-144.07s.05-.07.08-.11c7.73-10.17,20.68-13.5,29.49-7.56,3.8,2.61,6.29,6.65,7.06,11.42.98,6.08-.87,12.75-5.09,18.3-.03.04-.06.08-.09.12l-108.76,136.6c-1.29,1.62-3.2,2.47-5.12,2.47Z"></path>
    <path d="m357.6,221.91c-1.76,0-3.52-.71-4.81-2.11-2.45-2.66-2.28-6.79.38-9.24l95.79-88.2c2.47-2.38,3.98-5.42,3.96-7.93-.01-1.15-.35-2.04-1-2.65-2.23-2.06-7.96-1.24-12.34,2.92l-102.77,103.13c-2.55,2.56-6.69,2.57-9.25.02-2.56-2.55-2.57-6.69-.02-9.25l102.82-103.19s.07-.07.11-.11c9.28-8.89,22.6-10.26,30.32-3.13,3.31,3.06,5.16,7.37,5.2,12.14.06,6.2-2.87,12.59-8.03,17.54-.03.03-.06.06-.09.09l-95.85,88.25c-1.26,1.16-2.85,1.73-4.43,1.73Z"></path>
  </g>
</symbol><symbol id="i051_main-7" xmlns="http://www.w3.org/2000/svg" viewBox="0 0 512 512">
  <g id="spaghetti">
    <path d="m429.39,380.95H79.2c-6.19,0-11.23-5.04-11.23-11.23v-28.46c0-3.61,2.93-6.54,6.54-6.54h359.56c3.61,0,6.54,2.93,6.54,6.54v28.46c0,6.19-5.04,11.23-11.23,11.23Zm-348.33-13.08h346.48v-20.07H81.06v20.07Z"></path>
    <path d="m458.03,347.8H53.97c-4.39,0-7.97-3.57-7.97-7.97v-17.32c0-4.39,3.57-7.97,7.97-7.97h404.07c4.39,0,7.97,3.57,7.97,7.97v17.32c0,4.39-3.57,7.97-7.97,7.97Zm-398.95-13.08h393.84v-7.1H59.08v7.1Z"></path>
    <path d="m287.69,327.62h-63.41c-3.61,0-6.54-2.93-6.54-6.54,0-20.1,17.16-36.45,38.24-36.45s38.24,16.35,38.24,36.45c0,3.61-2.93,6.54-6.54,6.54Zm-55.87-13.08h48.32c-3.05-9.71-12.73-16.83-24.16-16.83s-21.11,7.12-24.16,16.83Z"></path>
    <path d="m331.82,327.62h-19.85c-3.61,0-6.54-2.93-6.54-6.54,0-25.48-22.18-46.2-49.44-46.2-18.88,0-36.39,10.32-44.59,26.29-1.14,2.22-3.45,3.6-5.95,3.55-2.5-.05-4.75-1.52-5.8-3.79-2.67-5.76-6.36-10.88-10.98-15.24-2.39-2.25-2.74-5.93-.81-8.59,15.46-21.35,40.93-34.09,68.13-34.09s51.92,12.36,67.37,33.08c3.7,5.07,6.52,10,8.69,15.13,4.19,9.53,6.32,19.57,6.32,29.87,0,3.61-2.93,6.54-6.54,6.54Zm-13.69-13.08h6.8c-.67-6.2-2.3-12.27-4.88-18.1-.02-.03-.03-.07-.04-.1-1.77-4.2-4.12-8.29-7.18-12.49-12.94-17.36-34.21-27.76-56.84-27.76-21.13,0-41,9.04-54.18,24.42,1.45,1.66,2.81,3.38,4.07,5.18,11.69-14.78,30.32-23.89,50.1-23.89,32.14,0,58.7,23.12,62.14,52.74Z"></path>
    <path d="m404.44,327.62h-19.28c-3.61,0-6.54-2.93-6.54-6.54,0-9.54-8.41-17.31-18.74-17.31s-18.74,7.76-18.74,17.31c0,3.61-2.93,6.54-6.54,6.54h-2.78c-3.61,0-6.54-2.93-6.54-6.54,0-8.48-1.76-16.77-5.23-24.64-1.04-2.36-.6-5.11,1.13-7.02,9.69-10.75,23.8-16.91,38.7-16.91,28.17,0,51.1,21.79,51.1,48.57,0,3.61-2.93,6.54-6.54,6.54Zm-13.48-13.08h6.29c-3.3-16.46-18.8-28.95-37.37-28.95-9.82,0-19.14,3.52-26.16,9.77.74,1.99,1.39,3.99,1.95,6.02,5.84-6.53,14.52-10.68,24.2-10.68,15.19,0,27.94,10.22,31.08,23.84Z"></path>
    <path d="m385.16,327.62h-50.56c-3.61,0-6.54-2.93-6.54-6.54,0-16.75,14.27-30.38,31.82-30.38s31.82,13.63,31.82,30.38c0,3.61-2.93,6.54-6.54,6.54Zm-42.63-13.08h34.7c-2.8-6.31-9.52-10.77-17.35-10.77s-14.55,4.46-17.35,10.77Z"></path>
    <path d="m420.29,327.62h-15.85c-3.61,0-6.54-2.93-6.54-6.54,0-19.57-17.05-35.49-38.02-35.49-11.21,0-21.77,4.59-28.99,12.59-1.5,1.66-3.74,2.44-5.95,2.07-2.21-.37-4.07-1.85-4.94-3.91-1.77-4.2-4.12-8.29-7.18-12.49-2.02-2.77-1.55-6.64,1.07-8.85l4.22,5-4.19-5.02c1.39-1.18,2.83-2.39,4.4-3.57.71-.54,1.51-1.14,2.38-1.72,4.74-3.34,9.95-6.02,15.48-7.94,1.03-.41,2.08-.73,3.02-1.02l.52-.16c4.15-1.26,8.55-2.15,13.14-2.68.25-.03.5-.04.75-.04h.14c.25-.04.49-.06.74-.06.35-.04.66-.06.98-.07,1.54-.08,2.94-.14,4.42-.14,3.49,0,7.08.27,10.68.81.51.08,1.11.18,1.78.35,31.59,5.62,54.49,31.79,54.49,62.36,0,3.61-2.93,6.54-6.54,6.54Zm-9.77-13.08h2.78c-2.98-21.41-20.37-38.99-43.53-42.99-.28-.05-.57-.12-.84-.2-.06,0-.2-.03-.34-.05-2.92-.44-5.86-.66-8.7-.66-1.32,0-2.74.07-3.89.13-.05,0-.09,0-.14,0-.2.02-.38.04-.56.05-.5.06-.93.08-1.3.09-3.69.45-7.2,1.17-10.44,2.15l-.49.15c-.78.24-1.58.49-2.17.73-.1.04-.21.08-.31.12-4.45,1.54-8.63,3.68-12.42,6.36-.06.04-.11.08-.17.12-.35.23-.72.5-1.11.79.38.61.75,1.22,1.1,1.83,8.97-6.84,20.18-10.64,31.89-10.64,25.84,0,47.27,18.33,50.64,42.03Zm-54.84-43.77h0,0Zm-2.21-12.9s0,0,0,0c0,0,0,0,0,0Zm1.2-.11h0,0Z"></path>
    <path d="m175.58,327.62h-50.52c-3.61,0-6.54-2.93-6.54-6.54,0-16.74,14.26-30.37,31.8-30.37s31.8,13.62,31.8,30.37c0,3.61-2.93,6.54-6.54,6.54Zm-42.59-13.08h34.66c-2.8-6.3-9.51-10.75-17.33-10.75s-14.53,4.45-17.33,10.75Z"></path>
    <path d="m194.87,327.63h-89.09c-3.61,0-6.54-2.93-6.54-6.54,0-26.78,22.92-48.56,51.08-48.56s51.08,21.78,51.08,48.56c0,3.61-2.93,6.54-6.54,6.54Zm-81.9-13.08h74.71c-3.3-16.45-18.79-28.94-37.36-28.94s-34.06,12.49-37.36,28.94Z"></path>
    <path d="m311.97,327.62h-24.28c-3.61,0-6.54-2.93-6.54-6.54,0-12.88-11.29-23.37-25.16-23.37s-25.16,10.48-25.16,23.37c0,3.61-2.93,6.54-6.54,6.54h-13.57c-3.61,0-6.54-2.93-6.54-6.54,0-6.95-1.52-13.73-4.52-20.13-.86-1.83-.82-3.96.1-5.76,10.42-20.28,32.49-33.39,56.23-33.39,34.47,0,62.52,26.59,62.52,59.28,0,3.61-2.93,6.54-6.54,6.54Zm-18.35-13.08h11.32c-3.41-22.39-24.06-39.66-48.95-39.66-17.82,0-34.42,9.19-43.13,23.65,2.09,5.18,3.44,10.53,4.04,16.01h1.46c3.24-16.99,18.88-29.91,37.63-29.91s34.38,12.92,37.63,29.91Z"></path>
    <path d="m210.71,327.62h-120.82c-3.61,0-6.54-2.93-6.54-6.54,0-35.03,30.03-63.52,66.95-63.52,17.87,0,34.69,6.62,47.35,18.64,5.82,5.49,10.48,11.96,13.85,19.24,3.81,8.13,5.75,16.76,5.75,25.65,0,3.61-2.93,6.54-6.54,6.54Zm-113.83-13.08h106.83c-.66-4.66-2.02-9.21-4.07-13.59-2.68-5.78-6.38-10.91-10.99-15.26-10.23-9.72-23.85-15.06-38.36-15.06-27.34,0-49.98,19.17-53.42,43.91Z"></path>
    <path d="m370.88,271.65c-.66,0-1.32-.1-1.96-.3-.06,0-.2-.03-.34-.05-2.92-.44-5.86-.66-8.7-.66-1.32,0-2.74.07-3.89.13-.05,0-.09,0-.14,0-.43.04-.79.07-1.19.07-3.61,0-6.54-2.93-6.54-6.54v-118.7c0-8.03,6.59-14.56,14.68-14.56s14.61,6.53,14.61,14.56v119.5c0,2.08-.99,4.04-2.67,5.27-1.14.83-2.5,1.27-3.87,1.27Zm-15.2-.88h0,0Zm5.53-13.2c1.04.02,2.08.06,3.13.13v-112.1c0-.84-.66-1.48-1.53-1.48s-1.6.65-1.6,1.48v111.97Z"></path>
    <path d="m338.46,274.41c-1.29,0-2.56-.38-3.66-1.12-1.8-1.22-2.88-3.25-2.88-5.42v-122.26c0-8.03,6.59-14.56,14.68-14.56s14.61,6.53,14.61,14.56v118.7c0,3.15-2.24,5.84-5.33,6.43-.74.14-1.38.17-1.88.18-3.69.45-7.2,1.17-10.44,2.15l-.49.15c-.78.24-1.58.49-2.17.73-.79.32-1.62.48-2.45.48Zm8.14-130.28c-.9,0-1.6.65-1.6,1.48v113.57c1.03-.23,2.07-.43,3.13-.62v-112.95c0-.84-.66-1.48-1.53-1.48Z"></path>
    <path d="m322.25,283.17c-.99,0-1.99-.23-2.91-.69-2.22-1.11-3.63-3.37-3.63-5.85v-131.02c0-8.03,6.59-14.56,14.68-14.56s14.61,6.53,14.61,14.56v122.26c0,2.79-1.77,5.27-4.4,6.18-4.45,1.54-8.63,3.68-12.42,6.36-.06.04-.11.08-.17.12-.56.37-1.19.85-1.8,1.31-1.16.88-2.55,1.32-3.94,1.32Zm8.14-139.04c-.9,0-1.6.65-1.6,1.48v119.24c1.03-.51,2.07-1,3.13-1.45v-117.79c0-.81-.69-1.48-1.53-1.48Z"></path>
    <path d="m322.25,186.03h-31.75c-5.52,0-10.72-2.04-14.66-5.76l-2.95-2.78c-1.46-1.38-3.52-2.17-5.63-2.17H103.39c-9.59,0-17.39-7.53-17.39-16.78s7.8-16.78,17.39-16.78h163.6c2.21,0,4.37-.82,5.91-2.24l3-2.76c3.99-3.68,9.24-5.7,14.78-5.7h39.71c3.61,0,6.54,2.93,6.54,6.54s-2.93,6.54-6.54,6.54c-.9,0-1.6.65-1.6,1.48v33.88c0,3.61-2.93,6.54-6.54,6.54Zm-218.86-31.19c-2.38,0-4.31,1.66-4.31,3.7s1.94,3.7,4.31,3.7h163.88c5.5,0,10.68,2.04,14.61,5.74l2.95,2.78c1.48,1.39,3.55,2.19,5.68,2.19h25.21v-27.34c0-.5.03-.99.07-1.48h-25.11c-2.21,0-4.37.82-5.92,2.24l-3,2.76c-3.99,3.68-9.24,5.7-14.78,5.7H103.39Z"></path>
    <path d="m322.25,172.55h-19.47c-3.61,0-6.54-2.93-6.54-6.54s2.93-6.54,6.54-6.54h19.47c3.61,0,6.54,2.93,6.54,6.54s-2.93,6.54-6.54,6.54Z"></path>
    <path d="m322.25,157.6h-19.47c-3.61,0-6.54-2.93-6.54-6.54s2.93-6.54,6.54-6.54h19.47c3.61,0,6.54,2.93,6.54,6.54s-2.93,6.54-6.54,6.54Z"></path>
  </g>
</symbol><symbol id="i051_main-8" xmlns="http://www.w3.org/2000/svg" viewBox="0 0 512 512">
  <g id="rolls_1">
    <path d="m451.36,415.87H59.65c-7.53,0-13.65-5.9-13.65-13.16v-20c0-7.26,6.12-13.16,13.65-13.16h391.71c7.53,0,13.65,5.91,13.65,13.16v20c0,7.26-6.12,13.16-13.65,13.16Zm-392.28-13.27c.07.07.26.19.57.19h391.71c.31,0,.5-.12.57-.19v-19.79c-.07-.07-.26-.19-.57-.19H59.65c-.31,0-.5.12-.57.19v19.79Zm392.88-19.76h.01-.01Z"></path>
    <path d="m142.77,454.46h-39.48c-4.14,0-7.51-3.37-7.51-7.51v-37.62c0-3.61,2.93-6.54,6.54-6.54h41.42c3.61,0,6.54,2.93,6.54,6.54v37.62c0,4.14-3.37,7.51-7.51,7.51Zm-33.91-13.08h28.34v-25.51h-28.34v25.51Z"></path>
    <path d="m407.73,454.46h-39.48c-4.14,0-7.51-3.37-7.51-7.51v-37.62c0-3.61,2.93-6.54,6.54-6.54h41.42c3.61,0,6.54,2.93,6.54,6.54v37.62c0,4.14-3.37,7.51-7.51,7.51Zm-33.91-13.08h28.34v-25.51h-28.34v25.51Z"></path>
    <path d="m163.67,382.62h-85.93c-5.74,0-10.42-4.67-10.42-10.42v-74.73c0-5.74,4.67-10.42,10.42-10.42h85.93c5.74,0,10.42,4.67,10.42,10.42v74.73c0,5.74-4.67,10.42-10.42,10.42Zm-83.26-13.08h80.6v-69.4h-80.6v69.4Z"></path>
    <path d="m257.35,382.62h-85.93c-5.74,0-10.42-4.67-10.42-10.42v-74.73c0-5.74,4.67-10.42,10.42-10.42h85.93c5.74,0,10.42,4.67,10.42,10.42v74.73c0,5.74-4.67,10.42-10.42,10.42Zm-83.26-13.08h80.6v-69.4h-80.6v69.4Z"></path>
    <path d="m111.21,357.91c-2.93,0-5.9-.35-8.84-1.08-2.28-.56-4.09-2.3-4.73-4.57-3.18-11.23.22-23.21,8.87-31.28,8.58-7.99,20.75-11.03,32.54-8.12,2.28.56,4.09,2.3,4.73,4.57,3.18,11.23-.22,23.21-8.87,31.28-6.44,6-14.9,9.2-23.7,9.2Zm-1.66-13.15c6.1.4,12.14-1.61,16.44-5.62,4.11-3.83,6.17-8.94,5.87-14.2-6.1-.4-12.14,1.61-16.44,5.62-4.11,3.83-6.17,8.94-5.87,14.2Z"></path>
    <path d="m223.89,357.91c-8.81,0-17.27-3.21-23.7-9.2-8.66-8.07-12.06-20.05-8.87-31.28.64-2.26,2.45-4,4.73-4.57,11.8-2.9,23.97.13,32.54,8.12,8.66,8.07,12.06,20.05,8.87,31.28-.64,2.26-2.45,4-4.73,4.57-2.95.72-5.92,1.08-8.84,1.08Zm-20.66-32.98c-.3,5.27,1.77,10.38,5.87,14.2,4.3,4.01,10.34,6.02,16.44,5.62.3-5.27-1.77-10.38-5.87-14.2-4.3-4.01-10.34-6.02-16.44-5.62Z"></path>
    <path d="m384.89,288.69c-9.15,0-18.3-3.24-25.27-9.73l-20.98-19.55c-6.9-6.43-10.7-15.01-10.7-24.17s3.8-17.74,10.7-24.17l24.62-22.93c13.93-12.98,36.6-12.98,50.54,0l20.98,19.55c6.9,6.43,10.7,15.01,10.7,24.17s-3.8,17.74-10.7,24.17l-24.62,22.93c-6.97,6.49-16.12,9.73-25.27,9.73Zm3.64-97.29c-5.92,0-11.84,2.1-16.35,6.3l-24.62,22.93c-4.22,3.93-6.54,9.11-6.54,14.6s2.32,10.67,6.54,14.6l20.98,19.55c9.02,8.4,23.69,8.4,32.71,0l24.62-22.93,4.46,4.78-4.46-4.78c4.22-3.93,6.54-9.11,6.54-14.6s-2.32-10.67-6.54-14.6l-20.98-19.55c-4.51-4.2-10.43-6.3-16.35-6.3Z"></path>
    <path d="m386.71,252.92c-12.11,0-23.06-5.95-29.28-15.91-1.32-2.12-1.32-4.81,0-6.93,6.22-9.96,17.17-15.91,29.28-15.91s23.06,5.95,29.28,15.91c1.32,2.12,1.32,4.81,0,6.93-6.22,9.96-17.17,15.91-29.28,15.91Zm-15.43-19.38c3.94,3.96,9.53,6.3,15.43,6.3s11.49-2.34,15.43-6.3c-3.94-3.96-9.53-6.3-15.43-6.3s-11.49,2.34-15.43,6.3Z"></path>
    <path d="m418.32,382.62h-63.21c-3.61,0-6.54-2.93-6.54-6.54v-15.29c0-3.61,2.93-6.54,6.54-6.54h63.21c3.61,0,6.54,2.93,6.54,6.54v15.29c0,3.61-2.93,6.54-6.54,6.54Zm-56.67-13.08h50.13v-2.21h-50.13v2.21Z"></path>
    <path d="m418.32,367.33h-63.21c-.09,0-.17,0-.26,0-.48-.02-11.92-.54-23.4-6.69-10.96-5.87-24.02-17.98-24.02-42.3,0-3.61,2.93-6.54,6.54-6.54h145.5c3.61,0,6.54,2.93,6.54,6.54,0,24.32-13.06,36.43-24.02,42.3-11.48,6.15-22.92,6.67-23.4,6.69-.09,0-.17,0-.26,0Zm-63.03-13.08h62.86c.96-.06,9.64-.74,18.02-5.34,9.33-5.13,14.8-13.2,16.32-24.04h-131.55c1.52,10.84,6.99,18.91,16.32,24.04,8.35,4.59,16.99,5.27,18.02,5.34Z"></path>
    <path d="m429.17,196.12c-.84,0-1.69-.06-2.54-.18l-162.9-22.46-20.2-2.78c-1.32-.18-2.55-.76-3.53-1.66l-28.93-26.57c-2.13-1.96-2.72-5.09-1.45-7.69,1.27-2.6,4.11-4.05,6.96-3.58l48.35,8.1c.12.01.25.03.36.05l56.32,9.47,110.35,18.48c7.74,1.33,13.22,7.14,13.35,14.14,0,.04,0,.08,0,.12,0,.91-.11,1.74-.22,2.45-.02.13-.04.26-.07.38-1.48,6.91-8.19,11.71-15.84,11.71Zm-181.83-38.09l181.08,24.96c2.12.29,3.56-.7,3.78-1.24,0-.03,0-.06.01-.09-.1-.32-.85-1.16-2.45-1.44l-110.33-18.48-56.03-9.43c-.12-.01-.24-.03-.35-.05l-26.89-4.51,11.19,10.28Z"></path>
    <path d="m205.56,166.72c-.3,0-.61-.02-.91-.06l-9.15-1.28-105.08-14.5c-10.79-1.48-18.79-9.46-19.01-18.98,0-.05,0-.1,0-.15,0-1.28.18-2.37.34-3.34l.03-.18c.02-.1.03-.19.05-.29,2.22-10.52,13.84-17.41,25.91-15.37l75.97,12.75c1.18.2,2.28.72,3.19,1.5l32.94,28.41c2.2,1.89,2.88,5.01,1.69,7.65-1.07,2.36-3.42,3.84-5.95,3.84Zm-121.08-35.03c.14,2.97,3.43,5.64,7.71,6.23l92.3,12.74-14.76-12.73-74.17-12.45c-5.55-.94-10.16,1.9-10.91,5.06h0c-.07.42-.15.92-.16,1.16Z"></path>
    <path d="m376.28,310.41c-3.98,0-8.08-1.42-11.4-4.25l-120.34-103.78c-.21-.14-.41-.29-.59-.45l-74.56-64.3-53.05-45.8c-8.21-7.06-10.07-18.06-4.42-26.15.72-1.04,1.63-2.06,2.69-2.99,7.98-7.3,21.52-6.78,30.23,1.18l120.36,110.57,40.8,37.42,79.82,73.34c5.65,5.25,6.79,13.29,2.73,19.13-.06.08-.11.16-.18.24-.52.68-1.15,1.35-1.81,1.95-2.78,2.6-6.46,3.89-10.26,3.89Zm6.88-9.82h0,0Zm-131.19-109.02c.21.14.41.29.6.45l120.83,104.2c1.57,1.34,3.58,1.33,4.22.72.06-.06.13-.12.2-.18.01-.01.02-.02.04-.03.14-.42-.14-1.22-.92-1.95l-79.79-73.31-40.8-37.42-40.74-37.42-79.61-73.13c-3.7-3.38-9.59-3.92-12.59-1.15-.04.04-.08.07-.12.11-.38.34-.58.6-.63.67-1.75,2.5-.81,6.18,2.22,8.78l53.06,45.8,74.03,63.85Z"></path>
  </g>
</symbol><symbol id="i051_main-9" xmlns="http://www.w3.org/2000/svg" viewBox="0 0 512 512">
  <g id="rolls_2">
    <path d="m162.24,151.42h-93.74c-5.74,0-10.42-4.67-10.42-10.42V58.27c0-5.74,4.67-10.42,10.42-10.42h93.74c5.74,0,10.42,4.67,10.42,10.42v82.73c0,5.74-4.67,10.42-10.42,10.42Zm-91.07-13.08h88.41V60.94h-88.41v77.4Z"></path>
    <path d="m275.07,151.42h-93.74c-5.74,0-10.42-4.67-10.42-10.42V58.27c0-5.74,4.67-10.42,10.42-10.42h93.74c5.74,0,10.42,4.67,10.42,10.42v82.73c0,5.74-4.67,10.42-10.42,10.42Zm-91.07-13.08h88.41V60.94h-88.41v77.4Z"></path>
    <path d="m162.24,255.9h-93.74c-5.74,0-10.42-4.67-10.42-10.42v-82.73c0-5.74,4.67-10.42,10.42-10.42h93.74c5.74,0,10.42,4.67,10.42,10.42v82.73c0,5.74-4.67,10.42-10.42,10.42Zm-91.07-13.08h88.41v-77.4h-88.41v77.4Z"></path>
    <path d="m275.07,255.9h-93.74c-5.74,0-10.42-4.67-10.42-10.42v-82.73c0-5.74,4.67-10.42,10.42-10.42h93.74c5.74,0,10.42,4.67,10.42,10.42v82.73c0,5.74-4.67,10.42-10.42,10.42Zm-91.07-13.08h88.41v-77.4h-88.41v77.4Z"></path>
    <path d="m162.24,360.39h-93.74c-5.74,0-10.42-4.67-10.42-10.42v-82.73c0-5.74,4.67-10.42,10.42-10.42h93.74c5.74,0,10.42,4.67,10.42,10.42v82.73c0,5.74-4.67,10.42-10.42,10.42Zm-91.07-13.08h88.41v-77.4h-88.41v77.4Z"></path>
    <path d="m275.07,360.39h-93.74c-5.74,0-10.42-4.67-10.42-10.42v-82.73c0-5.74,4.67-10.42,10.42-10.42h93.74c5.74,0,10.42,4.67,10.42,10.42v82.73c0,5.74-4.67,10.42-10.42,10.42Zm-91.07-13.08h88.41v-77.4h-88.41v77.4Z"></path>
    <path d="m162.24,464.88h-93.74c-5.74,0-10.42-4.67-10.42-10.42v-82.73c0-5.74,4.67-10.42,10.42-10.42h93.74c5.74,0,10.42,4.67,10.42,10.42v82.73c0,5.74-4.67,10.42-10.42,10.42Zm-91.07-13.08h88.41v-77.4h-88.41v77.4Z"></path>
    <path d="m275.07,464.88h-93.74c-5.74,0-10.42-4.67-10.42-10.42v-82.73c0-5.74,4.67-10.42,10.42-10.42h93.74c5.74,0,10.42,4.67,10.42,10.42v82.73c0,5.74-4.67,10.42-10.42,10.42Zm-91.07-13.08h88.41v-77.4h-88.41v77.4Z"></path>
    <path d="m105.08,124.3c-3.14,0-6.32-.39-9.47-1.17-2.28-.57-4.08-2.32-4.72-4.58-3.38-12.06.24-24.95,9.44-33.63,9.17-8.65,22.18-11.93,34.8-8.78,2.28.57,4.08,2.32,4.72,4.58,3.38,12.06-.24,24.95-9.44,33.63-6.88,6.49-15.91,9.95-25.33,9.95Zm-2.3-13.2c6.9.58,13.79-1.67,18.66-6.27,4.74-4.47,7.05-10.49,6.53-16.67-6.91-.58-13.78,1.67-18.66,6.27-4.74,4.47-7.05,10.49-6.53,16.67Z"></path>
    <path d="m238.49,124.3c-9.42,0-18.46-3.47-25.33-9.95-9.2-8.68-12.82-21.56-9.44-33.63.63-2.26,2.43-4.01,4.72-4.58,12.63-3.15,25.64.14,34.8,8.78,9.2,8.68,12.82,21.56,9.44,33.63-.63,2.26-2.43,4.01-4.72,4.58-3.16.79-6.34,1.17-9.47,1.17Zm-22.88-36.14c-.52,6.18,1.79,12.2,6.53,16.67,4.87,4.6,11.76,6.85,18.66,6.27.52-6.17-1.79-12.2-6.53-16.67-4.88-4.6-11.76-6.86-18.66-6.27Z"></path>
    <path d="m105.08,228.79c-3.14,0-6.32-.39-9.47-1.17-2.28-.57-4.08-2.32-4.72-4.58-3.38-12.06.24-24.95,9.44-33.63,9.17-8.65,22.18-11.93,34.8-8.78,2.28.57,4.08,2.32,4.72,4.58,3.38,12.06-.24,24.95-9.44,33.63-6.88,6.49-15.91,9.95-25.33,9.95Zm-2.3-13.2c6.9.58,13.79-1.67,18.66-6.27,4.74-4.47,7.05-10.49,6.53-16.67-6.91-.58-13.78,1.67-18.66,6.27-4.74,4.47-7.05,10.49-6.53,16.67Z"></path>
    <path d="m238.49,228.79c-9.42,0-18.46-3.47-25.33-9.95-9.2-8.68-12.82-21.56-9.44-33.63.63-2.26,2.43-4.01,4.72-4.58,12.63-3.15,25.64.14,34.8,8.78,9.2,8.68,12.82,21.56,9.44,33.63-.63,2.26-2.43,4.01-4.72,4.58-3.16.79-6.34,1.17-9.47,1.17Zm-22.88-36.14c-.52,6.18,1.79,12.2,6.53,16.67,4.87,4.6,11.76,6.85,18.66,6.27.52-6.17-1.79-12.2-6.53-16.67-4.88-4.6-11.76-6.85-18.66-6.27Z"></path>
    <path d="m105.08,333.28c-3.14,0-6.32-.39-9.47-1.17-2.28-.57-4.08-2.32-4.72-4.58-3.38-12.06.24-24.95,9.44-33.63,9.17-8.65,22.18-11.93,34.8-8.78,2.28.57,4.08,2.32,4.72,4.58,3.38,12.06-.24,24.95-9.44,33.63-6.88,6.49-15.91,9.95-25.33,9.95Zm-2.3-13.2c6.9.58,13.79-1.67,18.66-6.27,4.74-4.47,7.05-10.49,6.53-16.67-6.91-.59-13.78,1.67-18.66,6.27-4.74,4.47-7.05,10.49-6.53,16.67Z"></path>
    <path d="m238.49,333.28c-9.42,0-18.46-3.47-25.33-9.95-9.2-8.68-12.82-21.56-9.44-33.63.63-2.26,2.43-4.01,4.72-4.58,12.63-3.15,25.64.14,34.8,8.78,9.2,8.68,12.82,21.56,9.44,33.63-.63,2.26-2.43,4.01-4.72,4.58-3.16.79-6.34,1.17-9.47,1.17Zm-22.88-36.14c-.52,6.18,1.79,12.2,6.53,16.67,4.87,4.6,11.76,6.85,18.66,6.27.52-6.17-1.79-12.2-6.53-16.67-4.88-4.6-11.76-6.86-18.66-6.27Z"></path>
    <path d="m105.08,437.77c-3.14,0-6.32-.39-9.47-1.17-2.28-.57-4.08-2.32-4.72-4.58-3.38-12.07.24-24.95,9.44-33.63,9.17-8.65,22.18-11.93,34.8-8.78,2.28.57,4.08,2.32,4.72,4.58,3.38,12.06-.24,24.95-9.44,33.63-6.88,6.49-15.92,9.95-25.33,9.95Zm-2.3-13.2c6.9.58,13.79-1.67,18.66-6.27,4.74-4.47,7.05-10.49,6.53-16.67-6.91-.58-13.78,1.67-18.66,6.27-4.74,4.47-7.04,10.49-6.53,16.67Z"></path>
    <path d="m238.49,437.77c-9.42,0-18.46-3.47-25.33-9.95-9.2-8.68-12.82-21.56-9.44-33.63.63-2.26,2.43-4.01,4.72-4.58,12.63-3.15,25.64.14,34.8,8.78,9.2,8.68,12.82,21.56,9.44,33.63-.63,2.26-2.43,4.01-4.72,4.58-3.16.79-6.33,1.17-9.47,1.17Zm-22.88-36.14c-.52,6.18,1.79,12.2,6.53,16.67,4.87,4.6,11.76,6.85,18.66,6.27.52-6.17-1.79-12.2-6.53-16.67-4.88-4.6-11.76-6.85-18.66-6.27Z"></path>
    <path d="m348.09,466c-1.12,0-2.27-.11-3.34-.33-4.6-.88-8.56-3.47-11.16-7.3-2.59-3.82-3.54-8.45-2.68-13.04l36.05-184.11c.02-.13.04-.26.06-.38l38.1-194.72c2.27-11.65,12.58-20.11,24.5-20.11,1.39,0,2.8.14,4.55.45,6.67,1.28,12.28,5.04,15.89,10.62,3.57,5.52,4.71,12.08,3.2,18.49l-43.72,187.73c-.02.14-.05.28-.08.42l-43.88,188.5c-1.99,8.15-9.17,13.8-17.49,13.8Zm31.83-202.97c-.02.13-.04.26-.06.38l-36.1,184.37c-.21,1.13.02,2.3.67,3.25.45.66,1.3,1.51,2.79,1.79.05,0,.09.02.14.03.21.04.5.07.74.07,2.23,0,4.23-1.58,4.76-3.75l43.78-188.09c.02-.14.05-.28.08-.42l43.8-188.08s0-.01,0-.02c.69-2.91.17-5.89-1.44-8.39-1.66-2.56-4.24-4.29-7.28-4.87-.88-.16-1.58-.23-2.18-.23-5.68,0-10.59,4.01-11.67,9.53l-38.04,194.41Zm23.17-.8h0,0Z"></path>
    <path d="m428.44,466c-8.3,0-15.66-5.81-17.49-13.82l-29.05-124.78c-.23-.98-.23-1.99,0-2.97l14.82-63.69c.69-2.97,3.33-5.06,6.37-5.06.04,0,.08,0,.12,0,3.08.05,5.71,2.26,6.3,5.28l36.1,184.3c1.77,9.48-4.43,18.59-13.82,20.4-1.07.22-2.23.33-3.35.33Zm-33.46-140.08l28.71,123.32c.48,2.11,2.52,3.68,4.75,3.68.24,0,.53-.03.74-.07.04,0,.08-.02.12-.02,2.39-.45,3.91-2.69,3.46-5.1l-30.22-154.29-7.56,32.48Z"></path>
    <path d="m373.44,268.62c-3.03,0-5.68-2.09-6.37-5.06l-43.8-188.01c-1.51-6.39-.38-12.96,3.2-18.49,3.61-5.58,9.22-9.35,15.8-10.61,1.85-.33,3.25-.47,4.64-.47,11.93,0,22.23,8.46,24.5,20.11l23.27,118.93c.16.83.16,1.68,0,2.51l-14.82,75.79c-.59,3.03-3.22,5.23-6.3,5.28-.04,0-.08,0-.12,0Zm-26.53-209.54c-.6,0-1.3.08-2.27.25-2.95.57-5.54,2.3-7.19,4.85-1.62,2.5-2.13,5.48-1.44,8.39l36.88,158.3,8.72-44.58-23.03-117.67c-1.08-5.53-5.98-9.54-11.67-9.54Z"></path>
  </g>
</symbol>
</svg>
