<svg xmlns="http://www.w3.org/2000/svg" style="display: none;">

<symbol id="i063_food-1" xmlns="http://www.w3.org/2000/svg" viewBox="0 0 512 512">
  <path d="m112.48,251.68c5.73,0,10.36-4.63,10.36-10.36s-4.63-10.37-10.36-10.37-10.37,4.64-10.37,10.37,4.65,10.36,10.37,10.36Z"></path>
  <path d="m244.34,181.18c5.73,0,10.36-4.64,10.36-10.37s-4.63-10.36-10.36-10.36-10.37,4.63-10.37,10.36,4.65,10.37,10.37,10.37Z"></path>
  <path d="m337.19,256.45c5.73,0,10.36-4.64,10.36-10.37s-4.63-10.36-10.36-10.36-10.36,4.63-10.36,10.36,4.63,10.37,10.36,10.37Z"></path>
  <path d="m357.93,199.25c5.73,0,10.36-4.63,10.36-10.36s-4.63-10.37-10.36-10.37-10.37,4.64-10.37,10.37,4.65,10.36,10.37,10.36Z"></path>
  <path d="m239.13,246.08c5.73,0,10.36-4.63,10.36-10.36s-4.63-10.37-10.36-10.37-10.37,4.64-10.37,10.37,4.65,10.36,10.37,10.36Z"></path>
  <path d="m173.18,204.47c5.73,0,10.36-4.64,10.36-10.37s-4.63-10.36-10.36-10.36-10.36,4.63-10.36,10.36,4.63,10.37,10.36,10.37Z"></path>
  <path d="m442.4,273.98c5.1-10.52,7.74-21.43,7.74-32.62,0-63.84-87.1-115.78-194.14-115.78S61.84,177.52,61.84,241.36c0,11.19,2.65,22.1,7.75,32.62-13.56,3.72-23.6,16.03-23.6,30.74,0,17.65,14.36,32.02,32.01,32.02h6.55v10.09c0,24.78,14.8,39.58,39.59,39.58h263.74c24.78,0,39.58-14.8,39.58-39.58v-10.09h6.53c17.64,0,32.01-14.36,32.01-32.02,0-14.72-10.04-27.02-23.6-30.74Zm-186.4-131.93c97.97,0,177.67,44.55,177.67,99.31,0,10.71-3.1,21.22-9.23,31.33l-336.87.03c-6.14-10.12-9.25-20.65-9.25-31.36,0-54.76,79.71-99.31,177.69-99.31Zm-31.12,147.14l-32.49,33.49s0,0-.02,0l-17.56,18.12-44.39-51.61h94.47Zm-132.09,31.08h-14.78c-8.57,0-15.54-6.97-15.54-15.55s6.97-15.54,15.54-15.54h30.69l26.72,31.08h-42.62Zm318.2,26.56c0,23.11-17.4,23.11-23.11,23.11H124.14c-23.12,0-23.12-17.39-23.12-23.11v-10.09h48.56l18.61,21.63c1.5,1.76,3.68,2.8,5.99,2.86.1,0,.18,0,.26,0,2.22,0,4.36-.9,5.9-2.5l21.34-22h209.31v10.09Zm23-26.56h-216.32l30.14-31.08h186.18c8.57,0,15.54,6.97,15.54,15.54s-6.97,15.55-15.54,15.55Z"></path>
</symbol><symbol id="i063_food-10" xmlns="http://www.w3.org/2000/svg" viewBox="0 0 512 512">
  <path d="m154.01,216.68c5.48,0,9.9-4.43,9.9-9.91s-4.43-9.91-9.9-9.91-9.92,4.44-9.92,9.91,4.44,9.91,9.92,9.91Z"></path>
  <path d="m254.53,216.68c5.48,0,9.91-4.43,9.91-9.91s-4.43-9.91-9.91-9.91-9.92,4.44-9.92,9.91,4.44,9.91,9.92,9.91Z"></path>
  <path d="m354.96,216.68c5.48,0,9.91-4.43,9.91-9.91s-4.43-9.91-9.91-9.91-9.92,4.44-9.92,9.91,4.44,9.91,9.92,9.91Z"></path>
  <path d="m304.17,156.95c5.48,0,9.91-4.43,9.91-9.91s-4.43-9.91-9.91-9.91-9.92,4.43-9.92,9.91,4.44,9.91,9.92,9.91Z"></path>
  <path d="m207.83,154.24c5.48,0,9.91-4.44,9.91-9.91s-4.43-9.91-9.91-9.91-9.92,4.44-9.92,9.91,4.44,9.91,9.92,9.91Z"></path>
  <path d="m413.4,233.57c-6.72-81.79-75.38-146.3-158.87-146.3S102.74,151.43,95.7,232.9c-1.71-.05-3.42.43-4.81,1.56-2.31,1.87-3.27,4.96-2.41,7.81l53.17,177.23c.93,3.1,3.79,5.23,7.03,5.23h59.13s.01,0,.02,0h.02s96.29,0,96.29,0h.02s.02,0,.02,0h59.13c3.24,0,6.1-2.12,7.03-5.23l53.17-177.23c.86-2.85-.1-5.94-2.41-7.81-2.2-1.78-5.18-2.07-7.71-.89ZM254.52,101.95c78.02,0,141.66,62.08,144.51,139.42l-32.47,17.82-51.47-33.08c-2.41-1.55-5.52-1.55-7.93,0l-51.17,32.89-51.17-32.89c-2.41-1.55-5.52-1.55-7.93,0l-51.47,33.08-35.34-19.4c3.66-76.6,66.94-137.85,144.43-137.85Zm103.34,308.11h-43.55l19.14-57.97c1.27-3.85-.82-8-4.67-9.27-3.86-1.27-8,.82-9.27,4.67l-20.66,62.57h-35.52v-60.27c0-4.05-3.29-7.34-7.34-7.34s-7.34,3.29-7.34,7.34v60.27h-35.53l-20.65-62.57c-1.27-3.85-5.41-5.94-9.27-4.67-3.85,1.27-5.94,5.42-4.67,9.27l19.14,57.97h-43.55l-46.45-154.84,34.51,18.94c2.36,1.29,5.23,1.2,7.5-.26l51.17-32.89,51.17,32.89c2.41,1.55,5.52,1.55,7.93,0l51.17-32.89,51.17,32.89c2.26,1.46,5.14,1.55,7.5.26l34.5-18.94-46.45,154.84Z"></path>
</symbol><symbol id="i063_food-11" xmlns="http://www.w3.org/2000/svg" viewBox="0 0 512 512">
  <path d="m309.58,68.25c-2.06-4.24-5.65-7.41-10.11-8.95-4.45-1.53-9.24-1.25-13.48.82l-9.66,4.7-4.34-8.91c-4.26-8.74-14.83-12.39-23.59-8.14l-177.2,86.33c-8.74,4.27-12.39,14.84-8.13,23.59l55.13,113.18-16.11,5.71c-2.93,1.03-4.94,3.75-5.07,6.86-.13,3.1,1.64,5.99,4.47,7.27l33.83,15.3,67.1,137.74c3.05,6.26,9.35,9.91,15.89,9.91,2.59,0,5.22-.56,7.7-1.77l9.67-4.71,4.34,8.92c3.06,6.27,9.36,9.91,15.89,9.91,2.59,0,5.22-.57,7.7-1.78l177.19-86.32c4.24-2.06,7.42-5.65,8.96-10.11,1.54-4.46,1.25-9.24-.82-13.48L309.58,68.25Zm-54.51-6.77c1.19-.59,2.63-.07,3.21,1.11l24.49,50.26-39.33,16.97-24.51-50.73,36.15-17.61Zm-78.12,162.28l-19.29-40.36,32.33-13.94,19.46,40.28-32.5,14.02Zm.36,36.1l-12.88-3.83c-1.54-.45-3.2-.41-4.71.13l-27.06,9.59-2.53-5.19,39.39-16.98,7.79,16.29Zm38.78-36.38l13.18,27.29-7.67-4.79c-2.68-1.67-6.12-1.53-8.63.38l-18.53,13.99-10.91-22.82,32.56-14.05Zm7.37-19.78l-19.46-40.28,32.06-13.82,19.47,40.27-32.06,13.83Zm38.7-.1l23.66,48.95-21.03-11.9c-1.76-1-3.84-1.26-5.81-.71-1.95.54-3.61,1.84-4.6,3.61l-6.27,11.19-18.02-37.3,32.06-13.84Zm14.02-6.05l39.54-17.05,29.04,59.61-25.58-6.11c-2.54-.62-5.2.12-7.07,1.93l-11.83,11.46-24.09-49.84Zm-6.64-13.73l-19.47-40.27,39.37-16.98,19.59,40.22-39.5,17.04Zm-64.33-98.06l24.21,50.09-32.06,13.82-23.5-48.64,31.34-15.27Zm-45.05,21.94l23.2,48.02-32.27,13.92-22.3-46.65,31.37-15.29Zm-83.39,43.3c-.58-1.19-.09-2.64,1.1-3.22l37.21-18.12,21.99,46.01-39.9,17.22-20.4-41.88Zm27.08,55.59l39.8-17.16,19.29,40.36-39.5,17.04-19.59-40.23Zm115.47,231.56c-1.18.58-2.63.08-3.21-1.1l-68.3-140.21-.09.04c-.75-1.54-1.93-2.9-3.62-3.65l-19.08-8.63,37.45-13.27,26.94,8.01s.03,0,.03,0c.7.2,1.42.31,2.14.31.24,0,.47-.14.71-.17.52-.04.99-.18,1.49-.33.36-.11.73-.08,1.08-.25.28-.13.46-.38.72-.54.18-.11.41-.12.59-.25l21.79-16.46,25.61,16.01h.02c.77.48,1.64.77,2.52.95.25.05.49.07.74.1.26.02.5.1.76.1s.53-.16.8-.19c.36-.04.73.04,1.08-.05.28-.07.49-.27.76-.36.22-.08.45-.05.67-.16.25-.12.4-.34.63-.48.43-.27.81-.55,1.18-.9.39-.36.72-.75,1.02-1.18.15-.21.38-.35.5-.58l9.67-17.27,25.08,14.2c2.95,1.66,6.64,1.19,9.06-1.15l21.61-20.93,33.7,8.06,44.23,90.8c.58,1.18.08,2.63-1.1,3.2l-177.19,86.32Zm216.01-75.35c-.15.43-.48,1.01-1.22,1.37l-177.2,86.33c-1.16.58-2.62.08-3.2-1.11l-4.34-8.92,153.83-74.94c8.74-4.27,12.39-14.84,8.13-23.58L283,78.53l9.67-4.71c.78-.37,1.48-.23,1.83-.11.35.13.99.44,1.37,1.21l139.35,286.06c.38.78.24,1.49.12,1.84Z"></path>
  <path d="m195.4,318.27c-1.84-3.79-6.41-5.35-10.19-3.52-3.78,1.85-5.36,6.41-3.51,10.19l33.19,68.14c1.32,2.71,4.03,4.29,6.86,4.29,1.12,0,2.26-.25,3.33-.77,3.78-1.85,5.36-6.41,3.51-10.19l-33.19-68.14Z"></path>
</symbol><symbol id="i063_food-12" xmlns="http://www.w3.org/2000/svg" viewBox="0 0 512 512">
  <path d="m123.43,255.4c-5.88,4.5-7,12.9-2.51,18.78,4.5,5.88,12.9,7,18.78,2.5,5.88-4.5,7.01-12.9,2.51-18.78-4.5-5.88-12.9-7.01-18.78-2.51Z"></path>
  <path d="m157.4,299.84c-5.88,4.49-7.01,12.9-2.51,18.78,4.5,5.88,12.9,7,18.78,2.5,5.88-4.5,7.01-12.89,2.51-18.78-4.5-5.88-12.9-7.01-18.78-2.51Z"></path>
  <path d="m169.63,220.08c-5.88,4.5-7.01,12.9-2.51,18.79,4.5,5.88,12.91,7,18.79,2.5,5.88-4.5,7-12.9,2.5-18.78-4.49-5.88-12.89-7.01-18.78-2.51Z"></path>
  <path d="m203.6,264.52c-5.88,4.49-7.01,12.9-2.51,18.78,4.5,5.88,12.9,7,18.78,2.5,5.88-4.5,7-12.9,2.51-18.78-4.49-5.88-12.9-7.01-18.78-2.51Z"></path>
  <path d="m215.82,184.76c-5.88,4.5-7.01,12.9-2.51,18.78,4.5,5.88,12.9,7,18.78,2.5,5.88-4.5,7.01-12.9,2.51-18.78-4.5-5.88-12.9-7.01-18.78-2.51Z"></path>
  <path d="m249.79,229.2c-5.88,4.49-7.01,12.9-2.51,18.78,4.5,5.88,12.9,7,18.78,2.5,5.88-4.5,7.01-12.89,2.51-18.78-4.5-5.88-12.9-7.01-18.78-2.51Z"></path>
  <path d="m271.94,309.72c-7.13,2-11.29,9.39-9.29,16.52,2,7.13,9.39,11.28,16.52,9.28,7.13-2,11.28-9.38,9.29-16.51-2-7.12-9.38-11.29-16.51-9.29Z"></path>
  <path d="m327.93,294.03c-7.12,2-11.29,9.39-9.29,16.52,2,7.13,9.39,11.28,16.52,9.28,7.13-2,11.28-9.38,9.28-16.51-2-7.13-9.38-11.29-16.51-9.29Z"></path>
  <path d="m385.36,233.78c-2-7.13-9.38-11.29-16.51-9.29-7.13,2-11.29,9.39-9.29,16.52,2,7.13,9.39,11.28,16.52,9.28,7.13-2,11.28-9.38,9.29-16.51Z"></path>
  <path d="m383.93,278.34c-7.13,2-11.29,9.39-9.29,16.52,2,7.13,9.39,11.28,16.52,9.28,7.13-2,11.28-9.38,9.29-16.51-2-7.13-9.38-11.29-16.51-9.29Z"></path>
  <path d="m450.07,292.35c-5.19-2.92-10.95-4.26-16.77-3.99l-20.25-72.29c12.48-6.81,19.1-21.57,15.11-35.83-4.64-16.58-21.91-26.28-38.48-21.64-14.26,3.99-23.43,17.33-22.77,31.53l-74.58,20.89-38.56-50.45c3.72-4.46,6.11-9.89,6.9-15.79,1.1-8.27-1.08-16.47-6.14-23.09-5.95-7.79-15-12.26-24.82-12.26-6.9,0-13.45,2.22-18.94,6.42-6.62,5.06-10.88,12.4-11.98,20.67-.79,5.9.1,11.76,2.51,17.05l-104.16,79.63c-10.69-8.9-27.48-9.47-38.89-.75-13.67,10.45-16.3,30.09-5.84,43.76,5.96,7.79,15.01,12.26,24.82,12.26,4.52,0,8.88-.95,12.9-2.79l45.59,59.65c-9.07,10.94-9.75,27.11-.76,38.88,5.95,7.79,15,12.26,24.82,12.26,6.9,0,13.45-2.22,18.95-6.42,11.76-8.99,15.35-24.77,9.46-37.71l40.46-30.93,6.31,22.54c-12.48,6.81-19.1,21.57-15.11,35.83,3.86,13.77,16.42,22.8,30.07,22.8,2.78,0,5.6-.38,8.41-1.16,14.26-3.99,23.43-17.32,22.77-31.52l126.26-35.37c2.77,5.11,6.93,9.34,12.12,12.26,7.27,4.09,15.7,5.09,23.72,2.85,8.03-2.25,14.7-7.49,18.79-14.76,4.09-7.27,5.1-15.69,2.85-23.72-2.25-8.03-7.49-14.7-14.76-18.79Zm-275.32,52.63c-3.07,2.35-3.66,6.74-1.31,9.82,2.79,3.65,3.99,8.17,3.39,12.73-.61,4.56-2.95,8.61-6.61,11.4-7.35,5.62-18.54,4.09-24.13-3.22-5.76-7.54-4.32-18.36,3.22-24.13,3.07-2.35,3.66-6.74,1.31-9.82l-53.14-69.52c-1.38-1.8-3.46-2.75-5.57-2.75-1.48,0-2.98.47-4.25,1.44-7.35,5.61-18.54,4.08-24.13-3.22-5.76-7.54-4.31-18.37,3.22-24.13,7.34-5.62,18.54-4.09,24.13,3.22,1.13,1.47,2.8,2.44,4.64,2.69,1.82.25,3.71-.25,5.18-1.38l114.05-87.18c3.07-2.35,3.66-6.74,1.31-9.82-5.77-7.54-4.32-18.36,3.22-24.13,7.35-5.62,18.54-4.09,24.13,3.22,2.79,3.65,4,8.17,3.39,12.73-.61,4.56-2.96,8.6-6.61,11.39-1.47,1.13-2.44,2.8-2.69,4.64-.25,1.84.25,3.7,1.38,5.18l53.15,69.52c2.34,3.06,6.74,3.66,9.82,1.31,7.34-5.62,18.54-4.09,24.13,3.22,5.76,7.54,4.32,18.37-3.22,24.13-3.03,2.32-6.63,3.54-10.43,3.54-5.42,0-10.41-2.46-13.69-6.76-1.13-1.47-2.8-2.44-4.64-2.69-1.84-.25-3.7.25-5.18,1.38l-114.04,87.18Zm264.67-8.84c-9.15,2.56-18.66-2.79-21.22-11.93-.5-1.79-1.69-3.31-3.31-4.22-1.62-.91-3.54-1.14-5.32-.64l-138.23,38.72c-3.73,1.04-5.9,4.91-4.85,8.63,1.24,4.43.68,9.07-1.57,13.08-2.25,4.01-5.93,6.9-10.36,8.14-9.15,2.55-18.66-2.79-21.22-11.93-1.24-4.43-.68-9.08,1.57-13.08,2.25-4.01,5.93-6.9,10.36-8.14,3.73-1.04,5.9-4.91,4.86-8.63l-9.5-33.9,51.74-39.55c5.54,4.61,12.52,7.17,19.94,7.17h0c6.9,0,13.45-2.22,18.94-6.42,13.67-10.45,16.29-30.08,5.84-43.76-4.59-6.01-11.04-10.02-18.26-11.54l57.84-16.21c3.73-1.04,5.9-4.91,4.85-8.63-2.56-9.14,2.79-18.66,11.93-21.22,9.13-2.56,18.66,2.79,21.22,11.93,1.24,4.43.68,9.08-1.57,13.08-2.25,4.01-5.93,6.9-10.36,8.14-3.73,1.04-5.9,4.91-4.85,8.63l23.61,84.27c.5,1.79,1.69,3.31,3.31,4.22,1.61.91,3.53,1.13,5.32.64,9.14-2.56,18.66,2.79,21.22,11.93,2.56,9.14-2.79,18.66-11.93,21.22Z"></path>
</symbol><symbol id="i063_food-13" xmlns="http://www.w3.org/2000/svg" viewBox="0 0 512 512">
  <path d="m268.78,167.44s-.07-.02-.1-.02h-.09s-.04.02-.07.02c-4.15-.12-8.32-.19-12.52-.19-9.71,0-19.27.33-28.68.93,0,0,0,0,0,0,0,0,0,0-.01,0-100.83,6.38-181.3,45.67-181.3,91.49,0,85.09,97.32,85.09,210,85.09s210,0,210-85.09c0-48.21-89.06-89.19-197.22-92.22Zm85.86,26.41c.21,7.67.94,21.26,3.53,34.28-10.59-9.49-22.36-23.25-25.88-39.26,7.74,1.46,15.18,3.14,22.36,4.99Zm-98.65-11.96c1.77,0,3.53.04,5.3.06.15,9.87.89,27.43,3.93,42.78-12.11-9.66-26.58-24.59-29.82-42.35,6.76-.33,13.63-.49,20.6-.49Zm-89.7,9.79c.51,9.55,1.75,24.79,4.77,38.45-8.74-7.49-18.29-18.73-22.25-33.97,5.63-1.61,11.46-3.11,17.48-4.49Zm89.7,138.44c-121.12,0-195.36-3.4-195.36-70.45,0-20.84,28.69-43.63,74.2-59.12,9.96,37.13,45.92,53.78,47.56,54.51.97.44,1.99.65,3.01.65,2.1,0,4.15-.91,5.58-2.58,2.11-2.48,2.33-6.06.54-8.78-7.19-10.89-9.96-39.77-10.71-55.67,12.63-2.35,25.96-4.15,39.86-5.3,5.99,39.24,52.91,64.99,55.03,66.13,1.1.59,2.29.88,3.48.88,2.01,0,3.98-.83,5.4-2.38,2.26-2.48,2.55-6.18.71-8.98-7.01-10.62-9.02-39.83-9.35-56.67,14.25.66,27.97,2.03,41.06,3.96,4.8,39.96,50.21,67.18,52.24,68.38,1.15.68,2.43,1.01,3.71,1.01,1.95,0,3.89-.79,5.31-2.28,2.34-2.47,2.68-6.23.8-9.07-6.45-9.77-8.87-31.75-9.6-46.3,49.95,15.47,81.88,39.63,81.88,61.62,0,67.05-74.24,70.45-195.36,70.45Z"></path>
</symbol><symbol id="i063_food-14" xmlns="http://www.w3.org/2000/svg" viewBox="0 0 512 512">
  <path d="m377.32,257.99h-2.95c9.27-17.98,11.83-35.23,7.39-51.4-6.65-24.22-26.89-38.54-36.15-44,.35-64.28-58.54-112.74-61.09-114.8-2.65-2.13-6.37-2.39-9.29-.62-2.91,1.78-4.41,5.19-3.72,8.53,11.21,54.84-26.61,68.95-70.38,85.28-14.25,5.32-28.99,10.81-41.89,17.93-39.82,21.99-34.04,69.25-22.7,99.08h-1.87c-10.25,0-18.6,8.34-18.6,18.6,0,.49.04.99.13,1.47l31.42,170.19c.44,9.87,8.6,17.76,18.58,17.76h179.57c9.98,0,18.14-7.89,18.58-17.76l31.42-170.19c.1-.48.13-.98.13-1.47,0-10.25-8.34-18.6-18.6-18.6Zm-11.15-47.12c3.89,14.18.43,30.01-10.3,47.12h-61.49c27.8-23.66,44.44-49.47,49.61-77.09,7.92,5.86,18.3,15.83,22.18,29.97Zm-199.1-37.79c11.84-6.54,26.01-11.83,39.71-16.94,38.94-14.52,82.44-30.76,82.96-80.85,16.78,18.26,41.1,51.52,39.78,89.76-1.16,33.45-21.82,64.71-61.41,92.93h-113.99c-6.41-15.08-23.86-64.59,12.94-84.91Zm181.28,272.84c-.1.48-.14.98-.14,1.47,0,1.34-1.09,2.43-2.43,2.43h-38.16l15.28-103.73c.65-4.41-2.41-8.53-6.83-9.18-4.41-.69-8.53,2.4-9.18,6.83l-15.62,106.08h-70.56l-15.62-106.08c-.66-4.42-4.83-7.51-9.18-6.83-4.43.65-7.48,4.76-6.83,9.18l15.27,103.73h-38.16c-1.34,0-2.43-1.09-2.43-2.43,0-.49-.04-.99-.14-1.47l-31.35-169.82c.22-1.1,1.2-1.94,2.37-1.94h242.65c1.17,0,2.15.83,2.37,1.94l-31.35,169.82Z"></path>
  <path d="m209.81,205.09c15.65,0,15.65-24.27,0-24.27s-15.65,24.27,0,24.27Z"></path>
  <path d="m286.67,168.69c15.65,0,15.65-24.27,0-24.27s-15.65,24.27,0,24.27Z"></path>
  <path d="m271.84,231.39c15.65,0,15.65-24.27,0-24.27s-15.65,24.27,0,24.27Z"></path>
</symbol><symbol id="i063_food-15" xmlns="http://www.w3.org/2000/svg" viewBox="0 0 512 512">
  <path d="m430.45,241.68h-147.6v-90.77c0-2.78-1.47-5.36-3.85-6.78-2.4-1.43-5.35-1.49-7.8-.17l-37.91,20.46c-2.56,1.38-4.15,4.05-4.15,6.95v70.32H81.55c-19.6,0-35.55,15.95-35.55,35.55,0,14.12,8.33,26.23,20.28,31.97v119.41c0,9.23,7.51,16.75,16.75,16.75h348.09c9.23,0,16.75-7.51,16.75-16.75v-61.55c3.06-4.59,4.87-10.09,4.87-16.01v-46.21c8.39-6.71,13.27-16.74,13.27-27.6,0-19.6-15.95-35.55-35.55-35.55Zm-185.51-65.6l22.11-11.93v77.54h-22.11v-65.6Zm187.12,252.53c0,.53-.42.95-.95.95H83.02c-.53,0-.95-.42-.95-.95v-26.77h349.98v26.77Zm0-42.56H82.07v-32.33h103.57c4.31,6.34,11.58,10.51,19.81,10.51s15.49-4.17,19.8-10.51h169.91c1.37,14.68,13.62,26.25,28.65,26.25,2.89,0,5.62-.55,8.25-1.34v7.42Zm-349.98-48.12v-25.16c2.24-.03,4.54-.28,6.21-.66l62.02-6.9,31.21,11.18v21.54h-99.43Zm147.31,0v-24.58l24.41-5.79,47.68,15.36c1.63.52,3.4.51,5.04-.07l51.03-17.88,37.35,13.24v19.71h-165.5Zm211.31-43.91c-2.34,1.43-3.77,3.99-3.77,6.73v50.3c0,7.23-5.89,13.12-13.12,13.12s-13.12-5.89-13.12-13.12v-38.41c0-3.35-2.11-6.33-5.26-7.44l-45.23-16.04c-.85-.3-1.74-.45-2.64-.45s-1.77.14-2.62.45l-51.15,17.93-47.25-15.23c-1.37-.44-2.85-.5-4.24-.16l-32.64,7.74c-3.56.84-6.08,4.03-6.08,7.68v33.18c0,4.49-3.65,8.14-8.14,8.14s-8.15-3.66-8.15-8.14v-29.47c0-3.33-2.1-6.31-5.24-7.44l-38.17-13.67c-1.13-.41-2.37-.55-3.53-.42l-64.6,7.22c-1.5.32-2.88.48-4.22.48-10.89,0-19.75-8.86-19.75-19.76s8.86-19.75,19.75-19.75h348.9c10.89,0,19.75,8.86,19.75,19.75,0,6.86-3.55,13.14-9.5,16.78Z"></path>
  <path d="m255.99,143.66c11.7,0,21.23-9.53,21.23-21.23,0-.56-2.92-55.78-21.23-55.78s-21.23,55.23-21.23,55.78c0,11.7,9.53,21.23,21.23,21.23Zm0-53.3c2.85,10.52,5.43,26.45,5.43,32.07,0,2.99-2.44,5.43-5.43,5.43s-5.43-2.44-5.43-5.43c0-5.62,2.58-21.55,5.43-32.07Z"></path>
</symbol><symbol id="i063_food-16" xmlns="http://www.w3.org/2000/svg" viewBox="0 0 512 512">
  <path d="m436.7,231.65c9.33-11.97,14.26-24.93,14.26-38.17,0-56.32-85.64-100.43-194.96-100.43S61.04,137.17,61.04,193.48c0,13.24,4.92,26.2,14.26,38.17-16.71,3.5-29.3,18.33-29.3,36.06s13.09,33.07,30.27,36.19l23.79,108.77c.8,3.67,4.05,6.28,7.8,6.28h296.28c3.75,0,7.01-2.61,7.8-6.28l23.79-108.77c17.17-3.12,30.27-18.12,30.27-36.19s-12.59-32.56-29.3-36.06Zm-180.7-122.62c97.02,0,178.98,38.68,178.98,84.45,0,12.81-6.59,25.7-19.13,37.38H96.15c-12.53-11.69-19.12-24.57-19.12-37.38,0-45.78,81.96-84.45,178.98-84.45Zm141.71,293.94h-34.51l11.01-47.39c1-4.3-1.67-8.59-5.97-9.59-4.28-1.05-8.6,1.67-9.59,5.97l-11.85,51.01h-43.12l4.25-57.01c.33-4.4-2.97-8.23-7.37-8.56-4.55-.36-8.23,2.98-8.56,7.37l-4.34,58.19h-63.32l-4.34-58.19c-.33-4.39-4.08-7.73-8.56-7.37-4.4.33-7.7,4.16-7.37,8.56l4.25,57.01h-43.13l-11.85-51.01c-.99-4.3-5.3-7.02-9.59-5.97-4.3,1-6.97,5.29-5.97,9.59l11.01,47.39h-34.5l-21.81-99.73c7.68-2.09,14.4-6.56,19.22-12.63,6.76,8.5,17.18,13.96,28.86,13.96s22.1-5.46,28.85-13.96c6.76,8.5,17.18,13.96,28.86,13.96s22.1-5.46,28.85-13.96c6.76,8.5,17.18,13.96,28.86,13.96s22.1-5.46,28.86-13.96c6.76,8.5,17.18,13.96,28.85,13.96s22.1-5.46,28.86-13.96c6.76,8.5,17.18,13.96,28.85,13.96s22.11-5.46,28.86-13.96c4.82,6.07,11.54,10.54,19.23,12.63l-21.81,99.73Zm31.45-114.39c-11.51,0-20.87-9.36-20.87-20.87,0-4.42-3.57-7.99-7.99-7.99s-7.99,3.57-7.99,7.99c0,11.51-9.36,20.87-20.87,20.87s-20.86-9.36-20.86-20.87c0-4.42-3.57-7.99-7.99-7.99s-7.99,3.57-7.99,7.99c0,11.51-9.36,20.87-20.87,20.87s-20.86-9.36-20.86-20.87c0-4.42-3.57-7.99-7.99-7.99s-7.99,3.57-7.99,7.99c0,11.51-9.36,20.87-20.87,20.87s-20.87-9.36-20.87-20.87c0-4.42-3.57-7.99-7.99-7.99s-7.99,3.57-7.99,7.99c0,11.51-9.36,20.87-20.86,20.87s-20.87-9.36-20.87-20.87c0-4.42-3.57-7.99-7.99-7.99s-7.99,3.57-7.99,7.99c0,11.51-9.36,20.87-20.86,20.87s-20.87-9.36-20.87-20.87c0-4.42-3.57-7.99-7.99-7.99s-7.99,3.57-7.99,7.99c0,11.51-9.36,20.87-20.87,20.87s-20.86-9.36-20.86-20.87,9.36-20.86,20.86-20.86h10.16s.05.02.09.02h325.82s.05-.02.09-.02h10.16c11.5,0,20.86,9.36,20.86,20.86s-9.36,20.87-20.86,20.87Z"></path>
  <path d="m137.24,191.99c16.25,0,16.25-25.19,0-25.19s-16.24,25.19,0,25.19Z"></path>
  <path d="m235.89,215.08c16.24,0,16.24-25.19,0-25.19s-16.25,25.19,0,25.19Z"></path>
  <path d="m239.38,149.32c16.25,0,16.25-25.19,0-25.19s-16.24,25.19,0,25.19Z"></path>
  <path d="m334.53,174.5c16.24,0,16.24-25.19,0-25.19s-16.24,25.19,0,25.19Z"></path>
  <path d="m364.61,217.88c16.25,0,16.25-25.19,0-25.19s-16.24,25.19,0,25.19Z"></path>
</symbol><symbol id="i063_food-2" xmlns="http://www.w3.org/2000/svg" viewBox="0 0 512 512">
  <path d="m383.58,93.95h-36.56c-3.29,0-6.23,2.08-7.34,5.18l-33.26,93.48,16.61-137.89c.27-2.21-.43-4.42-1.9-6.09-1.47-1.67-3.6-2.62-5.82-2.62h-35.07c-3.94,0-7.25,2.94-7.73,6.84l-11.34,92.82v-58.5c0-4.3-3.49-7.79-7.79-7.79h-35.07c-4.29,0-7.78,3.48-7.79,7.77l-.07,29.76c-.37-.05-.71-.21-1.1-.21h-30.71l-2.02-35.19c-.24-4.11-3.65-7.34-7.78-7.34h-36.56c-2.14,0-4.19.88-5.66,2.44-1.47,1.57-2.24,3.66-2.11,5.8l6.98,118.77h-3.08c-2.21,0-4.32.94-5.79,2.59-1.47,1.64-2.19,3.84-1.95,6.04l26.86,249.24c.43,3.96,3.76,6.95,7.74,6.95h180.58c3.98,0,7.32-2.99,7.74-6.95l26.86-249.24c.24-2.2-.47-4.39-1.95-6.04-1.48-1.64-3.59-2.59-5.8-2.59h-6.46l34.66-96.83c.85-2.39.49-5.03-.97-7.11-1.45-2.07-3.83-3.3-6.36-3.3Zm-96.46-32.38h19.4l-23.46,194.81c-6.24,3.58-13.24,6.22-20.71,7.86l24.77-202.67Zm-61.06,33.38h19.51v171.17h-.01c-6.93,0-13.62-.9-19.91-2.56l.41-168.6Zm-24.06,37.32l7.33,124.76c-9.13-4.99-16.74-11.79-22.13-19.83l-6.16-104.93h20.97Zm-40.51-42.53l6.39,111.44h-20.79l-6.55-111.44h20.95Zm167.37,360.68h-166.6l-25.18-233.66h26.17c.94,7.69,3.31,14.99,6.77,21.77v.02h0c12.93,25.38,41.89,43.14,75.54,43.14,42.65,0,77.87-28.48,82.31-64.93h26.17l-25.18,233.66Zm10.86-249.24h-19.16c-.25,0-.46.12-.71.14l32.66-91.81h20.01l-32.81,91.66Z"></path>
  <path d="m245.57,309.36c-42.53,0-75.83,23.15-75.83,52.69s33.31,52.69,75.83,52.69,75.83-23.15,75.83-52.69-33.31-52.69-75.83-52.69Zm0,89.8c-32.67,0-60.26-17-60.26-37.11s27.59-37.11,60.26-37.11,60.26,17,60.26,37.11-27.6,37.11-60.26,37.11Z"></path>
</symbol><symbol id="i063_food-3" xmlns="http://www.w3.org/2000/svg" viewBox="0 0 512 512">
  <path d="m429.76,384.96h-35.72c29.38-46.33,23.02-160.95,21.12-187.05-.34-4.76-4.31-8.46-9.09-8.46H132.19c-4.78,0-8.75,3.69-9.09,8.46-.37,5.19-.93,13.92-1.34,24.87-27.4,3.99-48.63,29.62-48.63,60.62,0,33.76,25.15,61.22,56.05,61.22.03,0,.05,0,.09,0,3.45,15.75,8.28,29.81,14.95,40.34h-35.72c-3.12,0-6.02,1.59-7.69,4.22-1.67,2.63-1.89,5.94-.57,8.76l21.96,46.94c1.5,3.21,4.73,5.25,8.26,5.25h277.32c3.53,0,6.76-2.05,8.25-5.25l21.97-46.94c1.33-2.82,1.11-6.13-.56-8.76-1.67-2.63-4.58-4.22-7.69-4.22Zm-338.4-101.55c0-20.62,12.84-37.86,29.92-42.01-.36,25.09.44,56.25,4.63,84.62-19.3-1.92-34.55-20.18-34.55-42.62Zm49.37-75.72h256.8c4.04,69.61-2.02,164.88-28.56,177.27h-199.69c-26.54-12.39-32.6-107.66-28.56-177.27Zm261.26,224.21H136.26l-13.42-28.71h292.59l-13.43,28.71Z"></path>
  <path d="m327.38,141.26c.33,9.93,5.66,19.56,16.3,29.43,1.75,1.63,3.98,2.43,6.2,2.43,2.45,0,4.89-.98,6.69-2.92,3.42-3.69,3.2-9.45-.49-12.88-6.79-6.3-10.32-11.91-10.47-16.67-.22-6.62,6.09-13.31,12.77-20.39,8.03-8.51,17.14-18.16,15.84-30.79-.93-9.11-7.18-17.59-19.1-25.94-4.13-2.89-9.81-1.89-12.69,2.24-2.88,4.12-1.89,9.81,2.24,12.69,9.47,6.63,11.22,10.91,11.42,12.85.45,4.34-5.36,10.49-10.97,16.43-8.53,9.05-18.21,19.31-17.72,33.52Z"></path>
  <path d="m251,141.26c.34,9.93,5.67,19.56,16.31,29.43,1.76,1.63,3.98,2.43,6.2,2.43,2.45,0,4.89-.98,6.68-2.92,3.42-3.69,3.21-9.45-.49-12.88-6.79-6.3-10.32-11.91-10.48-16.67-.22-6.62,6.09-13.31,12.78-20.39,8.03-8.51,17.13-18.17,15.84-30.79-.93-9.11-7.18-17.59-19.1-25.94-4.13-2.89-9.81-1.89-12.69,2.24-2.89,4.12-1.89,9.81,2.24,12.69,9.47,6.63,11.22,10.91,11.42,12.85.44,4.34-5.36,10.49-10.97,16.43-8.54,9.05-18.21,19.3-17.73,33.52Z"></path>
  <path d="m174.64,141.26c.33,9.93,5.66,19.56,16.3,29.43,1.76,1.63,3.98,2.43,6.2,2.43,2.45,0,4.89-.98,6.69-2.92,3.42-3.69,3.21-9.45-.49-12.88-6.79-6.3-10.32-11.91-10.47-16.67-.22-6.62,6.09-13.31,12.77-20.39,8.03-8.51,17.14-18.16,15.84-30.79-.93-9.11-7.17-17.59-19.1-25.94-4.12-2.89-9.81-1.89-12.69,2.24-2.89,4.12-1.89,9.81,2.24,12.69,9.47,6.63,11.22,10.91,11.42,12.85.44,4.34-5.36,10.49-10.97,16.43-8.53,9.05-18.21,19.31-17.73,33.52Z"></path>
  <path d="m353.42,366.39c2.38,0,4.75-.93,6.53-2.76,22.51-23.14,22.08-82.78,21.95-89.51-.09-4.97-4.16-8.95-9.12-8.95h-.17c-5.03.1-9.04,4.25-8.95,9.29.3,16.16-2.14,61.39-16.79,76.46-3.51,3.6-3.43,9.38.18,12.89,1.77,1.73,4.07,2.58,6.36,2.58Z"></path>
</symbol><symbol id="i063_food-4" xmlns="http://www.w3.org/2000/svg" viewBox="0 0 512 512">
  <path d="m409.76,213.77c-.03-.11-.02-.24-.06-.35-2.65-19.77-39.16-31.32-81.86-35.64v-58.86h65.86c4.52,0,8.18-3.66,8.18-8.18s-3.66-8.18-8.18-8.18h-65.86v-8.88l58.25,8.07c.38.06.75.08,1.13.08,4.02,0,7.53-2.96,8.09-7.06.62-4.48-2.5-8.61-6.98-9.22l-60.49-8.38v-12.81c0-4.52-3.66-8.18-8.18-8.18s-8.18,3.66-8.18,8.18v112.12c-7.82-.45-15.72-.69-23.55-.69-57.12,0-118.31,11.82-121.76,37.63-.03.11-.03.23-.06.34-.07.65-.28,1.26-.28,1.93,0,.22.09.42.1.63,0,.14-.05.26-.03.39l29.3,231.91c.5,4.04,3.89,6.97,7.84,7.11,22.18,6.51,52.91,10.26,84.9,10.26s62.71-3.74,84.89-10.26c3.96-.12,7.35-3.06,7.86-7.11l29.29-231.91c.01-.13-.04-.25-.03-.39,0-.22.1-.42.1-.63,0-.66-.21-1.28-.28-1.92Zm-44.59,227.13c-20.48,5.55-48.18,8.74-77.23,8.74s-56.75-3.19-77.22-8.74l-25.57-202.4c23.22,11.62,63.92,17.11,102.79,17.11s79.57-5.5,102.79-17.11l-25.56,202.4Zm28.39-224.82c-1.2,7.24-37.05,23.17-105.63,23.17s-104.43-15.93-105.63-23.17l-.06-.54c.48-7.12,36.4-23.39,105.69-23.39,8.34,0,16.17.25,23.55.68v13.1c0,4.52,3.66,8.18,8.18,8.18s8.18-3.66,8.18-8.18v-11.75c43.09,4.57,65.41,15.77,65.78,21.36l-.06.54Z"></path>
  <path d="m287.94,163.26c4.52,0,8.18-3.66,8.18-8.18V62.72c0-4.52-3.66-8.18-8.18-8.18s-8.18,3.66-8.18,8.18v92.36c0,4.52,3.66,8.18,8.18,8.18Z"></path>
  <path d="m252.09,135.14c0,4.52,3.66,8.18,8.18,8.18s8.18-3.66,8.18-8.18v-70.78c0-4.52-3.66-8.18-8.18-8.18s-8.18,3.66-8.18,8.18v1.57l-140.81-19.85c-4.55-.63-8.61,2.49-9.24,6.96-.63,4.47,2.48,8.61,6.96,9.24l143.1,20.16v20.11H111.77c-4.52,0-8.18,3.66-8.18,8.18s3.66,8.18,8.18,8.18h140.32v16.22Z"></path>
  <path d="m237.86,349.56c0,27.62,22.47,50.09,50.08,50.09s50.09-22.47,50.09-50.09-22.47-50.09-50.09-50.09-50.08,22.47-50.08,50.09Zm83.81,0c0,18.59-15.13,33.72-33.73,33.72s-33.72-15.13-33.72-33.72,15.13-33.73,33.72-33.73,33.73,15.13,33.73,33.73Z"></path>
</symbol><symbol id="i063_food-5" xmlns="http://www.w3.org/2000/svg" viewBox="0 0 512 512">
  <path d="m255.55,98.27c-109.32,0-199.32,37.46-209.37,87.15-.12.61.03,1.22.03,1.83h-.22v151.11c0,5.08,4.12,9.2,9.2,9.2h107.48v52.78c0,4.55,3.33,8.43,7.84,9.09,2.81.43,29.64,4.28,67.52,4.28,62.66,0,155.57-10.55,219.96-64.63,2-1.67,3.19-4.13,3.28-6.74l4.71-147.05h-.01c0-.11.02-.2.02-.31,0-54.24-92.44-96.73-210.45-96.73Zm-92.87,230.9h-98.29v-39.89h98.29v39.89Zm2.86-61.28c-.9.86-1.53,1.91-2.01,3h-99.13v-74.07l169.02,6.54-67.87,64.54Zm277.49,69.71c-85.54,68.65-227.26,58.34-261.95,54.6v-29.16c11.33,1.02,31.02,2.39,55.48,2.39,58.79,0,144.81-7.98,207.1-47.54l-.63,19.71Zm1.36-42.47c-82.43,61-227.72,52.53-263.31,49.39v-59.06c23.96,4.1,48.92,6.29,74.47,6.29,85.45,0,157.46-22.3,190.72-55.19l-1.87,58.57Zm3.2-100.07c-.07,37.82-77.22,78.3-192.04,78.3-21.92,0-43.4-1.58-64.1-4.71l70.44-66.98c2.68-2.55,3.58-6.45,2.27-9.9-1.3-3.47-4.56-5.8-8.25-5.95l-187.55-7.26c18.31-31.48,89-61.9,187.19-61.9,114.85,0,192.01,40.48,192.05,78.3v.09Z"></path>
  <path d="m199.1,138.57c-18.99,0-18.99,29.45,0,29.45s18.99-29.45,0-29.45Z"></path>
  <path d="m330.81,146.75c-18.99,0-18.99,29.45,0,29.45s18.99-29.45,0-29.45Z"></path>
  <path d="m294.82,220.37c-18.99,0-18.99,29.45,0,29.45s19-29.45,0-29.45Z"></path>
</symbol><symbol id="i063_food-6" xmlns="http://www.w3.org/2000/svg" viewBox="0 0 512 512">
  <path d="m465.97,254.9c-.6-115.29-94.55-208.9-209.97-208.9S50.98,135.36,46.23,246.98c-.07.76-.23,1.49-.23,2.27,0,.27.13.49.15.75-.06,2-.15,3.99-.15,6.01,0,115.79,94.21,210,210,210s210-94.21,210-210c0-.26-.02-.51-.02-.77,0-.07.02-.12.02-.19,0-.05-.03-.09-.03-.14Zm-209.97,192.84c-105.73,0-191.74-86.01-191.74-191.74,0-3.04.32-6.01.45-9.01.96-2.81,3.54-4.88,6.68-4.88,3.93,0,7.13,3.2,7.13,7.13v33.86c0,14,11.39,25.39,25.39,25.39s25.39-11.39,25.39-25.39v-60.06c0-3.93,3.2-7.13,7.13-7.13s7.13,3.2,7.13,7.13v40.8c0,14,11.39,25.39,25.4,25.39s25.39-11.39,25.39-25.39v-23.01c0-3.93,3.2-7.13,7.13-7.13,3.62,0,6.5,2.76,6.96,6.25-1.71,5.04-2.68,10.43-2.68,16.04,0,27.69,22.53,50.22,50.22,50.22,22.43,0,41.46-14.78,47.88-35.11,2.14.58,4.34.92,6.61.92,14,0,25.39-11.39,25.39-25.4v-33.86c0-3.93,3.2-7.13,7.13-7.13s7.13,3.2,7.13,7.13v60.06c0,14,11.39,25.39,25.4,25.39s25.39-11.39,25.39-25.39v-40.8c0-3.93,3.2-7.13,7.13-7.13s7.13,3.2,7.13,7.13v23.01c0,14,11.39,25.39,25.4,25.39,1.89,0,3.72-.24,5.49-.64-11.78,94.51-92.44,167.94-190.1,167.94Zm-31.96-191.74c0-17.62,14.34-31.96,31.96-31.96s31.96,14.34,31.96,31.96-14.34,31.96-31.96,31.96-31.96-14.34-31.96-31.96Zm216.56,6.17c-3.93,0-7.13-3.2-7.13-7.13v-23.01c0-14-11.39-25.39-25.39-25.39s-25.39,11.39-25.39,25.39v40.8c0,3.93-3.2,7.13-7.13,7.13s-7.13-3.2-7.13-7.13v-60.06c0-14-11.39-25.39-25.39-25.39s-25.39,11.39-25.39,25.39v33.86c0,3.93-3.2,7.13-7.13,7.13-1.71,0-3.21-.78-4.49-1.86-2.1-25.78-23.7-46.13-50.01-46.13-14.75,0-27.99,6.43-37.18,16.59-4.54-4.26-10.61-6.92-17.32-6.92-14,0-25.39,11.39-25.39,25.39v23.01c0,3.93-3.2,7.13-7.13,7.13s-7.13-3.2-7.13-7.13v-40.8c0-14-11.39-25.39-25.39-25.39s-25.39,11.39-25.39,25.39v60.06c0,3.93-3.2,7.13-7.13,7.13s-7.13-3.2-7.13-7.13v-33.86c0-14-11.39-25.4-25.39-25.4-1.47,0-2.89.19-4.28.43,15.19-90.65,93.99-160.02,188.89-160.02,105.47,0,191.28,85.6,191.7,190.97-.11,3.84-3.23,6.94-7.09,6.94Z"></path>
  <path d="m167.06,125.57c-14.48,0-26.25,11.77-26.25,26.25s11.77,26.25,26.25,26.25,26.25-11.77,26.25-26.25-11.77-26.25-26.25-26.25Zm0,34.24c-4.4,0-7.99-3.59-7.99-7.99s3.59-7.99,7.99-7.99,7.99,3.58,7.99,7.99-3.59,7.99-7.99,7.99Z"></path>
  <path d="m274.98,90.36c-14.48,0-26.25,11.77-26.25,26.25s11.77,26.25,26.25,26.25,26.25-11.78,26.25-26.25-11.77-26.25-26.25-26.25Zm0,34.24c-4.4,0-7.99-3.58-7.99-7.99s3.59-7.99,7.99-7.99,7.99,3.58,7.99,7.99-3.59,7.99-7.99,7.99Z"></path>
  <path d="m347.83,113.61c-14.48,0-26.25,11.77-26.25,26.25s11.78,26.25,26.25,26.25,26.25-11.77,26.25-26.25-11.77-26.25-26.25-26.25Zm0,34.24c-4.4,0-7.99-3.58-7.99-7.99s3.59-7.99,7.99-7.99,7.99,3.59,7.99,7.99-3.59,7.99-7.99,7.99Z"></path>
  <path d="m252.01,173.83c-6.35,0-11.49,5.14-11.49,11.49s5.14,11.49,11.49,11.49,11.49-5.14,11.49-11.49-5.14-11.49-11.49-11.49Z"></path>
  <path d="m404.37,196.8c6.35,0,11.49-5.14,11.49-11.49s-5.14-11.49-11.49-11.49-11.49,5.14-11.49,11.49,5.14,11.49,11.49,11.49Z"></path>
  <path d="m210.37,88c-6.35,0-11.49,5.14-11.49,11.49s5.14,11.49,11.49,11.49,11.49-5.14,11.49-11.49-5.14-11.49-11.49-11.49Z"></path>
  <path d="m108.71,167.15c-6.35,0-11.49,5.14-11.49,11.49s5.14,11.49,11.49,11.49,11.49-5.14,11.49-11.49-5.14-11.49-11.49-11.49Z"></path>
</symbol><symbol id="i063_food-7" xmlns="http://www.w3.org/2000/svg" viewBox="0 0 512 512">
  <path d="m430.29,143.3s-.05-.03-.08-.04c-3.57-1.1-87.85-26.9-125.81-28.59-51.35-2.29-207.18-.03-208.64,0-27.44,0-49.77,22.32-49.77,49.76,0,21.1,13.22,39.13,31.81,46.36-.02,23.55-.1,113.35,0,124.89.15,16.69,9.59,27.64,28.87,33.48,16.02,4.85,101.8,26.99,105.45,27.93l.04-.14c3.22.83,6.66,1.39,10.49,1.39h178.87c20.45,0,32.66-12.21,32.66-32.66v-128.29c19-7.31,31.82-25.61,31.82-46.37,0-22.56-15.1-41.63-35.71-47.72ZM111.09,354.59c-15.76-4.78-17.98-11.97-18.05-19.04-.1-10.84-.03-94.02,0-121.49.91.05,1.81.14,2.73.14,4.21,0,7.62-3.41,7.62-7.62s-3.41-7.62-7.62-7.62c-19.04,0-34.53-15.49-34.53-34.53s15.49-34.53,34.64-34.53c1.56-.03,156.95-2.28,207.85,0,15.23.68,39.24,5.73,61.95,11.36h-157.73c-27.44,0-49.77,22.33-49.77,49.77,0,20.76,12.82,39.05,31.82,46.37v128.29c0,3.75.54,7.12,1.34,10.29-27.59-7.17-69.82-18.23-80.24-21.38Zm313.61-130.14c-3.38.85-5.76,3.9-5.76,7.39v133.85c0,12.05-5.38,17.43-17.43,17.43h-178.87c-2.83,0-5.26-.32-7.38-.94-.16-.04-.3-.08-.54-.14-6.51-2.1-9.51-7.37-9.51-16.35v-133.85c0-3.49-2.37-6.53-5.75-7.39-15.35-3.88-26.07-17.62-26.07-33.43,0-19.04,15.49-34.54,34.53-34.54h208.3c19.04,0,34.53,15.49,34.53,34.54,0,15.81-10.72,29.56-26.06,33.43Z"></path>
</symbol><symbol id="i063_food-8" xmlns="http://www.w3.org/2000/svg" viewBox="0 0 512 512">
  <path d="m433.99,313.7h-14.48c2.95-6.41,4.62-13,4.62-19.77,0-47.28-73.85-84.31-168.13-84.31s-168.13,37.03-168.13,84.31c0,6.77,1.66,13.37,4.61,19.77h-14.48c-17.65,0-32.01,14.37-32.01,32.02s14.36,32.01,32.01,32.01h6.55v10.1c0,24.78,14.8,39.58,39.58,39.58h263.74c24.78,0,39.58-14.79,39.58-39.58v-10.1h6.53c17.65,0,32.01-14.36,32.01-32.01s-14.36-32.02-32.01-32.02Zm-177.99-87.61c82.21,0,151.66,31.07,151.66,67.84,0,6.66-2.34,13.29-6.97,19.75l-289.39.02c-4.63-6.46-6.97-13.09-6.97-19.77,0-36.78,69.45-67.84,151.66-67.84Zm177.99,135.17h-235.78c-4.55,0-8.24,3.69-8.24,8.23s3.68,8.24,8.24,8.24h212.78v10.1c0,23.11-17.4,23.11-23.11,23.11H124.14c-23.11,0-23.11-17.39-23.11-23.11v-10.1h52.34c4.55,0,8.24-3.69,8.24-8.24s-3.68-8.23-8.24-8.23h-75.36c-8.56,0-15.54-6.97-15.54-15.54s6.97-15.55,15.54-15.55h355.98c8.56,0,15.54,6.97,15.54,15.55s-6.97,15.54-15.54,15.54Z"></path>
  <path d="m174.67,293.9c1.94,0,3.88-.68,5.44-2.06l42.72-37.64c3.41-3.01,3.74-8.21.73-11.63-3-3.41-8.21-3.73-11.62-.73l-42.72,37.64c-3.41,3.01-3.74,8.21-.73,11.63,1.62,1.85,3.9,2.79,6.17,2.79Z"></path>
  <path d="m331.88,291.84c1.57,1.38,3.51,2.06,5.44,2.06,2.28,0,4.55-.95,6.18-2.79,3.01-3.41,2.68-8.62-.73-11.63l-42.72-37.64c-3.41-3-8.61-2.68-11.62.73-3.01,3.41-2.68,8.62.73,11.63l42.72,37.64Z"></path>
  <path d="m256,293.9c4.55,0,8.24-3.69,8.24-8.24v-40.98c0-4.55-3.68-8.23-8.24-8.23s-8.23,3.69-8.23,8.23v40.98c0,4.55,3.68,8.24,8.23,8.24Z"></path>
  <path d="m134.48,200.31c-2.98,3.43-2.6,8.64.83,11.62,1.56,1.35,3.48,2.01,5.4,2.01,2.3,0,4.59-.96,6.22-2.84,21.84-25.19,8.45-43.72-.42-55.98-8.95-12.38-13.44-18.59-.05-31.7,3.25-3.18,3.31-8.4.13-11.64-3.18-3.24-8.39-3.31-11.64-.13-23.53,23.03-10.45,41.14-1.79,53.12,8.8,12.17,14.61,20.22,1.32,35.55Z"></path>
  <path d="m214.44,175.61c-2.98,3.43-2.61,8.64.83,11.62,1.56,1.35,3.48,2.01,5.4,2.01,2.3,0,4.59-.96,6.22-2.84,21.84-25.19,8.45-43.72-.42-55.98-8.95-12.38-13.44-18.59-.05-31.7,3.25-3.18,3.3-8.4.13-11.65-3.18-3.24-8.39-3.31-11.64-.13-23.53,23.03-10.45,41.13-1.78,53.12,8.8,12.18,14.61,20.22,1.32,35.55Z"></path>
  <path d="m286.14,175.61c-2.98,3.43-2.6,8.64.83,11.62,1.56,1.35,3.48,2.01,5.4,2.01,2.3,0,4.59-.96,6.23-2.84,21.83-25.19,8.44-43.72-.42-55.98-8.95-12.38-13.44-18.59-.05-31.7,3.25-3.18,3.3-8.4.13-11.65-3.18-3.24-8.39-3.31-11.64-.13-23.53,23.03-10.45,41.13-1.79,53.12,8.8,12.18,14.61,20.22,1.32,35.55Z"></path>
  <path d="m366.1,200.31c-2.98,3.43-2.6,8.64.83,11.62,1.56,1.35,3.48,2.01,5.39,2.01,2.3,0,4.59-.96,6.23-2.84,21.83-25.19,8.44-43.72-.42-55.98-8.95-12.38-13.44-18.59-.05-31.7,3.25-3.18,3.3-8.4.13-11.64-3.18-3.24-8.39-3.31-11.64-.13-23.53,23.03-10.45,41.14-1.79,53.12,8.8,12.17,14.61,20.22,1.32,35.55Z"></path>
</symbol><symbol id="i063_food-9" xmlns="http://www.w3.org/2000/svg" viewBox="0 0 512 512">
  <path d="m445.64,296.02c-.11-.38-.22-.76-.38-1.12-.2-.46-.47-.88-.76-1.31-.24-.35-.47-.7-.76-1.01-.11-.12-.17-.27-.29-.39l-149.03-142.74c-1.23-1.18-2.78-1.95-4.47-2.22-.65-.11-15.86-2.47-38.5-2.82-4.89-3.73-10.55-6.45-16.81-7.67-.64-14.36.98-49.59,30.05-65.32,4.07-2.2,5.59-7.28,3.39-11.35-2.21-4.06-7.26-5.59-11.36-3.38-37.3,20.18-39.7,62.25-38.89,80.34-7.6,1.73-14.43,5.52-19.77,10.84-61.23,9.25-106.5,36.56-130.99,79.2-.08.14-.12.3-.19.45-.08.16-.13.31-.2.47-.43,1.01-.69,2.06-.7,3.13,0,.04-.02.08-.02.12v149.73c0,4.04,2.89,7.5,6.86,8.24l363.32,67.01c.51.09,1.01.14,1.52.14,1.94,0,3.84-.67,5.36-1.94,1.91-1.59,3.02-3.95,3.02-6.44v-149.73c0-.21-.09-.4-.11-.61-.04-.55-.14-1.08-.29-1.61Zm-218.79-143.32c13.28,0,24.08,10.8,24.08,24.08s-10.81,24.08-24.08,24.08-24.08-10.8-24.08-24.08,10.81-24.08,24.08-24.08Zm-39.45,14.09c-.82,3.21-1.38,6.52-1.38,9.99,0,22.52,18.31,40.84,40.83,40.84s40.83-18.32,40.83-40.84c0-5.36-1.1-10.47-2.99-15.16,9.46.53,16.56,1.33,20.09,1.79l126.86,121.51-323.57-59.68c21.07-29.79,54.45-49.34,99.32-58.45Zm241.88,271.11l-346.57-63.92v-40.23l346.57,62.42v41.73Zm0-58.77l-346.57-62.42v-24.95l346.57,62.42v24.95Zm0-41.98l-346.57-62.42v-33.45l257.2,47.44,89.36,16.48v31.95Z"></path>
</symbol>
</svg>