<svg xmlns="http://www.w3.org/2000/svg" style="display: none;">

<symbol id="i082_dessert-1" xmlns="http://www.w3.org/2000/svg" viewBox="0 0 512 512">
  <path d="m256,472.5c-61.75,0-114.32-13.22-152.01-38.23-42.15-27.96-64.42-70.23-64.42-122.22,0-42.53,14.49-88.53,40.81-129.52,25.68-40,60.6-71.75,98.81-89.99-9.73-25.56-31.6-40.89-31.84-41.05-2.3-1.59-3.33-4.48-2.55-7.16s3.19-4.58,5.98-4.69c36.94-1.46,65.49,9.43,85,32.39l14.41-28.8c1.1-2.2,3.35-3.59,5.81-3.59s4.71,1.39,5.81,3.59l14.41,28.8c19.51-22.96,48.06-33.85,85-32.39,2.8.11,5.21,2,5.99,4.69.78,2.69-.26,5.58-2.57,7.16-.23.16-22.1,15.49-31.83,41.05,25.76,12.3,50.36,30.94,71.44,54.19,2.41,2.66,2.21,6.77-.45,9.18-2.66,2.41-6.77,2.21-9.18-.45-21.34-23.53-46.39-42.04-72.45-53.51-2.99-1.32-4.54-4.65-3.62-7.79,5.33-18.09,15.97-32.06,24.76-41.17-27.02,2.4-47.7,13.52-61.63,33.17-1.39,1.96-3.76,3-6.15,2.69l-.24-.03c-.68-.09-1.35-.18-2.01-.25-2.19-.24-4.11-1.58-5.1-3.55l-12.19-24.37-12.19,24.37c-.99,1.97-2.91,3.31-5.1,3.55-.67.07-1.34.16-2.02.25l-.23.03c-2.39.31-4.75-.72-6.15-2.69-13.93-19.65-34.61-30.76-61.63-33.17,8.79,9.11,19.42,23.07,24.76,41.17.92,3.14-.62,6.47-3.61,7.79-76.97,33.89-137.27,126.18-137.27,210.1,0,48.11,19.72,85.59,58.61,111.39,35.56,23.59,85.64,36.06,144.83,36.06s109.27-12.47,144.83-36.06c38.89-25.8,58.61-63.28,58.61-111.39,0-33.68-9.6-69.55-27.77-103.74-1.68-3.17-.48-7.11,2.69-8.79,3.17-1.69,7.1-.48,8.79,2.69,19.16,36.05,29.29,74.04,29.29,109.84,0,52-22.28,94.26-64.42,122.22-37.7,25.01-90.26,38.23-152.01,38.23Zm-139.96-165.68c-2.82,0-5.42-1.85-6.24-4.7-9.45-32.86.17-70.39,27.83-108.54,20.48-28.25,43.36-46.78,44.32-47.56,2.8-2.25,6.89-1.81,9.14.99,2.25,2.8,1.81,6.89-.99,9.14h0c-.88.71-88.06,71.95-67.81,142.37.99,3.45-1,7.05-4.45,8.04-.6.17-1.21.25-1.8.25Zm306.85-119.28c-2.09,0-4.15-1.01-5.4-2.88-1.47-2.18-2.94-4.31-4.39-6.31-2.1-2.91-1.44-6.97,1.47-9.07,2.91-2.1,6.97-1.44,9.07,1.47,1.53,2.12,3.09,4.36,4.64,6.67,2,2.98,1.21,7.02-1.77,9.02-1.11.75-2.37,1.1-3.62,1.1Z"></path>
</symbol><symbol id="i082_dessert-10" xmlns="http://www.w3.org/2000/svg" viewBox="0 0 512 512">
  <path d="m256,472.5c-119.38,0-216.5-97.12-216.5-216.5h0c0-44.7,13.54-87.63,39.15-124.15,2.06-2.94,6.11-3.65,9.05-1.59,2.94,2.06,3.65,6.11,1.59,9.05-21.48,30.63-33.93,66.06-36.36,103.19,8.44-4.9,18.05-7.52,28.06-7.52,14.95,0,29.01,5.83,39.6,16.41,8.13,8.13,18.92,12.6,30.4,12.6,10.63,0,20.67-3.84,28.55-10.86,1.5-40.87,35.22-73.65,76.45-73.65,37.89,0,69.44,27.69,75.46,63.9,8.78-5.48,18.94-8.41,29.54-8.41,14.95,0,29.01,5.83,39.6,16.41,8.13,8.13,18.92,12.6,30.4,12.6,10.59,0,20.61-3.81,28.48-10.79-1.5-110.93-92.2-200.71-203.48-200.71-45.56,0-88.65,14.74-124.59,42.63-2.84,2.2-6.92,1.69-9.12-1.15-2.2-2.84-1.69-6.92,1.15-9.12,38.24-29.67,84.08-45.36,132.56-45.36,119.37,0,216.49,97.13,216.5,216.5h0s0,0,0,0c0,119.38-97.12,216.5-216.5,216.5ZM52.52,258.79c1.5,110.93,92.2,200.71,203.48,200.71s196.09-84.06,203.06-190.01c-8.44,4.9-18.05,7.52-28.06,7.52-14.95,0-29.01-5.83-39.6-16.41-8.13-8.13-18.93-12.6-30.4-12.6-10.63,0-20.67,3.84-28.55,10.86-1.5,40.87-35.22,73.65-76.45,73.65-37.89,0-69.44-27.69-75.46-63.9-8.78,5.48-18.94,8.41-29.54,8.41-14.95,0-29.01-5.83-39.6-16.41-8.13-8.13-18.92-12.6-30.4-12.6-10.59,0-20.61,3.81-28.48,10.79Zm203.48-66.29c-35.01,0-63.5,28.49-63.5,63.5s28.49,63.5,63.5,63.5,63.5-28.49,63.5-63.5-28.49-63.5-63.5-63.5Zm164.05,35c-.64,0-1.29-.1-1.93-.29l-18.25-5.67c-3.43-1.06-5.34-4.71-4.28-8.14,1.06-3.43,4.7-5.34,8.14-4.28l18.25,5.67c3.43,1.07,5.34,4.71,4.28,8.14-.87,2.79-3.43,4.57-6.21,4.57Zm-304.05-24.24c-1.46,0-2.92-.49-4.13-1.49l-13.04-10.76c-2.77-2.29-3.16-6.38-.88-9.15,2.28-2.77,6.38-3.16,9.15-.87l13.04,10.76c2.77,2.29,3.16,6.38.88,9.15-1.29,1.56-3.14,2.36-5.02,2.36Zm42.43-5.37c-2.06,0-4.08-.98-5.35-2.8-2.05-2.95-1.31-7,1.64-9.05l27.58-19.13c2.95-2.05,7-1.31,9.04,1.64,2.05,2.95,1.31,7-1.64,9.05l-27.58,19.13c-1.13.78-2.42,1.16-3.7,1.16Zm191.16-5.39c-.8,0-1.61-.15-2.39-.46-3.34-1.32-4.97-5.1-3.65-8.44l5.71-14.38c1.32-3.34,5.1-4.97,8.44-3.65,3.34,1.32,4.97,5.1,3.65,8.44l-5.71,14.38c-1.01,2.55-3.46,4.11-6.04,4.11Zm52.2-7.19c-2.89,0-5.52-1.94-6.29-4.86l-5.79-22.21c-.91-3.47,1.18-7.02,4.65-7.93,3.48-.91,7.02,1.18,7.93,4.65l5.79,22.21c.91,3.47-1.18,7.02-4.65,7.93-.55.14-1.1.21-1.65.21Zm-95.92-27.81c-.91,0-1.83-.19-2.71-.6-3.26-1.5-4.69-5.36-3.19-8.62l9.13-19.85c1.5-3.26,5.37-4.68,8.62-3.19,3.26,1.5,4.69,5.36,3.19,8.62l-9.13,19.85c-1.1,2.38-3.45,3.78-5.91,3.78Zm-72.41,0c-1.74,0-3.47-.69-4.75-2.06l-12.46-13.32c-2.45-2.62-2.32-6.73.31-9.19,2.62-2.45,6.73-2.32,9.19.31l12.46,13.32c2.45,2.62,2.32,6.73-.31,9.19-1.25,1.17-2.85,1.75-4.44,1.75Zm-82.47-6.79c-1.09,0-2.19-.27-3.21-.85-3.12-1.77-4.21-5.74-2.44-8.86l7.42-13.06c1.77-3.12,5.74-4.21,8.86-2.44,3.12,1.77,4.21,5.74,2.44,8.86l-7.42,13.06c-1.2,2.11-3.4,3.29-5.66,3.29Zm210.01-17.62c-2.05,0-4.07-.97-5.33-2.77l-11.41-16.31c-2.06-2.94-1.34-6.99,1.6-9.05,2.94-2.06,6.99-1.34,9.05,1.6l11.41,16.31c2.06,2.94,1.34,6.99-1.6,9.05-1.13.79-2.43,1.17-3.72,1.17Zm-258.06-14.32c-1.58,0-3.17-.58-4.43-1.74-2.63-2.44-2.78-6.56-.33-9.19,1.29-1.39,2.58-2.7,3.66-3.81,2.52-2.56,6.64-2.59,9.19-.07,2.56,2.52,2.59,6.63.07,9.19-1.02,1.04-2.23,2.27-3.41,3.54-1.28,1.38-3.02,2.07-4.76,2.07Zm177.49-7.86c-1.82,0-3.64-.76-4.92-2.25-2.35-2.72-2.05-6.82.67-9.17l10.57-9.14c2.72-2.35,6.82-2.05,9.17.67,2.35,2.72,2.05,6.82-.67,9.17l-10.57,9.14c-1.23,1.06-2.74,1.58-4.25,1.58Zm-78.29-9.13c-1.97,0-3.91-.89-5.19-2.58-2.17-2.86-1.6-6.94,1.26-9.11l18.87-14.28c2.86-2.17,6.94-1.6,9.11,1.26s1.6,6.94-1.26,9.11l-18.87,14.28c-1.17.89-2.55,1.32-3.92,1.32Z"></path>
</symbol><symbol id="i082_dessert-11" xmlns="http://www.w3.org/2000/svg" viewBox="0 0 512 512">
  <path d="m256,472.5c-56.74,0-110.19-7.4-150.52-20.84-42.55-14.18-65.98-33.95-65.98-55.66s23.43-41.47,65.98-55.66c18.13-6.04,38.92-10.87,61.46-14.34-22.54-3.48-43.33-8.3-61.46-14.34-42.55-14.18-65.98-33.95-65.98-55.66,0-13.12,8.19-25.31,24.33-36.24,2.97-2.01,7.01-1.23,9.03,1.74,2.01,2.97,1.23,7.01-1.74,9.03-8.49,5.75-18.62,14.83-18.62,25.47,0,15.44,20.81,31.23,57.09,43.32,39.04,13.01,91.03,20.18,146.41,20.18s107.37-7.17,146.41-20.18c36.28-12.09,57.09-27.88,57.09-43.32s-20.81-31.23-57.09-43.32c-14.72-4.91-31.28-8.98-49.17-12.15l-44.92,51.84c-2.35,2.71-6.46,3.01-9.17.66-2.71-2.35-3.01-6.46-.66-9.17l39.64-45.75c-20.56-2.95-42.57-4.78-65.34-5.38l-49.26,56.86c-2.35,2.71-6.45,3.01-9.17.66-2.71-2.35-3.01-6.46-.66-9.17l42.08-48.57c-24.32,0-47.99,1.39-70.28,4.08-.13,1.36-.68,2.69-1.68,3.77l-45.19,49.37c-2.42,2.65-6.53,2.83-9.18.41-2.65-2.42-2.83-6.54-.41-9.18l38.3-41.84c-12.07,1.91-23.65,4.22-34.59,6.92-3.49.86-7.01-1.27-7.87-4.75-.86-3.49,1.27-7.01,4.75-7.87,36.83-9.09,80.52-13.89,126.35-13.89,4.27,0,8.52.04,12.75.12.93-.18,1.9-.17,2.82.06,50.9,1.23,98.33,8.45,134.95,20.66,42.55,14.18,65.98,33.95,65.98,55.66s-23.43,41.47-65.98,55.66c-18.13,6.04-38.92,10.87-61.46,14.34,22.54,3.48,43.33,8.3,61.46,14.34,42.55,14.18,65.98,33.95,65.98,55.66s-23.43,41.47-65.98,55.66c-40.33,13.44-93.78,20.84-150.52,20.84Zm-88.64-133.42c-21.2,3.34-40.72,7.91-57.77,13.59-36.28,12.09-57.09,27.88-57.09,43.32s20.81,31.23,57.09,43.32c39.04,13.01,91.03,20.18,146.41,20.18s107.37-7.17,146.41-20.18c36.28-12.09,57.09-27.88,57.09-43.32s-20.81-31.23-57.09-43.32c-14.72-4.91-31.28-8.98-49.17-12.15l-44.92,51.84c-2.35,2.71-6.46,3.01-9.17.66-2.71-2.35-3.01-6.46-.66-9.17l39.64-45.75c-20.56-2.95-42.57-4.78-65.34-5.38l-49.26,56.86c-2.35,2.71-6.45,3.01-9.17.66-2.71-2.35-3.01-6.46-.66-9.17l42.08-48.57c-24.36,0-48.05,1.4-70.28,4.07-.13,1.36-.68,2.69-1.68,3.78l-45.19,49.37c-2.42,2.65-6.53,2.83-9.18.41-2.65-2.42-2.83-6.54-.41-9.18l38.31-41.85Zm-73.73-120.96c-2.57,0-5.01-1.54-6.03-4.07-1.34-3.33.27-7.12,3.6-8.46,2.73-1.1,5.35-2.11,8.01-3.07,3.37-1.22,7.1.51,8.33,3.89,1.23,3.37-.51,7.1-3.89,8.33-2.52.91-5,1.87-7.6,2.91-.8.32-1.62.47-2.43.47Zm61.91-60.62c-1.18,0-2.37-.32-3.44-.99-3.05-1.9-3.97-5.91-2.07-8.96l6.75-10.83c7.08-11.31,4.97-25.94-5-34.81-.11-.1-.22-.2-.33-.31-12.56-11.42-16.03-29.91-8.43-45.13,3.59-7.2,6.71-13.4,6.71-13.4,1.61-3.21,5.52-4.5,8.73-2.89,3.21,1.61,4.5,5.52,2.89,8.73,0,0-3.11,6.19-6.69,13.37-5.05,10.11-2.68,22.4,5.76,29.9.11.1.22.2.33.31,14.45,13.12,17.44,34.55,7.06,51.12l-6.75,10.83c-1.23,1.97-3.35,3.06-5.52,3.06Zm199.03,0c-1.18,0-2.36-.32-3.44-.99-3.05-1.9-3.97-5.91-2.07-8.96,0,0,2.99-4.8,6.78-10.84,7.06-11.3,4.96-25.94-5-34.79-.04-.03-.07-.07-.11-.1-12.76-11.41-16.31-30.03-8.65-45.35,3.58-7.19,6.68-13.38,6.68-13.38,1.61-3.21,5.51-4.51,8.72-2.91,3.21,1.61,4.51,5.51,2.91,8.72,0,0-3.1,6.19-6.68,13.38-5.06,10.11-2.7,22.4,5.74,29.9.04.03.07.07.11.1,14.64,13.09,17.71,34.66,7.3,51.32-3.78,6.04-6.77,10.83-6.77,10.83-1.23,1.97-3.35,3.06-5.52,3.06Zm-100.62,0c-1.18,0-2.36-.32-3.43-.99-3.05-1.9-3.97-5.91-2.07-8.96,0,0,2.99-4.8,6.78-10.84,7.06-11.3,4.96-25.94-5-34.79-.03-.03-.06-.06-.1-.09-12.77-11.41-16.33-30.04-8.66-45.36,3.58-7.19,6.68-13.38,6.68-13.38,1.61-3.21,5.51-4.51,8.72-2.91,3.21,1.61,4.51,5.51,2.9,8.72,0,0-3.1,6.19-6.68,13.38-5.06,10.11-2.7,22.4,5.74,29.9.03.03.06.06.1.09,14.65,13.09,17.73,34.66,7.31,51.33-3.78,6.04-6.77,10.83-6.77,10.83-1.23,1.97-3.35,3.06-5.52,3.06Z"></path>
</symbol><symbol id="i082_dessert-12" xmlns="http://www.w3.org/2000/svg" viewBox="0 0 512 512">
  <path d="m375.4,472.5H95.4c-3.13,0-5.82-2.23-6.39-5.31l-34.02-183.22c-1.6.21-3.28-.17-4.69-1.2-19.66-14.38-31.4-37.48-31.4-61.77,0-42,34.03-76.21,75.96-76.5,3.27-11.07,7.86-21.73,13.67-31.76,1.8-3.1,5.78-4.17,8.88-2.36,3.11,1.8,4.16,5.78,2.36,8.88-6.09,10.51-10.71,21.78-13.71,33.5-.77,3.02-3.58,5.06-6.69,4.87-1.38-.08-2.72-.13-3.98-.13-35.01,0-63.5,28.49-63.5,63.5,0,19.81,9.41,38.67,25.23,50.65,10.42-9.76,23.94-15.11,38.27-15.11,12.87,0,25.09,4.32,35,12.28,9.91-7.96,22.13-12.28,35-12.28s25.09,4.32,35,12.28c9.91-7.96,22.13-12.28,35-12.28s25.09,4.32,35,12.28c9.91-7.96,22.13-12.28,35-12.28s25.09,4.32,35,12.28c9.91-7.96,22.13-12.28,35-12.28,14.33,0,27.85,5.35,38.27,15.11,15.82-11.98,25.23-30.84,25.23-50.65,0-35.01-28.49-63.5-63.5-63.5-1.26,0-2.6.04-3.98.13-3.1.19-5.92-1.85-6.69-4.87-15.16-59.03-68.35-100.26-129.33-100.26-24.76,0-48.93,6.84-69.9,19.77-3.06,1.89-7.06.94-8.94-2.12-1.88-3.06-.94-7.06,2.12-8.95,23.02-14.2,49.55-21.71,76.72-21.71,65.18,0,122.23,42.92,140.54,105,41.94.29,75.96,34.49,75.96,76.5,0,24.29-11.74,47.39-31.4,61.77-1.41,1.03-3.09,1.41-4.69,1.2l-34.02,183.22c-.57,3.08-3.26,5.31-6.39,5.31Zm-48.74-13h43.33l33.36-179.64c-7.79-6.68-17.6-10.32-27.96-10.32s-20.88,3.91-28.8,11.07l-19.93,178.9Zm-56.52,0h43.44l19.99-179.45c-7.83-6.8-17.72-10.51-28.18-10.51s-20.71,3.85-28.6,10.89l-6.65,179.08Zm-56.48,0h43.47l6.66-179.26c-7.86-6.92-17.84-10.7-28.4-10.7s-20.53,3.78-28.4,10.7l6.66,179.26Zm-56.45,0h43.44l-6.65-179.08c-7.9-7.04-17.96-10.89-28.6-10.89s-20.35,3.71-28.18,10.51l19.99,179.45Zm-56.41,0h43.33l-19.93-178.9c-7.92-7.15-18.07-11.07-28.8-11.07s-20.16,3.64-27.96,10.32l33.36,179.64Zm31.8-361.99c-1.57,0-3.15-.57-4.4-1.72-2.64-2.43-2.81-6.54-.38-9.18,1.43-1.55,2.92-3.1,4.54-4.73,2.54-2.54,6.65-2.54,9.19,0,2.54,2.54,2.54,6.65,0,9.19-1.5,1.5-2.86,2.92-4.17,4.34-1.28,1.39-3.03,2.1-4.78,2.1Z"></path>
</symbol><symbol id="i082_dessert-13" xmlns="http://www.w3.org/2000/svg" viewBox="0 0 512 512">
  <path d="m68.04,402.78c-2.95,0-5.54-1.99-6.29-4.86,0,0-12.43-47.67-20.57-78.83-4.84-18.6.9-38.26,14.99-51.32,10.77-9.99,22.59-20.96,26.24-24.34l-8.18-20.04c-1.28-3.15.07-6.75,3.11-8.27l69.63-34.82-2.14-10.68c-.38-1.91.11-3.89,1.35-5.4,0,0,.02-.02.03-.03,25.93-34.43,67.1-54.97,110.21-54.97s84.29,20.54,110.21,54.98c0,0,.01.02.02.02,1.23,1.51,1.73,3.49,1.35,5.4l-2.21,11.06,68.88,34.44c3.04,1.52,4.4,5.12,3.11,8.27l-8.18,20.04c3.65,3.38,15.47,14.35,26.24,24.34,14.08,13.06,19.82,32.72,14.99,51.31-8.14,31.16-20.57,78.84-20.57,78.84-.77,2.94-3.47,4.91-6.5,4.86-3.03-.1-5.6-2.28-6.17-5.26,0,0-1.82-9.42-4.05-20.96-4.08-21.02-20.16-37.84-40.68-43.08l-5.17,12.67c-1.31,3.21-4.91,4.83-8.19,3.67l-44.39-15.72-2.17,10.87c-.61,3.04-3.27,5.23-6.37,5.23h-35.07c-3.59,0-6.5-2.91-6.5-6.5s2.91-6.5,6.5-6.5h29.74l33.44-167.22c-23.56-29.95-60.07-47.75-98.25-47.75s-74.7,17.8-98.25,47.75l33.44,167.22h29.74c3.59,0,6.5,2.91,6.5,6.5s-2.91,6.5-6.5,6.5h-35.07c-3.1,0-5.77-2.19-6.37-5.23l-2.23-11.15-45.16,16c-3.27,1.16-6.88-.46-8.19-3.67l-5.17-12.67c-20.52,5.24-36.6,22.06-40.68,43.08-2.23,11.53-4.05,20.95-4.05,20.95-.58,2.98-3.14,5.16-6.17,5.26-.07,0-.14,0-.21,0Zm19.62-146.48c-5.31,4.93-14.3,13.26-22.64,21.01-10.57,9.8-14.88,24.55-11.25,38.5,4.13,15.82,9.37,35.91,13.53,51.84,6.67-22.34,24.52-39.93,46.91-46.3l-26.55-65.06Zm310.15,65.06c22.4,6.36,40.25,23.95,46.91,46.29,4.16-15.94,9.4-36.02,13.53-51.85,3.63-13.95-.68-28.7-11.25-38.5-8.35-7.75-17.33-16.08-22.65-21.01l-26.55,65.06Zm-60.12-.14l40.31,14.28,45.48-111.44-60.32-30.16-25.46,127.32Zm-249.14-97.16l45.48,111.44,41.08-14.55-25.49-127.43-61.07,30.54Zm172.26,126.14h-8.77c-3.59,0-6.5-2.91-6.5-6.5s2.91-6.5,6.5-6.5h8.77c3.59,0,6.5,2.91,6.5,6.5s-2.91,6.5-6.5,6.5Z"></path>
</symbol><symbol id="i082_dessert-14" xmlns="http://www.w3.org/2000/svg" viewBox="0 0 512 512">
  <path d="m466,472.5h-175c-3.59,0-6.5-2.91-6.5-6.5s2.91-6.5,6.5-6.5h167.82l-29.75-297.53c-.25-2.51.98-4.94,3.15-6.23,12.45-7.4,27.29-19.28,27.29-33.81,0-17.08-20.87-34.42-57.25-47.57-38.99-14.1-90.93-21.86-146.25-21.86s-107.26,7.76-146.25,21.86c-36.38,13.15-57.25,30.49-57.25,47.57,0,14.53,14.84,26.4,27.29,33.81,2.17,1.29,3.4,3.72,3.15,6.23l-29.75,297.53h167.82c3.59,0,6.5,2.91,6.5,6.5s-2.91,6.5-6.5,6.5H46c-1.84,0-3.59-.78-4.82-2.14-1.23-1.36-1.83-3.18-1.65-5.01l30.06-300.63c-19.71-12.62-30.1-27.35-30.1-42.79,0-23.21,23.38-44.45,65.83-59.8,40.37-14.6,93.88-22.64,150.67-22.64s110.3,8.04,150.67,22.64c42.45,15.35,65.83,36.58,65.83,59.8,0,15.44-10.38,30.17-30.1,42.79l30.06,300.63c.18,1.83-.42,3.65-1.65,5.01-1.23,1.36-2.98,2.14-4.82,2.14Zm-205.62,0h-8.75c-3.59,0-6.5-2.91-6.5-6.5s2.91-6.5,6.5-6.5h8.75c3.59,0,6.5,2.91,6.5,6.5s-2.91,6.5-6.5,6.5Zm170.63-35H81c-1.84,0-3.59-.78-4.82-2.14-1.23-1.36-1.83-3.18-1.65-5.01l26.49-264.89c-8.71-8.04-13.12-16.79-13.12-26.03,0-18.54,18.34-35.38,51.64-47.42,31.22-11.29,72.58-17.51,116.46-17.51s85.23,6.22,116.46,17.51c33.3,12.04,51.64,28.88,51.64,47.42,0,9.25-4.41,17.99-13.12,26.03l26.49,264.89c.18,1.83-.42,3.65-1.65,5.01-1.23,1.36-2.98,2.14-4.82,2.14Zm-342.82-13h335.63l-26.11-261.08c-.22-2.15.66-4.27,2.32-5.65,7.34-6.08,11.07-12.25,11.07-18.34,0-24.56-63.7-51.93-155.1-51.93s-155.1,27.37-155.1,51.93c0,6.09,3.72,12.26,11.07,18.34,1.67,1.38,2.54,3.5,2.32,5.65l-26.11,261.08Z"></path>
</symbol><symbol id="i082_dessert-15" xmlns="http://www.w3.org/2000/svg" viewBox="0 0 512 512">
  <path d="m466,472.5H46c-3.59,0-6.5-2.91-6.5-6.5V186c0-3.59,2.91-6.5,6.5-6.5s6.5,2.91,6.5,6.5v273.5h397.81L52.5,61.69v54.31c0,3.59-2.91,6.5-6.5,6.5s-6.5-2.91-6.5-6.5V45.98h0v-.02h0v-.02s0-.01,0-.02h0c.02-1.61.62-3.08,1.6-4.2,0,0,0,0,0,0,0,0,0,0,0,0,.27-.31.58-.6.9-.85,0,0,0,0,0,0,.99-.77,2.21-1.25,3.54-1.34.16-.01.32-.02.48-.01h104.96c1.72,0,3.38.68,4.6,1.9l315,315c1.22,1.22,1.9,2.87,1.9,4.6v104.95c0,.17,0,.33-.02.5-.09,1.32-.58,2.53-1.34,3.52,0,0,0,0,0,0h0c-.26.34-.54.64-.85.91,0,0,0,0,0,0,0,0,0,0,0,0-1.12.98-2.59,1.58-4.2,1.6,0,0-.01,0-.02,0,0,0-.01,0-.02,0,0,0-.01,0-.02,0h-.02ZM61.69,52.5l397.81,397.81v-86.62L148.31,52.5H61.69Zm54.31,385c-1.66,0-3.33-.63-4.6-1.9l-35-35c-2.54-2.54-2.54-6.65,0-9.19,2.54-2.54,6.65-2.54,9.19,0l35,35c2.54,2.54,2.54,6.65,0,9.19-1.27,1.27-2.93,1.9-4.6,1.9Zm52.5-17.5c-1.66,0-3.33-.63-4.6-1.9l-70-70c-2.54-2.54-2.54-6.65,0-9.19,2.54-2.54,6.65-2.54,9.19,0l70,70c2.54,2.54,2.54,6.65,0,9.19-1.27,1.27-2.93,1.9-4.6,1.9Zm52.5-17.5c-1.66,0-3.33-.63-4.6-1.9l-105-105c-2.54-2.54-2.54-6.65,0-9.19,2.54-2.54,6.65-2.54,9.19,0l105,105c2.54,2.54,2.54,6.65,0,9.19-1.27,1.27-2.93,1.9-4.6,1.9ZM46,161.88c-3.59,0-6.5-2.91-6.5-6.5v-8.75c0-3.59,2.91-6.5,6.5-6.5s6.5,2.91,6.5,6.5v8.75c0,3.59-2.91,6.5-6.5,6.5Z"></path>
</symbol><symbol id="i082_dessert-16" xmlns="http://www.w3.org/2000/svg" viewBox="0 0 512 512">
  <path d="m256,472.5c-25.17,0-49.46-10.49-66.71-28.79-.11-.1-.21-.2-.31-.31-4.68-5.01-11.26-7.73-18.11-7.51-.04,0-.08,0-.12,0-25.25.84-49.98-8.93-67.83-26.81-17.88-17.86-27.65-42.58-26.8-67.85,0-.04,0-.08,0-.11.23-6.83-2.5-13.43-7.51-18.11-.11-.1-.21-.21-.32-.32-18.3-17.25-28.79-41.53-28.79-66.7,0-3.59,2.91-6.5,6.5-6.5s6.5,2.91,6.5,6.5c0,21.72,9.1,42.67,24.96,57.48.12.11.23.22.33.33,7.54,7.21,11.65,17.26,11.32,27.68,0,.04,0,.08,0,.11-.74,21.7,7.64,42.94,23,58.29,15.35,15.36,36.59,23.75,58.29,23,.04,0,.09,0,.13,0,10.42-.35,20.47,3.79,27.67,11.33.11.1.22.21.32.32,14.81,15.86,35.76,24.96,57.48,24.96s42.67-9.1,57.48-24.96c.1-.11.21-.22.32-.32,7.21-7.54,17.27-11.67,27.69-11.33.04,0,.08,0,.12,0,21.69.74,42.94-7.64,58.28-23,15.36-15.35,23.75-36.59,23.01-58.29,0-.04,0-.08,0-.13-.33-10.41,3.79-20.47,11.33-27.67.1-.11.21-.22.33-.33,7.63-7.12,13.69-15.58,18-25.15,1.48-3.27,5.33-4.73,8.6-3.25,3.27,1.48,4.73,5.33,3.25,8.6-4.97,11.03-11.94,20.8-20.7,29.04-.1.1-.2.21-.31.3-5.01,4.68-7.75,11.28-7.51,18.11,0,.04,0,.08,0,.13.84,25.26-8.93,49.98-26.81,67.83-17.86,17.88-42.59,27.62-67.85,26.8-.04,0-.08,0-.11,0-6.83-.21-13.43,2.5-18.11,7.51-.1.11-.2.21-.31.31-17.25,18.3-41.54,28.79-66.71,28.79Zm0-70c-13.23,0-24-10.77-24-24s10.77-24,24-24,24,10.77,24,24-10.77,24-24,24Zm0-35c-6.06,0-11,4.93-11,11s4.93,11,11,11,11-4.93,11-11-4.93-11-11-11Zm-86.62-.88c-6.41,0-12.44-2.49-16.97-7.02-4.53-4.53-7.02-10.56-7.02-16.97s2.49-12.44,7.02-16.97c4.52-4.53,10.55-7.04,16.97-7.04s12.44,2.5,16.97,7.04c4.54,4.53,7.04,10.55,7.04,16.97s-2.5,12.45-7.04,16.98c-4.52,4.52-10.55,7.02-16.96,7.02Zm0-35c-2.94,0-5.7,1.14-7.77,3.22-4.29,4.29-4.29,11.27,0,15.56,4.29,4.29,11.26,4.29,15.55,0,2.08-2.08,3.23-4.84,3.23-7.78s-1.14-5.7-3.22-7.77c0,0,0,0-.01-.01-2.07-2.08-4.83-3.22-7.77-3.22Zm173.25,34.99c-6.15,0-12.29-2.34-16.97-7.02-4.53-4.52-7.04-10.55-7.04-16.97s2.5-12.44,7.04-16.97c4.52-4.53,10.55-7.03,16.96-7.03,6.42,0,12.45,2.5,16.98,7.04,9.35,9.35,9.35,24.58,0,33.93h0c-4.68,4.68-10.82,7.02-16.97,7.02Zm12.37-11.61h0,0Zm-12.37-23.38c-2.94,0-5.7,1.14-7.77,3.22-2.09,2.08-3.23,4.84-3.23,7.78s1.14,5.7,3.22,7.77c4.29,4.29,11.27,4.29,15.56,0,4.29-4.29,4.29-11.27,0-15.55-2.08-2.08-4.84-3.23-7.78-3.23Zm35.88-51.62c-13.23,0-24-10.77-24-24s10.77-24,24-24,24,10.77,24,24-10.77,24-24,24Zm0-35c-6.07,0-11,4.93-11,11s4.93,11,11,11,11-4.93,11-11-4.93-11-11-11Zm-122.5,35c-13.23,0-24-10.77-24-24s10.77-24,24-24,24,10.77,24,24-10.77,24-24,24Zm0-35c-6.06,0-11,4.93-11,11s4.93,11,11,11,11-4.93,11-11-4.93-11-11-11Zm-122.5,35c-13.23,0-24-10.77-24-24s10.77-24,24-24,24,10.77,24,24-10.77,24-24,24Zm0-35c-6.07,0-11,4.93-11,11s4.93,11,11,11,11-4.93,11-11-4.93-11-11-11Zm332.5,17.5c-3.59,0-6.5-2.91-6.5-6.5,0-21.71-9.1-42.67-24.96-57.48-.11-.1-.21-.21-.32-.31-7.54-7.21-11.67-17.27-11.34-27.7,0-.04,0-.08,0-.11.74-21.7-7.64-42.94-23-58.28-15.35-15.36-36.59-23.75-58.29-23.01-.04,0-.09,0-.13,0-10.45.34-20.47-3.79-27.67-11.33-.11-.1-.22-.21-.32-.32-14.82-15.86-35.77-24.96-57.48-24.96s-42.67,9.1-57.48,24.96c-.1.11-.21.22-.32.32-7.21,7.54-17.25,11.66-27.68,11.33-.04,0-.08,0-.12,0-21.7-.74-42.94,7.64-58.28,23-15.36,15.35-23.75,36.59-23.01,58.29,0,.04,0,.09,0,.13.33,10.41-3.79,20.47-11.33,27.67-.1.11-.21.22-.33.33-7.63,7.12-13.69,15.58-18,25.15-1.48,3.27-5.32,4.73-8.6,3.25-3.27-1.48-4.73-5.33-3.25-8.6,4.97-11.03,11.93-20.79,20.7-29.04.1-.1.2-.21.31-.3,5.01-4.68,7.75-11.28,7.51-18.11,0-.04,0-.08,0-.12-.84-25.26,8.93-49.98,26.81-67.83,17.86-17.88,42.59-27.63,67.84-26.8.04,0,.08,0,.11,0,6.83.22,13.43-2.5,18.11-7.51.1-.11.2-.21.31-.31,17.25-18.3,41.54-28.79,66.71-28.79s49.46,10.49,66.71,28.79c.11.1.21.2.31.31,4.68,5.01,11.27,7.74,18.11,7.51.04,0,.08,0,.13,0,25.25-.84,49.98,8.93,67.83,26.81,17.88,17.86,27.64,42.58,26.8,67.84,0,.04,0,.08,0,.11-.23,6.83,2.51,13.43,7.51,18.11.1.1.2.2.3.3,18.31,17.25,28.8,41.54,28.8,66.72,0,3.59-2.91,6.5-6.5,6.5Zm-123.38-69.12h0c-6.42,0-12.44-2.5-16.97-7.04-4.53-4.52-7.03-10.55-7.03-16.97,0-6.42,2.5-12.44,7.04-16.97,9.35-9.35,24.58-9.35,33.93,0h0c9.35,9.36,9.36,24.58,0,33.94-4.53,4.54-10.55,7.04-16.97,7.04Zm0-35c-2.82,0-5.63,1.07-7.78,3.22-2.08,2.08-3.23,4.84-3.23,7.77,0,2.94,1.14,5.7,3.22,7.77,2.08,2.09,4.84,3.23,7.78,3.23,2.94,0,5.7-1.14,7.77-3.22,4.29-4.29,4.29-11.27,0-15.56-2.14-2.14-4.96-3.22-7.78-3.22Zm-173.25,35c-6.42,0-12.45-2.5-16.97-7.04-4.52-4.52-7.02-10.55-7.02-16.96s2.49-12.44,7.02-16.97c4.53-4.53,10.55-7.02,16.97-7.02s12.44,2.49,16.97,7.02c4.53,4.52,7.04,10.55,7.04,16.97,0,6.42-2.5,12.44-7.04,16.97-4.53,4.54-10.55,7.04-16.97,7.04Zm0-35c-2.82,0-5.63,1.07-7.77,3.22-2.07,2.07-3.21,4.83-3.21,7.78s1.14,5.7,3.22,7.78c2.08,2.08,4.84,3.23,7.78,3.23s5.7-1.14,7.77-3.22h.01c2.08-2.08,3.22-4.84,3.22-7.78s-1.14-5.7-3.22-7.77c-2.15-2.15-4.97-3.22-7.79-3.22Zm86.63-.88c-13.23,0-24-10.77-24-24s10.77-24,24-24,24,10.77,24,24-10.77,24-24,24Zm0-35c-6.06,0-11,4.93-11,11s4.93,11,11,11,11-4.93,11-11-4.93-11-11-11Z"></path>
</symbol><symbol id="i082_dessert-17" xmlns="http://www.w3.org/2000/svg" viewBox="0 0 512 512">
  <path d="m168.5,472.5c-29.4,0-55.48-.46-76.91-6.11-24.97-6.58-40.55-19.8-47.64-40.42-1.17-3.39.64-7.09,4.03-8.26,3.39-1.17,7.09.64,8.26,4.03,12.05,35.05,54.13,37.75,112.26,37.75,72.18,0,116-4.27,116-63.5,0-23.98-7.22-53.2-19.5-80.52-24.51,22.01-59.32,34.53-96.5,34.53s-72.03-12.56-96.55-34.57c-6.83,15.24-12.14,31.24-15.53,46.94-.76,3.51-4.22,5.74-7.72,4.98-3.51-.76-5.74-4.22-4.98-7.72,7.46-34.58,23.62-69.83,44.34-96.71,24.41-31.68,52.23-48.42,80.45-48.42,15.72,0,31.38,5.26,46.32,15.31-.21-2.85-.32-5.79-.32-8.81,0-35.51,14.14-80.08,36.89-116.31,26.41-42.04,59.12-65.19,92.11-65.19s65.7,23.15,92.11,65.19c22.76,36.23,36.89,80.79,36.89,116.31s-13.07,55.4-39.94,66.37c-22.96,9.37-53.91,10.13-89.06,10.13-28.79,0-54.79-.52-75.86-5.86,18.6,33.75,29.86,72.66,29.86,104.35,0,33.69-13.07,55.4-39.94,66.37-22.96,9.37-53.91,10.13-89.06,10.13Zm-90.67-169.27c.22.16.43.34.63.53,22.22,21.13,55.04,33.25,90.04,33.25s68.36-12.3,90.58-33.78c-21.45-41.47-54.39-75.72-90.58-75.72s-68.85,33.56-90.67,75.73Zm179.49-28.62c.41.09.82.21,1.21.38,20.78,8.8,50.78,9.51,84.97,9.51,72.18,0,116-4.27,116-63.5,0-23.98-7.22-53.2-19.5-80.52-24.51,22.01-59.32,34.53-96.5,34.53s-71.98-12.54-96.5-34.52c-12.28,27.33-19.5,56.54-19.5,80.52,0,7.24.68,13.86,2.02,19.66.07.31.12.63.15.94,9.71,8.93,18.99,19.98,27.65,33Zm-4.43-146.34c.2.15.39.31.57.49,22.22,21.13,55.04,33.25,90.04,33.25s68.36-12.29,90.58-33.78c-21.45-41.47-54.39-75.72-90.58-75.72s-69.16,34.28-90.61,75.77ZM46,402.5c-3.59,0-6.5-2.91-6.5-6.5,0-3.34.13-6.82.39-10.33.26-3.58,3.37-6.27,6.96-6.01,3.58.26,6.27,3.38,6.01,6.96-.23,3.19-.35,6.35-.35,9.38,0,3.59-2.91,6.5-6.5,6.5Z"></path>
</symbol><symbol id="i082_dessert-18" xmlns="http://www.w3.org/2000/svg" viewBox="0 0 512 512">
  <path d="m256,472.5c-3.36,0-6.12-2.55-6.46-5.82-3.33-20.55-18.44-37.27-38.56-42.65-20.21-5.42-41.75,1.59-54.88,17.87h0c-1.23,1.52-3.1,2.45-5.09,2.45-3.59,0-6.5-2.91-6.5-6.5,0-.87.18-1.72.51-2.51,7.45-19.5,2.74-41.6-12.01-56.35-14.74-14.74-36.82-19.45-56.31-12.02-1.04.44-2.15.6-3.22.49-.91-.09-1.77-.38-2.54-.81-.8-.45-1.51-1.08-2.07-1.86-.46-.63-.8-1.35-1.01-2.13-.61-2.3.09-4.78,1.84-6.41.13-.12.26-.24.4-.35h0c16.28-13.13,23.3-34.67,17.88-54.87-5.4-20.18-22.2-35.32-42.83-38.6-3.16-.44-5.62-3.16-5.62-6.44s2.52-6.12,5.79-6.46c20.55-3.33,37.27-18.44,42.65-38.56.93-3.47,4.49-5.53,7.96-4.6,3.47.93,5.53,4.49,4.6,7.96-4.9,18.33-17.35,33.31-33.69,41.67,16.34,8.36,28.79,23.34,33.69,41.67,3.82,14.25,2.68,29.04-2.72,42.16l88.94-51.35c-4.65-9.87-7.24-20.88-7.24-32.48s2.6-22.62,7.24-32.48l-88.94-51.35c1.67,4.04,2.93,8.26,3.77,12.6.68,3.53-1.62,6.93-5.15,7.61-3.53.69-6.93-1.62-7.61-5.15-2.37-12.25-9.01-23.31-18.72-31.14h0c-.14-.11-.27-.23-.4-.35-1.75-1.63-2.45-4.11-1.84-6.4.21-.78.55-1.51,1.02-2.15.55-.76,1.23-1.37,2-1.82.79-.46,1.68-.76,2.63-.85,1.06-.1,2.16.05,3.19.49,19.49,7.42,41.57,2.72,56.31-12.02,14.75-14.75,19.45-36.84,12.01-56.34-.33-.79-.51-1.65-.51-2.52,0-3.59,2.91-6.5,6.5-6.5,1.99,0,3.87.93,5.09,2.45h0c13.13,16.28,34.67,23.3,54.87,17.88,20.13-5.38,35.24-22.11,38.57-42.66.34-3.27,3.11-5.81,6.46-5.81s6.12,2.54,6.46,5.81c3.33,20.55,18.44,37.28,38.56,42.66,20.21,5.42,41.75-1.6,54.88-17.88h0c1.23-1.52,3.1-2.45,5.09-2.45,3.59,0,6.5,2.91,6.5,6.5,0,.87-.18,1.73-.51,2.52-7.44,19.5-2.73,41.59,12.01,56.34,14.74,14.74,36.82,19.45,56.31,12.02,1.03-.44,2.13-.6,3.19-.49.93.09,1.81.38,2.58.82.79.45,1.5,1.08,2.06,1.86.45.62.79,1.33.99,2.08.63,2.31-.08,4.81-1.83,6.45-.13.12-.26.24-.39.34h0c-16.28,13.13-23.3,34.67-17.88,54.87,5.4,20.19,22.2,35.32,42.82,38.59,3.17.44,5.62,3.16,5.62,6.44s-2.52,6.12-5.79,6.46c-20.55,3.33-37.28,18.44-42.66,38.56-.93,3.47-4.49,5.53-7.96,4.6-3.47-.93-5.53-4.49-4.6-7.96,4.9-18.33,17.35-33.31,33.69-41.67-16.34-8.36-28.79-23.34-33.69-41.67-3.82-14.25-2.68-29.04,2.72-42.16l-88.94,51.35c4.65,9.87,7.24,20.88,7.24,32.48s-2.6,22.62-7.24,32.48l88.94,51.35c-1.67-4.04-2.93-8.26-3.77-12.6-.68-3.53,1.62-6.93,5.15-7.61,3.53-.69,6.94,1.62,7.61,5.15,2.37,12.25,9.01,23.31,18.72,31.14h0c.14.11.27.23.4.35,1.76,1.64,2.46,4.14,1.83,6.46-.21.75-.54,1.45-.99,2.07-.55.78-1.25,1.4-2.04,1.85-.77.45-1.65.74-2.58.83-1.07.11-2.18-.04-3.21-.49-19.49-7.42-41.57-2.72-56.31,12.02-14.75,14.75-19.45,36.85-12.01,56.35.33.79.51,1.65.51,2.51,0,3.59-2.91,6.5-6.5,6.5-1.99,0-3.87-.93-5.09-2.45h0c-13.13-16.28-34.67-23.3-54.87-17.88-20.13,5.38-35.24,22.11-38.57,42.65-.34,3.27-3.11,5.82-6.46,5.82Zm-58.72-63.28c5.68,0,11.41.74,17.05,2.25,14.26,3.81,26.5,12.2,35.16,23.44v-102.68c-23.25-1.96-43.57-14.37-56.24-32.5l-88.96,51.37c14.07,1.88,27.46,8.28,37.89,18.72,13.41,13.41,20.15,31.69,19.21,50.03,10.66-6.91,23.13-10.61,35.88-10.61Zm65.22-77v102.68c8.67-11.24,20.91-19.62,35.17-23.44,18.32-4.92,37.52-1.62,52.93,8.36-.94-18.34,5.81-36.62,19.21-50.03,10.43-10.43,23.83-16.83,37.89-18.72l-88.96-51.37c-12.67,18.13-32.99,30.53-56.24,32.5Zm-6.5-139.73c-35.01,0-63.5,28.49-63.5,63.5s28.49,63.5,63.5,63.5,63.5-28.49,63.5-63.5-28.49-63.5-63.5-63.5Zm-151.7-31.59l88.96,51.37c12.67-18.13,32.99-30.53,56.24-32.5v-102.68c-8.67,11.24-20.91,19.62-35.17,23.44-18.31,4.91-37.52,1.62-52.93-8.36.94,18.34-5.81,36.62-19.21,50.03-10.43,10.43-23.83,16.83-37.89,18.71Zm158.2,18.87c23.25,1.96,43.57,14.37,56.24,32.5l88.96-51.36c-14.07-1.88-27.46-8.28-37.89-18.71-13.41-13.41-20.15-31.69-19.21-50.03-15.4,9.98-34.61,13.28-52.93,8.36-14.26-3.81-26.5-12.2-35.16-23.44v102.68Z"></path>
</symbol><symbol id="i082_dessert-19" xmlns="http://www.w3.org/2000/svg" viewBox="0 0 512 512">
  <path d="m431,420h-140c-3.59,0-6.5-2.91-6.5-6.5s2.91-6.5,6.5-6.5h140c7.5,0,14.84-3.04,20.15-8.35,3.75-3.75,6.37-8.53,7.59-13.65H53.26c1.21,5.12,3.83,9.9,7.59,13.65,5.31,5.31,12.65,8.35,20.15,8.35h140c3.59,0,6.5,2.91,6.5,6.5s-2.91,6.5-6.5,6.5H81c-10.92,0-21.61-4.43-29.34-12.16-7.73-7.73-12.16-18.42-12.16-29.34,0-3.59,2.91-6.5,6.5-6.5h28.5v-98.5c0-3.59,2.91-6.5,6.5-6.5h28.5v-98.5c0-3.59,2.91-6.5,6.5-6.5h114.9c-3.56-5.02-5.66-11.15-5.66-17.75,0-14.39,9.95-26.51,23.34-29.83-.02-.51-.04-1.03-.04-1.57,0-4.02.76-8.73,3.5-12.78,2.18-3.23,6.49-7.24,14.63-8.04,3.58-.35,6.75,2.27,7.1,5.84.02.21.03.42.03.63,0,3.31-2.51,6.14-5.87,6.46-3.74.36-4.77,1.87-5.11,2.36-.97,1.42-1.28,3.46-1.28,5.41,0,.43.01.86.04,1.27,14.3,2.63,25.17,15.19,25.17,30.23,0,6.61-2.1,12.74-5.66,17.75h114.9c3.59,0,6.5,2.91,6.5,6.5v98.5h28.5c3.59,0,6.5,2.91,6.5,6.5v98.5h28.5c3.59,0,6.5,2.91,6.5,6.5,0,10.92-4.43,21.61-12.16,29.34-7.73,7.73-18.42,12.16-29.34,12.16Zm-343.5-48h337v-22H87.5v22Zm0-35h337v-22H87.5v22Zm0-35h337v-22H87.5v22Zm35-35h267v-57h-22v10.56c0,6.44-2.61,12.74-7.16,17.28-4.54,4.55-10.84,7.15-17.28,7.15s-12.26-2.51-16.66-6.88c-4.4-4.42-6.9-10.49-6.9-16.67v-11.46h-39.5v10.56c0,6.44-2.61,12.74-7.15,17.28-4.55,4.55-10.85,7.15-17.28,7.15s-12.26-2.51-16.66-6.88c-4.4-4.42-6.9-10.49-6.9-16.67v-11.46h-39.5v10.56c0,6.44-2.61,12.74-7.15,17.28-4.55,4.55-10.85,7.15-17.28,7.15s-12.26-2.51-16.66-6.88c-4.4-4.42-6.9-10.49-6.9-16.67v-11.46h-22v57Zm210-45.54c0,2.77,1.13,5.5,3.1,7.47,1.95,1.94,4.68,3.07,7.45,3.07,3.03,0,5.98-1.22,8.11-3.35,2.13-2.13,3.35-5.08,3.35-8.09v-17.06c0-3.59,2.91-6.5,6.5-6.5h28.5v-22H122.5v22h28.5c3.59,0,6.5,2.91,6.5,6.5v17.96c0,2.77,1.13,5.5,3.1,7.47,1.95,1.94,4.68,3.07,7.45,3.07,3.03,0,5.98-1.22,8.11-3.35,2.13-2.13,3.35-5.07,3.35-8.09v-17.06c0-3.59,2.91-6.5,6.5-6.5h52.5c3.59,0,6.5,2.91,6.5,6.5v17.96c0,2.77,1.13,5.5,3.1,7.47,1.95,1.94,4.68,3.07,7.45,3.07,3.03,0,5.98-1.22,8.11-3.35,2.13-2.13,3.35-5.07,3.35-8.09v-17.06c0-3.59,2.91-6.5,6.5-6.5h52.5c3.59,0,6.5,2.91,6.5,6.5v17.96Zm-76.5-59.46c9.79,0,17.75-7.96,17.75-17.75s-7.96-17.74-17.75-17.74-17.75,7.96-17.75,17.74,7.96,17.75,17.75,17.75Zm4.38,258h-8.75c-3.59,0-6.5-2.91-6.5-6.5s2.91-6.5,6.5-6.5h8.75c3.59,0,6.5,2.91,6.5,6.5s-2.91,6.5-6.5,6.5Z"></path>
</symbol><symbol id="i082_dessert-2" xmlns="http://www.w3.org/2000/svg" viewBox="0 0 512 512">
  <path d="m183.44,416.38c-87.44,0-143.94-36.27-143.94-92.4,0-17.15,5.23-35.28,15.13-52.45,1.79-3.11,5.77-4.18,8.88-2.38,3.11,1.79,4.18,5.77,2.38,8.88-8.76,15.19-13.39,31.09-13.39,45.96,0,58.61,70.54,79.4,130.94,79.4s130.94-20.79,130.94-79.4c0-25.96-14.27-54.62-38.18-76.68-25.91-23.91-58.85-37.08-92.76-37.08-28.56,0-56.32,9.27-80.29,26.82-2.9,2.12-6.96,1.49-9.08-1.41-2.12-2.9-1.49-6.96,1.41-9.08,26.21-19.19,56.63-29.33,87.97-29.33,1.57,0,3.14.03,4.7.08,6.99-25.25,24.12-50.04,47.64-68.69,26.83-21.27,59.78-32.99,92.78-32.99,37.18,0,73.25,14.39,101.57,40.51,26.53,24.48,42.37,56.72,42.37,86.25,0,56.13-56.5,92.4-143.94,92.4-.56,0-1.12,0-1.68,0,.33,3.09.5,6.16.5,9.21,0,56.13-56.5,92.4-143.94,92.4Zm141.11-114.63c1.33.02,2.67.03,4.01.03,60.4,0,130.94-20.79,130.94-79.4,0-25.96-14.27-54.63-38.18-76.69-25.91-23.9-58.85-37.07-92.76-37.07-63.17,0-113.53,45.34-127.18,89.72,30.71,3.85,59.9,17.5,83.63,39.4,19.97,18.43,33.89,41.25,39.54,64.01Zm-174,13.03c-1.7,0-3.36-.67-4.6-1.9-1.74-1.74-2.35-4.32-1.57-6.65l9.8-29.39-25.75-30.11c-1.82-2.12-2.07-5.17-.64-7.56,1.43-2.4,4.24-3.61,6.97-3.01l48.67,10.66,48.67-10.66c2.73-.6,5.53.62,6.97,3.01,1.43,2.4,1.18,5.44-.64,7.56l-25.75,30.11,9.8,29.39c.78,2.34.17,4.91-1.57,6.65-1.74,1.74-4.32,2.35-6.65,1.57l-30.83-10.28-30.83,10.28c-.67.22-1.37.33-2.05.33Zm.35-61.79l15.55,18.18c1.48,1.73,1.95,4.12,1.23,6.28l-6.85,20.55,20.55-6.85c1.33-.44,2.78-.44,4.11,0l20.55,6.85-6.85-20.55c-.72-2.16-.26-4.55,1.23-6.28l15.55-18.18-31.14,6.82c-.92.2-1.86.2-2.78,0l-31.15-6.82Zm-75.5,7.19c-1.51,0-3.03-.52-4.26-1.59-2.71-2.35-3-6.46-.64-9.17,1.58-1.81,3.27-3.66,5.17-5.64,2.49-2.59,6.6-2.67,9.19-.18,2.59,2.49,2.67,6.6.18,9.19-1.75,1.82-3.3,3.51-4.73,5.15-1.29,1.48-3.09,2.24-4.91,2.24Zm286.03-47c-.69,0-1.38-.11-2.05-.33l-30.83-10.28-30.83,10.28c-2.34.78-4.91.17-6.65-1.57s-2.35-4.32-1.57-6.65l9.8-29.41-25.75-30.09c-1.82-2.12-2.07-5.17-.64-7.56,1.43-2.4,4.24-3.61,6.97-3.01l48.67,10.66,48.67-10.66c2.73-.6,5.53.62,6.97,3.01,1.43,2.4,1.18,5.44-.64,7.56l-25.75,30.09,9.8,29.41c.78,2.34.17,4.91-1.57,6.65-1.24,1.24-2.9,1.9-4.6,1.9Zm-32.88-23.96c.69,0,1.39.11,2.06.33l20.55,6.85-6.85-20.57c-.72-2.16-.25-4.55,1.23-6.28l15.54-18.16-31.14,6.82c-.92.2-1.86.2-2.78,0l-31.14-6.82,15.54,18.16c1.48,1.73,1.95,4.12,1.23,6.28l-6.85,20.57,20.55-6.85c.67-.22,1.36-.33,2.06-.33Z"></path>
</symbol><symbol id="i082_dessert-20" xmlns="http://www.w3.org/2000/svg" viewBox="0 0 512 512">
  <path d="m431,420h-140c-3.59,0-6.5-2.91-6.5-6.5s2.91-6.5,6.5-6.5h140c7.5,0,14.84-3.04,20.15-8.35,3.75-3.75,6.37-8.53,7.59-13.65H53.26c1.21,5.12,3.83,9.9,7.59,13.65,5.31,5.31,12.65,8.35,20.15,8.35h140c3.59,0,6.5,2.91,6.5,6.5s-2.91,6.5-6.5,6.5H81c-10.92,0-21.61-4.43-29.34-12.16-7.73-7.73-12.16-18.42-12.16-29.34,0-3.59,2.91-6.5,6.5-6.5h28.5v-203.5c0-3.59,2.91-6.5,6.5-6.5h149.9c-3.56-5.02-5.66-11.15-5.66-17.75,0-14.39,9.95-26.51,23.34-29.83-.21-4.31.36-9.76,3.46-14.34,2.18-3.23,6.5-7.24,14.63-8.04,3.58-.35,6.75,2.27,7.1,5.84.35,3.57-2.27,6.75-5.84,7.1-3.74.36-4.77,1.87-5.11,2.36-1.19,1.74-1.39,4.38-1.24,6.69,14.3,2.63,25.17,15.19,25.17,30.23,0,6.61-2.1,12.74-5.66,17.75h149.9c3.59,0,6.5,2.91,6.5,6.5v203.5h28.5c3.59,0,6.5,2.91,6.5,6.5,0,10.92-4.43,21.61-12.16,29.34-7.73,7.73-18.42,12.16-29.34,12.16Zm-28.5-48h22v-197H87.5v22h168.5c3.59,0,6.5,2.91,6.5,6.5v17.52c0,2.94,1.14,5.69,3.21,7.75,2.08,2.09,4.84,3.23,7.77,3.23s5.72-1.14,7.78-3.21c2.1-2.08,3.24-4.83,3.24-7.77v-17.52c0-3.59,2.91-6.5,6.5-6.5s6.5,2.91,6.5,6.5v52.5c0,2.9,1.17,5.73,3.21,7.77,2.05,2.06,4.88,3.23,7.79,3.23s5.73-1.17,7.77-3.21c2.06-2.05,3.24-4.88,3.24-7.79v-52.5c0-3.59,2.91-6.5,6.5-6.5h70c3.59,0,6.5,2.91,6.5,6.5v168.5Zm-315,0h302v-162h-57v46c0,6.34-2.57,12.53-7.04,16.98-4.43,4.45-10.62,7.02-16.96,7.02s-12.53-2.57-16.98-7.04c-4.45-4.43-7.02-10.62-7.02-16.96v-13.65c-3.35,1.73-7.09,2.65-10.98,2.65-6.45,0-12.48-2.5-17-7.04-4.52-4.5-7.02-10.52-7.02-16.94v-11.02H87.5v92h273.5c3.59,0,6.5,2.91,6.5,6.5s-2.91,6.5-6.5,6.5H87.5v22h273.5c3.59,0,6.5,2.91,6.5,6.5s-2.91,6.5-6.5,6.5H87.5v22Zm168.5-245.49c-9.79,0-17.75,7.96-17.75,17.74s7.96,17.75,17.75,17.75,17.75-7.96,17.75-17.75-7.96-17.74-17.75-17.74Zm4.38,293.49h-8.75c-3.59,0-6.5-2.91-6.5-6.5s2.91-6.5,6.5-6.5h8.75c3.59,0,6.5,2.91,6.5,6.5s-2.91,6.5-6.5,6.5Z"></path>
</symbol><symbol id="i082_dessert-3" xmlns="http://www.w3.org/2000/svg" viewBox="0 0 512 512">
  <path d="m203.5,472.5c-3.59,0-6.5-2.91-6.5-6.5s2.91-6.5,6.5-6.5c16.97,0,32.91-6.61,44.89-18.6,12-11.99,18.61-27.93,18.61-44.9v-28.5H70v28.5c0,16.97,6.61,32.91,18.6,44.89,11.99,12,27.93,18.61,44.9,18.61,3.59,0,6.5,2.91,6.5,6.5s-2.91,6.5-6.5,6.5c-20.44,0-39.65-7.96-54.09-22.42-14.45-14.43-22.41-33.64-22.41-54.08v-28.5h-11c-3.59,0-6.5-2.91-6.5-6.5v-35c0-3.59,2.91-6.5,6.5-6.5h11v-28.5c0-20.44,7.96-39.65,22.42-54.09,14.43-14.45,33.64-22.41,54.08-22.41h70c9.93,0,19.56,1.88,28.5,5.46v-27.46h-11c-3.59,0-6.5-2.91-6.5-6.5v-35c0-3.59,2.91-6.5,6.5-6.5h11v-28.5c0-20.44,7.96-39.65,22.42-54.09,14.43-14.45,33.64-22.41,54.08-22.41h70c20.44,0,39.65,7.96,54.09,22.42,14.45,14.43,22.41,33.64,22.41,54.08v28.5h11c3.59,0,6.5,2.91,6.5,6.5v35c0,3.59-2.91,6.5-6.5,6.5h-11v28.5c0,20.44-7.96,39.65-22.42,54.09-14.43,14.45-33.64,22.41-54.08,22.41h-70c-9.78,0-19.46-1.89-28.5-5.51v27.51h11c3.59,0,6.5,2.91,6.5,6.5v35c0,3.59-2.91,6.5-6.5,6.5h-11v28.5c0,20.44-7.96,39.65-22.42,54.09-14.43,14.45-33.64,22.41-54.08,22.41Zm70-118h11v-22H52.5v22h221Zm-203.5-35h197v-28.5c0-16.97-6.61-32.91-18.6-44.89-3.5-3.5-7.33-6.54-11.43-9.1-.77-.28-1.47-.7-2.08-1.24-9.46-5.4-20.2-8.27-31.39-8.27h-70c-16.97,0-32.91,6.61-44.89,18.6-12,11.99-18.61,27.93-18.61,44.9v28.5Zm208.75-42.4c9.15,4.85,19.39,7.4,29.75,7.4h70c16.97,0,32.91-6.61,44.89-18.6,12-11.99,18.61-27.93,18.61-44.9v-28.5h-197v28.5c0,1.94.09,3.91.28,5.89,4.39,2.88,8.52,6.23,12.31,10.03,11.12,11.1,18.39,25.03,21.16,40.18Zm169.75-97.6h11v-22h-232v22h221Zm-203.5-35h197v-28.5c0-16.97-6.61-32.91-18.6-44.89-11.99-12-27.93-18.61-44.9-18.61h-70c-16.97,0-32.91,6.61-44.89,18.6-12,11.99-18.61,27.93-18.61,44.9v28.5Zm-72.12,328h-8.75c-3.59,0-6.5-2.91-6.5-6.5s2.91-6.5,6.5-6.5h8.75c3.59,0,6.5,2.91,6.5,6.5s-2.91,6.5-6.5,6.5Z"></path>
</symbol><symbol id="i082_dessert-4" xmlns="http://www.w3.org/2000/svg" viewBox="0 0 512 512">
  <path d="m466,472.5h-175c-3.59,0-6.5-2.91-6.5-6.5s2.91-6.5,6.5-6.5h168.5V52.5H52.5v407h168.5c3.59,0,6.5,2.91,6.5,6.5s-2.91,6.5-6.5,6.5H46c-3.59,0-6.5-2.91-6.5-6.5V46c0-3.59,2.91-6.5,6.5-6.5h420c3.59,0,6.5,2.91,6.5,6.5v420c0,3.59-2.91,6.5-6.5,6.5Zm-205.62,0h-8.75c-3.59,0-6.5-2.91-6.5-6.5s2.91-6.5,6.5-6.5h8.75c3.59,0,6.5,2.91,6.5,6.5s-2.91,6.5-6.5,6.5Zm170.62-35H81c-3.59,0-6.5-2.91-6.5-6.5V81c0-3.59,2.91-6.5,6.5-6.5h350c3.59,0,6.5,2.91,6.5,6.5v350c0,3.59-2.91,6.5-6.5,6.5Zm-28.5-13h22v-22h-22v22Zm-35,0h22v-28.5c0-3.59,2.91-6.5,6.5-6.5h28.5v-22h-28.5c-3.59,0-6.5-2.91-6.5-6.5v-87.5c0-3.59,2.91-6.5,6.5-6.5h28.5v-22h-28.5c-3.59,0-6.5-2.91-6.5-6.5v-87.5c0-3.59,2.91-6.5,6.5-6.5h28.5v-22h-28.5c-3.59,0-6.5-2.91-6.5-6.5v-28.5h-22v28.5c0,3.59-2.91,6.5-6.5,6.5h-87.5c-3.59,0-6.5-2.91-6.5-6.5v-28.5h-22v28.5c0,3.59-2.91,6.5-6.5,6.5h-87.5c-3.59,0-6.5-2.91-6.5-6.5v-28.5h-22v28.5c0,3.59-2.91,6.5-6.5,6.5h-28.5v22h28.5c3.59,0,6.5,2.91,6.5,6.5v87.5c0,3.59-2.91,6.5-6.5,6.5h-28.5v22h28.5c3.59,0,6.5,2.91,6.5,6.5v87.5c0,3.59-2.91,6.5-6.5,6.5h-28.5v22h28.5c3.59,0,6.5,2.91,6.5,6.5v28.5h22v-28.5c0-3.59,2.91-6.5,6.5-6.5h87.5c3.59,0,6.5,2.91,6.5,6.5v28.5h22v-28.5c0-3.59,2.91-6.5,6.5-6.5h87.5c3.59,0,6.5,2.91,6.5,6.5v28.5Zm-87.5,0h74.5v-22h-74.5v22Zm-122.5,0h74.5v-22h-74.5v22Zm-70,0h22v-22h-22v22Zm315-70h22v-74.5h-22v74.5Zm-315,0h22v-74.5h-22v74.5Zm315-122.5h22v-74.5h-22v74.5Zm-315,0h22v-74.5h-22v74.5Zm315-122.5h22v-22h-22v22Zm-122.5,0h74.5v-22h-74.5v22Zm-122.5,0h74.5v-22h-74.5v22Zm-70,0h22v-22h-22v22Zm273.5,258h-87.5c-3.59,0-6.5-2.91-6.5-6.5v-87.5c0-3.59,2.91-6.5,6.5-6.5h87.5c3.59,0,6.5,2.91,6.5,6.5v87.5c0,3.59-2.91,6.5-6.5,6.5Zm-81-13h74.5v-74.5h-74.5v74.5Zm-41.5,13h-87.5c-3.59,0-6.5-2.91-6.5-6.5v-87.5c0-3.59,2.91-6.5,6.5-6.5h87.5c3.59,0,6.5,2.91,6.5,6.5v87.5c0,3.59-2.91,6.5-6.5,6.5Zm-81-13h74.5v-74.5h-74.5v74.5Zm203.5-109.5h-87.5c-3.59,0-6.5-2.91-6.5-6.5v-87.5c0-3.59,2.91-6.5,6.5-6.5h87.5c3.59,0,6.5,2.91,6.5,6.5v87.5c0,3.59-2.91,6.5-6.5,6.5Zm-81-13h74.5v-74.5h-74.5v74.5Zm-41.5,13h-87.5c-3.59,0-6.5-2.91-6.5-6.5v-87.5c0-3.59,2.91-6.5,6.5-6.5h87.5c3.59,0,6.5,2.91,6.5,6.5v87.5c0,3.59-2.91,6.5-6.5,6.5Zm-81-13h74.5v-74.5h-74.5v74.5Z"></path>
</symbol><symbol id="i082_dessert-5" xmlns="http://www.w3.org/2000/svg" viewBox="0 0 512 512">
  <path d="m466,402.5H46c-3.59,0-6.5-2.91-6.5-6.5v-35c0-3.59,2.91-6.5,6.5-6.5h31.12c-24.07-26.83-37.62-61.93-37.62-98.5,0-29.77,8.78-58.44,25.4-82.89,2.02-2.97,6.06-3.74,9.03-1.72,2.97,2.02,3.74,6.06,1.72,9.03-15.14,22.29-23.15,48.43-23.15,75.59,0,37.46,15.58,73.22,42.83,98.5h37.27c-34.81-18.76-58.56-55.87-58.56-98.5,0-61.48,49.41-111.5,110.13-111.5s110.13,50.02,110.13,111.5c0,28.09-10.28,54.74-29,75.36,5.58,4.76,11.69,8.89,18.17,12.28,20.88-24.29,32.37-55.37,32.37-87.64,0-73.61-59.06-133.5-131.66-133.5-22.18,0-44.11,5.71-63.42,16.5-3.13,1.75-7.09.63-8.85-2.5-1.75-3.13-.63-7.09,2.5-8.85,21.24-11.87,45.37-18.15,69.76-18.15,26.21,0,50.81,7.1,72.04,19.49.42-.43.91-.81,1.46-1.12,21.34-12.02,45.6-18.37,70.14-18.37,79.78,0,144.68,65.72,144.68,146.5,0,36.57-13.55,71.67-37.62,98.5h31.12c3.59,0,6.5,2.91,6.5,6.5v35c0,3.59-2.91,6.5-6.5,6.5Zm-138.18-13h131.68v-22h-40.28s-.04,0-.06,0h-96.82c-.6,0-1.19-.08-1.74-.24-10.54-.69-20.87-2.9-30.8-6.6,0,0-.01,0-.02,0-15.49-5.78-29.74-15.22-41.21-27.29,0,0,0,0,0,0-19.91-20.88-30.88-48.36-30.88-77.37s10.28-54.73,29-75.35c-5.56-4.75-11.64-8.88-18.16-12.28-20.88,24.3-32.37,55.37-32.37,87.62s11.69,63.9,32.92,88.28c0,0,0,0,0,0,10.6,12.16,23.11,22.17,37.2,29.75,0,0,0,0,.01,0,18.83,10.11,40.1,15.46,61.52,15.46Zm-84.03,0h24.43c-2.73-1.25-5.43-2.59-8.08-4.01,0,0,0,0,0,0h0c-1.83-.98-3.63-2-5.41-3.06-.57,1.26-1.54,2.36-2.85,3.06-2.65,1.42-5.35,2.76-8.08,4.01Zm-191.28,0h131.68c20.64,0,41.14-4.96,59.45-14.37-6.7-4.86-12.98-10.3-18.8-16.28-.69.79-1.58,1.43-2.63,1.82-12.18,4.53-24.97,6.83-38.02,6.83h-91.34s-.04,0-.05,0h-40.28v22Zm326.9-35h37.27c27.25-25.28,42.83-61.04,42.83-98.5,0-73.61-59.07-133.5-131.68-133.5-20.69,0-41.16,4.96-59.49,14.4,6.5,4.72,12.6,9.98,18.24,15.7,13.1-5.38,26.97-8.1,41.26-8.1,60.73,0,110.14,50.02,110.14,111.5,0,42.63-23.75,79.75-58.56,98.5Zm-51.58,0c53.56,0,97.14-44.19,97.14-98.5s-43.57-98.5-97.14-98.5c-11.01,0-21.74,1.84-31.97,5.46,20.61,25.32,33,57.74,33,93.04s-11.67,66.88-32.95,93.05c10.26,3.62,20.99,5.45,31.92,5.45Zm-143.64,0c10.94,0,21.67-1.83,31.93-5.45-21.28-26.17-32.95-59.02-32.95-93.05s11.66-66.86,32.95-93.04c-10-3.54-20.75-5.46-31.92-5.46-53.56,0-97.13,44.19-97.13,98.5s43.57,98.5,97.13,98.5Zm71.81-164.76c-16.34,18.17-25.31,41.58-25.31,66.26s8.97,48.1,25.32,66.27c16.35-18.17,25.31-41.59,25.31-66.27s-9.6-48.75-25.32-66.26Zm-168.78-26.94c-1.66,0-3.33-.63-4.6-1.9-2.54-2.54-2.54-6.65,0-9.19,1.84-1.84,3.81-3.7,5.85-5.54,2.67-2.4,6.78-2.18,9.18.49,2.4,2.67,2.18,6.78-.49,9.18-1.87,1.68-3.67,3.39-5.35,5.07-1.27,1.27-2.93,1.9-4.6,1.9Z"></path>
</symbol><symbol id="i082_dessert-6" xmlns="http://www.w3.org/2000/svg" viewBox="0 0 512 512">
  <path d="m430.96,420h-139.96c-3.59,0-6.5-2.91-6.5-6.5s2.91-6.5,6.5-6.5h139.96c7.62,0,14.79-2.97,20.19-8.36,5.38-5.39,8.34-12.56,8.34-20.18v-14.37c0-10.72-5.33-20.67-14.25-26.62-.07-.05-.14-.09-.2-.14-16.37-10.89-33.42-20.24-50.96-28.03-.1.82-.36,1.63-.79,2.39l-26.18,46.36c-1.22,2.17-3.55,3.45-6.06,3.29-2.48-.15-4.66-1.71-5.61-4.01l-27.09-65.62c-.54-1.32-.62-2.71-.31-3.99-10.13-2.2-20.35-3.93-30.61-5.19-.11.78-.37,1.56-.78,2.28l-35,61.97c-1.15,2.04-3.32,3.3-5.66,3.3s-4.51-1.26-5.66-3.3l-35-61.97c-.41-.73-.67-1.5-.78-2.28-13.02,1.6-25.97,3.96-38.78,7.07-.04.71-.2,1.42-.48,2.11l-27.11,65.62c-.95,2.3-3.13,3.85-5.61,4.01-2.5.15-4.83-1.13-6.06-3.29l-25.69-45.5c-15.05,7.1-29.7,15.35-43.86,24.78-.07.05-.14.1-.21.15-8.93,5.95-14.26,15.9-14.26,26.62v14.37c0,7.62,2.97,14.79,8.36,20.19,5.39,5.38,12.56,8.34,20.18,8.34h139.96c3.59,0,6.5,2.91,6.5,6.5s-2.91,6.5-6.5,6.5H81.04c-11.08,0-21.51-4.32-29.37-12.15-7.85-7.87-12.17-18.3-12.17-29.38v-14.37c0-15,7.42-28.93,19.86-37.31.07-.05.14-.1.21-.14h0c58.37-38.91,126.3-59.47,196.44-59.47s138.07,20.56,196.44,59.47h0c.07.04.13.09.2.14,12.44,8.38,19.87,22.31,19.87,37.31v14.37c0,11.08-4.32,21.51-12.15,29.37-7.87,7.85-18.3,12.17-29.38,12.17Zm-308.23-112.79l18.53,32.82,19.13-46.31c-12.74,3.73-25.32,8.23-37.66,13.49Zm219.43-16.11l20.2,48.92,19.61-34.72c.17-.31.37-.6.58-.86-13.25-5.31-26.73-9.75-40.39-13.34Zm-113.98-9.97l27.81,49.23,27.81-49.23c-18.51-1.52-37.1-1.52-55.62,0Zm32.18,138.86h-8.75c-3.59,0-6.5-2.91-6.5-6.5s2.91-6.5,6.5-6.5h8.75c3.59,0,6.5,2.91,6.5,6.5s-2.91,6.5-6.5,6.5Zm170.59-175.17H81.04c-11.1,0-21.53-4.32-29.38-12.16-7.73-7.73-12.16-18.44-12.16-29.38v-14.35c0-15,7.41-28.92,19.83-37.31.08-.06.15-.11.23-.16,58.37-38.91,126.3-59.47,196.44-59.47s138.07,20.56,196.44,59.47c.07.05.15.1.22.15,12.43,8.38,19.84,22.31,19.84,37.32v14.35c0,10.94-4.43,21.65-12.16,29.38-7.84,7.84-18.27,12.16-29.38,12.16ZM66.76,162.31h0c-8.93,5.95-14.26,15.91-14.26,26.63v14.35c0,7.52,3.04,14.88,8.35,20.18,5.39,5.38,12.55,8.35,20.18,8.35h349.93c7.63,0,14.8-2.97,20.18-8.35,5.31-5.31,8.35-12.66,8.35-20.18v-14.35c0-10.73-5.33-20.68-14.25-26.63h0c-.06-.04-.12-.08-.18-.13-16.37-10.9-33.43-20.25-50.97-28.04-.1.82-.36,1.63-.79,2.39l-26.18,46.36c-1.22,2.17-3.55,3.45-6.06,3.29-2.48-.15-4.66-1.71-5.61-4.01l-27.09-65.62c-.54-1.31-.62-2.71-.31-3.99-10.13-2.2-20.35-3.93-30.61-5.19-.11.78-.37,1.56-.78,2.28l-35,61.97c-1.15,2.04-3.32,3.3-5.66,3.3s-4.51-1.26-5.66-3.3l-35-61.97c-.41-.73-.67-1.5-.78-2.29-13.02,1.6-25.97,3.96-38.78,7.07-.04.71-.2,1.42-.48,2.11l-27.11,65.62c-.95,2.3-3.13,3.85-5.61,4.01-2.5.16-4.83-1.13-6.06-3.29l-25.69-45.5c-15.06,7.1-29.72,15.36-43.88,24.79-.06.04-.13.09-.19.13Zm55.98-30.27l18.54,32.82,19.13-46.31c-12.74,3.73-25.32,8.23-37.67,13.49Zm219.43-16.1l20.2,48.92,19.61-34.72c.17-.31.37-.6.58-.86-13.24-5.31-26.73-9.76-40.39-13.34Zm-113.98-9.97l27.81,49.23,27.81-49.23c-18.51-1.52-37.1-1.52-55.62,0Z"></path>
</symbol><symbol id="i082_dessert-7" xmlns="http://www.w3.org/2000/svg" viewBox="0 0 512 512">
  <path d="m430.54,472.5c-.08,0-.17,0-.25,0l-1.03-.03c-.06,0-.12,0-.18,0l-.66-.04c-.05,0-.11,0-.16-.01l-1.1-.09c-.07,0-.14-.01-.21-.02l-.81-.09s-.07,0-.1-.01l-.56-.07c-.07,0-.13-.02-.2-.03l-1.21-.18c-.12-.02-.23-.04-.34-.06l-.7-.13c-.1-.02-.2-.04-.29-.06l-.71-.15c-.17-.04-.35-.08-.52-.13l-.26-.05c-.11-.02-.22-.05-.33-.08l-.74-.19c-.07-.02-.14-.04-.21-.06l-1.38-.41s-.1-.03-.15-.05l-1.61-.54c-.16-.06-.32-.12-.47-.19l-.58-.22s-.1-.04-.15-.06l-.8-.32c-.05-.02-.11-.04-.16-.07-.39-.17-.79-.35-1.18-.53-5.46,2.54-11.44,3.86-17.49,3.86s-12.04-1.33-17.5-3.87c-5.46,2.54-11.44,3.87-17.5,3.87s-12.04-1.33-17.5-3.87c-5.46,2.54-11.44,3.87-17.5,3.87-7.28,0-14.46-1.92-20.75-5.56-3.11-1.8-4.17-5.77-2.37-8.88,1.8-3.11,5.77-4.17,8.88-2.37,4.32,2.5,9.24,3.82,14.25,3.82s9.93-1.32,14.25-3.82c2.01-1.17,4.5-1.17,6.51,0,4.32,2.5,9.24,3.82,14.25,3.82s9.93-1.32,14.25-3.82c2.01-1.17,4.5-1.17,6.51,0,4.32,2.5,9.24,3.82,14.25,3.82s9.93-1.32,14.25-3.82c2.02-1.17,4.5-1.16,6.52,0,.99.57,1.96,1.07,2.99,1.51l1.37.53c.08.03.17.06.25.1l2.72.83.41.09c.15.03.3.07.45.11l.35.07s.09.02.13.03l.55.1c.05,0,.1.02.16.03h0s3.54.38,3.54.38l1.54.03c6.53-.04,12.92-2.38,17.96-6.58,6.56-5.43,10.31-13.42,10.31-21.92v-.69c-.02-.06-.02-.12-.02-.19l-.06-1.16s0-.09-.01-.14l-.12-1.25s-.01-.09-.02-.14l-.32-2.04-.27-1.15c-.03-.11-.05-.21-.07-.32l-.07-.28c-.04-.12-.07-.24-.11-.36l-.41-1.33s-.02-.07-.03-.1l-.79-2.09c-.47-1.07-.99-2.08-1.52-3.01-1.17-2.01-1.17-4.5,0-6.51,2.5-4.32,3.82-9.25,3.82-14.25s-1.32-9.93-3.82-14.25c-1.16-2.01-1.16-4.49,0-6.51,2.5-4.32,3.82-9.25,3.82-14.25s-1.32-9.93-3.82-14.25c-1.16-2.01-1.16-4.49,0-6.51,2.5-4.32,3.82-9.25,3.82-14.25s-1.32-9.93-3.82-14.25c-1.16-2.01-1.16-4.49,0-6.51,2.5-4.32,3.82-9.25,3.82-14.25s-1.32-9.93-3.82-14.25c-1.16-2.01-1.16-4.49,0-6.51,2.5-4.32,3.82-9.25,3.82-14.25s-1.32-9.93-3.82-14.25c-1.16-2.01-1.16-4.49,0-6.51,2.5-4.32,3.82-9.24,3.82-14.25s-1.32-9.93-3.82-14.25c-1.16-2.01-1.16-4.49,0-6.51,2.5-4.32,3.82-9.24,3.82-14.25s-1.32-9.93-3.82-14.25c-1.16-2.01-1.16-4.49,0-6.51,2.5-4.32,3.82-9.25,3.82-14.25s-1.32-9.93-3.82-14.25c-1.16-2.01-1.16-4.49,0-6.51,2.5-4.32,3.82-9.25,3.82-14.25s-1.32-9.93-3.82-14.25c-1.17-2.02-1.16-4.5,0-6.51.57-.98,1.07-1.97,1.52-3l.53-1.37c.03-.08.06-.16.1-.24l.83-2.72.08-.41c.03-.16.07-.32.12-.48l.07-.33s.02-.08.02-.12l.1-.57s.02-.09.02-.13l.22-1.52.15-1.92c0-.05,0-.11.01-.16l.03-1.28c0-3.24-.54-6.42-1.61-9.47-2.01-5.73-5.92-10.77-11-14.19l-.3-.2s-.08-.05-.12-.08l-.13-.07c-.13-.08-.26-.16-.39-.25l-.02-.02c-1.95-1.2-4.03-2.16-6.19-2.86-.46-.15-.94-.29-1.43-.41-.05-.01-.1-.03-.15-.04-.42-.12-.9-.23-1.5-.35l-.31-.05c-.1-.02-.21-.04-.31-.06-.14-.03-.29-.05-.43-.07l-.37-.06c-1.45-.21-2.88-.31-4.24-.31l-.68.02c-.07,0-.13,0-.2,0l-1.17.06s-.09,0-.14.01l-1.25.12s-.08,0-.12.01l-2.03.31-1.17.27c-.1.03-.21.05-.31.07l-.29.08c-.12.04-.23.07-.35.1l-1.33.41s-.09.03-.13.04l-2.07.78c-1.06.47-2.07.98-3,1.52-2.01,1.17-4.5,1.17-6.52,0-4.32-2.5-9.25-3.82-14.25-3.82s-9.93,1.32-14.25,3.82c-2.01,1.17-4.5,1.17-6.51,0-4.32-2.5-9.24-3.82-14.25-3.82s-9.93,1.32-14.25,3.82c-2.01,1.17-4.5,1.17-6.51,0-4.32-2.5-9.24-3.82-14.25-3.82s-9.93,1.32-14.25,3.82c-2.01,1.16-4.5,1.16-6.51,0-4.32-2.5-9.24-3.82-14.25-3.82s-9.93,1.32-14.25,3.82c-2.01,1.17-4.5,1.17-6.51,0-4.32-2.5-9.24-3.82-14.25-3.82s-9.93,1.32-14.25,3.82c-2.01,1.16-4.5,1.16-6.51,0-4.32-2.5-9.24-3.82-14.25-3.82s-9.93,1.32-14.25,3.82c-2.01,1.16-4.5,1.16-6.51,0-4.32-2.5-9.24-3.82-14.25-3.82s-9.93,1.32-14.25,3.82c-2.01,1.16-4.49,1.16-6.51,0-4.32-2.5-9.25-3.82-14.25-3.82s-9.93,1.32-14.24,3.82c-2.01,1.17-4.5,1.16-6.51,0-4.32-2.5-9.25-3.82-14.25-3.82s-9.93,1.32-14.24,3.82c-2.02,1.17-4.5,1.17-6.51,0-1-.58-1.98-1.07-2.99-1.52l-1.38-.54c-.08-.03-.16-.06-.23-.09l-2.74-.83-.41-.09c-.15-.03-.3-.07-.44-.11l-1.03-.2s-.09-.02-.13-.02l-1.47-.21-1.95-.16c-.06,0-.12,0-.18-.01l-1.27-.03c-15.71,0-28.5,12.79-28.5,28.5l.02.7c0,.06,0,.12,0,.18l.06,1.17s0,.09.01.13l.12,1.26s0,.07.01.11l.31,2.01.28,1.19c.03.11.05.22.08.33l.07.26c.04.12.08.24.11.36l.41,1.34s.02.07.03.1l.79,2.1c.44,1.01.93,1.98,1.46,2.89h0c1.22,2.04,1.24,4.57.05,6.61-2.5,4.32-3.82,9.25-3.82,14.25s1.32,9.93,3.82,14.25c1.16,2.01,1.16,4.49,0,6.51-2.5,4.32-3.82,9.25-3.82,14.25s1.32,9.93,3.82,14.25c1.16,2.01,1.16,4.49,0,6.51-2.5,4.32-3.82,9.25-3.82,14.25s1.32,9.93,3.82,14.25c1.16,2.01,1.16,4.49,0,6.51-2.5,4.32-3.82,9.25-3.82,14.25s1.32,9.93,3.82,14.25c1.16,2.01,1.16,4.49,0,6.51-2.5,4.32-3.82,9.25-3.82,14.25s1.32,9.93,3.82,14.25c1.16,2.01,1.16,4.49,0,6.51-2.5,4.32-3.82,9.25-3.82,14.25s1.32,9.93,3.82,14.25c1.16,2.01,1.16,4.49,0,6.51-2.5,4.32-3.82,9.25-3.82,14.25s1.32,9.93,3.82,14.25c1.16,2.01,1.16,4.49,0,6.51-2.5,4.32-3.82,9.25-3.82,14.25s1.32,9.93,3.82,14.25c1.16,2.01,1.16,4.49,0,6.51-2.5,4.32-3.82,9.25-3.82,14.25s1.32,9.93,3.82,14.25c1.17,2.01,1.16,4.5,0,6.51-.58,1-1.07,1.98-1.52,2.99l-.53,1.37c-.03.08-.07.17-.1.25l-.83,2.73-.09.42c-.03.15-.07.29-.11.44l-.07.36s-.01.07-.02.11l-.1.57c0,.06-.02.11-.03.17l-.28,2.09-.08,1.3c0,.07,0,.14-.01.21l-.03,1.25c0,15.71,12.79,28.5,28.5,28.5h.7c.06-.02.11-.02.17-.02l1.16-.06s.1,0,.14-.01l1.24-.12s.1-.01.14-.02l2.02-.31,1.18-.27c.11-.03.21-.05.32-.07l.26-.07c.12-.04.25-.08.37-.11l1.33-.4s.07-.02.1-.03l2.09-.79c1.06-.47,2.08-.98,3.01-1.52,2.01-1.17,4.5-1.17,6.51,0,4.32,2.5,9.24,3.82,14.24,3.82s9.93-1.32,14.25-3.82c2.01-1.16,4.5-1.16,6.51,0,4.32,2.5,9.24,3.82,14.24,3.82s9.93-1.32,14.25-3.82c2.01-1.16,4.49-1.16,6.51,0,4.32,2.5,9.24,3.82,14.25,3.82s9.93-1.32,14.25-3.82c3.11-1.8,7.08-.74,8.88,2.37,1.8,3.11.74,7.08-2.37,8.88-6.29,3.64-13.47,5.56-20.75,5.56-6.06,0-12.04-1.33-17.5-3.87-5.46,2.54-11.44,3.87-17.5,3.87s-12.04-1.33-17.5-3.87c-5.46,2.54-11.44,3.87-17.5,3.87s-12.03-1.33-17.49-3.87c-.38.18-.76.35-1.14.52-.06.03-.12.05-.18.08l-1.07.43c-.06.02-.12.05-.17.07l-1.34.49c-.09.03-.19.07-.28.09l-1.3.42c-.11.04-.23.07-.34.1l-.45.12c-.12.04-.24.08-.37.11l-.66.17c-.13.03-.26.06-.39.09h0l-.51.13c-.07.02-.13.03-.2.05l-1.16.24s-.07.01-.11.02l-.68.12s-.08.01-.12.02l-1.08.17c-.12.02-.24.04-.36.05l-.94.11c-.05,0-.11.01-.16.02l-.68.07c-.07,0-.14.01-.21.02l-.94.08c-.09,0-.18.01-.27.02l-.7.04c-.11,0-.22,0-.33,0h-.95c-.06.02-.11.02-.17.02h-.23c-22.88,0-41.5-18.62-41.5-41.5v-.68c0-.06,0-.11,0-.17l.02-.66c0-.12,0-.24.02-.36l.06-.91c0-.06,0-.12.01-.18l.07-.89c0-.07.01-.13.02-.2l.09-.81s0-.07.01-.11l.07-.56c0-.07.02-.13.03-.2l.18-1.2c.02-.12.04-.24.06-.37l.12-.69c.02-.09.03-.18.05-.27l.15-.73c.04-.17.08-.34.13-.51l.06-.27c.02-.11.05-.22.08-.33l.19-.75c.02-.06.03-.12.05-.19l1-3.14c.06-.17.12-.33.19-.49l.23-.61s.03-.07.04-.11l.32-.8c.02-.05.04-.1.07-.16.17-.39.35-.79.53-1.18-2.54-5.46-3.87-11.44-3.87-17.49s1.33-12.04,3.87-17.5c-2.54-5.46-3.87-11.44-3.87-17.5s1.33-12.04,3.87-17.5c-2.54-5.46-3.87-11.44-3.87-17.5s1.33-12.04,3.87-17.5c-2.54-5.46-3.87-11.44-3.87-17.5s1.33-12.04,3.87-17.5c-2.54-5.46-3.87-11.44-3.87-17.5s1.33-12.04,3.87-17.5c-2.54-5.46-3.87-11.44-3.87-17.5s1.33-12.04,3.87-17.5c-2.54-5.46-3.87-11.44-3.87-17.5s1.33-12.04,3.87-17.5c-2.54-5.46-3.87-11.45-3.87-17.5s1.33-12.04,3.87-17.5c-2.54-5.46-3.87-11.44-3.87-17.5s1.33-12.03,3.86-17.49c-.18-.39-.36-.79-.53-1.19-.02-.05-.04-.09-.06-.14l-.43-1.08c-.02-.05-.04-.1-.06-.15l-.5-1.35c-.03-.09-.07-.19-.1-.28l-.42-1.29c-.04-.12-.07-.23-.1-.35l-.12-.46c-.04-.12-.07-.23-.1-.35l-.18-.66c-.04-.13-.07-.27-.09-.41l-.13-.5c-.02-.07-.03-.13-.05-.2l-.04-.16s-.01-.07-.02-.1l-.18-.89s-.02-.09-.03-.13l-.12-.68s-.02-.09-.02-.13l-.17-1.07c-.02-.12-.03-.23-.05-.35l-.11-.97s0-.09-.01-.13l-.07-.68c0-.07-.01-.14-.02-.22l-.08-.95c0-.08-.01-.16-.02-.25l-.04-.7c0-.11,0-.22,0-.33l-.02-.94c0-.06,0-.12,0-.18v-.23c0-22.88,18.62-41.5,41.5-41.5h.68c.06,0,.12,0,.18,0l.67.02c.11,0,.22,0,.33.02l.94.06c.06,0,.12,0,.18.01l.89.07c.06,0,.12.01.19.02l.81.09s.08,0,.12.01l.56.07c.06,0,.12.02.18.02l1.23.19c.11.02.21.03.32.06l.72.13c.08.02.17.03.25.05l.75.16c.17.04.35.08.52.13l.26.06c.11.02.22.05.34.08l.74.19c.06.02.12.03.18.05l1.43.43s.07.02.11.03l.85.28s.07.02.11.04l.65.23c.15.05.3.11.45.18l.59.23c.05.02.11.04.16.06l.79.32c.05.02.1.04.16.06.39.17.79.35,1.18.53,5.46-2.54,11.44-3.87,17.49-3.87s12.04,1.33,17.5,3.87c5.46-2.54,11.44-3.87,17.5-3.87s12.04,1.33,17.5,3.87c5.46-2.54,11.44-3.87,17.5-3.87s12.04,1.33,17.5,3.87c5.46-2.54,11.44-3.87,17.5-3.87s12.04,1.33,17.5,3.87c5.46-2.54,11.44-3.87,17.5-3.87s12.04,1.33,17.5,3.87c5.46-2.54,11.44-3.87,17.5-3.87s12.04,1.33,17.5,3.87c5.46-2.54,11.44-3.87,17.5-3.87s12.04,1.33,17.5,3.87c5.46-2.54,11.44-3.87,17.5-3.87s12.04,1.33,17.5,3.87c5.46-2.54,11.44-3.87,17.5-3.87s12.03,1.33,17.49,3.87c.38-.18.76-.35,1.15-.52.06-.03.13-.06.19-.08l1.07-.43s.1-.04.15-.06l1.33-.49c.11-.04.21-.07.32-.11l1.27-.41c.12-.04.23-.07.35-.1l.47-.12c.12-.04.24-.07.36-.11l.67-.17c.12-.03.23-.06.35-.08l.54-.14c.07-.02.14-.04.21-.05l1.15-.24s.08-.01.11-.02l.68-.12s.08-.01.12-.02l1.08-.17c.12-.02.24-.04.35-.05l.97-.11s.09-.01.14-.02l.68-.07c.07,0,.15-.01.22-.02l.94-.08c.09,0,.17-.01.26-.02l.7-.03c.11,0,.21,0,.32,0l.89-.02c.07,0,.13,0,.2,0h.26c2,0,4.07.15,6.14.45.07,0,.13.02.2.03l.32.05c.32.05.64.1.96.17l.29.05c.07.01.14.02.2.04.95.19,1.74.38,2.49.58.73.19,1.45.4,2.14.62,3.21,1.04,6.3,2.48,9.18,4.27.1.06.2.13.29.19.21.13.42.26.63.41l.24.16c7.45,5.01,13.14,12.35,16.07,20.71,1.56,4.43,2.34,9.07,2.34,13.77v.68c0,.06,0,.11,0,.17l-.02.67c0,.11,0,.22-.02.33l-.06.96c0,.05,0,.11-.01.16l-.07.89c0,.07-.01.13-.02.2l-.17,1.46c0,.07-.02.14-.03.21l-.19,1.22c-.02.1-.03.2-.05.31l-.13.73c-.02.09-.04.18-.05.27l-.15.72c-.04.18-.08.36-.13.53l-.05.24c-.02.12-.05.23-.08.35l-.2.75c-.02.07-.04.13-.05.2l-.41,1.36c-.02.06-.04.12-.06.18l-.27.82s-.03.09-.05.14l-.23.65c-.05.16-.12.31-.18.46l-.22.57c-.02.05-.04.11-.06.16l-.32.8c-.02.05-.04.1-.06.15-.17.39-.35.79-.53,1.17,2.54,5.46,3.86,11.44,3.86,17.49s-1.33,12.04-3.87,17.5c2.54,5.46,3.87,11.44,3.87,17.5s-1.33,12.04-3.87,17.5c2.54,5.46,3.87,11.44,3.87,17.5s-1.33,12.04-3.87,17.5c2.54,5.46,3.87,11.44,3.87,17.5s-1.33,12.04-3.87,17.5c2.54,5.46,3.87,11.44,3.87,17.5s-1.33,12.04-3.87,17.5c2.54,5.46,3.87,11.45,3.87,17.5s-1.33,12.04-3.87,17.5c2.54,5.46,3.87,11.44,3.87,17.5s-1.33,12.04-3.87,17.5c2.54,5.46,3.87,11.44,3.87,17.5s-1.33,12.04-3.87,17.5c2.54,5.46,3.87,11.44,3.87,17.5s-1.33,12.03-3.87,17.49c.18.38.35.76.52,1.14.03.06.05.13.08.19l.43,1.08s.04.1.06.15l.49,1.33c.04.1.07.2.1.3l.42,1.3c.04.11.07.23.1.34l.12.46c.04.12.08.24.11.37l.17.67c.03.12.06.25.08.37l.13.53c.02.08.04.16.06.24l.38,1.92s.01.08.02.12l.17,1.07c.02.12.04.25.05.37l.11.95s.01.1.02.14l.07.68c0,.07.01.15.02.22l.08.94c0,.09.02.18.02.27l.03.7c0,.11,0,.21,0,.32v.9c.02.06.02.12.02.19v.26c0,12.39-5.47,24.02-15.01,31.92-7.33,6.11-16.65,9.52-26.23,9.58h-.72Zm-174.54,0c-7.28,0-14.46-1.92-20.75-5.56-3.11-1.8-4.17-5.77-2.37-8.88,1.8-3.11,5.77-4.17,8.88-2.37,4.32,2.5,9.24,3.82,14.25,3.82s9.93-1.32,14.25-3.82c3.11-1.8,7.08-.74,8.88,2.37,1.8,3.11.74,7.08-2.37,8.88-6.29,3.64-13.47,5.56-20.75,5.56Zm122.5-70c-13.23,0-24-10.77-24-24s10.77-24,24-24,24,10.77,24,24-10.77,24-24,24Zm0-35c-6.07,0-11,4.93-11,11s4.93,11,11,11,11-4.93,11-11-4.93-11-11-11Zm-78.75,35c-13.23,0-24-10.77-24-24s10.77-24,24-24,24,10.77,24,24-10.77,24-24,24Zm0-35c-6.07,0-11,4.93-11,11s4.93,11,11,11,11-4.93,11-11-4.93-11-11-11Zm-87.5,35c-13.23,0-24-10.77-24-24s10.77-24,24-24,24,10.77,24,24-10.77,24-24,24Zm0-35c-6.07,0-11,4.93-11,11s4.93,11,11,11,11-4.93,11-11-4.93-11-11-11Zm-78.75,35c-13.23,0-24-10.77-24-24s10.77-24,24-24,24,10.77,24,24-10.77,24-24,24Zm0-35c-6.07,0-11,4.93-11,11s4.93,11,11,11,11-4.93,11-11-4.93-11-11-11Zm245-43.75c-13.23,0-24-10.77-24-24s10.77-24,24-24,24,10.77,24,24-10.77,24-24,24Zm0-35c-6.07,0-11,4.93-11,11s4.93,11,11,11,11-4.93,11-11-4.93-11-11-11Zm-78.75,35c-13.23,0-24-10.77-24-24s10.77-24,24-24,24,10.77,24,24-10.77,24-24,24Zm0-35c-6.07,0-11,4.93-11,11s4.93,11,11,11,11-4.93,11-11-4.93-11-11-11Zm-87.5,35c-13.23,0-24-10.77-24-24s10.77-24,24-24,24,10.77,24,24-10.77,24-24,24Zm0-35c-6.07,0-11,4.93-11,11s4.93,11,11,11,11-4.93,11-11-4.93-11-11-11Zm-78.75,35c-13.23,0-24-10.77-24-24s10.77-24,24-24,24,10.77,24,24-10.77,24-24,24Zm0-35c-6.07,0-11,4.93-11,11s4.93,11,11,11,11-4.93,11-11-4.93-11-11-11Zm245-52.5c-13.23,0-24-10.77-24-24s10.77-24,24-24,24,10.77,24,24-10.77,24-24,24Zm0-35c-6.07,0-11,4.93-11,11s4.93,11,11,11,11-4.93,11-11-4.93-11-11-11Zm-78.75,35c-13.23,0-24-10.77-24-24s10.77-24,24-24,24,10.77,24,24-10.77,24-24,24Zm0-35c-6.07,0-11,4.93-11,11s4.93,11,11,11,11-4.93,11-11-4.93-11-11-11Zm-87.5,35c-13.23,0-24-10.77-24-24s10.77-24,24-24,24,10.77,24,24-10.77,24-24,24Zm0-35c-6.07,0-11,4.93-11,11s4.93,11,11,11,11-4.93,11-11-4.93-11-11-11Zm-78.75,35c-13.23,0-24-10.77-24-24s10.77-24,24-24,24,10.77,24,24-10.77,24-24,24Zm0-35c-6.07,0-11,4.93-11,11s4.93,11,11,11,11-4.93,11-11-4.93-11-11-11Zm245-43.75c-13.23,0-24-10.77-24-24s10.77-24,24-24,24,10.77,24,24-10.77,24-24,24Zm0-35c-6.07,0-11,4.93-11,11s4.93,11,11,11,11-4.93,11-11-4.93-11-11-11Zm-78.75,35c-13.23,0-24-10.77-24-24s10.77-24,24-24,24,10.77,24,24-10.77,24-24,24Zm0-35c-6.07,0-11,4.93-11,11s4.93,11,11,11,11-4.93,11-11-4.93-11-11-11Zm-87.5,35c-13.23,0-24-10.77-24-24s10.77-24,24-24,24,10.77,24,24-10.77,24-24,24Zm0-35c-6.07,0-11,4.93-11,11s4.93,11,11,11,11-4.93,11-11-4.93-11-11-11Zm-78.75,35c-13.23,0-24-10.77-24-24s10.77-24,24-24,24,10.77,24,24-10.77,24-24,24Zm0-35c-6.07,0-11,4.93-11,11s4.93,11,11,11,11-4.93,11-11-4.93-11-11-11Z"></path>
</symbol><symbol id="i082_dessert-8" xmlns="http://www.w3.org/2000/svg" viewBox="0 0 512 512">
  <path d="m256,472.42c-16.38,0-32.77-4.08-47.4-12.23-.1-.05-.2-.1-.3-.16-3.96-2.23-8.46-3.43-13.01-3.49-33.71-.41-65.36-18.68-82.59-47.68-2.33-3.92-5.62-7.22-9.54-9.54-29-17.23-47.27-48.88-47.68-82.6-.06-4.55-1.26-9.05-3.49-13.01-.06-.1-.11-.2-.16-.31-16.31-29.27-16.31-65.53,0-94.8.05-.1.1-.2.16-.3,2.23-3.96,3.43-8.46,3.49-13.01.35-29.4,13.76-56.78,36.79-75.09,2.81-2.23,6.9-1.77,9.13,1.04,2.23,2.81,1.77,6.9-1.04,9.13-19.95,15.87-31.57,39.59-31.88,65.08-.08,6.61-1.81,13.15-4.99,18.93-.05.1-.11.21-.16.31-14.32,25.49-14.32,57.15,0,82.64.06.1.11.21.17.32,3.18,5.78,4.91,12.31,4.99,18.92.35,29.22,16.19,56.65,41.32,71.58,5.78,3.43,10.65,8.3,14.08,14.08,14.93,25.13,42.36,40.96,71.58,41.32,6.61.08,13.15,1.81,18.92,4.99.11.05.21.11.31.17,25.49,14.32,57.15,14.32,82.64,0,.11-.06.21-.12.32-.17,5.78-3.18,12.31-4.9,18.92-4.99,29.22-.35,56.65-16.19,71.58-41.32,1.83-3.09,5.82-4.1,8.91-2.27,3.09,1.83,4.1,5.82,2.27,8.91-17.23,29-48.88,47.27-82.59,47.68-4.55.06-9.05,1.26-13.01,3.49-.1.06-.2.11-.31.16-14.63,8.15-31.01,12.23-47.4,12.23Zm0-34.92c-100.08,0-181.5-81.42-181.5-181.5s81.42-181.5,181.5-181.5,181.5,81.42,181.5,181.5-81.42,181.5-181.5,181.5Zm0-349.99c-92.91,0-168.5,75.59-168.5,168.5s75.59,168.5,168.5,168.5,168.5-75.59,168.5-168.5-75.59-168.5-168.5-168.5Zm160.97,304.7c-1.87,0-3.73-.81-5.02-2.36-2.28-2.77-1.89-6.87.88-9.15,19.21-15.84,30.4-39.22,30.71-64.14.08-6.61,1.81-13.15,4.99-18.92.05-.11.11-.21.17-.31,14.32-25.49,14.32-57.15,0-82.64-.06-.1-.11-.21-.17-.31-3.18-5.78-4.91-12.31-4.99-18.92-.36-29.22-16.19-56.65-41.32-71.58-5.78-3.43-10.65-8.3-14.08-14.08-14.93-25.13-42.36-40.96-71.58-41.32-6.61-.08-13.15-1.81-18.92-4.99-.11-.05-.21-.11-.32-.17-25.49-14.32-57.15-14.32-82.64,0-.11.06-.21.11-.32.17-5.78,3.18-12.31,4.91-18.92,4.99-29.22.35-56.65,16.19-71.58,41.32-1.83,3.09-5.82,4.1-8.91,2.27-3.09-1.83-4.1-5.82-2.27-8.91,17.23-29,48.88-47.27,82.59-47.68,4.55-.06,9.05-1.26,13.01-3.49.1-.06.2-.11.31-.16,29.27-16.31,65.53-16.31,94.8,0,.1.05.2.1.3.16,3.96,2.23,8.46,3.43,13.01,3.49,33.72.41,65.36,18.68,82.59,47.68,2.33,3.92,5.62,7.22,9.54,9.54,29,17.23,47.27,48.88,47.68,82.6.06,4.55,1.26,9.05,3.49,13.01.06.1.11.2.16.3,16.31,29.27,16.31,65.53,0,94.8-.05.1-.1.2-.16.3-2.23,3.96-3.43,8.46-3.49,13.01-.35,28.75-13.27,55.72-35.44,74-1.21,1-2.68,1.49-4.13,1.49Zm-160.97-7.21c-1.66,0-3.33-.63-4.6-1.9-10.58-10.58-16.41-24.64-16.41-39.6s5.83-29.01,16.41-39.6c1.22-1.22,2.87-1.9,4.6-1.9s3.38.69,4.6,1.9c10.58,10.58,16.41,24.65,16.41,39.6s-5.83,29.01-16.41,39.6c-1.27,1.27-2.93,1.9-4.6,1.9Zm0-66.49c-5.2,7.25-8.01,15.91-8.01,24.99s2.81,17.75,8.01,24.99c5.2-7.25,8.01-15.91,8.01-24.99s-2.81-17.75-8.01-24.99Zm-93.16,6.96c-4.87,0-9.77-.64-14.6-1.93-3.47-.93-5.53-4.49-4.6-7.96,3.87-14.46,13.14-26.54,26.1-34.01,12.93-7.47,28.02-9.45,42.48-5.58,3.47.93,5.53,4.49,4.6,7.96-3.87,14.46-13.14,26.54-26.1,34.01-8.61,4.97-18.18,7.52-27.88,7.52Zm-4.26-13.22c8.88.88,17.78-1.02,25.64-5.56,7.88-4.55,13.98-11.3,17.65-19.43-8.88-.88-17.78,1.02-25.64,5.56-7.88,4.55-13.98,11.31-17.65,19.43Zm190.58,13.22c-9.7,0-19.27-2.54-27.88-7.52-12.96-7.47-22.22-19.55-26.09-34.01-.93-3.47,1.13-7.03,4.6-7.96,14.46-3.87,29.55-1.89,42.49,5.59,12.96,7.47,22.22,19.55,26.09,34.01.93,3.47-1.13,7.03-4.6,7.96-4.83,1.29-9.73,1.93-14.6,1.93Zm-39.03-38.21c3.67,8.13,9.77,14.89,17.65,19.43,7.86,4.54,16.76,6.44,25.64,5.56-3.67-8.13-9.77-14.89-17.65-19.43-7.86-4.54-16.76-6.44-25.64-5.56Zm-112.51-49.29c-9.7,0-19.27-2.54-27.88-7.52-12.96-7.47-22.22-19.55-26.09-34.01-.93-3.47,1.13-7.03,4.6-7.96,14.47-3.87,29.55-1.89,42.49,5.59,12.96,7.47,22.22,19.55,26.09,34.01.93,3.47-1.13,7.03-4.6,7.96-4.83,1.29-9.74,1.93-14.6,1.93Zm-39.03-38.21c3.67,8.13,9.77,14.89,17.65,19.43,7.86,4.54,16.76,6.44,25.64,5.56-3.67-8.13-9.77-14.89-17.65-19.43-7.86-4.54-16.76-6.44-25.64-5.56Zm155.81,38.21c-4.87,0-9.77-.64-14.6-1.93-3.47-.93-5.53-4.49-4.6-7.96,3.87-14.46,13.14-26.54,26.1-34.01,12.93-7.47,28.02-9.45,42.48-5.58,3.47.93,5.53,4.49,4.6,7.96-3.87,14.46-13.14,26.54-26.1,34.02-8.61,4.97-18.18,7.52-27.88,7.52Zm-4.26-13.22c8.88.88,17.78-1.02,25.64-5.56,7.88-4.55,13.98-11.31,17.65-19.43-8.89-.89-17.78,1.02-25.64,5.56-7.88,4.55-13.98,11.31-17.65,19.43Zm-54.13-14.75c-1.66,0-3.33-.63-4.6-1.9-10.58-10.58-16.41-24.64-16.41-39.6s5.83-29.01,16.41-39.6c1.22-1.22,2.87-1.9,4.6-1.9s3.38.69,4.6,1.9c10.58,10.58,16.41,24.65,16.41,39.6s-5.83,29.01-16.41,39.6c-1.27,1.27-2.93,1.9-4.6,1.9Zm0-66.49c-5.2,7.25-8.01,15.91-8.01,24.99s2.81,17.75,8.01,24.99c5.2-7.25,8.01-15.91,8.01-24.99s-2.81-17.75-8.01-24.99Z"></path>
</symbol><symbol id="i082_dessert-9" xmlns="http://www.w3.org/2000/svg" viewBox="0 0 512 512">
  <path d="m256,472.5c-119.38,0-216.5-97.12-216.5-216.5,0-49.56,16.32-96.19,47.18-134.87,2.24-2.81,6.33-3.26,9.13-1.03,2.81,2.24,3.26,6.33,1.03,9.13-29.01,36.35-44.34,80.18-44.34,126.76,0,112.21,91.29,203.5,203.5,203.5s203.5-91.29,203.5-203.5c0-12.04-1.05-24.02-3.14-35.75-8.63,4.72-18.4,7.25-28.32,7.25-32.53,0-59-26.47-59-59,0-6.57,1.06-12.96,3.15-19.08-17.92-10.5-29.2-29.87-29.2-50.92,0-8.31,1.75-16.48,5.09-23.98-28.38-14.42-60.08-22.02-92.09-22.02-42.31,0-82.88,12.88-117.33,37.25-2.93,2.07-6.99,1.38-9.06-1.55-2.07-2.93-1.38-6.99,1.55-9.06,36.65-25.93,79.82-39.64,124.84-39.64,36.32,0,72.26,9.19,103.94,26.58,1.55.85,2.68,2.29,3.14,3.99s.22,3.52-.69,5.03c-4.19,7.04-6.4,15.13-6.4,23.4,0,18.04,10.64,34.51,27.1,41.94,1.58.71,2.81,2.03,3.42,3.66.6,1.63.53,3.43-.2,5-2.84,6.1-4.28,12.63-4.28,19.4,0,25.36,20.63,46,46,46,10.41,0,20.61-3.58,28.71-10.07,1.75-1.4,4.09-1.8,6.21-1.06,2.11.74,3.7,2.51,4.2,4.7,3.54,15.6,5.34,31.73,5.34,47.94,0,119.38-97.12,216.5-216.5,216.5Zm76.32-70c-11.81,0-21.41-9.6-21.41-21.41s9.6-21.39,21.41-21.39,21.41,9.6,21.41,21.39-9.6,21.41-21.41,21.41Zm0-29.8c-4.64,0-8.41,3.77-8.41,8.39s3.77,8.41,8.41,8.41,8.41-3.77,8.41-8.41-3.77-8.39-8.41-8.39Zm-116.52,29.8c-20.02,0-36.3-16.29-36.3-36.3s16.29-36.3,36.3-36.3,36.3,16.28,36.3,36.3-16.29,36.3-36.3,36.3Zm0-59.61c-12.85,0-23.3,10.45-23.3,23.3s10.45,23.3,23.3,23.3,23.3-10.45,23.3-23.3-10.45-23.3-23.3-23.3Zm113.47-16.92c-21.09,0-38.25-17.16-38.25-38.25s17.16-38.23,38.25-38.23,38.23,17.15,38.23,38.23-17.15,38.25-38.23,38.25Zm0-63.47c-13.92,0-25.25,11.32-25.25,25.23s11.33,25.25,25.25,25.25,25.23-11.32,25.23-25.25-11.32-25.23-25.23-25.23Zm-199.48,63.47c-15.29,0-27.73-12.44-27.73-27.73s12.44-27.71,27.73-27.71,27.71,12.43,27.71,27.71-12.43,27.73-27.71,27.73Zm0-42.44c-8.12,0-14.73,6.6-14.73,14.71s6.61,14.73,14.73,14.73,14.71-6.61,14.71-14.73-6.6-14.71-14.71-14.71Zm61.71-45.04c-25.91,0-47-21.08-47-46.99s21.08-47,47-47,46.99,21.08,46.99,47-21.08,46.99-46.99,46.99Zm0-80.99c-18.75,0-34,15.25-34,34s15.25,33.99,34,33.99,33.99-15.25,33.99-33.99-15.25-34-33.99-34Zm106.03-6.69c-14.55,0-26.38-11.83-26.38-26.38s11.83-26.38,26.38-26.38,26.38,11.83,26.38,26.38-11.83,26.38-26.38,26.38Zm0-39.76c-7.38,0-13.38,6-13.38,13.38s6,13.38,13.38,13.38,13.38-6,13.38-13.38-6-13.38-13.38-13.38Zm-187.51.54c-1.7,0-3.4-.67-4.68-1.99-2.49-2.58-2.42-6.7.17-9.19,2-1.93,4.07-3.86,6.16-5.73,2.67-2.4,6.78-2.17,9.18.5,2.4,2.67,2.17,6.78-.5,9.18-1.97,1.76-3.92,3.58-5.81,5.4-1.26,1.22-2.89,1.82-4.51,1.82Z"></path>
</symbol>
</svg>