<svg xmlns="http://www.w3.org/2000/svg" style="display: none;">

<symbol id="i0911special-1" xmlns="http://www.w3.org/2000/svg" viewBox="0 0 512 512">
  <g>
    <rect x="200.89" y="271.14" width="13.5" height="59.06" rx="6.75" ry="6.75"></rect>
    <rect x="250.46" y="271.14" width="13.5" height="59.06" rx="6.75" ry="6.75"></rect>
    <rect x="297.61" y="271.14" width="13.5" height="59.06" rx="6.75" ry="6.75"></rect>
  </g>
  <path d="m360.19,137.59c-1.56,0-3.1.05-4.64.13-24.17-27.81-59.81-45.4-99.55-45.4s-75.38,17.59-99.55,45.4c-1.54-.08-3.08-.13-4.64-.13-47.15,0-85.37,38.22-85.37,85.37s38.22,85.37,85.37,85.37c.88,0,1.75-.04,2.63-.07,1.8,2.17,3.67,4.28,5.6,6.33v73.05h191.93v-73.05c1.93-2.05,3.8-4.16,5.6-6.33.87.03,1.75.07,2.63.07,47.15,0,85.37-38.22,85.37-85.37s-38.22-85.37-85.37-85.37Zm0,157.24c-.5,0-1-.02-1.5-.04l-7.31-.22-4.21,5.08c-1.58,1.91-3.28,3.82-5.03,5.69l-3.68,3.9v64.91h-164.93v-64.91l-3.68-3.9c-1.76-1.87-3.45-3.78-5.03-5.69l-4.21-5.08-7.31.22c-.5.02-1,.04-1.5.04-39.63,0-71.87-32.24-71.87-71.87s32.24-71.87,71.87-71.87c1.25,0,2.53.04,3.91.11l6.59.35,4.33-4.98c22.51-25.9,55.09-40.76,89.37-40.76s66.85,14.85,89.37,40.76l4.33,4.98,6.59-.35c1.38-.07,2.66-.11,3.91-.11,39.63,0,71.87,32.24,71.87,71.87s-32.24,71.87-71.87,71.87Z"></path>
  <path d="m347.03,374.14h-182.06c-6.41,0-11.6,5.19-11.6,11.6v22.34c0,6.41,5.19,11.6,11.6,11.6h182.06c6.41,0,11.6-5.19,11.6-11.6v-22.34c0-6.41-5.19-11.6-11.6-11.6Zm-1.9,32.04h-178.26v-18.54h178.26v18.54Z"></path>
</symbol><symbol id="i0911special-10" xmlns="http://www.w3.org/2000/svg" viewBox="0 0 512 512">
  <path d="m305.08,363.48c-.9,0-1.81-.19-2.67-.59l-46.86-21.93-46.86,21.93c-3,1.4-6.59.24-8.19-2.66l-25.02-45.28-50.8-9.8c-3.26-.63-5.47-3.67-5.06-6.97l6.37-51.34-35.33-37.79c-2.27-2.42-2.27-6.19,0-8.61l35.33-37.79-6.37-51.34c-.41-3.29,1.8-6.34,5.06-6.97l50.8-9.8,25.02-45.28c1.6-2.91,5.19-4.07,8.19-2.66l46.86,21.93,46.86-21.93c3.01-1.4,6.59-.24,8.19,2.66l25.02,45.28,50.8,9.8c3.26.63,5.47,3.67,5.06,6.97l-6.37,51.34,35.33,37.79c2.27,2.42,2.27,6.19,0,8.61l-35.33,37.79,6.37,51.34c.41,3.29-1.8,6.34-5.06,6.97l-50.8,9.8-25.02,45.28c-1.14,2.07-3.29,3.26-5.52,3.26Zm-49.52-35.79c.91,0,1.83.2,2.67.59l44.19,20.68,23.59-42.7c.9-1.64,2.49-2.79,4.32-3.14l47.9-9.24-6.01-48.42c-.23-1.86.37-3.72,1.65-5.08l33.32-35.64-33.32-35.64c-1.28-1.37-1.88-3.23-1.65-5.08l6.01-48.42-47.9-9.25c-1.84-.35-3.42-1.5-4.32-3.14l-23.59-42.7-44.19,20.68c-1.69.79-3.65.79-5.34,0l-44.19-20.68-23.59,42.7c-.9,1.64-2.49,2.79-4.32,3.14l-47.9,9.25,6.01,48.42c.23,1.86-.37,3.72-1.65,5.08l-33.32,35.64,33.32,35.64c1.28,1.37,1.88,3.23,1.65,5.08l-6.01,48.42,47.9,9.24c1.84.35,3.42,1.5,4.32,3.14l23.59,42.7,44.19-20.68c.85-.4,1.76-.59,2.67-.59Z"></path>
  <path d="m255.55,306.65c-56.19,0-101.91-45.72-101.91-101.91s45.72-101.91,101.91-101.91,101.91,45.72,101.91,101.91-45.72,101.91-101.91,101.91Zm0-191.21c-49.24,0-89.3,40.06-89.3,89.3s40.06,89.3,89.3,89.3,89.3-40.06,89.3-89.3-40.06-89.3-89.3-89.3Z"></path>
  <rect x="175.62" y="250.9" width="159.85" height="12.61"></rect>
  <rect x="161.41" y="208.82" width="189.18" height="12.61"></rect>
  <path d="m153.63,466c-.44,0-.88-.04-1.31-.14-2.51-.53-4.45-2.54-4.9-5.08l-11.54-65.66-65.19,13.92c-2.51.54-5.1-.51-6.54-2.64-1.44-2.13-1.44-4.92,0-7.05l68.52-101.62,10.46,7.05-59.78,88.67,56.31-12.02c1.68-.36,3.42-.02,4.84.94,1.42.96,2.39,2.45,2.68,4.14l9.97,56.71,68.1-101.01,10.46,7.05-76.83,113.96c-1.19,1.76-3.16,2.78-5.23,2.78Z"></path>
  <path d="m358.37,465.99c-2.07,0-4.04-1.02-5.23-2.78l-76.41-113.33,10.46-7.05,67.68,100.38,9.97-56.71c.3-1.69,1.27-3.18,2.68-4.14,1.42-.96,3.17-1.3,4.84-.94l56.31,12.02-59.88-88.81,10.46-7.05,68.61,101.77c1.44,2.13,1.44,4.92,0,7.05-1.44,2.13-4.03,3.17-6.54,2.64l-65.19-13.92-11.54,65.66c-.45,2.53-2.38,4.54-4.9,5.08-.44.09-.88.14-1.31.14Z"></path>
</symbol><symbol id="i0911special-11" xmlns="http://www.w3.org/2000/svg" viewBox="0 0 512 512">
  <path d="m446.11,442.23H65.89c-10.96,0-19.88-8.92-19.88-19.88s8.92-19.88,19.88-19.88h380.23c10.96,0,19.88,8.92,19.88,19.88s-8.92,19.88-19.88,19.88Zm-380.23-27.16c-4.01,0-7.27,3.26-7.27,7.27s3.26,7.27,7.27,7.27h380.23c4.01,0,7.27-3.26,7.27-7.27s-3.26-7.27-7.27-7.27H65.89Z"></path>
  <path d="m446.11,415.08H65.89c-3.48,0-6.3-2.82-6.3-6.3v-27.16c0-108.31,88.11-196.42,196.42-196.42s196.42,88.11,196.42,196.42v27.16c0,3.48-2.82,6.3-6.3,6.3Zm-373.92-12.61h367.62v-20.85c0-101.35-82.46-183.81-183.81-183.81s-183.81,82.46-183.81,183.81v20.85Z"></path>
  <path d="m93.04,387.92c-3.48,0-6.3-2.82-6.3-6.3,0-93.33,75.93-169.26,169.26-169.26,3.48,0,6.3,2.82,6.3,6.3s-2.82,6.3-6.3,6.3c-86.38,0-156.65,70.27-156.65,156.65,0,3.48-2.82,6.3-6.3,6.3Z"></path>
  <path d="m256,197.8c-10.96,0-19.88-8.92-19.88-19.88s8.92-19.88,19.88-19.88,19.88,8.92,19.88,19.88-8.92,19.88-19.88,19.88Zm0-27.16c-4.01,0-7.27,3.26-7.27,7.27s3.26,7.27,7.27,7.27,7.27-3.26,7.27-7.27-3.26-7.27-7.27-7.27Z"></path>
  <path d="m64.59,143.48c-1.31,0-2.61-.41-3.71-1.2-1.94-1.41-2.91-3.8-2.51-6.17l3.23-18.84-13.7-13.34c-1.72-1.67-2.34-4.18-1.6-6.46.74-2.28,2.72-3.95,5.09-4.29l18.95-2.75,8.47-17.14c1.06-2.15,3.25-3.51,5.65-3.51s4.59,1.36,5.65,3.51l8.47,17.14,18.94,2.75c2.38.34,4.35,2.01,5.09,4.29.74,2.28.12,4.79-1.6,6.46l-13.7,13.34,3.23,18.84c.41,2.37-.57,4.76-2.51,6.17-1.94,1.41-4.51,1.6-6.64.48l-16.95-8.9-16.95,8.9c-.92.48-1.93.72-2.93.72Zm19.88-23.05c1.01,0,2.01.24,2.93.72l8.57,4.5-1.63-9.53c-.35-2.05.33-4.14,1.82-5.58l6.92-6.74-9.57-1.39c-2.05-.3-3.83-1.59-4.75-3.45l-4.29-8.67-4.28,8.67c-.92,1.86-2.69,3.15-4.75,3.45l-9.57,1.39,6.92,6.74c1.49,1.45,2.17,3.54,1.82,5.58l-1.63,9.52,8.57-4.5c.92-.48,1.92-.72,2.93-.72Z"></path>
  <path d="m150.36,143.48c-1.31,0-2.61-.41-3.71-1.2-1.94-1.41-2.91-3.8-2.51-6.17l3.23-18.84-13.7-13.34c-1.72-1.67-2.34-4.18-1.6-6.46.74-2.28,2.72-3.95,5.09-4.29l18.95-2.75,8.47-17.14c1.06-2.15,3.25-3.51,5.65-3.51s4.59,1.36,5.65,3.51l8.47,17.14,18.94,2.75c2.38.34,4.35,2.01,5.09,4.29.74,2.28.12,4.79-1.6,6.46l-13.7,13.34,3.23,18.84c.41,2.37-.57,4.76-2.51,6.17-1.94,1.41-4.51,1.6-6.64.48l-16.95-8.9-16.95,8.9c-.92.48-1.93.72-2.93.72Zm19.88-23.05c1.01,0,2.01.24,2.93.72l8.57,4.5-1.63-9.53c-.35-2.05.33-4.14,1.82-5.58l6.92-6.74-9.57-1.39c-2.05-.3-3.83-1.59-4.75-3.45l-4.29-8.67-4.28,8.67c-.92,1.86-2.69,3.15-4.75,3.45l-9.57,1.39,6.92,6.74c1.49,1.45,2.17,3.54,1.82,5.58l-1.63,9.52,8.57-4.5c.92-.48,1.92-.72,2.93-.72Z"></path>
  <path d="m236.12,143.48c-1.31,0-2.61-.41-3.71-1.2-1.94-1.41-2.91-3.8-2.51-6.17l3.23-18.84-13.7-13.34c-1.72-1.67-2.34-4.18-1.6-6.46.74-2.28,2.72-3.95,5.09-4.29l18.95-2.75,8.47-17.14c1.06-2.15,3.25-3.51,5.65-3.51s4.59,1.36,5.65,3.51l8.47,17.14,18.94,2.75c2.38.34,4.35,2.01,5.09,4.29.74,2.28.12,4.79-1.6,6.46l-13.7,13.34,3.23,18.84c.41,2.37-.57,4.76-2.51,6.17-1.94,1.41-4.51,1.6-6.64.48l-16.95-8.9-16.95,8.9c-.92.48-1.93.72-2.93.72Zm1.27-39.67l6.92,6.74c1.49,1.45,2.17,3.54,1.82,5.58l-1.63,9.53,8.57-4.5c1.84-.96,4.03-.96,5.86,0l8.57,4.5-1.63-9.52c-.35-2.05.33-4.14,1.82-5.58l6.92-6.74-9.57-1.39c-2.05-.3-3.83-1.59-4.75-3.45l-4.29-8.67-4.29,8.67c-.92,1.86-2.69,3.15-4.75,3.45l-9.57,1.39Z"></path>
  <path d="m321.89,143.48c-1.31,0-2.61-.41-3.71-1.2-1.94-1.41-2.91-3.8-2.51-6.17l3.23-18.84-13.7-13.34c-1.72-1.67-2.34-4.18-1.6-6.46.74-2.28,2.72-3.95,5.09-4.29l18.95-2.75,8.47-17.14c1.06-2.15,3.25-3.51,5.65-3.51s4.59,1.36,5.65,3.51l8.47,17.14,18.94,2.75c2.38.34,4.35,2.01,5.09,4.29.74,2.28.12,4.79-1.6,6.46l-13.7,13.34,3.23,18.84c.41,2.37-.57,4.76-2.51,6.17-1.94,1.41-4.51,1.6-6.64.48l-16.95-8.9-16.95,8.9c-.92.48-1.93.72-2.93.72Zm19.88-23.05c1.01,0,2.01.24,2.93.72l8.57,4.5-1.63-9.53c-.35-2.05.33-4.14,1.82-5.58l6.92-6.74-9.57-1.39c-2.05-.3-3.83-1.59-4.75-3.45l-4.29-8.67-4.28,8.67c-.92,1.86-2.69,3.15-4.75,3.45l-9.57,1.39,6.92,6.74c1.49,1.45,2.17,3.54,1.82,5.58l-1.63,9.52,8.57-4.5c.92-.48,1.92-.72,2.93-.72Z"></path>
  <path d="m447.41,143.48c-1,0-2.01-.24-2.93-.72l-16.95-8.9-16.95,8.9c-2.13,1.12-4.7.93-6.64-.48-1.94-1.41-2.91-3.8-2.51-6.17l3.23-18.84-13.7-13.34c-1.72-1.67-2.34-4.18-1.6-6.46.74-2.28,2.72-3.95,5.09-4.29l18.95-2.75,8.47-17.14c1.06-2.15,3.25-3.51,5.65-3.51s4.59,1.36,5.65,3.51l8.47,17.14,18.94,2.75c2.38.34,4.35,2.01,5.09,4.29.74,2.28.12,4.79-1.6,6.46l-13.7,13.34,3.23,18.84c.41,2.37-.57,4.76-2.51,6.17-1.1.8-2.4,1.2-3.71,1.2Zm-38.48-39.67l6.92,6.74c1.49,1.45,2.17,3.54,1.82,5.58l-1.63,9.53,8.57-4.5c1.84-.96,4.03-.96,5.86,0l8.57,4.5-1.63-9.52c-.35-2.05.33-4.14,1.82-5.58l6.92-6.74-9.57-1.39c-2.05-.3-3.83-1.59-4.75-3.45l-4.29-8.67-4.28,8.67c-.92,1.86-2.69,3.15-4.75,3.45l-9.57,1.39Z"></path>
</symbol><symbol id="i0911special-12" xmlns="http://www.w3.org/2000/svg" viewBox="0 0 512 512">
  <path d="m120.2,411.67c-1.61,0-3.23-.62-4.46-1.85l-67.89-67.89c-1.18-1.18-1.85-2.79-1.85-4.46s.66-3.28,1.85-4.46l67.89-67.89c14.33-14.32,33.37-22.21,53.63-22.21h140.93c12.54,0,23.08,8.69,25.92,20.37h26.46c11.52,0,22.28-6.18,28.09-16.13l31.29-53.65c4.2-7.19,11.97-11.67,20.29-11.69,7.46-.15,14.63,3.56,19.12,9.82,4.58,6.39,5.77,14.5,3.19,21.7-.05.15-.12.3-.18.45l-34.79,77.38c-14.38,31.96-46.31,52.62-81.35,52.62h-157.64l-66.05,66.04c-1.23,1.23-2.84,1.85-4.46,1.85Zm-58.97-74.2l58.97,58.97,63.43-63.43c1.18-1.18,2.79-1.85,4.46-1.85h160.25c30.09,0,57.5-17.73,69.85-45.18l34.68-77.13c1.09-3.24.48-6.92-1.64-9.88-2.12-2.96-5.3-4.61-8.71-4.56-.04,0-.07,0-.11,0-3.88,0-7.5,2.08-9.45,5.43l-31.29,53.65c-8.06,13.81-22.99,22.39-38.98,22.39h-32.01c-3.48,0-6.3-2.82-6.3-6.3,0-7.75-6.31-14.06-14.06-14.06h-140.93c-16.89,0-32.77,6.58-44.71,18.52l-63.43,63.43Z"></path>
  <path d="m310.29,296.25h-74.68c-3.48,0-6.3-2.82-6.3-6.3s2.82-6.3,6.3-6.3h74.68c7.75,0,14.06-6.31,14.06-14.06s-6.31-14.06-14.06-14.06c-3.48,0-6.3-2.82-6.3-6.3s2.82-6.3,6.3-6.3c14.71,0,26.67,11.97,26.67,26.67s-11.97,26.67-26.67,26.67Z"></path>
  <path d="m188.09,343.78c-1.61,0-3.23-.62-4.46-1.85l-67.89-67.89c-2.46-2.46-2.46-6.45,0-8.92,2.46-2.46,6.45-2.46,8.92,0l67.89,67.89c2.46,2.46,2.46,6.45,0,8.92-1.23,1.23-2.84,1.85-4.46,1.85Z"></path>
  <path d="m313.71,228.36h-115.42c-10.96,0-19.88-8.92-19.88-19.88s8.92-19.88,19.88-19.88h115.42c10.96,0,19.88,8.92,19.88,19.88s-8.92,19.88-19.88,19.88Zm-115.42-27.16c-4.01,0-7.27,3.26-7.27,7.27s3.26,7.27,7.27,7.27h115.42c4.01,0,7.27-3.26,7.27-7.27s-3.26-7.27-7.27-7.27h-115.42Z"></path>
  <path d="m313.71,201.2h-115.42c-3.48,0-6.3-2.82-6.3-6.3v-3.39c0-35.3,28.72-64.01,64.01-64.01s64.01,28.72,64.01,64.01v3.39c0,3.48-2.82,6.3-6.3,6.3Zm-109.03-12.61h102.64c-1.52-26.99-23.96-48.49-51.32-48.49s-49.81,21.5-51.32,48.49Z"></path>
  <path d="m256,140.1c-10.96,0-19.88-8.92-19.88-19.88s8.92-19.88,19.88-19.88,19.88,8.92,19.88,19.88-8.92,19.88-19.88,19.88Zm0-27.16c-4.01,0-7.27,3.26-7.27,7.27s3.26,7.27,7.27,7.27,7.27-3.26,7.27-7.27-3.26-7.27-7.27-7.27Z"></path>
</symbol><symbol id="i0911special-13" xmlns="http://www.w3.org/2000/svg" viewBox="0 0 512 512">
  <path d="m120.2,411.67c-1.61,0-3.23-.62-4.46-1.85l-67.89-67.89c-1.18-1.18-1.85-2.79-1.85-4.46s.66-3.28,1.85-4.46l67.89-67.89c14.32-14.32,33.37-22.21,53.63-22.21h140.93c12.54,0,23.08,8.69,25.92,20.37h26.46c11.52,0,22.28-6.18,28.09-16.13l31.29-53.65c4.2-7.19,11.97-11.67,20.29-11.69,7.49-.14,14.63,3.56,19.12,9.82,4.58,6.39,5.77,14.5,3.19,21.7-.05.15-.12.3-.18.45l-34.79,77.38c-14.38,31.96-46.31,52.61-81.35,52.61h-157.64l-66.05,66.04c-1.23,1.23-2.84,1.85-4.46,1.85Zm-58.98-74.2l58.98,58.98,63.43-63.43c1.18-1.18,2.79-1.85,4.46-1.85h160.25c30.09,0,57.5-17.73,69.85-45.18l34.68-77.13c1.09-3.25.48-6.92-1.64-9.88-2.12-2.96-5.29-4.61-8.71-4.56-.04,0-.07,0-.11,0-3.88,0-7.5,2.08-9.45,5.43l-31.29,53.65c-8.06,13.81-22.99,22.39-38.98,22.39h-32.01c-3.48,0-6.3-2.82-6.3-6.3,0-7.75-6.31-14.06-14.06-14.06h-140.93c-16.89,0-32.77,6.58-44.71,18.52l-63.43,63.43Z"></path>
  <path d="m310.29,296.25h-74.68c-3.48,0-6.3-2.82-6.3-6.3s2.82-6.3,6.3-6.3h74.68c7.75,0,14.06-6.31,14.06-14.06s-6.31-14.06-14.06-14.06c-3.48,0-6.3-2.82-6.3-6.3s2.82-6.3,6.3-6.3c14.71,0,26.67,11.97,26.67,26.67s-11.97,26.67-26.67,26.67Z"></path>
  <path d="m188.09,343.77c-1.61,0-3.23-.62-4.46-1.85l-67.89-67.89c-2.46-2.46-2.46-6.45,0-8.92s6.46-2.46,8.92,0l67.89,67.89c2.46,2.46,2.46,6.45,0,8.92-1.23,1.23-2.85,1.85-4.46,1.85Z"></path>
  <path d="m188.11,180.84c-1.61,0-3.23-.62-4.46-1.85l-40.74-40.73c-1.8-1.8-2.34-4.52-1.37-6.87.98-2.36,3.27-3.89,5.82-3.89h81.47c2.55,0,4.85,1.54,5.82,3.89.98,2.36.44,5.07-1.37,6.87l-40.74,40.73c-1.23,1.23-2.84,1.85-4.46,1.85Zm-25.51-40.73l25.51,25.51,25.51-25.51h-51.03Z"></path>
  <path d="m188.11,228.36c-3.48,0-6.3-2.82-6.3-6.3v-47.52c0-3.48,2.82-6.3,6.3-6.3s6.3,2.82,6.3,6.3v47.52c0,3.48-2.82,6.3-6.3,6.3Z"></path>
  <path d="m201.69,228.36h-27.16c-3.48,0-6.3-2.82-6.3-6.3s2.82-6.3,6.3-6.3h27.16c3.48,0,6.3,2.82,6.3,6.3s-2.82,6.3-6.3,6.3Z"></path>
  <path d="m228.85,140.1c-10.96,0-19.88-8.92-19.88-19.88s8.92-19.88,19.88-19.88,19.88,8.92,19.88,19.88-8.92,19.88-19.88,19.88Zm0-27.16c-4.01,0-7.27,3.26-7.27,7.27s3.26,7.27,7.27,7.27,7.27-3.26,7.27-7.27-3.26-7.27-7.27-7.27Z"></path>
  <path d="m310.32,180.84c-1.61,0-3.23-.62-4.46-1.85l-40.74-40.73c-1.8-1.8-2.34-4.52-1.37-6.87.98-2.36,3.27-3.89,5.82-3.89h81.47c2.55,0,4.85,1.54,5.82,3.89.98,2.36.44,5.07-1.37,6.87l-40.74,40.73c-1.23,1.23-2.84,1.85-4.46,1.85Zm-25.51-40.73l25.51,25.51,25.51-25.51h-51.03Z"></path>
  <path d="m310.32,228.36c-3.48,0-6.3-2.82-6.3-6.3v-47.52c0-3.48,2.82-6.3,6.3-6.3s6.3,2.82,6.3,6.3v47.52c0,3.48-2.82,6.3-6.3,6.3Z"></path>
  <path d="m323.89,228.36h-27.16c-3.48,0-6.3-2.82-6.3-6.3s2.82-6.3,6.3-6.3h27.16c3.48,0,6.3,2.82,6.3,6.3s-2.82,6.3-6.3,6.3Z"></path>
  <path d="m351.05,140.1c-10.96,0-19.88-8.92-19.88-19.88s8.92-19.88,19.88-19.88,19.88,8.92,19.88,19.88-8.92,19.88-19.88,19.88Zm0-27.16c-4.01,0-7.27,3.26-7.27,7.27s3.26,7.27,7.27,7.27,7.27-3.26,7.27-7.27-3.26-7.27-7.27-7.27Z"></path>
</symbol><symbol id="i0911special-14" xmlns="http://www.w3.org/2000/svg" viewBox="0 0 512 512">
  <path d="m188.06,466c-.63,0-1.26-.03-1.89-.09-10.07-.96-17.95-9.92-17.95-20.38v-223.97h-7.27c-25.94,0-47.04-21.1-47.04-47.04v-108.64c0-10.96,8.92-19.88,19.88-19.88s19.88,8.92,19.88,19.88v95.06c0,4.01,3.26,7.27,7.27,7.27s7.27-3.26,7.27-7.27v-95.88c0-10.51,8.55-19.07,19.06-19.07h1.64c10.51,0,19.06,8.55,19.06,19.07v95.88c0,4.01,3.26,7.27,7.28,7.27s7.27-3.26,7.27-7.27v-95.88c0-10.51,8.55-19.07,19.06-19.07h1.64c10.51,0,19.06,8.55,19.06,19.07v109.46c0,25.94-21.1,47.04-47.04,47.04h-7.28v224.55c0,5.59-2.37,10.95-6.51,14.72-3.67,3.34-8.47,5.17-13.42,5.17ZM133.78,58.61c-4.01,0-7.27,3.26-7.27,7.27v108.64c0,18.99,15.45,34.43,34.43,34.43h13.58c3.48,0,6.3,2.82,6.3,6.3v230.27c0,4.04,2.87,7.47,6.54,7.83,2.09.21,4.09-.46,5.62-1.86,1.54-1.4,2.38-3.31,2.38-5.39v-230.85c0-3.48,2.82-6.3,6.3-6.3h13.58c18.99,0,34.43-15.45,34.43-34.43v-109.46c0-3.56-2.89-6.46-6.45-6.46h-1.64c-3.56,0-6.45,2.9-6.45,6.46v95.88c0,10.96-8.92,19.88-19.88,19.88s-19.89-8.92-19.89-19.88v-95.88c0-3.56-2.89-6.46-6.45-6.46h-1.64c-3.56,0-6.45,2.9-6.45,6.46v95.88c0,10.96-8.92,19.88-19.88,19.88s-19.88-8.92-19.88-19.88v-95.06c0-4.01-3.26-7.27-7.27-7.27Z"></path>
  <path d="m391.8,330.2h-108.64c-3.48,0-6.3-2.82-6.3-6.3V52.31c0-3.48,2.82-6.3,6.3-6.3,63.38,0,114.94,51.56,114.94,114.94v162.96c0,3.48-2.82,6.3-6.3,6.3Zm-102.33-12.61h96.03v-156.65c0-54.31-42.53-98.87-96.03-102.14v258.79Z"></path>
  <path d="m296.74,466c-10.96,0-19.88-8.92-19.88-19.88v-122.22c0-3.48,2.82-6.3,6.3-6.3h27.16c3.48,0,6.3,2.82,6.3,6.3v122.22c0,10.96-8.92,19.88-19.88,19.88Zm-7.27-135.8v115.91c0,4.01,3.26,7.27,7.27,7.27s7.27-3.26,7.27-7.27v-115.91h-14.55Z"></path>
</symbol><symbol id="i0911special-15" xmlns="http://www.w3.org/2000/svg" viewBox="0 0 512 512">
  <path d="m337.48,466c-10.96,0-19.88-8.92-19.88-19.88v-226.71c-15.09-3.42-27.89-10.81-37.23-21.56-11.18-12.86-17.09-30.31-17.09-50.48,0-23.5,7.64-48.26,20.97-67.94,14.6-21.55,33.5-33.42,53.23-33.42s38.63,11.87,53.23,33.42c13.33,19.68,20.97,44.44,20.97,67.94,0,20.17-5.91,37.62-17.08,50.48-9.35,10.75-22.14,18.14-37.23,21.56v226.71c0,10.96-8.92,19.88-19.88,19.88Zm0-407.39c-15.41,0-30.61,9.9-42.79,27.89-11.77,17.38-18.8,40.14-18.8,60.87,0,33.04,18.32,55.7,49.01,60.61,3.06.49,5.31,3.13,5.31,6.23v231.91c0,4.01,3.26,7.27,7.27,7.27s7.27-3.26,7.27-7.27v-231.91c0-3.1,2.25-5.74,5.31-6.23,30.69-4.92,49.01-27.57,49.01-60.61,0-20.73-7.03-43.49-18.8-60.87-12.18-17.98-27.38-27.89-42.79-27.89Z"></path>
  <path d="m174.48,466c-.63,0-1.26-.03-1.89-.09-10.07-.96-17.95-9.91-17.95-20.38v-223.97h-7.27c-25.94,0-47.04-21.1-47.04-47.04v-108.64c0-10.96,8.92-19.88,19.88-19.88s19.88,8.92,19.88,19.88v95.06c0,4.01,3.26,7.27,7.27,7.27s7.27-3.26,7.27-7.27v-95.88c0-10.51,8.55-19.07,19.06-19.07h1.64c10.51,0,19.06,8.55,19.06,19.07v95.88c0,4.01,3.26,7.27,7.27,7.27s7.27-3.26,7.27-7.27v-95.88c0-10.51,8.55-19.07,19.06-19.07h1.64c10.51,0,19.06,8.55,19.06,19.07v109.46c0,25.94-21.1,47.04-47.04,47.04h-7.27v224.55c0,5.59-2.37,10.95-6.51,14.72-3.67,3.34-8.47,5.17-13.42,5.17ZM120.2,58.61c-4.01,0-7.27,3.26-7.27,7.27v108.64c0,18.99,15.45,34.43,34.43,34.43h13.58c3.48,0,6.3,2.82,6.3,6.3v230.27c0,4.04,2.87,7.48,6.54,7.83,2.09.2,4.09-.46,5.63-1.86,1.54-1.4,2.38-3.31,2.38-5.39v-230.85c0-3.48,2.82-6.3,6.3-6.3h13.58c18.99,0,34.43-15.45,34.43-34.43v-109.46c0-3.56-2.89-6.46-6.45-6.46h-1.64c-3.56,0-6.45,2.9-6.45,6.46v95.88c0,10.96-8.92,19.88-19.88,19.88s-19.88-8.92-19.88-19.88v-95.88c0-3.56-2.89-6.46-6.45-6.46h-1.64c-3.56,0-6.45,2.9-6.45,6.46v95.88c0,10.96-8.92,19.88-19.88,19.88s-19.88-8.92-19.88-19.88v-95.06c0-4.01-3.26-7.27-7.27-7.27Z"></path>
</symbol><symbol id="i0911special-2" xmlns="http://www.w3.org/2000/svg" viewBox="0 0 512 512">
  <g>
    <rect x="200.89" y="271.14" width="13.5" height="59.06" rx="6.75" ry="6.75"></rect>
    <rect x="250.46" y="271.14" width="13.5" height="59.06" rx="6.75" ry="6.75"></rect>
    <rect x="297.61" y="271.14" width="13.5" height="59.06" rx="6.75" ry="6.75"></rect>
  </g>
  <path d="m360.19,137.59c-1.56,0-3.1.05-4.64.13-24.17-27.81-59.81-45.4-99.55-45.4s-75.38,17.59-99.55,45.4c-1.54-.08-3.08-.13-4.64-.13-47.15,0-85.37,38.22-85.37,85.37s38.22,85.37,85.37,85.37c.88,0,1.75-.04,2.63-.07,1.8,2.17,3.67,4.28,5.6,6.33v73.05h191.93v-73.05c1.93-2.05,3.8-4.16,5.6-6.33.87.03,1.75.07,2.63.07,47.15,0,85.37-38.22,85.37-85.37s-38.22-85.37-85.37-85.37Zm0,157.24c-.5,0-1-.02-1.5-.04l-7.31-.22-4.21,5.08c-1.58,1.91-3.28,3.82-5.03,5.69l-3.68,3.9v64.91h-164.93v-64.91l-3.68-3.9c-1.76-1.87-3.45-3.78-5.03-5.69l-4.21-5.08-7.31.22c-.5.02-1,.04-1.5.04-39.63,0-71.87-32.24-71.87-71.87s32.24-71.87,71.87-71.87c1.25,0,2.53.04,3.91.11l6.59.35,4.33-4.98c22.51-25.9,55.09-40.76,89.37-40.76s66.85,14.85,89.37,40.76l4.33,4.98,6.59-.35c1.38-.07,2.66-.11,3.91-.11,39.63,0,71.87,32.24,71.87,71.87s-32.24,71.87-71.87,71.87Z"></path>
  <path d="m347.03,374.14h-182.06c-6.41,0-11.6,5.19-11.6,11.6v22.34c0,6.41,5.19,11.6,11.6,11.6h182.06c6.41,0,11.6-5.19,11.6-11.6v-22.34c0-6.41-5.19-11.6-11.6-11.6Zm-1.9,32.04h-178.26v-18.54h178.26v18.54Z"></path>
  <path d="m313.7,177.7l-39.87-5.79-17.83-36.13-17.83,36.13-39.87,5.79,28.85,28.12-6.81,39.71,35.66-18.75,35.66,18.75-6.81-39.71,28.85-28.12Zm-57.7,40.04l-25.04,13.16,4.78-27.88-20.25-19.74,27.99-4.07,12.52-25.36,12.52,25.36,27.99,4.07-20.25,19.74,4.78,27.88-25.03-13.16Z"></path>
</symbol><symbol id="i0911special-3" xmlns="http://www.w3.org/2000/svg" viewBox="0 0 512 512">
  <g>
    <rect x="200.89" y="271.14" width="13.5" height="59.06" rx="6.75" ry="6.75"></rect>
    <rect x="250.46" y="271.14" width="13.5" height="59.06" rx="6.75" ry="6.75"></rect>
    <rect x="297.61" y="271.14" width="13.5" height="59.06" rx="6.75" ry="6.75"></rect>
  </g>
  <path d="m360.19,137.59c-1.56,0-3.1.05-4.64.13-24.17-27.81-59.81-45.4-99.55-45.4s-75.38,17.59-99.55,45.4c-1.54-.08-3.08-.13-4.64-.13-47.15,0-85.37,38.22-85.37,85.37s38.22,85.37,85.37,85.37c.88,0,1.75-.04,2.63-.07,1.8,2.17,3.67,4.28,5.6,6.33v73.05h191.93v-73.05c1.93-2.05,3.8-4.16,5.6-6.33.87.03,1.75.07,2.63.07,47.15,0,85.37-38.22,85.37-85.37s-38.22-85.37-85.37-85.37Zm0,157.24c-.5,0-1-.02-1.5-.04l-7.31-.22-4.21,5.08c-1.58,1.91-3.28,3.82-5.03,5.69l-3.68,3.9v64.91h-164.93v-64.91l-3.68-3.9c-1.76-1.87-3.45-3.78-5.03-5.69l-4.21-5.08-7.31.22c-.5.02-1,.04-1.5.04-39.63,0-71.87-32.24-71.87-71.87s32.24-71.87,71.87-71.87c1.25,0,2.53.04,3.91.11l6.59.35,4.33-4.98c22.51-25.9,55.09-40.76,89.37-40.76s66.85,14.85,89.37,40.76l4.33,4.98,6.59-.35c1.38-.07,2.66-.11,3.91-.11,39.63,0,71.87,32.24,71.87,71.87s-32.24,71.87-71.87,71.87Z"></path>
  <path d="m347.03,374.14h-182.06c-6.41,0-11.6,5.19-11.6,11.6v22.34c0,6.41,5.19,11.6,11.6,11.6h182.06c6.41,0,11.6-5.19,11.6-11.6v-22.34c0-6.41-5.19-11.6-11.6-11.6Zm-1.9,32.04h-178.26v-18.54h178.26v18.54Z"></path>
  <polygon points="257.21 139.2 266.13 157.26 286.06 160.16 271.64 174.22 275.04 194.07 257.21 184.7 239.38 194.07 242.79 174.22 228.36 160.16 248.3 157.26 257.21 139.2"></polygon>
  <polygon points="318.24 156.78 327.15 174.84 347.08 177.74 332.66 191.8 336.06 211.65 318.24 202.28 300.41 211.65 303.81 191.8 289.39 177.74 309.32 174.84 318.24 156.78"></polygon>
  <polygon points="188.79 156.78 197.71 174.84 217.64 177.74 203.22 191.8 206.62 211.65 188.79 202.28 170.96 211.65 174.37 191.8 159.94 177.74 179.88 174.84 188.79 156.78"></polygon>
  <polygon points="133.7 194.07 142.61 212.14 162.55 215.03 148.12 229.09 151.53 248.95 133.7 239.57 115.87 248.95 119.27 229.09 104.85 215.03 124.78 212.14 133.7 194.07"></polygon>
  <polygon points="375.93 194.07 384.85 212.14 404.78 215.03 390.36 229.09 393.76 248.95 375.93 239.57 358.1 248.95 361.51 229.09 347.08 215.03 367.02 212.14 375.93 194.07"></polygon>
</symbol><symbol id="i0911special-4" xmlns="http://www.w3.org/2000/svg" viewBox="0 0 512 512">
  <path d="m360.19,137.59c-1.56,0-3.1.05-4.64.13-24.17-27.81-59.81-45.4-99.55-45.4s-75.38,17.59-99.55,45.4c-1.54-.08-3.08-.13-4.64-.13-47.15,0-85.37,38.22-85.37,85.37s38.22,85.37,85.37,85.37c.88,0,1.75-.04,2.63-.07,1.8,2.17,3.67,4.28,5.6,6.33v73.05h191.93v-73.05c1.93-2.05,3.8-4.16,5.6-6.33.87.03,1.75.07,2.63.07,47.15,0,85.37-38.22,85.37-85.37s-38.22-85.37-85.37-85.37Zm0,157.24c-.5,0-1-.02-1.5-.04l-7.31-.22-4.21,5.08c-1.58,1.91-3.28,3.82-5.03,5.69l-3.68,3.9v64.91h-164.93v-64.91l-3.68-3.9c-1.76-1.87-3.45-3.78-5.03-5.69l-4.21-5.08-7.31.22c-.5.02-1,.04-1.5.04-39.63,0-71.87-32.24-71.87-71.87s32.24-71.87,71.87-71.87c1.25,0,2.53.04,3.91.11l6.59.35,4.33-4.98c22.51-25.9,55.09-40.76,89.37-40.76s66.85,14.85,89.37,40.76l4.33,4.98,6.59-.35c1.38-.07,2.66-.11,3.91-.11,39.63,0,71.87,32.24,71.87,71.87s-32.24,71.87-71.87,71.87Z"></path>
  <path d="m347.03,374.14h-182.06c-6.41,0-11.6,5.19-11.6,11.6v22.34c0,6.41,5.19,11.6,11.6,11.6h182.06c6.41,0,11.6-5.19,11.6-11.6v-22.34c0-6.41-5.19-11.6-11.6-11.6Zm-1.9,32.04h-178.26v-18.54h178.26v18.54Z"></path>
  <g>
    <path d="m306.44,304.95l-142.45-133.29c-1.54-1.44-7.07-6.8-8.76-6.03-1.91.88-1.24,7.21-1.28,9.19-1.31,60.38,58.67,106.15,61.58,108.1,2.33,1.57,3.24,3.43,7.37-.84l2.93-3.14c1.36-1.45,3.63-1.52,5.08-.17l53.34,49.9c3.03,2.84,6.95,4.39,11.08,4.38.19,0,.37,0,.56,0,4.33-.15,8.35-1.96,11.32-5.14,2.96-3.17,4.51-7.3,4.37-11.63-.14-4.34-1.97-8.37-5.14-11.33Zm-7.56,15.2c-.89.95-2.06,1.48-3.39,1.53h-.2c-1.23,0-2.37-.45-3.28-1.31l-53.34-49.91c-2.79-2.6-6.42-4.04-10.23-4.04s-7.52,1.48-10.28,4.09c-11.5-9.56-45.61-40.97-51.87-81.11l132.36,123.85c.96.9,1.5,2.07,1.54,3.39.04,1.32-.41,2.53-1.32,3.5Z"></path>
    <path d="m364.56,174.53c-14.65-14.65-42.06-10.99-61.22,8.18-14.53,14.53-20.14,33.8-15.62,48.66.2.64.04,1.34-.44,1.82l-21.36,21.36c-.7.7-.7,1.84,0,2.54l16.09,16.09c.7.7,1.84.7,2.54,0l21.36-21.36c.48-.48,1.17-.63,1.82-.44,14.86,4.52,34.13-1.09,48.66-15.62,19.16-19.16,22.83-46.58,8.18-61.22Zm-16.22,53.18c-8.65,8.65-19.85,13.82-29.96,13.82h0c-2.88,0-5.58-.42-8.01-1.25l-5.65-1.93c-.65-.22-1.37-.05-1.85.43l-18.31,18.31c-.7.7-1.84.7-2.54,0h0c-.7-.7-.7-1.84,0-2.54l18.31-18.31c.48-.48.65-1.2.43-1.85l-1.93-5.65c-3.87-11.33,1.18-26.59,12.56-37.98,8.66-8.66,19.86-13.82,29.97-13.82,4.34,0,10.49.98,15.16,5.64,10.02,10.02,6.27,30.68-8.18,45.13Z"></path>
    <path d="m232.47,284.92l-25.49,25.49c-5.1,5.1-5.1,13.38,0,18.48h0c5.1,5.1,13.38,5.1,18.48,0l25.49-25.49-18.48-18.48Zm-15.05,35.93c-.41.41-.88.5-1.2.5s-.79-.09-1.2-.5-.5-.88-.5-1.19.09-.79.5-1.2l17.44-17.44,2.39,2.39-17.44,17.44Z"></path>
  </g>
</symbol><symbol id="i0911special-5" xmlns="http://www.w3.org/2000/svg" viewBox="0 0 512 512">
  <path d="m452.86,378.53H71.09c-7.26,0-13.14,5.04-13.14,11.25v28.32c0,6.21,5.88,11.25,13.14,11.25h381.77c7.26,0,13.14-5.04,13.14-11.25v-28.32c0-6.21-5.88-11.25-13.14-11.25Zm-2.25,31.24c0,3.53-3.34,6.4-7.47,6.4H80.82c-4.13,0-7.47-2.87-7.47-6.4v-11.66c0-3.53,3.34-6.4,7.47-6.4h362.32c4.13,0,7.47,2.87,7.47,6.4v11.66Z"></path>
  <path d="m86.48,135.62c-62.71,78.04-50.29,192.14,27.75,254.85L341.33,107.87c-78.04-62.71-192.14-50.29-254.85,27.75Zm10.28,8.26c55.28-68.79,154.03-82.55,225.72-33.59L112.54,371.54c-63.24-59.47-71.06-158.87-15.78-227.66Z"></path>
  <path d="m73.35,92.26c-15.1,0-27.35,12.24-27.35,27.35s12.24,27.35,27.35,27.35,27.35-12.24,27.35-27.35-12.24-27.35-27.35-27.35Zm0,41.51c-7.81,0-14.16-6.35-14.16-14.16s6.35-14.16,14.16-14.16,14.16,6.35,14.16,14.16-6.35,14.16-14.16,14.16Z"></path>
  <path d="m337.01,263.19c-1.69,0-3.38-.62-4.71-1.87-2.76-2.6-2.88-6.94-.29-9.69,4.74-5.03,3.43-9.23-1.22-19.09-4.38-9.31-10.39-22.05,1.21-34.36,4.75-5.03,3.44-9.23-1.21-19.09-4.38-9.3-10.39-22.05,1.21-34.36,2.6-2.76,6.95-2.87,9.71-.29,2.75,2.6,2.88,6.94.29,9.7-4.74,5.03-3.43,9.23,1.22,19.1,4.38,9.3,10.39,22.04-1.22,34.35-4.74,5.03-3.43,9.23,1.22,19.09,4.38,9.31,10.39,22.05-1.22,34.35-1.35,1.43-3.17,2.16-4.99,2.16Z"></path>
  <path d="m390.56,120.65c0-9.4-4.52-14.41-7.82-18.07-2.67-2.96-4.01-4.45-4.01-8.16s1.34-5.2,4.01-8.16c3.3-3.66,7.82-8.67,7.82-18.07,0-4.08-3.31-7.4-7.4-7.4s-7.4,3.31-7.4,7.4c0,3.71-1.34,5.2-4.01,8.16-3.3,3.66-7.82,8.67-7.82,18.07s4.52,14.41,7.82,18.07c2.67,2.96,4.01,4.45,4.01,8.16s-1.34,5.2-4.01,8.16c-3.3,3.66-7.82,8.67-7.82,18.07s4.52,14.41,7.82,18.07c2.67,2.96,4.01,4.45,4.01,8.16s-1.34,5.2-4.01,8.16c-3.3,3.66-7.82,8.67-7.82,18.07,0,4.08,3.31,7.4,7.4,7.4s7.4-3.31,7.4-7.4c0-3.72,1.34-5.2,4.01-8.16,3.3-3.66,7.82-8.67,7.82-18.07s-4.52-14.41-7.82-18.07c-2.67-2.96-4.01-4.45-4.01-8.16s1.34-5.2,4.01-8.16c3.3-3.66,7.82-8.67,7.82-18.07Z"></path>
  <path d="m251.74,263.72c69.11,11.4,122.53,55.27,131.24,109.52.48,2.97-2.55,5.6-6.48,5.6H121.35c-1.98,0-3.85.68-5.08,1.86l-.11.1c-3.43,3.25-.39,8.08,5.08,8.08h269.52c3.68,0,6.66-2.32,6.52-5.12-3.06-63.91-63.13-116.73-142.62-129.85-2.43-.4-4.95.26-6.51,1.74l-.11.1c-3.03,2.87-1.04,7.18,3.69,7.96Z"></path>
  <path d="m289.17,315.14l-9.11-1.85c-8.09-1.64-14.38-7.93-16.02-16.02l-1.85-9.11c-.61-3.03-3.1-5.07-6.2-5.07s-5.58,2.04-6.2,5.07l-1.85,9.11c-1.64,8.09-7.93,14.38-16.02,16.02l-9.11,1.85c-3.03.61-5.07,3.11-5.07,6.2s2.04,5.58,5.07,6.2l9.11,1.85c8.09,1.64,14.38,7.93,16.02,16.02l1.85,9.11c.61,3.03,3.11,5.07,6.2,5.07s5.58-2.04,6.2-5.07l1.85-9.11c1.64-8.09,7.93-14.38,16.02-16.02l9.11-1.85c3.03-.61,5.07-3.11,5.07-6.2s-2.04-5.58-5.07-6.2Zm-10.7,6.4c-11.25,2.28-19.99,11.02-22.27,22.27l-.2,1.01-.2-1.01c-2.28-11.25-11.02-19.99-22.27-22.27l-1.01-.2,1.01-.2c11.25-2.28,19.99-11.02,22.27-22.27l.2-1.01.2,1.01c2.28,11.25,11.02,19.99,22.27,22.27l1.01.2-1.01.2Z"></path>
  <path d="m448.66,302.62l-9.11-1.85c-8.09-1.64-14.38-7.93-16.02-16.02l-1.85-9.11c-.61-3.03-3.1-5.07-6.2-5.07s-5.58,2.04-6.2,5.07l-1.85,9.11c-1.64,8.09-7.93,14.38-16.02,16.02l-9.11,1.85c-3.03.61-5.07,3.11-5.07,6.2s2.04,5.58,5.07,6.2l9.11,1.85c8.09,1.64,14.38,7.93,16.02,16.02l1.85,9.11c.61,3.03,3.11,5.07,6.2,5.07s5.58-2.04,6.2-5.07l1.85-9.11c1.64-8.09,7.93-14.38,16.02-16.02l9.11-1.85c3.03-.61,5.07-3.11,5.07-6.2s-2.04-5.58-5.07-6.2Zm-10.7,6.4c-11.25,2.28-19.99,11.02-22.27,22.27l-.2,1.01-.2-1.01c-2.28-11.25-11.02-19.99-22.27-22.27l-1.01-.2,1.01-.2c11.25-2.28,19.99-11.02,22.27-22.27l.2-1.01.2,1.01c2.28,11.25,11.02,19.99,22.27,22.27l1.01.2-1.01.2Z"></path>
  <path d="m430.46,233.78l-9.11-1.85c-8.09-1.64-14.38-7.93-16.02-16.02l-1.85-9.11c-.61-3.03-3.1-5.07-6.2-5.07s-5.58,2.04-6.2,5.07l-1.85,9.11c-1.64,8.09-7.93,14.38-16.02,16.02l-9.11,1.85c-3.03.61-5.07,3.11-5.07,6.2s2.04,5.58,5.07,6.2l9.11,1.85c8.09,1.64,14.38,7.93,16.02,16.02l1.85,9.11c.61,3.03,3.11,5.07,6.2,5.07s5.58-2.04,6.2-5.07l1.85-9.11c1.64-8.09,7.93-14.38,16.02-16.02l9.11-1.85c3.03-.61,5.07-3.11,5.07-6.2s-2.04-5.58-5.07-6.2Zm-10.7,6.4c-11.25,2.28-19.99,11.02-22.27,22.27l-.2,1.01-.2-1.01c-2.28-11.25-11.02-19.99-22.27-22.27l-1.01-.2,1.01-.2c11.25-2.28,19.99-11.02,22.27-22.27l.2-1.01.2,1.01c2.28,11.25,11.02,19.99,22.27,22.27l1.01.2-1.01.2Z"></path>
</symbol><symbol id="i0911special-6" xmlns="http://www.w3.org/2000/svg" viewBox="0 0 512 512">
  <path d="m335.37,360.46s-.05-.02-.07-.04c-14.99-8.44-31.91-14.79-50.13-18.5v-17.25c29.98-12.31,50.08-41.54,50.11-68.41,0-.02.01-.03.01-.05v-107.81c27.98-3.09,48.96-23.48,48.96-49.02,0-30.1-19.56-49.54-49.83-49.54-13.37,0-26.01,3.72-36.25,10.58-10.87-9.22-25.6-14.41-41.4-14.41-17.79,0-34.46,6.8-45.44,18.16-10.88-9.08-25.75-14.33-41.31-14.33-30.28,0-49.84,19.45-49.84,49.54,0,24.82,24.27,46.04,54.47,49.07v107.77s.02.07.02.1c.05,27.47,21.07,57.37,52.15,69.16v16.38c-17.82,3.6-39.71,9.88-53.75,18.04-.14.08-.26.17-.4.25-.13.09-.27.14-.39.24-38.48,22.49-61.44,59.15-61.44,98.25,0,4.07,3.3,7.37,7.37,7.37h275.57c4.08,0,7.37-3.3,7.37-7.37,0-39.14-26.08-75.79-65.79-98.17ZM134.94,99.38c0-21.79,13.11-34.8,35.09-34.8,14.53,0,28.11,5.71,36.31,15.29,1.51,1.75,3.72,2.73,6.04,2.56,2.3-.13,4.41-1.34,5.69-3.25,7.63-11.37,22.47-18.43,38.72-18.43,13.96,0,27.19,5.35,35.39,14.31,2.68,2.93,7.22,3.21,10.23.62,8.23-7.05,19.91-11.09,32.03-11.09,21.97,0,35.08,13.01,35.08,34.8,0,19.79-17.88,34.72-41.59,34.72-4.08,0-7.37,3.3-7.37,7.37v77.18c-42.67-12.81-88.48-12.8-131.14,0v-77.18c0-4.07-3.3-7.37-7.37-7.37-25.08,0-47.09-16.23-47.09-34.72Zm54.48,156.83s-.01-.05-.01-.07v-22.08c42.48-13.73,88.63-13.76,131.14-.02v22.14s0,.02,0,.04c0,28.21-28.05,59.76-65.59,59.76s-65.52-32.12-65.52-59.76Zm44.78,109.46c4.08,0,7.37-3.3,7.37-7.37v-28.81c4.34.74,8.77,1.23,13.37,1.23,5.34,0,10.5-.58,15.48-1.57v29.15c0,4.07,3.3,7.37,7.37,7.37s7.37-3.3,7.37-7.37v-1.35c10.99,2.44,21.43,5.92,31.15,10.3l-27.8,17.71c-9.97,6.24-21.16,9.42-32.39,9.57-.05,0-.08-.03-.13-.03-.08,0-.15.04-.23.05-11.31.09-22.65-2.92-32.78-9.03l-30.66-18.48c10.7-4.27,23.42-7.73,34.5-10.11v1.37c0,4.07,3.3,7.37,7.37,7.37Zm-57.3,9.29l38.47,23.18c10.36,6.24,21.73,9.7,33.26,10.71v42.4h-122.71c2.62-30.04,21.26-57.86,50.98-76.29Zm86.48,76.29v-42.51c11.48-1.22,22.78-4.9,33.02-11.32l35.01-22.3c30.83,18.35,51.68,46.13,54.64,76.13h-122.67Z"></path>
</symbol><symbol id="i0911special-7" xmlns="http://www.w3.org/2000/svg" viewBox="0 0 512 512">
  <path d="m109.3,70.62c-36.57,0-63.3,64.24-63.3,97.69s24.3,58.94,55.55,62.78v198.65c0,4.28,3.47,7.75,7.75,7.75s7.75-3.47,7.75-7.75v-198.65c31.26-3.84,55.55-30.51,55.55-62.78s-26.73-97.69-63.3-97.69Zm0,145.49c-26.36,0-47.8-21.45-47.8-47.81,0-29.46,24.1-82.19,47.8-82.19s47.8,52.73,47.8,82.19c0,26.36-21.45,47.81-47.8,47.81Z"></path>
  <path d="m325.63,70.61c-4.28,0-7.75,3.47-7.75,7.75v72.99c-9.63,4.38-19.8,7.05-30.15,7.95v-80.94c0-4.28-3.47-7.75-7.75-7.75s-7.75,3.47-7.75,7.75v80.99c-10.55-.85-20.95-3.52-30.77-7.99v-72.99c0-4.28-3.47-7.75-7.75-7.75s-7.75,3.47-7.75,7.75v95.65c0,16.8,8.33,32.42,22.27,41.78l23.99,16.11.54,201.75c.01,4.28,3.48,7.73,7.75,7.73h.02c4.28-.01,7.74-3.49,7.73-7.77l-.54-201.84,24.28-17.12c13.38-9.35,21.37-24.73,21.37-41.15v-95.16c0-4.28-3.47-7.75-7.75-7.75Zm-22.52,131.37l-23.24,16.39-22.98-15.43c-9.65-6.48-15.42-17.29-15.42-28.91v-5.78c12.29,4.65,25.23,7.03,38.19,7.03.04,0,.09,0,.13,0,.07,0,.12.04.19.04.12,0,.22-.06.34-.07,12.74-.08,25.47-2.4,37.55-6.97v5.26c0,11.36-5.51,21.99-14.77,28.46Z"></path>
  <path d="m462.25,71.73c-2.33-1.41-5.22-1.48-7.62-.21-41.92,22.18-62.29,58.77-62.29,111.83,0,39.95,19.57,73.77,58.17,100.59v145.79c0,4.28,3.47,7.75,7.75,7.75s7.75-3.47,7.75-7.75V78.37c0-2.72-1.42-5.24-3.75-6.64Zm-11.74,192.91c-28.33-22.57-42.67-49.86-42.67-81.29,0-52.51,21.9-77.49,42.67-91.39v172.68Z"></path>
</symbol><symbol id="i0911special-8" xmlns="http://www.w3.org/2000/svg" viewBox="0 0 512 512">
  <g id="tray">
    <path d="m421.22,363.39c-3.73,0-6.75-3.02-6.75-6.75,0-87.38-71.09-158.47-158.47-158.47s-158.47,71.09-158.47,158.47c0,3.73-3.02,6.75-6.75,6.75s-6.75-3.02-6.75-6.75c0-94.82,77.15-171.97,171.97-171.97s171.97,77.15,171.97,171.97c0,3.73-3.02,6.75-6.75,6.75Z"></path>
    <path d="m466,363.39H46c-3.73,0-6.75-3.02-6.75-6.75s3.02-6.75,6.75-6.75h420c3.73,0,6.75,3.02,6.75,6.75s-3.02,6.75-6.75,6.75Z"></path>
    <path d="m292.05,198.16c-3.73,0-6.75-3.02-6.75-6.75,0-16.16-13.14-29.3-29.3-29.3s-29.3,13.14-29.3,29.3c0,3.73-3.02,6.75-6.75,6.75s-6.75-3.02-6.75-6.75c0-23.6,19.2-42.8,42.8-42.8s42.8,19.2,42.8,42.8c0,3.73-3.02,6.75-6.75,6.75Z"></path>
    <path d="m353.27,280.78c-2.83,0-5.46-1.79-6.4-4.62-9.45-28.4-37.48-37.66-37.76-37.75-3.55-1.14-5.51-4.94-4.37-8.49,1.13-3.55,4.93-5.51,8.49-4.37,1.42.45,34.87,11.52,46.46,46.35,1.18,3.54-.74,7.36-4.27,8.54-.71.24-1.43.35-2.13.35Z"></path>
  </g>
</symbol><symbol id="i0911special-9" xmlns="http://www.w3.org/2000/svg" viewBox="0 0 512 512">
  <path d="m452.86,378.53H71.09c-7.26,0-13.14,5.04-13.14,11.25v28.32c0,6.21,5.88,11.25,13.14,11.25h381.77c7.26,0,13.14-5.04,13.14-11.25v-28.32c0-6.21-5.88-11.25-13.14-11.25Zm-2.25,31.24c0,3.53-3.34,6.4-7.47,6.4H80.82c-4.13,0-7.47-2.87-7.47-6.4v-11.66c0-3.53,3.34-6.4,7.47-6.4h362.32c4.13,0,7.47,2.87,7.47,6.4v11.66Z"></path>
  <path d="m86.48,135.62c-62.71,78.04-50.29,192.14,27.75,254.85L341.33,107.87c-78.04-62.71-192.14-50.29-254.85,27.75Zm10.28,8.26c55.28-68.79,154.03-82.55,225.72-33.59L112.54,371.54c-63.24-59.47-71.06-158.87-15.78-227.66Z"></path>
  <path d="m73.35,92.26c-15.1,0-27.35,12.24-27.35,27.35s12.24,27.35,27.35,27.35,27.35-12.24,27.35-27.35-12.24-27.35-27.35-27.35Zm0,41.51c-7.81,0-14.16-6.35-14.16-14.16s6.35-14.16,14.16-14.16,14.16,6.35,14.16,14.16-6.35,14.16-14.16,14.16Z"></path>
  <path d="m337.01,263.19c-1.69,0-3.38-.62-4.71-1.87-2.76-2.6-2.88-6.94-.29-9.69,4.74-5.03,3.43-9.23-1.22-19.09-4.38-9.31-10.39-22.05,1.21-34.36,4.75-5.03,3.44-9.23-1.21-19.09-4.38-9.3-10.39-22.05,1.21-34.36,2.6-2.76,6.95-2.87,9.71-.29,2.75,2.6,2.88,6.94.29,9.7-4.74,5.03-3.43,9.23,1.22,19.1,4.38,9.3,10.39,22.04-1.22,34.35-4.74,5.03-3.43,9.23,1.22,19.09,4.38,9.31,10.39,22.05-1.22,34.35-1.35,1.43-3.17,2.16-4.99,2.16Z"></path>
  <path d="m427.21,272.27c-1.69,0-3.38-.62-4.71-1.87-2.76-2.6-2.88-6.94-.29-9.69,4.74-5.03,3.43-9.23-1.22-19.09-4.38-9.31-10.39-22.05,1.21-34.36,4.75-5.03,3.44-9.23-1.21-19.09-4.38-9.3-10.39-22.05,1.21-34.36,2.6-2.76,6.95-2.87,9.71-.29,2.75,2.6,2.88,6.94.29,9.7-4.74,5.03-3.43,9.23,1.22,19.1,4.38,9.3,10.39,22.04-1.22,34.35-4.74,5.03-3.43,9.23,1.22,19.09,4.38,9.31,10.39,22.05-1.22,34.35-1.35,1.43-3.17,2.16-4.99,2.16Z"></path>
  <path d="m58.07,415.68c4.85,5.3,8.55,11.57,10.87,18.47,2.01,5.96,7.58,9.96,13.86,9.96h358.34c6.29,0,11.86-4,13.86-9.96,2.32-6.9,6.02-13.17,10.87-18.47H58.07Zm384.44,14.27c-.2.6-.74.98-1.37.98H82.81c-.63,0-1.17-.39-1.37-.99-.12-.36-.25-.72-.38-1.08h361.83c-.13.36-.25.72-.38,1.09Z"></path>
  <path d="m393.09,138.53c0-9.4-4.52-14.41-7.82-18.07-2.67-2.96-4.01-4.45-4.01-8.16s1.34-5.2,4.01-8.16c3.3-3.66,7.82-8.67,7.82-18.07,0-4.08-3.31-7.4-7.4-7.4s-7.4,3.31-7.4,7.4c0,3.71-1.34,5.2-4.01,8.16-3.3,3.66-7.82,8.67-7.82,18.07s4.52,14.41,7.82,18.07c2.67,2.96,4.01,4.45,4.01,8.16s-1.34,5.2-4.01,8.16c-3.3,3.66-7.82,8.67-7.82,18.07s4.52,14.41,7.82,18.07c2.67,2.96,4.01,4.45,4.01,8.16s-1.34,5.2-4.01,8.16c-3.3,3.66-7.82,8.67-7.82,18.07,0,4.08,3.31,7.4,7.4,7.4s7.4-3.31,7.4-7.4c0-3.72,1.34-5.2,4.01-8.16,3.3-3.66,7.82-8.67,7.82-18.07s-4.52-14.41-7.82-18.07c-2.67-2.96-4.01-4.45-4.01-8.16s1.34-5.2,4.01-8.16c3.3-3.66,7.82-8.67,7.82-18.07Z"></path>
  <path d="m274.55,266.55c69.11,11.4,122.53,55.27,131.24,109.52.48,2.97-2.55,5.6-6.48,5.6h-255.15c-1.98,0-3.85.68-5.08,1.86l-.11.1c-3.43,3.25-.39,8.08,5.08,8.08h269.52c3.68,0,6.66-2.32,6.52-5.12-3.06-63.91-63.13-116.73-142.62-129.85-2.43-.4-4.95.26-6.51,1.74l-.11.1c-3.03,2.87-1.04,7.18,3.69,7.96Z"></path>
  <polygon points="296.99 278.57 311.81 308.59 344.94 313.41 320.96 336.77 326.62 369.77 296.99 354.19 267.36 369.77 273.02 336.77 249.04 313.41 282.17 308.59 296.99 278.57"></polygon>
</symbol>
</svg>