<svg xmlns="http://www.w3.org/2000/svg" style="display: none;">

<symbol id="i521_mexican-1" xmlns="http://www.w3.org/2000/svg" viewBox="0 0 512 512">
  <g id="tako">
    <path d="m367.12,367.13H80.95c-7.99,0-15.46-3.4-20.51-9.34-4.81-5.65-6.9-13.05-5.73-20.3,5.74-35.51,24.81-68.08,53.7-91.69,29.1-23.78,66.33-36.88,104.85-36.88,88.44,0,160.4,68.04,160.4,151.67,0,3.61-2.93,6.54-6.54,6.54Zm-153.86-145.13c-72.19,0-134.8,50.55-145.64,117.58-.57,3.51.42,6.97,2.77,9.73,2.56,3.01,6.41,4.73,10.55,4.73h279.46c-3.64-73.4-68.25-132.05-147.15-132.05Z"></path>
    <path d="m167.42,228.57c-3.61,0-6.54-2.93-6.54-6.54,0-2.5,1.4-4.67,3.46-5.77.18-.1.36-.2.55-.28,23.71-12.56,50.8-19.64,78.35-20.49,3.61-.13,6.63,2.72,6.74,6.33.11,3.61-2.72,6.63-6.33,6.74-25.67.79-50.88,7.4-72.9,19.12-1,.58-2.15.89-3.32.89Zm.21-.09h-.01.01Zm0,0h0,0Z"></path>
    <path d="m396.28,367.08h-29.21c-3.61,0-6.54-2.93-6.54-6.54s2.93-6.54,6.54-6.54h29.21c4.14,0,7.98-1.71,10.55-4.68,2.31-2.67,3.3-6.02,2.79-9.42-5.23-36.56-24.54-70.08-54.38-94.4-2.8-2.28-3.22-6.4-.94-9.2,2.28-2.8,6.4-3.22,9.2-.94,32.39,26.41,53.36,62.86,59.06,102.65,1.05,7.08-1.07,14.33-5.83,19.85-5.05,5.86-12.51,9.22-20.45,9.22Z"></path>
    <path d="m366.96,363.5c-3.35,0-6.2-2.56-6.51-5.95-.32-3.6,2.33-6.78,5.93-7.1,12.52-1.13,21.95-10.86,21.95-22.64s-9.22-21.19-21.44-22.46c-.11-.01-.23-.03-.34-.04-.83-.13-1.79-.2-2.68-.2-2.91,0-5.8.48-8.58,1.44-3.42,1.17-7.14-.65-8.31-4.06-1.17-3.42.65-7.14,4.06-8.31,4.15-1.42,8.47-2.15,12.82-2.15,1.52,0,3.09.12,4.54.34,18.83,2.04,33,17.25,33,35.45s-14.56,33.93-33.86,35.67c-.2.02-.4.03-.59.03Z"></path>
    <path d="m367.56,305.37c-1.43,0-2.86-.46-4.07-1.42-2.83-2.25-3.3-6.36-1.05-9.19,2.54-3.19,3.88-6.91,3.88-10.74,0-8.22-5.78-15.32-14.38-17.65-1.98-.54-3.6-1.98-4.36-3.89s-.58-4.06.49-5.82c3.03-4.98,4.67-10.62,4.75-16.32v-.66c0-19.29-16.81-34.98-37.47-34.98-8.24,0-15.92,2.36-22.23,6.82-2.85,2.01-6.77,1.44-8.92-1.3-4.68-5.97-11.92-9.39-19.86-9.39-6.19,0-12.09,2.17-16.6,6.12-3.64,3.13-6.14,7.1-7.27,11.52-.9,3.5-4.46,5.61-7.96,4.71-3.5-.9-5.61-4.46-4.71-7.96,1.8-7.03,5.74-13.3,11.37-18.15,6.85-6,15.81-9.32,25.17-9.32,9.93,0,19.17,3.6,26.14,10.04,7.45-4.05,15.95-6.17,24.88-6.17,27.87,0,50.55,21.56,50.55,48.06v.76c-.08,5.58-1.19,11.08-3.25,16.23,10.15,5.52,16.76,15.93,16.76,27.36,0,6.82-2.32,13.35-6.72,18.88-1.29,1.62-3.2,2.47-5.12,2.47Z"></path>
    <path d="m418.68,246.93h-59.32c-3.61,0-6.54-2.93-6.54-6.54s2.93-6.54,6.54-6.54h52.56c-.85-17.88-5.23-34.94-13.02-50.77-20.78-43.06-64.45-73.66-113.98-79.9-6.55-.91-13.28-1.36-20.09-1.36-72.18,0-134.81,50.57-145.68,117.64-1.03,6.43,3.27,12.46,10.01,14,3.52.81,5.72,4.31,4.92,7.83-.81,3.52-4.31,5.72-7.83,4.92-13.54-3.1-22.14-15.49-20-28.83,5.76-35.55,24.85-68.12,53.74-91.74,29.1-23.79,66.34-36.89,104.85-36.89,7.4,0,14.74.5,21.8,1.48,26.79,3.38,52.51,13.33,74.29,28.78,21.45,15.21,38.64,35.39,49.73,58.36,9.04,18.35,13.9,38.25,14.45,59.1.11,1.34.11,2.66.11,3.94,0,3.61-2.93,6.54-6.54,6.54Z"></path>
    <path d="m218.99,108.41c-3.61,0-6.54-2.93-6.54-6.54,0-2.5,1.41-4.68,3.47-5.78.18-.1.35-.19.54-.27,23.71-12.56,50.8-19.64,78.35-20.49,3.62-.11,6.63,2.72,6.74,6.33.11,3.61-2.72,6.63-6.33,6.74-25.68.79-50.89,7.41-72.91,19.12-1,.57-2.14.88-3.31.88Zm.21-.09h-.01.01Zm0,0h0,0Z"></path>
    <path d="m447.85,246.92h-29.21c-3.61,0-6.54-2.93-6.54-6.54s2.93-6.54,6.54-6.54h29.21c4.14,0,7.98-1.71,10.55-4.68,2.31-2.67,3.3-6.02,2.79-9.42-5.23-36.56-24.54-70.08-54.38-94.4-2.8-2.28-3.22-6.4-.94-9.2,2.28-2.8,6.4-3.22,9.2-.94,32.39,26.41,53.36,62.86,59.06,102.65,1.05,7.08-1.07,14.33-5.83,19.85-5.05,5.86-12.51,9.22-20.45,9.22Z"></path>
    <path d="m418.54,243.34c-3.35,0-6.2-2.56-6.51-5.95-.32-3.6,2.33-6.78,5.93-7.1,12.52-1.13,21.95-10.86,21.95-22.64s-9.22-21.19-21.44-22.46c-.11-.01-.23-.03-.34-.04-.84-.13-1.79-.2-2.68-.2-2.91,0-5.8.48-8.58,1.44-3.42,1.17-7.14-.65-8.31-4.06s.65-7.14,4.06-8.31c4.15-1.42,8.47-2.15,12.82-2.15,1.52,0,3.08.12,4.54.34,18.83,2.04,33,17.25,33,35.45s-14.56,33.93-33.86,35.67c-.2.02-.4.03-.59.03Z"></path>
    <path d="m419.14,185.22c-1.43,0-2.86-.46-4.07-1.42-2.83-2.25-3.3-6.36-1.05-9.19,2.54-3.19,3.88-6.91,3.88-10.74,0-8.22-5.78-15.32-14.38-17.66-1.98-.54-3.6-1.98-4.36-3.89-.76-1.91-.58-4.06.49-5.82,3.03-4.98,4.67-10.62,4.75-16.32v-.66c0-19.29-16.81-34.98-37.47-34.98-8.24,0-15.92,2.36-22.23,6.82-2.85,2.01-6.77,1.44-8.92-1.3-4.68-5.97-11.92-9.39-19.86-9.39-6.19,0-12.09,2.17-16.6,6.12-3.64,3.13-6.14,7.1-7.27,11.52-.9,3.5-4.46,5.61-7.96,4.71-3.5-.9-5.61-4.46-4.71-7.96,1.8-7.03,5.74-13.3,11.37-18.15,6.85-6,15.81-9.32,25.17-9.32,9.93,0,19.17,3.6,26.14,10.04,7.45-4.05,15.95-6.17,24.88-6.17,27.87,0,50.55,21.56,50.55,48.06v.75c-.08,5.58-1.19,11.08-3.25,16.23,10.15,5.52,16.76,15.93,16.76,27.36,0,6.82-2.32,13.35-6.72,18.88-1.29,1.62-3.2,2.47-5.12,2.47Z"></path>
  </g>
</symbol><symbol id="i521_mexican-10" xmlns="http://www.w3.org/2000/svg" viewBox="0 0 512 512">
  <path d="m258.29,110.53c-115.98,0-210,70.39-210,157.22s94.02,157.22,210,157.22,210-70.39,210-157.22-94.02-157.22-210-157.22Zm0,300.99c-108.38,0-196.55-64.49-196.55-143.77s88.17-143.77,196.55-143.77,196.55,64.49,196.55,143.77-88.17,143.77-196.55,143.77Z"></path>
  <path d="m275.99,121.42c-106.2,0-192.3,64.46-192.3,143.97s86.09,143.97,192.3,143.97,192.3-64.46,192.3-143.97-86.09-143.97-192.3-143.97Zm0,274.48c-98.61,0-178.84-58.55-178.84-130.51s80.23-130.51,178.84-130.51,178.84,58.55,178.84,130.51-80.23,130.51-178.84,130.51Z"></path>
  <path d="m191.06,169.02s-27.27,36.51-16.44,86.82c27.53-3.02,38.5,2.54,38.5,2.54,0,0,.39-60.15,8.87-78.88-15.27-11.74-30.93-10.48-30.93-10.48Zm8.97,72.88c-2.95-.26-6.27-.42-9.97-.42-1.33,0-2.69.02-4.07.06-2.67-27.35,6.64-48.63,12.15-58.51,2.26.44,4.97,1.2,7.89,2.5-3.9,16.55-5.41,40.17-6,56.37Z"></path>
  <path d="m233.69,272.08c-.72-2.34-1.55-5.05-2.47-8.05l3.34,7.92c-.29.04-.59.09-.87.13Z"></path>
  <path d="m279.58,177.91c-24.01-19.63-51.84-7.7-52.86-6.37-6.11,8.03-15.46,50.6-15.46,50.6l27.76,15.35,33.54-31.49s10.3-10.3,7.01-28.09Zm-16.61,18.65l-26.01,24.42-10.31-5.7c3.26-13.51,7.15-27.24,9.7-33.32,2.6-.81,6.85-1.77,11.88-1.77,6.76,0,12.97,1.71,18.54,5.09-.13,6.48-3.01,10.35-3.79,11.28Z"></path>
  <path d="m243.39,214.86c3.62,8-1.81,25.8-1.81,25.8,11.62-4.68,50.09,10.56,50.09,10.56,0,0,11.17-17.5,12.82-32.44-17.8-14.79-51.9-13.43-61.11-3.92Zm42.02,19.77c-7.7-2.61-18.11-5.76-27.52-7.33.14-1.65.21-3.32.2-4.99,2.67-.65,6.29-1.17,10.73-1.17,7.46,0,14.72,1.47,20.46,4.01-1.08,3.26-2.47,6.53-3.88,9.47Z"></path>
  <path d="m156.28,296.14c3.62,8-1.81,25.8-1.81,25.8,11.62-4.68,50.09,10.56,50.09,10.56,0,0,11.17-17.5,12.82-32.44-17.8-14.79-51.9-13.43-61.11-3.92Zm42.02,19.77c-7.7-2.61-18.11-5.76-27.52-7.33.14-1.65.21-3.32.2-4.99,2.67-.65,6.29-1.17,10.73-1.17,7.46,0,14.72,1.47,20.46,4.01-1.08,3.26-2.47,6.54-3.88,9.47Z"></path>
  <path d="m378.25,181.69c-2.53,0-4.97.3-7.27.87.12-4.38-1.15-8.52-3.97-11.75-6.9-7.88-20.38-7.4-30.52.91-1.27-.85-2.63-1.63-4.08-2.32-12.28-5.79-25.95-2.61-30.53,7.1-2.62,5.55-1.7,12.03,1.85,17.65-6.03,8.48-6.7,18.92-.9,25.54,6.03,6.89,17.09,7.38,26.55,1.85,1.47,2.67,3.43,5.22,5.87,7.49,9.94,9.25,23.92,10.38,31.25,2.51,2.98-3.2,4.37-7.4,4.33-11.87,2.34.59,4.83.9,7.42.9,13.58,0,24.58-8.71,24.58-19.45s-11.01-19.45-24.58-19.45Zm0,25.45c-1.43,0-2.82-.17-4.15-.5l-16.86-4.22.14,17.38c0,.82-.11,1.93-.72,2.59-.77.82-2.21.95-3.01.95-2.99,0-6.44-1.55-9.22-4.14-1.33-1.24-2.43-2.63-3.26-4.14l-6.66-12.07-11.91,6.95c-2.13,1.25-4.42,1.93-6.43,1.93-.86,0-2.42-.13-3.21-1.03-1.21-1.39-.89-5.18,1.74-8.88l5.24-7.36-4.83-7.63c-1.16-1.83-1.56-3.64-1.06-4.72.63-1.34,3.03-2.28,5.83-2.28,2.22,0,4.57.56,6.79,1.61.79.37,1.57.82,2.31,1.31l8.3,5.58,7.74-6.34c2.71-2.22,5.86-3.49,8.65-3.49.86,0,2.42.13,3.21,1.03.57.66.67,1.73.65,2.52l-.48,17.62,17.12-4.19c1.3-.32,2.67-.48,4.07-.48,6.69,0,11.13,3.61,11.13,6s-4.44,6-11.13,6Z"></path>
  <path d="m198.56,264.84c15.35,26.57,45.5,25.95,46.93,25.11,8.55-5.04,32.4-40.17,32.4-40.17l-20.37-24.06-42.43,16.24s-13.25,5.56-16.53,22.88Zm22.09-10.81l32.91-12.6,7.56,8.93c-7.85,11.04-16.35,22.05-20.89,26.63-2.71-.22-7.01-.91-11.68-2.75-6.29-2.47-11.46-6.3-15.44-11.4,2.42-5.82,6.49-8.27,7.55-8.82Z"></path>
  <path d="m379.71,247.59c-2.53.07-4.96.45-7.24,1.08,0-4.38-1.4-8.48-4.31-11.63-7.12-7.68-20.59-6.8-30.48,1.8-1.3-.82-2.68-1.56-4.14-2.2-12.44-5.43-26.01-1.86-30.31,7.99-2.46,5.63-1.35,12.08,2.37,17.59-5.78,8.65-6.14,19.11-.16,25.56,6.23,6.71,17.3,6.88,26.59,1.08,1.55,2.63,3.58,5.12,6.09,7.32,10.2,8.96,24.22,9.68,31.31,1.6,2.88-3.28,4.15-7.52,3.98-11.99,2.36.52,4.86.76,7.44.69,13.57-.4,24.32-9.42,24-20.16s-11.57-19.12-25.14-18.73Zm.74,25.44c-1.43.04-2.83-.09-4.16-.38l-16.98-3.73.65,17.37c.03.82-.06,1.94-.65,2.61-.74.85-2.19,1.01-2.98,1.03-2.99.09-6.48-1.36-9.34-3.87-1.36-1.2-2.5-2.56-3.38-4.05l-7.01-11.87-11.7,7.3c-2.1,1.31-4.36,2.06-6.37,2.12-.86.03-2.43-.06-3.24-.94-1.25-1.35-1.04-5.15,1.48-8.93l5.02-7.51-5.05-7.49c-1.21-1.8-1.67-3.59-1.19-4.69.59-1.36,2.96-2.37,5.76-2.45,2.22-.06,4.58.42,6.84,1.41.8.35,1.59.77,2.35,1.24l8.46,5.34,7.55-6.56c2.64-2.3,5.76-3.66,8.55-3.74.86-.03,2.43.06,3.24.94.59.64.72,1.71.72,2.5l.04,17.62,16.99-4.68c1.29-.36,2.66-.56,4.06-.6,6.69-.19,11.23,3.28,11.3,5.67.07,2.39-4.26,6.12-10.95,6.32Z"></path>
  <path d="m232.9,288.6c-12.23,0-22.14,9.91-22.14,22.14s9.91,22.14,22.14,22.14,22.14-9.91,22.14-22.14-9.91-22.14-22.14-22.14Zm0,30.82c-4.79,0-8.69-3.9-8.69-8.69s3.9-8.69,8.69-8.69,8.69,3.9,8.69,8.69-3.9,8.69-8.69,8.69Z"></path>
  <path d="m178.07,245.45c-12.23,0-22.14,9.91-22.14,22.14s9.91,22.14,22.14,22.14,22.14-9.91,22.14-22.14-9.91-22.14-22.14-22.14Zm0,30.82c-4.79,0-8.69-3.9-8.69-8.69s3.9-8.69,8.69-8.69,8.69,3.9,8.69,8.69-3.9,8.69-8.69,8.69Z"></path>
  <path d="m322.36,331.42l-38.6-46.27c-3.07-3.68-8.54-4.17-12.21-1.1l-13.39,11.17c-3.68,3.07-4.17,8.54-1.1,12.21l38.6,46.27c3.07,3.68,8.54,4.17,12.21,1.1l13.38-11.17c3.68-3.07,4.17-8.54,1.1-12.21Zm-15.64,6.82l-1.56,1.3c-1.24,1.03-3.08.87-4.11-.37l-28.74-34.44c-1.03-1.24-.87-3.08.37-4.11l1.56-1.3c1.24-1.03,3.08-.87,4.11.37l28.74,34.44c1.03,1.24.87,3.08-.37,4.11Z"></path>
  <path d="m351.32,310.86l-35.59-23.93c-2.83-1.9-6.66-1.15-8.56,1.68l-6.92,10.3c-1.9,2.83-1.15,6.66,1.68,8.56l35.59,23.93c2.83,1.9,6.66,1.15,8.56-1.68l6.92-10.3c1.9-2.83,1.15-6.66-1.68-8.56Zm-9.33,7.77l-.8,1.2c-.64.95-1.93,1.2-2.88.56l-26.49-17.81c-.95-.64-1.2-1.93-.56-2.88l.8-1.2c.64-.95,1.93-1.2,2.88-.56l26.49,17.81c.95.64,1.2,1.93.56,2.88Z"></path>
  <path d="m280.23,256.61c-6.32,0-11.45,5.13-11.45,11.45s5.13,11.45,11.45,11.45,11.45-5.13,11.45-11.45-5.13-11.45-11.45-11.45Zm0,15.94c-2.48,0-4.49-2.01-4.49-4.49s2.01-4.49,4.49-4.49,4.49,2.01,4.49,4.49-2.01,4.49-4.49,4.49Z"></path>
  <path d="m277.98,199.18c1.38-3.49-.69-11.25-.69-11.25,4.43,2.04,19.11-4.61,19.11-4.61,0,0,4.26,7.63,4.89,14.15-6.79,6.45-19.8,5.86-23.31,1.71Zm16.03-8.62c-2.94,1.14-6.91,2.51-10.5,3.2.05.72.08,1.45.08,2.17,1.02.28,2.4.51,4.1.51,2.84,0,5.62-.64,7.8-1.75-.41-1.42-.94-2.85-1.48-4.13Z"></path>
  <path d="m159.12,246.13c2.92-3.28,12.16-4.41,12.16-4.41-4.5-4.36-5.34-25.03-5.34-25.03,0,0-10.26-1.55-17.43.73-3.14,11.14,4.4,26.44,10.61,28.72Zm.5-23.21c.37,4.05,1.04,9.44,2.24,14.06-.78.27-1.56.58-2.32.92-.84-1.09-1.81-2.64-2.71-4.67-1.51-3.41-2.32-7.03-2.32-10.16,1.71-.17,3.49-.2,5.12-.15Z"></path>
</symbol><symbol id="i521_mexican-2" xmlns="http://www.w3.org/2000/svg" viewBox="0 0 512 512">
  <path d="m187.76,95.74c-.21-.73-.33-1.5-.33-2.3,0-4.54,3.7-8.24,8.24-8.24,3.01,0,5.63,1.62,7.07,4.03,3.49-1.22,7.12-2.3,10.91-3.22-2.92-7.06-9.87-12.03-17.99-12.03-10.75,0-19.46,8.71-19.46,19.46,0,2.91.64,5.66,1.79,8.14,3.09-2.08,6.34-4.03,9.77-5.84Z"></path>
  <path d="m254.6,82.4c4.06.19,7.97.51,11.76.93l3.41-5.16c1.02-1.55.6-3.63-.95-4.65-1.55-1.02-3.63-.6-4.65.95l-2.62,3.97,1.58-9.4c.31-1.83-.92-3.56-2.75-3.87-1.83-.31-3.56.92-3.87,2.75l-2.43,14.45c.18,0,.35.01.53.02Z"></path>
  <path d="m316.55,99.35c2.65-5.32,8.13-9,14.47-9,8.91,0,16.17,7.25,16.17,16.17,0,5.28-2.55,9.96-6.48,12.91,2.49,2.8,4.84,5.72,7.05,8.75,6.47-5.01,10.64-12.85,10.64-21.66,0-15.12-12.26-27.38-27.38-27.38-10.65,0-19.87,6.08-24.4,14.96,3.48,1.61,6.78,3.37,9.93,5.25Z"></path>
  <path d="m369.81,172.2l.29.15c1.64.86,3.67.22,4.53-1.42.86-1.64.22-3.67-1.42-4.53l-4.22-2.2,9.51.62c1.85.12,3.45-1.28,3.57-3.13.12-1.85-1.28-3.45-3.13-3.57l-14.96-.97c2.12,4.9,4.05,9.93,5.83,15.06Z"></path>
  <path d="m350.83,132.59c4.14,1.18,7.64,4.69,9.35,9.62l3.18,9.14,8.11-.85c.41-.04.73-.06,1-.06,8.1,0,14.69,10.18,14.69,22.68,0,10.25-4.43,18.94-10.49,21.73,1.15,4.34,2.23,8.72,3.26,13.11,10.67-4.5,18.44-18.39,18.44-34.84,0-20.09-11.6-36.38-25.91-36.38-.66,0-1.31.05-1.95.11-3.76-10.81-12.53-18.4-22.76-18.4-2.38,0-4.67.42-6.85,1.18,3.61,4.08,6.9,8.4,9.93,12.95Z"></path>
  <path d="m401.9,208.52c-.66,0-1.31.04-1.95.09-3.76-8.86-12.53-15.07-22.76-15.07-.29,0-.59.01-.88.02,1.01,3.76,1.96,7.55,2.88,11.34,4.6.69,8.57,3.71,10.43,8.08l3.18,7.49,8.11-.69c.41-.03.73-.05,1-.05,8.1,0,14.69,8.33,14.69,18.58s-6.59,18.58-14.69,18.58c-3.98,0-6.95-2.01-8.73-3.7l-4.45-4.21c1.22,5.8,2.45,11.51,3.74,17.08,2.93,1.32,6.11,2.05,9.45,2.05,14.31,0,25.91-13.34,25.91-29.8s-11.6-29.79-25.91-29.79Z"></path>
  <path d="m385.9,235.45l14.14,7.39c1.64.86,3.67.22,4.53-1.42.86-1.64.22-3.67-1.42-4.53l-4.22-2.2,9.51.62c1.85.12,3.45-1.28,3.57-3.13.12-1.85-1.28-3.45-3.13-3.57l-24.75-1.61c.6,2.83,1.18,5.65,1.77,8.45Z"></path>
  <path d="m431.67,288.24c-3.81-4.09-20.14-13.51-36.34-16.76,1,4.2,2.04,8.32,3.14,12.33,11.4,3.34,22.14,9.48,24.84,11.95.94,1.54,2.3,5.75,3.44,10.44-6.22-2.44-14.7-5.7-24.16-9.12,1.6,4.68,3.34,9.36,5.1,13.86,14.29,5.34,24.67,9.58,24.67,9.58l6.8-9.78s-3.07-17.74-7.5-22.49Z"></path>
  <path d="m225.44,80.99c5.77-.84,11.85-1.33,18.27-1.45l-1.06-6.6c-.12-.73-.18-1.46-.18-2.18,0-7.44,6.05-13.49,13.49-13.49,5.43,0,10.31,3.23,12.43,8.23l3.18,7.49,8.11-.69c.41-.03.73-.05,1-.05,7.02,0,12.9,6.26,14.35,14.6,4.04,1.36,7.89,2.9,11.55,4.59,0-.21.01-.41.01-.61,0-16.46-11.6-29.79-25.91-29.79-.66,0-1.31.04-1.95.09-3.76-8.86-12.53-15.07-22.76-15.07-13.65,0-24.71,11.06-24.71,24.71,0,1.35.11,2.67.32,3.97-2.38,1.72-4.46,3.84-6.13,6.26Z"></path>
  <path d="m425.53,187.49c-13.8-38.44-60.08-125.12-147.69-125.8.38.69.73,1.4,1.05,2.13.65-.06,1.29-.09,1.95-.09,8.42,0,15.9,4.62,20.63,11.78,25.38,5.48,48.63,19.59,69.34,42.19,27.06,29.51,40.64,63.78,44.16,73.58,8.65,24.07,5.46,59.22.81,86.1,4.19,2.07,7.76,4.18,10.34,5.98,5.23-28.6,9.32-68.28-.59-95.87Z"></path>
  <rect x="182.26" y="154.93" width="76.14" height="11.22" rx="3.93" ry="3.93" transform="translate(-52.23 154.99) rotate(-34.91)"></rect>
  <g>
    <path d="m388.39,454.32c-4.86-11.51-10.68-26.41-14.28-39.5-21.33-77.5-20.18-193.99-141.85-199.58-122.11-5.61-133.23,120.37-133.23,120.37,24.65,22.15,224.67,107.51,224.67,107.51l53.69,22.26c6.97,2.89,13.93-4.12,11-11.07Zm-60.34-21.53c-74.65-31.86-188.78-83.14-217-102.11,1.66-9.8,6.27-30.31,17.77-50.44,20.45-35.8,52.63-53.95,95.62-53.95,2.39,0,4.85.06,7.31.17,41.53,1.91,69.87,17.14,89.19,47.95,17.51,27.91,25.06,64.39,32.36,99.68,3.19,15.4,6.2,29.95,9.99,43.73,2.69,9.78,6.78,21.41,12.17,34.65l-47.42-19.66Z"></path>
    <path d="m165,228.58c-.21-.73-.33-1.5-.33-2.3,0-4.54,3.7-8.24,8.24-8.24,3.01,0,5.63,1.62,7.07,4.03,3.49-1.22,7.12-2.3,10.91-3.22-2.92-7.06-9.87-12.03-17.99-12.03-10.75,0-19.46,8.71-19.46,19.46,0,2.91.64,5.66,1.79,8.14,3.09-2.08,6.34-4.03,9.77-5.84Z"></path>
    <path d="m231.85,215.24c4.06.19,7.97.51,11.76.93l3.41-5.16c1.02-1.55.6-3.63-.95-4.65-1.55-1.02-3.63-.6-4.65.95l-2.62,3.97,1.58-9.4c.31-1.83-.92-3.56-2.75-3.87-1.83-.31-3.56.92-3.87,2.75l-2.43,14.45c.18,0,.35.01.53.02Z"></path>
    <path d="m293.79,232.19c2.65-5.32,8.13-9,14.47-9,8.91,0,16.17,7.25,16.17,16.17,0,5.28-2.55,9.96-6.48,12.91,2.49,2.8,4.84,5.72,7.05,8.75,6.47-5.01,10.64-12.85,10.64-21.66,0-15.12-12.26-27.38-27.38-27.38-10.65,0-19.87,6.08-24.4,14.96,3.48,1.61,6.78,3.37,9.93,5.25Z"></path>
    <path d="m347.05,305.04l.29.15c1.64.86,3.67.22,4.53-1.42.86-1.64.22-3.67-1.42-4.53l-4.22-2.2,9.51.62c1.85.12,3.45-1.28,3.57-3.13.12-1.85-1.28-3.45-3.13-3.57l-14.96-.97c2.12,4.9,4.05,9.93,5.83,15.06Z"></path>
    <path d="m328.07,265.43c4.14,1.18,7.64,4.69,9.35,9.62l3.18,9.14,8.11-.85c.41-.04.73-.06,1-.06,8.1,0,14.69,10.18,14.69,22.68,0,10.25-4.43,18.94-10.49,21.73,1.15,4.34,2.23,8.72,3.26,13.11,10.67-4.5,18.44-18.39,18.44-34.84,0-20.09-11.6-36.38-25.91-36.38-.66,0-1.31.05-1.95.11-3.76-10.81-12.53-18.4-22.76-18.4-2.38,0-4.67.42-6.85,1.18,3.61,4.08,6.9,8.4,9.93,12.95Z"></path>
    <path d="m379.15,341.36c-.66,0-1.31.04-1.95.09-3.76-8.86-12.53-15.07-22.76-15.07-.29,0-.59.01-.88.02,1.01,3.76,1.96,7.55,2.88,11.34,4.6.69,8.57,3.71,10.43,8.08l3.18,7.49,8.11-.69c.41-.03.73-.05,1-.05,8.1,0,14.69,8.33,14.69,18.58s-6.59,18.58-14.69,18.58c-3.98,0-6.95-2.01-8.73-3.7l-4.45-4.21c1.22,5.8,2.45,11.51,3.74,17.08,2.93,1.32,6.11,2.05,9.45,2.05,14.31,0,25.91-13.34,25.91-29.8s-11.6-29.79-25.91-29.79Z"></path>
    <path d="m363.15,368.3l14.14,7.39c1.64.86,3.67.22,4.53-1.42.86-1.64.22-3.67-1.42-4.53l-4.22-2.2,9.51.62c1.85.12,3.45-1.28,3.57-3.13.12-1.85-1.28-3.45-3.13-3.57l-24.75-1.61c.6,2.83,1.18,5.65,1.77,8.45Z"></path>
    <path d="m408.91,421.08c-3.81-4.09-20.14-13.51-36.34-16.76,1,4.2,2.04,8.32,3.14,12.33,11.4,3.34,22.14,9.48,24.84,11.95.94,1.54,2.3,5.75,3.44,10.44-6.22-2.44-14.7-5.7-24.16-9.12,1.6,4.68,3.34,9.36,5.1,13.86,14.29,5.34,24.67,9.58,24.67,9.58l6.8-9.78s-3.07-17.74-7.5-22.49Z"></path>
    <path d="m202.69,213.83c5.77-.84,11.85-1.33,18.27-1.45l-1.06-6.6c-.12-.73-.18-1.46-.18-2.18,0-7.44,6.05-13.49,13.49-13.49,5.43,0,10.31,3.23,12.43,8.23l3.18,7.49,8.11-.69c.41-.03.73-.05,1-.05,7.02,0,12.9,6.26,14.35,14.6,4.04,1.36,7.89,2.9,11.55,4.59,0-.21.01-.41.01-.61,0-16.46-11.6-29.79-25.91-29.79-.66,0-1.31.04-1.95.09-3.76-8.86-12.53-15.07-22.76-15.07-13.65,0-24.71,11.06-24.71,24.71,0,1.35.11,2.67.32,3.97-2.38,1.72-4.46,3.84-6.13,6.26Z"></path>
    <path d="m402.77,320.33c-13.8-38.44-60.08-125.12-147.69-125.8.38.69.73,1.4,1.05,2.13.65-.06,1.29-.09,1.95-.09,8.42,0,15.9,4.62,20.63,11.78,25.38,5.48,48.63,19.59,69.34,42.19,27.06,29.51,40.64,63.78,44.16,73.58,8.65,24.07,5.46,59.22.81,86.1,4.19,2.07,7.76,4.18,10.34,5.98,5.23-28.6,9.32-68.28-.59-95.87Z"></path>
    <rect x="159.5" y="287.77" width="76.14" height="11.22" rx="3.93" ry="3.93" transform="translate(-132.35 165.88) rotate(-34.91)"></rect>
    <rect x="196.9" y="307.18" width="76.14" height="11.22" rx="3.93" ry="3.93" transform="translate(-136.73 190.77) rotate(-34.91)"></rect>
    <rect x="238.02" y="326.31" width="76.14" height="11.22" rx="3.93" ry="3.93" transform="translate(-140.28 217.75) rotate(-34.91)"></rect>
  </g>
  <path d="m252.5,185.68l39.46-27.54c1.83-1.28,2.28-3.81,1-5.64l-1.78-2.56c-1.28-1.83-3.81-2.28-5.64-1l-54.84,38.27c7.13-1,14.41-1.52,21.8-1.53Z"></path>
  <path d="m304.1,202.25l25.86-18.05c1.83-1.28,2.28-3.81,1-5.64l-1.78-2.56c-1.28-1.83-3.81-2.28-5.64-1l-32.93,22.98c4.58,1.22,9.07,2.65,13.49,4.26Z"></path>
  <path d="m166.57,216.02c-14.62-7.41-26.1-13.71-32.77-18.19,1.66-9.8,6.27-30.31,17.77-50.44,20.45-35.8,52.63-53.95,95.62-53.95,2.39,0,4.85.06,7.31.17,41.53,1.91,69.87,17.14,89.19,47.95,17.51,27.91,25.06,64.39,32.36,99.68,1.24,5.99,2.45,11.85,3.7,17.59,8.51,11.27,15.74,23.66,21.43,36.94-1.61-4.67-3.1-9.33-4.33-13.78-21.33-77.5-20.18-193.99-141.85-199.58-122.11-5.61-133.23,120.37-133.23,120.37,5.06,4.55,17.51,11.76,34.11,20.35,3.47-2.5,7.03-4.87,10.68-7.09Z"></path>
</symbol><symbol id="i521_mexican-3" xmlns="http://www.w3.org/2000/svg" viewBox="0 0 512 512">
  <path d="m112.62,152.34c-.26-.88-.4-1.81-.4-2.77,0-5.47,4.45-9.92,9.92-9.92,3.62,0,6.78,1.95,8.51,4.86,4.2-1.47,8.57-2.77,13.13-3.88-3.51-8.5-11.88-14.48-21.65-14.48-12.93,0-23.42,10.49-23.42,23.42,0,3.5.77,6.82,2.15,9.8,3.72-2.5,7.63-4.85,11.75-7.02Z"></path>
  <path d="m193.07,136.29c4.88.22,9.59.61,14.15,1.12l4.1-6.21c1.23-1.86.72-4.37-1.15-5.6-1.86-1.23-4.37-.72-5.6,1.15l-3.16,4.78,1.91-11.31c.37-2.2-1.11-4.28-3.31-4.65-2.2-.37-4.28,1.11-4.65,3.31l-2.93,17.39c.21,0,.42.01.64.02Z"></path>
  <path d="m267.62,156.69c3.19-6.41,9.79-10.83,17.41-10.83,10.73,0,19.46,8.73,19.46,19.46,0,6.35-3.07,11.98-7.79,15.54,3,3.37,5.83,6.89,8.49,10.53,7.79-6.03,12.81-15.46,12.81-26.07,0-18.2-14.76-32.96-32.96-32.96-12.82,0-23.92,7.32-29.37,18.01,4.19,1.93,8.16,4.05,11.95,6.32Z"></path>
  <path d="m331.72,244.36l.35.18c1.98,1.03,4.42.27,5.45-1.71,1.03-1.98.27-4.42-1.71-5.45l-5.08-2.65,11.45.74c2.23.14,4.15-1.54,4.29-3.77.14-2.23-1.54-4.15-3.77-4.29l-18-1.17c2.55,5.9,4.87,11.95,7.01,18.12Z"></path>
  <path d="m308.88,196.69c4.98,1.42,9.2,5.65,11.26,11.57l3.82,11.01,9.75-1.02c.49-.05.88-.08,1.2-.08,9.75,0,17.68,12.25,17.68,27.3,0,12.34-5.33,22.79-12.62,26.16,1.38,5.23,2.68,10.49,3.93,15.77,12.84-5.42,22.2-22.14,22.2-41.93,0-24.18-13.96-43.78-31.18-43.78-.79,0-1.57.06-2.35.14-4.52-13.02-15.08-22.14-27.39-22.14-2.86,0-5.63.5-8.24,1.42,4.34,4.91,8.31,10.12,11.95,15.58Z"></path>
  <path d="m370.35,288.08c-.79,0-1.57.05-2.35.11-4.52-10.66-15.08-18.14-27.39-18.14-.35,0-.71.01-1.06.03,1.21,4.53,2.36,9.08,3.47,13.65,5.54.82,10.32,4.46,12.56,9.73l3.82,9.01,9.75-.83c.49-.04.88-.06,1.2-.06,9.75,0,17.68,10.03,17.68,22.36s-7.93,22.36-17.68,22.36c-4.79,0-8.36-2.42-10.51-4.46l-5.36-5.07c1.47,6.98,2.95,13.85,4.5,20.56,3.52,1.59,7.36,2.47,11.37,2.47,17.22,0,31.18-16.05,31.18-35.86s-13.96-35.86-31.18-35.86Z"></path>
  <path d="m351.09,320.49l17.02,8.89c1.98,1.03,4.42.27,5.45-1.71,1.03-1.98.27-4.42-1.71-5.45l-5.08-2.65,11.45.74c2.23.14,4.15-1.54,4.29-3.77.14-2.23-1.54-4.15-3.77-4.29l-29.78-1.94c.72,3.4,1.43,6.79,2.13,10.17Z"></path>
  <path d="m406.17,384.02c-4.59-4.92-24.23-16.26-43.73-20.17,1.21,5.05,2.46,10.01,3.78,14.84,13.72,4.01,26.65,11.41,29.9,14.38,1.13,1.85,2.77,6.92,4.14,12.57-7.48-2.94-17.69-6.86-29.07-10.98,1.93,5.63,4.02,11.27,6.13,16.69,17.2,6.43,29.69,11.53,29.69,11.53l8.19-11.78s-3.7-21.35-9.03-27.07Z"></path>
  <path d="m157.98,134.59c6.94-1.01,14.26-1.6,21.99-1.74l-1.28-7.94c-.14-.88-.21-1.76-.21-2.62,0-8.95,7.29-16.24,16.24-16.24,6.54,0,12.41,3.89,14.96,9.91l3.82,9.01,9.75-.83c.49-.04.88-.06,1.2-.06,8.45,0,15.53,7.54,17.27,17.57,4.87,1.64,9.49,3.48,13.9,5.53,0-.25.02-.49.02-.74,0-19.8-13.96-35.86-31.18-35.86-.79,0-1.57.05-2.35.11-4.52-10.66-15.08-18.14-27.39-18.14-16.42,0-29.74,13.31-29.74,29.74,0,1.63.14,3.22.39,4.77-2.87,2.07-5.37,4.62-7.38,7.53Z"></path>
  <path d="m398.78,262.77c-16.61-46.26-72.31-150.59-177.74-151.4.45.84.88,1.69,1.26,2.57.78-.07,1.56-.11,2.35-.11,10.13,0,19.13,5.56,24.83,14.17,30.55,6.59,58.52,23.58,83.45,50.77,32.57,35.52,48.91,76.76,53.15,88.56,10.4,28.97,6.57,71.27.97,103.62,5.04,2.49,9.34,5.03,12.44,7.2,6.29-34.42,11.22-82.18-.7-115.38Z"></path>
  <rect x="106" y="223.58" width="91.63" height="13.5" rx="6.5" ry="6.5" transform="translate(-104.5 128.34) rotate(-34.91)"></rect>
  <rect x="151.01" y="246.94" width="91.63" height="13.5" rx="6.5" ry="6.5" transform="translate(-109.77 158.31) rotate(-34.91)"></rect>
  <rect x="200.5" y="269.96" width="91.63" height="13.5" rx="6.5" ry="6.5" transform="translate(-114.04 190.77) rotate(-34.91)"></rect>
  <path d="m370.58,353.3c-18.58-106.11-73.63-210.9-177.92-223.53-85.69-10.38-128.43,68.46-160.65,141.09l346.66,153.72c8.68-17.57-4.55-50.97-8.1-71.27ZM49.91,264.02c27.94-60.97,63.91-121.67,127.77-121.67,4.34,0,8.84.28,13.37.83,44.46,5.39,82.05,29.32,111.71,71.12,25.87,36.45,44.72,85.33,54.53,141.33,1.02,5.82,2.67,12.27,4.42,19.11,2.4,9.36,5.36,20.89,6.19,30.29L49.91,264.02Z"></path>
</symbol><symbol id="i521_mexican-4" xmlns="http://www.w3.org/2000/svg" viewBox="0 0 512 512">
  <path d="m122.54,284.27l-.94.18c-.63.12-1.15.2-1.6.25-.68.07-1.38.11-2.07.11h0c-11.48,0-21.55-10.23-22.92-23.29-1.48-14.07,7.34-26.57,19.65-27.86.69-.07,1.39-.11,2.07-.11,4.29,0,8.52,1.42,12.22,4.09l9.91,7.16,8.11-9.15c2.25-2.54,5.06-4.5,8.21-5.8l-15.09-6.35c-1.15,1-2.23,2.06-3.23,3.19-6.75-4.88-15-7.37-23.61-6.47-19.74,2.07-33.92,21.18-31.66,42.69,2.02,19.3,16.6,33.97,33.83,35.28,2.13-4.78,4.5-9.43,7.12-13.93Z"></path>
  <path d="m130.27,201.09l5.72-13.59c.66-1.56,2.17-2.15,3.38-2.04.34.03.67.11,1,.25l42.26,17.78c-.99-5.11-1.7-10.3-2.12-15.54l-34.9-14.68c-8.58-3.61-18.45.42-22.06,9l-5.72,13.59c-3.61,8.58.42,18.45,9,22.06l34.35,14.45c4.73-3.09,9.65-5.91,14.74-8.44l-43.85-18.45c-1.7-.72-2.5-2.68-1.79-4.38Z"></path>
  <path d="m179.9,153.78l2.86.24c1.74-5.95,3.83-11.71,6.26-17.27-4.38-10.28-14.12-18.29-26.42-20.32-18.68-3.09-36.19,8.76-39.12,26.45-.29,1.75-.42,3.49-.41,5.22-9.81,4.56-17.18,13.41-19.01,24.49-2.01,12.16,3.16,23.93,12.52,31.4-.26-2.69.12-5.48,1.24-8.14l2.91-6.93c-2.86-4.08-4.19-9.06-3.35-14.13,1.04-6.31,5.19-11.57,11.38-14.45l7.86-3.65-.04-8.66c0-1,.07-1.99.23-2.95,1.5-9.06,9.85-15.64,19.87-15.64,1.24,0,2.49.1,3.73.31,8.37,1.38,15.07,7.19,17.07,14.8l2.43,9.23Z"></path>
  <path d="m453.39,302.75l-36.65-15.42c-3.43,3.56-7.03,6.93-10.79,10.11l42.2,17.75c1.7.72,2.5,2.68,1.79,4.38l-5.72,13.59c-.66,1.56-2.17,2.15-3.38,2.04-.34-.03-.68-.12-1-.25l-54.56-22.95c-2.15,1.25-4.34,2.45-6.56,3.58.81,3.03,1.54,6.1,2.15,9.2l53.74,22.61c8.58,3.61,18.45-.42,22.06-9l5.72-13.59c3.61-8.58-.42-18.45-9-22.06Z"></path>
  <path d="m62.05,200.02l5.72-13.59c.66-1.56,2.17-2.15,3.38-2.04.34.03.67.11,1,.25l42.26,17.78c-.99-5.11-1.7-10.3-2.12-15.54l-34.9-14.68c-8.58-3.61-18.45.42-22.06,9l-5.72,13.59c-3.61,8.58.42,18.45,9,22.06l34.35,14.45c4.73-3.09,9.65-5.91,14.74-8.44l-43.85-18.45c-1.7-.72-2.5-2.68-1.79-4.38Z"></path>
  <path d="m411.97,340.3l-27.87-11.23c-.83-.34-1.69-.54-2.54-.64.83,4.88,1.41,9.84,1.74,14.87l20.21,8.14-2.62,6.5-17.3-6.97c0,.58.02,1.16.02,1.75,0,4.24-.19,8.44-.55,12.59l16.2,6.53c5.02,2.02,10.74-.41,12.76-5.43l5.38-13.35c2.02-5.02-.41-10.74-5.43-12.76Z"></path>
  <path d="m425.71,243.09l-213.41-119.37c-11.05-6.18-25.14-1.23-29.63,10.61-2.51,6.61-4.56,13.48-6.11,20.59-5.56,25.5-3.89,50.96,3.59,74.23,4-2.1,8.1-4.02,12.31-5.74-6.5-21.1-7.51-43.55-2.71-65.61,1.39-6.36,3.25-12.64,5.54-18.67,1.4-3.69,5.31-5.04,8.28-4.42.74.15,1.46.42,2.15.8l73.57,41.15,1.85-4.71,90.86,42.35-4.74,11.57,51.86,29.01c2.19,1.23,2.89,3.18,3.12,4.24.22,1.03.36,3.06-1.11,5-11.27,14.91-25.57,27.15-41.91,36.02,1.78,4.16,3.36,8.42,4.74,12.77,18.65-9.81,35.09-23.65,47.94-40.65,7.23-9.56,4.27-23.32-6.19-29.17Z"></path>
  <path d="m338.61,345.43l-18.18-5.24-3.05,7.45,19.01,5.48c2.04.59,4.18-.59,4.77-2.63l.08-.29c.59-2.04-.59-4.18-2.63-4.77Z"></path>
  <path d="m225.93,312.96l-42.86-12.35c-1.79-.51-3.65.52-4.17,2.3l-.35,1.22c-.51,1.79.52,3.65,2.3,4.17l42.15,12.15,2.93-7.48Z"></path>
  <path d="m352.57,261.74l-5.81,14.18c18.1,23.21,27.74,51.53,27.39,81.23-.08,6.5-.64,13.03-1.67,19.41-.63,3.9-4.19,6-7.22,6-.76,0-1.52-.12-2.26-.36l-52.89-16.78-.57,1.38-93.69-28.11,1.1-2.82-87.04-27.61c-2.4-.76-3.48-2.54-3.91-3.53-.42-.97-.97-2.92.08-5.12,10.38-21.79,26.58-40.27,46.88-53.45,20.81-13.51,44.97-20.74,69.89-20.92h.95c5.41,0,10.78.33,16.07.98l5.06-12.93c-7.24-1.08-14.64-1.61-22.18-1.56-56.88.41-105.89,33.84-128.86,82.07-5.15,10.82.51,23.7,11.94,27.32l233.08,73.93c12.07,3.83,24.87-3.86,26.89-16.36,1.13-6.98,1.75-14.13,1.84-21.4.43-36.42-12.9-69.91-35.08-95.57Z"></path>
  <path d="m282,165.78l-69.21,182.94,91.78,29.11,67.43-163.54-90-48.51Zm14.82,195.43l-66.36-21.05,58.71-155.18,65.71,35.42-58.06,140.81Z"></path>
</symbol><symbol id="i521_mexican-5" xmlns="http://www.w3.org/2000/svg" viewBox="0 0 512 512">
  <path d="m277.66,223.35c-56.88.41-105.89,33.84-128.86,82.07-5.15,10.82.51,23.7,11.94,27.32l233.08,73.93c12.07,3.83,24.87-3.86,26.89-16.36,1.13-6.98,1.75-14.13,1.84-21.4.94-80.17-64.72-146.13-144.89-145.55Zm129.72,164.8c-.63,3.9-4.19,6-7.22,6-.76,0-1.52-.12-2.26-.36l-233.08-73.93c-2.4-.76-3.48-2.54-3.91-3.53-.42-.97-.97-2.92.08-5.12,10.38-21.79,26.58-40.27,46.88-53.45,20.81-13.51,44.97-20.74,69.89-20.92h.95c34.93,0,67.81,13.8,92.57,38.86,24.76,25.06,38.18,58.1,37.77,93.04-.08,6.5-.64,13.03-1.67,19.41Z"></path>
  <path d="m460.61,254.69l-213.41-119.37c-11.05-6.18-25.14-1.23-29.63,10.61-2.51,6.61-4.56,13.48-6.11,20.59-5.56,25.5-3.89,50.96,3.59,74.23,4-2.1,8.1-4.02,12.31-5.74-6.5-21.1-7.51-43.55-2.71-65.61,1.39-6.36,3.25-12.64,5.54-18.67,1.4-3.69,5.31-5.04,8.28-4.42.74.15,1.46.42,2.15.8l213.41,119.37c2.19,1.23,2.89,3.18,3.12,4.24.22,1.03.36,3.06-1.11,5-11.27,14.91-25.57,27.15-41.91,36.02,1.78,4.16,3.36,8.42,4.74,12.77,18.65-9.81,35.09-23.65,47.94-40.65,7.23-9.56,4.27-23.32-6.19-29.17Z"></path>
  <path d="m157.44,295.86l-.94.18c-.63.12-1.15.2-1.6.25-.68.07-1.38.11-2.07.11h0c-11.48,0-21.55-10.23-22.92-23.29-1.48-14.07,7.34-26.57,19.65-27.86.69-.07,1.39-.11,2.07-.11,4.29,0,8.52,1.42,12.22,4.09l9.91,7.16,8.11-9.15c2.25-2.54,5.06-4.5,8.21-5.8l-15.09-6.35c-1.15,1-2.23,2.06-3.23,3.19-6.75-4.88-15-7.37-23.61-6.47-19.74,2.07-33.92,21.18-31.66,42.69,2.02,19.3,16.6,33.97,33.83,35.28,2.13-4.78,4.5-9.43,7.12-13.93Z"></path>
  <path d="m165.17,212.68l5.72-13.59c.66-1.56,2.17-2.15,3.38-2.04.34.03.67.11,1,.25l42.26,17.78c-.99-5.11-1.7-10.3-2.12-15.54l-34.9-14.68c-8.58-3.61-18.45.42-22.06,9l-5.72,13.59c-3.61,8.58.42,18.45,9,22.06l34.35,14.45c4.73-3.09,9.65-5.91,14.74-8.44l-43.85-18.45c-1.7-.72-2.5-2.68-1.79-4.38Z"></path>
  <path d="m214.8,165.38l2.86.24c1.74-5.95,3.83-11.71,6.26-17.27-4.38-10.28-14.12-18.29-26.42-20.32-18.68-3.09-36.19,8.76-39.12,26.45-.29,1.75-.42,3.49-.41,5.22-9.81,4.56-17.18,13.41-19.01,24.49-2.01,12.16,3.16,23.93,12.52,31.4-.26-2.69.12-5.48,1.24-8.14l2.91-6.93c-2.86-4.08-4.19-9.06-3.35-14.13,1.04-6.31,5.19-11.57,11.38-14.45l7.86-3.65-.04-8.66c0-1,.07-1.99.23-2.95,1.5-9.06,9.85-15.64,19.87-15.64,1.24,0,2.49.1,3.73.31,8.37,1.38,15.07,7.19,17.07,14.8l2.43,9.23Z"></path>
  <path d="m488.29,314.34l-36.65-15.42c-3.43,3.56-7.03,6.93-10.79,10.11l42.2,17.75c1.7.72,2.5,2.68,1.79,4.38l-5.72,13.59c-.66,1.56-2.17,2.15-3.38,2.04-.34-.03-.68-.12-1-.25l-54.56-22.95c-2.15,1.25-4.34,2.45-6.56,3.58.81,3.03,1.54,6.1,2.15,9.2l53.74,22.61c8.58,3.61,18.45-.42,22.06-9l5.72-13.59c3.61-8.58-.42-18.45-9-22.06Z"></path>
  <path d="m96.95,211.62l5.72-13.59c.66-1.56,2.17-2.15,3.38-2.04.34.03.67.11,1,.25l42.26,17.78c-.99-5.11-1.7-10.3-2.12-15.54l-34.9-14.68c-8.58-3.61-18.45.42-22.06,9l-5.72,13.59c-3.61,8.58.42,18.45,9,22.06l34.35,14.45c4.73-3.09,9.65-5.91,14.74-8.44l-43.85-18.45c-1.7-.72-2.5-2.68-1.79-4.38Z"></path>
  <path d="m446.87,351.89l-27.87-11.23c-.83-.34-1.69-.54-2.54-.64.83,4.88,1.41,9.84,1.74,14.87l20.21,8.14-2.62,6.5-17.3-6.97c0,.58.02,1.16.02,1.75,0,4.24-.19,8.44-.55,12.59l16.2,6.53c5.02,2.02,10.74-.41,12.76-5.43l5.38-13.35c2.02-5.02-.41-10.74-5.43-12.76Z"></path>
  <rect x="211.29" y="327.65" width="119.4" height="8" rx="3.37" ry="3.37" transform="translate(102.43 -62.07) rotate(16.08)"></rect>
  <rect x="334.33" y="352.04" width="42.61" height="8" rx="3.85" ry="3.85" transform="translate(112.5 -84.56) rotate(16.08)"></rect>
</symbol><symbol id="i521_mexican-6" xmlns="http://www.w3.org/2000/svg" viewBox="0 0 512 512">
  <g id="burito">
    <path d="m140.68,366.28c-24.08,0-47.95-4.5-70.39-13.37-8-3.16-13.73-9.97-15.32-18.21-1.58-8.18,1.16-16.54,7.32-22.36h0s223.55-211.2,223.55-211.2c1.4-1.33,3.32-1.97,5.24-1.74,1.92.22,3.64,1.28,4.71,2.89,21.53,32.58,30.96,71.68,26.55,110.09-4.48,38.97-23.14,75.71-52.55,103.45-26.13,24.65-59.05,41.06-95.19,47.46-11.26,1.99-22.61,2.99-33.92,2.99Zm-69.41-44.43c-2.93,2.77-4.2,6.55-3.46,10.37.75,3.88,3.4,6.99,7.28,8.52,21.37,8.45,43.75,12.55,65.9,12.56,44.07,0,87.25-16.26,119.82-46.98,53.97-50.91,65.06-128.09,28.21-190.19l-217.75,205.73h0Z"></path>
    <path d="m194.37,462.34c-1.8,0-3.62-.18-5.43-.54-8.34-1.68-15.03-6.92-18.34-14.38-12.57-28.29-16.91-59.46-12.55-90.12.51-3.58,3.82-6.06,7.39-5.55,3.58.51,6.06,3.82,5.55,7.4-4.01,28.23-.02,56.92,11.55,82.97,1.57,3.53,4.84,6.03,8.97,6.86,4.45.9,8.99-.34,12.14-3.32l217.36-204.69c-31.78-16.54-68.7-23.08-104.94-18.45-3.58.46-6.86-2.08-7.32-5.66-.46-3.58,2.07-6.86,5.66-7.32,42.06-5.38,85,3.29,120.91,24.41,1.77,1.04,2.95,2.86,3.18,4.91s-.52,4.08-2.02,5.49l-223.88,210.83c-4.93,4.64-11.49,7.16-18.27,7.16Z"></path>
    <path d="m180.67,457.07c-1.61,0-3.22-.59-4.49-1.78l-114.02-107.5c-2.63-2.48-2.75-6.62-.27-9.24,2.48-2.63,6.62-2.75,9.24-.27l114.02,107.5c2.63,2.48,2.75,6.62.27,9.24-1.29,1.36-3.02,2.05-4.76,2.05Z"></path>
    <path d="m289.01,113.67c-.08,0-.16,0-.24,0-3.61-.13-6.43-3.16-6.3-6.77.28-7.78,3.59-15.04,9.32-20.45,12.27-11.58,32.24-11.58,44.51,0,.72.67,1.53,1.44,2.27,2.34,2.3,2.79,1.9,6.91-.88,9.21-2.79,2.3-6.91,1.9-9.21-.88-.22-.27-.72-.74-1.16-1.15-7.33-6.91-19.24-6.91-26.57,0-3.22,3.03-5.07,7.08-5.22,11.4-.13,3.53-3.03,6.31-6.53,6.31Z"></path>
    <path d="m376.97,116.52c-.12,0-.24,0-.36,0-3.61-.19-6.37-3.27-6.18-6.88.25-4.65-1.66-9.26-5.23-12.63-7.16-6.76-19.27-6.76-26.43,0l-.75.71c-2.63,2.48-6.76,2.36-9.24-.26-2.48-2.63-2.36-6.76.26-9.24l.76-.72c12.23-11.54,32.14-11.54,44.38,0,6.38,6.01,9.77,14.34,9.31,22.84-.19,3.49-3.07,6.19-6.52,6.19Z"></path>
    <path d="m398.53,151.42c-1.74,0-3.48-.68-4.76-2.05-2.17-2.31-2.36-5.75-.6-8.23,3.56-6.36,2.24-14.34-3.27-19.54-3.47-3.27-8.07-5.08-12.94-5.08-3.61,0-6.54-2.93-6.54-6.54s2.93-6.54,6.54-6.54c8.22,0,16.01,3.07,21.91,8.64,10.12,9.54,12.3,24.4,5.32,36.13-.31.53-.7,1-1.14,1.42-1.27,1.19-2.9,1.79-4.52,1.79Z"></path>
    <path d="m423.64,185.46c-1.74,0-3.48-.68-4.76-2.05-2.09-2.22-2.34-5.5-.78-7.95,3.16-6.53,1.76-13.96-3.64-19.04-3.78-3.57-9.18-5.45-14.58-5.1-.25.06-.51.1-.76.12-4.22.4-8.05,2.12-11.08,4.98-1.22,1.15-2.21,2.42-3.05,3.9-.03.06-.07.12-.1.18-.35.88-.89,1.69-1.59,2.34l-4.54-4.7,4.44,4.8c-2.62,2.49-6.76,2.39-9.25-.23-1.9-2-2.29-4.88-1.2-7.25.09-.25.2-.48.31-.7.21-.45.49-.94.87-1.43,1.42-2.41,3.11-4.51,5.14-6.43,4.9-4.62,11.26-7.58,18-8.39.29-.07.58-.12.87-.15,9.46-.93,18.76,2.18,25.51,8.55,9.72,9.17,12.16,23.24,6.05,35.01-.34.66-.79,1.25-1.33,1.76-1.27,1.19-2.9,1.79-4.52,1.79Zm-40.24-22.99h0s0,0,0,0Zm0,0s0,0,0,0c0,0,0,0,0,0Zm.52-.56c-.16.2-.34.38-.52.56.19-.18.36-.37.52-.56Zm1.43-3.85h0s0,0,0,0Z"></path>
    <path d="m371.97,223.99c-.23,0-.47-.01-.71-.04-2.68-.29-5.22-1.11-7.79-2.52-11.57-6.36-16.62-20.37-12.01-33.32,7.05-19.78,12.49-30.29,23.83-35.56.53-.35,1.05-.59,1.54-.77,11.78-5.13,25.81-2.75,35.08,5.99,7.05,6.65,10.43,16.16,9.05,25.46-.53,3.57-3.86,6.04-7.43,5.51-3.57-.53-6.04-3.86-5.51-7.43.76-5.14-1.09-10.25-5.09-14.02-5.47-5.16-13.77-6.57-20.77-3.56-.28.18-.58.34-.89.47-6.8,2.95-10.72,9.29-17.5,28.31-2.45,6.87.07,14.21,5.99,17.47,1.02.56,1.97.88,2.89.98,3.59.39,6.19,3.61,5.8,7.2-.36,3.35-3.2,5.84-6.49,5.84Zm7.13-59.52h0,0Zm0,0-.36-6.35l4.44,4.8s.09-.09.14-.13l-4.58-4.67Z"></path>
    <path d="m431.98,252.62c-2.43,0-4.88-.2-7.31-.61-3.56-.6-5.96-3.97-5.37-7.53.6-3.56,3.97-5.96,7.53-5.37,9.51,1.6,19.29-1.3,26.13-7.76,5.48-5.17,8.5-12.03,8.5-19.32s-3.02-14.15-8.5-19.32c-7.21-6.8-17.34-9.6-27.23-7.57-.26.09-.53.17-.8.22-2.59.53-5.06,1.42-7.33,2.65-3.18,1.71-7.15.53-8.86-2.65-1.71-3.18-.53-7.15,2.65-8.86,3.19-1.72,6.61-2.99,10.19-3.79.22-.08.44-.14.67-.19,14.32-3.24,29.16.75,39.69,10.68,8.13,7.67,12.6,17.9,12.6,28.83s-4.48,21.17-12.6,28.83c-8.04,7.58-18.86,11.75-29.95,11.75Z"></path>
    <path d="m313.29,166.87c-1.5,0-3-.51-4.23-1.56-2.74-2.33-3.09-6.42-.78-9.18.16-.19.32-.37.48-.56,3.28-3.87,25.02-29.96,31.29-47.76,1.2-3.41,4.94-5.19,8.34-3.99,3.41,1.2,5.19,4.94,3.99,8.34-2.99,8.48-8.76,18.23-14.72,27.01,6-1.13,12.24-1.22,18.43-.18,10.05,1.71,19.17,6.21,26.39,13.02l.35.33c.17.16.43.4.71.73,1.29,1.23,2.09,2.96,2.09,4.87,0,3.61-2.93,6.54-6.54,6.54-1.79,0-3.41-.72-4.59-1.88-.31-.28-.6-.59-.85-.93l-.15-.15c-5.33-5.03-12.1-8.36-19.59-9.63-11.99-2.01-24.24,1.59-32.77,9.64-.83.79-1.65,1.63-2.38,2.47-.27.32-.44.52-.52.6-1.29,1.5-3.12,2.27-4.95,2.27Zm65.58-2.59h0,0Zm-5.77-3.48h0s0,0,0,0Zm-.56-2.87h0s0,0,0,0Z"></path>
    <path d="m254.29,227.67c-6.63,0-13.03-3.59-16.06-9.69-1.61-3.23-.29-7.16,2.95-8.77,3.23-1.6,7.16-.29,8.77,2.95,1.06,2.14,3.98,3.06,6.37,2.01,1.13-.5,1.96-1.35,2.33-2.39.23-.64.39-1.63-.16-2.75-1.61-3.23-.28-7.16,2.95-8.77,3.23-1.61,7.16-.29,8.77,2.95,2.04,4.1,2.3,8.72.75,13.01-1.6,4.43-4.92,7.95-9.35,9.91-2.36,1.04-4.85,1.54-7.31,1.54Z"></path>
    <path d="m339.02,277.85c-3.34,0-6.19-2.55-6.5-5.94-.33-3.6,2.32-6.78,5.92-7.11,1.34-.12,2.51-.72,3.3-1.68.45-.55.96-1.46.84-2.66-.23-2.24-2.51-3.87-5.11-3.64-3.59.34-6.78-2.32-7.11-5.91-.33-3.6,2.32-6.78,5.92-7.11,9.68-.88,18.35,5.98,19.32,15.32.46,4.44-.87,8.82-3.75,12.31-3.02,3.68-7.36,5.95-12.21,6.39-.2.02-.4.03-.6.03Z"></path>
    <path d="m287.99,352.42c-3.34,0-6.19-2.55-6.5-5.94-.33-3.6,2.32-6.78,5.92-7.11,1.34-.12,2.51-.72,3.3-1.68.45-.55.96-1.46.84-2.66-.23-2.24-2.51-3.87-5.11-3.64-3.6.34-6.78-2.32-7.11-5.91-.33-3.6,2.32-6.78,5.92-7.11,9.7-.89,18.35,5.98,19.32,15.32.46,4.44-.87,8.81-3.75,12.31-3.02,3.68-7.36,5.95-12.21,6.39-.2.02-.4.03-.6.03Z"></path>
    <path d="m205.83,403.44c-1.42,0-2.85-.17-4.28-.51-4.73-1.14-8.67-4.02-11.08-8.11-2.31-3.9-2.93-8.45-1.75-12.8.95-3.49,4.54-5.54,8.03-4.6,3.48.95,5.54,4.54,4.6,8.03-.32,1.17.03,2.12.38,2.71.6,1.02,1.63,1.75,2.9,2.05,2.52.61,5.16-.74,5.76-2.96.95-3.49,4.54-5.54,8.03-4.6s5.54,4.54,4.6,8.03c-2.08,7.64-9.31,12.75-17.17,12.75Z"></path>
    <path d="m182.54,306.1c-9.46,0-17.33-7.24-17.7-16.43-.18-4.45,1.42-8.73,4.49-12.05,3.24-3.5,7.7-5.52,12.56-5.69,3.65-.12,6.64,2.69,6.77,6.3.13,3.61-2.69,6.64-6.3,6.77-1.34.05-2.59.6-3.43,1.51-.49.53-1.07,1.42-1.02,2.63.09,2.22,2.24,3.97,4.83,3.87,3.62-.12,6.64,2.69,6.77,6.3.13,3.61-2.69,6.64-6.3,6.77-.22,0-.44.01-.66.01Z"></path>
    <path d="m394.02,229.37c-.99,0-1.98-.22-2.9-.68-2.42-1.2-3.86-3.77-3.61-6.47.01-.14,1.26-16.93-11.16-31.74-2.32-2.77-1.96-6.89.81-9.21,2.77-2.32,6.89-1.96,9.21.81,8.32,9.92,11.84,20.43,13.29,28.38,10.07-6.45,26.53-14.14,44.25-10.67,3.54.69,5.86,4.13,5.16,7.67-.69,3.55-4.14,5.86-7.67,5.16-21.68-4.25-42.74,14.83-42.95,15.02-1.23,1.13-2.83,1.72-4.43,1.72Z"></path>
  </g>
</symbol><symbol id="i521_mexican-7" xmlns="http://www.w3.org/2000/svg" viewBox="0 0 512 512">
  <g id="burкito">
    <circle cx="80.54" cy="215.13" r="10.32"></circle>
    <circle cx="139.02" cy="140.83" r="10.32"></circle>
    <circle cx="186.04" cy="125.29" r="10.32"></circle>
    <circle cx="271.09" cy="114.97" r="10.32"></circle>
    <circle cx="326.86" cy="135.61" r="10.32"></circle>
    <circle cx="299.32" cy="151.15" r="10.32"></circle>
    <circle cx="396.94" cy="210.85" r="10.32"></circle>
    <circle cx="175.72" cy="159.25" r="10.32"></circle>
    <path d="m443.56,403.47c-3.61,0-6.54-2.93-6.54-6.54,0-108.58-88.26-196.92-196.74-196.92S43.53,288.35,43.53,396.93c0,3.61-2.93,6.54-6.54,6.54s-6.54-2.93-6.54-6.54c0-56.09,21.82-108.83,61.45-148.49,39.63-39.66,92.32-61.51,148.37-61.51s108.74,21.84,148.37,61.51c39.63,39.66,61.45,92.4,61.45,148.49,0,3.61-2.93,6.54-6.54,6.54Z"></path>
    <path d="m443.91,296.87c-3.61,0-6.54-2.93-6.54-6.54,0-108.58-88.34-196.92-196.92-196.92S43.53,181.74,43.53,290.33c0,3.61-2.93,6.54-6.54,6.54s-6.54-2.93-6.54-6.54c0-56.09,21.84-108.83,61.51-148.49,39.66-39.66,92.4-61.51,148.49-61.51s108.83,21.84,148.49,61.51c39.66,39.66,61.51,92.4,61.51,148.49,0,3.61-2.93,6.54-6.54,6.54Z"></path>
    <path d="m36.99,403.47c-3.61,0-6.54-2.93-6.54-6.54v-106.6c0-3.61,2.93-6.54,6.54-6.54s6.54,2.93,6.54,6.54v106.6c0,3.61-2.93,6.54-6.54,6.54Z"></path>
    <path d="m443.56,403.47h-.02c-3.61-.01-6.53-2.95-6.52-6.56l.36-106.6c.01-3.6,2.94-6.52,6.54-6.52h.02c3.61.01,6.53,2.95,6.52,6.56l-.36,106.6c-.01,3.6-2.94,6.52-6.54,6.52Z"></path>
    <path d="m292.28,206.73c-2.16,0-4.27-1.07-5.52-3.03l-40.49-63.55c-1.26-1.97-3.32-3.1-5.65-3.1h-.05c-2.36.02-4.42,1.17-5.66,3.18l-38.94,62.87c-1.9,3.07-5.93,4.02-9,2.12-3.07-1.9-4.02-5.93-2.12-9l38.94-62.87c3.61-5.82,9.85-9.32,16.69-9.37.04,0,.09,0,.13,0,6.8,0,13.03,3.42,16.68,9.15l40.49,63.55c1.94,3.05,1.05,7.09-2,9.03-1.09.69-2.31,1.03-3.51,1.03Z"></path>
    <path d="m40.97,256.61c-3.38,0-6.24-2.6-6.51-6.03-.28-3.6,2.41-6.75,6.01-7.03l52.5-4.13c4.03-.32,7.32-3.18,8.2-7.12l11.87-53.35c1.41-6.33,5.61-11.49,11.54-14.13,5.92-2.65,12.57-2.35,18.23.83l50.79,28.3c3.16,1.76,4.29,5.74,2.53,8.9-1.76,3.15-5.74,4.29-8.9,2.53l-50.81-28.31c-2.03-1.14-4.4-1.25-6.51-.3-2.11.94-3.61,2.78-4.11,5.03l-11.87,53.36c-2.13,9.59-10.15,16.55-19.94,17.32l-52.5,4.13c-.18.01-.35.02-.52.02Z"></path>
    <path d="m439.96,256.76c-.14,0-.27,0-.41-.01l-50.3-3.12c-10.42-.65-19.19-8.23-21.33-18.44l-10.3-49.14c-.67-3.18-2.74-5.77-5.7-7.11-2.95-1.34-6.27-1.2-9.1.39l-47.35,26.57c-3.15,1.77-7.13.65-8.9-2.5-1.77-3.15-.65-7.14,2.5-8.9l47.35-26.57c6.5-3.65,14.13-3.97,20.91-.89,6.79,3.08,11.56,9.04,13.09,16.34l10.3,49.14c.94,4.47,4.78,7.79,9.34,8.07l50.3,3.12c3.6.22,6.35,3.33,6.12,6.93-.21,3.47-3.09,6.14-6.52,6.14Z"></path>
    <path d="m443.56,403.47H36.99c-3.61,0-6.54-2.93-6.54-6.54s2.93-6.54,6.54-6.54h406.56c3.61,0,6.54,2.93,6.54,6.54s-2.93,6.54-6.54,6.54Z"></path>
    <path d="m176.06,363.19c-1.67,0-3.35-.64-4.62-1.92-2.55-2.55-2.55-6.69,0-9.25l116.21-116.21c2.55-2.55,6.69-2.55,9.25,0,2.55,2.55,2.55,6.69,0,9.25l-116.21,116.21c-1.28,1.28-2.95,1.92-4.62,1.92Z"></path>
    <path d="m283.97,353.62c-1.67,0-3.35-.64-4.62-1.92-2.55-2.55-2.55-6.69,0-9.25l65.15-65.15c2.55-2.55,6.69-2.55,9.25,0,2.55,2.55,2.55,6.69,0,9.25l-65.15,65.15c-1.28,1.28-2.95,1.92-4.62,1.92Z"></path>
    <path d="m113.21,327.51c-1.67,0-3.35-.64-4.62-1.92-2.55-2.55-2.55-6.69,0-9.25l65.15-65.15c2.55-2.55,6.69-2.55,9.25,0,2.55,2.55,2.55,6.69,0,9.25l-65.15,65.15c-1.28,1.28-2.95,1.92-4.62,1.92Z"></path>
  </g>
</symbol><symbol id="i521_mexican-8" xmlns="http://www.w3.org/2000/svg" viewBox="0 0 512 512">
  <circle cx="126.41" cy="103.61" r="5.09"></circle>
  <circle cx="149.88" cy="118.63" r="5.09"></circle>
  <circle cx="154.97" cy="94.89" r="5.09"></circle>
  <g>
    <path d="m166.49,329.48c-9.39-9.38-17.32-19.82-23.7-31.02-1.24-2.17-3.98-2.95-6.16-1.72l-1.92,1.08c-2.19,1.23-2.97,4-1.73,6.18,9.18,16.16,21.17,30.53,35.3,42.46,1.65,1.39,4.04,1.45,5.74.12l1.79-1.4c2.28-1.78,2.31-5.2.1-7.06-3.24-2.73-6.39-5.61-9.42-8.64Z"></path>
    <path d="m134.47,281.28c-2.16-5.33-3.99-10.79-5.49-16.35-.73-2.71-3.68-4.13-6.24-2.98l-2.04.92c-2.04.92-3.1,3.19-2.52,5.35,1.62,5.92,3.57,11.71,5.85,17.34.95,2.34,3.64,3.45,5.97,2.47l2.02-.86c2.28-.96,3.36-3.58,2.43-5.87Z"></path>
  </g>
  <path d="m205.52,157.18c2.71-.62,4.53-3.09,4.43-5.86-.02-.54-.03-1.08-.03-1.62,0-27.46,22.9-49.67,50.6-48.55,25.06,1.01,45.44,21.35,46.54,46.41.19,4.32-.2,8.52-1.08,12.54-.52,2.38.32,4.84,2.16,6.43h0c2.98,2.57,7.66,1.11,8.59-2.71,1.4-5.76,1.97-11.84,1.55-18.13-2.03-30.87-27.73-55.33-58.66-55.88-33.59-.61-61.01,26.44-61.01,59.89,0,.76.01,1.52.04,2.27.13,3.49,3.44,5.99,6.85,5.21h.02Z"></path>
  <path d="m114.36,198.79c0-.08,0-.16,0-.24,0-11.18,8.38-20.43,19.48-21.52l7.41-.73,2.26-7.09c6.45-20.22,25.06-33.8,46.29-33.8,3.64,0,7.31.42,10.91,1.25l9.12,2.09,3.76-8.57c7.76-17.66,25.23-29.07,44.5-29.07,26.05,0,47.37,20.37,48.53,46.38l.76,16.9,15.33-7.16c3.92-1.83,8.12-2.76,12.47-2.76,13.07,0,24.42,8.39,28.24,20.88l2.59,8.46,8.84-.47c.39-.02.78-.03,1.18-.03,9.79,0,18.08,6.54,20.73,15.48h11.62c-2.88-15.25-16.27-26.79-32.36-26.79-.6,0-1.19.02-1.78.05-5.11-16.72-20.66-28.89-39.06-28.89-6.17,0-12.01,1.38-17.25,3.82-1.42-31.82-27.66-57.18-59.83-57.18-24.52,0-45.58,14.74-54.85,35.83-4.32-.99-8.82-1.53-13.44-1.53-26.73,0-49.36,17.51-57.07,41.68-16.67,1.63-29.69,15.68-29.69,32.78,0,.08,0,.16,0,.24h11.31Z"></path>
  <polygon points="153.58 148.24 101.07 99.78 173.07 74.81 169.72 137.59 181.23 134.23 185.26 58.61 79.51 95.29 145.91 156.55 153.58 148.24"></polygon>
  <polygon points="335.49 149.55 335.49 149.55 365.75 83.24 411.94 143.86 359.89 157.93 369.23 167.12 431.13 150.39 363.3 61.36 322.54 150.7 335.49 149.55"></polygon>
  <circle cx="388.91" cy="133.9" r="5.09"></circle>
  <circle cx="370.57" cy="114.24" r="5.09"></circle>
  <circle cx="365.48" cy="138.99" r="5.09"></circle>
  <path d="m405.67,288.8c11.22-26.2.5-55.93-23.95-66.4-24.45-10.47-53.36,2.28-64.58,28.48-.6,1.4-1.14,2.81-1.61,4.22-2.75,8.21-8.59,15.11-16.44,18.76-16.35,7.61-30.03,21.14-37.5,39.17-15.3,36.96,1.61,79.95,37.99,96.56,38.31,17.49,83.3-.05,99.78-38.55,7.47-17.43,7.79-36.12,2.28-52.82-2.83-8.58-1.75-17.89,2.38-25.94.58-1.13,1.13-2.3,1.64-3.49Zm-10.4-4.45c-.4.94-.84,1.88-1.31,2.78-5.69,11.08-6.77,23.39-3.06,34.64,4.85,14.68,4.16,30.6-1.93,44.82-10.01,23.37-32.91,38.48-58.35,38.48h0c-9.1,0-17.97-1.94-26.34-5.76-14.92-6.81-26.48-19.06-32.55-34.5-6.07-15.44-5.96-32.29.31-47.44,6.1-14.72,17.4-26.53,31.82-33.24,10.45-4.86,18.61-14.13,22.39-25.42.38-1.13.81-2.26,1.28-3.36,6.58-15.36,20.84-25.29,36.33-25.29,4.64,0,9.15.92,13.41,2.75,18.67,8,26.75,31.12,18,51.55Z"></path>
  <path d="m426.12,198.79H85.88c-5.53,0-10.05,4.52-10.05,10.05v45.72c0,85.65,70.08,155.73,155.73,155.73h48.89c14.51,0,28.58-2.02,41.93-5.78-5.67-.76-11.28-2.27-16.68-4.59t0,0c-.47-.2-.94-.41-1.4-.62-1.2-.55-2.37-1.14-3.52-1.76-6.68.95-13.47,1.43-20.32,1.43h-48.89c-38.4,0-74.62-15.07-101.98-42.43-27.36-27.36-42.43-63.58-42.43-101.98v-44.46h337.72v44.46c0,32.55-10.83,63.53-30.8,88.88-.22,7.53-1.78,15.02-4.67,22.11,28.83-28.3,46.78-67.65,46.78-110.99v-45.72c0-5.53-4.52-10.05-10.05-10.05Z"></path>
  <path d="m332.54,304.54c-18.19,0-32.94,14.75-32.94,32.94s14.75,32.94,32.94,32.94,32.94-14.75,32.94-32.94-14.75-32.94-32.94-32.94Zm0,54.57c-11.93,0-21.63-9.7-21.63-21.63s9.7-21.63,21.63-21.63,21.63,9.7,21.63,21.63-9.7,21.63-21.63,21.63Z"></path>
</symbol><symbol id="i521_mexican-9" xmlns="http://www.w3.org/2000/svg" viewBox="0 0 512 512">
  <path d="m470.68,243.07H102.37c-5.99,0-10.88,3.89-10.88,8.65v39.34c0,73.69,75.86,133.99,168.58,133.99h52.92c92.72,0,168.58-60.29,168.58-133.99v-39.34c0-4.76-4.9-8.65-10.88-8.65Zm-1.36,47.99c0,31.83-15.94,62.03-44.89,85.04-29.78,23.67-69.35,36.7-111.44,36.7h-52.92c-42.09,0-81.67-13.03-111.44-36.7-28.95-23.01-44.89-53.21-44.89-85.04v-35.74h365.59v35.74Z"></path>
  <g>
    <path d="m195.97,367.15c-12.46-7.15-23.7-15.81-33.53-25.71-1.91-1.92-5-1.96-6.93-.06l-1.7,1.67c-1.94,1.9-1.97,5.02-.06,6.95,14.16,14.29,30.76,25.92,48.88,34.39,2.12.99,4.64.38,6.04-1.49l1.48-1.97c1.88-2.51.95-6.08-1.89-7.4-4.16-1.93-8.26-4.05-12.29-6.37Z"></path>
    <path d="m148.88,325.84c-3.76-4.96-7.22-10.15-10.35-15.54-1.53-2.62-5.02-3.28-7.36-1.36l-1.87,1.53c-1.87,1.54-2.34,4.21-1.12,6.3,3.36,5.73,7.04,11.23,11.01,16.46,1.66,2.18,4.78,2.58,6.94.89l1.87-1.47c2.11-1.65,2.5-4.68.88-6.82Z"></path>
  </g>
  <path d="m231.87,198.03c2.93-.67,4.91-3.34,4.8-6.35-.02-.58-.03-1.16-.03-1.75,0-29.73,24.79-53.77,54.77-52.56,27.13,1.1,49.19,23.11,50.38,50.24.2,4.68-.21,9.23-1.17,13.58-.56,2.57.35,5.24,2.34,6.96h0c3.23,2.78,8.29,1.2,9.29-2.94,1.51-6.24,2.13-12.82,1.68-19.62-2.2-33.42-30.02-59.89-63.51-60.5-36.36-.66-66.04,28.62-66.04,64.83,0,.82.02,1.64.05,2.46.14,3.78,3.72,6.48,7.41,5.64h.02Z"></path>
  <path d="m133.19,243.07c0-.09,0-.17,0-.26,0-12.11,9.07-22.12,21.09-23.3l8.02-.79,2.45-7.68c6.98-21.89,27.12-36.59,50.11-36.59,3.94,0,7.91.45,11.81,1.35l9.87,2.26,4.08-9.27c8.4-19.12,27.31-31.47,48.17-31.47,28.2,0,51.28,22.05,52.54,50.2l.82,18.3,16.6-7.75c4.25-1.98,8.79-2.99,13.5-2.99,14.15,0,26.44,9.08,30.57,22.61l2.8,9.16,9.57-.51c.42-.02.85-.04,1.27-.04,10.6,0,19.57,7.08,22.44,16.76h12.58c-3.12-16.51-17.61-29-35.03-29-.65,0-1.29.02-1.93.05-5.53-18.1-22.37-31.27-42.28-31.27-6.68,0-13,1.49-18.68,4.14-1.54-34.45-29.94-61.9-64.77-61.9-26.54,0-49.34,15.95-59.38,38.79-4.68-1.07-9.55-1.66-14.55-1.66-28.93,0-53.43,18.95-61.78,45.12-18.04,1.77-32.14,16.98-32.14,35.48,0,.09,0,.17,0,.26h12.24Z"></path>
  <polygon points="372.58 189.77 372.58 189.77 405.33 117.98 455.33 183.61 398.99 198.83 409.1 208.78 476.11 190.67 402.68 94.29 358.55 191.01 372.58 189.77"></polygon>
  <circle cx="416.05" cy="178.57" r="5.51"></circle>
  <circle cx="401.69" cy="151.54" r="5.51"></circle>
  <g>
    <polygon points="175.65 188.35 118.8 135.89 196.75 108.85 193.13 176.82 205.58 173.18 209.95 91.32 95.47 131.03 167.35 197.35 175.65 188.35"></polygon>
    <circle cx="155.32" cy="138.82" r="5.51"></circle>
    <circle cx="176.22" cy="157.05" r="5.51"></circle>
    <circle cx="181.73" cy="135.9" r="5.51"></circle>
  </g>
  <g>
    <polygon points="282.22 133.52 248.62 63.84 331.06 67.34 302.71 129.22 315.63 130.41 349.78 55.88 228.71 50.74 271.19 138.84 282.22 133.52"></polygon>
    <circle cx="281.51" cy="79.99" r="5.51"></circle>
    <circle cx="294.25" cy="104.62" r="5.51"></circle>
    <circle cx="307.15" cy="86.97" r="5.51"></circle>
  </g>
</symbol>
</svg>