<svg xmlns="http://www.w3.org/2000/svg" style="display: none;">

<symbol id="i531_breakfast-1" xmlns="http://www.w3.org/2000/svg" viewBox="0 0 512 512">
  <g id="egg">
    <path d="m403.65,456.67c-3.67,0-6.64-2.97-6.64-6.64v-171.75c0-3.67,2.97-6.64,6.64-6.64s6.64,2.97,6.64,6.64v171.75c0,3.67-2.97,6.64-6.64,6.64Z"></path>
    <path d="m403.65,284.92c-29.22,0-52.99-23.77-52.99-52.99,0-14.34,5.64-34.07,14.37-50.26,10.92-20.25,24.63-31.41,38.62-31.41s27.7,11.15,38.62,31.41c8.73,16.19,14.37,35.92,14.37,50.26,0,29.22-23.77,52.99-52.99,52.99Zm0-121.37c-19.69,0-39.7,43.87-39.7,68.38,0,21.89,17.81,39.7,39.7,39.7s39.7-17.81,39.7-39.7c0-24.51-20.01-68.38-39.7-68.38Z"></path>
    <path d="m55.37,252.68c-.37,66.87,22.8,99.73,42.31,115.53,4.9,3.96,9.81,7.08,14.48,9.53,8.62,4.52,11.52,15.39,6.2,23.54l-10.81,16.58c-2.59,3.97-3.97,8.61-3.97,13.35v26.79c0,4.42,3.58,7.99,7.99,7.99h158.43s.06,0,.06,0c4.41,0,7.99-3.57,7.99-7.99v-26.79c0-4.74-1.38-9.38-3.97-13.35l-11.14-17.09c-5.28-8.1-2.16-18.75,6.4-23.27,25.31-13.35,57.38-45.86,56.93-124.83-.02-4.39-3.59-7.94-7.99-7.94h-.06s-254.81,0-254.81,0h-.06c-4.4,0-7.97,3.55-7.99,7.94Zm16.05,8.04h238.81c-2.64,106.45-70.73,110.06-71.43,110.09-2.88.09-5.48,1.74-6.81,4.3-1.33,2.56-1.18,5.63.4,8.04l27.03,41.45c1.74,2.67,2.67,5.79,2.67,8.98h0c0,9.08-7.36,16.44-16.44,16.44h-109.64c-9.08,0-16.44-7.36-16.44-16.44h0c0-3.19.93-6.31,2.67-8.98l27.03-41.45c1.58-2.41,1.73-5.48.4-8.04-1.33-2.56-3.93-4.2-6.81-4.3-2.84-.13-68.87-4.34-71.43-110.09Z"></path>
    <path d="m294.43,251.38c-.07,0-.14,0-.21,0-3.67-.11-6.55-3.18-6.44-6.84.03-1.14,2.9-114.2-44.58-163.15-14.23-14.67-31.84-22.11-52.35-22.11s-38.17,7.44-52.48,22.12c-47.73,48.96-45.4,162.02-45.37,163.16.09,3.67-2.8,6.72-6.47,6.81-.06,0-.12,0-.17,0-3.59,0-6.54-2.86-6.64-6.47-.13-4.87-2.51-119.77,49.12-172.76,16.91-17.35,37.77-26.15,62.01-26.15s45.07,8.8,61.9,26.16c51.4,53.01,48.46,167.92,48.31,172.79-.11,3.6-3.06,6.44-6.64,6.44Z"></path>
    <path d="m307.51,296.76H74.23c-3.67,0-6.64-2.97-6.64-6.64s2.97-6.64,6.64-6.64h233.29c3.67,0,6.64,2.97,6.64,6.64s-2.97,6.64-6.64,6.64Z"></path>
    <path d="m247.44,152.44c-3.28,0-6.13-2.43-6.58-5.77-3.92-29.37-28.41-49.68-28.66-49.88-2.84-2.32-3.27-6.5-.95-9.34,2.31-2.84,6.49-3.28,9.33-.97,1.17.95,28.82,23.73,33.45,58.44.49,3.64-2.07,6.98-5.71,7.46-.3.04-.59.06-.89.06Z"></path>
  </g>
</symbol><symbol id="i531_breakfast-10" xmlns="http://www.w3.org/2000/svg" viewBox="0 0 512 512">
  <path d="m256,46c-115.98,0-210,94.02-210,210s94.02,210,210,210,210-94.02,210-210S371.98,46,256,46Zm0,406.5c-108.35,0-196.5-88.15-196.5-196.5S147.65,59.5,256,59.5s196.5,88.15,196.5,196.5-88.15,196.5-196.5,196.5Z"></path>
  <path d="m281.31,105.21c-2.54-.81-6.59-1.71-11.34-.97-3.3.51-5.67,1.62-6.81,2.14-8.7,4.05-16.26,12.33-25.1,15.74-10.97,4.29-26.05,1.61-35.93,8.19-9.74,6.48-12.67,21.05-20.94,29.53-7.14,7.31-19.48,10.97-26.66,18.57l-.05.05c-.92,1.02-1.75,2.11-2.51,3.27-.93,1.47-1.67,3.06-2.22,4.73v.05c-3.07,9.26-1.18,21.01-4.73,30.41-2.98,7.94-10.02,14.77-14.42,22.13-1.81,2.76-3.03,5.88-3.59,9.16-.45,3.66-.15,7.38.9,10.92,2.13,8.09,6.48,16.23,7,24.03.47,7.9-2.69,16.23-3.88,24.22-.72,3.8-.61,7.71.33,11.45,1.19,3.64,3.1,6.97,5.63,9.8.43.54.9,1.07,1.37,1.56,2.03,2.34,4.3,4.58,6.57,6.82.71.78,1.47,1.51,2.17,2.29,2.45,2.46,4.59,5.23,6.38,8.24,4.02,7.26,4.68,16.86,7.61,24.9v.05c1.1,3.19,2.78,6.14,4.96,8.68,2.31,2.42,5.05,4.34,8.08,5.65,7.94,3.8,12.46,9.04,19.64,13.76,4.93,5.92,2.3,10.03,7.27,15.07-1.58.21,1.74,1.69,1.79,1.73,1.97,1.74,3.41-2.47,5.1-4.5.38-.45,2.66-5.41,2.87-5.96,35.94-102.44,71.88-204.88,107.82-307.31-12.44,1.87-24.88,3.74-37.32,5.61Zm-78.97,285.09l-1.13-1.01c-2.26-1.49-4.32-3.13-6.49-4.88-3.98-3.18-8.48-6.79-14.74-9.79l-.45-.2c-1.28-.56-2.44-1.35-3.46-2.35-.96-1.18-1.7-2.52-2.21-3.99l.73,4.39-.82-4.67c-.9-2.47-1.6-5.48-2.34-8.66-1.33-5.71-2.83-12.18-6.14-18.16l-.21-.37c-2.3-3.87-5.06-7.45-8.2-10.64-.38-.42-.78-.82-1.17-1.23-.27-.27-.53-.55-.79-.83l-.5-.52c-2.14-2.12-4.17-4.12-5.87-6.08l-.5-.54c-.17-.17-.34-.37-.48-.54l-.51-.61c-1.18-1.32-2.09-2.85-2.7-4.54-.36-1.7-.38-3.48-.06-5.19l.09-.55c.33-2.26.91-4.77,1.53-7.42,1.36-5.86,2.89-12.51,2.47-19.59-.46-6.9-2.76-13.22-4.79-18.79-1.02-2.8-1.99-5.45-2.62-7.86l-.11-.4c-.49-1.64-.65-3.41-.48-5.12.26-1.33.79-2.61,1.52-3.73l.3-.48c1.31-2.19,3.11-4.57,5.02-7.1,3.71-4.91,7.92-10.47,10.45-17.21,2.54-6.75,3.01-13.67,3.42-19.78.29-4.28.56-8.32,1.48-11.12l.02-.1c.19-.58.45-1.14.76-1.65.33-.49.68-.96,1.06-1.39,2.29-2.39,6.25-4.64,10.44-7.03,5.24-2.98,11.18-6.37,16-11.31,4.95-5.07,8.18-11.12,11.03-16.46,2.49-4.67,5.07-9.5,7.74-11.27,2.84-1.9,8.57-2.48,14.11-3.04,6-.61,12.81-1.3,19.25-3.82,6.35-2.45,11.76-6.44,16.53-9.95,3.35-2.47,6.52-4.81,9.35-6.12.76-.35,1.78-.83,3.17-1.04.49-.08,1-.11,1.51-.11,1.18,0,2.42.21,3.69.61l6.1.49,15.16-2.28-96.13,274.02Z"></path>
  <g>
    <path d="m314.18,97.24c-5.65-.21-13.04-.21-16.28-.52-9-.84-18.17-5.6-27.17-7.96h-.1c-4.05-1.15-8.28-1.51-12.46-1.05-2.61.4-5.15,1.18-7.54,2.3-9.63,4.35-18.01,13.25-27.8,16.91-12.15,4.61-28.85,1.73-39.79,8.8-10.78,6.96-14.27,24.51-23.43,33.62-7.91,7.85-21.33,9.88-29.29,18.05l-.05.05c-1.01,1.1-1.94,2.27-2.77,3.51-1.03,1.58-1.85,3.29-2.46,5.08v.05c-3.4,9.95-1.31,22.57-5.24,32.67-3.3,8.53-11.1,15.86-15.97,23.77-2.01,2.96-3.36,6.32-3.98,9.84-.5,3.94-.16,7.93.99,11.73,2.36,8.69,7.17,17.43,7.75,25.81.52,8.48-2.98,17.43-4.29,26.02-.8,4.08-.68,8.28.37,12.3,1.31,3.91,3.44,7.49,6.23,10.52.47.58.99,1.15,1.52,1.68,2.25,2.51,4.76,4.92,7.28,7.33.79.84,1.62,1.62,2.41,2.46,2.71,2.65,5.09,5.62,7.07,8.85,4.45,7.8,5.18,18.11,8.43,26.75v.05c1.22,3.43,3.08,6.6,5.5,9.32,2.55,2.59,5.6,4.66,8.95,6.07,8.8,4.08,19.69,5.97,27.64,11.05,6.18,4.63,12.04,9.66,17.54,15.08.05.05.1.09.16.14,1.69,1.45,4.04,1.61,5.89.59-.14-.07-.28-.15-.42-.28-.05-.04-3.37-1.53-1.79-1.73-4.97-5.04-2.33-9.15-7.26-15.07-7.19-4.73-11.7-9.96-19.64-13.76-2.67-1.16-5.09-2.81-7.22-4.83-3.37-1.11-6.55-2.19-9.21-3.42l-.44-.19c-1.62-.68-3.07-1.64-4.33-2.86-1.15-1.37-2.04-2.92-2.64-4.61l.78,4.51-.86-4.8c-1.01-2.7-1.79-5.94-2.62-9.38-1.46-6.08-3.11-12.98-6.72-19.31l-.22-.38c-2.51-4.09-5.52-7.87-8.93-11.24-.42-.45-.86-.88-1.29-1.32-.3-.3-.61-.6-.9-.92l-.51-.52c-2.41-2.31-4.66-4.47-6.56-6.59l-.51-.54c-.22-.22-.44-.46-.62-.69l-.51-.59c-1.41-1.53-2.48-3.28-3.2-5.22-.43-1.92-.46-3.93-.08-5.86l.1-.57c.37-2.45,1.02-5.16,1.7-8.02,1.49-6.26,3.18-13.35,2.72-20.87-.5-7.32-3.04-14.06-5.27-20-1.14-3.03-2.21-5.88-2.92-8.51l-.12-.41c-.57-1.88-.76-3.81-.55-5.76.31-1.55.92-3,1.8-4.3l.32-.49c1.48-2.4,3.49-4.98,5.62-7.71,4.07-5.22,8.69-11.14,11.44-18.27,2.78-7.16,3.29-14.55,3.74-21.06.32-4.64.62-9.02,1.68-12.1l.02-.1c.23-.69.55-1.35.94-1.96.39-.57.83-1.12,1.29-1.64,2.67-2.71,7.16-5.19,11.9-7.81,5.72-3.16,13.72-5.17,18.93-10.35,5.37-5.34,7.39-13.34,10.51-19.02,2.95-5.37,5.75-10.44,8.97-12.52,3.49-2.25,10.06-2.9,16.41-3.52,6.54-.64,13.94-1.37,20.85-3.99,6.84-2.56,12.74-6.78,17.94-10.5,3.78-2.7,7.35-5.25,10.62-6.73l.21-.1c1.13-.53,2.32-.91,3.54-1.12.59-.06,1.19-.08,1.78-.08,1.77,0,3.52.24,5.22.73l2.42.34-2.05-.26c2.69.7,5.59,1.74,8.66,2.84,1.77.17,3.53.51,5.24,1.01h.09l37.32-5.61c-.83-1.71-2.55-2.81-4.45-2.83Z"></path>
    <path d="m318.63,100.07l-48.12,137.16,48.38-132.97c.52-1.37.43-2.9-.26-4.19Z"></path>
  </g>
  <circle cx="245.19" cy="174.5" r="5.86"></circle>
  <circle cx="188.58" cy="209.49" r="5.86"></circle>
  <circle cx="228.58" cy="215.34" r="5.86"></circle>
  <circle cx="188.58" cy="263.49" r="5.86"></circle>
  <circle cx="203.27" cy="305.78" r="5.86"></circle>
  <path d="m303.99,227.27c-14.37,0-26.02,11.65-26.02,26.02s11.65,26.02,26.02,26.02,26.02-11.65,26.02-26.02-11.65-26.02-26.02-26.02Zm0,44.05c-9.94,0-18.02-8.09-18.02-18.02s8.09-18.02,18.02-18.02,18.02,8.09,18.02,18.02-8.08,18.02-18.02,18.02Z"></path>
  <path d="m314.07,277.37c1.53,2.83,2.58,6.94,2.22,11.9-.51,7.15-3.73,12.08-6.51,13.65-.2.11-.4.21-.6.29l-4.77,1.9-.34,5.12c-.28,4.2-2.06,7.01-3.69,7.93-.36.2-.71.31-1.08.35-1.35.12-2.66-.89-3.33-1.5l-6.42-5.94-5.46,6.83c-1.19,1.49-2.62,2.73-4.13,3.58-1.95,1.1-4.64,1.82-6.33.57-1.88-1.39-2.28-5.09-.96-8.8l2.06-5.76-4.97-3.57c-.45-.32-.79-.69-1.03-1.13-1.43-2.54.61-7.5,5.81-10.56l6.58-3.88-3.46-6.81c-.15-.3-.25-.58-.31-.87-.4-2.05,1.36-4.58,4.39-6.28,1.42-.8,3.02-1.36,4.74-1.67.1-.02.21-.02.31-.04-2.21-1.98-4.08-4.34-5.51-6.97-8.09,2.86-13.25,9.68-11.92,16.52.21,1.05.56,2.05,1.04,2.99-8.7,5.12-12.63,14.68-8.77,21.55.85,1.51,2,2.76,3.38,3.75-2.51,7.05-1.22,14.36,3.77,18.06,6.12,4.54,15.58,2,21.65-5.6,2.76,2.56,6.12,3.95,9.58,3.63,6.68-.6,11.6-7.34,12.16-15.84,6.42-2.55,11.49-10.75,12.22-20.91.45-6.34-.87-12.26-3.39-16.72-2.06,1.75-4.4,3.19-6.94,4.24Z"></path>
  <path d="m338.1,221.11c6.97-5.79,9.03-14.88,4.57-20.49-.98-1.23-2.19-2.19-3.57-2.88,1.18-6.65-1.07-13.01-6.07-15.62-6.12-3.2-14.16.38-18.42,8.02-2.84-1.9-6.03-2.68-9.07-1.92-5.85,1.47-9.22,8.17-8.44,15.85-5.33,3.18-8.61,11.21-7.73,20.39.22,2.3.69,4.5,1.36,6.54,2.08-1.26,4.35-2.23,6.75-2.86-.38-1.31-.66-2.74-.81-4.29-.62-6.46,1.51-11.32,3.75-13.11.16-.13.33-.24.49-.34l3.96-2.36-.47-4.63c-.38-3.79.78-6.55,2.1-7.6.29-.23.59-.38.91-.46,1.18-.3,2.5.42,3.19.88l6.6,4.41,3.83-6.86c.84-1.5,1.92-2.81,3.14-3.77,1.57-1.25,3.86-2.28,5.55-1.39,1.88.98,2.79,4.23,2.17,7.73l-.96,5.44,4.95,2.5c.45.23.81.51,1.09.87,1.65,2.07.59,6.79-3.58,10.25l-5.28,4.38,4.1,5.61c.18.24.31.49.41.74.67,1.78-.53,4.28-2.96,6.22-1.14.91-2.48,1.64-3.97,2.15-.93.32-1.89.53-2.83.66,1.85,1.91,3.41,4.1,4.61,6.5.23-.07.46-.12.69-.2,8.79-3.05,13.86-11.04,11.32-17.84-.34-.91-.81-1.76-1.37-2.53Z"></path>
  <rect x="300.26" y="215.37" width="30.43" height="8" rx="4" ry="4" transform="translate(-24.84 397.79) rotate(-62.48)"></rect>
  <rect x="277.9" y="283.7" width="30.43" height="8" rx="4" ry="4" transform="translate(-97.47 414.72) rotate(-62.48)"></rect>
  <rect x="300.65" y="218.72" width="17.23" height="4.95" rx="2.48" ry="2.48" transform="translate(334.71 -158.17) rotate(58.26)"></rect>
  <rect x="291.28" y="289.64" width="17.23" height="4.95" rx="2.48" ry="2.48" transform="translate(390.58 -116.59) rotate(58.26)"></rect>
  <g>
    <path d="m156.34,371.56c-.42.21-.84.39-1.27.57.35.31.71.61,1.06.91.05-.49.12-.99.21-1.48Z"></path>
    <path d="m131.84,345.86c-.21.06-.43.09-.64.14.11.16.23.31.34.47.1-.2.19-.41.3-.61Z"></path>
    <path d="m183.64,391.11c-.23.13-.46.24-.69.35.24.13.49.26.74.39-.02-.25-.04-.5-.05-.74Z"></path>
    <path d="m315.19,113.91l-4.48,12.76c50.33,21.37,85.71,71.3,85.71,129.33,0,77.43-63,140.43-140.43,140.43-13.2,0-25.97-1.83-38.09-5.25l-4.48,12.76c13.52,3.9,27.81,5.99,42.57,5.99,84.88,0,153.93-69.05,153.93-153.93,0-63.91-39.16-118.85-94.74-142.09Z"></path>
  </g>
</symbol><symbol id="i531_breakfast-2" xmlns="http://www.w3.org/2000/svg" viewBox="0 0 512 512">
  <g id="icecream_2">
    <path d="m335.77,472.75h-159.55c-14.17,0-25.71-11.53-25.71-25.71s11.53-25.71,25.71-25.71h39.56c6.73,0,12.21-5.48,12.21-12.21v-28.85c0-3.73,3.02-6.75,6.75-6.75s6.75,3.02,6.75,6.75v28.85c0,14.17-11.53,25.71-25.71,25.71h-39.56c-6.73,0-12.21,5.48-12.21,12.21s5.48,12.21,12.21,12.21h159.55c6.73,0,12.21-5.48,12.21-12.21s-5.48-12.21-12.21-12.21h-39.56c-14.17,0-25.71-11.53-25.71-25.71v-28.85c0-3.73,3.02-6.75,6.75-6.75s6.75,3.02,6.75,6.75v28.85c0,6.73,5.48,12.21,12.21,12.21h39.56c14.17,0,25.71,11.53,25.71,25.71s-11.53,25.71-25.71,25.71Z"></path>
    <path d="m256,387.03c-88.71,0-160.88-82.3-160.88-183.45,0-3.73,3.02-6.75,6.75-6.75h308.27c3.73,0,6.75,3.02,6.75,6.75,0,101.16-72.17,183.45-160.88,183.45ZM108.73,210.33c3.08,90.6,67.96,163.2,147.27,163.2s144.19-72.61,147.27-163.2H108.73Z"></path>
    <path d="m255.08,210.33H126.07c-2.33,0-4.49-1.2-5.72-3.17-8.18-13.09-12.51-28.21-12.51-43.72,0-45.6,37.14-82.69,82.79-82.69,6.24,0,12.26.67,17.9,2,24.56,5.36,45.79,22.2,56.79,45.05,5.31,11.06,8,23.04,8,35.64s-2.69,24.59-8,35.64c-1.54,3.21-3.05,5.91-4.62,8.25-1.25,1.88-3.36,3.01-5.62,3.01Zm-125.16-13.5h121.37c.61-1.1,1.23-2.29,1.86-3.61,4.42-9.21,6.67-19.23,6.67-29.79s-2.24-20.58-6.67-29.79c-9.22-19.15-27-33.25-47.56-37.72-.04,0-.08-.02-.12-.03-4.64-1.1-9.63-1.65-14.85-1.65-38.21,0-69.29,31.04-69.29,69.19,0,11.74,2.96,23.21,8.59,33.39Z"></path>
    <path d="m391.62,210.33h-136.54c-2.49,0-4.78-1.37-5.95-3.56-1.17-2.2-1.05-4.86.33-6.93,1.21-1.82,2.42-3.98,3.68-6.61,4.42-9.21,6.67-19.23,6.67-29.79s-2.24-20.58-6.67-29.79c-1.06-2.21-.84-4.82.58-6.82,15.55-21.96,40.84-35.08,67.65-35.08,10.53,0,20.82,1.98,30.59,5.89,31.7,12.53,52.2,42.68,52.2,76.81,0,11.08-2.12,21.76-6.32,31.75-1.05,2.51-3.5,4.14-6.22,4.14Zm-125.27-13.5h120.62c2.45-7.12,3.69-14.64,3.69-22.39,0-28.55-17.15-53.77-43.69-64.26-8.19-3.28-16.79-4.93-25.6-4.93-21.17,0-41.22,9.78-54.36,26.34,4.18,9.98,6.3,20.68,6.3,31.85,0,11.75-2.34,22.97-6.96,33.39Z"></path>
    <path d="m259.23,137.47c-.19,0-.38,0-.56-.02-2.38-.2-4.48-1.64-5.52-3.8-9.22-19.15-27-33.26-47.56-37.73-2.01-.44-3.71-1.76-4.62-3.61-.91-1.84-.93-4-.06-5.86,4.79-10.2,11.58-19.19,20.19-26.72,15.05-13.21,34.42-20.49,54.53-20.49,38.37,0,71.42,25.93,80.38,63.06.59,2.45-.23,5.03-2.14,6.69-1.91,1.65-4.58,2.1-6.92,1.16-8.16-3.27-16.77-4.92-25.57-4.92-22.44,0-43.61,10.98-56.63,29.38-1.27,1.8-3.33,2.85-5.51,2.85Zm-42.23-52.38c17.66,5.95,33.02,17.92,43.22,33.66,15.61-17.07,37.8-27.01,61.15-27.01,5.92,0,11.77.63,17.49,1.87-10.91-24.57-35.4-40.86-63.23-40.86-16.83,0-33.04,6.09-45.63,17.14-5.13,4.49-9.48,9.58-13,15.2Z"></path>
  </g>
</symbol><symbol id="i531_breakfast-3" xmlns="http://www.w3.org/2000/svg" viewBox="0 0 512 512">
  <path d="m464.24,88.55l-31.64-37.71c-1.71-2.04-4.34-3.02-6.99-2.59-2.62.43-4.82,2.21-5.79,4.68l-13.25,33.82c-15.38-7.87-33.47-7.94-48.69-.03-7.4,3.86-14.66,8.1-21.68,12.2-44.89,26.24-87.32,51.03-181.67-11.79-.12-.08-.26-.09-.39-.16-.12-.07-.19-.19-.32-.26-15.3-7.93-33.44-7.66-48.43,0l-13.23-33.78c-.96-2.47-3.17-4.25-5.79-4.68-2.65-.44-5.28.56-6.99,2.59l-31.64,37.71c-1.59,1.9-2.15,4.46-1.48,6.85s2.46,4.3,4.81,5.11l30.81,10.61c-2.05,4.64-3.45,9.57-3.97,14.82-.18,1.82-.26,3.72-.26,5.62,0,18.39,9.02,35.54,24.52,46.13l.73.48c.39.27.79.53,1.2.79,0,0,0,0,0,0,0,0,.02.01.03.02.07.04.13.09.19.13.01,0,.03.01.04.02,28.92,18.81,61.01,31.13,95.38,36.73v46.95c0,16.32,8.09,31.48,21.63,40.58l23.3,15.65.52,137.33c.01,4.15,3.38,7.5,7.53,7.5h.03c4.15-.01,7.51-3.4,7.5-7.56l-.52-137.4,23.58-16.63c13-9.08,20.76-24.02,20.76-39.97v-48.42c39.59-7.35,72.19-20.2,92.61-29.74.12-.05.18-.16.3-.22,5.07-1.92,12.72-6.29,13.08-6.52,15.03-10.44,24.01-27.59,24.01-45.85,0-1.89-.09-3.78-.26-5.65-.53-5.2-1.92-10.12-3.93-14.72l31.03-10.69c2.35-.8,4.15-2.72,4.81-5.11.66-2.39.1-4.95-1.48-6.85Zm-381.46-18.32l9.96,25.43c-.83.79-1.62,1.61-2.38,2.46l-24.02-8.28,16.45-19.61Zm206.24,170.54c-9.35,4.26-19.24,6.85-29.29,7.72v-29.39c9.59-.44,19.29-1.32,29.29-2.74v24.41Zm-44.34,7.77c-10.25-.82-20.34-3.42-29.88-7.76v-23.02c9.7,1.04,19.54,1.76,29.58,1.76.1,0,.2,0,.3,0v29.02Zm29.99,41.41l-22.58,15.92-22.32-14.99c-9.38-6.3-14.97-16.8-14.97-28.08v-5.62c11.94,4.52,24.51,6.83,37.11,6.83.04,0,.08,0,.12,0,.06,0,.12.04.18.04.12,0,.21-.06.33-.07,12.38-.07,24.74-2.33,36.48-6.77v5.11c0,11.04-5.35,21.37-14.35,27.64Zm127.15-125.13c-1.87,1.15-9.62,4.84-11.14,5.52-.08.03-.14.09-.21.12-.05.02-.11.01-.16.04-19.15,8.94-49.47,20.88-86.24,28.02v-21.13h9.6c4.16,0,7.53-3.37,7.53-7.53s-3.37-7.53-7.53-7.53h-27.48c-4.16,0-7.53,3.37-7.53,7.53s3.37,7.53,7.53,7.53h2.82v23.75c-10.03,1.49-19.72,2.42-29.29,2.89v-26.64h5.92c4.16,0,7.53-3.37,7.53-7.53s-3.37-7.53-7.53-7.53h-25.91c-4.16,0-7.53,3.37-7.53,7.53s3.37,7.53,7.53,7.53h4.93v27c-10.15,0-20.14-.52-29.88-1.62v-25.38h6.32c4.16,0,7.53-3.37,7.53-7.53s-3.37-7.53-7.53-7.53h-28.75c-4.16,0-7.53,3.37-7.53,7.53s3.37,7.53,7.53,7.53h7.37v23.17c-31.49-5.46-60.89-16.91-87.43-34.21-.04-.02-.08-.02-.11-.05-.04-.03-.06-.07-.11-.1l-.71-.47c-.49-.33-.99-.67-1.12-.73-11-7.53-17.57-20.04-17.57-33.46,0-1.41.06-2.82.19-4.15.59-5.94,2.61-11.35,6.04-16.14,2.01-2.87,4.43-5.35,7.32-7.48,11.62-8.97,27.48-10.43,40.45-3.8,101.83,67.59,150.25,39.29,197.08,11.92,6.87-4.01,13.96-8.16,21.03-11.84,11.14-5.78,24.48-5.62,35.68.43,10.49,5.67,17.17,15.48,18.32,26.86.13,1.35.19,2.77.19,4.19,0,13.34-6.56,25.86-17.19,33.26Zm19.71-66.67c-.74-.82-1.54-1.59-2.33-2.36l10.01-25.56,16.45,19.61-24.13,8.31Z"></path>
</symbol><symbol id="i531_breakfast-4" xmlns="http://www.w3.org/2000/svg" viewBox="0 0 512 512">
  <g id="kruassan">
    <path d="m251.43,302.55c-2.31,0-4.63-.2-6.94-.62-113.91-20.37-155.23-53.15-169.83-77.07-11.61-19.01-7.32-33.65-7.13-34.27.17-.56.42-1.1.73-1.59,28.84-45.35,69.37-83.87,117.21-111.4,2.59-1.49,5.62-2.19,8.54-1.96,34.2,2.64,61.57,28.07,81.34,75.56,15.52,37.27,22.35,78.99,25.05,100.54,1.36,10.85-2.57,21.51-10.77,29.24l-12.01,11.33c-7.01,6.61-16.45,10.23-26.2,10.23Zm-171.54-107.46c-.44,2.49-1.29,11.56,6.37,23.68,13.52,21.39,52.35,50.95,160.53,70.3,8.02,1.43,16.19-.91,21.86-6.25l12.01-11.33c5.13-4.84,7.6-11.44,6.76-18.1h0c-4.66-37.28-25.24-159.34-94.42-164.69-.31-.02-.69.07-1.01.26-45.69,26.28-84.43,62.97-112.09,106.14Z"></path>
    <path d="m292.5,248.76c-3.07,0-5.81-2.17-6.41-5.3-.68-3.55,1.64-6.97,5.18-7.66,15.75-3.04,37.18-9.69,40.98-12.69,1.83-3.15,3.53-7.52,5.21-13.32,9.24-34.18,6.01-99.15-6.58-135.03-1.53-.48-3.16-.91-4.78-1.25-.2-.04-.39-.09-.58-.15-14.4-3.41-32.98-3.88-52.35-1.32-22.66,3.02-43.65,10.2-57.58,19.72-2.98,2.04-7.05,1.27-9.09-1.71-2.04-2.98-1.27-7.05,1.71-9.09,15.79-10.79,38.25-18.57,63.24-21.89,20.82-2.74,40.98-2.2,56.86,1.51.39.06.77.15,1.14.28,2.25.5,4.52,1.13,6.59,1.83.05.02.1.03.15.05,4.12,1.5,5.79,4.11,6.47,6.11,14,38.28,17.53,107.07,7.41,144.42,0,.04-.02.07-.03.11-2.09,7.24-4.25,12.58-6.77,16.8-1.57,2.7-4.81,6.05-22.44,11.55-9.84,3.07-20.69,5.69-27.09,6.92-.42.08-.83.12-1.25.12Zm39.24-176.96c-.48.46-1.03.83-1.61,1.12.58-.28,1.12-.65,1.61-1.12Zm-8.73.09s0,0,0,0c0,0,0,0,0,0Zm-.01-.01s0,0,0,0c0,0,0,0,0,0Zm8.75-.08s0,0,0,0c0,0,0,0,0,0Z"></path>
    <path d="m343.76,218.09c-3.29,0-6.12-2.47-6.49-5.82-.4-3.59,2.19-6.82,5.78-7.22,15.17-1.68,28.51-4.6,31.68-6.3,2.83-3.85,5.44-9.42,7.57-16.17,7.62-23.35,10.75-60.76,7.45-89.01-.55-5.15-1.31-9.74-2.26-13.73-12.24-4.89-29.41-7.47-47.41-7.08-3.81.12-7.92.31-11.74.83-.94.13-1.9.05-2.81-.24l-.22-.07c-3.45-1.07-5.38-4.74-4.3-8.19.9-2.9,3.62-4.74,6.53-4.59,4.09-.5,8.27-.69,12.19-.82,20.52-.45,40.28,2.73,54.25,8.68,3.04,1.3,5.06,3.58,5.73,6.43,1.34,5.07,2.33,10.74,3.04,17.32,3.54,30.32.25,69.19-8,94.46-2.67,8.44-6.15,15.61-10.05,20.67-1.97,2.56-5.8,4.79-18.13,7.35-6.49,1.35-14.74,2.64-22.08,3.46-.25.03-.49.04-.73.04Zm30.59-18.83s0,0,0,0c0,0,0,0,0,0Zm.68-.69h0Z"></path>
    <path d="m388.52,191.11c-3.45,0-6.34-2.7-6.52-6.18-.2-3.61,2.57-6.69,6.18-6.88l42.18-2.29c8.96-.49,16.87-5.31,20.14-12.3,3.01-6.42,3.21-12.77.6-19.41-10.12-25.79-56.8-44.93-57.28-45.12-3.35-1.35-4.96-5.16-3.61-8.51,1.35-3.35,5.16-4.97,8.51-3.62,2.13.86,52.35,21.43,64.55,52.46,3.94,10.03,3.63,20.04-.93,29.76-5.37,11.46-17.36,19.05-31.28,19.81l-42.18,2.29c-.12,0-.24,0-.36,0Z"></path>
    <path d="m153.56,350.11c-33.88,0-70.69-4.37-95.42-12.42-1.72-.52-4.66-2-6.35-6.16-.02-.05-.04-.1-.06-.16-.79-2.08-1.49-4.35-2.04-6.59-.04-.12-.07-.24-.11-.36-4.08-15.17-4.7-34.52-1.74-54.48,3.55-23.73,11.84-45.04,23.34-60.01,2.2-2.86,6.31-3.4,9.17-1.2,2.86,2.2,3.4,6.31,1.2,9.17-10.03,13.05-17.6,32.72-20.78,53.97-2.68,18.11-2.19,35.47,1.37,48.92.07.2.13.4.18.61.35,1.44.77,2.9,1.25,4.28,38.18,11.96,107.49,15.04,143.93,6.27,6.26-1.61,10.97-3.26,14.37-5.02,2.59-2.89,8.26-17.7,12.22-33.91.86-3.51,4.39-5.66,7.9-4.8,3.51.86,5.66,4.39,4.8,7.9-1.93,7.92-4.64,16.85-7.25,23.88-5.02,13.54-8.35,16.82-11.2,18.3-4.42,2.36-10.03,4.37-17.64,6.33-.03,0-.06.02-.1.02-15.3,3.69-35.59,5.44-57.07,5.44Z"></path>
    <path d="m109.56,396.35c-9.51,0-18.83-.43-27.49-1.33-6.88-.66-12.84-1.59-18.17-2.84-2.82-.6-5.21-2.55-6.58-5.39-6.37-13.32-9.75-32.11-9.28-51.55.18-4.87.95-10.53,1.4-13.47.54-3.57,3.88-6.02,7.45-5.48,3.57.54,6.03,3.88,5.49,7.45-.41,2.67-1.11,7.77-1.26,11.91-.4,16.72,2.28,32.73,7.39,44.17,4.33.93,9.32,1.67,14.87,2.2,30.14,3.14,69.99.18,94.81-7.03,7.28-2.05,13.26-4.54,17.39-7.23,1.77-3.1,4.87-16.16,6.61-30.1.45-3.58,3.71-6.13,7.3-5.68,3.58.45,6.13,3.72,5.68,7.3-.88,7.03-2.26,14.96-3.7,21.2-2.78,12.08-5.19,15.81-7.94,17.69-5.3,3.64-12.83,6.89-21.75,9.4-19.42,5.64-46.52,8.8-72.21,8.8Zm86.57-28.99s0,0,0,0c0,0,0,0,0,0Z"></path>
    <path d="m146.68,454.67c-13.02,0-29.03-6.21-46.4-26.7-14.4-16.97-23.08-35.95-23.44-36.75-1.49-3.29-.03-7.17,3.26-8.66,3.29-1.49,7.16-.03,8.65,3.25h0c.31.69,31.88,69.01,69.3,53.42,7.4-3.09,12.51-10.39,13.01-18.61l2.44-39.78c.22-3.6,3.33-6.35,6.93-6.13,3.61.22,6.35,3.32,6.13,6.93l-2.44,39.78c-.81,13.16-9.06,24.89-21.03,29.88-4.68,1.95-10.2,3.36-16.4,3.36Z"></path>
    <path d="m109.36,194.76c-1.32,0-2.65-.4-3.81-1.23-2.93-2.11-3.61-6.19-1.5-9.13,27.87-38.83,58.51-55.57,59.8-56.26,3.18-1.71,7.15-.51,8.86,2.67,1.71,3.18.52,7.14-2.66,8.85h0c-.29.16-29.37,16.15-55.37,52.37-1.28,1.78-3.28,2.73-5.32,2.73Z"></path>
    <path d="m152.91,327.34c-27.37,0-45.94-7.2-46.95-7.6-3.36-1.33-5-5.13-3.67-8.49,1.33-3.35,5.13-4.99,8.48-3.67h0c.29.11,29.48,11.31,67.5,4.41,3.55-.65,6.96,1.71,7.6,5.27.65,3.55-1.71,6.96-5.27,7.6-9.9,1.8-19.22,2.49-27.7,2.49Z"></path>
    <path d="m323.81,182.47c-.5,0-1-.06-1.51-.18-3.52-.83-5.69-4.35-4.87-7.87,6.7-28.42-3.44-67.39-3.54-67.78-.92-3.49,1.16-7.07,4.65-7.99,3.49-.92,7.07,1.16,7.99,4.65.46,1.72,11.08,42.49,3.63,74.13-.71,3.01-3.4,5.04-6.36,5.04Z"></path>
  </g>
</symbol><symbol id="i531_breakfast-5" xmlns="http://www.w3.org/2000/svg" viewBox="0 0 512 512">
  <g id="croissant">
    <g id="croissant-2" data-name="croissant">
      <path d="m274.16,355.56h-36.21c-27.15,0-49.5-20.39-51.99-47.42l-11.31-122.72c-.02-.2-.03-.4-.03-.6,0-29.15,23.71-52.86,52.86-52.86h57.14c29.15,0,52.86,23.71,52.86,52.86,0,.2,0,.4-.03.6l-11.31,122.72c-2.49,27.04-24.84,47.42-51.99,47.42Zm-86.46-171.03l11.28,122.41c1.87,20.26,18.62,35.54,38.97,35.54h36.21c20.35,0,37.1-15.28,38.97-35.54l11.28-122.41c-.16-21.8-17.94-39.49-39.78-39.49h-57.14c-21.84,0-39.62,17.69-39.78,39.49Zm143.24.29h0,0Z"></path>
      <path d="m342.55,358.05c-6,0-11.92-1.74-17.16-5.15l-20.82-13.56c-3.03-1.97-3.88-6.02-1.91-9.05s6.02-3.88,9.05-1.91l20.82,13.56c5.01,3.26,11.08,3.91,16.67,1.79,5.58-2.12,9.69-6.64,11.27-12.4l29.06-105.97c2.54-9.27,1.16-18.87-3.9-27.05-5.06-8.17-13.03-13.7-22.46-15.56l-36.21-7.15c-3.54-.7-5.85-4.14-5.15-7.68.7-3.54,4.14-5.85,7.68-5.15l36.21,7.15c12.85,2.54,24.16,10.38,31.05,21.51,6.89,11.13,8.86,24.76,5.39,37.39l-29.06,105.97c-2.7,9.83-9.71,17.55-19.24,21.17-3.69,1.4-7.5,2.09-11.28,2.09Z"></path>
      <path d="m433.76,380.04c-10.53,0-19.75-6.21-23.57-15.91-8.41-21.37-22.12-29.46-41.9-24.71-3.52.84-7.04-1.32-7.89-4.84-.84-3.51,1.32-7.04,4.84-7.89,26.09-6.26,46.37,5.34,57.12,32.64,2.83,7.19,9.59,7.64,11.6,7.62,4.25-.06,9.56-2.25,11.71-8.22,13.18-36.6,8.54-68.75-13.81-95.53-17.02-20.4-38.46-30.05-38.67-30.14-3.3-1.46-4.8-5.32-3.34-8.62,1.46-3.3,5.31-4.8,8.61-3.35.98.43,24.1,10.76,43.11,33.34,17.75,21.09,35.01,57.08,16.4,108.74-3.63,10.08-12.98,16.7-23.82,16.86-.13,0-.26,0-.39,0Z"></path>
      <path d="m169.45,358.05c-3.78,0-7.6-.69-11.28-2.09-9.53-3.62-16.55-11.34-19.24-21.17l-29.06-105.97c-3.46-12.63-1.5-26.26,5.39-37.39,6.89-11.13,18.21-18.97,31.05-21.51l36.21-7.15c3.54-.7,6.98,1.61,7.68,5.15.7,3.54-1.61,6.98-5.15,7.68l-36.21,7.15c-9.43,1.86-17.41,7.39-22.46,15.56-5.06,8.17-6.44,17.78-3.9,27.05l29.06,105.97c1.58,5.76,5.69,10.28,11.27,12.4,5.59,2.12,11.66,1.47,16.67-1.79l20.82-13.56c3.03-1.97,7.08-1.12,9.05,1.91,1.97,3.03,1.12,7.08-1.91,9.05l-20.82,13.56c-5.24,3.41-11.17,5.15-17.16,5.15Z"></path>
      <path d="m78.24,380.04c-.13,0-.26,0-.39,0-10.84-.16-20.19-6.78-23.82-16.86-18.61-51.66-1.35-87.65,16.4-108.74,19.01-22.58,42.14-32.91,43.11-33.34,3.31-1.45,7.17.05,8.62,3.36,1.45,3.3-.05,7.16-3.35,8.62-.23.1-21.66,9.75-38.67,30.14-22.35,26.79-26.99,58.93-13.81,95.53,2.15,5.96,7.45,8.15,11.71,8.22,2.02.04,8.77-.43,11.6-7.62,10.75-27.3,31.04-38.9,57.12-32.64,3.51.84,5.68,4.37,4.84,7.89-.84,3.51-4.37,5.68-7.89,4.84-19.78-4.74-33.48,3.34-41.9,24.71-3.82,9.7-13.04,15.91-23.57,15.91Z"></path>
    </g>
    <path d="m297.6,225.87c-.75,0-1.52-.13-2.26-.41-3.39-1.25-5.12-5.01-3.87-8.4,5.66-15.34,6.18-27.8,1.49-36.03-4.98-8.73-14.28-10.53-14.67-10.6-3.56-.59-5.95-3.96-5.35-7.52.59-3.56,3.99-5.96,7.55-5.37.63.11,15.55,2.74,23.7,16.78,6.9,11.89,6.75,27.79-.44,47.28-.98,2.64-3.48,4.28-6.14,4.28Z"></path>
  </g>
</symbol><symbol id="i531_breakfast-6" xmlns="http://www.w3.org/2000/svg" viewBox="0 0 512 512">
  <path d="m250.66,180.35c0,30.31,24.57,54.88,54.88,54.88s54.88-24.57,54.88-54.88-24.57-54.88-54.88-54.88c-30.29.03-54.84,24.58-54.88,54.88Zm54.88-41.16c22.73,0,41.16,18.43,41.16,41.16s-18.43,41.16-41.16,41.16-41.16-18.43-41.16-41.16c.02-22.72,18.44-41.14,41.16-41.16Z"></path>
  <path d="m443.65,186.73c-7.14-10.62-17.9-23.12-32.29-37.5-4-4-7.67-8.38-11.02-13.15-3.35-4.77-6.72-9.95-10.12-15.55-5.14-8.2-10.66-16.7-16.56-25.48-5.91-8.78-13.03-16.8-21.36-24.05-8.33-7.25-18.23-13.23-29.71-17.94-11.48-4.71-25.4-7.07-41.77-7.07-35.54,0-63.26,12.85-83.16,38.54-19.9,25.69-29.7,58.14-29.39,97.35.15,19.29,4.13,35.6,11.93,48.94,7.8,13.34,17.4,24.17,28.8,32.5,11.4,8.33,23.59,14.34,36.57,18.04,12.98,3.7,24.73,5.55,35.25,5.55,8.22,0,14.85,2.03,19.86,6.08,5.02,4.05,10.11,8.83,15.26,14.33,5.54,5.79,12.3,11.37,20.28,16.72,7.98,5.36,19.75,8.04,35.31,8.04,20.91,0,39.94-9.28,57.09-27.83,17.15-18.55,25.73-41.77,25.73-69.67,0-21.29-3.57-37.25-10.71-47.87Zm-24.78,108.5c-14.65,15.85-30.13,23.55-47.32,23.55-15.94,0-23.97-3.14-27.9-5.78-7.13-4.78-13.2-9.77-18.04-14.82-5.53-5.9-11.1-11.13-16.56-15.54-7.42-6-16.92-9.04-28.23-9.04-9.24,0-19.87-1.7-31.61-5.04-11.4-3.25-22.29-8.63-32.37-15.99-9.86-7.21-18.33-16.79-25.16-28.48-6.57-11.25-9.98-25.49-10.11-42.33-.28-35.96,8.67-65.94,26.6-89.1,17.4-22.46,41.16-33.38,72.64-33.38,14.55,0,26.91,2.04,36.72,6.07,10.08,4.14,18.83,9.41,26.03,15.67,7.41,6.45,13.82,13.66,19.05,21.44,5.77,8.58,11.25,17.01,16.28,25.04,3.52,5.8,7.07,11.25,10.56,16.22,3.77,5.37,7.98,10.39,12.5,14.91,13.71,13.71,24.02,25.66,30.65,35.52,5.61,8.33,8.45,21.94,8.45,40.44,0,24.65-7.26,44.48-22.19,60.64Z"></path>
  <path d="m353.75,364.66l-60.06-29.69c-32.84-16.23-63.05-37.31-89.63-62.52l-58.05-55.07c-25.52-18.09-60.86-12.07-78.95,13.44l-.39.56c-18.09,25.52-7.44,64.84,18.07,82.93l26.62,28.45c40.48,43.27,89.51,77.64,143.98,100.94l32.52,13.91c33.61,13.35,60.87,12.07,78.96-13.44l.39-.56c18.09-25.52,12.07-60.87-13.44-78.96Zm2.59,71.26l-.39.55c-7.84,11.07-17.62,16.22-30.75,16.22-9.05,0-19.91-2.48-32.28-7.38l-32.35-13.84c-53.1-22.72-100.04-55.62-139.5-97.8l-27.54-29.44-1.1-.78c-20.71-14.69-27.96-45.97-14.91-64.38l.39-.55c8.12-11.45,21.35-18.28,35.4-18.28,8.7,0,17.07,2.58,24.28,7.48l57.32,54.38c27.57,26.16,58.82,47.96,92.89,64.8l59.06,29.2c9,6.68,14.97,16.41,16.86,27.49,1.94,11.41-.67,22.89-7.37,32.33Z"></path>
  <rect x="165.92" y="276.25" width="37.97" height="15.96" rx="5.12" ry="5.12" transform="translate(492.2 140.87) rotate(98.04)"></rect>
  <rect x="198.65" y="304.52" width="37.97" height="15.96" rx="5.12" ry="5.12" transform="translate(557.49 140.68) rotate(98.04)"></rect>
  <rect x="227.32" y="329.79" width="37.97" height="15.96" rx="5.12" ry="5.12" transform="translate(615.19 141.1) rotate(98.04)"></rect>
  <rect x="262.73" y="341.07" width="37.97" height="15.96" rx="5.12" ry="5.12" transform="translate(666.72 118.89) rotate(98.04)"></rect>
</symbol><symbol id="i531_breakfast-7" xmlns="http://www.w3.org/2000/svg" viewBox="0 0 512 512">
  <path d="m46,363.35h0c0,24.72,20.04,44.77,44.77,44.77h330.47c24.72,0,44.77-20.04,44.77-44.77h0s-420,0-420,0Zm375.23,31.39H90.77c-12.53,0-23.37-7.38-28.4-18.02h387.26c-5.03,10.64-15.87,18.02-28.4,18.02Z"></path>
  <g>
    <path d="m276.38,175.88c1.4-2.25,2.42-4.6,3.08-7.05.66-2.45.98-5.32.98-8.6,0-6.93-2.24-14.1-6.73-21.5-4.48-7.4-6.73-14.28-6.73-20.65,0-1.91.2-4.1.61-6.57.41-2.47,1.51-5.02,3.32-7.62h13.58c-1.45,2.41-2.47,4.89-3.05,7.42-.59,2.53-.88,4.79-.88,6.77,0,6.59,2.24,13.47,6.73,20.65,4.48,7.18,6.73,14.34,6.73,21.5,0,3.28-.35,6.18-1.05,8.71-.7,2.53-1.7,4.84-3.01,6.94h-13.58Z"></path>
    <path d="m363.83,175.88c1.4-2.25,2.42-4.6,3.08-7.05.66-2.45.98-5.32.98-8.6,0-6.93-2.24-14.1-6.73-21.5-4.48-7.4-6.73-14.28-6.73-20.65,0-1.91.2-4.1.61-6.57.41-2.47,1.51-5.02,3.32-7.62h13.58c-1.45,2.41-2.47,4.89-3.05,7.42-.59,2.53-.88,4.79-.88,6.77,0,6.59,2.24,13.47,6.73,20.65,4.48,7.18,6.73,14.34,6.73,21.5,0,3.28-.35,6.18-1.05,8.71-.7,2.53-1.7,4.84-3.01,6.94,0,0-13.58,0-13.58,0Z"></path>
    <path d="m320.11,175.88c1.4-2.25,2.42-4.6,3.08-7.05.66-2.45.98-5.32.98-8.6,0-6.93-2.24-14.1-6.73-21.5-4.48-7.4-6.73-14.28-6.73-20.65,0-1.91.2-4.1.61-6.57.41-2.47,1.51-5.02,3.32-7.62h13.58c-1.45,2.41-2.47,4.89-3.05,7.42-.59,2.53-.88,4.79-.88,6.77,0,6.59,2.24,13.47,6.73,20.65,4.48,7.18,6.73,14.34,6.73,21.5,0,3.28-.35,6.18-1.05,8.71-.7,2.53-1.7,4.84-3.01,6.94,0,0-13.58,0-13.58,0Z"></path>
  </g>
  <path d="m452.63,197.8c-3.81-3.81-8.34-5.72-13.58-5.72h-202.57v78.23l10.56,4.27c1.73.66,3.26,1.51,4.63,2.53v-69.84h144.58v124.2c0,7.72-2.94,14.52-8.82,20.4-5.88,5.88-12.75,8.82-20.61,8.82h-85.74c-.83,0-1.66-.04-2.47-.11-1.1,2.62-2.76,4.99-4.98,7.11-2.66,2.53-5.65,4.28-8.95,5.27,5.04,1.94,10.51,2.92,16.4,2.92,0,0,85.74,0,85.74,0,12.43,0,22.97-4.3,31.62-12.91,8.66-8.61,12.98-19.1,12.98-31.49v-57.53h27.62c5.24,0,9.77-1.91,13.58-5.72s5.72-8.34,5.72-13.58v-43.24c0-5.24-1.91-9.77-5.72-13.58Zm-9.47,56.83c0,1.2-.39,2.19-1.16,2.96-.77.77-1.76,1.16-2.96,1.16h-27.62s0-51.48,0-51.48h27.62c1.2,0,2.19.39,2.96,1.16.77.77,1.16,1.76,1.16,2.96v43.24Z"></path>
  <path d="m258.97,357.42c3.96,2.05,7.29,1.39,10-1.98,2.71-3.37,3.04-6.89.99-10.55l-15.61-29.46-11.87,32.31,16.49,9.67Zm-46.6-9.23h15.39l21.32-53.2c.88-2.05,1.21-4.07.99-6.05-.22-1.98-1.43-3.48-3.63-4.51l-18.25-7.91c-2.05-1.03-4.1-1.03-6.16,0-2.05,1.03-3.15,2.56-3.3,4.62l-6.37,67.05Zm-65.07,0h15.17l-6.16-67.05c-.15-2.2-1.14-3.81-2.97-4.84s-3.99-.95-6.48.22l-17.37,7.47c-1.91.73-2.97,2.38-3.19,4.95s.04,4.87.77,6.92l20.22,52.32Zm-31.22,9.23l16.49-9.67-11.87-32.31-15.61,30.56c-2.05,4.1-1.61,7.44,1.32,10,2.93,2.56,6.16,3.04,9.67,1.43Zm59.57-9.23h23.52l7.25-80.02c.29-2.05-.26-3.77-1.65-5.17-1.39-1.39-3.11-2.09-5.17-2.09h-24.18c-2.34,0-4.1.7-5.28,2.09s-1.69,3.11-1.54,5.17l7.03,80.02Zm-64.41,22.64c-5.72,0-10.55-2.05-14.51-6.16-3.96-4.1-5.94-9.01-5.94-14.73,0-1.76.33-3.48.99-5.17s1.36-3.33,2.09-4.95l20.22-39.35c-2.2-5.72-2.42-11.39-.66-17.04,1.76-5.64,5.28-9.64,10.55-11.98l18.25-7.47c2.34-.88,4.73-1.39,7.14-1.54s4.65.44,6.7,1.76c1.17-4.69,3.52-8.61,7.03-11.76s7.62-4.73,12.31-4.73h24.18c4.69,0,8.79,1.47,12.31,4.4,3.52,2.93,5.86,6.67,7.03,11.21,2.2-.88,4.47-1.25,6.81-1.1,2.34.15,4.62.73,6.81,1.76l18.47,7.47c5.42,2.05,9.05,5.86,10.88,11.43,1.83,5.57,1.5,10.99-.99,16.27l20.22,40.45c.59,1.61,1.25,3.19,1.98,4.73s1.1,3.11,1.1,4.73c0,6.16-2.2,11.32-6.59,15.5-4.4,4.18-9.67,6.27-15.83,6.27-1.61,0-3.11-.33-4.51-.99s-2.82-1.28-4.29-1.87l-13.41-6.59h-104.42l-12.75,6.59c-1.76.73-3.55,1.39-5.39,1.98s-3.77.88-5.83.88Z"></path>
</symbol><symbol id="i531_breakfast-8" xmlns="http://www.w3.org/2000/svg" viewBox="0 0 512 512">
  <path d="m256,46c-115.98,0-210,94.02-210,210s94.02,210,210,210,210-94.02,210-210S371.98,46,256,46Zm0,406.5c-108.35,0-196.5-88.15-196.5-196.5S147.65,59.5,256,59.5s196.5,88.15,196.5,196.5-88.15,196.5-196.5,196.5Z"></path>
  <path d="m325.48,234.35c-49.41,7.79-90.58,28.01-90.58,71.17h0c0,2.39-1.16,4.65-3.11,6.03-19.91,14.02-20.95,27.06-15.61,48.63,6.57,26.53,35.11,38.73,76.54,30.48,1.13-.22,2.29-.17,3.39.13,9.31,2.52,19.21,2.73,29.36-.15,53.79-15.26,76.1-38.48,90.58-78.14,14.8-40.54-44.71-85.37-90.58-78.14Zm77.9,73.51c-12.02,32.94-29.23,54.92-81.58,69.78-3.71,1.05-7.49,1.59-11.23,1.59h0c-4.04,0-8.15-.62-12.21-1.85l-1.55-.47c-1.16-.35-2.38-.4-3.57-.15l-1.58.33c-8.21,1.73-15.97,2.61-23.05,2.61-12.58,0-34.41-2.96-39.32-22.77-2.52-10.19-2.99-16.47-1.55-21.01.99-3.11,3.57-8.07,14.61-15.21l3.09-1.99c2.17-1.4,3.42-3.86,3.27-6.44l-.21-3.67c-.06-1.06-.09-2.1-.09-3.09,0-15.62,6.85-27.97,20.95-37.76,13.49-9.36,33.08-16.12,58.22-20.08,2.56-.4,5.26-.61,8.02-.61,22.47,0,49.12,13.86,61.98,32.25,4.86,6.95,9.81,17.54,5.8,28.54Z"></path>
  <path d="m328.84,273.12c-22.24,0-40.27,18.03-40.27,40.27s18.03,40.27,40.27,40.27,40.27-18.03,40.27-40.27-18.03-40.27-40.27-40.27Zm0,67.03c-14.76,0-26.77-12.01-26.77-26.77s12.01-26.77,26.77-26.77,26.77,12.01,26.77,26.77-12.01,26.77-26.77,26.77Z"></path>
  <path d="m257.42,229.34l-73.03-98.2c-7.52-10.12-22.35-11.83-33.11-3.83-15.19,88.64-14.88,93.2-37.29,208.7h0c7.52,10.12,22.35,11.83,33.11,3.83l104.46-77.68c10.76-8,13.39-22.7,5.86-32.81Zm-13.92,21.98l-104.46,77.68c-2.64,1.96-5.24,2.37-6.96,2.37-1.18,0-2.31-.19-3.34-.56,15.43-79.75,19.45-103.78,26.57-146.33,2.27-13.59,4.82-28.82,8.15-48.35,1.07-.28,2.04-.37,2.83-.37,3,0,5.65,1.25,7.27,3.42l73.03,98.2c3.07,4.13,1.69,10.38-3.09,13.92Z"></path>
  <g>
    <path d="m121.57,296.63c-3.9-12.87-6-26.51-6-40.63,0-31.61,10.5-60.81,28.2-84.31,1.28-7.64,2.68-15.95,4.26-25.29-28.35,27.93-45.96,66.74-45.96,109.59,0,23.46,5.28,45.7,14.71,65.61,1.74-9.03,3.33-17.32,4.8-24.98Z"></path>
    <path d="m296.21,390.55c-12.74,3.81-26.24,5.87-40.21,5.87-45.31,0-85.66-21.57-111.36-54.98-4.5,2.61-9.5,3.71-14.3,3.36,27.91,39.37,73.83,65.12,125.66,65.12,29.95,0,57.92-8.61,81.59-23.46-3.93,1.34-8.04,2.62-12.36,3.85-10.03,2.85-19.82,2.67-29.02.24Z"></path>
    <path d="m256,102.07c-29.21,0-56.55,8.18-79.84,22.37,3.18,1.49,6.03,3.73,8.24,6.7l2.13,2.86c20.5-11.72,44.22-18.43,69.48-18.43,77.43,0,140.43,63,140.43,140.43,0,.63-.02,1.26-.02,1.89,4.92,4.42,9.22,9.26,12.66,14.38.56-5.35.86-10.78.86-16.28,0-84.88-69.05-153.93-153.93-153.93Z"></path>
  </g>
  <rect x="163.86" y="198.8" width="49.25" height="10.23" rx="5.12" ry="5.12" transform="translate(127.21 -66.92) rotate(30)"></rect>
  <rect x="162.76" y="225.22" width="49.25" height="10.23" rx="5.12" ry="5.12" transform="translate(140.27 -62.84) rotate(30)"></rect>
  <rect x="154.88" y="250.01" width="49.25" height="10.23" rx="5.12" ry="5.12" transform="translate(151.61 -55.57) rotate(30)"></rect>
  <g>
    <path d="m373.25,186.67l-14.47-14.97c-22-22.76-48.49-40.7-77.79-52.67l-17.49-7.15c-18.07-6.84-32.62-5.92-42.06,7.87l-.21.3c-9.44,13.79-5.92,32.62,7.87,42.06l32.34,15.34c17.68,8.39,34.01,19.38,48.42,32.62l31.49,28.91c13.79,9.44,32.62,5.92,42.06-7.87l.21-.3c9.44-13.79,3.41-34.7-10.38-44.15Zm-.76,36.52l-.21.31c-3.12,4.55-8.3,7.28-13.84,7.28-3.1,0-6.11-.86-8.75-2.48l-30.68-28.17c-15.43-14.16-32.84-25.9-51.77-34.87l-31.24-14.81c-7.01-5.37-8.67-15.39-3.62-22.76l.22-.32c2.98-4.35,6.3-6.13,11.44-6.13,3.95,0,8.84,1.08,14.53,3.22l17.32,7.08c27.74,11.34,52.37,28.01,73.19,49.55l15.42,15.95,1.13.77c3.98,2.73,7.13,7.44,8.44,12.6,1.23,4.87.65,9.52-1.57,12.77Z"></path>
    <rect x="261.48" y="156.78" width="24.35" height="10.23" rx="5.12" ry="5.12" transform="translate(79.18 413.44) rotate(-82.9)"></rect>
    <rect x="286.71" y="172.55" width="24.35" height="10.23" rx="5.12" ry="5.12" transform="translate(85.63 452.3) rotate(-82.9)"></rect>
    <rect x="311.93" y="194.77" width="24.35" height="10.23" rx="5.12" ry="5.12" transform="translate(85.69 496.8) rotate(-82.9)"></rect>
  </g>
</symbol><symbol id="i531_breakfast-9" xmlns="http://www.w3.org/2000/svg" viewBox="0 0 512 512">
  <path d="m256,46c-115.98,0-210,94.02-210,210s94.02,210,210,210,210-94.02,210-210S371.98,46,256,46Zm0,406.5c-108.35,0-196.5-88.15-196.5-196.5S147.65,59.5,256,59.5s196.5,88.15,196.5,196.5-88.15,196.5-196.5,196.5Z"></path>
  <path d="m299.7,267.61c-20.65,0-37.39,16.74-37.39,37.39s16.74,37.39,37.39,37.39,37.39-16.74,37.39-37.39-16.74-37.39-37.39-37.39Zm0,61.28c-13.17,0-23.89-10.72-23.89-23.89s10.72-23.89,23.89-23.89,23.89,10.72,23.89,23.89-10.72,23.89-23.89,23.89Z"></path>
  <g>
    <path d="m364.93,148.87l-17.82-10.76c-27.1-16.36-57.3-26.92-88.69-30.98l-18.74-2.43c-19.22-1.98-33.05,2.64-38.64,18.38l-.12.34c-5.59,15.75,2.64,33.05,18.38,38.64l35.19,6.54c19.24,3.58,37.84,10.02,55.16,19.13l37.85,19.88c15.75,5.59,33.05-2.64,38.64-18.38l.12-.34c5.59-15.75-5.59-34.42-21.34-40.01Zm8.62,35.5l-.13.36c-1.85,5.2-6.16,9.16-11.52,10.58-3,.79-6.12.74-9.09-.16l-36.87-19.37c-18.54-9.74-38.38-16.62-58.97-20.45l-33.99-6.32c-8.15-3.4-12.32-12.65-9.33-21.07l.13-.37c1.77-4.97,4.52-7.54,9.49-8.86,3.82-1.01,8.82-1.22,14.87-.61l18.56,2.41c29.72,3.85,57.79,13.66,83.44,29.15l18.99,11.47,1.29.46c4.54,1.62,8.8,5.36,11.38,10.02,2.43,4.39,3.07,9.04,1.75,12.75Z"></path>
    <rect x="250.14" y="145.31" width="24.35" height="10.23" rx="5.12" ry="5.12" transform="translate(148.59 430.61) rotate(-97.74)"></rect>
    <rect x="278.56" y="154.1" width="24.35" height="10.23" rx="5.12" ry="5.12" transform="translate(172.13 468.75) rotate(-97.74)"></rect>
    <rect x="308.64" y="169.12" width="24.35" height="10.23" rx="5.12" ry="5.12" transform="translate(191.38 515.59) rotate(-97.74)"></rect>
  </g>
  <rect x="208.05" y="185.46" width="24.35" height="10.23" rx="5.12" ry="5.12" transform="translate(69.34 439.68) rotate(-99.67)"></rect>
  <rect x="236.75" y="193.29" width="24.35" height="10.23" rx="5.12" ry="5.12" transform="translate(95.15 477.12) rotate(-99.67)"></rect>
  <rect x="267.31" y="207.29" width="24.35" height="10.23" rx="5.12" ry="5.12" transform="translate(117.05 523.6) rotate(-99.67)"></rect>
  <path d="m268.8,226.27l3.39,1.64c5.1-3.41,11.25-5.3,19.18-5.73l-16.69-8.07c-18.86-9.11-38.92-15.32-59.63-18.45l-34.19-5.17c-8.26-3.12-12.74-12.23-10.03-20.75l.12-.37c1.6-5.02,4.26-7.69,9.19-9.17,3.78-1.14,8.77-1.51,14.84-1.11l18.63,1.78c29.83,2.85,58.22,11.71,84.38,26.33l19.37,10.82,1.3.41c4.6,1.46,8.98,5.06,11.71,9.63,2.58,4.31,3.37,8.93,2.18,12.68l-.11.36c-1.07,3.37-3.17,6.26-5.93,8.32,3.66,2.26,7.15,5.14,10.52,8.78,3.72-3.44,6.63-7.86,8.28-13.03l.11-.35c5.06-15.93-6.75-34.21-22.67-39.27l-18.17-10.16c-27.63-15.44-58.17-24.97-89.68-27.98l-18.81-1.8c-19.28-1.33-32.94,3.75-38,19.67l-.11.35c-5.06,15.93,3.75,32.94,19.67,38l35.39,5.35c19.35,2.93,38.15,8.74,55.78,17.26Z"></path>
  <path d="m362.37,256.84c-5.51-7.65-19.02-25.87-43.62-32.97-28.62-8.26-52.09,4.35-61.34,9.32-9.43,5.07-21.99,11.82-27.26,25.8-3.18,8.45-3.34,18.56-3.41,22.93-.24,15.18,3.54,19.68,0,26.52-2.56,4.95-5.81,5.05-17.04,12.18-12.35,7.84-18.53,11.76-21.81,17.2-8.31,13.79-2.57,40.4,11.59,48.74,10.26,6.04,18.31-1.42,41.57-3.58,24.72-2.3,31.68,4.63,49.75,5.02,33.61.71,80.26-21.75,89.96-60.92,8.23-33.24-13.77-63.81-18.4-70.24Zm5.3,66.99c-8.19,33.07-48.99,50.68-75.3,50.68h0c-.43,0-.85,0-1.27-.01-5.99-.13-10.53-1.15-15.79-2.33-6.6-1.48-14.07-3.16-24.73-3.16-3.45,0-6.97.17-10.76.52-10.09.94-17.73,2.81-23.31,4.17-3.65.89-6.8,1.66-8.62,1.66-.56,0-.86-.04-1.54-.44-3.18-1.87-6.21-6.96-7.73-12.97-1.94-7.66-.97-14.13.86-17.16,1.64-2.72,7.94-6.72,17.48-12.77,3.37-2.14,5.99-3.61,8.09-4.79,5.21-2.92,10.12-5.67,13.7-12.59,4.02-7.77,3.14-14.35,2.36-20.17-.44-3.3-.94-7.03-.86-12.35.06-3.64.19-12.14,2.54-18.38,3.49-9.25,12.8-14.25,21.02-18.67,6.31-3.39,19.44-10.45,35.67-10.45,5.24,0,10.46.74,15.54,2.21,20.62,5.95,32.09,21.89,36.4,27.88,14.82,20.59,20.6,41.58,16.25,59.1Z"></path>
  <g>
    <path d="m113.61,274.05c-3.79-.08-7.39-.7-10.67-1.79.86,8.12,2.34,16.05,4.41,23.74,1.84-3.3,4.37-6.43,7.51-9.17-1.19-2.55-1.84-5.3-1.84-8.17,0-1.58.21-3.12.58-4.61Z"></path>
    <path d="m256,102.07c-70.6,0-130.24,47.78-148.31,112.69,3.83-4.95,10.04-8.16,17.23-9.14,20.29-52.62,71.39-90.05,131.08-90.05,77.43,0,140.43,63,140.43,140.43s-63,140.43-140.43,140.43c-51.34,0-96.32-27.69-120.81-68.92-5.49,1.2-10.86,1.09-15.57-.19,25.76,49.07,77.22,82.61,136.38,82.61,84.88,0,153.93-69.05,153.93-153.93s-69.05-153.93-153.93-153.93Z"></path>
  </g>
  <g>
    <path d="m211.19,258.42c-4.35-3.02-9.66-3.92-15.21-3-3.37-7.74-10.91-14.65-20.89-18.12-16.24-5.64-32.78,0-36.93,12.6-.56,1.69-.86,3.43-.93,5.17-16.76.34-30.22,10.98-30.22,24.07,0,2.87.65,5.62,1.84,8.17-9.37,8.16-13.44,19.8-9.22,29.21,5.17,11.54,20.92,15.55,35.9,9.49,1.92,5.95,5.65,10.68,10.92,13.05,10.16,4.56,22.75-1.19,30.48-13.04,11.37,1.52,25.37-6.23,34.68-20.33,11.75-17.8,11.56-38.97-.41-47.28Zm-10.86,39.85c-6.55,9.93-15.23,14.46-20.52,14.46-.38,0-.75-.02-1.1-.07l-8.45-1.13-4.65,7.14c-3.82,5.85-8.67,8.47-11.79,8.47-.68,0-1.29-.12-1.85-.38-2.05-.92-3.13-3.45-3.6-4.88l-4.46-13.81-13.45,5.44c-2.94,1.19-6.02,1.82-8.88,1.82-3.72,0-8.2-1.14-9.63-4.32-1.58-3.54.84-9.22,5.77-13.51l7.66-6.67-4.28-9.21c-.39-.83-.58-1.65-.58-2.48,0-4.83,6.98-10.36,16.99-10.57l12.68-.26.53-12.67c.02-.55.11-1.05.26-1.51,1.09-3.3,5.69-5.52,11.46-5.52,2.71,0,5.47.48,8.23,1.44,5.99,2.08,10.95,6.2,12.94,10.76l4.21,9.64,10.38-1.72c.65-.11,1.28-.16,1.87-.16,1.41,0,2.53.3,3.43.93,4.42,3.07,5.39,15.8-3.16,28.76Z"></path>
    <path d="m122.54,293.31l2.83-2.47-4.28-9.21c-.39-.83-.58-1.65-.58-2.48,0-2.3,1.59-4.74,4.31-6.71v-12.51s-14.48,1.05-14.48,1.05c-.64.05-1.29.07-1.92.07-7.74,0-14.44-3.65-14.93-8.13-.42-3.85,3.63-8.52,9.64-11.09l9.34-4-1.25-10.08c-.11-.91-.04-1.74.21-2.53,1.13-3.49,6.14-5.93,12.18-5.93,2.38,0,4.82.37,7.23,1.09l12.16,3.65,4.39-11.91c.19-.51.42-.96.71-1.35,1.71-2.34,5.04-2.69,6.87-2.69,4.24,0,9.02,1.77,13.11,4.85,5.07,3.82,8.52,9.27,9.01,14.21l1.04,10.47,10.41,1.55c2.25.33,3.87,1.13,4.81,2.36,2.9,3.8.85,14.01-8.12,23.05l2.57,5.89,10.38-1.72c.48-.08.94-.12,1.38-.14,9.11-12.12,11.38-26.28,4.53-35.26-3.21-4.21-7.99-6.69-13.56-7.52-.83-8.4-5.89-17.3-14.32-23.65-13.73-10.35-31.19-10.06-39.02.66-1.05,1.44-1.87,3-2.47,4.64-16.06-4.82-32.13,1.17-36.15,13.63-.88,2.73-1.11,5.55-.76,8.34-11.42,4.89-18.87,14.72-17.74,24.97,1.38,12.57,15.14,21.23,31.25,20.06,0,6.25,2.09,11.9,6.38,15.77,1.45,1.31,3.08,2.33,4.83,3.09Z"></path>
  </g>
  <path d="m149.36,286.15c-.45-1.79,1.83-6.17,20.61-11.31,21.59-5.91,42.77-6.51,42.77-6.51h0s1.46,3.98,1.25,5.49c-.72,5.1-23.05-1.31-40.59,9.6-9.53,5.93-12.84,9.11-18.73,12.34-3.15,1.73-4.35-5.81-5.31-9.6Z"></path>
  <path d="m125.74,236.34c-.17-1.55,2.52-4.86,20.38-6.33,20.54-1.68,39.98.99,39.98.99h0s.79,3.53.39,4.75c-1.35,4.14-20.89-4.55-38.41,1.9-9.52,3.5-12.98,5.65-18.81,7.46-3.12.97-3.18-5.49-3.54-8.79Z"></path>
  <path d="m178.42,274.27c-.08,4.16-.42,10.39-4.23,17.08-2.78,4.88-4.89,1.51-3.72,4.12,2.8,6.26,1.71,5.46,3.36,6.21,2,.92,2.13-3.61,4.57-8.75,3.33-7,3.66-9.56,3.31-13.85-.16-2.06-3.26-6.29-3.29-4.82Z"></path>
  <path d="m178.02,234.51c-3.59-2.73-9.19-6.7-19.01-8.97-7.16-1.65-6.65,1.82-7.56-.6-2.18-5.81-2.71-4.64-1.53-6.1,1.43-1.77,5.37,1.18,12.38,3.2,9.54,2.75,12.05,4.27,15.28,7.34,1.55,1.47,1.7,6.09.43,5.13Z"></path>
  <path d="m165.97,284.04c-3.23-2.4-8.19-5.85-15.5-6.88-5.33-.75-3.96,2.88-5.29.43-3.18-5.88-3.2-4.56-2.83-6.29.45-2.09,3.99.5,9.32,1.67,7.27,1.59,9.41,2.85,12.5,5.67,1.48,1.35,2.94,6.25,1.8,5.4Z"></path>
</symbol>
</svg>