<svg xmlns="http://www.w3.org/2000/svg" style="display: none;">

<symbol id="i532_breakfast-1" xmlns="http://www.w3.org/2000/svg" viewBox="0 0 512 512">
  <path d="m104.29,333.4h-53.87c-6.02,0-10.92-4.9-10.92-10.92V84.85c0-6.02,4.9-10.92,10.92-10.92h53.87c6.02,0,10.92,4.9,10.92,10.92v237.63c0,6.02-4.9,10.92-10.92,10.92Zm-51.79-13h49.71V86.93h-49.71v233.47Z"></path>
  <path d="m104.29,459.4h-53.87c-6.02,0-10.92-4.9-10.92-10.92v-66.93c0-6.02,4.9-10.92,10.92-10.92h53.87c6.02,0,10.92,4.9,10.92,10.92v66.93c0,6.02-4.9,10.92-10.92,10.92Zm-51.79-13h49.71v-62.77h-49.71v62.77Z"></path>
  <path d="m215.98,401.77h-53.87c-6.02,0-10.92-4.9-10.92-10.92v-66.93c0-6.02,4.9-10.92,10.92-10.92h53.87c6.02,0,10.92,4.9,10.92,10.92v66.93c0,6.02-4.9,10.92-10.92,10.92Zm-51.79-13h49.71v-62.77h-49.71v62.77Z"></path>
  <path d="m229.7,235.86h-53.87c-6.02,0-10.92-4.9-10.92-10.92V84.85c0-6.02,4.9-10.92,10.92-10.92h53.87c6.02,0,10.92,4.9,10.92,10.92v140.09c0,6.02-4.9,10.92-10.92,10.92Zm-51.79-13h49.71V86.93h-49.71v135.93Z"></path>
  <path d="m166.99,257.2h-53.87c-6.02,0-10.92-4.9-10.92-10.92V63.52c0-6.02,4.9-10.92,10.92-10.92h53.87c6.02,0,10.92,4.9,10.92,10.92v182.76c0,6.02-4.9,10.92-10.92,10.92Zm-51.79-13h49.71V65.6h-49.71v178.6Z"></path>
  <path d="m462.34,184.26h-234.72v-58.72h234.72c5.6,0,10.16,4.56,10.16,10.16v38.4c0,5.6-4.56,10.16-10.16,10.16Zm-221.72-13h218.88v-32.72h-218.88v32.72Z"></path>
</symbol><symbol id="i532_breakfast-10" xmlns="http://www.w3.org/2000/svg" viewBox="0 0 512 512">
  <path d="m420.57,400.38h-189.14c-21.06,0-39.32-12.02-47.63-31.38-8.28-19.26-4.51-40.67,9.83-55.93l94.4-118.62c.12-.15.24-.29.37-.43,9.89-10.42,23.24-16.16,37.6-16.16s27.72,5.74,37.6,16.16c.13.14.25.28.37.43l94.4,118.62c14.33,15.27,18.1,36.67,9.83,55.93-8.31,19.35-26.57,31.38-47.63,31.38Zm-122.55-197.61l-94.39,118.61c-.12.15-.24.29-.37.43-10.86,11.45-13.74,27.57-7.51,42.07,6.23,14.5,19.9,23.51,35.69,23.51h189.14c15.78,0,29.46-9.01,35.69-23.51,6.23-14.5,3.35-30.62-7.51-42.07-.13-.14-.25-.28-.37-.43l-94.39-118.61c-7.39-7.68-17.31-11.91-27.98-11.91s-20.6,4.23-27.98,11.91Zm-99.47,114.56h0,0Z"></path>
  <path d="m377.39,400.38h-102.77c-3.59,0-6.5-2.91-6.5-6.5v-67.15c0-5.52,4.49-10.01,10.01-10.01h95.75c5.52,0,10.01,4.49,10.01,10.01v67.15c0,3.59-2.91,6.5-6.5,6.5Zm-96.27-13h89.77v-57.66h-89.77v57.66Z"></path>
  <path d="m191.22,334.14h-99.79c-21.06,0-39.32-12.02-47.63-31.38-8.28-19.26-4.51-40.67,9.83-55.93l94.4-118.62c.12-.15.24-.29.37-.43,9.89-10.42,23.24-16.16,37.6-16.16s27.72,5.74,37.6,16.16c.13.14.25.28.37.43l63.47,79.75c2.24,2.81,1.77,6.9-1.04,9.13-2.81,2.24-6.9,1.77-9.13-1.04l-63.28-79.52c-7.39-7.68-17.31-11.91-27.98-11.91s-20.6,4.23-27.99,11.91l-94.39,118.61c-.12.15-.24.29-.37.43-10.86,11.45-13.74,27.57-7.51,42.07,6.23,14.5,19.9,23.51,35.69,23.51h99.79c3.59,0,6.5,2.91,6.5,6.5s-2.91,6.5-6.5,6.5Z"></path>
  <path d="m191.22,334.14h-56.61c-3.59,0-6.5-2.91-6.5-6.5v-52.11c0-13.81,11.24-25.05,25.05-25.05h65.67c10.83,0,20.39,6.9,23.79,17.18,1.13,3.41-.72,7.09-4.13,8.21-3.41,1.13-7.08-.72-8.21-4.13-1.63-4.94-6.23-8.26-11.44-8.26h-65.67c-6.65,0-12.05,5.41-12.05,12.05v45.61h50.11c3.59,0,6.5,2.91,6.5,6.5s-2.91,6.5-6.5,6.5Z"></path>
</symbol><symbol id="i532_breakfast-11" xmlns="http://www.w3.org/2000/svg" viewBox="0 0 512 512">
  <path d="m152.64,276.99H63.83c-10.07,0-18.94-6.78-22.06-16.87-1.51-4.87-2.27-9.85-2.27-14.82,0-25.81,19.97-49.69,56.24-67.23,34.77-16.81,80.85-26.07,129.75-26.07s94.99,9.26,129.75,26.07c36.27,17.54,56.24,41.41,56.24,67.23,0,4.96-.76,9.95-2.27,14.82-.5,1.63-1.18,3.21-1.99,4.7-1.73,3.14-5.69,4.29-8.83,2.56-3.14-1.73-4.29-5.68-2.56-8.83.39-.71.72-1.48.96-2.27,1.12-3.62,1.69-7.31,1.69-10.97,0-20.56-17.37-40.27-48.9-55.52-33.04-15.98-77.11-24.77-124.09-24.77s-91.06,8.8-124.09,24.77c-31.54,15.25-48.9,34.97-48.9,55.52,0,3.66.57,7.35,1.69,10.97,1.43,4.61,5.3,7.71,9.64,7.71h88.81c3.59,0,6.5,2.91,6.5,6.5s-2.91,6.5-6.5,6.5Z"></path>
  <path d="m164.23,223.98c-7.21,0-14.27-3.55-18.44-10.06l-24.18-37.7c-1.94-3.02-1.06-7.04,1.96-8.98,3.02-1.94,7.04-1.06,8.98,1.96l24.18,37.7c2.64,4.12,8.14,5.32,12.25,2.68,1.99-1.28,3.37-3.26,3.88-5.57.51-2.31.08-4.69-1.2-6.68l-18.64-29.05c-1.94-3.02-1.06-7.04,1.96-8.98,3.02-1.94,7.04-1.06,8.98,1.96l18.64,29.05c6.51,10.15,3.55,23.71-6.6,30.22-3.65,2.34-7.73,3.46-11.77,3.46Z"></path>
  <path d="m237.95,223.98c-7.21,0-14.27-3.55-18.44-10.06l-32.36-50.45c-1.94-3.02-1.06-7.04,1.96-8.98,3.02-1.94,7.04-1.06,8.98,1.96l32.36,50.45c2.64,4.12,8.14,5.32,12.25,2.68,1.99-1.28,3.37-3.26,3.88-5.57.51-2.31.08-4.69-1.2-6.68l-22.64-35.29c-1.94-3.02-1.06-7.04,1.96-8.98,3.02-1.94,7.04-1.06,8.98,1.96l22.64,35.29c3.15,4.92,4.2,10.77,2.96,16.47-1.25,5.71-4.64,10.59-9.56,13.74-3.65,2.34-7.73,3.46-11.77,3.46Z"></path>
  <path d="m311.67,223.98c-7.21,0-14.27-3.55-18.44-10.06l-31.8-49.58c-1.94-3.02-1.06-7.04,1.96-8.98,3.02-1.94,7.04-1.06,8.98,1.96l31.8,49.58c2.64,4.12,8.14,5.32,12.25,2.68,1.99-1.28,3.37-3.26,3.88-5.57.51-2.31.08-4.69-1.2-6.68l-16.4-25.57c-1.94-3.02-1.06-7.04,1.96-8.98,3.02-1.94,7.04-1.06,8.98,1.96l16.4,25.57c3.15,4.92,4.2,10.77,2.96,16.48-1.25,5.71-4.64,10.59-9.56,13.74-3.65,2.34-7.73,3.46-11.77,3.46Z"></path>
  <path d="m448.17,359.99H124.84c-10.07,0-18.94-6.78-22.06-16.87-1.51-4.87-2.27-9.85-2.27-14.82,0-25.81,19.97-49.69,56.24-67.23,34.77-16.81,80.85-26.07,129.75-26.07s94.99,9.26,129.75,26.07c36.27,17.54,56.24,41.41,56.24,67.23,0,4.96-.76,9.95-2.27,14.82-3.12,10.09-11.99,16.87-22.06,16.87Zm-161.66-111.98c-46.98,0-91.06,8.8-124.09,24.77-31.54,15.25-48.9,34.97-48.9,55.52,0,3.66.57,7.35,1.69,10.97,1.43,4.61,5.3,7.71,9.64,7.71h323.33c4.34,0,8.21-3.1,9.64-7.71,1.12-3.62,1.69-7.31,1.69-10.97,0-20.56-17.37-40.27-48.9-55.52-33.04-15.98-77.11-24.77-124.09-24.77Z"></path>
  <path d="m225.23,306.98c-7.21,0-14.27-3.55-18.44-10.06l-24.18-37.7c-1.94-3.02-1.06-7.04,1.96-8.98,3.02-1.94,7.04-1.06,8.98,1.96l24.18,37.7c2.64,4.12,8.14,5.32,12.25,2.68,1.99-1.28,3.37-3.26,3.88-5.57.51-2.31.08-4.69-1.2-6.68l-18.64-29.05c-1.94-3.02-1.06-7.04,1.96-8.98,3.02-1.94,7.04-1.06,8.98,1.96l18.64,29.05c3.15,4.92,4.2,10.77,2.96,16.47-1.25,5.71-4.64,10.59-9.56,13.74-3.65,2.34-7.73,3.46-11.77,3.46Z"></path>
  <path d="m298.95,306.98c-7.21,0-14.27-3.55-18.44-10.06l-32.36-50.45c-1.94-3.02-1.06-7.04,1.96-8.98,3.02-1.94,7.04-1.06,8.98,1.96l32.36,50.45c2.64,4.12,8.14,5.32,12.25,2.68,1.99-1.28,3.37-3.26,3.88-5.57.51-2.31.08-4.69-1.2-6.68l-22.64-35.29c-1.94-3.02-1.06-7.04,1.96-8.98,3.02-1.94,7.04-1.06,8.98,1.96l22.64,35.29c3.15,4.92,4.2,10.77,2.96,16.48-1.25,5.71-4.64,10.59-9.56,13.74-3.65,2.34-7.73,3.46-11.77,3.46Z"></path>
  <path d="m372.68,306.98c-7.21,0-14.27-3.55-18.44-10.06l-31.8-49.58c-1.94-3.02-1.06-7.04,1.96-8.98,3.02-1.94,7.04-1.06,8.98,1.96l31.8,49.58c2.64,4.12,8.14,5.32,12.25,2.68,1.99-1.28,3.37-3.26,3.88-5.57.51-2.31.08-4.69-1.2-6.68l-16.4-25.57c-1.94-3.02-1.06-7.04,1.96-8.98,3.02-1.94,7.04-1.06,8.98,1.96l16.4,25.57c6.51,10.15,3.55,23.71-6.6,30.22-3.65,2.34-7.73,3.46-11.77,3.46Z"></path>
</symbol><symbol id="i532_breakfast-12" xmlns="http://www.w3.org/2000/svg" viewBox="0 0 512 512">
  <path d="m221.11,374.99H71.42c-2.3,0-4.43-1.22-5.6-3.2-20.51-34.77-8.89-60.96,1.35-84.07,10.79-24.34,20.11-45.36-1.14-76.84-.07-.11-.14-.22-.21-.33-19.98-33.87-7.4-58.51,3.7-80.24,12.44-24.35,23.17-45.38-3.29-80.39-1.49-1.97-1.73-4.61-.63-6.82,1.1-2.21,3.35-3.6,5.82-3.6h149.69c2.04,0,3.96.96,5.19,2.58,31.37,41.51,17.09,69.47,4.49,94.14-10.94,21.42-20.39,39.93-4.18,67.56,25.13,37.36,12.91,64.91,2.14,89.21-10.27,23.17-19.15,43.19-2.04,72.19,1.19,2.01,1.2,4.5.05,6.53-1.16,2.03-3.31,3.28-5.64,3.28Zm-145.89-13h135.24c-13.23-29.98-2.85-53.38,6.41-74.27,10.79-24.34,20.11-45.36-1.14-76.84-.07-.11-.14-.22-.21-.33-19.98-33.87-7.4-58.51,3.7-80.24,12.13-23.74,22.64-44.33-1.38-77.81H83.72c21.81,35.87,8.89,61.17-2.62,83.72-10.94,21.42-20.39,39.93-4.18,67.56,25.13,37.36,12.91,64.91,2.14,89.21-9.89,22.31-18.49,41.69-3.84,69Z"></path>
  <path d="m114.35,374.99c-2.23,0-4.39-1.14-5.6-3.2-20.51-34.77-8.89-60.96,1.35-84.07,10.79-24.34,20.11-45.36-1.14-76.84l-.21-.33c-19.98-33.87-7.4-58.51,3.7-80.24,12.44-24.35,23.17-45.38-3.29-80.39-2.16-2.86-1.6-6.94,1.27-9.1s6.94-1.6,9.1,1.27c31.37,41.51,17.09,69.47,4.49,94.14-10.94,21.42-20.39,39.93-4.18,67.56,25.13,37.36,12.91,64.91,2.14,89.21-10.27,23.17-19.15,43.19-2.04,72.19,1.82,3.09.8,7.08-2.3,8.9-1.04.61-2.17.9-3.3.9Z"></path>
  <path d="m178.19,374.99c-2.23,0-4.39-1.14-5.6-3.2-20.51-34.77-8.89-60.96,1.35-84.07,10.79-24.34,20.11-45.36-1.14-76.84l-.21-.33c-19.98-33.87-7.4-58.51,3.7-80.24,12.43-24.35,23.17-45.38-3.29-80.39-2.16-2.86-1.6-6.94,1.27-9.1s6.94-1.6,9.1,1.27c31.37,41.51,17.09,69.47,4.49,94.14-10.94,21.42-20.39,39.93-4.18,67.56,25.13,37.36,12.91,64.91,2.14,89.21-10.27,23.17-19.15,43.19-2.04,72.19,1.82,3.09.8,7.08-2.3,8.9-1.04.61-2.17.9-3.3.9Z"></path>
  <path d="m433.44,472.5h-149.69c-2.3,0-4.43-1.22-5.6-3.2-20.51-34.77-8.9-60.96,1.35-84.07,10.79-24.34,20.11-45.36-1.14-76.84-.07-.11-.14-.22-.21-.33-19.98-33.87-7.4-58.51,3.7-80.24,12.43-24.35,23.17-45.38-3.29-80.39-1.49-1.97-1.73-4.61-.63-6.82,1.1-2.21,3.35-3.6,5.82-3.6h149.69c2.04,0,3.96.96,5.19,2.58,31.37,41.51,17.09,69.47,4.49,94.14-10.94,21.42-20.39,39.93-4.18,67.56,25.13,37.36,12.91,64.91,2.14,89.21-10.27,23.17-19.15,43.19-2.04,72.19,1.19,2.01,1.2,4.5.05,6.53-1.16,2.03-3.31,3.28-5.64,3.28Zm-145.89-13h135.24c-13.23-29.98-2.85-53.38,6.41-74.27,10.79-24.34,20.11-45.36-1.14-76.84-.07-.11-.14-.22-.21-.33-19.98-33.87-7.4-58.51,3.7-80.24,12.13-23.74,22.64-44.33-1.38-77.81h-134.11c21.81,35.87,8.89,61.17-2.62,83.72-10.94,21.42-20.39,39.93-4.18,67.56,25.13,37.36,12.91,64.91,2.14,89.21-9.89,22.31-18.49,41.69-3.84,69Z"></path>
  <path d="m326.68,472.5c-2.23,0-4.39-1.14-5.6-3.2-20.51-34.77-8.89-60.96,1.35-84.07,10.79-24.34,20.11-45.36-1.14-76.84l-.21-.33c-19.98-33.87-7.4-58.51,3.7-80.24,12.44-24.35,23.17-45.38-3.29-80.39-2.16-2.86-1.6-6.94,1.27-9.1,2.86-2.16,6.94-1.6,9.1,1.27,31.37,41.51,17.09,69.47,4.49,94.14-10.94,21.42-20.39,39.93-4.18,67.56,25.13,37.36,12.91,64.91,2.14,89.21-10.27,23.17-19.15,43.19-2.04,72.19,1.82,3.09.8,7.08-2.3,8.9-1.04.61-2.17.9-3.3.9Z"></path>
  <path d="m390.51,472.5c-2.23,0-4.39-1.14-5.6-3.2-20.51-34.77-8.9-60.96,1.35-84.07,10.79-24.34,20.11-45.36-1.14-76.84l-.21-.33c-19.98-33.87-7.4-58.51,3.7-80.24,12.44-24.35,23.17-45.38-3.29-80.39-2.16-2.86-1.6-6.94,1.27-9.1,2.86-2.16,6.94-1.6,9.1,1.27,31.37,41.51,17.09,69.47,4.49,94.14-10.94,21.42-20.39,39.93-4.18,67.56,25.13,37.36,12.91,64.91,2.14,89.21-10.27,23.17-19.15,43.19-2.04,72.19,1.82,3.09.8,7.08-2.3,8.9-1.04.61-2.17.9-3.3.9Z"></path>
</symbol><symbol id="i532_breakfast-13" xmlns="http://www.w3.org/2000/svg" viewBox="0 0 512 512">
  <path d="m297.87,472.5h-83.73c-25.89,0-47.48-19.42-50.2-45.17l-29.82-281.79c-.19-1.83.4-3.66,1.63-5.03s2.99-2.15,4.83-2.15h230.85c1.84,0,3.6.78,4.83,2.15s1.83,3.2,1.63,5.03l-29.82,281.79c-2.73,25.75-24.31,45.17-50.2,45.17ZM147.8,151.36l29.06,274.61c2.02,19.12,18.05,33.54,37.27,33.54h83.73c19.23,0,35.25-14.42,37.27-33.54l29.06-274.61h-216.4Z"></path>
  <path d="m387.07,151.36H124.93c-4.99,0-9.06-4.06-9.06-9.06v-48.04c0-5,4.06-9.06,9.06-9.06h262.14c4.99,0,9.06,4.06,9.06,9.06v48.04c0,4.99-4.06,9.06-9.06,9.06Zm-258.2-13h254.26v-40.16h-254.26v40.16Zm258.2-40.16h0,0Z"></path>
  <path d="m358.68,98.2h-205.36c-3.59,0-6.5-2.91-6.5-6.5v-43.37c0-4.87,3.96-8.83,8.83-8.83h200.7c4.87,0,8.83,3.96,8.83,8.83v43.37c0,3.59-2.91,6.5-6.5,6.5Zm-198.86-13h192.36v-32.7h-192.36v32.7Z"></path>
  <path d="m227.45,346.52c-25.4,0-46.07-27.26-46.07-60.77s20.67-60.77,46.07-60.77c21.93,0,40.93,20.51,45.18,48.77.53,3.55-1.91,6.86-5.46,7.4-3.55.53-6.86-1.91-7.4-5.46-3.29-21.85-16.88-37.71-32.33-37.71-18.24,0-33.07,21.43-33.07,47.77s14.84,47.77,33.07,47.77c8.83,0,15.43-5.02,19.41-9.22,2.47-2.61,6.58-2.72,9.19-.25,2.61,2.47,2.72,6.58.25,9.19-8.11,8.57-18.35,13.29-28.85,13.29Z"></path>
  <path d="m227.45,346.52c-3.59,0-6.5-2.91-6.5-6.5v-108.54c0-3.59,2.91-6.5,6.5-6.5s6.5,2.91,6.5,6.5v108.54c0,3.59-2.91,6.5-6.5,6.5Z"></path>
  <path d="m273.79,346.43c-8.78,0-16.91-2.79-23.05-8.59-15.58-14.7-12.59-43.25,6.65-63.65,9.07-9.61,20.42-16.09,31.95-18.24,12.29-2.29,23.37.52,31.2,7.91,7.83,7.39,11.28,18.29,9.7,30.69-1.48,11.64-7.29,23.35-16.36,32.96-11.65,12.35-26.64,18.92-40.1,18.92Zm23.65-78.25c-1.83,0-3.74.18-5.71.55-8.85,1.65-17.69,6.76-24.88,14.38-14.08,14.93-17.38,35.66-7.19,45.27,10.19,9.62,30.7,5.13,44.78-9.8,7.19-7.62,11.78-16.74,12.92-25.67,1.04-8.17-1-15.13-5.73-19.6-3.58-3.38-8.5-5.13-14.19-5.13Z"></path>
  <path d="m255.2,339.62c-1.6,0-3.2-.59-4.46-1.77-2.61-2.46-2.73-6.58-.27-9.19l60.89-64.52c2.46-2.61,6.58-2.73,9.19-.27,2.61,2.46,2.73,6.58.27,9.19l-60.89,64.52c-1.28,1.36-3,2.04-4.73,2.04Z"></path>
  <path d="m341.6,433.15h-171.21c-3.59,0-6.5-2.91-6.5-6.5s2.91-6.5,6.5-6.5h171.21c3.59,0,6.5,2.91,6.5,6.5s-2.91,6.5-6.5,6.5Z"></path>
  <path d="m365.73,206.5h-219.46c-3.59,0-6.5-2.91-6.5-6.5s2.91-6.5,6.5-6.5h219.46c3.59,0,6.5,2.91,6.5,6.5s-2.91,6.5-6.5,6.5Z"></path>
  <path d="m347.44,378.01h-182.88c-3.59,0-6.5-2.91-6.5-6.5s2.91-6.5,6.5-6.5h182.88c3.59,0,6.5,2.91,6.5,6.5s-2.91,6.5-6.5,6.5Z"></path>
</symbol><symbol id="i532_breakfast-14" xmlns="http://www.w3.org/2000/svg" viewBox="0 0 512 512">
  <path d="m398.32,237.83h-175.64c-3.59,0-6.5-2.91-6.5-6.5s2.91-6.5,6.5-6.5h175.64c15.07,0,27.33-12.26,27.33-27.33s-12.26-27.33-27.33-27.33H113.68c-15.07,0-27.33,12.26-27.33,27.33s12.26,27.33,27.33,27.33h7.75c3.59,0,6.5,2.91,6.5,6.5s-2.91,6.5-6.5,6.5h-7.75c-22.24,0-40.33-18.09-40.33-40.33s18.09-40.33,40.33-40.33h284.65c22.24,0,40.33,18.09,40.33,40.33s-18.09,40.33-40.33,40.33Z"></path>
  <path d="m398.32,305.5H113.68c-22.24,0-40.33-18.09-40.33-40.33s18.09-40.33,40.33-40.33h9.03c3.59,0,6.5,2.91,6.5,6.5s-2.91,6.5-6.5,6.5h-9.03c-15.07,0-27.33,12.26-27.33,27.33s12.26,27.33,27.33,27.33h284.65c15.07,0,27.33-12.26,27.33-27.33s-12.26-27.33-27.33-27.33h-175.64c-3.59,0-6.5-2.91-6.5-6.5s2.91-6.5,6.5-6.5h175.64c22.24,0,40.33,18.09,40.33,40.33s-18.09,40.33-40.33,40.33Z"></path>
  <path d="m426.62,373.17H85.38c-6.64,0-12.04-5.4-12.04-12.04v-56.6c0-6.64,5.4-12.04,12.04-12.04h341.24c6.64,0,12.04,5.4,12.04,12.04v56.6c0,6.64-5.4,12.04-12.04,12.04Zm-340.28-13h339.31v-54.67H86.34v54.67Z"></path>
  <path d="m428.39,421.63H83.61c-19.5,0-36.44-13.2-41.21-32.11l-2.41-9.54c-1.21-4.79-.16-9.78,2.88-13.67,3.04-3.9,7.61-6.13,12.56-6.13h401.16c4.94,0,9.52,2.24,12.56,6.13s4.08,8.88,2.88,13.67l-2.41,9.54c-4.77,18.9-21.72,32.11-41.21,32.11Zm-372.97-48.46c-1.24,0-1.97.7-2.3,1.12-.33.42-.83,1.3-.53,2.5l2.41,9.54c3.31,13.12,15.07,22.29,28.61,22.29h344.79c13.53,0,25.29-9.16,28.61-22.29l2.41-9.54c.3-1.2-.2-2.09-.53-2.5-.33-.42-1.06-1.12-2.3-1.12H55.42Z"></path>
  <path d="m256,170.17c-22,0-39.9-17.9-39.9-39.9s17.9-39.9,39.9-39.9,39.9,17.9,39.9,39.9-17.9,39.9-39.9,39.9Zm0-66.8c-14.83,0-26.9,12.07-26.9,26.9s12.07,26.9,26.9,26.9,26.9-12.07,26.9-26.9-12.07-26.9-26.9-26.9Z"></path>
  <path d="m197.31,280.34c-17.38,0-31.54-14.01-31.79-31.33-5.27,3.88-11.77,6.17-18.8,6.17-17.53,0-31.79-14.26-31.79-31.79v-59.71c0-3.59,2.91-6.5,6.5-6.5h101.18c3.59,0,6.5,2.91,6.5,6.5v84.88c0,17.53-14.26,31.79-31.79,31.79Zm-18.79-56.96v25.16c0,10.36,8.43,18.79,18.79,18.79s18.79-8.43,18.79-18.79v-78.38h-88.18v53.21c0,10.36,8.43,18.79,18.79,18.79s18.79-8.43,18.79-18.79c0-3.59,2.91-6.5,6.5-6.5s6.5,2.91,6.5,6.5Z"></path>
</symbol><symbol id="i532_breakfast-15" xmlns="http://www.w3.org/2000/svg" viewBox="0 0 512 512">
  <path d="m328.07,285.78h-144.13c-3.59,0-6.5-2.91-6.5-6.5v-45.29c-13.06-6.73-20.42-21.24-17.8-36.19,2.83-16.11,17.27-27.8,34.32-27.8h124.09c17.05,0,31.49,11.69,34.32,27.8h0c2.63,14.94-4.73,29.46-17.8,36.19v45.29c0,3.59-2.91,6.5-6.5,6.5Zm-137.63-13h131.13v-43.05c0-2.76,1.74-5.22,4.35-6.13,9.71-3.41,15.44-13.31,13.65-23.54h0c-1.71-9.72-10.96-17.05-21.52-17.05h-124.09c-10.56,0-19.81,7.33-21.52,17.05-1.8,10.23,3.94,20.13,13.65,23.54,2.6.91,4.35,3.37,4.35,6.13v43.05Z"></path>
  <path d="m384.27,441.42H127.73c-4.95,0-8.97-4.03-8.97-8.97v-144.81c0-8.19,6.67-14.86,14.86-14.86h244.78c8.19,0,14.86,6.67,14.86,14.86v144.81c0,4.95-4.03,8.97-8.97,8.97Zm-252.52-13h248.5v-140.78c0-1.02-.83-1.86-1.86-1.86h-244.78c-1.02,0-1.86.83-1.86,1.86v140.78Z"></path>
  <path d="m386.75,389.23H125.25c-3.59,0-6.5-2.91-6.5-6.5v-51.27c0-3.59,2.91-6.5,6.5-6.5h261.5c3.59,0,6.5,2.91,6.5,6.5v51.27c0,3.59-2.91,6.5-6.5,6.5Zm-255-13h248.5v-38.27h-248.5v38.27Z"></path>
  <path d="m186.92,472.5h-32.33c-4.45,0-8.07-3.62-8.07-8.07v-29.52c0-3.59,2.91-6.5,6.5-6.5h35.46c3.59,0,6.5,2.91,6.5,6.5v29.52c0,4.45-3.62,8.07-8.07,8.07Zm-27.4-13h22.46v-18.08h-22.46v18.08Z"></path>
  <path d="m357.41,472.5h-32.33c-4.45,0-8.07-3.62-8.07-8.07v-29.52c0-3.59,2.91-6.5,6.5-6.5h35.46c3.59,0,6.5,2.91,6.5,6.5v29.52c0,4.45-3.62,8.07-8.07,8.07Zm-27.4-13h22.46v-18.08h-22.46v18.08Z"></path>
  <path d="m205.05,155.32c-2.26,0-4.45-1.18-5.65-3.28-10.87-19.04-3.99-33.59,1.54-45.28,5.38-11.37,8.93-18.88-.77-29.88-2.38-2.69-2.12-6.8.58-9.17,2.69-2.38,6.8-2.12,9.17.58,15.36,17.41,8.38,32.17,2.77,44.03-5.1,10.79-9.51,20.11-2,33.28,1.78,3.12.69,7.09-2.42,8.87-1.02.58-2.12.86-3.22.86Z"></path>
  <path d="m254.58,128.73c-2.26,0-4.45-1.18-5.65-3.28-10.87-19.04-3.99-33.59,1.54-45.28,5.38-11.37,8.93-18.89-.77-29.88-2.38-2.69-2.12-6.8.58-9.17,2.69-2.38,6.8-2.12,9.17.58,15.36,17.41,8.38,32.17,2.77,44.04-5.1,10.79-9.51,20.11-2,33.28,1.78,3.12.69,7.09-2.42,8.87-1.02.58-2.12.86-3.22.86Z"></path>
  <path d="m304.12,155.32c-2.26,0-4.45-1.18-5.65-3.28-10.87-19.04-3.99-33.59,1.54-45.28,5.38-11.37,8.93-18.88-.77-29.88-2.38-2.69-2.12-6.8.58-9.17,2.69-2.38,6.8-2.12,9.17.58,15.36,17.41,8.38,32.17,2.77,44.03-5.1,10.79-9.51,20.11-2,33.28,1.78,3.12.69,7.09-2.42,8.87-1.02.58-2.12.86-3.22.86Z"></path>
</symbol><symbol id="i532_breakfast-16" xmlns="http://www.w3.org/2000/svg" viewBox="0 0 512 512">
  <path d="m256,472.5c-57.83,0-112.2-22.52-153.09-63.41s-63.41-95.26-63.41-153.09,22.52-112.2,63.41-153.09,95.26-63.41,153.09-63.41,112.2,22.52,153.09,63.41,63.41,95.26,63.41,153.09-22.52,112.2-63.41,153.09-95.26,63.41-153.09,63.41Zm0-420c-112.21,0-203.5,91.29-203.5,203.5s91.29,203.5,203.5,203.5,203.5-91.29,203.5-203.5S368.21,52.5,256,52.5Z"></path>
  <path d="m256,340.1c-46.38,0-84.1-37.73-84.1-84.1s37.73-84.1,84.1-84.1,84.1,37.73,84.1,84.1-37.73,84.1-84.1,84.1Zm0-155.21c-39.21,0-71.1,31.9-71.1,71.1s31.9,71.1,71.1,71.1,71.1-31.9,71.1-71.1-31.9-71.1-71.1-71.1Z"></path>
  <path d="m136.33,277.27c-16.54,0-26.95-8.45-36.05-15.84-13.32-10.81-22.94-18.62-50.66-.03l-7.24-10.8c35.7-23.93,51.85-10.83,66.09.74,14.23,11.54,27.66,22.45,66.58-.91l6.69,11.15c-19.24,11.55-33.83,15.69-45.41,15.69Z"></path>
  <path d="m423.94,277.27c-16.54,0-26.95-8.45-36.05-15.84-13.32-10.81-22.94-18.62-50.66-.03l-7.24-10.8c35.69-23.93,51.85-10.83,66.09.74,14.23,11.54,27.66,22.45,66.58-.91l6.69,11.15c-19.24,11.55-33.83,15.69-45.41,15.69Z"></path>
  <g>
    <circle cx="112.2" cy="194.37" r="12.32"></circle>
    <path d="m112.2,213.19c-10.38,0-18.82-8.44-18.82-18.82s8.44-18.82,18.82-18.82,18.82,8.44,18.82,18.82-8.44,18.82-18.82,18.82Zm0-24.64c-3.21,0-5.82,2.61-5.82,5.82s2.61,5.82,5.82,5.82,5.82-2.61,5.82-5.82-2.61-5.82-5.82-5.82Z"></path>
  </g>
  <g>
    <circle cx="166.08" cy="170.39" r="12.32"></circle>
    <path d="m166.08,189.2c-10.38,0-18.82-8.44-18.82-18.82s8.44-18.82,18.82-18.82,18.82,8.44,18.82,18.82-8.44,18.82-18.82,18.82Zm0-24.64c-3.21,0-5.82,2.61-5.82,5.82s2.61,5.82,5.82,5.82,5.82-2.61,5.82-5.82-2.61-5.82-5.82-5.82Z"></path>
  </g>
  <g>
    <circle cx="153.76" cy="127.8" r="12.32"></circle>
    <path d="m153.76,146.62c-10.38,0-18.82-8.44-18.82-18.82s8.44-18.82,18.82-18.82,18.82,8.44,18.82,18.82-8.44,18.82-18.82,18.82Zm0-24.64c-3.21,0-5.82,2.61-5.82,5.82s2.61,5.82,5.82,5.82,5.82-2.61,5.82-5.82-2.61-5.82-5.82-5.82Z"></path>
  </g>
  <g>
    <circle cx="264.12" cy="91.17" r="12.32"></circle>
    <path d="m264.12,109.99c-10.38,0-18.82-8.44-18.82-18.82s8.44-18.82,18.82-18.82,18.82,8.44,18.82,18.82-8.44,18.82-18.82,18.82Zm0-24.64c-3.21,0-5.82,2.61-5.82,5.82s2.61,5.82,5.82,5.82,5.82-2.61,5.82-5.82-2.61-5.82-5.82-5.82Z"></path>
  </g>
  <g>
    <circle cx="338.03" cy="111.72" r="12.32"></circle>
    <path d="m338.03,130.54c-10.38,0-18.82-8.44-18.82-18.82s8.44-18.82,18.82-18.82,18.82,8.44,18.82,18.82-8.44,18.82-18.82,18.82Zm0-24.64c-3.21,0-5.82,2.61-5.82,5.82s2.61,5.82,5.82,5.82,5.82-2.61,5.82-5.82-2.61-5.82-5.82-5.82Z"></path>
  </g>
  <g>
    <circle cx="288.76" cy="136.36" r="12.32"></circle>
    <path d="m288.76,155.18c-10.38,0-18.82-8.44-18.82-18.82s8.44-18.82,18.82-18.82,18.82,8.44,18.82,18.82-8.44,18.82-18.82,18.82Zm0-24.64c-3.21,0-5.82,2.61-5.82,5.82s2.61,5.82,5.82,5.82,5.82-2.61,5.82-5.82-2.61-5.82-5.82-5.82Z"></path>
  </g>
  <g>
    <circle cx="345.92" cy="169.73" r="12.32"></circle>
    <path d="m345.92,188.55c-10.38,0-18.82-8.44-18.82-18.82s8.44-18.82,18.82-18.82,18.82,8.44,18.82,18.82-8.44,18.82-18.82,18.82Zm0-24.64c-3.21,0-5.82,2.61-5.82,5.82s2.61,5.82,5.82,5.82,5.82-2.61,5.82-5.82-2.61-5.82-5.82-5.82Z"></path>
  </g>
  <g>
    <circle cx="208.06" cy="129.52" r="12.32"></circle>
    <path d="m208.06,148.34c-10.38,0-18.82-8.44-18.82-18.82s8.44-18.82,18.82-18.82,18.82,8.44,18.82,18.82-8.44,18.82-18.82,18.82Zm0-24.64c-3.21,0-5.82,2.61-5.82,5.82s2.61,5.82,5.82,5.82,5.82-2.61,5.82-5.82-2.61-5.82-5.82-5.82Z"></path>
  </g>
  <g>
    <circle cx="395.54" cy="212.18" r="12.32"></circle>
    <path d="m395.54,231c-10.38,0-18.82-8.44-18.82-18.82s8.44-18.82,18.82-18.82,18.82,8.44,18.82,18.82-8.44,18.82-18.82,18.82Zm0-24.64c-3.21,0-5.82,2.61-5.82,5.82s2.61,5.82,5.82,5.82,5.82-2.61,5.82-5.82-2.61-5.82-5.82-5.82Z"></path>
  </g>
  <g>
    <circle cx="395.54" cy="158.07" r="12.32"></circle>
    <path d="m395.54,176.89c-10.38,0-18.82-8.44-18.82-18.82s8.44-18.82,18.82-18.82,18.82,8.44,18.82,18.82-8.44,18.82-18.82,18.82Zm0-24.64c-3.21,0-5.82,2.61-5.82,5.82s2.61,5.82,5.82,5.82,5.82-2.61,5.82-5.82-2.61-5.82-5.82-5.82Z"></path>
  </g>
</symbol><symbol id="i532_breakfast-2" xmlns="http://www.w3.org/2000/svg" viewBox="0 0 512 512">
  <path d="m337.96,471.06H89.56c-5.74,0-10.41-4.67-10.41-10.41V117.95c0-3.59,2.91-6.5,6.5-6.5h252.31c3.59,0,6.5,2.91,6.5,6.5v346.61c0,3.59-2.91,6.5-6.5,6.5Zm-245.81-13h239.31V124.45H92.15v333.61Z"></path>
  <path d="m422.4,471.06h-84.44c-3.59,0-6.5-2.91-6.5-6.5V117.95c0-3.59,2.91-6.5,6.5-6.5h88.35c3.59,0,6.5,2.91,6.5,6.5v342.7c0,5.74-4.67,10.41-10.41,10.41Zm-77.94-13h75.35V124.45h-75.35v333.61Z"></path>
  <path d="m337.96,124.45H85.65c-2.35,0-4.51-1.27-5.67-3.31L40.33,50.62c-1.13-2.01-1.11-4.47.06-6.47,1.17-1.99,3.3-3.22,5.61-3.22h252.31c2.35,0,4.51,1.27,5.67,3.31l39.65,70.51c1.13,2.01,1.11,4.47-.06,6.47-1.17,1.99-3.3,3.22-5.61,3.22Zm-248.51-13h237.4l-32.34-57.51H57.11l32.34,57.51Z"></path>
  <path d="m426.35,124.45h-88.39v-13h84.59l32.34-57.51h-156.57v-13h167.69c2.31,0,4.44,1.23,5.61,3.22,1.17,1.99,1.19,4.46.06,6.47l-39.65,70.51c-1.15,2.05-3.32,3.31-5.67,3.31Z"></path>
  <path d="m211.8,371.84h-47.38c-7.01,0-12.71-5.7-12.71-12.71v-65.25c0-3.59,2.91-6.5,6.5-6.5h47.38c7.01,0,12.71,5.7,12.71,12.71v65.25c0,3.59-2.91,6.5-6.5,6.5Zm-47.1-13h40.6v-58.46h-40.6v58.46Z"></path>
  <path d="m259.19,371.84h-47.38c-3.59,0-6.5-2.91-6.5-6.5v-65.25c0-7.01,5.7-12.71,12.71-12.71h47.38c3.59,0,6.5,2.91,6.5,6.5v65.25c0,7.01-5.7,12.71-12.71,12.71Zm-40.88-13h40.6v-58.46h-40.6v58.46Z"></path>
  <path d="m211.8,300.38h-47.38c-7.01,0-12.71-5.7-12.71-12.71v-65.25c0-3.59,2.91-6.5,6.5-6.5h47.38c7.01,0,12.71,5.7,12.71,12.71v65.25c0,3.59-2.91,6.5-6.5,6.5Zm-47.1-13h40.6v-58.47h-40.6v58.47Z"></path>
  <path d="m259.19,300.38h-47.38c-3.59,0-6.5-2.91-6.5-6.5v-65.25c0-7.01,5.7-12.71,12.71-12.71h47.38c3.59,0,6.5,2.91,6.5,6.5v65.25c0,7.01-5.7,12.71-12.71,12.71Zm-40.88-13h40.6v-58.47h-40.6v58.47Z"></path>
  <path d="m211.8,416.74c-3.59,0-6.5-2.91-6.5-6.5v-214.08c0-3.59,2.91-6.5,6.5-6.5s6.5,2.91,6.5,6.5v214.08c0,3.59-2.91,6.5-6.5,6.5Z"></path>
  <path d="m265.4,228.91c-3.59,0-6.5-2.91-6.5-6.5v-35.14c0-3.59,2.91-6.5,6.5-6.5s6.5,2.91,6.5,6.5v35.14c0,3.59-2.91,6.5-6.5,6.5Z"></path>
  <path d="m158.2,228.91c-3.59,0-6.5-2.91-6.5-6.5v-35.14c0-3.59,2.91-6.5,6.5-6.5s6.5,2.91,6.5,6.5v35.14c0,3.59-2.91,6.5-6.5,6.5Z"></path>
</symbol><symbol id="i532_breakfast-3" xmlns="http://www.w3.org/2000/svg" viewBox="0 0 512 512">
  <path d="m329.39,472.5c-78.77,0-142.85-64.08-142.85-142.85s64.08-142.85,142.85-142.85,142.85,64.08,142.85,142.85-64.08,142.85-142.85,142.85Zm0-272.71c-71.6,0-129.85,58.25-129.85,129.85s58.25,129.85,129.85,129.85,129.85-58.25,129.85-129.85-58.25-129.85-129.85-129.85Z"></path>
  <path d="m399.57,336.15c-15.34,0-27.82-12.48-27.82-27.82s12.48-27.82,27.82-27.82,27.82,12.48,27.82,27.82-12.48,27.82-27.82,27.82Zm0-42.64c-8.17,0-14.82,6.65-14.82,14.82s6.65,14.82,14.82,14.82,14.82-6.65,14.82-14.82-6.65-14.82-14.82-14.82Z"></path>
  <path d="m345.43,419.12c-15.34,0-27.82-12.48-27.82-27.82s12.48-27.82,27.82-27.82,27.82,12.48,27.82,27.82-12.48,27.82-27.82,27.82Zm0-42.64c-8.17,0-14.82,6.65-14.82,14.82s6.65,14.82,14.82,14.82,14.82-6.65,14.82-14.82-6.65-14.82-14.82-14.82Z"></path>
  <path d="m302.79,328.49c-15.34,0-27.82-12.48-27.82-27.82s12.48-27.82,27.82-27.82,27.82,12.48,27.82,27.82-12.48,27.82-27.82,27.82Zm0-42.64c-8.17,0-14.82,6.65-14.82,14.82s6.65,14.82,14.82,14.82,14.82-6.65,14.82-14.82-6.65-14.82-14.82-14.82Z"></path>
  <g>
    <circle cx="276.7" cy="369.98" r="10.28"></circle>
    <path d="m276.7,386.76c-9.25,0-16.78-7.53-16.78-16.78s7.53-16.78,16.78-16.78,16.78,7.53,16.78,16.78-7.53,16.78-16.78,16.78Zm0-20.56c-2.08,0-3.78,1.7-3.78,3.78s1.7,3.78,3.78,3.78,3.78-1.7,3.78-3.78-1.7-3.78-3.78-3.78Z"></path>
  </g>
  <g>
    <circle cx="243.37" cy="313.6" r="10.28"></circle>
    <path d="m243.37,330.39c-9.25,0-16.78-7.53-16.78-16.78s7.53-16.78,16.78-16.78,16.78,7.53,16.78,16.78-7.53,16.78-16.78,16.78Zm0-20.56c-2.08,0-3.78,1.7-3.78,3.78s1.7,3.78,3.78,3.78,3.78-1.7,3.78-3.78-1.7-3.78-3.78-3.78Z"></path>
  </g>
  <g>
    <circle cx="193.03" cy="92.48" r="10.28"></circle>
    <path d="m193.03,109.27c-9.25,0-16.78-7.53-16.78-16.78s7.53-16.78,16.78-16.78,16.78,7.53,16.78,16.78-7.53,16.78-16.78,16.78Zm0-20.56c-2.08,0-3.78,1.7-3.78,3.78s1.7,3.78,3.78,3.78,3.78-1.7,3.78-3.78-1.7-3.78-3.78-3.78Z"></path>
  </g>
  <g>
    <circle cx="164.94" cy="262.87" r="10.28"></circle>
    <path d="m164.94,279.65c-9.25,0-16.78-7.53-16.78-16.78s7.53-16.78,16.78-16.78,16.78,7.53,16.78,16.78-7.53,16.78-16.78,16.78Zm0-20.56c-2.08,0-3.78,1.7-3.78,3.78s1.7,3.78,3.78,3.78,3.78-1.7,3.78-3.78-1.7-3.78-3.78-3.78Z"></path>
  </g>
  <g>
    <circle cx="160.55" cy="151.71" r="10.28"></circle>
    <path d="m160.55,168.49c-9.25,0-16.78-7.53-16.78-16.78s7.53-16.78,16.78-16.78,16.78,7.53,16.78,16.78-7.53,16.78-16.78,16.78Zm0-20.56c-2.08,0-3.78,1.7-3.78,3.78s1.7,3.78,3.78,3.78,3.78-1.7,3.78-3.78-1.7-3.78-3.78-3.78Z"></path>
  </g>
  <g>
    <circle cx="276.7" cy="161.99" r="10.28"></circle>
    <path d="m276.7,178.77c-9.25,0-16.78-7.53-16.78-16.78s7.53-16.78,16.78-16.78,16.78,7.53,16.78,16.78-7.53,16.78-16.78,16.78Zm0-20.56c-2.08,0-3.78,1.7-3.78,3.78s1.7,3.78,3.78,3.78,3.78-1.7,3.78-3.78-1.7-3.78-3.78-3.78Z"></path>
  </g>
  <g>
    <circle cx="414.51" cy="369.98" r="10.28"></circle>
    <path d="m414.51,386.76c-9.25,0-16.78-7.53-16.78-16.78s7.53-16.78,16.78-16.78,16.78,7.53,16.78,16.78-7.53,16.78-16.78,16.78Zm0-20.56c-2.08,0-3.78,1.7-3.78,3.78s1.7,3.78,3.78,3.78,3.78-1.7,3.78-3.78-1.7-3.78-3.78-3.78Z"></path>
  </g>
  <g>
    <circle cx="345.43" cy="255.35" r="10.28"></circle>
    <path d="m345.43,272.13c-9.25,0-16.78-7.53-16.78-16.78s7.53-16.78,16.78-16.78,16.78,7.53,16.78,16.78-7.53,16.78-16.78,16.78Zm0-20.56c-2.08,0-3.78,1.7-3.78,3.78s1.7,3.78,3.78,3.78,3.78-1.7,3.78-3.78-1.7-3.78-3.78-3.78Z"></path>
  </g>
  <path d="m222.05,192.47c-15.34,0-27.82-12.48-27.82-27.82s12.48-27.82,27.82-27.82,27.82,12.48,27.82,27.82-12.48,27.82-27.82,27.82Zm0-42.64c-8.17,0-14.82,6.65-14.82,14.82s6.65,14.82,14.82,14.82,14.82-6.65,14.82-14.82-6.65-14.82-14.82-14.82Z"></path>
  <path d="m143.62,235.11c-15.34,0-27.82-12.48-27.82-27.82s12.48-27.82,27.82-27.82,27.82,12.48,27.82,27.82-12.48,27.82-27.82,27.82Zm0-42.64c-8.17,0-14.82,6.65-14.82,14.82s6.65,14.82,14.82,14.82,14.82-6.65,14.82-14.82-6.65-14.82-14.82-14.82Z"></path>
  <path d="m181.26,325.21c-34.67,0-68.1-12.58-94.13-35.41-25.78-22.62-42.58-53.69-47.31-87.5-.28-1.99.38-4,1.78-5.43,1.4-1.44,3.39-2.15,5.38-1.92,1.4.16,2.66.23,3.84.23,18.65,0,33.82-15.13,33.9-33.76,0-.11,0-.22,0-.3-.02-3.37,2.52-6.19,5.87-6.52,17.44-1.69,30.6-16.19,30.6-33.73,0-4.77-1-9.42-2.97-13.83-.83-1.86-.74-4.01.24-5.8.99-1.79,2.76-3.01,4.78-3.29,16.61-2.34,29.13-16.75,29.13-33.52,0-4.64-.93-9.15-2.76-13.4-.78-1.81-.7-3.88.23-5.62s2.59-2.97,4.52-3.34c8.92-1.7,17.97-2.56,26.89-2.56,78.77,0,142.85,64.08,142.85,142.85,0,4.01-.17,8.06-.5,12.04l-12.96-1.08c.3-3.62.46-7.31.46-10.96,0-71.6-58.25-129.85-129.85-129.85-5.68,0-11.41.38-17.13,1.15.83,3.51,1.25,7.11,1.25,10.77,0,20.56-13.61,38.56-32.7,44.65,1,3.84,1.51,7.78,1.51,11.79,0,22.37-15.46,41.16-36.77,45.8-2.57,22.3-20.84,39.89-43.44,41.4,12.05,59.88,65.46,104.14,127.27,104.14,4.2,0,8.45-.2,12.61-.6l1.25,12.94c-4.58.44-9.24.66-13.86.66Z"></path>
</symbol><symbol id="i532_breakfast-4" xmlns="http://www.w3.org/2000/svg" viewBox="0 0 512 512">
  <g>
    <circle cx="145.15" cy="279.38" r="9.53"></circle>
    <path d="m145.15,295.42c-8.84,0-16.03-7.19-16.03-16.03s7.19-16.03,16.03-16.03,16.03,7.19,16.03,16.03-7.19,16.03-16.03,16.03Zm0-19.06c-1.67,0-3.03,1.36-3.03,3.03s1.36,3.03,3.03,3.03,3.03-1.36,3.03-3.03-1.36-3.03-3.03-3.03Z"></path>
  </g>
  <g>
    <circle cx="126.09" cy="174.1" r="9.53"></circle>
    <path d="m126.09,190.13c-8.84,0-16.03-7.19-16.03-16.03s7.19-16.03,16.03-16.03,16.03,7.19,16.03,16.03-7.19,16.03-16.03,16.03Zm0-19.06c-1.67,0-3.03,1.36-3.03,3.03s1.36,3.03,3.03,3.03,3.03-1.36,3.03-3.03-1.36-3.03-3.03-3.03Z"></path>
  </g>
  <g>
    <circle cx="275.09" cy="348.98" r="9.53"></circle>
    <path d="m275.09,365.01c-8.84,0-16.03-7.19-16.03-16.03s7.19-16.03,16.03-16.03,16.03,7.19,16.03,16.03-7.19,16.03-16.03,16.03Zm0-19.06c-1.67,0-3.03,1.36-3.03,3.03s1.36,3.03,3.03,3.03,3.03-1.36,3.03-3.03-1.36-3.03-3.03-3.03Z"></path>
  </g>
  <g>
    <circle cx="383.01" cy="260.91" r="9.53"></circle>
    <path d="m383.01,276.94c-8.84,0-16.03-7.19-16.03-16.03s7.19-16.03,16.03-16.03,16.03,7.19,16.03,16.03-7.19,16.03-16.03,16.03Zm0-19.06c-1.67,0-3.03,1.36-3.03,3.03s1.36,3.03,3.03,3.03,3.03-1.36,3.03-3.03-1.36-3.03-3.03-3.03Z"></path>
  </g>
  <g>
    <circle cx="298.64" cy="207.95" r="9.53"></circle>
    <path d="m298.64,223.98c-8.84,0-16.03-7.19-16.03-16.03s7.19-16.03,16.03-16.03,16.03,7.19,16.03,16.03-7.19,16.03-16.03,16.03Zm0-19.06c-1.67,0-3.03,1.36-3.03,3.03s1.36,3.03,3.03,3.03,3.03-1.36,3.03-3.03-1.36-3.03-3.03-3.03Z"></path>
  </g>
  <path d="m416.4,411.06h-180.8c-15.28,0-27.71-12.43-27.71-27.71v-136.74c-19.12-8.8-30.51-28.77-28.06-50.12,2.82-24.61,24.35-43.18,50.08-43.18h192.17c25.73,0,47.26,18.56,50.08,43.18h0c2.45,21.35-8.95,41.33-28.06,50.12v136.74c0,15.28-12.43,27.71-27.71,27.71Zm-186.49-244.74c-18.81,0-35.13,13.91-37.17,31.66-1.93,16.86,7.85,32.54,23.8,38.13,2.6.91,4.35,3.37,4.35,6.13v141.11c0,8.11,6.6,14.71,14.71,14.71h180.8c8.11,0,14.71-6.6,14.71-14.71v-141.11c0-2.76,1.74-5.22,4.35-6.13,15.94-5.6,25.73-21.28,23.8-38.13h0c-2.04-17.75-18.36-31.66-37.17-31.66h-192.17Z"></path>
  <path d="m214.39,358.68h-118.79c-15.28,0-27.71-12.43-27.71-27.71v-136.74c-19.12-8.8-30.51-28.77-28.06-50.12,2.82-24.61,24.35-43.18,50.08-43.18h192.17c25.73,0,47.26,18.56,50.08,43.18.67,5.83.32,11.63-1.03,17.23l-12.64-3.05c.99-4.12,1.25-8.39.75-12.7-2.04-17.75-18.36-31.66-37.17-31.66H89.91c-18.81,0-35.13,13.9-37.17,31.66-1.93,16.86,7.85,32.54,23.8,38.13,2.6.91,4.35,3.37,4.35,6.13v141.11c0,8.11,6.6,14.71,14.71,14.71h118.79v13Z"></path>
</symbol><symbol id="i532_breakfast-5" xmlns="http://www.w3.org/2000/svg" viewBox="0 0 512 512">
  <path d="m435.97,414.92H79.69c-14.82,0-27.66-8.46-33.51-22.07-5.85-13.62-3.15-28.75,7.05-39.5l178.14-187.72c6.95-7.33,16.35-11.37,26.45-11.37s19.5,4.04,26.46,11.37l178.14,187.72c10.2,10.75,12.9,25.88,7.05,39.5s-18.69,22.07-33.51,22.07Zm-178.14-247.65c-6.5,0-12.55,2.6-17.02,7.31h0S62.67,362.3,62.67,362.3c-7.85,8.27-7.49,18.55-4.54,25.42,2.95,6.87,10.16,14.21,21.56,14.21h356.28c11.4,0,18.61-7.34,21.56-14.21,2.95-6.87,3.31-17.15-4.54-25.42l-178.14-187.72c-4.48-4.72-10.52-7.31-17.03-7.31Zm-21.74,2.84h0,0Z"></path>
  <path d="m340.02,183.11c-1.72,0-3.44-.68-4.72-2.03l-60.45-63.7c-4.48-4.72-10.52-7.31-17.03-7.31-6.5,0-12.55,2.6-17.02,7.31l-28.37,29.9c-2.47,2.6-6.59,2.71-9.19.24-2.6-2.47-2.71-6.58-.24-9.19l28.37-29.9c6.95-7.33,16.35-11.37,26.45-11.37,10.1,0,19.5,4.04,26.46,11.36l60.45,63.7c2.47,2.6,2.36,6.72-.24,9.19-1.26,1.19-2.87,1.79-4.47,1.79Z"></path>
  <path d="m257.83,360.74c-3.59,0-6.5-2.91-6.5-6.5v-110.82c0-3.59,2.91-6.5,6.5-6.5s6.5,2.91,6.5,6.5v110.82c0,3.59-2.91,6.5-6.5,6.5Z"></path>
  <path d="m329.19,348.65c-3.59,0-6.5-2.91-6.5-6.5v-52.98c0-3.59,2.91-6.5,6.5-6.5s6.5,2.91,6.5,6.5v52.98c0,3.59-2.91,6.5-6.5,6.5Z"></path>
  <path d="m186.47,348.65c-3.59,0-6.5-2.91-6.5-6.5v-52.98c0-3.59,2.91-6.5,6.5-6.5s6.5,2.91,6.5,6.5v52.98c0,3.59-2.91,6.5-6.5,6.5Z"></path>
  <path d="m433.91,339.24c-2.12,0-4.2-1.04-5.45-2.94-1.96-3-1.12-7.03,1.88-9,14.6-9.55,23.32-25.66,23.32-43.08,0-25.29-18.08-46.63-42.99-50.74-3.54-.58-5.94-3.93-5.35-7.47.58-3.54,3.93-5.94,7.47-5.35,31.21,5.15,53.87,31.89,53.87,63.57,0,21.83-10.92,42-29.21,53.96-1.1.72-2.33,1.06-3.55,1.06Z"></path>
  <path d="m385.38,288.1c-2.14,0-4.23-1.05-5.47-2.99-1.94-3.02-1.06-7.04,1.96-8.98,14.83-9.52,23.68-25.71,23.68-43.31,0-28.36-23.07-51.43-51.43-51.43-16.52,0-32.14,8.02-41.8,21.45-2.09,2.91-6.16,3.58-9.07,1.48-2.92-2.09-3.58-6.16-1.49-9.07,12.09-16.82,31.66-26.87,52.35-26.87,35.53,0,64.43,28.9,64.43,64.43,0,22.04-11.08,42.32-29.65,54.25-1.09.7-2.3,1.03-3.51,1.03Z"></path>
  <path d="m64.42,355.56c-1.07,0-2.15-.26-3.15-.82-3.43-1.9-6.58-4.29-9.38-7.08-7.99-7.99-12.39-18.62-12.39-29.92s4.4-21.93,12.39-29.92c2.9-2.9,6.22-5.33,9.91-7.27-7.95-22.64-2.36-48.19,14.84-65.39,17.2-17.2,42.75-22.79,65.39-14.84,1.94-3.69,4.37-7.01,7.27-9.91,16.5-16.5,43.35-16.5,59.84,0,1.23,1.23,2.39,2.54,3.45,3.9,2.21,2.83,1.71,6.91-1.12,9.12-2.83,2.21-6.91,1.71-9.12-1.12-.74-.95-1.55-1.86-2.4-2.71-5.54-5.54-12.9-8.59-20.73-8.59s-15.19,3.05-20.73,8.59c-3.05,3.05-5.37,6.84-6.88,11.26-.6,1.75-1.92,3.17-3.63,3.89-1.71.72-3.65.67-5.32-.12-19.08-9.1-41.92-5.19-56.83,9.73-14.91,14.91-18.82,37.75-9.73,56.83.8,1.67.84,3.61.12,5.32-.72,1.71-2.13,3.03-3.89,3.63-4.41,1.51-8.2,3.82-11.26,6.88-5.54,5.54-8.59,12.9-8.59,20.73s3.05,15.19,8.59,20.73c1.94,1.94,4.13,3.59,6.5,4.91,3.14,1.74,4.27,5.7,2.52,8.84-1.19,2.14-3.4,3.34-5.69,3.34Z"></path>
  <path d="m103.65,212.51c-3.52,0-6.42-2.82-6.5-6.36-.45-20.62,9.21-40.16,25.84-52.26,19.66-14.32,45.78-15.87,66.9-4.5,2.49-3.35,5.41-6.25,8.72-8.66,18.86-13.74,45.38-9.56,59.12,9.3,1.02,1.4,1.97,2.88,2.81,4.39,1.74,3.14.61,7.1-2.52,8.84-3.14,1.74-7.1.61-8.84-2.52-.58-1.05-1.24-2.08-1.95-3.05-4.61-6.33-11.41-10.49-19.14-11.7-7.74-1.21-15.48.65-21.81,5.26-3.49,2.54-6.37,5.93-8.54,10.05-.86,1.64-2.39,2.83-4.19,3.28-1.8.44-3.71.1-5.23-.95-17.44-11.95-40.61-11.64-57.66.78-13.19,9.6-20.85,25.11-20.49,41.47.08,3.59-2.77,6.56-6.36,6.64-.05,0-.1,0-.14,0Z"></path>
  <g>
    <circle cx="361.24" cy="212.98" r="6.97"></circle>
    <path d="m361.24,226.45c-7.43,0-13.47-6.04-13.47-13.47s6.04-13.47,13.47-13.47,13.47,6.04,13.47,13.47-6.04,13.47-13.47,13.47Zm0-13.94c-.26,0-.47.21-.47.47s.21.47.47.47.47-.21.47-.47-.21-.47-.47-.47Z"></path>
  </g>
  <g>
    <circle cx="431.9" cy="293.19" r="6.97"></circle>
    <path d="m431.9,306.66c-7.43,0-13.47-6.04-13.47-13.47s6.04-13.47,13.47-13.47,13.47,6.04,13.47,13.47-6.04,13.47-13.47,13.47Zm0-13.94c-.26,0-.47.21-.47.47s.21.47.47.47.47-.21.47-.47-.21-.47-.47-.47Z"></path>
  </g>
  <g>
    <circle cx="415.67" cy="262.89" r="6.97"></circle>
    <path d="m415.67,276.36c-7.43,0-13.47-6.04-13.47-13.47s6.04-13.47,13.47-13.47,13.47,6.04,13.47,13.47-6.04,13.47-13.47,13.47Zm0-13.94c-.26,0-.47.21-.47.47s.21.47.47.47.47-.21.47-.47-.21-.47-.47-.47Z"></path>
  </g>
  <g>
    <circle cx="371.68" cy="248.95" r="6.97"></circle>
    <path d="m371.68,262.42c-7.43,0-13.47-6.04-13.47-13.47s6.04-13.47,13.47-13.47,13.47,6.04,13.47,13.47-6.04,13.47-13.47,13.47Zm0-13.94c-.26,0-.47.21-.47.47s.21.47.47.47.47-.21.47-.47-.21-.47-.47-.47Z"></path>
  </g>
</symbol><symbol id="i532_breakfast-7" xmlns="http://www.w3.org/2000/svg" viewBox="0 0 512 512">
  <path d="m421.84,391.13h-221.85c-11.74,0-21.29-9.55-21.29-21.29V79.97c0-5.32,4.33-9.66,9.66-9.66h245.11c5.32,0,9.66,4.33,9.66,9.66v289.87c0,11.74-9.55,21.29-21.29,21.29ZM191.7,83.32v286.52c0,4.57,3.72,8.29,8.29,8.29h221.85c4.57,0,8.29-3.72,8.29-8.29V83.32h-238.42Z"></path>
  <rect x="185.2" y="140.37" width="251.42" height="13"></rect>
  <path d="m463.07,441.68H158.76c-5.2,0-9.43-4.23-9.43-9.43v-44.69c0-5.2,4.23-9.43,9.43-9.43h304.31c5.2,0,9.43,4.23,9.43,9.43v44.69c0,5.2-4.23,9.43-9.43,9.43Zm-300.74-13h297.17v-37.56H162.33v37.56Z"></path>
  <path d="m115.6,268.95c-41.96,0-76.1-34.14-76.1-76.1s34.14-76.1,76.1-76.1,76.1,34.14,76.1,76.1-34.14,76.1-76.1,76.1Zm0-139.2c-34.79,0-63.1,28.31-63.1,63.1s28.31,63.1,63.1,63.1,63.1-28.31,63.1-63.1-28.31-63.1-63.1-63.1Z"></path>
  <path d="m331.27,313.42c-8.79,0-17.06-4.15-23.91-11.99l9.79-8.55c3.01,3.44,7.9,7.54,14.12,7.54,14.35,0,26.48-21.48,26.48-46.9,0-20.15-18.33-38.08-26.48-45.06-6.39,5.47-19.06,17.7-24.23,32.51l-12.28-4.28c8.37-24,31.7-41.12,32.69-41.84,2.28-1.65,5.36-1.65,7.63,0,1.46,1.06,35.66,26.23,35.66,58.67s-17.34,59.9-39.48,59.9Z"></path>
  <path d="m296.12,313.44c-6.57,0-13.48-2.52-20.16-7.44-8.96-6.61-16.6-16.98-21.51-29.19h0c-10.35-25.75,8.67-56.49,9.49-57.79,1.5-2.38,4.35-3.53,7.08-2.85,1.49.37,36.5,9.4,46.85,35.14,4.91,12.21,6.57,24.98,4.67,35.96-2.09,12.11-8.21,20.77-17.24,24.4-2.93,1.18-6.01,1.76-9.17,1.76Zm-23.56-83.18c-4.21,8.29-12.01,26.89-6.05,41.7h0c4.02,10,10.12,18.37,17.17,23.57,3.55,2.62,10.44,6.62,16.77,4.08,6.33-2.54,8.53-10.21,9.28-14.55,1.49-8.63.1-18.89-3.93-28.9-5.95-14.8-24.45-22.84-33.23-25.9Z"></path>
</symbol><symbol id="i532_breakfast-6" xmlns="http://www.w3.org/2000/svg" viewBox="0 0 512 512">
  <path d="m403,472.5h-191.3c-3.59,0-6.5-2.91-6.5-6.5V186.5c0-3.59,2.91-6.5,6.5-6.5h195.27c3.59,0,6.5,2.91,6.5,6.5v275.54c0,5.77-4.69,10.46-10.46,10.46Zm-184.8-13h182.27V193h-182.27v266.5Z"></path>
  <path d="m211.7,472.5h-102.71c-5.77,0-10.46-4.69-10.46-10.46V186.5c0-3.59,2.91-6.5,6.5-6.5h106.67c3.59,0,6.5,2.91,6.5,6.5v279.5c0,3.59-2.91,6.5-6.5,6.5Zm-100.17-13h93.67V193h-93.67v266.5Z"></path>
  <path d="m406.97,193h-195.27c-2.02,0-3.92-.94-5.15-2.53l-56.39-73.21c-1.51-1.96-1.78-4.61-.68-6.84,1.09-2.22,3.35-3.63,5.83-3.63h195.27c2.02,0,3.92.94,5.15,2.53l56.39,73.21c1.51,1.96,1.78,4.61.68,6.84-1.09,2.22-3.35,3.63-5.83,3.63Zm-192.07-13h178.86l-46.38-60.21h-178.86l46.38,60.21Z"></path>
  <path d="m110.39,190.18l-10.72-7.36,49.14-71.55v-47.98c0-13.11,10.67-23.78,23.78-23.78h160.7c13.11,0,23.78,10.67,23.78,23.78v50c0,3.59-2.91,6.5-6.5,6.5h-191.84l-48.34,70.39Zm51.42-83.39h182.27v-43.5c0-5.95-4.84-10.78-10.78-10.78h-160.7c-5.95,0-10.78,4.84-10.78,10.78v43.5Z"></path>
  <path d="m406.97,376.52h-195.27c-3.59,0-6.5-2.91-6.5-6.5v-87.54c0-3.59,2.91-6.5,6.5-6.5h195.27c3.59,0,6.5,2.91,6.5,6.5v87.54c0,3.59-2.91,6.5-6.5,6.5Zm-188.77-13h182.27v-74.54h-182.27v74.54Z"></path>
  <path d="m158.37,472.5c-3.59,0-6.5-2.91-6.5-6.5v-86.25c0-3.59,2.91-6.5,6.5-6.5s6.5,2.91,6.5,6.5v86.25c0,3.59-2.91,6.5-6.5,6.5Z"></path>
  <g>
    <circle cx="281.14" cy="149.89" r="16.95"></circle>
    <path d="m281.14,173.34c-12.93,0-23.45-10.52-23.45-23.45s10.52-23.45,23.45-23.45,23.45,10.52,23.45,23.45-10.52,23.45-23.45,23.45Zm0-33.9c-5.76,0-10.45,4.69-10.45,10.45s4.69,10.45,10.45,10.45,10.45-4.69,10.45-10.45-4.69-10.45-10.45-10.45Z"></path>
  </g>
</symbol><symbol id="i532_breakfast-8" xmlns="http://www.w3.org/2000/svg" viewBox="0 0 512 512">
  <path d="m432.98,446.55H98.87c-5.2,0-9.43-4.23-9.43-9.43v-49.55c0-5.2,4.23-9.43,9.43-9.43h334.12c5.2,0,9.43,4.23,9.43,9.43v49.55c0,5.2-4.23,9.43-9.43,9.43Zm-330.55-13h326.98v-42.42H102.43v42.42Z"></path>
  <path d="m422.56,391.13H89.44c-13.46,0-24.4-10.95-24.4-24.4v-132.77c0-3.59,2.91-6.5,6.5-6.5h368.92c3.59,0,6.5,2.91,6.5,6.5v132.77c0,13.46-10.95,24.4-24.4,24.4ZM78.04,240.46v126.27c0,6.29,5.12,11.4,11.4,11.4h333.11c6.29,0,11.4-5.12,11.4-11.4v-126.27H78.04Z"></path>
  <path d="m461.22,240.46H50.78c-6.22,0-11.28-5.06-11.28-11.28v-62.29c0-6.22,5.06-11.28,11.28-11.28h410.43c6.22,0,11.28,5.06,11.28,11.28v62.29c0,6.22-5.06,11.28-11.28,11.28Zm-408.72-13h407v-58.85H52.5v58.85Z"></path>
  <path d="m99.99,165.2c-3.37-6.23-5.15-13.29-5.15-20.41,0-23.67,19.25-42.92,42.92-42.92,1.4,0,2.82.08,4.28.25,6.7-15.53,22.09-25.94,39.26-25.94,6.55,0,12.94,1.48,18.76,4.33,8.1-9.53,19.87-15.06,32.54-15.06,10.37,0,20.39,3.87,28.2,10.75,5.97-3.02,12.57-4.6,19.35-4.6,14.35,0,27.72,7.35,35.61,19.15,4.78-1.81,9.71-2.73,14.73-2.73,16.92,0,31.86,9.8,38.79,24.92,1.7-.23,3.33-.34,4.96-.34,23.67,0,42.92,19.25,42.92,42.92,0,2.61-.24,5.21-.7,7.75l-12.79-2.34c.32-1.77.49-3.59.49-5.41,0-16.5-13.42-29.92-29.92-29.92-2.25,0-4.61.34-7.45,1.07-3.37.87-6.83-1.07-7.84-4.4-3.88-12.71-15.31-21.25-28.46-21.25-4.87,0-9.68,1.29-14.3,3.82-1.57.87-3.44,1.04-5.15.48-1.71-.56-3.11-1.8-3.87-3.42-4.92-10.51-15.53-17.31-27.02-17.31-6,0-11.79,1.77-16.74,5.12-2.7,1.83-6.35,1.37-8.51-1.08-5.82-6.57-13.74-10.19-22.3-10.19-10.28,0-19.72,5.26-25.26,14.06-.94,1.5-2.45,2.54-4.18,2.9-1.73.36-3.53,0-4.99-1-5-3.42-10.83-5.23-16.87-5.23-13.34,0-25.14,9.06-28.71,22.03-.93,3.39-4.38,5.42-7.8,4.59-2.64-.64-4.87-.94-7.03-.94-16.5,0-29.92,13.42-29.92,29.92,0,4.97,1.24,9.88,3.59,14.22l-11.43,6.19Z"></path>
</symbol><symbol id="i532_breakfast-9" xmlns="http://www.w3.org/2000/svg" viewBox="0 0 512 512">
  <path d="m420.47,423.79H91.53c-3.59,0-6.5-2.91-6.5-6.5v-243.94c0-11.53,9.38-20.91,20.91-20.91h314.53c3.59,0,6.5,2.91,6.5,6.5v258.35c0,3.59-2.91,6.5-6.5,6.5Zm-322.44-13h315.94v-245.35H105.94c-4.36,0-7.91,3.55-7.91,7.91v237.44Z"></path>
  <rect x="337.03" y="158.94" width="13" height="258.35"></rect>
  <path d="m343.53,334.85H91.53c-3.59,0-6.5-2.91-6.5-6.5v-80.47c0-3.59,2.91-6.5,6.5-6.5h252c3.59,0,6.5,2.91,6.5,6.5v80.47c0,3.59-2.91,6.5-6.5,6.5Zm-245.5-13h239v-67.47H98.03v67.47Z"></path>
  <path d="m279.88,165.44c-21.68,0-39.32-17.64-39.32-39.32s17.64-39.32,39.32-39.32,39.32,17.64,39.32,39.32-17.64,39.32-39.32,39.32Zm0-65.65c-14.52,0-26.32,11.81-26.32,26.32s11.81,26.32,26.32,26.32,26.32-11.81,26.32-26.32-11.81-26.32-26.32-26.32Z"></path>
  <path d="m279.89,99.79c-.38,0-.76-.03-1.14-.1-3.53-.63-5.89-4-5.26-7.54,1.21-6.88,2.93-26.68-3.51-35.63-1.71-2.37-3.8-3.67-6.59-4.1-3.55-.54-5.99-3.85-5.45-7.4.54-3.55,3.86-5.98,7.4-5.45,6.23.94,11.49,4.19,15.22,9.38,10.76,15,6.29,42.4,5.74,45.47-.56,3.15-3.3,5.37-6.39,5.37Z"></path>
  <path d="m458.77,472.5H53.23c-5.62,0-10.2-4.57-10.2-10.2v-41.31c0-5.62,4.57-10.2,10.2-10.2h405.55c5.62,0,10.2,4.57,10.2,10.2v41.31c0,5.62-4.57,10.2-10.2,10.2Zm-402.75-13h399.94v-35.71H56.03v35.71Z"></path>
  <g>
    <circle cx="158.24" cy="205.71" r="10.24"></circle>
    <path d="m158.24,222.44c-9.23,0-16.74-7.51-16.74-16.74s7.51-16.74,16.74-16.74,16.74,7.51,16.74,16.74-7.51,16.74-16.74,16.74Zm0-20.47c-2.06,0-3.74,1.68-3.74,3.74s1.68,3.74,3.74,3.74,3.74-1.68,3.74-3.74-1.68-3.74-3.74-3.74Z"></path>
  </g>
  <g>
    <circle cx="208.65" cy="210.47" r="10.24"></circle>
    <path d="m208.65,227.21c-9.23,0-16.74-7.51-16.74-16.74s7.51-16.74,16.74-16.74,16.74,7.51,16.74,16.74-7.51,16.74-16.74,16.74Zm0-20.47c-2.06,0-3.74,1.68-3.74,3.74s1.68,3.74,3.74,3.74,3.74-1.68,3.74-3.74-1.68-3.74-3.74-3.74Z"></path>
  </g>
  <g>
    <circle cx="302.47" cy="200.24" r="10.24"></circle>
    <path d="m302.47,216.97c-9.23,0-16.74-7.51-16.74-16.74s7.51-16.74,16.74-16.74,16.74,7.51,16.74,16.74-7.51,16.74-16.74,16.74Zm0-20.47c-2.06,0-3.74,1.68-3.74,3.74s1.68,3.74,3.74,3.74,3.74-1.68,3.74-3.74-1.68-3.74-3.74-3.74Z"></path>
  </g>
  <g>
    <circle cx="256" cy="190" r="10.24"></circle>
    <path d="m256,206.74c-9.23,0-16.74-7.51-16.74-16.74s7.51-16.74,16.74-16.74,16.74,7.51,16.74,16.74-7.51,16.74-16.74,16.74Zm0-20.47c-2.06,0-3.74,1.68-3.74,3.74s1.68,3.74,3.74,3.74,3.74-1.68,3.74-3.74-1.68-3.74-3.74-3.74Z"></path>
  </g>
</symbol>
</svg>