<?xml version="1.0" encoding="UTF-8"?>
<svg id="Layer_1" data-name="Layer 1" xmlns="http://www.w3.org/2000/svg" xmlns:xlink="http://www.w3.org/1999/xlink" viewBox="0 0 60 60">
  <defs>
    <linearGradient id="linear-gradient" x1="-1402.13" y1="-167.97" x2="-1342.13" y2="-167.97" gradientTransform="translate(197.97 -1342.13) rotate(-90)" gradientUnits="userSpaceOnUse">
      <stop offset="0" stop-color="#fff"/>
      <stop offset=".5" stop-color="#eaf6ff"/>
      <stop offset="1" stop-color="#eaf6ff"/>
    </linearGradient>
    <linearGradient id="linear-gradient-2" x1="29.79" y1="56.66" x2="30.21" y2="3.34" gradientUnits="userSpaceOnUse">
      <stop offset="0" stop-color="#1b5a6c"/>
      <stop offset="1" stop-color="#010409"/>
    </linearGradient>
  </defs>
  <circle cx="30" cy="30" r="30" fill="url(#linear-gradient)"/>
  <path d="m30,3.34C15.28,3.34,3.34,15.28,3.34,30s11.94,26.66,26.66,26.66,26.66-11.94,26.66-26.66S44.72,3.34,30,3.34Zm0,52.32c-14.15,0-25.66-11.51-25.66-25.66S15.85,4.34,30,4.34s25.66,11.51,25.66,25.66-11.51,25.66-25.66,25.66Z" fill="url(#linear-gradient-2)" opacity=".32"/>
  <g>
    <g>
      <path d="m43.6,21.46h-12.78c-3.04,0-5.5,2.46-5.5,5.5v12.78c0,3.04,2.46,5.5,5.5,5.5h12.78c3.04,0,5.5-2.46,5.5-5.5v-12.78c0-3.04-2.46-5.5-5.5-5.5Zm4.07,18.28c0,2.25-1.83,4.07-4.07,4.07h-12.78c-2.25,0-4.07-1.83-4.07-4.07v-12.78c0-2.25,1.83-4.07,4.07-4.07h12.78c2.25,0,4.07,1.83,4.07,4.07v12.78Z" fill="#231f20"/>
      <path d="m43.6,45.47h-12.78c-3.16,0-5.73-2.57-5.73-5.73v-12.78c0-3.16,2.57-5.73,5.73-5.73h12.78c3.16,0,5.73,2.57,5.73,5.73v12.78c0,3.16-2.57,5.73-5.73,5.73Zm-12.78-23.77c-2.9,0-5.26,2.36-5.26,5.26v12.78c0,2.9,2.36,5.26,5.26,5.26h12.78c2.9,0,5.26-2.36,5.26-5.26v-12.78c0-2.9-2.36-5.26-5.26-5.26h-12.78Zm12.78,22.35h-12.78c-2.38,0-4.31-1.93-4.31-4.31v-12.78c0-2.37,1.93-4.31,4.31-4.31h12.78c2.38,0,4.31,1.93,4.31,4.31v12.78c0,2.38-1.93,4.31-4.31,4.31Zm-12.78-20.92c-2.12,0-3.84,1.72-3.84,3.84v12.78c0,2.12,1.72,3.84,3.84,3.84h12.78c2.12,0,3.84-1.72,3.84-3.84v-12.78c0-2.12-1.72-3.84-3.84-3.84h-12.78Z" fill="#231f20"/>
    </g>
    <g>
      <path d="m42.94,38.4l-4.63-12.27s0-.02,0-.02c-.18-.43-.6-.72-1.07-.72h0c-.47,0-.89.28-1.07.72,0,0,0,.01,0,.02l-4.67,12.27c-.17.45.05.95.5,1.13.1.04.21.06.31.06.35,0,.68-.21.82-.56l.95-2.49h6.3l.94,2.49c.17.45.67.68,1.12.51.45-.17.68-.67.51-1.12Zm-3.18-3.58s-.03.03-.05.03h-4.98s-.04-.01-.05-.03c-.01-.02-.01-.04,0-.06l2.5-6.57s.03-.04.06-.04h0s.05.02.06.04l2.48,6.57s0,.04,0,.06Z" fill="#231f20"/>
      <path d="m42.12,39.81c-.16,0-.31-.03-.46-.1-.27-.12-.48-.34-.58-.62l-.88-2.34h-5.98l-.89,2.34c-.21.55-.87.85-1.43.64-.57-.22-.86-.86-.64-1.43l4.67-12.27c.22-.55.73-.89,1.29-.89.57,0,1.07.34,1.29.86l4.64,12.3c.22.57-.07,1.21-.64,1.43-.13.05-.26.07-.39.07Zm-8.22-3.53h6.63l1,2.64c.06.16.18.29.33.36.16.07.33.08.49.02.33-.12.5-.49.37-.82l-4.63-12.27c-.15-.36-.48-.59-.86-.59-.38,0-.71.22-.85.57l-4.68,12.28c-.12.33.04.7.37.82.32.12.7-.05.82-.37l1.01-2.64Zm5.81-1.21h-5.1l-.12-.13c-.06-.08-.07-.18-.04-.27l2.5-6.57c.09-.23.47-.23.56,0l2.52,6.69-.08.15h0s-.07.1-.07.1l-.18.03Zm-4.73-.47h4.48l-2.23-5.91-2.25,5.91Zm2.41-6.33h0s0,0,0,0Z" fill="#231f20"/>
    </g>
    <g>
      <path d="m22.18,23.25c-.4,0-.73-.32-.73-.73v-1.18c0-.4.32-.73.73-.73s.73.32.73.73v1.18c0,.4-.32.73-.73.73Z" fill="#231f20"/>
      <path d="m22.18,23.49c-.53,0-.96-.43-.96-.96v-1.18c0-.53.43-.96.96-.96s.96.43.96.96v1.18c0,.53-.43.96-.96.96Zm0-2.63c-.27,0-.49.22-.49.49v1.18c0,.27.22.49.49.49s.49-.22.49-.49v-1.18c0-.27-.22-.49-.49-.49Z" fill="#231f20"/>
    </g>
    <g>
      <path d="m24,37.17h-7.6c-2.27,0-4.12-1.85-4.12-4.12v-12.78c0-2.27,1.85-4.12,4.12-4.12h12.78c2.23,0,4.04,1.78,4.11,3.99h1.37c-.07-2.97-2.49-5.36-5.48-5.36h-12.78c-3.04,0-5.5,2.46-5.5,5.5v12.78c0,3.04,2.46,5.5,5.5,5.5h7.6v-1.37Z" fill="#231f20"/>
      <path d="m24.24,38.78h-7.84c-3.16,0-5.73-2.57-5.73-5.73v-12.78c0-3.16,2.57-5.73,5.73-5.73h12.78c3.13,0,5.64,2.46,5.72,5.59v.24s-1.83,0-1.83,0v-.23c-.08-2.11-1.78-3.76-3.88-3.76h-12.78c-2.14,0-3.89,1.74-3.89,3.89v12.78c0,2.14,1.74,3.89,3.89,3.89h7.84v1.84Zm-7.84-23.77c-2.9,0-5.26,2.36-5.26,5.26v12.78c0,2.9,2.36,5.26,5.26,5.26h7.37v-.9h-7.37c-2.4,0-4.36-1.96-4.36-4.36v-12.78c0-2.4,1.96-4.36,4.36-4.36h12.78c2.28,0,4.14,1.74,4.33,3.99h.9c-.19-2.76-2.44-4.89-5.24-4.89h-12.78Z" fill="#231f20"/>
    </g>
    <g>
      <g>
        <path d="m27.48,23.25c.4,0,.73-.32.73-.73,0-.09-.02-.16-.05-.24-.49.25-.92.57-1.29.97h.61Z" fill="#231f20"/>
        <path d="m27.48,23.49h-1.15l.36-.39c.38-.41.84-.76,1.36-1.02l.24-.12.09.25c.03.08.06.19.06.32,0,.53-.43.96-.96.96Zm-.02-.47h.02c.22,0,.41-.15.47-.35-.17.11-.34.22-.49.35Z" fill="#231f20"/>
      </g>
      <g>
        <path d="m26.11,21.8h-9.24c-.4,0-.73.32-.73.73s.32.73.73.73h8.07c.32-.54.71-1.03,1.17-1.45Z" fill="#231f20"/>
        <path d="m25.08,23.49h-8.21c-.53,0-.96-.43-.96-.96s.43-.96.96-.96h9.86l-.45.41c-.44.4-.82.87-1.13,1.39l-.07.12Zm-8.21-1.45c-.27,0-.49.22-.49.49s.22.49.49.49h7.94c.22-.35.46-.68.74-.98h-8.68Z" fill="#231f20"/>
      </g>
    </g>
    <g>
      <path d="m24.09,26.29c0-1.74.74-3.3,1.92-4.41-.05-.02-.1-.05-.15-.06-.39-.08-.77.17-.85.57-.01.06-1.21,5.64-6.74,8.96-.34.21-.45.65-.25.99.14.23.38.35.62.35.13,0,.26-.03.37-.1,2.34-1.4,3.96-3.14,5.08-4.78v-1.52Z" fill="#231f20"/>
      <path d="m18.64,32.92c-.34,0-.65-.18-.82-.47-.13-.22-.17-.48-.11-.73.06-.25.22-.46.44-.59,5.42-3.25,6.62-8.75,6.63-8.8.1-.52.61-.86,1.13-.75.07.01.13.04.17.06l.3.15-.2.25c-1.19,1.12-1.85,2.63-1.85,4.24v1.59l-.04.06c-1.36,1.98-3.09,3.61-5.15,4.85-.15.09-.32.14-.49.14Zm5.23-7.11c-1.01,1.84-2.72,4.06-5.49,5.73-.23.14-.31.44-.17.67.13.22.45.3.67.17,1.98-1.19,3.65-2.75,4.97-4.65v-1.44c0-.16,0-.32.02-.47Zm1.58-3.7c-.08.05-.15.13-.19.22.06-.08.13-.15.19-.22Z" fill="#231f20"/>
    </g>
    <g>
      <g>
        <path d="m25.71,32.69c.25,0,.49-.13.62-.35.21-.34.09-.79-.25-.99-.15-.09-.28-.19-.42-.28v1.61s.03.01.05.01Z" fill="#231f20"/>
        <path d="m25.71,32.92l-.34-.04.06-.21v-2.05l.53.35c.08.05.16.11.24.16.22.13.37.34.44.59.06.25.02.51-.11.73-.17.29-.49.47-.82.47Zm.19-1.42v.91c.09-.04.18-.11.23-.2.07-.11.09-.24.06-.37-.03-.13-.11-.23-.22-.3-.02-.01-.04-.03-.06-.04Z" fill="#231f20"/>
      </g>
      <g>
        <path d="m24.1,29.9c-2.07-1.76-3.29-3.78-3.98-5.31-.16-.37-.59-.53-.96-.36-.37.16-.53.59-.36.96.86,1.91,2.45,4.49,5.3,6.58v-1.86Z" fill="#231f20"/>
        <path d="m24.33,32.22l-.37-.27c-2.94-2.15-4.55-4.81-5.38-6.67-.11-.23-.11-.49-.02-.73.09-.24.27-.43.5-.53.23-.11.5-.11.73-.02.24.09.43.27.53.5.63,1.4,1.82,3.44,3.92,5.23l.08.07v2.43Zm-4.88-7.83c-.07,0-.14.01-.2.04-.12.05-.21.15-.26.27-.05.12-.04.26.01.37.77,1.73,2.24,4.17,4.86,6.2v-1.28c-2.12-1.83-3.32-3.9-3.96-5.33-.05-.12-.15-.21-.27-.26-.06-.02-.12-.03-.17-.03Z" fill="#231f20"/>
      </g>
    </g>
  </g>
</svg>