<?xml version="1.0" encoding="UTF-8"?>
<svg id="Layer_2" data-name="Layer 2" xmlns="http://www.w3.org/2000/svg" viewBox="0 0 25 24.41">
  <g id="Layer_1-2" data-name="Layer 1">
    <g>
      <path d="m7.49,6.28C3.62,6.28.45,9.18.05,12.97h-.05v11.45l3.41-3.16h4.08c4.13,0,7.49-3.36,7.49-7.49s-3.36-7.49-7.49-7.49Z" fill="#3c4552"/>
      <path d="m10.02,7.49c0,4.13,3.36,7.49,7.49,7.49h4.08l3.41,3.16V6.69h-.05c-.4-3.79-3.57-6.69-7.44-6.69-4.13,0-7.49,3.36-7.49,7.49Zm1.06,0c0-3.54,2.88-6.43,6.43-6.43s6.28,2.72,6.41,6.18v.34s.01,8.12.01,8.12l-1.93-1.79h-4.5c-3.54,0-6.43-2.88-6.43-6.43Z" fill="#3c4552"/>
      <path d="m10.68,12.61v-.87h-2.73v-.9h-.87v.9h-2.73v.87h1.15c.12.58.45,1.7,1.39,2.78-.61.52-1.42.99-2.5,1.33l.25.83c1.24-.38,2.17-.93,2.87-1.54.7.61,1.63,1.16,2.87,1.54l.25-.83c-1.08-.33-1.89-.81-2.5-1.33.94-1.08,1.27-2.2,1.39-2.78h1.17Zm-3.18,2.16c-.71-.82-1-1.66-1.12-2.16h2.24c-.12.5-.41,1.34-1.12,2.16Z" fill="#fff"/>
      <path d="m15.27,10.93l2.59-6.74h.96l2.76,6.74h-1.02l-.79-2.04h-2.82l-.74,2.04h-.95Zm1.94-2.77h2.28l-.7-1.87c-.21-.57-.37-1.03-.48-1.4-.09.43-.21.86-.36,1.29l-.74,1.98Z" fill="#3c4552"/>
    </g>
  </g>
</svg>