<svg width="72" height="23" viewBox="0 0 58 58" fill="none" xmlns="http://www.w3.org/2000/svg">
<path d="M70.3726 28.9975C70.3726 26.1872 68.3031 23.9091 65.7501 23.9091H5.62249C3.06952 23.9091 1 26.1872 1 28.9975V29.0025C1 31.8128 3.06952 34.0909 5.62249 34.0909H65.7501C68.3031 34.0909 70.3726 31.8128 70.3726 29.0025V28.9975Z" stroke="white" stroke-width="2" stroke-miterlimit="10" stroke-linecap="round" stroke-linejoin="round"/>
<path d="M70.3726 6.08832C70.3726 3.27807 68.3031 0.999995 65.7501 0.999995H5.62249C3.06952 0.999995 1 3.27807 1 6.08832V6.09339C1 8.90364 3.06952 11.1817 5.62249 11.1817H65.7501C68.3031 11.1817 70.3726 8.90364 70.3726 6.09339V6.08832Z" stroke="white" stroke-width="2" stroke-miterlimit="10" stroke-linecap="round" stroke-linejoin="round"/>
<path d="M70.3726 51.9066C70.3726 49.0964 68.3031 46.8183 65.7501 46.8183H5.62249C3.06952 46.8183 1 49.0964 1 51.9066V51.9117C1 54.7219 3.06952 57 5.62249 57H65.7501C68.3031 57 70.3726 54.7219 70.3726 51.9117V51.9066Z" stroke="white" stroke-width="2" stroke-miterlimit="10" stroke-linecap="round" stroke-linejoin="round"/>
</svg>
