<?xml version="1.0" encoding="UTF-8"?>
<svg id="Layer_1" data-name="Layer 1" xmlns="http://www.w3.org/2000/svg" xmlns:xlink="http://www.w3.org/1999/xlink" viewBox="0 0 60 60">
  <defs>
    <linearGradient id="linear-gradient" x1="30" y1="-98" x2="30" y2="-158" gradientTransform="translate(0 -98) scale(1 -1)" gradientUnits="userSpaceOnUse">
      <stop offset="0" stop-color="#f95f09"/>
      <stop offset="1" stop-color="#cc1600"/>
    </linearGradient>
  </defs>
  <path d="m30,60c16.57,0,30-13.43,30-30S46.57,0,30,0,0,13.43,0,30s13.43,30,30,30Z" fill="url(#linear-gradient)"/>
  <g id="_6" data-name="6">
    <path d="m29.51,37.04c-.44.44-.44,1.15,0,1.59.44.44,1.16.44,1.6,0l7.78-7.78c.23-.24.33-.55.32-.85.02-.31-.08-.62-.32-.85l-7.78-7.78c-.44-.44-1.16-.44-1.6,0s-.44,1.15,0,1.59l5.91,5.91H11.08c-.62,0-1.13.51-1.13,1.13s.5,1.13,1.13,1.13h24.35l-5.91,5.91Zm12.02-22.83h-22.56c-2.49,0-4.51,2.02-4.51,4.51v4.51h2.26v-4.51c0-1.25,1.01-2.26,2.26-2.26h22.56c1.25,0,2.26,1.01,2.26,2.26v22.56c0,1.25-1.01,2.26-2.26,2.26h-22.56c-1.25,0-2.26-1.01-2.26-2.26v-4.51h-2.26v4.51c0,2.49,2.02,4.51,4.51,4.51h22.56c2.49,0,4.51-2.02,4.51-4.51v-22.56c0-2.49-2.02-4.51-4.51-4.51Z" fill="#fff"/>
    <path d="m29.51,37.04c-.44.44-.44,1.15,0,1.59.44.44,1.16.44,1.6,0l7.78-7.78c.23-.24.33-.55.32-.85.02-.31-.08-.62-.32-.85l-7.78-7.78c-.44-.44-1.16-.44-1.6,0s-.44,1.15,0,1.59l5.91,5.91H11.08c-.62,0-1.13.51-1.13,1.13s.5,1.13,1.13,1.13h24.35l-5.91,5.91Zm12.02-22.83h-22.56c-2.49,0-4.51,2.02-4.51,4.51v4.51h2.26v-4.51c0-1.25,1.01-2.26,2.26-2.26h22.56c1.25,0,2.26,1.01,2.26,2.26v22.56c0,1.25-1.01,2.26-2.26,2.26h-22.56c-1.25,0-2.26-1.01-2.26-2.26v-4.51h-2.26v4.51c0,2.49,2.02,4.51,4.51,4.51h22.56c2.49,0,4.51-2.02,4.51-4.51v-22.56c0-2.49-2.02-4.51-4.51-4.51Z" fill="none" stroke="#fff" stroke-miterlimit="10"/>
  </g>
</svg>