<?xml version="1.0" encoding="UTF-8"?>
<svg id="Layer_1" data-name="Layer 1" xmlns="http://www.w3.org/2000/svg" xmlns:xlink="http://www.w3.org/1999/xlink" viewBox="0 0 60 60">
  <defs>
    <linearGradient id="linear-gradient" x1="30" y1="-18" x2="30" y2="-78" gradientTransform="translate(0 -18) scale(1 -1)" gradientUnits="userSpaceOnUse">
      <stop offset="0" stop-color="#f95f09"/>
      <stop offset="1" stop-color="#cc1600"/>
    </linearGradient>
  </defs>
  <path d="m30,60c16.57,0,30-13.43,30-30S46.57,0,30,0,0,13.43,0,30s13.43,30,30,30Z" fill="url(#linear-gradient)"/>
  <path d="m27.11,28.69v-14.44c0-1.59,1.29-2.89,2.89-2.89s2.89,1.29,2.89,2.89v14.44c0,1.59-1.29,2.89-2.89,2.89s-2.89-1.29-2.89-2.89Zm14.33-13.09c-.94-.74-2.3-.58-3.04.36-.74.94-.58,2.3.36,3.04,3.44,2.71,5.4,6.77,5.4,11.14,0,7.81-6.36,14.17-14.17,14.17s-14.17-6.36-14.17-14.17c0-4.37,1.97-8.42,5.4-11.13.94-.74,1.1-2.1.36-3.04-.74-.94-2.1-1.1-3.04-.36-4.48,3.53-7.05,8.83-7.05,14.53,0,10.2,8.3,18.5,18.5,18.5s18.5-8.3,18.5-18.5c0-5.7-2.57-11-7.05-14.54Z" fill="#fff"/>
</svg>