<svg width="60" height="60" viewBox="0 0 60 60" fill="none" xmlns="http://www.w3.org/2000/svg">
<path d="M30 60C46.5685 60 60 46.5685 60 30C60 13.4315 46.5685 0 30 0C13.4315 0 0 13.4315 0 30C0 46.5685 13.4315 60 30 60Z" fill="url(#paint0_linear_306_375)"/>
<path d="M29.9796 11.0001C29.7297 11.0026 29.4828 11.0545 29.253 11.1529C29.0231 11.2513 28.8149 11.3943 28.6401 11.5736C28.4653 11.753 28.3275 11.9653 28.2345 12.1982C28.1414 12.4311 28.095 12.6801 28.098 12.9311V28.2034C28.0981 28.71 28.2986 29.1959 28.6552 29.554C29.0119 29.9122 29.4956 30.1133 30 30.1133C30.5044 30.1133 30.9881 29.9122 31.3448 29.554C31.7015 29.1959 31.9019 28.71 31.902 28.2034V12.9311C31.905 12.6767 31.8573 12.4242 31.7617 12.1886C31.6662 11.953 31.5247 11.7389 31.3456 11.559C31.1665 11.3791 30.9533 11.237 30.7188 11.141C30.4842 11.0451 30.2329 10.9972 29.9796 11.0001ZM41.0652 14.8285C41.0034 14.8267 40.9414 14.8279 40.8797 14.8322C40.504 14.8642 40.1463 15.0078 39.8521 15.2446C39.5578 15.4814 39.3404 15.8007 39.2274 16.162C39.1144 16.5233 39.1109 16.9103 39.2175 17.2735C39.324 17.6368 39.5357 17.96 39.8257 18.2021C43.1172 21.0096 45.1996 25.1883 45.1996 29.8808C45.1996 38.3537 38.4259 45.1829 30.0093 45.1829C21.5926 45.1829 14.8041 38.3537 14.8041 29.8808C14.8041 25.2154 16.86 21.0651 20.1187 18.2579C20.3085 18.0952 20.4646 17.8964 20.578 17.673C20.6913 17.4497 20.7598 17.2061 20.7795 16.9562C20.7991 16.7063 20.7696 16.455 20.6925 16.2166C20.6154 15.9781 20.4923 15.7572 20.3303 15.5666C20.1682 15.3759 19.9704 15.2191 19.748 15.1052C19.5256 14.9914 19.2831 14.9225 19.0343 14.9028C18.7854 14.883 18.5352 14.9128 18.2978 14.9902C18.0604 15.0676 17.8405 15.1912 17.6506 15.354C13.5829 18.8582 11 24.0815 11 29.8808C11 40.4132 19.5353 49.0001 30.0093 49.0001C40.4832 49.0001 49 40.4132 49 29.8808C49 24.0476 46.3916 18.8029 42.2825 15.2981C41.9446 15.0022 41.5135 14.8359 41.0652 14.8285Z" fill="white"/>
<defs>
<linearGradient id="paint0_linear_306_375" x1="30" y1="0" x2="30" y2="60" gradientUnits="userSpaceOnUse">
<stop stop-color="#F95F09"/>
<stop offset="1" stop-color="#CC1600"/>
</linearGradient>
</defs>
</svg>
