<?xml version="1.0" encoding="UTF-8"?>
<svg id="Layer_1" data-name="Layer 1" xmlns="http://www.w3.org/2000/svg" xmlns:xlink="http://www.w3.org/1999/xlink" viewBox="0 0 427 239">
  <defs>
    <linearGradient id="linear-gradient" x1="209.71" y1="313.05" x2="216.44" y2="-29.06" gradientTransform="translate(0 240) scale(1 -1)" gradientUnits="userSpaceOnUse">
      <stop offset="0" stop-color="#7e9cd4"/>
      <stop offset="1" stop-color="#cfdeff"/>
    </linearGradient>
  </defs>
  <g fill="none" opacity=".79">
    <path d="m427,0H0v239h427V0Z" fill="url(#linear-gradient)"/>
    <g>
      <g>
        <path d="m192.9,171.4c-3.24,0-5.87-2.64-5.87-5.87v-56.35c-5.33-3.38-8.85-11.19-8.85-19.84,0-5.66,1.46-11.01,4.11-15.05,2.78-4.24,6.55-6.58,10.61-6.58s7.83,2.34,10.61,6.58c2.65,4.04,4.11,9.39,4.11,15.05,0,8.65-3.52,16.46-8.85,19.84v56.35c0,3.24-2.64,5.87-5.87,5.87Zm0-100.58c-2.97,0-5.82,1.84-8.01,5.18-2.32,3.54-3.6,8.28-3.6,13.34,0,7.97,3.22,15.03,8.02,17.57.51.27.83.8.83,1.38v57.24c0,1.52,1.24,2.76,2.76,2.76s2.76-1.24,2.76-2.76v-57.24c0-.58.32-1.11.83-1.38,4.8-2.54,8.02-9.6,8.02-17.57,0-5.06-1.28-9.8-3.6-13.34-2.19-3.34-5.03-5.18-8.01-5.18Z" fill="#fff"/>
        <path d="m230.95,171.4c-.15,0-.3-.02-.44-.06-2.86-.41-5.06-3.01-5.06-6.05v-54.74c-7.26-2.49-12.23-9.36-12.23-17.11v-20.91c0-2.71,2.21-4.92,4.92-4.92s4.92,2.21,4.92,4.92v17.34c0,.98.8,1.78,1.78,1.78s1.78-.8,1.78-1.78v-17.53c0-2.26,1.61-4.21,3.82-4.63.06-.01.12-.02.18-.02.1-.02.24-.04.42-.04.18,0,.38.02.6.06,2.21.43,3.81,2.38,3.81,4.63v17.53c0,.98.8,1.78,1.78,1.78s1.78-.8,1.78-1.78v-17.34c0-2.71,2.21-4.92,4.92-4.92s4.92,2.21,4.92,4.92v20.91c0,7.75-4.97,14.62-12.23,17.11v54.74c0,3.05-2.21,5.65-5.09,6.05-.16.05-.32.07-.48.06-.02,0-.05,0-.07,0Zm-12.82-100.68c-.99,0-1.8.81-1.8,1.8v20.91c0,6.75,4.56,12.69,11.08,14.45.68.18,1.15.8,1.15,1.5v55.89c0,1.52,1.07,2.81,2.46,2.97,1.38-.16,2.46-1.45,2.46-2.97v-55.89c0-.7.47-1.32,1.15-1.5,6.52-1.76,11.08-7.71,11.08-14.45v-20.91c0-.99-.81-1.8-1.8-1.8s-1.8.81-1.8,1.8v17.34c0,2.7-2.19,4.89-4.89,4.89s-4.89-2.19-4.89-4.89v-17.53c0-.76-.54-1.42-1.29-1.57-.03,0-.06,0-.1.01-.71.17-1.23.82-1.23,1.56v17.53c0,2.7-2.19,4.89-4.89,4.89s-4.89-2.19-4.89-4.89v-17.34c0-.99-.81-1.8-1.8-1.8Zm13.04.02s0,0,0,0c0,0,0,0,0,0Zm-.46-3.08h0,0Zm0,0h0,0Z" fill="#fff"/>
      </g>
      <circle cx="213.5" cy="119.5" r="95.18" fill="none" stroke="#fff" stroke-miterlimit="10" stroke-width="7"/>
      <circle cx="213.5" cy="119.5" r="79.49" fill="none" stroke="#fff" stroke-miterlimit="10" stroke-width="3"/>
    </g>
  </g>
  <g>
    <circle cx="375.64" cy="146.99" r="27.5" fill="#f56e4f"/>
    <path d="m349.73,182.83l-2.51,7.66h-2.02l3.43-9.24h1.29l-.18,1.58Zm2.09,7.66l-2.52-7.66-.2-1.58h1.3l3.45,9.24h-2.03Zm-.11-3.44v1.49h-4.88v-1.49h4.88Zm6.94,1.94v-8.25h1.84v9.75h-1.66l-.18-1.5Zm-4.34-1.85v-.13c0-.52.06-1,.18-1.43.12-.43.29-.8.52-1.11.23-.31.51-.55.84-.72.33-.17.71-.25,1.14-.25.4,0,.75.08,1.05.25.3.17.56.41.77.72.22.31.39.68.52,1.1.13.42.23.88.29,1.38v.29c-.06.48-.15.92-.29,1.33-.13.41-.3.77-.52,1.08-.21.3-.47.54-.77.71-.3.17-.66.25-1.07.25-.43,0-.81-.09-1.14-.26-.33-.17-.61-.42-.84-.73-.22-.31-.4-.68-.51-1.1-.12-.42-.18-.88-.18-1.38Zm1.83-.13v.13c0,.28.02.55.06.79.05.24.12.46.22.65.11.19.24.33.41.44.17.1.37.15.62.15.31,0,.57-.07.77-.21.2-.14.36-.34.46-.59.11-.25.17-.54.19-.86v-.83c-.01-.27-.05-.5-.11-.72-.06-.22-.15-.4-.27-.55-.11-.15-.26-.27-.43-.36-.17-.08-.37-.13-.6-.13s-.44.06-.61.17c-.17.11-.31.25-.41.44-.1.19-.18.41-.23.66-.05.25-.07.52-.07.81Zm9.84,1.99v-8.25h1.84v9.75h-1.66l-.18-1.5Zm-4.34-1.85v-.13c0-.52.06-1,.18-1.43.12-.43.29-.8.52-1.11.23-.31.51-.55.84-.72.33-.17.72-.25,1.14-.25.4,0,.75.08,1.05.25.3.17.56.41.77.72.22.31.39.68.52,1.1.13.42.23.88.28,1.38v.29c-.06.48-.15.92-.28,1.33-.13.41-.31.77-.52,1.08-.21.3-.47.54-.77.71-.3.17-.66.25-1.07.25-.43,0-.81-.09-1.14-.26-.33-.17-.61-.42-.84-.73-.23-.31-.4-.68-.51-1.1-.12-.42-.18-.88-.18-1.38Zm1.83-.13v.13c0,.28.02.55.06.79.05.24.12.46.22.65.11.19.24.33.41.44.17.1.37.15.62.15.31,0,.57-.07.77-.21.2-.14.36-.34.46-.59.11-.25.17-.54.19-.86v-.83c-.01-.27-.05-.5-.11-.72-.06-.22-.15-.4-.27-.55-.11-.15-.26-.27-.43-.36-.17-.08-.37-.13-.6-.13s-.44.06-.61.17c-.17.11-.31.25-.41.44-.1.19-.18.41-.23.66-.05.25-.07.52-.07.81Zm12.73.19h-2.35v-1.49h2.35c.36,0,.66-.06.89-.18.23-.12.4-.29.5-.51.1-.22.16-.46.16-.73s-.05-.53-.16-.77c-.11-.24-.27-.43-.5-.57-.23-.14-.52-.21-.89-.21h-1.69v7.75h-1.9v-9.24h3.6c.72,0,1.34.13,1.86.39.52.26.92.62,1.19,1.07s.41.98.41,1.57-.14,1.11-.41,1.55c-.27.44-.67.77-1.19,1.01-.52.24-1.14.36-1.86.36Zm6.45-6.46v9.75h-1.83v-9.75h1.83Zm-.26,6.07h-.5c0-.48.07-.92.19-1.32.12-.41.3-.76.53-1.05.23-.3.5-.53.82-.7.32-.16.68-.25,1.07-.25.34,0,.65.05.92.15.28.09.52.24.72.46.2.21.36.48.47.82.11.34.17.75.17,1.23v4.34h-1.84v-4.35c0-.3-.04-.54-.13-.72-.09-.18-.21-.3-.38-.37-.16-.08-.36-.12-.6-.12-.26,0-.49.05-.67.15-.18.1-.33.23-.44.41-.11.17-.19.37-.24.6-.05.23-.08.47-.08.74Zm5.47.31v-.13c0-.5.07-.97.22-1.39.14-.43.35-.8.63-1.11.27-.31.61-.56,1.02-.73.4-.18.86-.27,1.38-.27s.98.09,1.39.27c.41.17.75.42,1.02.73.28.31.49.68.63,1.11.14.42.22.89.22,1.39v.13c0,.5-.07.96-.22,1.39-.14.42-.36.79-.63,1.11-.27.31-.61.56-1.02.73-.4.17-.86.26-1.38.26s-.98-.09-1.39-.26c-.4-.17-.74-.42-1.02-.73-.27-.32-.48-.69-.63-1.11-.14-.43-.22-.89-.22-1.39Zm1.83-.13v.13c0,.29.03.56.08.81.05.25.13.47.24.66.11.19.26.33.44.44.18.11.4.16.67.16s.47-.05.65-.16c.18-.11.33-.25.44-.44.11-.19.19-.41.24-.66.06-.25.08-.52.08-.81v-.13c0-.28-.03-.54-.08-.79-.05-.25-.13-.47-.25-.66-.11-.19-.26-.35-.44-.46-.18-.11-.4-.17-.66-.17s-.48.06-.66.17c-.18.11-.32.26-.44.46-.11.19-.19.41-.24.66-.05.25-.08.51-.08.79Zm9.17-3.37v1.29h-4v-1.29h4Zm-3.01-1.7h1.83v6.49c0,.2.02.35.08.46.06.1.14.18.24.22.11.04.24.06.4.06.11,0,.22,0,.3-.01.09-.01.17-.03.24-.04v1.35c-.15.05-.32.09-.5.12-.18.03-.38.04-.6.04-.4,0-.75-.07-1.05-.2-.3-.13-.52-.35-.68-.65-.16-.3-.24-.69-.24-1.17v-6.68Zm3.59,5.2v-.13c0-.5.07-.97.22-1.39.14-.43.35-.8.63-1.11.27-.31.61-.56,1.02-.73.4-.18.86-.27,1.38-.27s.98.09,1.39.27c.41.17.75.42,1.02.73.28.31.49.68.63,1.11.14.42.22.89.22,1.39v.13c0,.5-.07.96-.22,1.39-.14.42-.36.79-.63,1.11-.28.31-.61.56-1.02.73-.4.17-.86.26-1.38.26s-.98-.09-1.39-.26c-.4-.17-.74-.42-1.02-.73-.27-.32-.48-.69-.63-1.11-.14-.43-.22-.89-.22-1.39Zm1.83-.13v.13c0,.29.03.56.08.81.05.25.13.47.24.66.11.19.26.33.44.44.18.11.4.16.67.16s.47-.05.65-.16c.18-.11.33-.25.44-.44.11-.19.19-.41.24-.66.05-.25.08-.52.08-.81v-.13c0-.28-.03-.54-.08-.79-.05-.25-.13-.47-.25-.66-.11-.19-.26-.35-.44-.46-.18-.11-.4-.17-.66-.17s-.48.06-.66.17c-.18.11-.32.26-.44.46-.11.19-.19.41-.24.66-.05.25-.08.51-.08.79Z"/>
    <path d="m376.14,131.49v30" fill="none" stroke="#fff" stroke-linecap="round" stroke-width="3"/>
    <path d="m361.14,146.49h30" fill="none" stroke="#fff" stroke-linecap="round" stroke-width="3"/>
  </g>
  <g fill="none" opacity=".76">
    <rect x="122.29" y="200.9" width="288.53" height="27.55" rx="13.78" ry="13.78" fill="#fff"/>
    <g>
      <path d="m146.26,215.29h-2.3l-.7,4.02h-1.29l1.73-9.95h2.99c1.04.01,1.84.28,2.39.8s.78,1.24.69,2.14c-.05.62-.28,1.17-.68,1.65-.4.47-.94.83-1.61,1.08l1.54,4.2v.09h-1.37l-1.39-4.02Zm-2.11-1.08h1.89c.66,0,1.21-.17,1.66-.52.45-.35.72-.82.79-1.4.07-.57-.05-1.02-.34-1.34s-.75-.49-1.35-.51h-1.99s-.66,3.77-.66,3.77Z" fill="#58595b"/>
      <path d="m153.42,219.44c-.92-.02-1.64-.36-2.16-1.02s-.74-1.51-.66-2.54l.03-.29c.08-.73.29-1.4.65-2.01.36-.61.79-1.06,1.31-1.37.51-.31,1.07-.46,1.67-.44.76.02,1.36.27,1.79.76s.67,1.15.71,1.98c.01.3,0,.59-.03.89l-.08.57h-4.83c-.08.67.03,1.24.33,1.71.3.47.76.71,1.36.73.73.02,1.4-.31,2.02-.98l.71.6c-.31.45-.71.8-1.2,1.05-.49.25-1.04.37-1.64.37Zm.79-6.64c-.51-.01-.96.16-1.34.52-.38.36-.68.9-.91,1.61h3.6s.03-.1.03-.1c.07-.57-.02-1.05-.28-1.43-.26-.38-.62-.58-1.1-.59Z" fill="#58595b"/>
      <path d="m160.6,218.42c.44,0,.84-.12,1.2-.39.36-.27.59-.62.7-1.05h1.17c-.07.46-.25.88-.56,1.26-.3.38-.69.68-1.15.9s-.93.31-1.42.3c-.62,0-1.14-.17-1.56-.48-.43-.31-.74-.75-.94-1.3-.2-.56-.27-1.19-.21-1.88l.03-.34c.09-.71.29-1.35.62-1.91s.76-1,1.29-1.31c.53-.31,1.11-.46,1.75-.44.77.02,1.39.28,1.86.78s.7,1.14.7,1.91h-1.16c0-.49-.14-.88-.4-1.18-.26-.3-.61-.46-1.05-.48-.64-.01-1.18.23-1.6.72-.43.49-.69,1.18-.8,2.06l-.02.18c-.03.29-.03.59-.01.9.03.53.18.96.45,1.26s.64.47,1.11.49Z" fill="#58595b"/>
      <path d="m168.77,211.77c.62,0,1.15.18,1.59.51s.77.78.98,1.36c.21.58.28,1.21.21,1.89v.15c-.1.72-.31,1.37-.66,1.95-.34.58-.78,1.03-1.33,1.36s-1.14.48-1.78.46c-.62,0-1.15-.18-1.59-.51-.45-.33-.77-.77-.97-1.34s-.28-1.19-.22-1.87c.07-.77.28-1.45.62-2.06s.79-1.08,1.34-1.42c.54-.33,1.14-.49,1.8-.47Zm-2.52,3.96c-.03.29-.03.59,0,.9.05.54.21.97.48,1.29.28.32.64.49,1.1.5.41.01.79-.09,1.13-.3.35-.22.64-.54.88-.98s.39-.92.46-1.46c.04-.42.04-.77.02-1.06-.05-.55-.22-.99-.5-1.31s-.65-.49-1.11-.51c-.64-.01-1.18.24-1.63.75s-.72,1.19-.83,2.02v.16Z" fill="#58595b"/>
      <path d="m174.91,211.9l-.16.83c.62-.66,1.37-.98,2.25-.96.47,0,.87.12,1.19.32.33.21.55.49.67.87.69-.81,1.51-1.21,2.45-1.19.74.02,1.28.27,1.63.75s.48,1.12.39,1.93l-.81,4.86h-1.23l.81-4.87c.03-.24.03-.45,0-.65-.09-.62-.49-.94-1.22-.95-.45,0-.86.13-1.23.42-.37.29-.6.67-.71,1.14l-.84,4.92h-1.24l.82-4.87c.06-.51-.02-.9-.23-1.17-.21-.27-.54-.42-.99-.42-.77-.02-1.38.33-1.84,1.05l-.94,5.41h-1.24l1.29-7.4h1.16Z" fill="#58595b"/>
      <path d="m186.88,211.9l-.16.83c.62-.66,1.37-.98,2.25-.96.47,0,.87.12,1.19.32.33.21.55.49.67.87.69-.81,1.51-1.21,2.45-1.19.74.02,1.28.27,1.63.75s.48,1.12.39,1.93l-.81,4.86h-1.23l.81-4.87c.03-.24.03-.45,0-.65-.09-.62-.49-.94-1.22-.95-.45,0-.86.13-1.23.42-.37.29-.6.67-.71,1.14l-.84,4.92h-1.24l.82-4.87c.06-.51-.02-.9-.23-1.17-.21-.27-.54-.42-.99-.42-.77-.02-1.38.33-1.84,1.05l-.94,5.41h-1.24l1.29-7.4h1.16Z" fill="#58595b"/>
      <path d="m199.61,219.44c-.92-.02-1.64-.36-2.16-1.02s-.74-1.51-.66-2.54l.03-.29c.08-.73.29-1.4.65-2.01.36-.61.79-1.06,1.31-1.37.51-.31,1.07-.46,1.67-.44.76.02,1.36.27,1.79.76s.67,1.15.71,1.98c.01.3,0,.59-.03.89l-.08.57h-4.83c-.08.67.03,1.24.33,1.71.3.47.76.71,1.36.73.73.02,1.4-.31,2.02-.98l.71.6c-.31.45-.71.8-1.2,1.05-.49.25-1.04.37-1.64.37Zm.79-6.64c-.51-.01-.96.16-1.34.52-.38.36-.68.9-.91,1.61h3.6s.03-.1.03-.1c.07-.57-.02-1.05-.28-1.43-.26-.38-.62-.58-1.1-.59Z" fill="#58595b"/>
      <path d="m206.12,211.9l-.18.94c.67-.73,1.42-1.08,2.27-1.07.7.02,1.21.26,1.54.72s.46,1.12.37,1.96l-.81,4.85h-1.24l.81-4.86c.03-.22.03-.43,0-.62-.08-.64-.45-.96-1.13-.98-.74-.01-1.39.38-1.96,1.19l-.92,5.27h-1.24l1.29-7.4h1.17Z" fill="#58595b"/>
      <path d="m211.59,215.59c.09-.75.3-1.43.62-2.04s.72-1.06,1.2-1.36,1-.44,1.57-.43c.83.02,1.46.32,1.9.9l.71-3.86h1.24l-1.82,10.5h-1.13l.13-.79c-.58.64-1.3.95-2.16.93-.68-.02-1.23-.29-1.63-.8-.41-.52-.62-1.21-.66-2.08-.01-.27,0-.59.03-.96Zm1.19.71c-.01.65.1,1.16.35,1.52s.61.54,1.08.55c.72.03,1.35-.33,1.91-1.08l.59-3.41c-.27-.67-.77-1.02-1.49-1.04-.49-.01-.92.13-1.29.44-.37.31-.65.74-.85,1.29-.19.55-.29,1.13-.3,1.73Z" fill="#58595b"/>
      <path d="m222.15,219.44c-.92-.02-1.64-.36-2.16-1.02s-.74-1.51-.66-2.54l.03-.29c.08-.73.29-1.4.65-2.01.36-.61.79-1.06,1.31-1.37.51-.31,1.07-.46,1.67-.44.76.02,1.36.27,1.79.76s.67,1.15.71,1.98c.01.3,0,.59-.03.89l-.08.57h-4.83c-.08.67.03,1.24.33,1.71.3.47.76.71,1.36.73.73.02,1.4-.31,2.02-.98l.71.6c-.31.45-.71.8-1.2,1.05-.49.25-1.04.37-1.64.37Zm.79-6.64c-.51-.01-.96.16-1.34.52-.38.36-.68.9-.91,1.61h3.6s.03-.1.03-.1c.07-.57-.02-1.05-.28-1.43-.26-.38-.62-.58-1.1-.59Z" fill="#58595b"/>
      <path d="m226.57,215.59c.09-.75.3-1.43.62-2.04s.72-1.06,1.2-1.36,1-.44,1.57-.43c.83.02,1.46.32,1.9.9l.71-3.86h1.24l-1.82,10.5h-1.13l.13-.79c-.58.64-1.3.95-2.16.93-.68-.02-1.23-.29-1.63-.8-.41-.52-.62-1.21-.66-2.08-.01-.27,0-.59.03-.96Zm1.19.71c-.01.65.1,1.16.35,1.52s.61.54,1.08.55c.72.03,1.35-.33,1.91-1.08l.59-3.41c-.27-.67-.77-1.02-1.49-1.04-.49-.01-.92.13-1.29.44-.37.31-.65.74-.85,1.29-.19.55-.29,1.13-.3,1.73Z" fill="#58595b"/>
      <path d="m242.07,218.57c-.58.6-1.31.89-2.21.87-.71-.02-1.23-.27-1.57-.76-.34-.49-.47-1.15-.38-2l.79-4.78h1.24l-.8,4.8c-.02.2-.03.4-.01.59.02.33.12.59.29.77s.42.29.72.3c.88.03,1.57-.33,2.05-1.07l.93-5.39h1.24l-1.29,7.4h-1.17l.16-.73Z" fill="#58595b"/>
      <path d="m251.62,215.64c-.09.75-.29,1.43-.61,2.03s-.7,1.05-1.17,1.35c-.46.3-.98.44-1.54.43-.86-.02-1.51-.31-1.97-.87l-.66,3.57h-1.24l1.78-10.24h1.12s-.14.82-.14.82c.61-.66,1.34-.98,2.19-.96.71.02,1.26.28,1.66.79s.61,1.2.63,2.09c0,.29,0,.57-.03.85l-.02.14Zm-1.22-.14l.03-.57c0-.66-.13-1.17-.38-1.53-.25-.35-.62-.54-1.1-.56-.72-.02-1.33.32-1.85,1.02l-.62,3.54c.28.66.78.99,1.5,1.01.62.01,1.14-.23,1.57-.72.43-.49.71-1.22.85-2.19Z" fill="#58595b"/>
      <path d="m253.96,219.3h-1.23l1.82-10.5h1.24l-1.83,10.5Z" fill="#58595b"/>
      <path d="m260.09,211.77c.62,0,1.15.18,1.59.51s.77.78.98,1.36c.21.58.28,1.21.21,1.89v.15c-.1.72-.31,1.37-.66,1.95-.34.58-.78,1.03-1.33,1.36s-1.14.48-1.78.46c-.62,0-1.15-.18-1.59-.51-.45-.33-.77-.77-.97-1.34s-.28-1.19-.22-1.87c.07-.77.28-1.45.62-2.06s.79-1.08,1.34-1.42c.54-.33,1.14-.49,1.8-.47Zm-2.52,3.96c-.03.29-.03.59,0,.9.05.54.21.97.48,1.29.28.32.64.49,1.1.5.41.01.79-.09,1.13-.3.35-.22.64-.54.88-.98s.39-.92.46-1.46c.04-.42.04-.77.02-1.06-.05-.55-.22-.99-.5-1.31s-.65-.49-1.11-.51c-.64-.01-1.18.24-1.63.75s-.72,1.19-.83,2.02v.16Z" fill="#58595b"/>
      <path d="m268.32,219.3c-.03-.13-.05-.26-.05-.39l.02-.39c-.68.63-1.4.93-2.16.92-.65,0-1.18-.21-1.59-.62-.41-.4-.59-.91-.56-1.51.05-.78.39-1.4,1.03-1.84.64-.44,1.48-.66,2.53-.66h1.29s.08-.58.08-.58c.05-.44-.04-.79-.26-1.05-.22-.26-.54-.39-.97-.4-.42,0-.8.09-1.12.31-.33.22-.52.5-.6.86h-1.24c.04-.43.21-.81.51-1.15.3-.33.68-.59,1.14-.78.46-.18.95-.27,1.44-.26.77.02,1.37.25,1.8.7.43.45.61,1.04.54,1.79l-.6,3.66-.03.53c0,.25.02.5.08.75v.12h-1.27Zm-1.94-.96c.4,0,.77-.09,1.12-.28.35-.2.66-.47.91-.82l.27-1.52h-.94c-.78,0-1.38.12-1.79.36s-.65.59-.7,1.05c-.04.35.04.63.24.86.2.23.5.35.89.36Z" fill="#58595b"/>
      <path d="m271.61,215.59c.09-.75.3-1.43.62-2.04s.72-1.06,1.2-1.36,1-.44,1.57-.43c.83.02,1.46.32,1.9.9l.71-3.86h1.24l-1.82,10.5h-1.13l.13-.79c-.58.64-1.3.95-2.16.93-.68-.02-1.23-.29-1.63-.8-.41-.52-.62-1.21-.66-2.08-.01-.27,0-.59.03-.96Zm1.19.71c-.01.65.1,1.16.35,1.52s.61.54,1.08.55c.72.03,1.35-.33,1.91-1.08l.59-3.41c-.27-.67-.77-1.02-1.49-1.04-.49-.01-.92.13-1.29.44-.37.31-.65.74-.85,1.29-.19.55-.29,1.13-.3,1.73Z" fill="#58595b"/>
      <path d="m287.01,213.04l-.58-.06c-.79,0-1.42.36-1.87,1.07l-.91,5.26h-1.24l1.29-7.4h1.2s-.18.85-.18.85c.52-.69,1.14-1.02,1.85-1,.15,0,.35.03.59.1l-.14,1.18Z" fill="#58595b"/>
      <path d="m291.32,219.3c-.03-.13-.05-.26-.05-.39l.02-.39c-.68.63-1.4.93-2.16.92-.65,0-1.18-.21-1.59-.62-.41-.4-.59-.91-.56-1.51.05-.78.39-1.4,1.03-1.84.64-.44,1.48-.66,2.53-.66h1.29s.08-.58.08-.58c.05-.44-.04-.79-.26-1.05-.22-.26-.54-.39-.97-.4-.42,0-.8.09-1.12.31-.33.22-.52.5-.6.86h-1.24c.04-.43.21-.81.51-1.15.3-.33.68-.59,1.14-.78.46-.18.95-.27,1.44-.26.77.02,1.37.25,1.8.7.43.45.61,1.04.54,1.79l-.6,3.66-.03.53c0,.25.02.5.08.75v.12h-1.27Zm-1.94-.96c.4,0,.77-.09,1.12-.28.35-.2.66-.47.91-.82l.27-1.52h-.94c-.78,0-1.38.12-1.79.36s-.65.59-.7,1.05c-.04.35.04.63.24.86.2.23.5.35.89.36Z" fill="#58595b"/>
      <path d="m297.52,210.12l-.31,1.79h1.35l-.17.98h-1.34l-.77,4.6c-.01.12-.02.23,0,.33.03.36.23.53.58.53.15,0,.35-.02.6-.07l-.1,1.03c-.3.08-.6.12-.9.12-.49,0-.86-.19-1.11-.54-.25-.35-.34-.83-.29-1.42l.75-4.58h-1.31l.17-.98h1.31l.31-1.79h1.23Z" fill="#58595b"/>
      <path d="m300.1,219.3h-1.23l1.29-7.4h1.23l-1.29,7.4Zm1.02-10.1c.21,0,.38.05.52.19.14.13.21.31.21.53,0,.21-.07.39-.21.53-.13.14-.31.21-.52.22s-.39-.05-.53-.18-.2-.31-.2-.52.07-.39.21-.53.31-.22.52-.23Z" fill="#58595b"/>
      <path d="m306.23,211.77c.62,0,1.15.18,1.59.51s.77.78.98,1.36c.21.58.28,1.21.21,1.89v.15c-.1.72-.31,1.37-.66,1.95-.34.58-.78,1.03-1.33,1.36s-1.14.48-1.78.46c-.62,0-1.15-.18-1.59-.51-.45-.33-.77-.77-.97-1.34s-.28-1.19-.22-1.87c.07-.77.28-1.45.62-2.06s.79-1.08,1.34-1.42c.54-.33,1.14-.49,1.8-.47Zm-2.52,3.96c-.03.29-.03.59,0,.9.05.54.21.97.48,1.29.28.32.64.49,1.1.5.41.01.79-.09,1.13-.3.35-.22.64-.54.88-.98s.39-.92.46-1.46c.04-.42.04-.77.02-1.06-.05-.55-.22-.99-.5-1.31s-.65-.49-1.11-.51c-.64-.01-1.18.24-1.63.75s-.72,1.19-.83,2.02v.16Z" fill="#58595b"/>
      <path d="m317.47,211.77c.62,0,1.15.18,1.59.51s.77.78.98,1.36c.21.58.28,1.21.21,1.89v.15c-.1.72-.31,1.37-.66,1.95-.34.58-.78,1.03-1.33,1.36s-1.14.48-1.78.46c-.62,0-1.15-.18-1.59-.51-.45-.33-.77-.77-.97-1.34s-.28-1.19-.22-1.87c.07-.77.28-1.45.62-2.06s.79-1.08,1.34-1.42c.54-.33,1.14-.49,1.8-.47Zm-2.52,3.96c-.03.29-.03.59,0,.9.05.54.21.97.48,1.29.28.32.64.49,1.1.5.41.01.79-.09,1.13-.3.35-.22.64-.54.88-.98s.39-.92.46-1.46c.04-.42.04-.77.02-1.06-.05-.55-.22-.99-.5-1.31s-.65-.49-1.11-.51c-.64-.01-1.18.24-1.63.75s-.72,1.19-.83,2.02v.16Z" fill="#58595b"/>
      <path d="m321.78,219.3l1.12-6.42h-1.14l.17-.98h1.13l.12-.88c.12-.74.41-1.32.86-1.74.48-.44,1.09-.65,1.83-.64.23,0,.53.04.88.12l-.15,1.04c-.22-.05-.44-.07-.66-.08-.43,0-.78.13-1.04.4-.27.27-.43.62-.5,1.06l-.11.73h1.53l-.17.98h-1.53l-1.11,6.42h-1.24Z" fill="#58595b"/>
      <path d="m333.31,219.3h-1.24l1.46-8.39-2.65.93.21-1.2,3.69-1.33h.22l-1.7,10Z" fill="#58595b"/>
      <path d="m343.41,209.34l-.11,1.07h-.24c-.91.02-1.69.3-2.34.85s-1.15,1.35-1.5,2.42c.62-.62,1.34-.92,2.17-.9.52,0,.97.15,1.35.43.37.28.65.67.82,1.16.18.49.24,1.04.18,1.64-.09,1.01-.45,1.84-1.08,2.49-.63.65-1.41.97-2.33.94-.74-.02-1.34-.29-1.82-.81s-.75-1.23-.81-2.11c-.04-.48.02-1.13.17-1.94.31-1.7.94-3,1.86-3.9.93-.9,2.11-1.35,3.54-1.35h.14Zm-2.28,4.48c-.44,0-.86.12-1.24.38s-.69.6-.9,1.01l-.05.46v.55c-.01.37.04.74.16,1.09s.28.62.51.8.49.28.79.28c.55.02,1.02-.18,1.42-.62.39-.43.63-1,.71-1.71.05-.41.02-.79-.08-1.13s-.25-.61-.48-.81c-.22-.2-.5-.3-.84-.31Z" fill="#58595b"/>
      <path d="m345.63,217.87c.22,0,.41.06.55.21s.22.32.21.55-.08.4-.23.54c-.15.14-.33.21-.55.22s-.4-.05-.54-.19c-.14-.13-.21-.31-.21-.54s.07-.41.21-.56c.14-.15.32-.23.55-.24Zm1.05-6.04c.22,0,.41.06.55.21s.22.32.21.55-.08.4-.23.54c-.15.14-.33.21-.55.22s-.4-.05-.54-.19c-.14-.13-.21-.31-.21-.54s.07-.41.21-.56c.14-.15.32-.23.55-.24Z" fill="#58595b"/>
      <path d="m353.56,214.93c-.34.36-.7.62-1.07.8-.38.17-.75.26-1.13.25-.52,0-.97-.16-1.34-.44-.37-.29-.64-.68-.81-1.18-.17-.5-.23-1.05-.17-1.64.06-.66.24-1.26.55-1.8s.71-.97,1.21-1.27c.5-.3,1.05-.44,1.65-.42.79.02,1.42.31,1.87.86s.7,1.3.73,2.24c.01.49-.04,1.09-.17,1.82-.3,1.7-.89,2.99-1.78,3.85-.89.86-2.03,1.31-3.42,1.34h-.31l.11-1.07h.25c.98-.02,1.78-.29,2.41-.82.63-.53,1.1-1.36,1.42-2.49Zm-1.94,0c.42.02.81-.1,1.2-.35.38-.25.7-.59.94-1.02l.05-.5.02-.55c-.02-.71-.15-1.25-.39-1.63-.24-.38-.59-.58-1.05-.6-.57-.02-1.05.2-1.45.65-.4.46-.63,1.03-.69,1.72-.03.28-.03.56.01.85s.12.54.25.76c.25.44.62.67,1.11.68Z" fill="#58595b"/>
      <path d="m363.38,211.77c.62,0,1.15.18,1.59.51s.77.78.98,1.36c.21.58.28,1.21.21,1.89v.15c-.1.72-.31,1.37-.66,1.95-.34.58-.78,1.03-1.33,1.36s-1.14.48-1.78.46c-.62,0-1.15-.18-1.59-.51-.45-.33-.77-.77-.97-1.34s-.28-1.19-.22-1.87c.07-.77.28-1.45.62-2.06s.79-1.08,1.34-1.42c.54-.33,1.14-.49,1.8-.47Zm-2.52,3.96c-.03.29-.03.59,0,.9.05.54.21.97.48,1.29.28.32.64.49,1.1.5.41.01.79-.09,1.13-.3.35-.22.64-.54.88-.98s.39-.92.46-1.46c.04-.42.04-.77.02-1.06-.05-.55-.22-.99-.5-1.31s-.65-.49-1.11-.51c-.64-.01-1.18.24-1.63.75s-.72,1.19-.83,2.02v.16Z" fill="#58595b"/>
      <path d="m371.69,213.04l-.58-.06c-.79,0-1.42.36-1.87,1.07l-.91,5.26h-1.24l1.29-7.4h1.2s-.18.85-.18.85c.52-.69,1.14-1.02,1.85-1,.15,0,.35.03.59.1l-.14,1.18Z" fill="#58595b"/>
      <path d="m380.83,215.96h1.34l-.18,1.03h-1.33l-.4,2.31h-1.24l.4-2.31h-4.4l.14-.81,5.47-6.83h1.35l-1.14,6.61Zm-4.2,0h2.95l.89-4.89-.2.29-3.64,4.61Z" fill="#58595b"/>
      <path d="m383.72,217.87c.22,0,.41.06.55.21s.22.32.21.55-.08.4-.23.54c-.15.14-.33.21-.55.22s-.4-.05-.54-.19c-.14-.13-.21-.31-.21-.54s.07-.41.21-.56c.14-.15.32-.23.55-.24Zm1.05-6.04c.22,0,.41.06.55.21s.22.32.21.55-.08.4-.23.54c-.15.14-.33.21-.55.22s-.4-.05-.54-.19c-.14-.13-.21-.31-.21-.54s.07-.41.21-.56c.14-.15.32-.23.55-.24Z" fill="#58595b"/>
      <path d="m388.87,213.71h.82c.6,0,1.11-.15,1.52-.47.41-.32.65-.75.71-1.29.06-.53-.04-.94-.29-1.25-.25-.3-.63-.46-1.11-.47-.52,0-.96.14-1.32.46-.36.31-.58.73-.67,1.26h-1.22c.08-.81.43-1.48,1.05-1.99.62-.51,1.36-.76,2.23-.75.83.02,1.49.28,1.97.78.48.5.68,1.17.62,1.99-.04.47-.22.9-.54,1.29s-.76.71-1.33.96c.45.18.79.47,1.01.87.22.39.32.86.28,1.38-.07.9-.43,1.62-1.07,2.17-.64.55-1.42.81-2.33.79-.85-.02-1.53-.28-2.04-.79s-.74-1.17-.7-1.98h1.24c-.03.52.1.93.37,1.24.27.31.67.48,1.19.5.58.02,1.07-.15,1.46-.5s.61-.82.66-1.41c.05-.54-.07-.96-.37-1.27-.3-.3-.74-.46-1.33-.48h-.95s.16-1.04.16-1.04Z" fill="#58595b"/>
    </g>
  </g>
</svg>