<svg width="60" height="60" viewBox="0 0 60 60" fill="none" xmlns="http://www.w3.org/2000/svg">
<path d="M30 60C46.5685 60 60 46.5685 60 30C60 13.4315 46.5685 0 30 0C13.4315 0 0 13.4315 0 30C0 46.5685 13.4315 60 30 60Z" fill="url(#paint0_linear_301_173)"/>
<path d="M21.356 27.2714C19.7647 27.2714 18.4746 26.0588 18.4746 24.563V21.8545H24.2373V24.563C24.2373 26.0588 22.9473 27.2714 21.356 27.2714Z" stroke="white" stroke-width="2" stroke-miterlimit="10" stroke-linecap="round" stroke-linejoin="round"/>
<path d="M21.3558 27.2715V32.6884" stroke="white" stroke-width="2" stroke-miterlimit="10" stroke-linecap="round" stroke-linejoin="round"/>
<path d="M18.4746 32.6887H24.2373" stroke="white" stroke-width="2" stroke-miterlimit="10" stroke-linecap="round" stroke-linejoin="round"/>
<path d="M18.4746 38.1055H24.2373" stroke="white" stroke-width="2" stroke-miterlimit="10" stroke-linecap="round" stroke-linejoin="round"/>
<path d="M47 16.7085V43.2515C47 44.7412 45.7034 45.96 44.1186 45.96H32.8814C31.2966 45.96 30 44.7412 30 43.2515C30 44.7412 28.7034 45.96 27.1186 45.96H15.8814C14.2966 45.96 13 44.7412 13 43.2515V16.7085C13 15.2188 14.2966 14 15.8814 14H27.1186C28.7034 14 30 15.2188 30 16.7085C30 15.2188 31.2966 14 32.8814 14H44.1186C45.7034 14 47 15.2188 47 16.7085Z" stroke="white" stroke-width="2" stroke-miterlimit="10" stroke-linecap="round" stroke-linejoin="round"/>
<path d="M32.0835 33.2051C32.8517 33.5827 33.672 33.8594 34.5444 34.0352C35.4233 34.2044 36.2795 34.2891 37.1128 34.2891C37.855 34.2891 38.4963 34.2305 39.0366 34.1133C39.577 33.9896 40.0229 33.8236 40.3745 33.6152C40.7261 33.4069 40.9865 33.1595 41.1558 32.873C41.325 32.5866 41.4097 32.2773 41.4097 31.9453C41.4097 31.4961 41.2567 31.0957 40.9507 30.7441C40.6447 30.3861 40.1792 30.1191 39.5542 29.9434C38.9357 29.7611 38.1512 29.6895 37.2007 29.7285C36.2567 29.7676 35.1434 29.9531 33.8608 30.2852L33.8706 28L39.5737 24.2891H31.4976V21.5742H43.7144V24.2305L38.6948 27.4141C39.6128 27.4141 40.4331 27.5312 41.1558 27.7656C41.8784 28 42.4871 28.3223 42.9819 28.7324C43.4767 29.1426 43.8543 29.6276 44.1147 30.1875C44.3752 30.7474 44.5054 31.3496 44.5054 31.9941C44.5054 32.7559 44.3361 33.4492 43.9976 34.0742C43.6655 34.6927 43.1805 35.2233 42.5425 35.666C41.9045 36.1022 41.1232 36.4408 40.1987 36.6816C39.2808 36.9225 38.2391 37.043 37.0737 37.043C35.8368 37.043 34.6942 36.9128 33.646 36.6523C32.5978 36.3854 31.6017 36.0176 30.6577 35.5488L32.0835 33.2051Z" fill="white"/>
<defs>
<linearGradient id="paint0_linear_301_173" x1="30" y1="0" x2="30" y2="60" gradientUnits="userSpaceOnUse">
<stop stop-color="#09C6F9"/>
<stop offset="1" stop-color="#045DE9"/>
</linearGradient>
</defs>
</svg>
