<?xml version="1.0" encoding="UTF-8"?>
<svg id="Layer_1" data-name="Layer 1" xmlns="http://www.w3.org/2000/svg" xmlns:xlink="http://www.w3.org/1999/xlink" viewBox="0 0 60 60">
  <defs>
    <linearGradient id="linear-gradient" x1="30" y1="60" x2="30" y2="0" gradientUnits="userSpaceOnUse">
      <stop offset="0" stop-color="#06c"/>
      <stop offset="1" stop-color="#006"/>
    </linearGradient>
  </defs>
  <circle cx="30" cy="30" r="30" fill="url(#linear-gradient)"/>
  <g id="_9" data-name="9">
    <path d="m13.78,43.9v-9.27h-2.32v9.27c0,2.56,2.07,4.63,4.63,4.63h9.27v-2.32h-9.27c-1.28,0-2.32-1.04-2.32-2.32Zm-2.32-27.8v9.27h2.32v-9.27c0-1.28,1.04-2.32,2.32-2.32h9.27v-2.32h-9.27c-2.56,0-4.63,2.07-4.63,4.63Zm32.43-4.63h-9.27v2.32h9.27c1.28,0,2.32,1.04,2.32,2.32v9.27h2.32v-9.27c0-2.56-2.07-4.63-4.63-4.63Zm2.32,32.43c0,1.28-1.04,2.32-2.32,2.32h-9.27v2.32h9.27c2.56,0,4.63-2.07,4.63-4.63v-9.27h-2.32v9.27Z" fill="#fff"/>
  </g>
  <g id="_7" data-name="7">
    <path d="m42.19,36.16h-4.88c-.45,0-.81.35-.81.77s.36.77.81.77h4.88c.45,0,.81-.34.81-.77s-.36-.77-.81-.77Zm-6.5-12.31h6.5c.45,0,.81-.34.81-.77s-.36-.77-.81-.77h-6.5c-.45,0-.81.34-.81.77s.36.77.81.77Zm6.5,3.08h-6.5c-.45,0-.81.34-.81.77s.36.77.81.77h6.5c.45,0,.81-.34.81-.77s-.36-.77-.81-.77Zm-10.6,3.35c1.04-1.33,1.66-3.03,1.66-4.89,0-4.25-3.27-7.7-7.31-7.7s-7.31,3.45-7.31,7.7c0,1.86.63,3.56,1.66,4.89-1.91.63-3.29,2.32-3.29,4.35v3.08c0,2.55,2.18,4.62,4.88,4.62h8.12c2.69,0,4.88-2.07,4.88-4.62v-3.08c0-2.02-1.38-3.72-3.29-4.35Zm-11.34-4.89c0-3.4,2.55-6.16,5.69-6.16s5.69,2.76,5.69,6.16-2.55,6.16-5.69,6.16-5.69-2.76-5.69-6.16Zm13,11.93c0,1.91-1.79,3.46-3.99,3.46h-6.65c-2.2,0-3.99-1.55-3.99-3.46v-2.31c0-1.64,1.31-3,3.07-3.36,1.2.9,2.66,1.44,4.24,1.44s3.05-.54,4.24-1.44c1.76.36,3.07,1.73,3.07,3.36v2.31Zm8.94-5.77h-4.88c-.45,0-.81.34-.81.77s.36.77.81.77h4.88c.45,0,.81-.34.81-.77s-.36-.77-.81-.77Z" fill="#fff"/>
  </g>
</svg>