<?xml version="1.0" encoding="UTF-8"?>
<svg id="Layer_1" data-name="Layer 1" xmlns="http://www.w3.org/2000/svg" viewBox="0 0 56 56">
  <g id="_7" data-name="7">
    <path d="m28.02,45.18c-7.69,0-14.2-5.06-16.39-12.02h3.76c.53-.51.81-1.21.28-1.73l-6.45-6.52c-.53-.51-1.39-.51-1.92,0L.89,31.43c-.76.89-.25,1.21.28,1.73h3.15c1.86,10.19,11.75,18.89,23.71,18.89,8.75,0,16.38-4.69,20.59-11.67l-6.5-2.57c-3.1,4.45-8.25,7.37-14.09,7.37Zm26.92-20.61h-3.14c-1.67-11.65-11.66-20.61-23.77-20.61-9.36,0-17.45,5.36-21.42,13.16l6.45,2.48c2.94-5.23,8.54-8.77,14.97-8.77,8.31,0,15.24,5.9,16.83,13.74h-4.14c-.53.52-1.04.84-.28,1.73l6.41,6.52c.53.52,1.39.52,1.92,0l6.45-6.52c.53-.52.25-1.21-.28-1.73Z"/>
  </g>
</svg>