<?xml version="1.0" encoding="UTF-8"?>
<svg id="Layer_1" data-name="Layer 1" xmlns="http://www.w3.org/2000/svg" viewBox="0 0 56 56">
  <path d="m46.25,16.54h-17.14c-4.07,0-7.37,3.3-7.37,7.37v17.14c0,4.07,3.3,7.37,7.37,7.37h17.14c4.07,0,7.37-3.3,7.37-7.37v-17.14c0-4.07-3.3-7.37-7.37-7.37Zm5.46,24.52c0,3.01-2.45,5.46-5.46,5.46h-17.14c-3.01,0-5.46-2.45-5.46-5.46v-17.14c0-3.01,2.45-5.46,5.46-5.46h17.14c3.01,0,5.46,2.45,5.46,5.46v17.14Z"/>
  <path d="m45.36,39.27l-6.21-16.46s0-.02-.01-.03c-.24-.58-.8-.96-1.43-.96h0c-.63,0-1.19.38-1.43.96,0,0,0,.02-.01.03l-6.27,16.46c-.23.6.07,1.28.68,1.51.14.05.28.08.42.08.47,0,.92-.29,1.09-.75l1.27-3.35h8.46l1.26,3.34c.23.6.9.91,1.51.68.6-.23.91-.9.68-1.51Zm-4.27-4.81s-.04.04-.07.04h-6.68s-.05-.01-.07-.04c-.02-.02-.02-.05,0-.08l3.36-8.81s.04-.05.08-.05h0s.07.02.08.05l3.32,8.81s0,.05,0,.08Z"/>
  <path d="m17.5,18.95c-.54,0-.97-.44-.97-.97v-1.58c0-.54.44-.97.97-.97s.97.44.97.97v1.58c0,.54-.44.97-.97.97Z"/>
  <path d="m19.95,37.62h-10.2c-3.05,0-5.53-2.48-5.53-5.53V14.94c0-3.05,2.48-5.53,5.53-5.53h17.14c2.99,0,5.42,2.39,5.51,5.35h1.84c-.1-3.99-3.34-7.2-7.35-7.2H9.75c-4.07,0-7.37,3.3-7.37,7.37v17.14c0,4.07,3.3,7.37,7.37,7.37h10.2v-1.84Z"/>
  <g>
    <path d="m24.62,18.95c.54,0,.97-.44.97-.97,0-.11-.03-.22-.07-.32-.65.33-1.24.76-1.73,1.3h.82Z"/>
    <path d="m22.78,17h-12.4c-.54,0-.97.44-.97.97s.44.97.97.97h10.83c.42-.73.95-1.38,1.57-1.95Z"/>
  </g>
  <path d="m20.07,23.02c0-2.34,1-4.43,2.58-5.91-.07-.03-.13-.07-.2-.09-.53-.11-1.04.23-1.15.76-.02.08-1.62,7.56-9.04,12.02-.46.28-.61.87-.33,1.33.18.3.5.47.84.47.17,0,.34-.04.5-.14,3.13-1.88,5.31-4.22,6.81-6.41v-2.04Z"/>
  <g>
    <path d="m22.25,31.61c.33,0,.65-.17.84-.47.28-.46.13-1.06-.33-1.33-.2-.12-.37-.25-.56-.37v2.16s.04.02.06.02Z"/>
    <path d="m20.08,27.87c-2.77-2.36-4.42-5.07-5.34-7.13-.22-.49-.8-.71-1.29-.49-.49.22-.71.8-.49,1.29,1.15,2.56,3.29,6.03,7.12,8.82v-2.49Z"/>
  </g>
</svg>