<svg xmlns="http://www.w3.org/2000/svg" style="display: none;">
<symbol id="social-1" xmlns="http://www.w3.org/2000/svg" viewBox="0 0 100 100">
  <g id="_3" data-name="3">
    <path d="m58.33,34.64c-2.72.23-5.5.36-8.33.36s-5.6-.12-8.32-.36c-.86,4.51-1.43,8.91-1.61,12.86h19.87c-.18-3.94-.75-8.34-1.61-12.86Zm4.91-.61c.89,4.81,1.51,9.44,1.71,13.47h25.05c-.43-6.86-2.6-13.23-6.06-18.72l-3.47,1.22c-5.3,1.87-11.12,3.2-17.22,4.03Zm-13.23-3.97c2.18,0,4.65-.17,7.26-.47-1.67-7.23-3.89-14.29-6.12-19.53-.38-.01-.76-.06-1.15-.06s-.76.05-1.15.06c-2.22,5.22-4.44,12.26-6.1,19.48,2.54.31,5.01.52,7.25.52Zm-8.32,35.3c2.72-.23,5.5-.36,8.32-.36s5.6.12,8.33.36c.86-4.51,1.43-8.91,1.61-12.86h-19.87c.18,3.94.75,8.34,1.61,12.86Zm39.31-40.68c-5.91-7.18-14.27-12.28-23.81-14,1.79,5.18,3.59,11.68,5.03,18.24,6.41-1.02,13.2-2.59,18.78-4.23Zm-38.16-14c-9.29,1.68-17.46,6.55-23.34,13.43,5.38,1.78,11.94,3.54,18.34,4.69,1.43-6.52,3.22-12.97,5-18.12Zm14.35,78.65c9.29-1.68,17.46-6.55,23.34-13.43-5.38-1.78-11.94-3.54-18.35-4.69-1.43,6.52-3.22,12.97-5,18.12Zm-7.17-19.39c-2.24,0-4.71.21-7.25.53,1.66,7.21,3.89,14.25,6.1,19.48.39.01.76.06,1.15.06s.76-.05,1.15-.06c2.22-5.22,4.44-12.26,6.1-19.48-2.54-.32-5.01-.53-7.25-.53Zm13.23-3.97c6.11.84,11.92,2.17,17.22,4.03l3.47,1.22c3.46-5.49,5.63-11.87,6.06-18.72h-25.05c-.2,4.03-.81,8.66-1.71,13.47Zm-26.47-31.93c-6.11-.84-11.92-2.17-17.22-4.03l-3.47-1.22c-3.46,5.49-5.63,11.87-6.06,18.72h25.05c.2-4.03.81-8.66,1.71-13.47Zm0,31.93c-.89-4.81-1.51-9.44-1.71-13.47H10.01c.43,6.86,2.6,13.23,6.06,18.72l3.47-1.22c5.3-1.87,11.12-3.2,17.22-4.03Zm-17.28,9.93c5.88,6.88,14.05,11.75,23.34,13.43-1.78-5.15-3.57-11.6-5-18.12-6.4,1.14-12.96,2.9-18.35,4.69Z"></path>
  </g>
</symbol><symbol id="social-2" xmlns="http://www.w3.org/2000/svg" viewBox="0 0 100 100">
  <path d="m33.43,11.1c-4.26.2-7.16.86-9.7,1.84-2.63,1-4.86,2.35-7.08,4.53-2.22,2.18-3.58,4.37-4.6,6.95-.98,2.49-1.65,5.34-1.84,9.51-.19,4.18-.23,5.51-.21,16.15.02,10.64.07,11.97.27,16.15.2,4.17.88,7.01,1.88,9.5,1.03,2.58,2.4,4.76,4.63,6.93,2.23,2.17,4.46,3.51,7.09,4.5,2.54.96,5.45,1.62,9.71,1.8,4.27.18,5.63.22,16.49.2,10.86-.02,12.23-.07,16.49-.27,4.26-.2,7.16-.87,9.7-1.84,2.63-1.01,4.86-2.35,7.08-4.53,2.22-2.18,3.58-4.37,4.6-6.95.98-2.49,1.65-5.34,1.84-9.51.19-4.18.23-5.52.21-16.15-.02-10.64-.07-11.97-.27-16.15-.2-4.17-.88-7.02-1.88-9.51-1.03-2.58-2.4-4.76-4.63-6.93-2.23-2.17-4.46-3.51-7.09-4.5-2.55-.96-5.45-1.62-9.71-1.8-4.27-.19-5.63-.23-16.49-.21-10.86.02-12.22.07-16.49.27m.47,70.82c-3.9-.17-6.02-.8-7.43-1.33-1.87-.71-3.2-1.56-4.61-2.92-1.4-1.37-2.27-2.67-3-4.5-.55-1.38-1.21-3.45-1.39-7.27-.2-4.13-.24-5.37-.26-15.83-.02-10.46.02-11.7.2-15.83.17-3.82.82-5.89,1.36-7.27.72-1.83,1.59-3.14,2.98-4.51,1.4-1.37,2.73-2.22,4.59-2.94,1.41-.54,3.53-1.18,7.42-1.36,4.22-.2,5.48-.24,16.16-.26,10.68-.02,11.95.02,16.17.2,3.9.17,6.02.8,7.43,1.33,1.87.71,3.2,1.55,4.61,2.92,1.4,1.37,2.27,2.67,3,4.5.55,1.38,1.21,3.45,1.39,7.27.2,4.13.25,5.37.27,15.83.02,10.46-.02,11.7-.2,15.83-.17,3.82-.82,5.89-1.36,7.28-.72,1.83-1.59,3.14-2.98,4.51-1.4,1.37-2.73,2.22-4.59,2.94-1.41.54-3.53,1.18-7.42,1.36-4.22.19-5.48.24-16.16.26-10.68.02-11.94-.02-16.16-.2m32.61-52.86c0,2.59,2.16,4.7,4.81,4.69,2.65,0,4.8-2.11,4.79-4.71,0-2.59-2.16-4.7-4.81-4.69-2.65,0-4.8,2.11-4.79,4.71m-37.05,20.98c.02,11.11,9.24,20.1,20.58,20.07,11.34-.02,20.52-9.04,20.5-20.15-.02-11.11-9.24-20.1-20.58-20.08-11.34.02-20.52,9.05-20.5,20.15m7.2-.01c-.01-7.21,5.95-13.07,13.31-13.08,7.36-.01,13.34,5.82,13.36,13.03.01,7.21-5.94,13.07-13.31,13.08-7.36.01-13.34-5.82-13.36-13.03"></path>
</symbol><symbol id="social-3" xmlns="http://www.w3.org/2000/svg" viewBox="0 0 100 100">
  <path d="m68.48,54.66l2.2-14.37h-13.79v-9.32c0-3.93,1.93-7.76,8.1-7.76h6.27v-12.23s-5.69-.97-11.13-.97c-11.35,0-18.78,6.88-18.78,19.34v10.95h-12.62v14.37h12.62v34.74c2.53.4,5.12.6,7.77.6s5.24-.21,7.77-.6v-34.74h11.58Z"></path>
</symbol><symbol id="social-5" xmlns="http://www.w3.org/2000/svg" viewBox="0 0 100 100">
  <path d="m74.46,26.04c-4.31-2.81-7.42-7.31-8.39-12.55-.21-1.13-.32-2.3-.32-3.49h-13.75l-.02,55.12c-.23,6.17-5.31,11.13-11.54,11.13-1.94,0-3.76-.48-5.36-1.33-3.68-1.94-6.2-5.79-6.2-10.23,0-6.38,5.19-11.56,11.56-11.56,1.19,0,2.33.2,3.41.53v-14.04c-1.12-.15-2.25-.25-3.41-.25-13.96,0-25.31,11.36-25.31,25.32,0,8.56,4.28,16.14,10.81,20.73,4.11,2.89,9.11,4.59,14.51,4.59,13.96,0,25.31-11.36,25.31-25.31v-27.95c5.39,3.87,12,6.15,19.13,6.15v-13.75c-3.84,0-7.42-1.14-10.42-3.1Z"></path>
</symbol><symbol id="social-4" xmlns="http://www.w3.org/2000/svg" viewBox="0 0 100 100">
  <path d="m88.33,31c-.92-3.4-3.63-6.07-7.07-6.98-6.24-1.65-31.26-1.65-31.26-1.65,0,0-25.02,0-31.26,1.65-3.44.91-6.15,3.58-7.07,6.98-1.67,6.16-1.67,19-1.67,19,0,0,0,12.84,1.67,19,.92,3.4,3.63,6.07,7.07,6.98,6.24,1.65,31.26,1.65,31.26,1.65,0,0,25.02,0,31.26-1.65,3.44-.91,6.15-3.58,7.07-6.98,1.67-6.16,1.67-19,1.67-19,0,0,0-12.84-1.67-19Zm-46.33,30.84v-23.68l20.78,11.84-20.78,11.84Z"></path>
</symbol>
</svg>