<?xml version="1.0" encoding="UTF-8"?>
<svg id="Layer_1" data-name="Layer 1" xmlns="http://www.w3.org/2000/svg" viewBox="0 0 40 40">
  <path d="m24.98,5.66c-2.37-.75-4.63-.8-6.74-.43-.5.09-.71.7-.36,1.08,1.08,1.15,2.01,2.54,2.69,4.13,2.66,6.2.63,13.02-4.53,15.24-2.62,1.12-5.53.84-8.12-.51-.54-.28-1.13.28-.89.84,2.31,5.3,7.59,9.01,13.74,9.01,8.07,0,14.65-6.37,14.99-14.36.29-6.81-4.29-12.92-10.78-14.98Zm-7.55,25.99c-1.26,0-2.29-1.02-2.29-2.29s1.02-2.29,2.29-2.29,2.29,1.02,2.29,2.29-1.02,2.29-2.29,2.29Zm9.63-20.39c1.06,0,1.92.86,1.92,1.92s-.86,1.92-1.92,1.92-1.92-.86-1.92-1.92.86-1.92,1.92-1.92Zm-2.39,18.6c-1.82,0-3.3-1.48-3.3-3.3s1.48-3.3,3.3-3.3,3.3,1.48,3.3,3.3-1.48,3.3-3.3,3.3Zm4.86-7.29c-1.42,0-2.58-1.15-2.58-2.58s1.15-2.58,2.58-2.58,2.58,1.15,2.58,2.58-1.15,2.58-2.58,2.58Z" fill="#a7a9ac" stroke="#231f20" stroke-width=".25"/>
</svg>