<svg width="500" height="500" viewBox="0 0 500 500" fill="none" xmlns="http://www.w3.org/2000/svg">
<g style="mix-blend-mode:luminosity" opacity="0.8">
<path d="M108.925 314.908C110.336 298.681 120.609 283.868 143.647 274.708C145.527 273.961 147.411 273.254 149.279 272.548C182.824 260.134 218.011 255.081 255.996 255.081C294.647 255.081 338.768 260.175 371.811 275.495C386.495 282.321 398.495 294.881 401.491 307.188C402.716 312.175 402.716 317.988 401.907 323.961C400.285 335.681 395.479 348.161 390.305 357.228C386.459 363.908 379.863 370.788 371.956 377.214C360.225 386.734 345.605 395.148 332.813 400.241C288.855 417.681 229.431 413.134 184.787 399.281C162.637 392.414 142.749 381.975 130.037 366.961C120.977 356.241 112.079 339.748 109.535 325.414C108.865 321.734 108.659 318.201 108.925 314.908Z" fill="#BF8D5D"/>
<path d="M109.535 325.414C112.256 310.881 122.663 297.828 143.647 289.468C145.527 288.721 147.411 288.001 149.279 287.321C182.824 274.921 218.011 269.868 255.996 269.868C294.647 269.868 338.768 274.935 371.811 290.255C386.495 297.068 398.495 309.641 401.491 321.948C401.64 322.614 401.784 323.268 401.907 323.961C400.285 335.681 395.479 348.161 390.305 357.228C386.459 363.908 379.863 370.788 371.956 377.214C360.225 386.734 345.605 395.148 332.813 400.241C288.855 417.681 229.431 413.134 184.787 399.281C162.637 392.414 142.749 381.975 130.037 366.961C120.977 356.241 112.079 339.748 109.535 325.414Z" fill="#A68264"/>
<path d="M423.181 314.801C422.009 319.387 417.999 322.907 409.244 324.161C401.955 325.227 395.703 325.121 391.164 326.881C387.683 328.214 385.248 330.654 384.147 335.574C383.163 339.974 384.67 349.134 382.609 355.867C381.472 359.574 379.251 362.507 374.928 363.507C369.008 364.881 363.027 363.187 356.947 361.494C350.021 359.561 342.967 357.627 335.733 360.241C334.665 360.614 333.707 361.054 332.876 361.507C322.865 366.961 325.259 378.121 322.848 386.414C322.572 387.347 322.237 388.227 321.823 389.067C316.024 400.854 296.136 389.294 288.119 384.734C278.815 379.427 265.952 366.374 252.368 370.694C240.715 374.401 230.939 386.267 216.305 383.401C203.047 380.774 199.432 369.081 184.001 368.707C179.969 368.614 173.833 370.334 167.464 372.041C158.416 374.481 148.895 376.907 144.256 374.174C136.437 369.561 143.699 358.467 134.415 353.147C127.253 349.041 115.759 351.508 113.731 343.721C111.543 335.321 115.704 328.827 108.693 320.934C102.249 313.667 99.8292 308.548 100.524 300.654C98.2506 298.054 96.4252 295.241 96.3119 292.388C96.1852 288.614 98.8799 285.787 103.073 283.667C112.508 278.827 129.443 277.481 137.712 276.467C169.092 272.587 200.808 269.841 232.333 266.667C262.863 263.561 293.389 260.547 323.813 256.907C342.321 254.681 359.86 253.948 378.089 257.988C393.551 261.388 411.371 267.881 415.428 280.081C418.115 288.107 419.475 296.374 422.207 304.467C423.448 308.161 423.949 311.734 423.181 314.801Z" fill="#BFCD76"/>
<path d="M423.181 314.8C421.219 315.694 418.823 316.36 415.892 316.8C403.592 318.587 394.103 317.014 391.164 326.88C387.683 328.214 385.248 330.654 384.147 335.574C383.163 339.974 384.671 349.134 382.609 355.867C382.285 355.974 381.939 356.067 381.603 356.147C375.684 357.52 369.706 355.814 363.627 354.107C356.696 352.16 349.636 350.227 342.392 352.827C337.068 354.76 334.352 357.867 332.876 361.507C322.866 366.96 325.259 378.12 322.848 386.414C314.47 388.707 300.994 380.92 294.772 377.334C285.464 372.054 272.606 359 259.031 363.307C247.394 367.014 237.615 378.894 222.946 376C209.706 373.387 206.078 361.68 190.66 361.334C186.624 361.24 180.482 362.96 174.106 364.667C165.064 367.107 155.551 369.547 150.91 366.8C143.095 362.187 150.354 351.067 141.062 345.76C133.904 341.654 122.387 344.12 120.382 336.32C118.176 327.934 122.352 321.44 115.339 313.534C108.926 306.28 106.504 301.2 107.2 293.28C104.92 290.667 103.074 287.854 102.991 285C102.975 284.547 102.991 284.08 103.074 283.667C112.508 278.827 129.443 277.48 137.712 276.467C169.092 272.587 200.808 269.84 232.334 266.667C262.863 263.56 293.39 260.547 323.814 256.907C342.322 254.68 359.86 253.947 378.09 257.987C393.551 261.387 411.371 267.88 415.428 280.08C418.115 288.107 419.475 296.374 422.207 304.467C423.448 308.16 423.949 311.734 423.181 314.8Z" fill="#A5B166"/>
<path d="M270.993 365.081C258.761 371.201 247.643 380.174 238.347 390.014C199.001 431.707 151.253 369.147 132.331 338.201C126.677 328.974 121.303 319.294 116.833 309.428C107.109 287.774 100.225 265.214 92.3654 242.867C90.3107 237.041 86.5187 221.734 79.4907 219.081C82.1761 220.094 90.1027 220.014 101.532 219.201C156.619 215.267 292.784 194.094 310.616 193.134C303.045 198.561 377.28 310.601 390.155 332.374C391.595 334.841 392.256 336.161 391.964 336.028C391.98 336.041 384.452 338.668 383.824 338.788C374.175 340.721 364.297 341.601 354.605 343.361C328.961 348.014 300.761 352.454 276.608 362.494C274.723 363.294 272.833 364.161 270.993 365.081Z" fill="#FCDBA7"/>
<path d="M267.478 366.935C268.638 366.295 269.811 365.668 270.994 365.081C271.491 364.841 271.992 364.588 272.496 364.348C272.012 364.628 271.532 364.921 271.062 365.215L271.026 365.228C269.86 365.815 268.674 366.375 267.478 366.935Z" fill="#AE9E2B"/>
<path d="M227.959 392.721C225.049 392.721 221.668 391.894 217.481 390.001C192.197 378.627 169.556 362.534 153.404 339.867C179.74 353.947 217.181 362.734 258.728 362.734C264.689 362.734 270.567 362.561 276.337 362.201C275.015 362.907 273.736 363.614 272.496 364.347C271.992 364.587 271.491 364.841 270.993 365.081C269.811 365.667 268.637 366.294 267.477 366.934C260.251 370.307 252.643 373.467 247.097 379.361C239.969 386.987 235.588 392.721 227.959 392.721ZM371.657 335.454C376.885 332.174 381.556 328.654 385.593 324.934C387.503 327.987 389.053 330.521 390.155 332.374C384.833 333.254 378.555 334.267 371.657 335.454Z" fill="#F79943"/>
<path d="M403.092 290.374C403.092 330.348 338.447 362.734 258.728 362.734C178.983 362.734 114.361 330.348 114.361 290.374C114.361 250.388 178.983 217.988 258.728 217.988C338.447 217.988 403.092 250.388 403.092 290.374Z" fill="#452115"/>
<path d="M415.445 278.041C415.445 269.627 409.475 262.574 401.543 260.921C391.699 225.747 331.452 198.694 258.595 198.694C183.477 198.694 121.803 227.427 114.876 264.174C107.449 266.201 101.98 272.987 101.98 281.041C101.98 289.374 107.828 296.334 115.635 298.094C115.615 298.254 115.589 298.387 115.589 298.547C115.589 308.214 123.431 316.054 133.103 316.054C136.136 316.054 138.961 315.294 141.443 313.947C143.056 322.414 150.587 328.401 159.161 328.134C162.277 332.961 167.695 336.174 173.863 336.174C175.251 336.174 176.557 335.987 177.835 335.707C180.668 341.574 186.657 345.641 193.615 345.641C197.901 345.641 201.805 344.121 204.856 341.561C207.767 347.187 213.632 351.054 220.428 351.054C226.563 351.054 231.964 347.921 235.083 343.134C237.78 349.334 243.947 353.681 251.137 353.681C258.28 353.681 264.393 349.414 267.116 343.294C267.365 343.267 267.615 343.267 267.876 343.254C271.008 347.961 276.349 351.054 282.413 351.054C289.339 351.054 295.308 347.027 298.144 341.187C301.243 343.961 305.303 345.641 309.792 345.641C316.972 345.641 323.151 341.294 325.821 335.107C326.383 334.947 326.912 334.827 327.432 334.681C330.576 337.654 334.788 339.507 339.472 339.507C346.663 339.507 352.847 335.161 355.544 328.921C357.8 329.987 360.273 330.574 362.927 330.574C372.583 330.574 380.424 322.734 380.424 313.067C380.424 312.787 380.397 312.574 380.377 312.307C382 312.787 383.677 313.067 385.436 313.067C395.107 313.067 402.948 305.227 402.948 295.561C402.948 295.307 402.931 295.054 402.904 294.827C410.157 292.667 415.445 285.974 415.445 278.041Z" fill="#602E19"/>
<path d="M100.993 252.254C99.2321 262.201 101.369 267.694 108.693 275.948C115.704 283.854 111.527 290.348 113.731 298.734C115.759 306.508 127.253 304.054 134.415 308.161C143.681 313.481 136.437 324.574 144.256 329.188C148.899 331.934 158.431 329.494 167.485 327.054C173.847 325.348 179.973 323.628 184.001 323.721C199.432 324.094 203.047 335.788 216.287 338.401C230.953 341.281 240.732 329.428 252.368 325.721C265.952 321.401 278.815 334.454 288.119 339.748C296.117 344.308 316.044 355.868 321.823 344.121C326.249 335.054 321.045 320.508 335.733 315.241C342.984 312.628 350.047 314.574 356.977 316.508C363.051 318.201 369.021 319.908 374.928 318.534C387.092 315.708 382.625 297.388 384.147 290.574C386.659 279.254 396.401 281.068 409.244 279.188C423.896 277.041 425.276 268.628 422.207 259.494C419.475 251.388 418.115 243.121 415.445 235.081C411.396 222.894 393.551 216.401 378.089 212.988C359.86 208.961 342.321 209.708 323.813 211.934C293.389 215.561 262.88 218.574 232.36 221.681C200.825 224.894 169.092 227.628 137.712 231.481C125.797 232.948 95.8841 235.068 96.3321 247.401C96.5121 252.294 101.837 257.108 105.592 260.988L100.993 252.254Z" fill="#A5B166"/>
<path d="M409.115 276.934C409.115 298.161 374.772 315.374 332.365 315.374C290.003 315.374 255.633 298.161 255.633 276.934C255.633 255.667 290.003 238.454 332.365 238.454C374.772 238.454 409.115 255.667 409.115 276.934Z" fill="#B52423"/>
<path d="M409.115 269.121C409.115 290.374 374.772 307.601 332.365 307.601C290.003 307.601 255.633 290.374 255.633 269.121C255.633 247.894 290.003 230.654 332.365 230.654C374.772 230.654 409.115 247.894 409.115 269.121Z" fill="#C35E56"/>
<path d="M402.803 269.121C402.803 288.628 371.275 304.414 332.365 304.414C293.483 304.414 261.952 288.628 261.952 269.121C261.952 249.628 293.483 233.841 332.365 233.841C371.275 233.841 402.803 249.628 402.803 269.121Z" fill="#C16361"/>
<path d="M272.889 282.135C272.889 303.361 238.545 320.588 196.165 320.588C153.775 320.588 119.432 303.361 119.432 282.135C119.432 260.895 153.775 243.668 196.165 243.668C238.545 243.668 272.889 260.895 272.889 282.135Z" fill="#B52423"/>
<path d="M272.889 274.335C272.889 295.575 238.545 312.788 196.165 312.788C153.775 312.788 119.432 295.575 119.432 274.335C119.432 253.081 153.775 235.855 196.165 235.855C238.545 235.855 272.889 253.081 272.889 274.335Z" fill="#C35E56"/>
<path d="M266.599 274.335C266.599 293.841 235.063 309.628 196.165 309.628C157.272 309.628 125.75 293.841 125.75 274.335C125.75 254.828 157.272 239.028 196.165 239.028C235.063 239.028 266.599 254.828 266.599 274.335Z" fill="#C16361"/>
<path d="M402.716 233.787C402.716 274.467 336.887 307.454 255.711 307.454C174.535 307.454 108.723 274.467 108.723 233.787C108.723 193.081 174.535 160.094 255.711 160.094C336.887 160.094 402.716 193.081 402.716 233.787Z" fill="#452115"/>
<path d="M402.533 238.308C402.552 238.575 402.568 238.841 402.568 239.068C402.568 248.908 394.585 256.895 384.737 256.895C382.948 256.895 381.221 256.628 379.592 256.135C379.592 256.375 379.628 256.641 379.628 256.895C379.628 266.748 371.66 274.708 361.8 274.708C359.129 274.708 356.579 274.108 354.289 273.055C351.559 279.361 345.261 283.828 337.903 283.828C333.177 283.828 328.871 281.935 325.659 278.881C325.123 279.041 324.603 279.175 324.044 279.321C321.373 285.508 315.311 289.881 308.169 290.055C308.013 290.068 307.868 290.068 307.707 290.068C304.76 290.068 302.021 289.375 299.615 288.121C298.237 287.401 296.997 286.561 295.853 285.535C295.639 286.028 295.371 286.468 295.095 286.935C291.976 292.121 286.308 295.575 279.832 295.575C273.663 295.575 268.225 292.428 265.013 287.641C264.78 287.641 264.513 287.655 264.251 287.655C261.483 293.895 255.247 298.241 247.992 298.241C240.663 298.241 234.384 293.828 231.636 287.481C228.449 292.375 222.98 295.575 216.717 295.575C209.809 295.575 203.82 291.655 200.857 285.895C197.776 288.495 193.776 290.068 189.421 290.068C182.332 290.068 176.216 285.908 173.347 279.921C172.053 280.255 170.712 280.401 169.331 280.401C163.037 280.401 157.516 277.148 154.355 272.228C145.619 272.521 137.943 266.401 136.289 257.761C133.756 259.148 130.881 259.921 127.805 259.921C117.96 259.921 109.983 251.948 109.983 242.095C109.983 241.935 110.003 241.801 110.003 241.655C102.068 239.855 96.1333 232.761 96.1333 224.255C96.1333 216.081 101.697 209.188 109.243 207.095C111.004 197.721 116.272 188.868 124.369 180.868C127.668 177.615 131.417 174.495 135.575 171.561C162.209 152.721 206.029 140.415 255.567 140.415C284.117 140.415 310.772 144.508 333.339 151.601C369.403 162.881 394.979 181.761 401.113 203.801C409.209 205.468 415.283 212.655 415.283 221.241C415.283 229.308 409.907 236.135 402.533 238.308Z" fill="#602E19"/>
<path d="M114.361 170.747C114.361 170.747 115.259 171.707 116.944 173.48C115.259 173.64 114.361 173.747 114.361 173.747V170.747Z" fill="#602E19"/>
<path d="M299.615 288.121C299.308 288.041 299.003 287.974 298.697 287.894C298.737 287.828 298.779 287.748 298.82 287.681C299.08 287.828 299.344 287.974 299.615 288.121Z" fill="#351710"/>
<path d="M308.169 290.055C305.319 289.468 302.467 288.801 299.615 288.121C299.344 287.975 299.08 287.828 298.82 287.681C302.804 280.908 309.941 273.935 318.939 267.001L318.953 266.988C325.36 262.068 332.699 257.188 340.488 252.441C347.108 250.415 353.659 248.095 360.147 245.468C360.799 245.201 361.423 244.961 362.069 244.681C363.953 243.895 365.813 243.121 367.701 242.268C377.709 237.828 385.304 232.175 390.812 225.721C399.543 221.521 407.547 217.828 414.08 214.788C414.856 216.788 415.283 218.961 415.283 221.241C415.283 229.308 409.907 236.135 402.533 238.308C402.552 238.575 402.568 238.841 402.568 239.068C402.568 248.908 394.585 256.895 384.737 256.895C382.948 256.895 381.221 256.628 379.592 256.135C379.592 256.375 379.628 256.641 379.628 256.895C379.628 266.748 371.66 274.708 361.8 274.708C359.129 274.708 356.579 274.108 354.289 273.055C351.559 279.361 345.261 283.828 337.903 283.828C333.177 283.828 328.871 281.935 325.659 278.881C325.123 279.041 324.603 279.175 324.044 279.321C321.373 285.508 315.311 289.881 308.169 290.055Z" fill="#481F14"/>
<path d="M318.953 266.988L318.939 267.001C303.88 278.588 293.983 290.374 295.423 300.974C295.783 303.654 296.868 306.295 298.831 308.828C163.999 343.108 93.376 205.774 69 205.774C72.0973 205.774 80.12 203.268 91.3973 199.081C145.816 178.881 276.013 119.561 293.749 113.295C288.119 120.095 406.028 189.388 427.357 203.334C429.777 204.921 430.943 205.774 430.587 205.774C438.727 205.774 359.86 235.548 318.953 266.988Z" fill="#FAB763"/>
<path d="M427.357 203.334C399.217 216.427 342.711 242.214 318.953 266.988L318.939 267.001C309.213 274.494 301.659 282.041 297.913 289.321C295.819 293.294 294.896 297.214 295.423 300.974C185.199 318.667 120.871 221.441 91.3975 199.081C93.8948 198.174 96.5468 197.147 99.3455 196.081C157.516 173.574 276.813 119.308 293.749 113.294C288.119 120.094 406.028 189.387 427.357 203.334Z" fill="#FCDBA7"/>
<path d="M297.914 289.321C245.043 284.815 203.585 271.055 171.368 253.775C198.231 261.428 228.159 264.255 255.367 264.255C255.464 264.255 255.564 264.255 255.661 264.255C255.687 264.255 255.709 264.255 255.733 264.255C255.832 264.255 255.931 264.255 256.028 264.255C256.033 264.255 256.038 264.255 256.043 264.255C256.142 264.255 256.237 264.255 256.335 264.255C256.353 264.255 256.371 264.255 256.39 264.255C256.49 264.255 256.592 264.241 256.692 264.241C256.699 264.241 256.703 264.241 256.71 264.241C256.815 264.241 256.915 264.241 257.02 264.241C257.026 264.241 257.028 264.241 257.033 264.241C257.252 264.241 257.472 264.241 257.69 264.241H257.693C284.131 264.081 309.234 261.135 333.371 254.521C327.838 258.655 322.936 262.841 318.953 266.988L318.939 267.001C309.941 273.935 302.804 280.908 298.82 287.681C298.779 287.748 298.737 287.828 298.697 287.895C298.42 288.375 298.159 288.855 297.914 289.321Z" fill="#F79730"/>
<path d="M396.157 218.107C399.843 211.614 401.845 204.547 402.42 197.227C402.505 196.174 402.545 195.094 402.545 194.001C402.544 191.961 402.4 189.841 402.136 187.667C413.581 194.694 422.737 200.307 427.357 203.334C418.947 207.241 408.004 212.294 396.157 218.107ZM110.461 208.294C106.416 204.147 102.716 200.054 99.3452 196.081C102.396 194.894 105.616 193.627 108.979 192.294C108.911 193.507 108.876 194.707 108.875 195.894C108.872 199.427 109.177 202.801 109.853 205.907C110.027 206.707 110.229 207.494 110.461 208.294Z" fill="#F79730"/>
<path d="M402.42 197.227C400.991 215.441 390.733 232.041 367.701 242.267C365.813 243.121 363.953 243.894 362.069 244.68C361.423 244.96 360.799 245.201 360.147 245.467C327.188 258.814 292.605 264.254 255.367 264.254C216.717 264.254 172.573 258.561 139.537 241.401C124.852 233.787 112.868 219.694 109.853 205.907C108.659 200.294 108.641 193.854 109.441 187.134C111.053 174.027 115.859 160.014 121.043 149.907C124.885 142.401 131.483 134.694 139.391 127.494C151.123 116.854 165.743 107.414 178.531 101.707C222.496 82.1738 281.913 87.2672 326.551 102.774C348.707 110.481 368.615 122.161 381.317 138.974C382.677 140.787 384.057 142.787 385.399 144.88C392.939 156.52 399.665 171.881 401.835 185.507C402.475 189.627 402.716 193.601 402.42 197.227Z" fill="#BF8D5D"/>
<path d="M401.835 185.507C399.423 199.694 391.249 212.587 375.305 221.867C372.937 223.241 370.413 224.534 367.701 225.747C365.813 226.561 363.953 227.374 362.069 228.147C328.532 242.067 293.336 247.721 255.367 247.721C216.717 247.721 172.573 242.014 139.537 224.867C124.852 217.241 112.868 203.161 109.853 189.387C109.707 188.654 109.571 187.907 109.441 187.134C111.053 174.027 115.859 160.014 121.043 149.907C124.885 142.401 131.483 134.694 139.391 127.494C151.123 116.854 165.743 107.414 178.531 101.707C222.496 82.174 281.913 87.2673 326.551 102.774C348.707 110.481 368.615 122.161 381.317 138.974C382.677 140.787 384.057 142.787 385.399 144.881C392.939 156.521 399.665 171.881 401.835 185.507Z" fill="#F2B559"/>
<path d="M336.387 253.668C336.456 253.641 336.532 253.628 336.601 253.601C336.531 253.628 336.457 253.641 336.387 253.668Z" fill="#F8A044"/>
<path d="M336.387 253.668C314.481 253.295 294.639 250.948 276.677 247.095C289.811 246.295 302.616 244.721 315.152 242.268C328.019 243.855 341.716 244.721 356.315 244.721C357.821 244.721 359.308 244.708 360.833 244.695C360.608 244.948 360.38 245.215 360.149 245.468C352.393 248.615 344.548 251.295 336.601 253.601C336.532 253.628 336.456 253.641 336.385 253.668" fill="#D69A6C"/>
<path d="M135.938 130.761C137.055 129.667 138.208 128.574 139.391 127.494C138.21 128.574 137.056 129.667 135.938 130.761Z" fill="#30130A"/>
<path d="M276.677 247.095C189.653 228.455 146.804 174.695 127.623 139.921C130.075 136.828 132.875 133.761 135.937 130.761C137.056 129.668 138.209 128.575 139.391 127.495C159.229 165.121 208.131 228.975 315.152 242.268C302.616 244.721 289.811 246.295 276.677 247.095Z" fill="#F2CFA6"/>
<path d="M335.719 253.854C335.941 253.801 336.163 253.734 336.385 253.668C336.387 253.668 336.387 253.668 336.387 253.668C336.164 253.734 335.941 253.801 335.719 253.854Z" fill="#F78D32"/>
<path d="M108.98 192.281C109.06 190.841 109.184 189.401 109.349 187.935C109.189 189.401 109.068 190.841 108.991 192.268C108.987 192.268 108.984 192.281 108.98 192.281Z" fill="#301007"/>
<path d="M108.979 192.294C108.979 192.281 108.98 192.281 108.98 192.281C108.984 192.281 108.987 192.267 108.991 192.267C108.991 192.281 108.991 192.281 108.991 192.281C108.987 192.281 108.983 192.281 108.979 192.294Z" fill="#F78D32"/>
<path d="M256.028 264.254C256.033 264.254 256.039 264.254 256.043 264.254C256.037 264.254 256.033 264.254 256.028 264.254ZM257.02 264.24C257.024 264.24 257.029 264.24 257.033 264.24C257.028 264.24 257.025 264.24 257.02 264.24ZM257.689 264.24C257.692 264.24 257.691 264.24 257.693 264.24H257.689ZM109.853 205.907C109.177 202.8 108.872 199.427 108.875 195.894C108.876 194.707 108.911 193.507 108.979 192.294C108.983 192.281 108.987 192.28 108.991 192.28C108.729 197.134 108.968 201.747 109.853 205.907Z" fill="#DF9F73"/>
<path d="M255.367 264.254C216.717 264.254 172.573 258.561 139.537 241.401C125.696 234.227 114.253 221.294 110.461 208.294C110.229 207.494 110.027 206.707 109.853 205.907C108.968 201.747 108.729 197.134 108.991 192.28C108.991 192.28 108.991 192.281 108.991 192.267C109.068 190.841 109.189 189.401 109.349 187.934C109.379 187.681 109.409 187.414 109.443 187.147C109.572 187.92 109.707 188.654 109.853 189.387C112.868 203.161 124.852 217.241 139.537 224.867C172.573 242.014 216.717 247.721 255.367 247.721C262.567 247.721 269.668 247.521 276.677 247.094C294.639 250.947 314.481 253.294 336.387 253.667C336.163 253.734 335.941 253.801 335.719 253.854C310.857 260.934 284.984 264.08 257.693 264.24C257.691 264.24 257.692 264.24 257.689 264.24C257.471 264.24 257.253 264.24 257.033 264.24C257.029 264.24 257.024 264.24 257.02 264.24C256.917 264.24 256.812 264.24 256.709 264.24C256.703 264.24 256.699 264.24 256.692 264.24C256.591 264.24 256.489 264.254 256.389 264.254C256.371 264.254 256.353 264.254 256.335 264.254C256.237 264.254 256.14 264.254 256.043 264.254C256.039 264.254 256.033 264.254 256.028 264.254C255.931 264.254 255.831 264.254 255.733 264.254C255.709 264.254 255.687 264.254 255.661 264.254C255.563 264.254 255.465 264.254 255.367 264.254Z" fill="#E9A479"/>
<path d="M110.996 178.134C113.248 167.88 117.029 157.734 121.043 149.907C117.033 157.734 113.251 167.88 110.996 178.134Z" fill="#301007"/>
<path d="M121.043 149.907C122.015 147.987 123.169 146.081 124.48 144.161C123.172 146.081 122.019 148.001 121.043 149.907Z" fill="#301007"/>
<path d="M255.367 247.721C216.718 247.721 172.574 242.014 139.538 224.867C124.852 217.241 112.868 203.161 109.854 189.387C109.707 188.654 109.572 187.921 109.443 187.147C109.803 184.201 110.323 181.227 110.972 178.254C110.979 178.214 110.986 178.187 110.992 178.161C110.994 178.147 110.995 178.147 110.996 178.134C113.251 167.881 117.034 157.734 121.043 149.907C122.019 148.001 123.172 146.081 124.48 144.161C125.447 142.747 126.499 141.334 127.623 139.921C146.804 174.694 189.654 228.454 276.678 247.094C269.668 247.521 262.567 247.721 255.367 247.721Z" fill="#EF9D55"/>
<path d="M152.597 141.574C154.209 139.387 156.207 137.947 157.767 137.707C157.652 137.574 157.552 137.44 157.417 137.307C155.931 136.24 152.933 137.84 150.695 140.88C148.453 143.947 147.841 147.28 149.313 148.374C149.727 148.667 150.263 148.747 150.857 148.667C149.883 147.307 150.571 144.32 152.597 141.574Z" fill="#FCDBA7"/>
<path d="M190.901 144.641C192.519 142.427 194.511 141.014 196.087 140.774C195.985 140.627 195.879 140.494 195.735 140.387C194.261 139.321 191.247 140.894 189.021 143.974C186.784 147.014 186.172 150.361 187.631 151.454C188.06 151.734 188.573 151.814 189.188 151.721C188.196 150.374 188.879 147.374 190.901 144.641Z" fill="#FCDBA7"/>
<path d="M182.116 122.4C181.152 121.094 181.832 118.081 183.855 115.321C185.475 113.134 187.483 111.694 189.041 111.467C188.921 111.347 188.808 111.187 188.68 111.094C187.212 110.014 184.201 111.6 181.96 114.667C179.729 117.694 179.083 121.054 180.589 122.147C180.989 122.44 181.545 122.507 182.116 122.4Z" fill="#FCDBA7"/>
<path d="M230.784 132.908C232.396 130.721 234.4 129.281 235.959 129.055C235.859 128.935 235.746 128.774 235.61 128.668C234.134 127.601 231.116 129.188 228.895 132.241C226.647 135.281 226.047 138.641 227.511 139.708C227.924 140.028 228.467 140.081 229.06 140.001C228.089 138.654 228.752 135.654 230.784 132.908Z" fill="#FCDBA7"/>
<path d="M265.805 153.295C267.427 151.068 269.451 149.655 270.993 149.428C270.88 149.295 270.795 149.148 270.633 149.041C269.159 147.974 266.151 149.561 263.923 152.614C261.68 155.668 261.071 159.015 262.543 160.095C262.953 160.401 263.475 160.468 264.081 160.388C263.104 159.041 263.803 156.041 265.805 153.295Z" fill="#FCDBA7"/>
<path d="M288.999 175.334C290.599 173.134 292.605 171.707 294.165 171.481C294.06 171.347 293.947 171.214 293.821 171.094C292.336 170.014 289.323 171.614 287.081 174.654C284.852 177.721 284.223 181.054 285.715 182.161C286.111 182.454 286.668 182.534 287.276 182.441C286.276 181.081 286.953 178.081 288.999 175.334Z" fill="#FCDBA7"/>
<path d="M288.999 115.321C290.599 113.134 292.605 111.694 294.165 111.467C294.06 111.347 293.947 111.187 293.821 111.094C292.336 110.014 289.323 111.6 287.081 114.667C284.852 117.694 284.223 121.054 285.715 122.147C286.111 122.44 286.668 122.507 287.276 122.4C286.276 121.094 286.953 118.081 288.999 115.321Z" fill="#FCDBA7"/>
<path d="M261.18 109.467C262.776 107.267 264.805 105.854 266.339 105.614C266.237 105.467 266.151 105.347 265.988 105.227C264.513 104.147 261.519 105.747 259.277 108.787C257.037 111.841 256.425 115.201 257.9 116.281C258.313 116.587 258.844 116.654 259.444 116.561C258.469 115.214 259.157 112.227 261.18 109.467Z" fill="#FCDBA7"/>
<path d="M333.225 190.041C334.836 187.841 336.855 186.414 338.396 186.214C338.3 186.067 338.199 185.894 338.051 185.801C336.579 184.747 333.573 186.307 331.327 189.361C329.084 192.414 328.471 195.774 329.947 196.854C330.357 197.148 330.893 197.214 331.504 197.121C330.52 195.788 331.203 192.801 333.225 190.041Z" fill="#FCDBA7"/>
<path d="M359.376 153.295C360.988 151.068 362.988 149.655 364.548 149.428C364.433 149.295 364.333 149.148 364.183 149.041C362.712 147.974 359.699 149.561 357.476 152.614C355.235 155.668 354.624 159.015 356.079 160.095C356.508 160.401 357.045 160.468 357.639 160.388C356.648 159.041 357.352 156.041 359.376 153.295Z" fill="#FCDBA7"/>
<path d="M369.088 181.187C370.68 179.001 372.707 177.561 374.245 177.347C374.159 177.214 374.048 177.054 373.895 176.974C372.42 175.894 369.423 177.467 367.181 180.547C364.933 183.574 364.333 186.907 365.795 188.014C366.207 188.307 366.753 188.374 367.344 188.294C366.373 186.961 367.056 183.947 369.088 181.187Z" fill="#FCDBA7"/>
<path d="M328.371 139.121C329.981 136.934 331.996 135.521 333.548 135.281C333.444 135.134 333.339 135.027 333.191 134.907C331.72 133.814 328.721 135.414 326.483 138.467C324.243 141.507 323.631 144.881 325.103 145.961C325.515 146.241 326.052 146.307 326.645 146.227C325.659 144.894 326.347 141.894 328.371 139.121Z" fill="#FCDBA7"/>
<path d="M349.655 121.201C351.272 118.988 353.28 117.561 354.823 117.334C354.735 117.201 354.624 117.068 354.495 116.948C353.009 115.868 350 117.454 347.761 120.508C345.537 123.561 344.907 126.908 346.375 127.974C346.787 128.294 347.345 128.374 347.933 128.294C346.948 126.921 347.628 123.948 349.655 121.201Z" fill="#FCDBA7"/>
<path d="M178.999 190.041C180.615 187.841 182.616 186.414 184.186 186.214C184.071 186.067 183.967 185.894 183.837 185.801C182.357 184.747 179.341 186.307 177.111 189.361C174.853 192.414 174.259 195.774 175.718 196.854C176.147 197.148 176.663 197.214 177.292 197.121C176.292 195.788 176.972 192.801 178.999 190.041Z" fill="#FCDBA7"/>
<path d="M164.415 170.148C166.025 167.948 168.043 166.521 169.581 166.295C169.488 166.148 169.384 166.015 169.237 165.908C167.767 164.828 164.759 166.455 162.511 169.481C160.273 172.548 159.66 175.868 161.133 176.961C161.547 177.255 162.099 177.335 162.672 177.241C161.712 175.921 162.388 172.921 164.415 170.148Z" fill="#FCDBA7"/>
<path d="M141.132 176C142.769 173.814 144.757 172.374 146.316 172.16C146.216 172.027 146.103 171.88 145.972 171.774C144.491 170.68 141.493 172.294 139.251 175.334C137.013 178.387 136.403 181.747 137.875 182.814C138.28 183.107 138.824 183.214 139.424 183.107C138.444 181.76 139.109 178.774 141.132 176Z" fill="#FCDBA7"/>
<path d="M205.467 172.467C207.087 170.267 209.095 168.827 210.655 168.614C210.551 168.48 210.436 168.321 210.3 168.241C208.808 167.134 205.815 168.747 203.573 171.774C201.341 174.841 200.723 178.187 202.183 179.254C202.599 179.574 203.141 179.64 203.739 179.547C202.764 178.2 203.444 175.214 205.467 172.467Z" fill="#FCDBA7"/>
<path d="M221.073 184.188C222.685 181.974 224.705 180.548 226.235 180.321C226.147 180.188 226.047 180.054 225.917 179.948C224.425 178.841 221.412 180.468 219.172 183.494C216.933 186.548 216.319 189.894 217.792 190.974C218.207 191.294 218.741 191.374 219.352 191.294C218.361 189.934 219.051 186.948 221.073 184.188Z" fill="#FCDBA7"/>
<path d="M265.805 201.268C267.427 199.081 269.451 197.628 270.993 197.428C270.88 197.268 270.795 197.121 270.633 197.041C269.159 195.948 266.151 197.548 263.923 200.588C261.68 203.641 261.071 207.001 262.543 208.068C262.953 208.375 263.475 208.468 264.081 208.375C263.104 207.041 263.803 204.041 265.805 201.268Z" fill="#FCDBA7"/>
<path d="M156.041 144.801C158.052 142.041 158.743 139.055 157.767 137.708C156.207 137.948 154.209 139.388 152.597 141.575C150.571 144.321 149.883 147.308 150.857 148.668C152.396 148.441 154.423 147.015 156.041 144.801Z" fill="#BB9A6C"/>
<path d="M194.348 147.867C196.379 145.121 197.06 142.147 196.087 140.774C194.511 141.014 192.519 142.427 190.901 144.641C188.879 147.374 188.196 150.374 189.188 151.721C190.729 151.494 192.753 150.081 194.348 147.867Z" fill="#BB9A6C"/>
<path d="M183.855 115.321C181.832 118.081 181.152 121.095 182.116 122.401C183.685 122.188 185.688 120.788 187.3 118.561C189.324 115.815 190.005 112.828 189.041 111.468C187.483 111.695 185.475 113.135 183.855 115.321Z" fill="#BB9A6C"/>
<path d="M234.237 136.134C236.261 133.388 236.933 130.401 235.959 129.054C234.4 129.281 232.396 130.721 230.784 132.908C228.752 135.654 228.089 138.654 229.06 140.001C230.595 139.788 232.627 138.348 234.237 136.134Z" fill="#BB9A6C"/>
<path d="M269.252 156.521C271.295 153.774 271.957 150.774 270.993 149.428C269.451 149.654 267.427 151.068 265.805 153.294C263.803 156.041 263.104 159.041 264.081 160.388C265.644 160.148 267.652 158.721 269.252 156.521Z" fill="#BB9A6C"/>
<path d="M292.444 178.574C294.447 175.84 295.129 172.854 294.165 171.48C292.605 171.707 290.599 173.134 288.999 175.334C286.953 178.08 286.276 181.08 287.276 182.44C288.805 182.214 290.803 180.787 292.444 178.574Z" fill="#BB9A6C"/>
<path d="M292.444 118.561C294.447 115.815 295.129 112.828 294.165 111.468C292.605 111.695 290.599 113.135 288.999 115.321C286.953 118.081 286.276 121.095 287.276 122.401C288.805 122.188 290.803 120.788 292.444 118.561Z" fill="#BB9A6C"/>
<path d="M264.617 112.721C266.651 109.934 267.333 106.974 266.339 105.614C264.805 105.854 262.776 107.267 261.18 109.467C259.157 112.227 258.469 115.214 259.444 116.561C261.003 116.334 263.005 114.894 264.617 112.721Z" fill="#BB9A6C"/>
<path d="M336.672 193.281C338.696 190.534 339.376 187.534 338.396 186.214C336.855 186.414 334.836 187.841 333.225 190.041C331.203 192.801 330.52 195.788 331.504 197.121C333.045 196.908 335.077 195.494 336.672 193.281Z" fill="#BB9A6C"/>
<path d="M362.823 156.521C364.845 153.774 365.515 150.774 364.548 149.428C362.988 149.654 360.988 151.068 359.376 153.294C357.352 156.041 356.648 159.041 357.639 160.388C359.199 160.148 361.201 158.721 362.823 156.521Z" fill="#BB9A6C"/>
<path d="M372.524 184.441C374.548 181.694 375.236 178.694 374.245 177.347C372.707 177.561 370.68 179.001 369.088 181.187C367.056 183.947 366.373 186.961 367.344 188.294C368.907 188.067 370.913 186.641 372.524 184.441Z" fill="#BB9A6C"/>
<path d="M331.807 142.374C333.856 139.627 334.539 136.627 333.548 135.281C331.996 135.521 329.981 136.934 328.371 139.121C326.347 141.894 325.659 144.894 326.645 146.228C328.188 146.014 330.212 144.587 331.807 142.374Z" fill="#BB9A6C"/>
<path d="M353.097 124.427C355.131 121.667 355.803 118.667 354.823 117.334C353.28 117.561 351.272 118.987 349.655 121.201C347.628 123.947 346.948 126.921 347.933 128.294C349.483 128.054 351.488 126.641 353.097 124.427Z" fill="#BB9A6C"/>
<path d="M182.46 193.281C184.468 190.534 185.149 187.534 184.185 186.214C182.616 186.414 180.615 187.841 178.999 190.041C176.972 192.801 176.292 195.788 177.292 197.121C178.816 196.908 180.839 195.494 182.46 193.281Z" fill="#BB9A6C"/>
<path d="M167.858 173.401C169.884 170.628 170.566 167.641 169.582 166.295C168.043 166.521 166.026 167.948 164.415 170.148C162.388 172.921 161.712 175.921 162.672 177.241C164.232 177.028 166.246 175.601 167.858 173.401Z" fill="#BB9A6C"/>
<path d="M144.595 179.254C146.628 176.494 147.28 173.507 146.316 172.161C144.758 172.374 142.77 173.814 141.132 176.001C139.11 178.774 138.444 181.761 139.424 183.107C140.96 182.867 142.984 181.454 144.595 179.254Z" fill="#BB9A6C"/>
<path d="M208.912 175.708C210.936 172.961 211.625 169.961 210.655 168.615C209.095 168.828 207.087 170.268 205.467 172.468C203.444 175.215 202.764 178.201 203.739 179.548C205.287 179.308 207.319 177.895 208.912 175.708Z" fill="#BB9A6C"/>
<path d="M224.54 187.427C226.544 184.667 227.226 181.681 226.235 180.321C224.706 180.547 222.686 181.974 221.074 184.187C219.051 186.947 218.362 189.934 219.352 191.294C220.895 191.041 222.899 189.627 224.54 187.427Z" fill="#BB9A6C"/>
<path d="M269.252 204.521C271.295 201.747 271.957 198.774 270.993 197.427C269.451 197.627 267.427 199.081 265.805 201.267C263.803 204.041 263.104 207.041 264.081 208.374C265.644 208.134 267.652 206.721 269.252 204.521Z" fill="#BB9A6C"/>
<path d="M360.147 245.468C360.148 245.468 360.148 245.468 360.149 245.468C360.789 245.201 361.429 244.948 362.069 244.681C361.423 244.961 360.799 245.201 360.147 245.468ZM360.833 244.694C366.96 237.708 371.695 229.961 375.305 221.868C391.249 212.588 399.423 199.694 401.835 185.508C402.289 188.428 402.543 191.281 402.545 194.001C402.545 195.094 402.505 196.174 402.42 197.228C400.991 215.441 390.733 232.041 367.701 242.268C365.813 243.121 363.953 243.894 362.069 244.681C361.659 244.681 361.243 244.694 360.833 244.694Z" fill="#B68E63"/>
<path d="M375.305 221.867C387.209 195.321 387.287 164.974 385.399 144.88C392.939 156.52 399.665 171.88 401.835 185.507C399.423 199.694 391.249 212.587 375.305 221.867Z" fill="#F9B239"/>
<path d="M360.149 245.468C360.38 245.214 360.608 244.948 360.833 244.694C361.243 244.694 361.659 244.681 362.069 244.681C361.429 244.948 360.789 245.201 360.149 245.468Z" fill="#BB8D63"/>
</g>
<circle cx="354.5" cy="224.5" r="82.5" fill="#F56E4F"/>
<path d="M356 178.001V268.001" stroke="white" stroke-width="9" stroke-linecap="round"/>
<path d="M311 223.001H401" stroke="white" stroke-width="9" stroke-linecap="round"/>
</svg>
