<svg id="Capa_1" enable-background="new 0 0 512 512" height="512" viewBox="0 0 512 512" width="512" xmlns="http://www.w3.org/2000/svg" xmlns:xlink="http://www.w3.org/1999/xlink"><linearGradient id="SVGID_1_" gradientUnits="userSpaceOnUse" x1="256" x2="256" y1="512" y2="120"><stop offset="0" stop-color="#5558ff"/><stop offset="1" stop-color="#00c0ff"/></linearGradient><linearGradient id="SVGID_00000116953753220098834170000015542168735760487811_" gradientUnits="userSpaceOnUse" x1="301" x2="301" y1="512" y2="0"><stop offset="0" stop-color="#addcff"/><stop offset=".5028" stop-color="#eaf6ff"/><stop offset="1" stop-color="#eaf6ff"/></linearGradient><g><g><g><path d="m450 340.699-30-38.699h-30l-51.301 60-68.699 20.881v-50.881h45c8.401 0 15-6.601 15-15v-182c0-8.401-6.599-15-15-15h-75l-15 30-15-30h-90l-15 30-15-30h-75c-8.401 0-15 6.599-15 15v302c0 24.898 20.099 45 45 45h210c8.401 0 15-6.601 15-15v-37.5l90 22.5 30 60h30l30-60 62-30v-30z" fill="url(#SVGID_1_)"/></g></g><g><g><path d="m203.32 259.52c-6.855-4.57-16.172-2.739-20.801 4.16l-60 90c-4.6 6.899-2.725 16.201 4.16 20.801 6.837 4.558 16.152 2.79 20.801-4.16l60-90c4.6-6.9 2.725-16.202-4.16-20.801zm-68.32 27.48c8.284 0 15-6.716 15-15s-6.716-15-15-15-15 6.716-15 15 6.716 15 15 15zm60 60c-8.284 0-15 6.716-15 15s6.716 15 15 15 15-6.716 15-15-6.716-15-15-15zm45-30v75h128.699l-4.199-4.501c-6-5.7-6-15.3 0-21 5.7-5.999 15.298-5.999 20.999 0l4.501 4.2v-68.699h-135c-8.401 0-15 6.599-15 15zm257-15h-77v68.699l4.501-4.2c5.7-5.999 15.298-5.999 20.999 0 6 5.7 6 15.3 0 21l-4.199 4.501h70.699v-75c0-8.401-6.599-15-15-15zm-77 210h77c8.401 0 15-6.601 15-15v-75h-92zm-180-15c0 8.399 6.599 15 15 15h135v-90h-150zm0-422c0-41.4-33.6-75-75-75s-75 33.6-75 75v90c0 8.399 6.599 15 15 15s15-6.601 15-15v-90c0-24.9 20.099-45 45-45s45 20.1 45 45v90c0 8.399 6.599 15 15 15s15-6.601 15-15z" fill="url(#SVGID_00000116953753220098834170000015542168735760487811_)"/></g></g></g></svg>