<svg width="60" height="60" viewBox="0 0 60 60" fill="none" xmlns="http://www.w3.org/2000/svg">
<g clip-path="url(#clip0_303_264)">
<path d="M30 60C46.5685 60 60 46.5685 60 30C60 13.4315 46.5685 0 30 0C13.4315 0 0 13.4315 0 30C0 46.5685 13.4315 60 30 60Z" fill="url(#paint0_linear_303_264)"/>
<path d="M29.9999 7.03125L24.2815 18.5156L29.9999 30L42.1641 25.9228L46.2413 13.7586C42.0847 9.60211 36.3425 7.03125 29.9999 7.03125Z" fill="#FFE278"/>
<path d="M29.9999 7.03125C24.1217 7.03125 18.2434 9.27375 13.7585 13.7586L17.8357 25.9228L29.9999 30V7.03125Z" fill="#B0D16F"/>
<path d="M13.7586 13.7585C9.60211 17.9151 7.03125 23.6573 7.03125 29.9999L18.5156 35.7183L30 29.9999L13.7586 13.7585Z" fill="#45C5FF"/>
<path d="M7.03125 30C7.03125 35.8782 9.27375 41.7565 13.7586 46.2414L25.9228 42.1642L30 30H7.03125Z" fill="#0CA8ED"/>
<path d="M13.7585 46.2414C17.9151 50.3979 23.6573 52.9688 29.9999 52.9688L35.7183 41.4844L29.9999 30L13.7585 46.2414Z" fill="#1365C2"/>
<path d="M30 52.9688C35.8782 52.9688 41.7565 50.7262 46.2414 46.2414L42.1642 34.0772L30 30V52.9688Z" fill="#F71E78"/>
<path d="M46.2414 46.2413C50.3979 42.0847 52.9688 36.3425 52.9688 29.9999L41.4844 24.2815L30 29.9999L46.2414 46.2413Z" fill="#FF776B"/>
<path d="M46.2414 13.7585L30 29.9999H52.9688C52.9688 24.1217 50.7262 18.2434 46.2414 13.7585Z" fill="#FFB54C"/>
</g>
<defs>
<linearGradient id="paint0_linear_303_264" x1="8.78684" y1="8.78684" x2="51.2132" y2="51.2132" gradientUnits="userSpaceOnUse">
<stop stop-color="#ABD5ED"/>
<stop offset="1" stop-color="#97BEDB"/>
</linearGradient>
<clipPath id="clip0_303_264">
<rect width="60" height="60" fill="white"/>
</clipPath>
</defs>
</svg>
