<svg width="60" height="60" viewBox="0 0 60 60" fill="none" xmlns="http://www.w3.org/2000/svg">
<g clip-path="url(#clip0_303_254)">
<path d="M30 60C46.5685 60 60 46.5685 60 30C60 13.4315 46.5685 0 30 0C13.4315 0 0 13.4315 0 30C0 46.5685 13.4315 60 30 60Z" fill="url(#paint0_linear_303_254)"/>
<path d="M45.8202 30.0001C45.8202 29.0156 46.5935 28.2423 47.578 28.2423H52.7811C51.9022 17.0626 42.9374 8.09766 31.7577 7.21875V12.422C31.7577 13.4063 30.9844 14.1798 29.9999 14.1798C29.0154 14.1798 28.2421 13.4063 28.2421 12.422V7.21875C17.0624 8.09766 8.09766 17.0626 7.21875 28.2423H12.4218C13.4062 28.2423 14.1796 29.0156 14.1796 30.0001C14.1796 30.9844 13.4062 31.7579 12.4218 31.7579H7.21875C8.09766 42.9376 17.0625 51.9023 28.2421 52.7812V47.5782C28.2421 46.5938 29.0154 45.8204 29.9999 45.8204C30.9844 45.8204 31.7577 46.5938 31.7577 47.5782V52.7811C42.9374 51.9023 51.9022 42.9376 52.7811 31.7579H47.578C46.5935 31.7579 45.8202 30.9844 45.8202 30.0001ZM38.2615 38.2618C37.6291 38.965 36.4332 38.9652 35.8007 38.2618L28.7694 31.2306C28.4888 31.0064 28.242 30.5263 28.242 30.0001V19.4532C28.242 18.4688 29.0153 17.6954 29.9998 17.6954C30.9843 17.6954 31.7576 18.4688 31.7576 19.4532V29.2617L38.2614 35.8008C38.9647 36.4687 38.9647 37.5938 38.2615 38.2618Z" fill="url(#paint1_linear_303_254)"/>
</g>
<defs>
<linearGradient id="paint0_linear_303_254" x1="30" y1="60" x2="30" y2="0" gradientUnits="userSpaceOnUse">
<stop stop-color="#5558FF"/>
<stop offset="1" stop-color="#00C0FF"/>
</linearGradient>
<linearGradient id="paint1_linear_303_254" x1="29.9999" y1="52.7812" x2="29.9999" y2="7.21875" gradientUnits="userSpaceOnUse">
<stop stop-color="#ADDCFF"/>
<stop offset="0.5028" stop-color="#EAF6FF"/>
<stop offset="1" stop-color="#EAF6FF"/>
</linearGradient>
<clipPath id="clip0_303_254">
<rect width="60" height="60" fill="white"/>
</clipPath>
</defs>
</svg>
