<svg width="57" height="25" viewBox="0 0 57 59" fill="none" xmlns="http://www.w3.org/2000/svg">
<path d="M40.627 4.13193H9.96215C5.56475 4.13193 2 8.90809 2 14.7999V27.0779C2 32.9697 5.56475 37.7458 9.96215 37.7458H47.2981L53.0126 45.8909H55.2427L55.2427 19.7915C55.2427 18.0513 53.1844 14.4569 52.6327 13.0057" stroke="white" stroke-width="2" stroke-miterlimit="10"/>
<path d="M9.30782 17.7036H28.9941" stroke="white" stroke-width="2" stroke-miterlimit="10"/>
<path d="M9.30782 25.0114H29.5664" stroke="white" stroke-width="2" stroke-miterlimit="10"/>
<path d="M53.8565 2.22101C52.2285 0.592998 49.5889 0.592998 47.9609 2.22101L31.6516 18.5143V24.4259L37.5604 24.4127L53.8565 8.11659C55.4845 6.48858 55.4845 3.84902 53.8565 2.22101Z" stroke="white" stroke-width="2" stroke-miterlimit="10"/>
<path d="M43.7589 6.21986L49.5962 12.0571" stroke="white" stroke-width="2" stroke-miterlimit="10"/>
<path d="M28.5752 45.7675L30.932 48.7328L34.4805 50.0578L32.3886 53.2157L32.2248 57L28.5752 55.9863L24.9256 57L24.7618 53.2157L22.6699 50.0578L26.2185 48.7328L28.5752 45.7675Z" stroke="white" stroke-width="2" stroke-miterlimit="10"/>
<path d="M7.9052 45.7675L10.2621 48.7328L13.8105 50.0578L11.7186 53.2157L11.5549 57L7.9052 55.9863L4.25557 57L4.0919 53.2157L2 50.0578L5.54845 48.7328L7.9052 45.7675Z" stroke="white" stroke-width="2" stroke-miterlimit="10"/>
<path d="M49.2452 45.7675L51.602 48.7328L55.1504 50.0578L53.0585 53.2157L52.8949 57L49.2452 55.9863L45.5955 57L45.4318 53.2157L43.3399 50.0578L46.8884 48.7328L49.2452 45.7675Z" stroke="white" stroke-width="2" stroke-miterlimit="10"/>
</svg>
