<svg width="25" height="25" viewBox="0 0 56 56" fill="none" xmlns="http://www.w3.org/2000/svg">
<mask id="mask0_61_54" style="mask-type:luminance" maskUnits="userSpaceOnUse" x="0" y="0" width="56" height="56">
<path d="M0 0H56V56H0V0Z" fill="white"/>
</mask>
<g mask="url(#mask0_61_54)">
<path d="M31.7645 19.9176C29.3194 16.7913 25.4927 14.8003 21.1976 14.8772C14.3429 14.9998 8.59993 20.6063 8.32354 27.4565C8.02101 34.9526 14.0084 41.125 21.4375 41.125H37.2969C42.4314 41.125 46.5938 36.9626 46.5938 31.8281C46.5938 26.6936 42.4314 22.5312 37.2969 22.5312C35.1543 22.5312 33.0844 21.6053 31.7645 19.9176Z" stroke="white" stroke-width="2" stroke-miterlimit="10" stroke-linecap="round" stroke-linejoin="round"/>
<path d="M54.3594 28C54.3594 42.5579 42.5579 54.3594 28 54.3594C13.4421 54.3594 1.64062 42.5579 1.64062 28C1.64062 13.4421 13.4421 1.64062 28 1.64062C42.5579 1.64062 54.3594 13.4421 54.3594 28Z" stroke="white" stroke-width="2" stroke-miterlimit="10" stroke-linecap="round" stroke-linejoin="round"/>
<path d="M46.6389 9.36112L9.36108 46.6389" stroke="white" stroke-width="2" stroke-miterlimit="10" stroke-linecap="round" stroke-linejoin="round"/>
<path d="M25.8125 28C25.8125 30.4162 23.8537 32.375 21.4375 32.375C19.0213 32.375 17.0625 30.4162 17.0625 28C17.0625 25.5838 19.0213 23.625 21.4375 23.625C23.8537 23.625 25.8125 25.5838 25.8125 28Z" stroke="white" stroke-width="2" stroke-miterlimit="10" stroke-linecap="round" stroke-linejoin="round"/>
</g>
</svg>
