<svg width="65" height="65" viewBox="0 0 65 65" fill="none" xmlns="http://www.w3.org/2000/svg">
<circle cx="32.5" cy="32.5" r="31.5" stroke="#777777" stroke-width="2"/>
<path d="M49.0088 14H15.9911C14.4026 14.0019 12.8797 14.6334 11.7565 15.7557C10.6334 16.878 10.0017 18.3997 10 19.9868V37.5113C10.0019 39.0982 10.6337 40.6196 11.7568 41.7417C12.88 42.8639 14.4027 43.4951 15.9911 43.497H27.1123L32.5 53L37.8877 43.4968H49.0089C50.5973 43.4949 52.12 42.8637 53.2431 41.7416C54.3663 40.6194 54.9981 39.0981 55 37.5111V19.9871C54.9984 18.4 54.3668 16.8782 53.2436 15.7558C52.1204 14.6334 50.5974 14.0019 49.0088 14ZM53.3351 37.5113C53.334 38.6573 52.8778 39.756 52.0667 40.5664C51.2556 41.3768 50.1559 41.8326 49.0089 41.8338H36.9182L32.5 49.6266L28.0817 41.8338H15.9911C14.8441 41.8326 13.7443 41.3768 12.9333 40.5664C12.1222 39.756 11.666 38.6573 11.6649 37.5113V19.9871C11.666 18.841 12.1221 17.7421 12.9332 16.9316C13.7442 16.121 14.8439 15.6649 15.9911 15.6634H49.0088C50.156 15.6649 51.2557 16.121 52.0667 16.9316C52.8778 17.7421 53.3339 18.841 53.335 19.9871L53.3351 37.5113Z" fill="#777777"/>
<circle cx="23" cy="33" r="1" stroke="#777777" stroke-width="2"/>
<circle cx="41" cy="33" r="1" stroke="#777777" stroke-width="2"/>
<circle cx="32" cy="33" r="1" stroke="#777777" stroke-width="2"/>
</svg>
