<svg width="65" height="66" viewBox="0 0 65 66" fill="none" xmlns="http://www.w3.org/2000/svg">
<path d="M21.6423 0.0263672H0V21.6621H21.6423V0.0263672ZM18.976 19.0024H2.65969V2.68606H18.976V19.0024Z" fill="#777777"/>
<path d="M5.40564 48.7898H16.2169V59.6077H5.40564V48.7898Z" fill="#777777"/>
<path d="M2.69287 32.5198H8.09848V37.9254H2.69287V32.5198Z" fill="#777777"/>
<path d="M29.7541 0H35.1597V5.40561H29.7541V0Z" fill="#777777"/>
<path d="M64.9602 0.0263672H43.3179V21.6621H64.9602V0.0263672ZM62.3005 19.0024H45.9842V2.68606H62.3005V19.0024Z" fill="#777777"/>
<path d="M5.40564 5.43213H16.2169V16.25H5.40564V5.43213Z" fill="#777777"/>
<path d="M48.7301 5.43213H59.548V16.25H48.7301V5.43213Z" fill="#777777"/>
<path d="M24.3551 16.2434H29.7872V21.649H35.1929V16.2434H40.625V10.8377H29.7607V5.43213H24.3551V11.4678H24.3617V16.2434H24.3551Z" fill="#777777"/>
<path d="M48.7699 43.318L48.7632 37.9256H45.9974V32.52V32.5001H54.1888V37.9322H59.5944V32.5001H59.601V27.0945H46.0041H40.6316H40.5984V32.52H35.1597V27.0945H29.7541V32.52H24.3882V29.0312H24.3551V27.0945H8.11835V32.5001H18.9893V32.52V34.8746V37.9256H29.7806V43.3312H29.7872V48.7435H35.1928V43.3312H43.2979V48.7833H37.9255V59.6078H43.3311V54.1955H48.7699V48.7435H54.1755V43.3379H48.7699V43.318Z" fill="#777777"/>
<path d="M59.5944 54.2419H65V65.0664H59.5944V54.2419Z" fill="#777777"/>
<path d="M54.1888 48.7898H59.5944V54.1954H54.1888V48.7898Z" fill="#777777"/>
<path d="M59.5944 37.9453H65V48.7764H59.5944V37.9453Z" fill="#777777"/>
<path d="M0 65.0198H21.6357V43.3774H0V65.0198ZM2.66633 46.0438H18.9827V62.3601H2.66633V46.0438Z" fill="#777777"/>
<path d="M29.7873 59.6543H35.1929V65.0599H29.7873V59.6543Z" fill="#777777"/>
<path d="M35.1597 21.6953H40.5653V27.0943H35.1597V21.6953Z" fill="#777777"/>
<path d="M24.3551 48.783H29.7607V59.6074H24.3551V48.783Z" fill="#777777"/>
<path d="M48.7699 59.6542H43.3046V65.0598H48.7699V65.0664H54.1755V54.2419H48.7699V59.6542Z" fill="#777777"/>
<rect x="0.75" y="0.75" width="20.5" height="20.5" stroke="#777777" stroke-width="1.5"/>
<rect x="43.75" y="0.75" width="20.5" height="20.5" stroke="#777777" stroke-width="1.5"/>
<rect x="48" y="5" width="12" height="12" fill="#777777"/>
<rect x="5" y="5" width="12" height="12" fill="#777777"/>
<rect x="30" width="5" height="5" fill="#777777"/>
<rect x="35" y="11" width="5" height="5" fill="#777777"/>
<rect x="44" y="60" width="5" height="5" fill="#777777"/>
<rect x="8" y="27" width="11" height="5" fill="#777777"/>
<rect x="21" y="33" width="11" height="5" fill="#777777"/>
<rect x="45" y="27" width="11" height="5" fill="#777777"/>
<rect x="3" y="33" width="5" height="5" fill="#777777"/>
<rect x="35" y="22" width="5" height="5" fill="#777777"/>
<rect x="54" y="49" width="5" height="5" fill="#777777"/>
<rect x="49" y="43" width="5" height="5" fill="#777777"/>
<rect x="30" y="60" width="5" height="5" fill="#777777"/>
<rect x="60" y="38" width="5" height="11" fill="#777777"/>
<rect x="60" y="54" width="5" height="11" fill="#777777"/>
<rect x="30" y="27" width="5" height="22" fill="#777777"/>
<rect x="41" y="27" width="5" height="16" fill="#777777"/>
<rect x="25" y="48" width="5" height="12" fill="#777777"/>
<rect x="39" y="49" width="5" height="11" fill="#777777"/>
<rect x="55" y="27" width="5" height="11" fill="#777777"/>
<rect x="19" y="27" width="5" height="11" fill="#777777"/>
<rect x="49" y="54" width="5" height="11" fill="#777777"/>
<rect x="25" y="5" width="5" height="11" fill="#777777"/>
<rect x="30" y="11" width="5" height="11" fill="#777777"/>
<rect x="34" y="33" width="7" height="10" fill="#777777"/>
<rect x="44" y="38" width="5" height="16" fill="#777777"/>
<rect x="5" y="48" width="12" height="12" fill="#777777"/>
<rect x="0.75" y="43.75" width="20.5" height="20.5" stroke="#777777" stroke-width="1.5"/>
</svg>
