<svg width="65" height="65" viewBox="0 0 65 65" fill="none" xmlns="http://www.w3.org/2000/svg">
<path d="M56.413 11.5472C56.9652 11.5472 57.413 11.0995 57.413 10.5472V1.54721C57.413 0.994924 56.9652 0.547208 56.413 0.547208C55.8607 0.547208 55.413 0.994924 55.413 1.54721V9.54721H47.413C46.8607 9.54721 46.413 9.99493 46.413 10.5472C46.413 11.0995 46.8607 11.5472 47.413 11.5472H56.413ZM54.2221 9.77058L55.7059 11.2543L57.1201 9.8401L55.6363 8.35637L54.2221 9.77058Z" fill="#777777"/>
<path fill-rule="evenodd" clip-rule="evenodd" d="M32.5 63C49.3447 63 63 49.3447 63 32.5C63 32.333 62.9987 32.1663 62.996 32H64.9962C64.9987 32.1664 65 32.333 65 32.5C65 50.4493 50.4493 65 32.5 65C14.5507 65 0 50.4493 0 32.5C0 14.5507 14.5507 0 32.5 0C41.2434 0 49.1804 3.45267 55.022 9.06896L53.5867 10.4636C48.1093 5.22081 40.6808 2 32.5 2C15.6553 2 2 15.6553 2 32.5C2 49.3447 15.6553 63 32.5 63Z" fill="#777777"/>
<path fill-rule="evenodd" clip-rule="evenodd" d="M41.9451 23C41.4476 18.5 37.6326 15 33 15C28.3674 15 24.5524 18.5 24.0549 23H22.0448C22.5501 17.3935 27.262 13 33 13C38.738 13 43.4499 17.3935 43.9552 23H41.9451Z" fill="#777777"/>
<line x1="23" y1="23" x2="23" y2="36" stroke="#777777" stroke-width="2"/>
<path fill-rule="evenodd" clip-rule="evenodd" d="M18 28H48V50H18V28ZM34.5 38.5986C35.3967 38.0799 36 37.1103 36 36C36 34.3433 34.6569 33 33 33C31.3431 33 30 34.3433 30 36C30 37.1103 30.6033 38.0799 31.5 38.5986V42C31.5 42.8284 32.1716 43.5 33 43.5C33.8284 43.5 34.5 42.8284 34.5 42V38.5986Z" fill="#777777"/>
</svg>
