<svg width="69" height="64" viewBox="0 0 69 64" fill="none" xmlns="http://www.w3.org/2000/svg">
<rect x="6" y="1" width="62" height="62" stroke="black" stroke-width="2"/>
<line y1="33" x2="15" y2="33" stroke="black" stroke-width="2"/>
<line y1="17" x2="15" y2="17" stroke="black" stroke-width="2"/>
<line y1="50" x2="15" y2="50" stroke="black" stroke-width="2"/>
<path d="M21.0568 46.2727H22.3182L25.2841 53.517H25.3864L28.3523 46.2727H29.6136V55H28.625V48.3693H28.5398L25.8125 55H24.858L22.1307 48.3693H22.0455V55H21.0568V46.2727ZM31.7326 55V46.2727H36.9996V47.2102H32.7894V50.1591H36.7269V51.0966H32.7894V54.0625H37.0678V55H31.7326ZM45.8249 46.2727V55H44.8022L40.0465 48.1477H39.9613V55H38.9045V46.2727H39.9272L44.6999 53.142H44.7852V46.2727H45.8249ZM53.6669 46.2727H54.7237V52.0511C54.7237 52.6477 54.5831 53.1804 54.3018 53.6491C54.0234 54.1151 53.63 54.483 53.1214 54.7528C52.6129 55.0199 52.0163 55.1534 51.3317 55.1534C50.647 55.1534 50.0504 55.0199 49.5419 54.7528C49.0334 54.483 48.6385 54.1151 48.3572 53.6491C48.0788 53.1804 47.9396 52.6477 47.9396 52.0511V46.2727H48.9964V51.9659C48.9964 52.392 49.0902 52.7713 49.2777 53.1037C49.4652 53.4332 49.7322 53.6932 50.0788 53.8835C50.4283 54.071 50.8459 54.1648 51.3317 54.1648C51.8175 54.1648 52.2351 54.071 52.5845 53.8835C52.9339 53.6932 53.201 53.4332 53.3857 53.1037C53.5732 52.7713 53.6669 52.392 53.6669 51.9659V46.2727Z" fill="black"/>
<path d="M39.3906 15.25V35.5938L42.8906 36.0312V38H32.7969V36.0312L36.3125 35.5938V18.5469L32.7344 18.6094V16.6875L39.3906 15.25Z" fill="black"/>
</svg>
