<svg xmlns="http://www.w3.org/2000/svg" viewBox="0 0 90 90"><defs><style>.a{fill:#495966;}</style></defs><title>shipper-client-portal-save-time</title><path class="a" d="M45,0A45,45,0,1,0,90,45,45.05,45.05,0,0,0,45,0Zm0,88.1435A43.144,43.144,0,1,1,88.1444,45,43.1934,43.1934,0,0,1,45,88.1438Z"/><path class="a" d="M76.1787,45.9278H79.794V44.0722H76.1787c.0089.3086.0244.6173.0244.9273S76.1875,45.6182,76.1787,45.9278Z"/><path class="a" d="M13.8214,44.0722h-3.615v1.8556h3.615c-.01-.31-.0244-.6172-.0244-.9282S13.8115,44.3808,13.8214,44.0722Z"/><path class="a" d="M45.928,13.8207V10.2057H44.0725v3.6149c.3086-.0108.6154-.0239.9273-.0239S45.6184,13.81,45.928,13.8207Z"/><path class="a" d="M44.0725,76.1788v3.615H45.928v-3.615c-.31.0089-.6154.0235-.9282.0235S44.3811,76.1878,44.0725,76.1788Z"/><path class="a" d="M14.4035,61.5939l.9278,1.606,3.1323-1.8087q-.4869-.7887-.9343-1.6036Z"/><path class="a" d="M75.5961,28.4061,74.6683,26.8,71.537,28.6087c.3246.5244.6365,1.0582.9306,1.6037Z"/><path class="a" d="M28.4073,14.4032l-1.6088.9282,1.8105,3.1332c.5254-.326,1.0563-.64,1.6032-.9339Z"/><path class="a" d="M61.5923,75.5963l1.6088-.9278-1.81-3.1332q-.788.4883-1.6041.9334Z"/><path class="a" d="M26.7984,74.6685l1.606.9278,1.8077-3.1276c-.5469-.296-1.0778-.6079-1.6032-.9334Z"/><path class="a" d="M63.1983,15.3315l-1.606-.9282-1.8049,3.1276c.5436.2941,1.0788.6079,1.6041.9339Z"/><path class="a" d="M15.3312,26.8l-.9278,1.6065,3.1257,1.8063q.446-.8182.9343-1.6037Z"/><path class="a" d="M72.99,55.1637l.6126,2.2861.8588,3.2027-1.88-1.0859L50.096,46.5854a5.3374,5.3374,0,1,0-9.819.89L29.2,58.5357V54.9325H27.3444V61.669h6.7378v-1.856H30.548L41.427,48.9493a5.3051,5.3051,0,0,0,7.8068-.7176L71.6692,61.1839c-.0422.07-.09.1384-.1323.2073l1.4475.8377-2.4353.6515-2.3809.6375.477,1.7927.0146-.0028,8.3687-2.2425-2.2458-8.3819-.1389.0371ZM45,48.4784A3.4794,3.4794,0,1,1,48.48,45,3.4829,3.4829,0,0,1,45,48.4784Z"/></svg>