<svg width="56" height="56" viewBox="0 0 56 56" fill="none" xmlns="http://www.w3.org/2000/svg">
<mask id="mask0_1_197" style="mask-type:luminance" maskUnits="userSpaceOnUse" x="0" y="0" width="56" height="56">
<path d="M0 3.8147e-06H56V56H0V3.8147e-06Z" fill="white"/>
</mask>
<g mask="url(#mask0_1_197)">
<path d="M26.4948 17.1018C26.4173 16.0197 25.6018 12.6928 29.747 11.3101C33.8892 9.92418 33.0862 5.22696 33.0862 5.22696" stroke="white" stroke-width="2" stroke-miterlimit="10" stroke-linecap="round" stroke-linejoin="round"/>
<path d="M31.6879 17.1018C31.6383 16.4445 31.1454 14.423 33.6629 13.5827C36.1804 12.7394 35.6905 9.88689 35.6905 9.88689" stroke="white" stroke-width="2" stroke-miterlimit="10" stroke-linecap="round" stroke-linejoin="round"/>
<path d="M20.3404 17.1018C20.2908 16.4445 19.7979 14.423 22.3154 13.5827C24.8329 12.7394 24.3431 9.88689 24.3431 9.88689" stroke="white" stroke-width="2" stroke-miterlimit="10" stroke-linecap="round" stroke-linejoin="round"/>
<path d="M5.15155 46.7548V48.7639C5.15155 49.8708 6.05379 50.773 7.16066 50.773H48.8393C49.9431 50.773 50.8484 49.8708 50.8484 48.7639V46.7548M26.4762 36.0582C24.3182 37.5835 20.3466 37.5557 18.5764 35.6086C16.8649 33.7234 14.9147 34.387 13.6653 34.5048C11.8701 34.6754 10.9091 33.2306 11.6594 30.8028C12.081 29.4417 13.2437 28.3256 14.769 27.4264M23.9865 24.5151C24.5323 24.4344 25.0469 24.3694 25.5119 24.3197C30.888 23.7616 31.8616 26.6079 30.0169 30.164C29.4525 31.2524 29.0401 32.1422 28.6651 32.9143M11.5632 31.1439C11.4703 31.1315 11.3741 31.1284 11.278 31.1284C10.6424 31.1284 10.0564 31.3454 9.59448 31.7143C8.98055 32.1361 8.54962 32.7995 8.44112 33.5716C8.35121 33.5623 8.25824 33.5561 8.16516 33.5561C6.66454 33.5561 5.44916 34.7715 5.44916 36.269C5.44916 36.455 5.46787 36.6349 5.50505 36.8086C4.34852 37.1216 3.49901 38.1759 3.49901 39.4284C3.49901 39.8996 3.61998 40.34 3.83085 40.7243M52.1692 40.7243C52.3769 40.34 52.4979 39.8996 52.4979 39.4284C52.4979 38.1759 51.6483 37.1216 50.495 36.8086C50.5291 36.6349 50.5476 36.455 50.5476 36.269C50.5476 34.7715 49.3324 33.5561 47.8348 33.5561C47.7387 33.5561 47.6457 33.5623 47.5558 33.5716C47.4473 32.7995 47.0164 32.1361 46.4055 31.7143C45.9436 31.3454 45.3576 31.1284 44.722 31.1284C44.4585 31.1284 44.2042 31.1656 43.9656 31.2338C43.609 30.2169 42.6664 29.4727 41.5411 29.4169C41.1318 28.4371 40.1645 27.7488 39.0359 27.7488C38.6669 27.7488 38.3166 27.8232 37.9941 27.9566C37.6779 26.8062 36.6268 25.9599 35.3774 25.9599C34.8193 25.9599 34.3015 26.1272 33.8738 26.4157C33.39 25.6653 32.5467 25.1693 31.5887 25.1693C31.1299 25.1693 30.6989 25.284 30.3206 25.4855M30.0943 46.7548H52.163C53.8217 46.7548 55.1797 45.3968 55.1797 43.7411V41.4313C55.1797 41.0437 54.8603 40.7243 54.4728 40.7243H1.5272C1.13651 40.7243 0.820305 41.0437 0.820305 41.4313V43.7411C0.820305 45.3968 2.17513 46.7548 3.83391 46.7548H26.2808M14.9644 27.0264C16.5642 23.898 21.3294 23.5539 23.7385 24.4003C26.3243 25.5134 26.5041 28.3813 22.5076 28.5147C20.4986 28.5828 20.0087 29.7084 19.1592 30.2355C17.3796 31.3423 15.2279 30.1517 14.8403 28.8092C14.5304 27.7334 14.6791 27.603 14.9644 27.0264Z" stroke="white" stroke-width="2" stroke-miterlimit="10" stroke-linecap="round" stroke-linejoin="round"/>
<path d="M45.2925 29.1038C45.6118 28.865 45.9529 28.648 46.3125 28.4589C48.3278 27.3924 50.6128 27.29 52.7055 27.9814C53.3536 28.1953 53.4186 28.3163 53.2295 28.9736C52.6281 31.0818 51.2701 32.9019 49.2765 33.9715" stroke="white" stroke-width="2" stroke-miterlimit="10" stroke-linecap="round" stroke-linejoin="round"/>
<path d="M44.9081 31.1346C45.2677 29.9968 45.3979 28.7845 45.2521 27.5443C44.967 25.0701 43.6462 22.9462 41.7271 21.4859C41.1318 21.0333 40.9861 21.0518 40.5086 21.6285C39.0762 23.3586 38.2824 25.532 38.4095 27.8201" stroke="white" stroke-width="2" stroke-miterlimit="10" stroke-linecap="round" stroke-linejoin="round"/>
<path d="M33.3342 31.0912C34.1651 30.2602 35.5138 30.2602 36.3448 31.0912" stroke="white" stroke-width="2" stroke-miterlimit="10" stroke-linecap="round" stroke-linejoin="round"/>
<path d="M43.0943 36.8085C43.9253 35.9775 45.2739 35.9775 46.1048 36.8085" stroke="white" stroke-width="2" stroke-miterlimit="10" stroke-linecap="round" stroke-linejoin="round"/>
<path d="M31.2105 36.1605L31.2074 36.1574" stroke="white" stroke-width="2" stroke-miterlimit="10" stroke-linecap="round" stroke-linejoin="round"/>
<path d="M9.72776 37.01L9.7247 37.0069" stroke="white" stroke-width="2" stroke-miterlimit="10" stroke-linecap="round" stroke-linejoin="round"/>
<path d="M39.7335 33.6212V33.6181" stroke="white" stroke-width="2" stroke-miterlimit="10" stroke-linecap="round" stroke-linejoin="round"/>
<path d="M36.4564 36.7403L36.4532 36.7372" stroke="white" stroke-width="2" stroke-miterlimit="10" stroke-linecap="round" stroke-linejoin="round"/>
</g>
</svg>
