<svg xmlns="http://www.w3.org/2000/svg" style="display: none;">


<symbol id="barcode" viewBox="0 0 512 512"><title>barcode</title><g><path d="m492 160c-11.046 0-20-8.954-20-20v-40c0-33.084-26.916-60-60-60h-40c-11.046 0-20-8.954-20-20s8.954-20 20-20h40c55.141 0 100 44.86 100 100v40c0 11.046-8.954 20-20 20z"/></g><g>
<path d="m412 512h-40c-11.046 0-20-8.954-20-20s8.954-20 20-20h40c33.084 0 60-26.916 60-60v-40c0-11.046 8.954-20 20-20s20 8.954 20 20v40c0 55.14-44.859 100-100 100z"/></g><g><path d="m140 512h-40c-55.141 0-100-44.86-100-100v-40c0-11.046 8.954-20 20-20s20 8.954 20 20v40c0 33.084 26.916 60 60 60h40c11.046 0 20 8.954 20 20s-8.954 20-20 20z"/></g><g><path d="m20 160c-11.046 0-20-8.954-20-20v-40c0-55.14 44.859-100 100-100h40c11.046 0 20 8.954 20 20s-8.954 20-20 20h-40c-33.084 0-60 26.916-60 60v40c0 11.046-8.954 20-20 20z"/></g><g><path d="m176 236h-40c-33.084 0-60-26.916-60-60v-40c0-33.084 26.916-60 60-60h40c33.084 0 60 26.916 60 60v40c0 33.084-26.916 60-60 60zm-40-120c-11.028 0-20 8.972-20 20v40c0 11.028 8.972 20 20 20h40c11.028 0 20-8.972 20-20v-40c0-11.028-8.972-20-20-20z"/></g><g><path d="m376 236h-40c-33.084 0-60-26.916-60-60v-40c0-33.084 26.916-60 60-60h40c33.084 0 60 26.916 60 60v40c0 33.084-26.916 60-60 60zm-40-120c-11.028 0-20 8.972-20 20v40c0 11.028 8.972 20 20 20h40c11.028 0 20-8.972 20-20v-40c0-11.028-8.972-20-20-20z"/></g><g><path d="m176 436h-40c-33.084 0-60-26.916-60-60v-40c0-33.084 26.916-60 60-60h40c33.084 0 60 26.916 60 60v40c0 33.084-26.916 60-60 60zm-40-120c-11.028 0-20 8.972-20 20v40c0 11.028 8.972 20 20 20h40c11.028 0 20-8.972 20-20v-40c0-11.028-8.972-20-20-20z"/></g><path d="m416 396h-20v-40h20c11.046 0 20-8.954 20-20s-8.954-20-20-20h-20v-20c0-11.046-8.954-20-20-20h-40c-11.046 0-20 8.954-20 20s8.954 20 20 20h20v40h-40v-20c0-11.046-8.954-20-20-20s-20 8.954-20 20v40 40c0 11.046 8.954 20 20 20s20-8.954 20-20v-20h40v20c0 11.046 8.954 20 20 20h40c11.046 0 20-8.954 20-20s-8.954-20-20-20z"/></symbol><symbol id="menu1b" viewBox="0 0 71 64"><title>menu1b</title><rect x="8.5" y="1.5" width="61" height="61" rx="5.5" stroke="black" stroke-width="3"/><path d="M2 32.5H17" stroke="black" stroke-width="3" stroke-linecap="round"/><path d="M2 16.5H17" stroke="black" stroke-width="3" stroke-linecap="round"/><path d="M2 49.5H17" stroke="black" stroke-width="3" stroke-linecap="round"/><path d="M31.647 46.835C31.7163 46.965 31.7553 47.082 31.764 47.186C31.7813 47.29 31.79 47.4417 31.79 47.641V54.856C31.79 55.454 31.6253 55.805 31.296 55.909C31.1313 55.961 30.9233 55.987 30.672 55.987C30.4207 55.987 30.2213 55.9653 30.074 55.922C29.9267 55.8787 29.814 55.8267 29.736 55.766C29.658 55.7053 29.5973 55.6187 29.554 55.506C29.5107 55.3587 29.489 55.1333 29.489 54.83V50.475C29.2723 50.7437 28.956 51.1727 28.54 51.762C28.124 52.3427 27.8597 52.7067 27.747 52.854C27.6343 53.0013 27.5563 53.1053 27.513 53.166C27.4697 53.218 27.3613 53.296 27.188 53.4C27.0233 53.4953 26.8413 53.543 26.642 53.543C26.4513 53.543 26.2737 53.4997 26.109 53.413C25.953 53.3177 25.8403 53.2267 25.771 53.14L25.667 52.997C25.4937 52.7803 25.1513 52.321 24.64 51.619C24.1287 50.9083 23.8513 50.527 23.808 50.475V54.856C23.808 55.0553 23.7993 55.207 23.782 55.311C23.7733 55.4063 23.7343 55.5147 23.665 55.636C23.535 55.87 23.197 55.987 22.651 55.987C22.1223 55.987 21.793 55.87 21.663 55.636C21.5937 55.5147 21.5503 55.402 21.533 55.298C21.5243 55.194 21.52 55.038 21.52 54.83V47.615C21.52 47.4157 21.5243 47.2683 21.533 47.173C21.5503 47.069 21.5937 46.952 21.663 46.822C21.793 46.5967 22.131 46.484 22.677 46.484C22.911 46.484 23.1103 46.5143 23.275 46.575C23.4483 46.627 23.561 46.6833 23.613 46.744L23.691 46.822L26.642 50.696C28.1153 48.746 29.099 47.459 29.593 46.835C29.7403 46.601 30.087 46.484 30.633 46.484C31.1877 46.484 31.5257 46.601 31.647 46.835ZM35.1325 53.699H39.1365C39.3359 53.699 39.4832 53.7077 39.5785 53.725C39.6825 53.7337 39.7995 53.7727 39.9295 53.842C40.1635 53.9633 40.2805 54.3013 40.2805 54.856C40.2805 55.4627 40.1202 55.818 39.7995 55.922C39.6522 55.974 39.4269 56 39.1235 56H33.9755C33.3689 56 33.0135 55.8353 32.9095 55.506C32.8575 55.3673 32.8315 55.1463 32.8315 54.843V47.615C32.8315 47.173 32.9139 46.874 33.0785 46.718C33.2432 46.5533 33.5552 46.471 34.0145 46.471H39.1365C39.3359 46.471 39.4832 46.4797 39.5785 46.497C39.6825 46.5057 39.7995 46.5447 39.9295 46.614C40.1635 46.7353 40.2805 47.0733 40.2805 47.628C40.2805 48.2347 40.1202 48.59 39.7995 48.694C39.6522 48.746 39.4269 48.772 39.1235 48.772H35.1325V50.085H37.7065C37.9059 50.085 38.0532 50.0937 38.1485 50.111C38.2525 50.1197 38.3695 50.1587 38.4995 50.228C38.7335 50.3493 38.8505 50.6873 38.8505 51.242C38.8505 51.8487 38.6859 52.204 38.3565 52.308C38.2092 52.36 37.9839 52.386 37.6805 52.386H35.1325V53.699ZM47.2706 46.874C47.3572 46.718 47.4829 46.614 47.6476 46.562C47.8122 46.51 48.0159 46.484 48.2586 46.484C48.5099 46.484 48.7092 46.5057 48.8566 46.549C49.0126 46.5923 49.1252 46.6443 49.1946 46.705C49.2726 46.7657 49.3289 46.8567 49.3636 46.978C49.4156 47.1167 49.4416 47.3377 49.4416 47.641V54.856C49.4416 55.064 49.4329 55.2157 49.4156 55.311C49.4069 55.4063 49.3679 55.519 49.2986 55.649C49.1772 55.883 48.8392 56 48.2846 56C47.9466 56 47.7126 55.974 47.5826 55.922C47.4526 55.87 47.3442 55.7877 47.2576 55.675C45.3076 53.075 44.0249 51.3763 43.4096 50.579V54.856C43.4096 55.064 43.4009 55.2157 43.3836 55.311C43.3749 55.4063 43.3359 55.519 43.2666 55.649C43.1452 55.883 42.8072 56 42.2526 56C41.7152 56 41.3859 55.883 41.2646 55.649C41.1952 55.519 41.1519 55.402 41.1346 55.298C41.1259 55.194 41.1216 55.0423 41.1216 54.843V47.589C41.1216 47.2597 41.1606 47.0213 41.2386 46.874C41.3252 46.718 41.4509 46.614 41.6156 46.562C41.7802 46.51 41.9926 46.484 42.2526 46.484C42.5126 46.484 42.7162 46.51 42.8636 46.562C43.0196 46.6053 43.1279 46.6573 43.1886 46.718C43.2232 46.744 43.3229 46.8567 43.4876 47.056C45.3162 49.5433 46.5382 51.1857 47.1536 51.983V47.589C47.1536 47.2597 47.1926 47.0213 47.2706 46.874ZM56.705 46.822C56.7917 46.6833 56.9173 46.588 57.082 46.536C57.2467 46.484 57.4503 46.458 57.693 46.458C57.9443 46.458 58.1437 46.4797 58.291 46.523C58.4383 46.5663 58.551 46.6183 58.629 46.679C58.707 46.7397 58.7633 46.8307 58.798 46.952C58.85 47.0993 58.876 47.3247 58.876 47.628V51.554C58.876 52.698 58.5207 53.738 57.81 54.674C57.4633 55.116 57.017 55.4757 56.471 55.753C55.925 56.0217 55.3183 56.156 54.651 56.156C53.9923 56.156 53.39 56.0173 52.844 55.74C52.3067 55.4627 51.869 55.0987 51.531 54.648C50.829 53.7293 50.478 52.6893 50.478 51.528V47.615C50.478 47.407 50.4823 47.2553 50.491 47.16C50.5083 47.056 50.5517 46.939 50.621 46.809C50.6903 46.679 50.8073 46.588 50.972 46.536C51.1367 46.484 51.3577 46.458 51.635 46.458C51.9123 46.458 52.1333 46.484 52.298 46.536C52.4627 46.588 52.5753 46.679 52.636 46.809C52.74 47.0083 52.792 47.2813 52.792 47.628V51.528C52.792 52.0567 52.922 52.5593 53.182 53.036C53.312 53.2787 53.507 53.4737 53.767 53.621C54.027 53.7683 54.3347 53.842 54.69 53.842C55.3227 53.842 55.795 53.608 56.107 53.14C56.419 52.672 56.575 52.1303 56.575 51.515V47.537C56.575 47.199 56.6183 46.9607 56.705 46.822Z" fill="black"/><path d="M40.1875 35H36.5625C36.4583 35 36.4062 34.9479 36.4062 34.8438L36.4375 12.8594C36.4375 12.776 36.4792 12.7344 36.5625 12.7344H40.1562C40.2396 12.7344 40.2812 12.776 40.2812 12.8594L40.3125 34.8438C40.3125 34.9479 40.2708 35 40.1875 35Z" fill="black"/>
</symbol>
</svg>