<svg xmlns="http://www.w3.org/2000/svg" style="display: none;">

<symbol id="drinlkL_001-1" xmlns="http://www.w3.org/2000/svg" viewBox="0 0 512 512">
  <g>
    <path d="m130.1,66l27.23,350.73c1.28,16.54,14.27,29.27,29.87,29.27h137.59c15.6,0,28.59-12.73,29.87-29.27l27.23-350.73h-251.8Zm211.93,349.75c-.77,9.86-8.34,17.58-17.24,17.58h-137.59c-8.9,0-16.47-7.72-17.24-17.58l-26.17-337.08h224.41l-26.17,337.08Z"></path>
    <rect x="159.43" y="395.75" width="193.14" height="9.11"></rect>
    <rect x="98.37" y="292.14" width="177.36" height="6.22" transform="translate(463.34 81.19) rotate(84.59)"></rect>
  </g>
  <rect x="143.8" y="163.65" width="224.41" height="12.21"></rect>
</symbol><symbol id="drinlkL_001-10" xmlns="http://www.w3.org/2000/svg" viewBox="0 0 512 512">
  <path d="m194.53,244.71v110.17h121.28v-110.17h-121.28Zm113.28,102.17h-105.28v-94.17h105.28v94.17Z"></path>
  <path d="m298.6,167.92c-3.52-3.63-6.94-6.36-9.95-8.78-6.34-5.08-10.53-8.43-10.53-15.73v-55.94h-13.5v55.94c0,13.78,8.65,20.71,15.6,26.27,2.84,2.27,5.77,4.62,8.69,7.63,9.61,9.91,15.17,21.55,15.17,51.73v229.06c-6.66.66-16.79.73-26.12.73-3.19,0-6.53-.01-10.02-.02-3.82-.01-7.81-.02-11.94-.02-5.05,0-9.8.02-14.25.03-3.88.01-7.53.03-10.94.03-6.08,0-16.31,0-22.89-.61v-229.19c0-30.17,5.56-41.82,15.17-51.73,2.93-3.02,5.86-5.37,8.69-7.64,6.95-5.56,15.59-12.49,15.59-26.27v-55.94h-13.5v55.94c0,7.29-4.19,10.65-10.53,15.73-3.02,2.41-6.43,5.15-9.95,8.78-13.83,14.27-18.97,30.83-18.97,61.12v233.86c0,3.75,2.47,6.97,6.02,7.83,8.69,2.09,27.47,1.56,55.56,1.56,25.84,0,45.82.47,55.42-1.66,3.57-.79,6.15-4.09,6.15-7.86v-233.73c0-30.29-5.14-46.85-18.97-61.12Z"></path>
  <path d="m272.23,39.65h-32.46c-4.97,0-9,4.03-9,9v39.36h50.46v-39.36c0-4.97-4.03-9-9-9Zm1,40.36h-34.46v-26.52c0-3.23,2.62-5.85,5.85-5.85h22.77c3.23,0,5.85,2.62,5.85,5.85v26.52Z"></path>
</symbol><symbol id="drinlkL_001-11" xmlns="http://www.w3.org/2000/svg" viewBox="0 0 512 512">
  <g>
    <path d="m260.48,244.71v110.17h121.28v-110.17h-121.28Zm113.28,102.17h-105.28v-94.17h105.28v94.17Z"></path>
    <path d="m364.55,167.92c-3.52-3.63-6.94-6.36-9.95-8.78-6.34-5.08-10.53-8.43-10.53-15.73v-55.94h-13.5v55.94c0,13.78,8.65,20.71,15.6,26.27,2.84,2.27,5.77,4.62,8.69,7.63,9.61,9.91,15.17,21.55,15.17,51.73v229.06c-6.66.66-16.79.73-26.12.73-3.19,0-6.53-.01-10.02-.02-3.82-.01-7.81-.02-11.94-.02-5.05,0-9.8.02-14.25.03-3.88.01-7.53.03-10.94.03-6.08,0-16.31,0-22.89-.61v-229.19c0-30.17,5.56-41.82,15.17-51.73,2.93-3.02,5.86-5.37,8.69-7.64,6.95-5.56,15.59-12.49,15.59-26.27v-55.94h-13.5v55.94c0,7.29-4.19,10.65-10.53,15.73-3.02,2.41-6.43,5.15-9.95,8.78-13.83,14.27-18.97,30.83-18.97,61.12v233.86c0,3.75,2.47,6.97,6.02,7.83,8.69,2.09,27.47,1.56,55.56,1.56,25.84,0,45.82.47,55.42-1.66,3.57-.79,6.15-4.09,6.15-7.86v-233.73c0-30.29-5.14-46.85-18.97-61.12Z"></path>
    <path d="m338.18,39.65h-32.46c-4.97,0-9,4.03-9,9v39.36h50.46v-39.36c0-4.97-4.03-9-9-9Zm1,40.36h-34.46v-26.52c0-3.23,2.62-5.85,5.85-5.85h22.77c3.23,0,5.85,2.62,5.85,5.85v26.52Z"></path>
  </g>
  <g>
    <path d="m259.86,311.99l-16.5-89.21h-98.1l-16.15,88.19c-5.42,29.61,25.05,56.09,65.06,56.52h0c40.03.44,71.18-25.87,65.7-55.5Zm-15.46,27.18c-10.5,12.62-28.92,20.16-49.26,20.16-.3,0-.59,0-.89,0-20.54-.22-39.09-7.98-49.61-20.75-4.59-5.56-9.61-14.62-7.5-26.13l14.93-81.49h84.49l15.27,82.53c2.1,11.33-2.88,20.23-7.43,25.69Z"></path>
    <g>
      <rect x="184.13" y="361.63" width="8.17" height="106.34"></rect>
      <path d="m154,464.16h80.95c3.27,0,5.93,2.66,5.93,5.93v2.24h-92.81v-2.24c0-3.27,2.66-5.93,5.93-5.93Z"></path>
      <rect x="196.1" y="361.63" width="8.17" height="106.34"></rect>
    </g>
    <rect x="136.19" y="292.44" width="114.39" height="5.4"></rect>
  </g>
</symbol><symbol id="drinlkL_001-12" xmlns="http://www.w3.org/2000/svg" viewBox="0 0 512 512">
  <g>
    <path d="m250.91,244.03v110.17h121.28v-110.17h-121.28Zm113.28,102.17h-105.28v-94.17h105.28v94.17Z"></path>
    <path d="m354.98,167.24c-3.52-3.63-6.94-6.36-9.95-8.78-6.34-5.08-10.53-8.43-10.53-15.73v-55.94h-13.5v55.94c0,13.78,8.65,20.71,15.6,26.27,2.84,2.27,5.77,4.62,8.69,7.63,9.61,9.91,15.17,21.55,15.17,51.73v229.06c-6.66.66-16.79.73-26.12.73-3.19,0-6.53-.01-10.02-.02-3.82-.01-7.81-.02-11.94-.02-5.05,0-9.8.02-14.25.03-3.88.01-7.53.03-10.94.03-6.08,0-16.31,0-22.89-.61v-229.19c0-30.17,5.56-41.82,15.17-51.73,2.93-3.02,5.86-5.37,8.69-7.64,6.95-5.56,15.59-12.49,15.59-26.27v-55.94h-13.5v55.94c0,7.29-4.19,10.65-10.53,15.73-3.02,2.41-6.43,5.15-9.95,8.78-13.83,14.27-18.97,30.83-18.97,61.12v233.86c0,3.75,2.47,6.97,6.02,7.83,8.69,2.09,27.47,1.56,55.56,1.56,25.84,0,45.82.47,55.42-1.66,3.57-.79,6.15-4.09,6.15-7.86v-233.73c0-30.29-5.14-46.85-18.97-61.12Z"></path>
    <path d="m328.61,38.98h-32.46c-4.97,0-9,4.03-9,9v39.36h50.46v-39.36c0-4.97-4.03-9-9-9Zm1,40.36h-34.46v-26.52c0-3.23,2.62-5.85,5.85-5.85h22.77c3.23,0,5.85,2.62,5.85,5.85v26.52Z"></path>
  </g>
  <g>
    <path d="m250.27,310.4l-14.1-91.03h-83.79l-13.8,89.99c-4.63,30.21,21.4,57.23,55.57,57.68h0c34.2.44,60.8-26.4,56.12-56.63Zm-17.05,31.82c-9.13,10.66-23.07,16.77-38.23,16.77-.24,0-.49,0-.73,0-15.34-.2-29.4-6.52-38.56-17.33-7.6-8.97-10.85-20.01-9.15-31.07l12.75-83.15h69.98l13.04,84.21c1.69,10.91-1.54,21.77-9.09,30.58Z"></path>
    <g>
      <rect x="183.83" y="359.69" width="8.36" height="108.88"></rect>
      <path d="m152.84,464.66h83.16c3.27,0,5.93,2.66,5.93,5.93v2.43h-95.03v-2.43c0-3.27,2.66-5.93,5.93-5.93Z"></path>
      <rect x="196.09" y="359.69" width="8.36" height="108.88"></rect>
    </g>
    <rect x="142.48" y="290.45" width="103.46" height="5.52"></rect>
  </g>
</symbol><symbol id="drinlkL_001-13" xmlns="http://www.w3.org/2000/svg" viewBox="0 0 512 512">
  <path d="m189.49,459.74c-66.3,0-68.91-47.96-68.93-48.44v-.32s0-168.53,0-168.53c0-27.06,18-44.08,20.38-46.22,13.53-13.19,12.84-39.77,12.83-40.04v-.34s0-85.99,0-85.99h71.46v86.34c-.02.25-.83,26.73,12.82,40.04,2.39,2.13,20.39,19.15,20.39,46.22v168.85c-.02.48-2.64,48.44-68.94,48.44h0Zm-52.11-49c.17,2.21,3.33,32.16,52.11,32.16s51.96-29.61,52.11-32.13v-168.33c0-20.46-14.64-33.56-14.79-33.69l-.32-.29c-18.72-18.02-18.2-49.69-18.1-52.77v-69.01h-37.79v69.01c.1,3.08.62,34.75-18.1,52.77l-.35.32c-.12.1-14.76,13.2-14.76,33.66v168.3h0Z"/>
  <path d="m215.85,52.26h-52.73c-8.08,0-14.62,2.55-14.62,5.69v24.9h81.98v-24.9c0-3.14-6.55-5.69-14.62-5.69Zm1.62,17.59h-55.98v-4.54c.5-.03,1.04-.05,1.62-.05h52.73c.58,0,1.12.02,1.62.05v4.54Z"/>
  <polygon points="189.49 259.67 196.31 273.5 211.56 275.71 200.53 286.47 203.13 301.66 189.49 294.49 175.84 301.66 178.45 286.47 167.41 275.71 182.67 273.5 189.49 259.67"/>
  <path d="m189.49,245.6c-17.97,0-32.53,17.48-32.53,39.04s14.56,39.04,32.53,39.04,32.53-17.48,32.53-39.04-14.56-39.04-32.53-39.04Zm0,70.07c-13.53,0-24.53-13.92-24.53-31.04s11-31.04,24.53-31.04,24.53,13.92,24.53,31.04-11,31.04-24.53,31.04Z"/>
  <rect x="127.76" y="266.63" width="37.19" height="6.96"/>
  <rect x="124.31" y="286.48" width="37.19" height="6.96"/>
  <rect x="214.02" y="267.41" width="37.19" height="6.96"/>
  <rect x="217.48" y="286.48" width="37.19" height="6.96"/>
  <path d="m366.45,327.35c-2,0-3.95-.27-5.83-.79l-8.5,109.51h-49.84l-8.45-108.86c-3.82-.48-7.47-1.81-10.72-3.96-.36.02-.72.03-1.06.03-.7,0-1.39-.04-2.07-.1l8.93,115.03c.5,6.42,5.54,11.36,11.59,11.36h53.41c6.05,0,11.1-4.94,11.59-11.36l8.72-112.26c-2.42.9-5.03,1.4-7.75,1.4Z"/>
  <path d="m369.81,289.17c-1.8-1.82-3.9-3.32-6.21-4.43-2.46-9.67-11.3-16.7-21.46-16.7-7.02,0-13.5,3.28-17.65,8.76-2.13-.67-4.34-1.01-6.61-1.01-6.27,0-12.25,2.69-16.43,7.31-.57-.04-1.12-.06-1.67-.06-3.75,0-7.46.84-10.84,2.45-1.37-.26-2.74-.39-4.09-.39-12.22,0-22.16,9.94-22.16,22.16s9.94,22.16,22.16,22.16c.35,0,.7-.01,1.06-.03,4.13,2.73,8.89,4.17,13.86,4.17,5.44,0,10.62-1.71,14.92-4.88,3.89,3.09,8.74,4.82,13.77,4.82,5.58,0,10.84-2.06,14.88-5.75,4.26,2.35,9.17,3.27,14.24,2.41,3.51,2.19,7.51,3.34,11.67,3.34,12.22,0,22.16-9.94,22.16-22.16s-9.66-21.88-21.64-22.16Zm-.52,36.32c-2.67,0-5.17-.72-7.44-2.13l-2.58-1.61-2.99.51c-.8.13-1.6.2-2.39.2-2.33,0-4.57-.58-6.66-1.73l-5.02-2.77-4.24,3.87c-2.59,2.36-5.96,3.66-9.49,3.66-3.17,0-6.3-1.09-8.79-3.08l-4.79-3.81-4.93,3.63c-2.95,2.17-6.47,3.32-10.18,3.32-3.37,0-6.64-.98-9.45-2.84l-2.21-1.46-2.64.15c-.21.01-.42.02-.62.02-7.81,0-14.17-6.35-14.17-14.16s6.35-14.16,14.17-14.16c.84,0,1.71.08,2.58.25l2.57.49,2.37-1.12c2.3-1.09,4.86-1.67,7.4-1.67.35,0,.7.01,1.07.04l3.9.29,2.62-2.9c2.69-2.97,6.52-4.68,10.5-4.68,1.44,0,2.85.22,4.2.64l5.38,1.69,3.4-4.49c2.69-3.55,6.8-5.59,11.27-5.59,6.37,0,12.13,4.49,13.71,10.68l.92,3.63,3.38,1.62c1.48.71,2.82,1.66,3.97,2.83l2.27,2.31,3.24.08c7.62.18,13.83,6.53,13.83,14.16s-6.35,14.16-14.16,14.16Z"/>
</symbol><symbol id="drinlkL_001-2" xmlns="http://www.w3.org/2000/svg" viewBox="0 0 512 512">
  <path d="m130.6,93.9v354.44c0,14.7,11.92,26.62,26.62,26.62h138.44c14.7,0,26.62-11.92,26.62-26.62V93.9h-191.69Zm178.19,354.44c0,7.23-5.89,13.12-13.12,13.12h-138.44c-7.23,0-13.12-5.89-13.12-13.12V107.4h164.69v340.94Z"></path>
  <rect x="131.91" y="416.44" width="189.06" height="8.92"></rect>
  <rect x="131.91" y="174.52" width="189.06" height="8.92"></rect>
  <path d="m320.97,37.05c-33.38,0-60.44,27.06-60.44,60.44h12.41c0-26.48,21.55-48.03,48.03-48.03s48.03,21.55,48.03,48.03-21.55,48.03-48.03,48.03c-.46,0-.91-.02-1.36-.03l-.96,12.38c.77.03,1.54.06,2.32.06,33.38,0,60.44-27.06,60.44-60.44s-27.06-60.44-60.44-60.44Z"></path>
  <path d="m320.97,70.95c-16.69,0-30.22,13.53-30.22,30.22h6.2c0-13.24,10.77-24.02,24.02-24.02s24.02,10.77,24.02,24.02-10.77,24.02-24.02,24.02c-.23,0-.45-.01-.68-.02l-.48,6.19c.39.01.77.03,1.16.03,16.69,0,30.22-13.53,30.22-30.22s-13.53-30.22-30.22-30.22Z"></path>
  <rect x="79.76" y="296.89" width="173.61" height="6.08" transform="translate(466.5 133.37) rotate(90)"></rect>
</symbol><symbol id="drinlkL_001-3" xmlns="http://www.w3.org/2000/svg" viewBox="0 0 512 512">
  <path d="m415.82,66H96.18c-8.08,0-12.64,9.28-7.69,15.68l119.22,154.17c11.45,14.81,29.12,23.48,47.83,23.48h.92c18.72,0,36.38-8.67,47.83-23.48l119.22-154.17c4.94-6.39.39-15.68-7.69-15.68Zm-123.17,160.83c-8.6,11.12-22.13,17.76-36.18,17.76h-.92c-14.06,0-27.58-6.64-36.18-17.76L106.38,80.73h299.25l-112.98,146.1Z"></path>
  <rect x="122.1" y="116.04" width="265.38" height="9.24"></rect>
  <rect x="233.19" y="246.39" width="14.73" height="191.76"></rect>
  <rect x="261.59" y="246.87" width="14.73" height="191.76"></rect>
  <path d="m165.11,431.27h179.35c3.27,0,5.93,2.66,5.93,5.93v8.8h-191.21v-8.8c0-3.27,2.66-5.93,5.93-5.93Z"></path>
</symbol><symbol id="drinlkL_001-4" xmlns="http://www.w3.org/2000/svg" viewBox="0 0 512 512">
  <rect x="232.72" y="262.22" width="15.04" height="195.77"></rect>
  <rect x="261.71" y="262.71" width="15.04" height="195.77"></rect>
  <path d="m163.09,450.96h183.34c3.27,0,5.93,2.66,5.93,5.93v9.1h-195.21v-9.1c0-3.27,2.66-5.93,5.93-5.93Z"></path>
  <g>
    <path d="m323.57,129.15c.23,1.54.36,3.11.36,4.72s-.12,3.18-.36,4.72h66.65v-9.43h-66.65Z"></path>
    <path d="m261.71,133.86c0-1.6.12-3.18.36-4.72H119.3v9.43h142.76c-.23-1.54-.36-3.11-.36-4.72Z"></path>
  </g>
  <path d="m419.16,78.06h-53.87c1.47,3.61,2.28,7.56,2.28,11.69,0,1.13-.06,2.25-.18,3.34h41.37l-115.34,149.15c-8.78,11.35-22.59,18.13-36.94,18.13h-.94c-14.35,0-28.16-6.78-36.94-18.13L103.25,93.1h202.27c-.12-1.1-.18-2.21-.18-3.34,0-4.14.81-8.08,2.28-11.69H92.84c-8.25,0-12.9,9.48-7.86,16.01l121.71,157.39c11.69,15.12,29.72,23.97,48.83,23.97h.94c19.11,0,37.14-8.85,48.83-23.97l121.71-157.39c5.05-6.53.4-16.01-7.86-16.01Z"></path>
  <path d="m293.17,105.83c-17.18,0-31.11,13.93-31.11,31.11s13.93,31.11,31.11,31.11,31.11-13.93,31.11-31.11-13.93-31.11-31.11-31.11Zm0,47.19c-8.86,0-16.07-7.21-16.07-16.07s7.21-16.07,16.07-16.07,16.07,7.21,16.07,16.07-7.21,16.07-16.07,16.07Z"></path>
  <path d="m336.45,58.64c-17.18,0-31.11,13.93-31.11,31.11s13.93,31.11,31.11,31.11,31.11-13.93,31.11-31.11-13.93-31.11-31.11-31.11Zm0,47.19c-8.86,0-16.07-7.21-16.07-16.07s7.21-16.07,16.07-16.07,16.07,7.21,16.07,16.07-7.21,16.07-16.07,16.07Z"></path>
  <rect x="345.15" y="58.35" width="39.04" height="9.93" transform="translate(62.04 276.4) rotate(-45)"></rect>
  <rect x="241.55" y="161.95" width="39.04" height="9.93" transform="translate(-41.56 233.49) rotate(-45)"></rect>
</symbol><symbol id="drinlkL_001-5" xmlns="http://www.w3.org/2000/svg" viewBox="0 0 512 512">
  <g>
    <path d="m392.52,92.82H78.62c-7.94,0-12.41,9.12-7.56,15.4l117.08,151.4c11.25,14.54,28.59,23.06,46.98,23.06h.9c18.38,0,35.73-8.51,46.98-23.06l117.08-151.4c4.86-6.28.38-15.4-7.56-15.4Zm-120.96,157.95c-8.45,10.92-21.73,17.44-35.53,17.44h-.9c-13.8,0-27.09-6.52-35.53-17.44L88.63,107.29h293.88l-110.95,143.48Z"></path>
    <rect x="104.07" y="141.96" width="260.62" height="9.07"></rect>
    <rect x="213.17" y="269.97" width="14.47" height="188.32"></rect>
    <rect x="241.06" y="270.45" width="14.47" height="188.32"></rect>
    <path d="m146.42,451.53h175.91c3.27,0,5.93,2.66,5.93,5.93v8.53h-187.78v-8.53c0-3.27,2.66-5.93,5.93-5.93Z"></path>
  </g>
  <path d="m390.43,46c-27.13,0-49.45,20.57-52.22,46.96h14.58c2.7-18.36,18.55-32.49,37.64-32.49,20.98,0,38.05,17.07,38.05,38.05s-17.07,38.05-38.05,38.05c-4.33,0-8.49-.74-12.37-2.08l-9.2,11.9c6.58,2.97,13.88,4.64,21.57,4.64,29,0,52.52-23.51,52.52-52.52s-23.51-52.52-52.52-52.52Z"></path>
  <path d="m390.49,67.44c-16.05,0-29.26,12.17-30.9,27.79h8.63c1.6-10.86,10.98-19.23,22.28-19.23,12.42,0,22.52,10.1,22.52,22.52s-10.1,22.52-22.52,22.52c-2.56,0-5.02-.44-7.32-1.23l-5.45,7.04c3.9,1.76,8.21,2.74,12.77,2.74,17.16,0,31.08-13.91,31.08-31.08s-13.91-31.08-31.08-31.08Z"></path>
</symbol><symbol id="drinlkL_001-6" xmlns="http://www.w3.org/2000/svg" viewBox="0 0 512 512">
  <path d="m325.43,199.6l-17.43-153.6h-103.61l-17.06,151.84c-5.73,50.98,26.46,96.57,68.72,97.32h0c42.29.75,75.18-44.55,69.39-95.56Zm-31.32,64.84c-10.27,11.5-23.42,17.83-37.03,17.83-.27,0-.54,0-.8,0-13.86-.25-27.19-6.87-37.55-18.66-14.32-16.31-21.26-40.35-18.57-64.31l15.77-140.38h80.55l16.13,142.15c2.69,23.7-4.23,47.4-18.5,63.38Z"></path>
  <rect x="239.65" y="291.09" width="12.91" height="168.03"></rect>
  <path d="m188.61,453.09h134.79c3.27,0,5.93,2.66,5.93,5.93v6.97h-146.65v-6.97c0-3.27,2.66-5.93,5.93-5.93Z"></path>
  <rect x="205.15" y="79.52" width="100.54" height="8.53"></rect>
  <rect x="258.57" y="291.09" width="12.91" height="168.03"></rect>
  <path d="m232.56,106.75c-5.84,0-10.57,4.73-10.57,10.57s4.73,10.57,10.57,10.57,10.57-4.73,10.57-10.57-4.73-10.57-10.57-10.57Zm0,16.37c-3.19,0-5.79-2.6-5.79-5.79s2.6-5.79,5.79-5.79,5.79,2.6,5.79,5.79-2.6,5.79-5.79,5.79Z"></path>
  <path d="m279.72,130.55c-5.84,0-10.57,4.73-10.57,10.57s4.73,10.57,10.57,10.57,10.57-4.73,10.57-10.57-4.73-10.57-10.57-10.57Zm0,16.37c-3.19,0-5.79-2.6-5.79-5.79s2.6-5.79,5.79-5.79,5.79,2.6,5.79,5.79-2.6,5.79-5.79,5.79Z"></path>
  <path d="m238.36,176.11c-4.44,0-8.03,3.6-8.03,8.03s3.6,8.03,8.03,8.03,8.03-3.6,8.03-8.03-3.6-8.03-8.03-8.03Zm0,14.15c-3.37,0-6.12-2.74-6.12-6.12s2.74-6.12,6.12-6.12,6.12,2.74,6.12,6.12-2.74,6.12-6.12,6.12Z"></path>
</symbol><symbol id="drinlkL_001-7" xmlns="http://www.w3.org/2000/svg" viewBox="0 0 512 512">
  <path d="m364.05,197.22l-27.28-147.44h-162.12l-26.7,145.74c-8.96,48.93,41.41,92.69,107.52,93.41h0c66.16.72,117.63-42.76,108.58-91.72Zm-25.55,44.91c-17.36,20.86-47.79,33.32-81.41,33.32-.49,0-.98,0-1.47,0-33.95-.37-64.6-13.19-81.99-34.29-7.58-9.2-15.88-24.15-12.4-43.19l24.67-134.68h139.64l25.23,136.39c3.46,18.73-4.76,33.43-12.28,42.46Z"></path>
  <g>
    <rect x="238.9" y="279.27" width="13.5" height="175.75"></rect>
    <path d="m185.24,448.71h141.53c3.27,0,5.93,2.66,5.93,5.93v7.57h-153.39v-7.57c0-3.27,2.66-5.93,5.93-5.93Z"></path>
    <rect x="258.68" y="279.27" width="13.5" height="175.75"></rect>
  </g>
  <rect x="159.67" y="164.91" width="189.06" height="8.92"></rect>
</symbol><symbol id="drinlkL_001-8" xmlns="http://www.w3.org/2000/svg" viewBox="0 0 512 512">
  <path d="m346.14,198.22l-22.75-146.94h-135.25l-22.27,145.25c-7.48,48.77,34.54,92.38,89.7,93.1h0c55.2.72,98.14-42.62,90.58-91.41Zm-27.52,51.36c-14.74,17.2-37.23,27.06-61.71,27.06-.39,0-.79,0-1.18,0-24.77-.32-47.45-10.52-62.24-27.98-12.27-14.48-17.52-32.29-14.78-50.15l20.58-134.22h112.95l21.05,135.93c2.73,17.61-2.48,35.15-14.67,49.37Z"></path>
  <g>
    <rect x="238.9" y="277.77" width="13.5" height="175.75"></rect>
    <path d="m185.24,447.22h141.53c3.27,0,5.93,2.66,5.93,5.93v7.57h-153.39v-7.57c0-3.27,2.66-5.93,5.93-5.93Z"></path>
    <rect x="258.68" y="277.77" width="13.5" height="175.75"></rect>
  </g>
  <rect x="172.15" y="166.01" width="167.01" height="8.92"></rect>
</symbol><symbol id="drinlkL_001-9" xmlns="http://www.w3.org/2000/svg" viewBox="0 0 512 512">
  <path d="m119.14,407.94v33.94c0,13.32,10.79,24.11,24.11,24.11h192.79c13.32,0,24.11-10.79,24.11-24.11v-33.94H119.14Zm225.93,33.94c0,4.98-4.05,9.02-9.02,9.02h-192.79c-4.98,0-9.02-4.05-9.02-9.02v-18.86h210.84v18.86Z"></path>
  <path d="m395.15,397.68h-47.73v-18.76h47.73c7.76,0,14.07-6.31,14.07-14.07v-152.76c0-7.76-6.31-14.07-14.07-14.07h-50.08v-18.76h50.08c18.1,0,32.83,14.73,32.83,32.83v152.76c0,18.1-14.73,32.83-32.83,32.83h0Z"></path>
  <path d="m180.99,207.36c-6.83,0-12.36,5.53-12.36,12.36s5.53,12.36,12.36,12.36,12.36-5.53,12.36-12.36-5.53-12.36-12.36-12.36Zm0,19.13c-3.73,0-6.77-3.04-6.77-6.77s3.04-6.77,6.77-6.77,6.77,3.04,6.77,6.77-3.04,6.77-6.77,6.77Z"></path>
  <path d="m268.03,301.06c-6.83,0-12.36,5.53-12.36,12.36s5.53,12.36,12.36,12.36,12.36-5.53,12.36-12.36-5.53-12.36-12.36-12.36Zm0,19.13c-3.73,0-6.77-3.04-6.77-6.77s3.04-6.77,6.77-6.77,6.77,3.04,6.77,6.77-3.04,6.77-6.77,6.77Z"></path>
  <path d="m233.13,197.98c-5.18,0-9.39,4.2-9.39,9.39s4.2,9.39,9.39,9.39,9.39-4.2,9.39-9.39-4.2-9.39-9.39-9.39Zm0,16.54c-3.94,0-7.15-3.21-7.15-7.15s3.21-7.15,7.15-7.15,7.15,3.21,7.15,7.15-3.21,7.15-7.15,7.15Z"></path>
  <path d="m294.44,191.46c-6.83,0-12.36,5.53-12.36,12.36s5.53,12.36,12.36,12.36,12.36-5.53,12.36-12.36-5.53-12.36-12.36-12.36Zm0,19.13c-3.73,0-6.77-3.04-6.77-6.77s3.04-6.77,6.77-6.77,6.77,3.04,6.77,6.77-3.04,6.77-6.77,6.77Z"></path>
  <path d="m339.75,192.73c-.57,0-1.13-.03-1.7-.06v210.95h-192.58v-213.02c-6.64-4.79-11.77-11.54-14.54-19.4-.18.02-.37.03-.55.04v247.46h222.75v-228.26c-4.19,1.47-8.7,2.28-13.39,2.28Z"></path>
  <path d="m350.62,115.23c-4.26-17.79-20.26-31.02-39.36-31.02-.55,0-1.09.02-1.64.04-5.71-22-25.7-38.25-49.49-38.25-17.72,0-33.33,9.02-42.5,22.71-5.26-2.53-11.15-3.95-17.37-3.95-14.51,0-27.23,7.72-34.26,19.27-3.41-1.7-7.25-2.66-11.32-2.66-8.81,0-16.57,4.49-21.12,11.31-2.92-.67-5.95-1.03-9.07-1.03-22.36,0-40.48,18.12-40.48,40.48s18.12,40.48,40.48,40.48c1.34,0,2.66-.07,3.97-.2,5.55,15.74,20.54,27.02,38.18,27.02,16.38,0,30.47-9.73,36.85-23.72,7.4,8,17.97,13.01,29.73,13.01,8.44,0,16.28-2.59,22.76-7,5.35,2.61,11.36,4.08,17.72,4.08,11.19,0,21.32-4.54,28.65-11.88,7.03,11.98,20.04,20.02,34.93,20.02,22.36,0,40.48-18.12,40.48-40.48,0-17.69-11.35-32.71-27.15-38.22Zm-13.33,63.62c-8.96,0-17.36-4.82-21.92-12.57l-9.89-16.84-13.8,13.82c-4.8,4.81-11.18,7.45-17.97,7.45-3.9,0-7.63-.86-11.11-2.55l-7.87-3.84-7.24,4.93c-4.21,2.87-9.14,4.39-14.27,4.39-7.16,0-13.78-2.9-18.65-8.17l-15.4-16.66-9.41,20.64c-4.12,9.04-13.2,14.89-23.12,14.89-10.75,0-20.38-6.81-23.95-16.95l-3.93-11.14-11.76,1.14c-.86.08-1.7.13-2.51.13-14,0-25.4-11.39-25.4-25.4s11.39-25.4,25.4-25.4c1.89,0,3.81.22,5.7.65l10.14,2.32,5.77-8.65c1.92-2.88,5.13-4.6,8.57-4.6,1.61,0,3.15.36,4.58,1.07l12.41,6.2,7.21-11.85c4.58-7.53,12.57-12.03,21.37-12.03,3.8,0,7.44.83,10.82,2.46l11.8,5.68,7.29-10.88c6.72-10.03,17.92-16.02,29.96-16.02,16.42,0,30.77,11.08,34.88,26.95l3.05,11.78,12.16-.49c.34-.01.68-.03,1.03-.03,11.79,0,21.94,8,24.69,19.45l1.92,8.02,7.78,2.71c10.19,3.55,17.03,13.19,17.03,23.98,0,14-11.39,25.4-25.4,25.4Z"></path>
  <rect x="119.21" y="310.19" width="137.11" height="6.47" transform="translate(501.19 125.66) rotate(90)"></rect>
  <rect x="174.32" y="310.19" width="137.11" height="6.47" transform="translate(556.31 70.55) rotate(90)"></rect>
  <rect x="232.65" y="310.19" width="137.11" height="6.47" transform="translate(614.63 12.22) rotate(90)"></rect>
</symbol>
</svg>