<?xml version="1.0" encoding="UTF-8"?>
<svg id="Layer_1" data-name="Layer 1" xmlns="http://www.w3.org/2000/svg" viewBox="0 0 512 512">
  <path d="m468.77,173.52c7.63,0,14.64-.05,21.64,0,11.44.11,20.33,9.23,20.17,20.6-.14,9.87-9.49,19.43-19.34,19.6-7.3.12-14.6.02-22.31.02v262.83c-1.02.78-2.21,1.71-3.43,2.59-3.5,2.53-6.36,2.24-9.37-.74-2.86-2.83-4.15-6.16-4.1-10.21.11-9.69.04-19.38.04-29.31h-56.69c0,5.28.04,10.67-.02,16.06-.02,2.32.46,4.61-1.65,6.72-.78.78-.66,3.32-2.47,2.45-2.21-1.06-3.54,3.59-6.02.28-1.44-1.93-4.28-2.82-6.53-4.21v-21.37h-244.48v21.09c-2.91,2.1-5.74,4.14-8.16,5.88-7.19-2.43-9.22-7.64-8.69-14.49.3-3.93.05-7.89.05-12.25h-56.69c0,10.65-.02,21.25,0,31.85,0,3.59-.58,6.41-4.56,8.11-5.71,2.43-11.07.21-11.85-5.76-.32-2.4-.05-4.87-.05-7.31v-252.23c-6.91,0-13.81.03-20.71,0-3.31-.02-9.83-2.75-11.97-4.24-5.42-3.78-6.77-9.92-9.38-15.35,2.9-5.87,1.63-13.66,9.67-17.23,4.4-1.96,8.4-3.63,13.23-3.45,5.48.2,10.97.06,16.45.04,2.88,0,4.29-1.73,4.5-4.38.19-2.42.43-4.95-.04-7.29-.98-4.92,2.25-9.11,1.95-13.89-.3-4.71,2.26-8.85,3.07-13.31,2.61-14.41,8.69-27.53,15.37-40.26,5.74-10.93,12.72-21.22,20.76-30.8,4.62-5.5,8.97-11.3,14.5-15.77,5.68-4.59,11.04-9.58,16.9-14,3.37-2.54,6.3-2.93,9.85-2.93h264.7c8.87,8.43,18.26,16.89,27.1,25.89,8.99,9.15,16.09,19.75,22.85,30.69,7.38,11.93,12.29,24.79,16.56,37.95,2.37,7.32,4.61,14.61,5.62,22.47,1.06,8.29,3.18,16.5,3.52,25.63v.03Zm-16.11-.14c-.86-9.11-1.57-17.38-2.48-25.62-.18-1.62-1.28-3.12-1.75-4.74-3.52-12.21-7.12-24.38-12.79-35.84-8.3-16.78-18.66-32.06-32.05-45.22-4.67-4.59-9.24-9.22-14.62-13.12-2.84-2.05-5.14-3.41-8.73-3.41-81.96.1-163.91.1-245.87.02-4.76,0-8.49,1.58-11.72,4.88-2.98,3.05-5.54,6.97-9.14,8.86-7.22,3.79-9.46,12.02-15.94,16.24-4.56,8.6-11.24,15.75-15.9,24.44-3.63,6.76-5.48,14.33-9.95,20.61.46,4.57-3.38,7.62-4.01,12.15-.86,6.13-2.57,12.28-3.88,18.44-1.56,7.36-4,14.52-2.77,22.32h391.6Zm-255.47,132.16c-3.55-4.97-1.73-8.12,1.62-11.32h210.93c4.85-6.29,9.96-12.36,14.43-18.88,4.17-6.09,8.07-12.45,11.33-19.06,3.35-6.8,5.59-14.11,8.62-21.1,2.91-6.72,4.73-14.17,5.72-21.28,1.07-7.7,4.3-15.56,1.67-23.47H60.39c1.8,19.44,6.04,37.75,13.08,55.5,7.08,17.84,18.46,32.89,30.16,48.29h6.91c21.63,0,43.26.05,64.9-.05,3.15-.02,5.72.26,8.05,2.84,1.69,1.87,2.22,3.83,1.21,5.6-.72,1.27-2.73,2.11-4.32,2.49-1.73.42-3.63.1-5.46.1-16.76,0-33.52.02-50.27-.02-2.75,0-5.48-.18-6.73,2.09,3.3,2.99,6.53,5.91,9.84,8.9,83.34,0,166.82-.09,250.3.15,7.36.02,12.18-3.36,16.84-7.98.48-.48.35-1.58.57-2.79h-198.28Zm238.03,116.29c-3.22-1.96-5.31-2.87-6.96-4.3-10.53-9.16-23.01-15.57-33.85-24.36-7.82-6.33-8.32-5.71-19.51-5.71h-66.7c-58.17,0-116.35.01-174.52-.03-3.67,0-6.54.55-9.77,3.15-4,3.21-8.3,6.3-12.61,9.12-10.81,7.06-21.71,13.96-32.15,22.13h356.08,0Zm-301.17-51.11h244.91c-.19-12.9.19-25.52-.21-37.82h-244.7v37.82h0Zm-72.95,43.37c20.07-11.82,37.28-26.19,56.18-38v-48.23c-5.7-5.08-11.5-9.79-16.76-15.03-5.48-5.46-11.09-10.73-15.76-17.09-4.28-5.82-7.55-12.34-12.18-17.78-4.7-5.53-5.52-13.36-11.48-18.77,0,0,0,154.9,0,154.9Zm390.65-156.14c-13.38,29.18-32.84,51.08-56.19,70.17v47.42c19.29,11.88,36.47,26.24,56.19,38.23v-155.82h0Zm16.93-60.96h25.5c-.14-2.57-.26-4.81-.37-6.72h-25.13v6.72Zm-424.72.3v-7.31c-6.91,0-13.51.11-20.11-.05-2.86-.07-4.38,1.19-5.48,4.37,1.6,1.17,2.44,3.21,5.5,3.08,6.58-.29,13.19-.09,20.08-.09h.01Z"/>
  <path d="m256.84,145.08c-4.56,0-9.12.07-13.68-.02-10.24-.2-20.49-5.92-24.38-15.1-1.69-4-3.71-8.84-2.48-13.47,1.14-4.3,2.05-8.89,5.21-12.41,5.92-6.6,12.71-10.85,22.22-10.34,10.3.56,20.67.28,31,.05,4.12-.09,7.42,1.34,10.21,4.01,3.14,3.01,6.34,5.64,8.63,9.88,4.04,7.47,4.35,14.67,1.03,21.63-3.24,6.8-8.07,12.5-16.56,14.25-2.77.57-5.53,1.46-8.43,1.5-4.25.06-8.51.02-12.77.02h0Zm17.53-16.46c2.48-1.92,4.36-3.37,5.55-4.3v-9.51c-3.87-4.82-8.46-6.69-14.25-6.38-6.08.32-12.21.42-18.27-.02-6.24-.46-10.88,1.89-14.79,6.62v1.64c.14,9.24,2.73,11.91,11.74,11.95,10.36.04,20.72,0,30,0h.02Z"/>
</svg>