<?xml version="1.0" encoding="UTF-8"?>
<svg id="Layer_2" data-name="Layer 2" xmlns="http://www.w3.org/2000/svg" viewBox="0 0 500 500">
  <defs>
    <style>
      .cls-1 {
        fill: #ccc;
        opacity: 0;
      }

      .cls-2 {
        fill: #040013;
      }
    </style>
  </defs>
  <g id="Layer_1-2" data-name="Layer 1">
    <g>
      <rect class="cls-1" width="500" height="500"/>
      <g>
        <path class="cls-2" d="m234.93,157.21c-2.68-3.71-4.65-7.04-7.2-9.85-5.72-6.28-10.72-13.1-15.93-19.78-2.69-3.44-6.05-6.31-8.7-9.89-2.07-2.8-1.65-6.15-3.18-9.04-.71-1.33.59-4.12,1.32-5.68,1.55-3.32,4.52-5.75,8.59-6.27,4.77-.61,8.69,1.35,13.05,4.13,0-1.34.26-2.43-.04-3.33-2.41-7.26.26-12.84,7.28-14.93,1.29-.38,2.96-1.43,3.82-.97,3.01,1.58,6.77.98,9.38,3.9,3.34,3.75,6.83,7.41,11.18,10.14,1.32.83,2.09,2.51,3.13,3.8.78.97,1.39,2.28,2.4,2.82,4.8,2.55,7.96,6.88,11.68,10.55,12.67,12.5,25.16,25.17,37.81,37.69,2.65,2.63,6.18,4.5,8.4,7.41,2.47,3.23,5.22,3.96,9.03,4.67,8.34,1.54,16.77,2.45,25.09,4.38,7.82,1.82,15.42,4.67,23.43,5.7,4.02.51,7.43,2.78,11.21,4.04,9.1,3.02,17.65,7.6,25.24,13.45,5,3.85,9.25,8.57,10.81,15.42.72,3.17,1.29,6.27.53,9.1-2.18,8.05-4.2,16.18-7.34,23.95-1.11,2.76-1.7,5.76-3.08,8.36-1.08,2.03-1.05,3.33.56,4.92,7.02,6.93,13.49,14.5,21.06,20.75,8.4,6.94,15.51,15.09,23.44,22.45,3.8,3.53,6.14,8.02,7.72,12.87,2.67,8.2-4.26,17.27-12.79,17.96-6.34.51-11.06-2.46-15.72-5.6-1.39-.94-2-3.04-4.03-4.04-1.23-.61-1.29-2.91-3.59-3.6-1.56-.47-2.32-3.23-3.74-4.67-9.34-9.45-18.77-18.83-28.19-28.21-.25-.25-.75-.24-1.63-.51-1.79,5.25-7.17,8.41-8.64,14.44,3.73,4.23,7.58,8.33,11.11,12.68,3.38,4.16,7.2,7.93,10.13,12.49,1.47,2.29,3.96,3.9,5.8,5.99,3.09,3.51,6.11,7.05,8.04,11.45,3.27,7.44,1.12,16.9-5.48,21.07-1.93,1.22-4.58,1.46-6.95,1.75-3.12.38-6.06-.64-8.64-2.35-4.5-3-8.64-6.32-11.39-11.22-1.61-2.86-5.33-4.18-6.29-7.7-6.36-6.09-10.58-14.05-17.3-19.84-.12-.11-.42-.01-.89-.01-3.24,2.82-6.64,5.78-10.42,9.07,6.09,3.83,9.82,9.61,13.93,15.16,2.42,3.27,2.19,7.31,4.48,10.41.61,10.2-.86,19.61-8.52,27.37-9.05,9.18-13.51,14.14-28.65,20.69-9.65,4.18-19.39,8.14-29.92,10.2-6.11,1.19-12.32,2.19-18.35,3.75-3.08.8-6.06,1.19-9.15,1.12-2.92-.07-5.39,1.87-8.49,1.41-3.15-.46-6.56-.7-9.6.02-6.25,1.5-12.52.93-18.79,1.19-9.09.37-18.06-1.26-27.11-1.62-8.02-.32-16.24-1.75-24.09-3.74-6.38-1.62-12.99-2.46-19.14-4.97-5.87-2.4-12.07-3.87-17.85-6.6-7.07-3.34-14.15-6.9-20.16-11.66-5.28-4.18-10.46-8.89-13.86-15.31-2.62-4.96-4.96-9.97-4.78-15.33.3-8.88,3.27-17.05,9.84-23.52,2.73-2.69,5.43-5.42,8.49-8.48-1.51-1.62-2.9-3.14-4.32-4.63-3.81-3.97-7.94-7.61-11.81-11.52-10.38-10.5-18.43-22.69-26.52-34.81-4.82-7.21-8.29-15.38-11.93-23.32-5.62-12.26-8.59-21.88-11.74-33.76-1.24-4.68-1.45-9.26-.82-13.63.54-3.72,3.01-7.36,5.27-10.58,1.88-2.67,4.63-4.67,7.49-6.53,6.73-4.37,13.72-8.06,21.32-10.7,5.06-1.76,10.03-3.74,15.18-5.31,4.4-1.35,8.86-2.47,13.29-3.52,6.88-1.64,13.74-3.66,20.89-3.97,2.36-1.93,5.48-.46,7.75-1.47,2.7-1.19,5.44-.4,7.87-1.23,3.9-1.33,7.95-.43,11.69-1.34,3.94-.96,8.02-.25,11.68-1.29,6.3-1.77,12.57-.53,18.81-1.16,2.83-.29,5.49-1.57,8.48-1.29,2.98.27,6,.06,9,.06h10.05Zm-2.33-45.04h.57c-.12-.33-.18-.71-.39-.98-.06-.08-.51.13-.78.21.2.25.4.51.71-.34.5,1.92.47,2.9.95,3.45,3.57,4.13,7.24,8.17,10.88,12.23,3.64,4.07,7.51,7.95,10.86,12.25,4.88,6.26,9.87,12.4,15.75,18.24,1.78-.09,3.77-.18,5.61-.27-4.78-5.42-8.96-11.11-14.11-15.71-5.1-4.56-9.18-10.01-14.23-14.59-5.19-4.71-9.97-9.87-15.82-14.5Zm-68.48,233.14c-1.45,2.53-.26,5.14,1.08,6.83,2.47,3.12,5.54,5.86,8.7,8.33,8.04,6.3,18.05,8.15,27.35,11.54,3.36,1.22,7.06,1.41,10.57,2.39,3.72,1.05,7.76-.12,11.65,1.39,2.23.87,5.1,0,7.65.2,2.63.22,5.23,1.21,7.83,1.16,5.62-.12,11.37,1.16,16.84-1.2,7.92.35,15.64-1.04,23.39-2.46,3.19-.58,6.29-1.42,9.41-2.19,3.09-.77,6.07-2,9.18-2.65,5.78-1.2,10.73-4.37,15.71-7.06,7.74-4.17,12.8-10.55,12.49-20.37-.15-4.95,2.76-9.46,6.7-12.53,4.44-3.46,9.5-6.11,14.06-9.42,3.53-2.56,6.73-5.56,10.03-8.41,1.77-1.53,1.77-3.08.15-4.86-2.52-2.77-5.06-5.55-7.26-8.57-5.01-6.84-10.21-13.5-15.93-19.77-2.36-2.59-4.48-5.41-6.63-8.18-2.77-3.57-5.46-7.21-8-10.56-3.96-.2-7.36.15-10.86,1.07-3.53.93-7.29,0-11.08,1.21-3.3,1.06-7.23.05-10.86.27-3.69.22-7.36,1.08-11.05,1.18-6.85.2-13.72.06-20.58.06-8.15,0-16.3.15-24.44-.04-8.19-.19-16.35.47-24.59-1.04-6.3-1.16-12.9-.05-19.4-1.33-5.89-1.17-12.05-1.01-18.09-1.44-.21-.02-.5.09-.63-.02-2.38-1.88-5.49-.46-7.76-1.46-2.7-1.19-5.26-.93-7.91-1.1-.62-.04-1.31.06-1.85-.18-4.86-2.12-10.17-2.53-15.24-3.46-5.78-1.06-11.45-2.43-16.98-4.17-10.4-3.27-20.75-6.75-30.6-11.49-.95-.46-1.91-.91-2.87-1.36.21,2.48,1.67,4.06,2.04,5.88,1.08,5.23,4.11,9.47,6.43,14.08,2.4,4.78,4.04,10.03,6.96,14.45,6.27,9.51,12.32,19.31,20.04,27.67,6.87,7.44,13.71,15.02,22.01,21.13,9.59,7.06,19.38,13.53,30.63,17.73,6.17,2.31,12.49,4.1,18.66,6.24,6.34,2.2,12.88,2.98,19.26,4.62,5.77,1.48,12.02,1.21,18.06,1.47,4.92.21,9.86-.03,14.79.06,4.17.08,6.79,2.69,6.69,6.74-.07,2.77-2.66,4.63-6.71,4.81-.86.04-1.71,0-2.57,0-3.64,0-7.29.07-10.93-.02-3.71-.09-7.35.09-11.1-1.08-3.22-1-6.9-.79-10.37-1.23-6.49-.83-12.67-2.54-18.96-4.07-8.69-2.1-17.18-4.65-25.12-8.82Zm145.87-97.07c-2.91-3.66-5.26-6.74-7.75-9.7-1.38-1.63-3.6-2.8-4.37-4.63-.88-2.11-2.54-3.25-3.79-4.86-1.38-1.78-2.66-3.64-4.11-5.36-2.83-3.35-6.19-6.35-8.48-10.03-1.83-2.94-4.45-4.97-6.48-7.58-4.02-5.17-7.53-10.78-11.93-15.58-6.32-6.89-12.18-14.11-17.63-21.68-.86-1.2-1.98-1.42-3.33-1.32-6.25.47-12.48-.45-18.81,1.08-4.66,1.12-9.84.6-14.73.12-5.13-.51-9.88,1.41-14.91,1.47-6.04.07-12.08.77-18.12,1.2-.21.02-.45-.06-.64.01-6.3,2.53-13.32,1.39-19.63,3.85-6.13-.99-11.53,3.01-17.58,2.57-7.27,2.84-15.09,3.75-22.43,6.4-9.91,3.58-20,6.74-28.74,12.9-2.91,2.06-5.99,4-7.83,7.18-1.39,2.4-3.47,4.94-2.18,7.82,1.5,3.32,3.1,6.74,6.27,8.99,7.2,5.11,15.08,9.04,23.34,11.96,13.23,4.68,26.73,8.46,40.69,10.59,2.82.43,5.96.24,8.4,1.32,1.89.83,3.57.76,5.36,1.07,1.98.34,3.92,1.04,5.9,1.23,5.6.54,11.22.9,16.83,1.32.43.03,1.02-.18,1.26.03,2.58,2.28,5.66.88,8.49,1.26,3.04.41,6.06,1.03,9.12,1.25,7.74.56,15.47-.32,23.3,1.08,6.65,1.18,13.68.44,20.53.19,6.69-.25,13.35.68,20.1-1.02,4.44-1.11,9.39-.43,14.09-.15,4.86.29,9.53-1.32,14.26-1.21,5.07.12,9.73-1.57,15.53-1.75Zm-157.89,91.29c-1.55-1.16-2.8-2.19-4.14-3.09-3.52-2.33-5.61-2.38-8.74.36-2.9,2.53-5.94,5.1-8.13,8.21-4.79,6.81-6.54,14.08-2.61,22.24,3.97,8.24,10.71,13.47,18.15,17.94,7.49,4.5,15.44,8.12,23.73,11.01,7.94,2.77,16.18,4.36,24.24,6.67,2.48.71,5.19.24,7.86,1.22,2.37.87,5.37-.28,7.77,1.46,6.11-.58,12.11,1.27,18.12,1.16,13.33-.25,26.74,1.57,39.99-1.16,5.72.98,11.26-.77,16.8-1.51,3.03-.4,6.42-.14,9.06-1.27,4.13-1.76,8.48-2.67,12.68-3.46,9.74-1.84,18.64-5.84,27.55-9.69,6.49-2.81,12.35-7,17.58-12.03,3.64-3.49,7.28-6.79,8.9-11.69.88-2.65,2.56-5.67,1.95-8.02-.87-3.36-1.06-7.19-3.59-10.06-1.36-1.55-3.17-3.02-3.76-4.86-1.39-4.31-6.15-4.72-8.44-7.95-.45-.63-2.84-.73-3.6-.13-2.13,1.67-5.17,2.66-5.92,5.59-.75,2.95-1,6.03-1.46,9.05-.15,1.01-.05,2.13-.46,3.02-2.95,6.39-6.95,11.65-12.92,15.92-5.5,3.93-11.25,6.97-17.45,9.27-4.84,1.8-9.66,3.72-14.79,4.69-4.58.87-9.17,1.8-13.67,2.83-3.35.77-6.77.05-9.77,1.14-3.51,1.27-6.96,1.25-10.45,1.09-11.61-.53-23.32,1.48-34.85-1.24-4.66.89-9.11-.79-13.59-1.46-2.59-.39-5.44-.45-7.78-1.32-5.57-2.08-11.78-2.48-16.72-6.21-8.79-1.77-15.56-7.34-22.48-12.41-2.71-1.98-5.13-5.1-6.31-8.23-1.63-4.29-3.66-8.74-2.79-13.66.22-1.23.03-2.53.03-3.44Zm253.78,8.11c1.21,0,1.85.02,2.49,0,4.99-.21,6.19-2.22,3.98-6.73-.53-1.07-1.11-2.15-1.82-3.1-3.86-5.14-8.25-9.87-12.41-14.75-5.41-6.35-10.92-12.63-16.27-19.04-3.91-4.68-8.48-8.83-12.14-13.68-2.68-3.55-6.15-6.37-8.65-9.92-5.28-7.48-11.79-13.89-17.44-21.03-3.65-4.61-8.23-8.5-11.64-13.25-2.49-3.47-5.84-6.05-8.25-9.43-5.07-7.08-11.16-13.3-16.61-20.05-5.09-6.31-10.64-12.3-15.88-18.53-5.23-6.22-10.5-12.44-15.89-18.52-5.54-6.25-10.9-12.65-16.36-18.97-4.77-5.51-9.5-11.03-14.09-16.69-5.66-6.98-11.76-13.6-17.68-20.36-3.32-3.78-6.59-7.61-10.06-11.25-.86-.9-.06-3.17-2.6-2.88-.9.1-1.71-1.85-4.37-3.05,1.25,2.67,1.62,4.07,2.45,5.1,4.01,5.02,8.45,9.72,12.17,14.94,4.69,6.57,10.6,12.09,15.17,18.76,2.58,3.77,6.36,6.73,8.9,10.52,2.14,3.19,5.37,5.43,7.25,8.57,2.26,3.76,5.53,6.59,7.97,10.16,2.45,3.6,6.11,6.4,8.45,10.06,4.04,6.28,9.32,11.52,13.87,17.35,3.42,4.39,6.98,8.68,10.42,13.07,6.26,8.01,12.96,15.68,19.49,23.47,2.55,3.03,5.54,5.77,7.64,9.08,4,6.31,9.45,11.4,13.8,17.4,3.77,5.19,8.14,9.94,12.21,14.91,5.63,6.88,11.19,13.83,16.85,20.68,4.64,5.61,9.38,11.13,14.09,16.68,2.56,3.02,5.46,5.81,7.67,9.06,5.14,7.59,11.4,14.21,17.3,21.41Zm48.43-33.81c.98-5-1.04-8.43-4.41-11.33-3.33-2.86-6.92-5.48-9.83-8.71-2.44-2.7-5.06-5.13-7.68-7.63-19.39-18.55-37.73-38.16-57.52-56.33-19.13-17.56-36.81-36.65-55.72-54.49-27.15-25.61-53.37-52.22-79.98-78.41-1.22-1.2-2.36-2.5-3.67-3.59-.49-.4-1.37-.33-2.33-.54,1.54,4.77,1.53,4.78,3.93,7.2,4.53,4.56,9.09,9.09,13.63,13.64,4.55,4.55,9.11,9.07,13.63,13.64,4.64,4.7,9.45,9.27,13.79,14.24,3.68,4.22,7.63,8.2,11.53,12.17,20.87,21.27,42.08,42.2,62.53,63.89,16.06,17.03,33.19,33,49.09,50.22,14.23,15.42,29.55,29.82,44.42,44.65,2.41,2.4,5.24,3.02,8.61,1.38Zm-62.91-84.44c6.12-3.39,12.51-6.54,17.46-11.79,4.52-4.79,4.47-10.47,0-15.33-4.07-4.42-9.3-7.31-14.38-10.24-5.99-3.46-12.79-5.27-19.25-7.69-7.63-2.86-15.83-3.98-23.62-6.47-2.05-.66-4.32-.42-6.57-1.17-2.18-.73-4.8-.49-7.11-1.45-.46-.19-1.14.18-2.05.36,2.47,2.47,4.7,4.7,6.93,6.92,2.27,2.27,4.54,4.54,6.81,6.81,2.42,2.42,4.84,4.84,7.26,7.26,2.27,2.27,4.54,4.54,6.81,6.81,2.27,2.27,4.49,4.59,6.82,6.79,2.21,2.08,4.61,3.97,6.78,6.08,2.24,2.18,4.2,4.66,6.49,6.79,2.23,2.08,4.7,3.9,7.65,6.31Zm-109.2-60.25c-.05.57-.29,1.15-.1,1.37,5.69,6.67,11.4,13.31,17.15,19.93.98,1.13,2.35,1.98,3.13,3.22,3.01,4.75,6.74,8.89,10.52,13,1.45,1.58,3.26,2.87,4.49,4.59,3.88,5.42,8.03,10.6,12.78,15.28.61.6,1.35,1.12,1.8,1.83,3.54,5.66,8.56,10.04,12.23,14.91,5.01-1.07,9.46-2.02,14.44-3.09-.84-1.13-1.24-1.83-1.78-2.39-14.92-15.54-30.97-29.95-45.11-46.26-5.88-6.79-12.7-12.77-19.01-19.19-2.99-3.05-6.35-4.39-10.54-3.19Zm95.93,115.03c4.05-3.28,5.69-7.08,8-10.35,2.05-2.9,2.05-3.33-.25-5.72-1.77-1.85-3.44-3.85-5.47-5.37-2.08-1.56-2.52-4.62-5.3-5.41.07-2.94-3.03-3.24-4.34-5.1-1.6-2.29-4.6-3.3-6.97-2.16-3.13,1.51-6.73,1.11-9.81,3.1,1.15,4.48,5.23,6.76,7.69,10.23,2.57,3.62,6.38,6.26,8.49,9.93,2.2,3.84,6.59,5.7,7.95,10.87Zm25.2-49.27c-1.19,1.4-2.39,2.28-2.73,3.42-.18.61,1.1,1.66,1.73,2.51,1.88-1.51,2.67-2.98,1-5.93Z"/>
        <path class="cls-2" d="m261.66,360.44c-.54-.99-1.17-1.81-1.46-2.74-1.23-3.87.97-6.84,5.04-7.36,8.19-1.05,16.23-2.84,24.15-5.16,2.64-.77,5.1-2.14,7.72-3,1.52-.5,3.2-.8,4.79-.75,1.81.05,3.06,1.1,3.04,3.16-.01,1.07-.1,2.15.02,3.2.23,1.98-.8,3.01-2.4,3.89-4.2,2.32-8.79,3.67-13.3,5.03-8.84,2.68-17.82,4.95-27.61,3.73Z"/>
      </g>
    </g>
  </g>
</svg>