<?xml version="1.0" encoding="UTF-8"?>
<svg id="Layer_2" data-name="Layer 2" xmlns="http://www.w3.org/2000/svg" viewBox="0 0 500 500">
  <defs>
    <style>
      .cls-1 {
        fill: #ccc;
        opacity: 0;
      }

      .cls-2 {
        fill: #0e0d16;
      }
    </style>
  </defs>
  <g id="Layer_1-2" data-name="Layer 1">
    <g>
      <g>
        <path class="cls-2" d="m399.44,192.04c5.37,0,10.3-.04,15.23,0,8.05.08,14.31,6.49,14.2,14.49-.1,6.95-6.68,13.67-13.61,13.79-5.14.08-10.27.02-15.7.02v184.94c-.72.55-1.55,1.2-2.41,1.83-2.46,1.78-4.48,1.58-6.6-.52-2.01-1.99-2.92-4.33-2.89-7.18.08-6.82.02-13.64.02-20.62h-39.89c0,3.71.02,7.51-.01,11.3-.02,1.63.32,3.24-1.16,4.73-.55.55-.46,2.33-1.73,1.72-1.56-.75-2.49,2.53-4.24.2-1.02-1.36-3.01-1.99-4.6-2.96v-15.03h-172.03v14.84c-2.05,1.48-4.04,2.91-5.74,4.14-5.06-1.71-6.49-5.38-6.12-10.19.21-2.76.04-5.55.04-8.62h-39.89c0,7.49-.01,14.95,0,22.41,0,2.53-.41,4.51-3.21,5.7-4.01,1.71-7.79.15-8.34-4.05-.22-1.69-.04-3.43-.04-5.14v-177.49c-4.86,0-9.72.02-14.57,0-2.33-.01-6.92-1.93-8.42-2.98-3.82-2.66-4.77-6.98-6.6-10.8,2.04-4.13,1.15-9.61,6.8-12.13,3.1-1.38,5.91-2.55,9.31-2.43,3.85.14,7.72.04,11.58.03,2.03,0,3.02-1.22,3.17-3.08.13-1.7.3-3.48-.03-5.13-.69-3.46,1.58-6.41,1.37-9.77-.21-3.31,1.59-6.23,2.16-9.37,1.84-10.14,6.12-19.38,10.81-28.33,4.04-7.69,8.95-14.93,14.61-21.67,3.25-3.87,6.31-7.95,10.2-11.1,3.99-3.23,7.77-6.74,11.89-9.85,2.37-1.79,4.43-2.06,6.93-2.06,61.96,0,123.93,0,186.27,0,6.24,5.93,12.85,11.89,19.07,18.22,6.33,6.44,11.32,13.9,16.08,21.59,5.19,8.4,8.65,17.44,11.65,26.71,1.67,5.15,3.25,10.28,3.95,15.81.75,5.83,2.24,11.61,2.48,18.04Zm-11.34-.1c-.61-6.41-1.1-12.23-1.75-18.03-.13-1.14-.9-2.2-1.23-3.33-2.48-8.59-5.01-17.15-9-25.22-5.84-11.81-13.13-22.56-22.55-31.82-3.29-3.23-6.5-6.49-10.28-9.23-2-1.45-3.61-2.4-6.15-2.4-57.67.07-115.34.07-173.01.01-3.35,0-5.98,1.11-8.25,3.43-2.1,2.14-3.9,4.9-6.43,6.23-5.08,2.67-6.66,8.46-11.22,11.43-3.21,6.05-7.91,11.09-11.19,17.2-2.56,4.76-3.86,10.08-7,14.5.32,3.21-2.38,5.36-2.82,8.55-.6,4.32-1.81,8.64-2.73,12.97-1.1,5.18-2.82,10.22-1.95,15.7h275.56Zm-179.77,93c-2.5-3.5-1.22-5.71,1.14-7.96h148.43c3.41-4.42,7.01-8.7,10.15-13.28,2.94-4.28,5.68-8.76,7.97-13.41,2.36-4.78,3.93-9.93,6.06-14.85,2.05-4.73,3.33-9.97,4.03-14.97.75-5.42,3.03-10.95,1.18-16.52H112.07c1.27,13.68,4.25,26.56,9.2,39.05,4.98,12.56,12.99,23.14,21.22,33.98h4.86c15.22,0,30.44.03,45.67-.04,2.21-.01,4.03.18,5.66,2,1.19,1.32,1.56,2.7.85,3.94-.51.89-1.92,1.48-3.04,1.75-1.21.3-2.56.07-3.84.07-11.79,0-23.58.01-35.38-.01-1.94,0-3.86-.13-4.74,1.47,2.32,2.1,4.59,4.16,6.92,6.26,58.64,0,117.39-.06,176.13.1,5.18.01,8.57-2.36,11.85-5.61.34-.34.24-1.11.4-1.96h-139.52Zm167.5,81.83c-2.26-1.38-3.74-2.02-4.9-3.02-7.41-6.45-16.19-10.96-23.82-17.14-5.5-4.46-5.86-4.02-13.73-4.02h-46.94c-40.94,0-81.87,0-122.81-.02-2.58,0-4.6.39-6.88,2.22-2.81,2.26-5.84,4.43-8.88,6.42-7.61,4.97-15.27,9.82-22.63,15.57h250.56Zm-211.92-35.96h172.34c-.13-9.08.13-17.96-.15-26.61h-172.19v26.61Zm-51.34,30.51c14.12-8.32,26.23-18.43,39.53-26.74v-33.94c-4.01-3.57-8.09-6.89-11.79-10.58-3.85-3.84-7.81-7.55-11.09-12.03-3.01-4.1-5.31-8.68-8.57-12.51-3.31-3.89-3.88-9.4-8.08-13.21v109Zm274.89-109.87c-9.41,20.54-23.11,35.95-39.54,49.38v33.36c13.57,8.36,25.66,18.47,39.54,26.9v-109.64Zm11.92-42.89h17.95c-.1-1.81-.19-3.39-.26-4.73h-17.69v4.73Zm-298.86.21v-5.15c-4.86,0-9.51.08-14.15-.04-2.01-.05-3.08.84-3.85,3.08,1.12.82,1.71,2.26,3.87,2.17,4.63-.2,9.28-.06,14.13-.06Z"/>
        <path class="cls-2" d="m250.31,172.03c-3.21,0-6.42.05-9.62-.01-7.2-.14-14.42-4.16-17.15-10.63-1.19-2.82-2.61-6.22-1.75-9.48.8-3.02,1.45-6.26,3.67-8.73,4.17-4.65,8.94-7.64,15.64-7.27,7.25.39,14.54.2,21.81.04,2.9-.06,5.22.95,7.18,2.82,2.21,2.12,4.46,3.97,6.07,6.95,2.85,5.26,3.06,10.32.73,15.22-2.28,4.79-5.68,8.79-11.66,10.03-1.95.4-3.89,1.03-5.93,1.06-2.99.04-5.99.01-8.98.01Zm12.34-11.58c1.75-1.35,3.07-2.37,3.91-3.02v-6.69c-2.73-3.39-5.95-4.71-10.03-4.49-4.28.23-8.59.3-12.85-.02-4.39-.32-7.66,1.33-10.41,4.66,0,.31,0,.73,0,1.15.1,6.5,1.92,8.38,8.26,8.41,7.29.03,14.58,0,21.11,0Z"/>
      </g>
      <rect class="cls-1" width="500" height="500"/>
    </g>
  </g>
</svg>