<?xml version="1.0" encoding="UTF-8"?>
<svg id="Layer_2" data-name="Layer 2" xmlns="http://www.w3.org/2000/svg" viewBox="0 0 564.85 500">
  <g id="Layer_1-2" data-name="Layer 1">
    <g>
      <path d="m518.39,158.48c8.48,0,16.26-.06,24.04.01,12.71.12,22.59,10.25,22.42,22.89-.15,10.97-10.54,21.59-21.49,21.77-8.11.13-16.22.03-24.79.03v292.03c-1.14.86-2.45,1.9-3.81,2.88-3.88,2.81-7.07,2.49-10.42-.82-3.18-3.15-4.61-6.84-4.56-11.34.12-10.77.04-21.54.04-32.57h-62.99c0,5.87.04,11.86-.02,17.85-.02,2.58.51,5.12-1.83,7.47-.87.87-.73,3.69-2.74,2.72-2.46-1.18-3.94,3.99-6.69.31-1.61-2.15-4.76-3.13-7.26-4.67v-23.74H146.67v23.43c-3.24,2.33-6.38,4.6-9.06,6.53-7.99-2.7-10.24-8.49-9.66-16.1.33-4.36.06-8.77.06-13.62h-62.99c0,11.83-.02,23.61.01,35.39.01,3.99-.65,7.12-5.07,9.01-6.34,2.7-12.3.23-13.17-6.4-.35-2.66-.06-5.41-.06-8.12V203.18c-7.68,0-15.35.03-23.01-.01-3.67-.02-10.93-3.06-13.3-4.71-6.03-4.2-7.53-11.02-10.42-17.05,3.22-6.52,1.81-15.17,10.74-19.15,4.89-2.18,9.33-4.03,14.7-3.83,6.09.23,12.19.07,18.28.05,3.2-.01,4.77-1.92,5-4.86.21-2.69.47-5.5-.04-8.1-1.09-5.47,2.5-10.12,2.16-15.43-.33-5.23,2.51-9.84,3.41-14.79,2.9-16.01,9.66-30.59,17.07-44.73,6.37-12.15,14.13-23.58,23.06-34.22,5.13-6.11,9.97-12.56,16.11-17.52,6.31-5.1,12.26-10.65,18.78-15.55C133.02.44,136.27,0,140.22,0,238.06,0,335.9,0,434.33,0c9.86,9.37,20.29,18.77,30.11,28.77,9.99,10.16,17.88,21.95,25.39,34.1,8.2,13.26,13.66,27.54,18.4,42.17,2.64,8.14,5.13,16.24,6.24,24.97,1.18,9.21,3.53,18.33,3.91,28.48Zm-17.9-.16c-.96-10.12-1.74-19.31-2.76-28.47-.2-1.8-1.42-3.47-1.94-5.27-3.92-13.57-7.92-27.08-14.21-39.82-9.22-18.64-20.73-35.63-35.61-50.24-5.19-5.1-10.26-10.25-16.24-14.57-3.15-2.28-5.71-3.79-9.7-3.79-91.06.11-182.13.11-273.19.02-5.29,0-9.44,1.76-13.02,5.42-3.31,3.39-6.15,7.74-10.16,9.84-8.02,4.21-10.52,13.36-17.72,18.05-5.07,9.56-12.49,17.5-17.67,27.16-4.03,7.51-6.09,15.92-11.06,22.9.51,5.08-3.75,8.47-4.45,13.5-.95,6.82-2.85,13.64-4.31,20.48-1.74,8.18-4.45,16.13-3.07,24.8h435.11Zm-283.86,146.85c-3.95-5.53-1.93-9.02,1.8-12.57h234.37c5.38-6.98,11.07-13.73,16.03-20.98,4.64-6.77,8.97-13.83,12.59-21.18,3.72-7.55,6.21-15.68,9.57-23.45,3.23-7.47,5.26-15.74,6.36-23.64,1.19-8.56,4.78-17.29,1.86-26.08H64.64c2,21.6,6.71,41.95,14.53,61.66,7.86,19.83,20.51,36.54,33.51,53.65h7.68c24.04,0,48.07.05,72.11-.06,3.49-.02,6.36.29,8.94,3.15,1.88,2.08,2.46,4.26,1.35,6.22-.8,1.41-3.03,2.34-4.8,2.77-1.92.47-4.04.11-6.07.11-18.62,0-37.24.02-55.86-.02-3.06,0-6.09-.2-7.48,2.32,3.67,3.32,7.25,6.56,10.93,9.89,92.6,0,185.36-.1,278.11.17,8.17.02,13.54-3.73,18.71-8.86.54-.53.39-1.75.64-3.1h-220.31Zm264.48,129.22c-3.57-2.18-5.9-3.19-7.73-4.77-11.7-10.18-25.56-17.3-37.61-27.06-8.68-7.04-9.25-6.34-21.67-6.34h-74.11c-64.64,0-129.28.01-193.91-.03-4.07,0-7.27.61-10.86,3.5-4.44,3.57-9.23,7-14.02,10.13-12.01,7.85-24.12,15.51-35.73,24.58h395.64Zm-334.63-56.79h272.13c-.21-14.34.21-28.36-.24-42.02H146.48v42.02Zm-81.06,48.18c22.3-13.14,41.42-29.11,62.42-42.22v-53.59c-6.34-5.64-12.77-10.87-18.62-16.7-6.09-6.06-12.33-11.92-17.52-18.99-4.75-6.47-8.39-13.71-13.53-19.76-5.22-6.14-6.13-14.85-12.75-20.85v172.11Zm434.06-173.49c-14.86,32.43-36.49,56.76-62.43,77.97v52.68c21.43,13.19,40.52,29.16,62.43,42.48v-173.13Zm18.82-67.73h28.34c-.16-2.85-.29-5.35-.41-7.46h-27.93v7.46Zm-471.91.33v-8.13c-7.68,0-15.01.12-22.34-.06-3.18-.08-4.86,1.32-6.09,4.86,1.78,1.3,2.71,3.57,6.11,3.42,7.32-.32,14.66-.1,22.32-.1Z" style="fill: #0e0d16;"/>
      <path d="m282.91,126.88c-5.07,0-10.13.08-15.2-.02-11.37-.22-22.77-6.57-27.08-16.78-1.88-4.45-4.12-9.83-2.76-14.96,1.27-4.77,2.28-9.88,5.79-13.79,6.58-7.34,14.12-12.06,24.69-11.48,11.45.62,22.96.31,34.44.06,4.58-.1,8.25,1.49,11.34,4.45,3.49,3.34,7.04,6.26,9.59,10.98,4.49,8.3,4.83,16.3,1.15,24.03-3.6,7.56-8.97,13.88-18.4,15.83-3.08.64-6.15,1.62-9.36,1.67-4.73.07-9.46.02-14.18.02Zm19.48-18.29c2.76-2.13,4.85-3.75,6.17-4.77v-10.57c-4.3-5.35-9.4-7.43-15.83-7.09-6.75.36-13.56.47-20.3-.03-6.94-.51-12.09,2.1-16.43,7.35,0,.48,0,1.15,0,1.82.15,10.26,3.04,13.23,13.05,13.27,11.51.04,23.02,0,33.34,0Z" style="fill: #0e0d16;"/>
    </g>
  </g>
</svg>