<svg xmlns="http://www.w3.org/2000/svg" style="display: none;">


<symbol id="fastfoodC_002-1" xmlns="http://www.w3.org/2000/svg" viewBox="0 0 512 512">
  <path d="m112.02,455.04c.84,6.33,6.33,10.96,12.65,10.96h181.33c6.33,0,11.81-4.64,12.65-10.96l33.73-285.06c.42-3.8-.84-7.17-2.95-9.7-2.53-2.53-5.9-4.22-9.28-4.22h-30.78l8.01-19.82,74.22,29.94c1.69.42,2.95.84,4.64.84s3.37-.42,5.06-.84c2.95-1.27,5.48-3.8,6.75-6.75l24.46-61.14c2.53-6.33-.42-13.92-7.17-16.45l-86.45-35c-.84-.42-1.69-.42-2.53-.84h-4.64c-.84,0-1.27.42-2.11.84h0c-.84.42-1.27.84-2.11,1.27-.42,0-.42.42-.84.42-.42.42-.84.84-1.27.84q-.42.42-.84.84c-.42.42-.84.84-.84,1.27-.42.84-.84,1.27-1.27,2.11l-40.9,102.05H90.93c-3.8,0-7.17,1.69-9.28,4.22-2.53,2.53-3.37,6.33-2.95,9.7l33.31,285.48ZM388.65,137.93l-62.41-25.3,7.59-18.55,7.59-18.98,62.41,25.3-15.18,37.53Zm-93.61,303.19h-158.98l-19.82-169.1,9.7-1.69c21.51-3.8,43.86-3.8,65.36,0l29.1,5.06c4.22.84,8.43,1.27,12.65,1.69l-8.43,21.51c-2.53,6.33.42,13.92,7.17,16.45,1.69.42,2.95.84,4.64.84,5.06,0,9.7-2.95,11.81-8.01l11.81-29.52h54.4l-19.4,162.77Zm30.36-259.76l-8.43,72.11h-47.23l29.1-72.11h26.57Zm-53.98,0l-28.67,71.27c-6.33-.42-12.23-1.27-18.13-2.11l-29.1-5.06c-24.46-4.22-49.34-4.22-74.22,0l-8.43,1.27-7.59-65.36h166.14Z"/>
</symbol>





</svg>
