<?xml version="1.0" encoding="UTF-8"?>
<svg id="Layer_1" data-name="Layer 1" xmlns="http://www.w3.org/2000/svg" viewBox="0 0 400 354.08">
  <defs>
    <style>
      .cls-1 {
        fill: #1e1822;
      }
    </style>
  </defs>
  <path class="cls-1" d="m32.84,130.93v-5.76c-5.43,0-10.62.09-15.82-.03-2.25-.06-3.44.94-4.31,3.44,1.25.92,1.92,2.53,4.33,2.42,5.18-.22,10.38-.07,15.8-.07Zm334.18-.24h20.07c-.11-2.02-.21-3.79-.29-5.29h-19.78v5.29Zm-13.32,47.96c-10.52,22.97-25.84,40.2-44.21,55.22v37.31c15.17,9.34,28.69,20.64,44.21,30.08v-122.61ZM46.33,301.51c15.79-9.3,29.33-20.61,44.2-29.89v-37.95c-4.49-3.99-9.05-7.7-13.18-11.83-4.32-4.29-8.73-8.44-12.41-13.44-3.37-4.59-5.94-9.72-9.57-14-3.7-4.34-4.35-10.51-9.03-14.76v121.87Zm57.4-34.12h192.71c-.15-10.15.14-20.08-.17-29.76H103.72v29.76Zm236.98,40.21c-2.54-1.53-4.18-2.25-5.48-3.38-8.29-7.21-18.1-12.26-26.64-19.17-6.15-4.99-6.54-4.49-15.34-4.49h-52.49c-45.78,0-91.55.01-137.32-.02-2.88,0-5.14.44-7.68,2.48-3.15,2.53-6.54,4.95-9.93,7.18-8.51,5.55-17.07,10.98-25.29,17.4h280.17Zm-187.3-91.5c-2.8-3.91-1.36-6.38,1.27-8.9h165.97c3.81-4.94,7.83-9.73,11.35-14.86,3.28-4.79,6.35-9.79,8.91-14.99,2.64-5.35,4.4-11.1,6.78-16.61,2.29-5.29,3.72-11.15,4.51-16.74.84-6.06,3.39-12.24,1.32-18.47H45.77c1.42,15.3,4.75,29.7,10.29,43.66,5.57,14.05,14.53,25.88,23.73,38h5.44c17.02,0,34.04.03,51.06-.05,2.48-.01,4.51.2,6.34,2.24,1.33,1.48,1.74,3.02.95,4.4-.57,1-2.15,1.66-3.4,1.96-1.35.34-2.86.08-4.29.08-13.18,0-26.38.01-39.56-.01-2.17-.01-4.32-.14-5.3,1.64,2.61,2.35,5.14,4.64,7.75,7,65.57,0,131.25-.07,196.95.12,5.78.01,9.58-2.65,13.25-6.28.38-.37.27-1.24.45-2.19h-156.01Zm201.02-103.99c-.68-7.17-1.24-13.68-1.96-20.16-.13-1.27-1.01-2.46-1.38-3.72-2.77-9.6-5.6-19.18-10.06-28.2-6.53-13.21-14.68-25.23-25.21-35.58-3.68-3.61-7.27-7.26-11.51-10.32-2.22-1.61-4.04-2.68-6.87-2.68-64.49.09-128.97.09-193.46.02-3.75-.01-6.69,1.24-9.22,3.84-2.35,2.39-4.36,5.48-7.19,6.97-5.68,2.99-7.45,9.46-12.55,12.78-3.59,6.76-8.84,12.4-12.51,19.23-2.86,5.32-4.32,11.27-7.84,16.21.37,3.6-2.65,5.99-3.15,9.56-.67,4.82-2.01,9.66-3.04,14.5-1.23,5.79-3.15,11.43-2.18,17.56h308.13Zm12.67.11c6.02,0,11.53-.04,17.03.01,9,.09,16,7.26,15.88,16.21-.11,7.76-7.47,15.29-15.22,15.41-5.74.1-11.48.02-17.56.02v206.8c-.8.62-1.73,1.35-2.69,2.05-2.75,1.99-5.01,1.77-7.38-.58-2.25-2.24-3.25-4.85-3.22-8.03.08-7.63.02-15.25.02-23.07h-44.6c0,4.16.03,8.4-.01,12.64-.01,1.83.37,3.63-1.3,5.29-.61.62-.52,2.62-1.93,1.93-1.74-.84-2.8,2.83-4.74.22-1.14-1.52-3.37-2.23-5.14-3.31v-16.82H103.86v16.59c-2.29,1.66-4.52,3.27-6.42,4.63-5.65-1.91-7.25-6.02-6.83-11.39.24-3.1.03-6.22.03-9.65h-44.6c0,8.39-.01,16.73.01,25.07.01,2.83-.46,5.04-3.59,6.37-4.48,1.91-8.71.17-9.33-4.53-.25-1.89-.05-3.83-.05-5.75v-198.47c-5.43,0-10.87.02-16.29-.01-2.61-.01-7.74-2.16-9.42-3.33-4.27-2.97-5.33-7.81-7.38-12.08,2.28-4.61,1.27-10.75,7.6-13.55,3.47-1.54,6.61-2.86,10.41-2.72,4.31.16,8.62.05,12.94.03,2.27-.01,3.39-1.36,3.54-3.44.15-1.91.34-3.89-.03-5.74-.76-3.87,1.77-7.17,1.53-10.93-.22-3.71,1.78-6.97,2.42-10.48,2.06-11.34,6.84-21.67,12.1-31.68,4.51-8.61,10-16.69,16.33-24.23,3.63-4.33,7.07-8.89,11.41-12.41,4.47-3.61,8.69-7.54,13.31-11.01C94.2.31,96.5,0,99.29,0,168.58,0,237.87,0,307.57,0c6.99,6.63,14.37,13.28,21.32,20.36,7.08,7.2,12.66,15.54,17.98,24.15,5.8,9.38,9.67,19.5,13.03,29.86,1.88,5.77,3.63,11.51,4.43,17.69.83,6.52,2.51,12.97,2.76,20.16Z"/>
  <path class="cls-1" d="m214.14,79.14c1.96-1.51,3.43-2.66,4.37-3.39v-7.48c-3.05-3.79-6.67-5.26-11.22-5.02-4.79.26-9.6.34-14.37-.02-4.92-.36-8.57,1.5-11.64,5.21,0,.35-.01.82,0,1.3.11,7.27,2.15,9.37,9.24,9.39,8.15.03,16.3.01,23.62.01Zm-13.8,12.95c-3.59,0-7.18.06-10.77-.01-8.05-.16-16.12-4.66-19.18-11.89-1.33-3.14-2.92-6.96-1.96-10.59.91-3.39,1.62-7,4.1-9.77,4.66-5.19,10-8.53,17.49-8.13,8.11.44,16.26.22,24.39.05,3.24-.08,5.84,1.05,8.03,3.14,2.47,2.37,4.99,4.44,6.79,7.78,3.19,5.87,3.42,11.54.82,17.01-2.56,5.36-6.35,9.84-13.04,11.22-2.18.45-4.35,1.15-6.63,1.18-3.34.04-6.7.01-10.04.01Z"/>
</svg>