<svg width="500" height="500" viewBox="0 0 500 500" fill="none" xmlns="http://www.w3.org/2000/svg">
<path d="M82.8411 203.934C82.8411 201.585 82.8411 199.998 82.8411 198.175C77.4067 198.175 72.2183 198.264 67.0187 198.141C64.7712 198.086 63.5747 199.081 62.7137 201.585C63.9661 202.502 64.6369 204.113 67.041 204.001C72.2182 203.777 77.4179 203.934 82.8411 203.934ZM417.023 203.699C424.045 203.699 430.43 203.699 437.095 203.699C436.983 201.675 436.882 199.908 436.804 198.41C429.905 198.41 423.52 198.41 417.023 198.41C417.023 200.255 417.023 201.854 417.023 203.699ZM403.705 251.658C393.183 274.626 377.864 291.857 359.492 306.874C359.492 319.264 359.492 331.888 359.492 344.188C374.666 353.525 388.185 364.83 403.705 374.267C403.705 333.409 403.705 293.31 403.705 251.658ZM96.3266 374.513C112.115 365.21 125.656 353.905 140.528 344.624C140.528 331.821 140.528 319.197 140.528 306.673C136.033 302.681 131.482 298.969 127.345 294.842C123.029 290.549 118.612 286.4 114.933 281.402C111.567 276.817 108.995 271.685 105.361 267.402C101.66 263.064 101.012 256.891 96.3266 252.642C96.3266 293.378 96.3266 333.476 96.3266 374.513ZM153.723 340.397C218.276 340.397 282.203 340.397 346.432 340.397C346.286 330.244 346.577 320.315 346.264 310.642C281.722 310.642 217.784 310.642 153.723 310.642C153.723 320.628 153.723 330.378 153.723 340.397ZM390.701 380.607C388.162 379.076 386.519 378.36 385.222 377.231C376.936 370.018 367.118 364.975 358.586 358.065C352.436 353.078 352.045 353.57 343.245 353.57C325.745 353.57 308.257 353.57 290.757 353.57C244.978 353.57 199.211 353.581 153.432 353.547C150.548 353.547 148.289 353.983 145.751 356.03C142.597 358.557 139.209 360.983 135.821 363.209C127.312 368.755 118.746 374.189 110.528 380.607C203.717 380.607 296.583 380.607 390.701 380.607ZM203.404 289.106C200.609 285.192 202.04 282.721 204.679 280.205C259.739 280.205 315.055 280.205 370.652 280.205C374.465 275.263 378.479 270.477 382.001 265.345C385.277 260.559 388.353 255.56 390.913 250.35C393.552 245.005 395.308 239.246 397.689 233.745C399.982 228.456 401.413 222.596 402.196 217.005C403.034 210.945 405.584 204.761 403.515 198.533C301 198.533 198.529 198.533 95.7676 198.533C97.1877 213.83 100.52 228.232 106.055 242.198C111.623 256.243 120.58 268.073 129.783 280.194C131.46 280.194 133.339 280.194 135.228 280.194C152.247 280.194 169.266 280.228 186.285 280.149C188.767 280.138 190.791 280.351 192.625 282.386C193.956 283.862 194.369 285.405 193.575 286.791C193.005 287.787 191.428 288.446 190.176 288.748C188.823 289.084 187.313 288.827 185.882 288.827C172.699 288.827 159.504 288.838 146.321 288.815C144.151 288.804 142.005 288.67 141.021 290.459C143.626 292.807 146.164 295.1 148.77 297.459C214.34 297.459 280.022 297.392 345.716 297.582C351.497 297.593 355.299 294.932 358.966 291.298C359.347 290.929 359.235 290.057 359.414 289.106C307.25 289.106 255.299 289.106 203.404 289.106ZM404.421 185.115C403.739 177.947 403.18 171.439 402.464 164.954C402.33 163.679 401.458 162.494 401.089 161.23C398.316 151.625 395.487 142.053 391.025 133.029C384.495 119.823 376.343 107.803 365.81 97.4485C362.131 93.8368 358.542 90.1914 354.304 87.1276C352.079 85.5174 350.267 84.4439 347.438 84.4439C282.952 84.5334 218.466 84.5335 153.98 84.4664C150.234 84.4552 147.293 85.7075 144.755 88.3017C142.407 90.6946 140.394 93.7809 137.565 95.2681C131.885 98.2536 130.118 104.728 125.019 108.049C121.43 114.814 116.174 120.45 112.507 127.282C109.644 132.604 108.19 138.553 104.668 143.496C105.037 147.096 102.018 149.489 101.515 153.056C100.844 157.875 99.5022 162.717 98.4735 167.559C97.2435 173.351 95.3202 178.987 96.293 185.115C198.853 185.115 301.156 185.115 404.421 185.115ZM417.09 185.226C423.106 185.226 428.619 185.182 434.12 185.238C443.122 185.327 450.121 192.495 449.998 201.451C449.887 209.211 442.529 216.737 434.78 216.86C429.043 216.961 423.296 216.882 417.224 216.882C417.224 285.673 417.224 354.397 417.224 423.68C416.419 424.295 415.491 425.033 414.53 425.726C411.779 427.717 409.52 427.493 407.149 425.145C404.902 422.909 403.895 420.292 403.929 417.116C404.007 409.49 403.951 401.864 403.951 394.048C389.057 394.048 374.498 394.048 359.347 394.048C359.347 398.208 359.38 402.446 359.336 406.684C359.324 408.518 359.705 410.318 358.039 411.973C357.424 412.588 357.524 414.589 356.104 413.907C354.36 413.068 353.308 416.736 351.363 414.131C350.222 412.61 347.997 411.906 346.219 410.821C346.219 405.04 346.219 399.594 346.219 394.003C282.024 394.003 218.075 394.003 153.857 394.003C153.857 399.482 153.857 404.928 153.857 410.597C151.565 412.252 149.34 413.862 147.439 415.227C141.792 413.315 140.193 409.211 140.607 403.832C140.842 400.735 140.64 397.615 140.64 394.182C125.846 394.182 111.131 394.182 96.0357 394.182C96.0357 402.569 96.0247 410.91 96.0471 419.252C96.0583 422.081 95.5885 424.295 92.4575 425.626C87.9736 427.538 83.747 425.794 83.132 421.097C82.886 419.207 83.087 417.262 83.087 415.35C83.087 349.421 83.087 283.493 83.087 216.882C77.6526 216.882 72.2183 216.905 66.7951 216.871C64.1897 216.86 59.0573 214.713 57.38 213.539C53.1086 210.565 52.0463 205.734 50 201.462C52.2811 196.856 51.2747 190.717 57.6037 187.91C61.0701 186.367 64.2119 185.047 68.0138 185.193C72.3188 185.349 76.6353 185.238 80.9516 185.226C83.2215 185.215 84.3396 183.862 84.4961 181.782C84.6415 179.87 84.8315 177.891 84.4625 176.046C83.7021 172.177 86.2291 168.878 85.9943 165.121C85.7707 161.409 87.7724 158.155 88.4098 154.644C90.4673 143.305 95.253 132.973 100.508 122.966C105.015 114.355 110.505 106.271 116.834 98.7344C120.468 94.4071 123.901 89.8449 128.24 86.3226C132.712 82.7108 136.928 78.786 141.546 75.3084C144.196 73.3068 146.5 73.005 149.295 73.005C218.578 72.9938 287.872 73.005 357.569 73.005C364.557 79.6358 371.938 86.289 378.893 93.3671C385.971 100.568 391.55 108.91 396.873 117.52C402.676 126.902 406.545 137.021 409.9 147.376C411.779 153.146 413.534 158.882 414.328 165.065C415.156 171.584 416.833 178.036 417.09 185.226Z" fill="#1E1822"/>
<path d="M264.145 152.139C266.102 150.63 267.578 149.478 268.518 148.751C268.518 145.643 268.518 143.295 268.518 141.271C265.465 137.48 261.853 136.015 257.302 136.25C252.516 136.507 247.697 136.585 242.933 136.228C238.013 135.87 234.368 137.726 231.293 141.438C231.293 141.785 231.282 142.255 231.293 142.735C231.405 150.004 233.44 152.106 240.529 152.128C248.681 152.162 256.832 152.139 264.145 152.139ZM250.347 165.088C246.758 165.088 243.168 165.144 239.579 165.077C231.528 164.92 223.454 160.414 220.402 153.19C219.071 150.048 217.483 146.235 218.445 142.601C219.351 139.213 220.066 135.601 222.549 132.828C227.212 127.64 232.546 124.296 240.037 124.699C248.144 125.135 256.296 124.923 264.425 124.744C267.668 124.665 270.262 125.795 272.454 127.886C274.925 130.256 277.441 132.325 279.241 135.669C282.428 141.539 282.663 147.208 280.057 152.676C277.497 158.032 273.706 162.516 267.019 163.892C264.839 164.339 262.67 165.043 260.388 165.077C257.045 165.122 253.69 165.088 250.347 165.088Z" fill="#1E1822"/>
</svg>
