<?xml version="1.0" encoding="UTF-8"?>
<svg id="outline" xmlns="http://www.w3.org/2000/svg" viewBox="0 0 512 440">
  <rect x="296" y="208" width="16" height="16"/>
  <path d="m30.46,197.66l16.97-16.97c3.13-3.12,8.19-3.12,11.31,0l22.63,22.63,33.94-33.94-24.21-24.2c-2.25-2.22-2.28-5.84-.06-8.09.01-.01.02-.02.03-.03l18.59-18.59-5.66-5.66c-9.06-9.06-22.46-13.03-37.73-11.17-13.52,1.64-26.91,7.93-35.81,16.83s-15.19,22.28-16.83,35.81c-1.85,15.28,2.11,28.68,11.17,37.74l5.66,5.66Zm55.46-78.09l-10.2,10.2c-3.37,3.37-5.07,7.1-5.06,11.07.03,6.68,4.72,11.3,9.26,15.77.48.47.97.95,1.46,1.44l11.31,11.31-11.32,11.32-11.31-11.31c-9.38-9.36-24.56-9.36-33.94,0l-4.55,4.55c-2.75-6.33-3.01-14.16-1.38-21.79l.27.27c7.59-7.59,20.02-3.75,20.15-3.71l2.48-7.6,2.53-7.59c-5.09-1.52-10.42-2.09-15.73-1.68.61-.71,1.23-1.4,1.88-2.04,10.7-10.7,30.78-16.02,44.14-10.2Z"/>
  <path d="m68.65,391.96c30.69,30.86,72.45,48.15,115.97,48.04h140.77c39.73,0,78.1-14.42,107.99-40.58l23.15-20.45c36.4-13.89,55.46-31.31,55.46-50.97,0-20.72-21.43-39.09-62.08-53.38-.79-2.02-1.7-4.08-2.77-6.2-2.13-4.24-4.72-8.24-7.72-11.92,13.37-9.36,22.13-23.96,24.11-40.16l41.3-4.39c4.39-.47,7.58-4.41,7.11-8.8-.29-2.71-1.94-5.09-4.38-6.31l-28.36-14.18-7.33-43.98c-.73-4.36-4.85-7.3-9.21-6.57-2.52.42-4.69,2.02-5.84,4.31l-23.2,46.4-51.29,40.3c-15.15-4.16-30.68-6.78-46.36-7.82v-30.36l29.66-15.29c15.29-15.29,14.38-30.84,10.93-41.19-2.3-6.76-6.03-12.94-10.93-18.13l-11.31,11.31c3.14,3.44,5.54,7.48,7.07,11.87,2.87,8.61.84,16.45-6.2,23.92l-11.23,5.61c2.02-9.12.87-19.54-3.52-30.94-3.56-8.99-8.34-17.45-14.22-25.13l-12.5,9.99c.27.34,26.55,33.87,9.27,52.64l-19.02,10.87v-76.5h208v-16h-208v-8h208v-16h-208v-16h208v-16h-208v-8h208V8h-214.13C293.32,2.91,286.82,0,280,0h-104c-6.82,0-13.32,2.91-17.87,8h-46.13v40h40v16h-56v40h56v111.88l-25.05-43.85c-2.19-3.84-7.08-5.17-10.91-2.98-2.01,1.15-3.42,3.11-3.88,5.38l-7.09,35.45-43.6,14.53c-4.19,1.4-6.46,5.93-5.06,10.12.74,2.23,2.43,4.02,4.62,4.9l27.92,11.17c-8.75,6.61-16.64,14.29-23.48,22.86C22.61,287.9,0,306.71,0,328s21.98,38.43,56.42,51.38l12.23,12.58ZM128,32v-8h24v8h-24Zm-16,56v-8h40v8h-40Zm-24.75,144.68l27.28-9.09c2.72-.91,4.75-3.21,5.32-6.02l3.81-19.05,16.3,28.53c-12.06,2.66-23.68,7-34.52,12.91l-18.19-7.28Zm97.37,191.32c-34.63.1-68.17-12.04-94.72-34.27,47.34,12.04,107.58,18.27,166.1,18.27s117.65-6.19,163.18-17.53c-26.45,21.68-59.6,33.53-93.8,33.53h-140.77Zm311.38-96c0,14.91-25,31.07-66.87,43.23-46.13,13.39-107.62,20.77-173.13,20.77s-127-7.38-173.13-20.77c-41.87-12.16-66.87-28.32-66.87-43.23,0-10.43,12.66-21.72,34.82-31.7-.72,1.44-1.42,2.9-2.1,4.38l14.56,6.64c1.32-2.88,2.76-5.69,4.29-8.42,4.08,1.67,8.45,2.55,12.86,2.57,5.81-.03,11.52-1.59,16.54-4.52,5.41-3.14,10.07-7.41,13.69-12.51l-13.31-8.88c-2.25,3.02-5.07,5.57-8.31,7.49-3.7,2.24-8.12,2.96-12.34,2.01,35.04-45.76,98.56-58.5,148.53-29.78-.83.23-1.64.48-2.46.72h-62.77c-19.42,0-32.14,15.89-42.37,28.66-.8,1-1.6,1.99-2.39,2.98-10.45,12.92-17.01,16.36-19.24,16.36h-24v16h24c9.18,0,19.54-7.29,31.68-22.29.81-1,1.63-2.02,2.45-3.05,8.92-11.14,18.14-22.66,29.88-22.66h26.32c-7.43,4.53-14.25,9.99-20.3,16.24-24.07,4.86-45.18,19.18-58.59,39.76h-43.43c-8.13,0-11.25-1.8-11.77-2.75-.85-1.56.62-6.03,2.45-8.84l-6.68-4.4-6.66-4.44c-.95,1.42-9.11,14.23-3.22,25.23,3.98,7.44,12.69,11.21,25.88,11.21h85.65c1.69,5.31,4.64,10.13,8.6,14.05,16.65,16.57,49.67,18,91.81,17.95,3.18.05,70.91-.03,71.07-.04,36.78-.3,65.48-2.84,80.62-17.91,7.02-6.99,10.59-16.23,10.59-27.45,0-3.38-.32-6.75-.95-10.08,11.9-.2,29.05-2.72,37.37-14.48,2.71-3.85,4.29-8.38,4.56-13.08,27.02,10.75,42.69,23.42,42.69,35.03Zm-253.82-93.75l6.66,13.33,14.31-7.15-7.05-14.12,9.76-5.57c3.03,11.09,9.85,20.77,19.28,27.35-1.71-.04-3.42-.08-5.13-.08-11.04,0-22.06.85-32.96,2.55-4.96-3.75-10.18-7.14-15.62-10.15l10.76-6.15Zm82.17,9.27c4.67-2.82,8.25-7.15,10.14-12.26,20.1,1.35,80.39,8.38,98.36,44.32,3.37,6.74,6.6,15.9,2.85,21.22-2.74,3.89-9.45,6.51-18.89,7.38-3.69.32-7.4.4-11.09.23-6.6-12.6-18.02-24.02-33.68-33.42-4.8-2.87-9.76-5.44-14.87-7.7,23.28-6.58,36.56,5.77,37.23,6.42l5.6-5.71,5.66-5.66c-1.13-1.13-27.65-26.85-70.65-3-7.33-2.06-14.78-3.67-22.31-4.83l11.65-6.99Zm-99.85,114.07c3.38-8.69,23.85-21.59,55.5-21.59,16.83,0,32.95,3.88,44.22,10.64,6.66,3.99,10.02,8,11.24,10.96-6.15,1.71-16.23,2.23-24.91,2.39-3.67,0-60.46,0-61.23,0-8.67-.16-18.71-.69-24.82-2.4Zm143.49-4.46c-1.02.59-2.07,1.11-3.17,1.55-4.16,1.61-8.5,2.72-12.93,3.32-.87-9.19-7.7-18.02-19.45-25.07-13.69-8.21-32.8-12.92-52.46-12.92-36.85,0-68.28,16.33-71.68,36.4-1.75-.46-3.47-1.03-5.15-1.72-1.09-.44-2.15-.95-3.16-1.55,0-.39,0-.85,0-1.23,0-31.48,45.15-55.9,84-55.9,24.38,0,47.84,7.9,64.36,21.67,12.48,10.4,19.64,22.88,19.64,34.23,0,.38,0,.84,0,1.23h0Zm15.99-1.79c-.21-15.95-9.42-32.67-25.38-45.97-19.35-16.13-46.54-25.38-74.61-25.38-26.2,0-51.24,7.89-70.52,22.22-18.74,13.93-29.48,32.04-29.48,49.68,0,.94.03,1.84.1,2.7-6.16-1.9-11.11-4.45-14.56-7.89-4.01-3.99-5.87-9.11-5.87-16.11,0-17.01,11.55-33.3,32.53-45.89,13.23-7.94,29.12-13.73,46.49-17.15l.12.1.12-.14c12.22-2.36,24.63-3.54,37.07-3.52,31.78,0,61.54,7.36,83.8,20.71,13.54,8.12,23.14,17.79,28.26,28.19.18,1.56.81,3.03,1.82,4.23,1.61,4.31,2.44,8.87,2.46,13.47,0,7-1.87,12.12-5.87,16.11-1.92,1.86-4.1,3.42-6.48,4.63h0Zm-236.25-23.34h-20.24c6.8-7.67,15.07-13.9,24.33-18.3-2.39,5.82-3.77,12.01-4.08,18.3Zm312.42-162.42l3.96,23.73c.42,2.52,2.02,4.7,4.31,5.84l7.55,3.78-16.33,1.73-8.36-11.03-1.9-2.51,10.77-21.55Zm-47.67,54.22l13.86,13.86,11.31-11.31-12.5-12.5,13.39-10.52,9.38,12.37c-.8,13.75-8.34,26.21-20.14,33.31-8.34-6.51-17.56-11.79-27.39-15.7l12.08-9.5Zm-92.48,3.14c0,2.81-1.48,5.41-3.88,6.86l-14.85,8.91c-11.17-4.38-19.14-14.42-20.87-26.29l39.6-22.63v33.16Zm-48-24.15v-118.79h-16v127.93l-42.46,24.26c-4.43-1.64-8.95-3.05-13.54-4.21V40h-16v184.99c-5.31-.66-10.65-.99-16-.99V24c0-4.42,3.58-8,8-8h40v136h16V16h24v40h16V16h8c4.42,0,8,3.58,8,8v165.64l-16,9.14Z"/>
</svg>