<?xml version="1.0" encoding="UTF-8"?>
<svg xmlns="http://www.w3.org/2000/svg" id="outline" viewBox="0 0 512 512" width="512" height="512"><rect x="296" y="244" width="16" height="16"/>
<path d="M30.461,233.657l16.97-16.971a8.009,8.009,0,0,1,11.314,0l22.627,22.627,33.941-33.941L91.1,181.174a5.723,5.723,0,0,1-.032-8.124l18.59-18.589L104,148.8c-9.058-9.058-22.458-13.028-37.733-11.172-13.524,1.642-26.91,7.933-35.806,16.829s-15.187,22.281-16.829,35.806C11.778,205.541,15.746,218.941,24.8,228Zm55.458-78.086-10.2,10.2c-3.373,3.373-5.075,7.1-5.059,11.069.026,6.683,4.718,11.3,9.256,15.771.479.471.967.952,1.459,1.444l11.314,11.314L81.373,216.687,70.059,205.373a24.027,24.027,0,0,0-33.941,0l-4.547,4.547c-2.753-6.328-3.008-14.16-1.381-21.789l.271.271c7.593-7.592,20.022-3.748,20.146-3.708l2.481-7.605,2.53-7.589a43.252,43.252,0,0,0-15.725-1.681c.607-.713,1.234-1.4,1.882-2.044C52.478,155.071,72.554,149.753,85.919,155.571Z"/>
<path d="M68.652,427.965A162.926,162.926,0,0,0,184.617,476H325.385A163.951,163.951,0,0,0,433.38,435.422l23.155-20.455C492.932,401.074,512,383.655,512,364c0-20.719-21.428-39.094-62.08-53.376-.791-2.015-1.7-4.079-2.765-6.2a65.376,65.376,0,0,0-7.72-11.924,57.529,57.529,0,0,0,24.111-40.157l41.3-4.386a8,8,0,0,0,2.733-15.11l-28.356-14.178-7.33-43.982a8,8,0,0,0-15.046-2.262l-23.2,46.4-51.286,40.3A233.356,233.356,0,0,0,336,251.3V220.944l29.657-15.287c15.287-15.287,14.383-30.835,10.933-41.187a49.736,49.736,0,0,0-10.933-18.127l-11.313,11.313a34.3,34.3,0,0,1,7.067,11.873c2.871,8.613.843,16.448-6.2,23.921l-11.228,5.614c2.024-9.115.869-19.538-3.516-30.937A104.793,104.793,0,0,0,326.247,143l-12.5,9.986c.271.34,26.55,33.865,9.273,52.644L304,216.5V140H512V124H304v-8H512V100H304V84H512V68H304V60H512V44H297.869A23.943,23.943,0,0,0,280,36H176a23.943,23.943,0,0,0-17.869,8H112V84h40v16H96v40h56V251.876l-25.054-43.845a8,8,0,0,0-14.791,2.4l-7.089,35.447-43.6,14.532a8,8,0,0,0-.441,15.017L88.947,286.6a131.4,131.4,0,0,0-23.481,22.859C22.613,323.9,0,342.712,0,364c0,21.207,21.975,38.427,56.418,51.384ZM128,68V60h24v8Zm-16,56v-8h40v8ZM87.249,268.683l27.281-9.094a8,8,0,0,0,5.315-6.021l3.81-19.049,16.3,28.533a131.345,131.345,0,0,0-34.521,12.906ZM184.617,460A146.88,146.88,0,0,1,89.9,425.727C137.24,437.763,197.483,444,256,444c60.419,0,117.653-6.188,163.185-17.532A147.947,147.947,0,0,1,325.385,460ZM496,364c0,14.913-25,31.073-66.868,43.229C383,420.624,321.51,428,256,428s-127-7.376-173.132-20.771C41,395.073,16,378.913,16,364c0-10.429,12.656-21.719,34.82-31.7q-1.086,2.164-2.1,4.377l14.556,6.643c1.316-2.884,2.756-5.688,4.289-8.424a34.545,34.545,0,0,0,12.865,2.573,33.067,33.067,0,0,0,16.537-4.525,43.586,43.586,0,0,0,13.687-12.508l-13.312-8.875a28.373,28.373,0,0,1-8.313,7.492,16.714,16.714,0,0,1-12.338,2.009,114.95,114.95,0,0,1,148.533-29.782c-.826.232-1.641.477-2.458.719H160c-19.423,0-32.144,15.891-42.366,28.66q-1.2,1.5-2.395,2.981C104.79,336.555,98.229,340,96,340H72v16H96c9.176,0,19.538-7.292,31.677-22.294q1.219-1.506,2.448-3.046C139.042,319.519,148.264,308,160,308h26.325a102.411,102.411,0,0,0-20.3,16.244A91.589,91.589,0,0,0,107.432,364H64c-8.129,0-11.254-1.8-11.771-2.754-.846-1.559.623-6.034,2.451-8.844L48,348l-6.656-4.437c-.95,1.424-9.108,14.234-3.225,25.227C42.1,376.228,50.808,380,64,380h85.651a34.561,34.561,0,0,0,8.6,14.054c16.648,16.57,49.672,18,91.812,17.947,3.179.049,70.907-.034,71.066-.036,36.779-.3,65.475-2.839,80.618-17.911,7.024-6.992,10.586-16.229,10.586-27.453a54.238,54.238,0,0,0-.95-10.075c11.9-.2,29.046-2.716,37.366-14.476a25.217,25.217,0,0,0,4.557-13.08C480.329,339.715,496,352.392,496,364ZM242.182,270.253l6.662,13.325,14.311-7.155L256.1,262.3l9.755-5.574a49.146,49.146,0,0,0,19.282,27.347c-1.707-.04-3.415-.076-5.132-.076a212.313,212.313,0,0,0-32.96,2.553,131.513,131.513,0,0,0-15.621-10.15Zm82.165,9.268a24.09,24.09,0,0,0,10.138-12.264c20.095,1.35,80.387,8.378,98.36,44.321,3.373,6.745,6.6,15.9,2.852,21.221-2.741,3.885-9.449,6.507-18.887,7.383a82.8,82.8,0,0,1-11.094.229c-6.6-12.6-18.018-24.022-33.681-33.42a137.831,137.831,0,0,0-14.872-7.7c23.282-6.585,36.563,5.772,37.234,6.418L400,300l5.657-5.657c-1.132-1.134-27.648-26.848-70.648-3A190.433,190.433,0,0,0,312.7,286.51ZM224.5,393.593C227.885,384.9,248.348,372,280,372c16.835,0,32.953,3.877,44.221,10.639,6.657,3.995,10.025,8,11.239,10.965-6.152,1.708-16.231,2.229-24.912,2.388-3.667-.009-60.462,0-61.229,0C240.648,395.828,230.612,395.3,224.5,393.593Zm143.494-4.464a24.132,24.132,0,0,1-3.165,1.547,56.846,56.846,0,0,1-12.928,3.317c-.871-9.187-7.695-18.024-19.446-25.074C318.77,360.709,299.651,356,280,356c-36.846,0-68.279,16.329-71.68,36.4a39.566,39.566,0,0,1-5.149-1.722,24,24,0,0,1-3.163-1.546c-.008-.389-.008-.85-.008-1.233,0-31.481,45.155-55.9,84-55.9,24.384,0,47.843,7.9,64.362,21.666C360.842,364.067,368,376.545,368,387.9,368,388.281,368,388.741,367.992,389.129Zm15.988-1.788c-.21-15.949-9.421-32.671-25.375-45.966C339.259,325.249,312.066,316,284,316c-26.2,0-51.244,7.89-70.519,22.218C194.746,352.145,184,370.253,184,387.9c0,.944.031,1.841.1,2.7-6.16-1.9-11.11-4.455-14.559-7.889-4.007-3.988-5.874-9.108-5.874-16.113,0-17.005,11.554-33.3,32.533-45.891,13.227-7.936,29.116-13.734,46.492-17.148l.115.1.122-.142A194.108,194.108,0,0,1,280,300c31.782,0,61.543,7.355,83.8,20.71,13.535,8.121,23.139,17.787,28.256,28.191a7.98,7.98,0,0,0,1.818,4.234,38.8,38.8,0,0,1,2.458,13.466c0,7-1.866,12.125-5.874,16.113A26.84,26.84,0,0,1,383.98,387.341ZM147.735,364H127.492a76.242,76.242,0,0,1,24.326-18.3A55.274,55.274,0,0,0,147.735,364ZM460.153,201.582l3.956,23.733a8,8,0,0,0,4.313,5.84l7.552,3.776-16.329,1.734-8.363-11.027-1.9-2.51ZM412.482,255.8l13.861,13.861,11.313-11.313-12.5-12.5,13.39-10.521,9.379,12.368a41.7,41.7,0,0,1-20.139,33.307,111.4,111.4,0,0,0-27.387-15.7ZM320,258.941a8.04,8.04,0,0,1-3.884,6.86l-14.847,8.908A33.424,33.424,0,0,1,280.4,248.417L320,225.786Zm-48-24.155V116H256V243.929l-42.464,24.265A131.3,131.3,0,0,0,200,263.988V76H184V260.994A130.423,130.423,0,0,0,168,260V60a8.009,8.009,0,0,1,8-8h40V188h16V52h24V92h16V52h8a8.009,8.009,0,0,1,8,8V225.643Z"/>
</svg>
