<svg xmlns="http://www.w3.org/2000/svg" style="display: none;">

<symbol id="i014_drink-1" xmlns="http://www.w3.org/2000/svg" viewBox="0 0 512 512">
  <path d="m267.3,440.41h-98.44c-.71,0-1.41-.12-2.08-.35-30.15-10.52-51.21-35.83-60.9-73.21-6.88-26.53-5.75-49.97-5.59-52.66v-123.52c0-13.6,11.06-24.66,24.66-24.66h186.24c13.6,0,24.66,11.06,24.66,24.66v123.52c.16,2.7,1.29,26.13-5.59,52.66-9.69,37.38-30.75,62.7-60.9,73.21-.67.23-1.37.35-2.08.35Zm-97.35-12.61h96.27c25.73-9.36,43.14-30.82,51.77-63.81,6.72-25.68,5.3-48.97,5.28-49.2,0-.14-.01-.28-.01-.41v-123.72c0-6.65-5.41-12.05-12.05-12.05H124.96c-6.65,0-12.05,5.41-12.05,12.05v123.72c0,.14,0,.28-.01.42-.01.23-1.44,23.52,5.28,49.2,8.63,32.99,26.05,54.45,51.77,63.81Z"></path>
  <path d="m166.7,390.37c-1.89,0-3.76-.85-5-2.46-28.96-37.7-26.35-92.06-26.08-96.56v-6.1c0-3.48,2.82-6.3,6.3-6.3s6.3,2.82,6.3,6.3v6.3c0,.14,0,.28-.01.42-.03.53-3.16,53.58,23.49,88.27,2.12,2.76,1.6,6.72-1.16,8.84-1.14.88-2.5,1.31-3.84,1.31Z"></path>
  <path d="m141.92,255.63c-3.48,0-6.3-2.82-6.3-6.3v-31.84c0-3.48,2.82-6.3,6.3-6.3s6.3,2.82,6.3,6.3v31.84c0,3.48-2.82,6.3-6.3,6.3Z"></path>
  <path d="m329.18,340.76c-3.48,0-6.3-2.82-6.3-6.3s2.82-6.3,6.3-6.3c26.67,0,46.5-11.42,58.95-33.95,9.05-16.37,10.93-33.13,11.13-35.18v-32.24c0-6.32-5.14-11.46-11.46-11.46h-58.24c-3.48,0-6.3-2.82-6.3-6.3s2.82-6.3,6.3-6.3h58.24c13.27,0,24.07,10.8,24.07,24.06v32.53c0,.16,0,.32-.02.48-.06.82-1.67,20.37-12.46,40.12-10.19,18.64-30.64,40.86-70.21,40.86Zm76.39-81.45h0,0Z"></path>
  <path d="m288.32,320.69h-70.24c-3.48,0-6.3-2.82-6.3-6.3v-59.6c0-1.85.81-3.61,2.23-4.81l35.12-29.8c2.35-2,5.8-2,8.16,0l35.12,29.8c1.41,1.2,2.23,2.96,2.23,4.81v59.6c0,3.48-2.82,6.3-6.3,6.3Zm-63.93-12.61h57.63v-50.37l-28.81-24.45-28.82,24.45v50.37Z"></path>
  <path d="m253.2,231.29c-3.48,0-6.3-2.82-6.3-6.3v-52.68c0-3.48,2.82-6.3,6.3-6.3s6.3,2.82,6.3,6.3v52.68c0,3.48-2.82,6.3-6.3,6.3Z"></path>
  <path d="m287.3,466h-140.47c-3.48,0-6.3-2.82-6.3-6.3s2.82-6.3,6.3-6.3h140.47c3.48,0,6.3,2.82,6.3,6.3s-2.82,6.3-6.3,6.3Z"></path>
  <path d="m148.44,143.22c-2.08,0-4.11-1.03-5.31-2.9-1.88-2.93-1.02-6.83,1.91-8.71,13.03-8.35,15.21-13.66,15.35-16.08.28-4.84-6.63-10.49-13.32-15.95-8.87-7.25-18.92-15.47-18.8-27.16.09-8.34,5.41-16.54,16.28-25.07,2.74-2.15,6.7-1.67,8.85,1.07s1.67,6.7-1.07,8.85c-7.45,5.84-11.41,11.12-11.46,15.27-.06,5.63,7.18,11.55,14.17,17.27,9.13,7.47,18.58,15.19,17.92,26.44-.51,8.81-7.22,17.06-21.13,25.97-1.05.67-2.23,1-3.39,1Z"></path>
  <path d="m215.89,143.22c-2.08,0-4.11-1.03-5.31-2.9-1.88-2.93-1.02-6.83,1.91-8.71,13.02-8.35,15.2-13.66,15.34-16.08.28-4.84-6.63-10.49-13.32-15.95-8.87-7.25-18.92-15.47-18.8-27.16.09-8.34,5.41-16.54,16.28-25.07,2.74-2.15,6.7-1.67,8.85,1.07s1.67,6.7-1.07,8.85c-7.45,5.84-11.41,11.12-11.46,15.27-.06,5.63,7.18,11.55,14.17,17.27,9.13,7.47,18.58,15.19,17.92,26.44-.51,8.81-7.22,17.06-21.13,25.97-1.05.67-2.23,1-3.4,1Z"></path>
  <path d="m283.34,143.22c-2.08,0-4.11-1.03-5.31-2.9-1.88-2.93-1.02-6.83,1.91-8.71,13.03-8.35,15.21-13.66,15.35-16.08.28-4.84-6.63-10.49-13.32-15.95-8.87-7.25-18.92-15.47-18.8-27.16.09-8.34,5.41-16.54,16.28-25.07,2.74-2.15,6.7-1.67,8.85,1.07s1.67,6.7-1.07,8.85c-7.45,5.84-11.41,11.12-11.46,15.27-.06,5.63,7.18,11.55,14.17,17.27,9.13,7.47,18.58,15.19,17.92,26.44-.51,8.81-7.22,17.06-21.13,25.97-1.05.67-2.23,1-3.39,1Z"></path>
</symbol><symbol id="i014_drink-10" xmlns="http://www.w3.org/2000/svg" viewBox="0 0 512 512">
  <path d="m351.75,417.52c-1.34,0-2.69-.43-3.84-1.31-2.76-2.12-3.28-6.08-1.16-8.84,31.48-40.98,27.78-103.53,27.74-104.16,0-.14-.01-.28-.01-.42v-7.38c0-3.48,2.82-6.3,6.3-6.3s6.3,2.82,6.3,6.3v7.18c.3,4.96,3.44,68.49-30.34,112.46-1.24,1.62-3.11,2.46-5,2.46Z"></path>
  <path d="m380.79,259.63c-3.48,0-6.3-2.82-6.3-6.3v-37.31c0-3.48,2.82-6.3,6.3-6.3s6.3,2.82,6.3,6.3v37.31c0,3.48-2.82,6.3-6.3,6.3Z"></path>
  <path d="m347.75,466h-115.35c-.71,0-1.41-.12-2.08-.35-34.86-12.16-59.27-38.02-70.59-74.78-8.06-26.16-6.8-48.85-6.59-51.73v-144.74c0-15.34,12.48-27.82,27.82-27.82h218.23c15.34,0,27.82,12.48,27.82,27.82v144.74c.2,2.88,1.46,25.57-6.59,51.73-11.32,36.76-35.73,62.62-70.59,74.78-.67.23-1.37.35-2.08.35Zm-114.27-12.61h113.19c30.68-11.02,51.4-33.17,61.58-65.85,7.83-25.16,6.19-47.45,6.17-47.67-.01-.16-.02-.34-.02-.5v-144.97c0-8.38-6.82-15.21-15.21-15.21h-218.23c-8.38,0-15.21,6.82-15.21,15.21v144.97c0,.17,0,.34-.02.51-.03.38-1.63,22.6,6.17,47.67,10.18,32.68,30.89,54.83,61.58,65.85Zm-74.03-114.02h0,0Z"></path>
  <path d="m159.9,369.2c-28.75,0-50.9-16.56-64.06-47.89-9.56-22.75-10.97-45.16-11.03-46.1,0-.12-.01-.25-.01-.37v-38.11c0-14.95,10-27.12,22.3-27.12h52.46c3.48,0,6.3,2.82,6.3,6.3s-2.82,6.3-6.3,6.3h-52.46c-5.25,0-9.69,6.64-9.69,14.51v37.9c.14,2,1.78,22.25,10.17,42.07,11.2,26.47,28.81,39.89,52.32,39.89,3.48,0,6.3,2.82,6.3,6.3s-2.82,6.3-6.3,6.3Z"></path>
  <path d="m171.71,179.19c-.31,0-.62-.02-.93-.07-3.45-.51-5.82-3.71-5.32-7.16,4.15-28.12,12.71-46.14,26.16-55.09,17.36-11.55,38.73-6.08,59.39-.8,5.19,1.33,8.01-.35,9.68-1.73,10.97-9.06,13.21-42.63,12.05-61.66-.14-2.23.92-4.37,2.78-5.62s4.24-1.42,6.25-.44c34.72,16.77,52.65,52.87,59.01,68.45,14.81-7.86,28.21-9.09,39.93-3.64,27.64,12.87,33.74,58.71,33.98,60.65.44,3.45-2.01,6.61-5.46,7.05-3.45.43-6.61-2.01-7.05-5.46h0c-.05-.41-5.47-40.9-26.81-50.81-9.26-4.3-20.85-2.03-34.45,6.75-1.65,1.07-3.7,1.3-5.55.64-1.85-.66-3.28-2.15-3.88-4.03-.14-.45-13.59-41.54-45.89-62.93-.06,17.32-2.31,48.71-16.89,60.77-5.78,4.78-12.99,6.24-20.84,4.23-17.99-4.6-36.59-9.36-49.28-.92-10.31,6.85-17.06,22.04-20.66,46.43-.46,3.13-3.16,5.38-6.23,5.39Z"></path>
</symbol><symbol id="i014_drink-11" xmlns="http://www.w3.org/2000/svg" viewBox="0 0 512 512">
  <path d="m329.62,133.61c-3.07,0-5.77-2.25-6.23-5.39-2.11-14.26-6.08-23.43-11.81-27.24-7.01-4.66-17.57-1.96-28.74.9-5.65,1.45-10.86.37-15.07-3.1-8.64-7.14-10.88-23.43-11.3-35.02-16.82,13.31-23.87,35-23.95,35.25-.59,1.87-2.03,3.36-3.88,4.03-1.85.66-3.9.43-5.55-.64-7.72-4.99-14.15-6.35-19.12-4.04-10.02,4.65-14.46,23.05-15.32,29.75-.45,3.45-3.6,5.89-7.05,5.45-3.45-.44-5.89-3.59-5.46-7.04.4-3.17,4.43-31.18,22.49-39.59,7.37-3.43,15.64-3.04,24.64,1.16,4.81-10.91,16.19-31.48,36.87-41.46,2.02-.97,4.4-.81,6.25.44,1.86,1.25,2.92,3.39,2.78,5.62-.73,12.22.84,31.58,6.64,36.37.77.64,1.78,1.15,3.91.61,12.73-3.26,27.17-6.95,38.85.82,8.96,5.96,14.62,17.7,17.31,35.9.51,3.45-1.87,6.65-5.32,7.16-.31.05-.62.07-.93.07Z"></path>
  <path d="m327.46,466h-142.92c-13.61,0-24.68-11.07-24.68-24.68s11.07-24.68,24.68-24.68h11.33l-34.31-288.59c-.21-1.79.35-3.58,1.55-4.93s2.91-2.12,4.71-2.12h176.36c1.8,0,3.52.77,4.71,2.12s1.76,3.14,1.55,4.93l-34.31,288.59h11.33c13.61,0,24.68,11.07,24.68,24.68s-11.07,24.68-24.68,24.68Zm-142.92-36.75c-6.66,0-12.07,5.41-12.07,12.07s5.41,12.07,12.07,12.07h142.92c6.66,0,12.07-5.41,12.07-12.07s-5.41-12.07-12.07-12.07h-18.43c-1.8,0-3.52-.77-4.71-2.12-1.2-1.35-1.76-3.14-1.55-4.93l34.31-288.59h-162.17l34.31,288.59c.21,1.79-.35,3.58-1.55,4.93s-2.91,2.12-4.71,2.12h-18.42Z"></path>
  <path d="m236.82,429.25h-39.16c-3.48,0-6.3-2.82-6.3-6.3s2.82-6.3,6.3-6.3h39.16c3.48,0,6.3,2.82,6.3,6.3s-2.82,6.3-6.3,6.3Z"></path>
  <path d="m336.47,198.45h-160.94c-3.48,0-6.3-2.82-6.3-6.3s2.82-6.3,6.3-6.3h160.94c3.48,0,6.3,2.82,6.3,6.3s-2.82,6.3-6.3,6.3Z"></path>
</symbol><symbol id="i014_drink-12" xmlns="http://www.w3.org/2000/svg" viewBox="0 0 512 512">
  <path d="m289.91,148.97c-1.16,0-2.34-.32-3.4-1-14.73-9.44-21.84-18.14-22.37-27.4-.68-11.8,9.32-19.98,18.99-27.89,7.55-6.17,15.36-12.56,15.29-18.78-.05-4.57-4.33-10.32-12.4-16.64-2.74-2.15-3.22-6.11-1.07-8.85,2.15-2.74,6.11-3.22,8.85-1.07,11.5,9.02,17.14,17.67,17.23,26.44.13,12.28-10.52,20.99-19.92,28.67-7.22,5.91-14.69,12.01-14.38,17.4.19,3.26,3.22,8.94,16.59,17.51,2.93,1.88,3.79,5.78,1.91,8.71-1.2,1.88-3.24,2.9-5.31,2.9Z"></path>
  <path d="m217.88,148.97c-1.16,0-2.34-.32-3.4-1-14.73-9.44-21.84-18.14-22.37-27.4-.68-11.8,9.32-19.98,18.99-27.89,7.55-6.17,15.36-12.56,15.29-18.78-.05-4.57-4.33-10.32-12.4-16.64-2.74-2.15-3.22-6.11-1.07-8.85,2.15-2.74,6.11-3.22,8.85-1.07,11.5,9.02,17.14,17.67,17.23,26.44.13,12.28-10.52,20.99-19.92,28.67-7.22,5.91-14.69,12.01-14.38,17.4.19,3.26,3.22,8.94,16.59,17.51,2.93,1.88,3.79,5.78,1.91,8.71-1.2,1.88-3.24,2.9-5.31,2.9Z"></path>
  <path d="m145.84,148.97c-1.16,0-2.34-.32-3.4-1-14.73-9.44-21.84-18.14-22.37-27.4-.68-11.8,9.32-19.98,18.99-27.89,7.55-6.17,15.36-12.56,15.29-18.78-.05-4.57-4.33-10.32-12.4-16.64-2.74-2.15-3.22-6.11-1.07-8.85,2.15-2.74,6.11-3.22,8.85-1.07,11.5,9.02,17.14,17.67,17.23,26.44.13,12.28-10.52,20.99-19.92,28.67-7.22,5.91-14.69,12.01-14.38,17.4.19,3.26,3.22,8.94,16.59,17.51,2.93,1.88,3.79,5.78,1.91,8.71-1.2,1.88-3.24,2.9-5.31,2.9Z"></path>
  <path d="m205.23,382.78c-12.96,0-24.45-4.47-32.9-12.92-20.36-20.36-16.03-57.83,9.65-83.52,25.69-25.69,63.16-30.02,83.52-9.65,20.36,20.36,16.03,57.83-9.65,83.52-12.23,12.23-27.49,20.07-42.95,22.07-2.6.34-5.16.5-7.66.5Zm27.24-106.43c-13.74,0-29.2,6.54-41.58,18.91-20.77,20.77-25.1,50.24-9.65,65.69,7.26,7.26,17.93,10.4,30.03,8.83,12.72-1.65,25.38-8.21,35.65-18.48,20.77-20.77,25.1-50.24,9.65-65.69-6.25-6.25-14.78-9.26-24.11-9.26Z"></path>
  <path d="m176.79,371.71c-2.35,0-4.61-1.33-5.7-3.59-1.5-3.14-.17-6.91,2.98-8.4,22.4-10.68,31.55-24.92,41.24-39.99,9.7-15.1,19.74-30.71,42.56-44.02,3.01-1.76,6.87-.74,8.62,2.27,1.75,3.01.74,6.87-2.27,8.62-20.2,11.78-29,25.46-38.3,39.94-10.22,15.9-20.78,32.33-46.42,44.56-.88.42-1.8.62-2.71.62Z"></path>
  <path d="m320.47,466H110.61c-9.08,0-16.47-7.39-16.47-16.47V189.81c0-5.11,4.16-9.27,9.27-9.27h224.27c5.11,0,9.27,4.16,9.27,9.27v259.72c0,9.08-7.39,16.47-16.47,16.47ZM106.75,193.15v256.37c0,2.13,1.73,3.86,3.86,3.86h209.86c2.13,0,3.86-1.73,3.86-3.86V193.15H106.75Z"></path>
  <path d="m330.64,369.3c-3.48,0-6.3-2.82-6.3-6.3s2.82-6.3,6.3-6.3c29.7,0,74.61-31.21,74.61-78.26,0-6.94-2.43-16.77-23.46-22.01-15.3-3.81-34.85-3.83-50.62-3.83h-.53c-3.48,0-6.3-2.82-6.3-6.3s2.82-6.3,6.3-6.3h.53c16.46,0,36.88.02,53.67,4.2,21.91,5.46,33.02,16.98,33.02,34.24,0,24.79-10.81,48.28-30.43,66.14-16.76,15.26-38.52,24.73-56.79,24.73Z"></path>
</symbol><symbol id="i014_drink-13" xmlns="http://www.w3.org/2000/svg" viewBox="0 0 512 512">
  <path d="m258.46,445.75h-90.93c-3.3,0-6.05-2.55-6.29-5.85l-21.54-295.91c-.13-1.75.48-3.47,1.67-4.75,1.19-1.28,2.87-2.01,4.62-2.01h179.59c1.75,0,3.42.73,4.62,2.01,1.19,1.28,1.8,3,1.67,4.75l-13.98,192.09c-.25,3.47-3.28,6.08-6.75,5.83-3.47-.25-6.08-3.27-5.83-6.75l13.49-185.33h-166.03l20.62,283.3h85.07c3.48,0,6.3,2.82,6.3,6.3s-2.82,6.3-6.3,6.3Z"></path>
  <path d="m319.55,232.76h-167.53c-3.48,0-6.3-2.82-6.3-6.3s2.82-6.3,6.3-6.3h167.53c3.48,0,6.3,2.82,6.3,6.3s-2.82,6.3-6.3,6.3Z"></path>
  <path d="m346.59,466c-5.42,0-10.97-1.92-16.26-5.76-25.38,10.72-54.87,5.12-74.53-14.54l-15.23-15.23c-2.46-2.46-2.46-6.45,0-8.92,2.46-2.46,6.45-2.46,8.92,0l15.23,15.23c16.8,16.8,42.42,21,63.74,10.45,2.31-1.15,5.09-.76,7.01.97,7.31,6.58,14.04,6.91,19.99.96,5.95-5.95,5.63-12.67-.96-19.99-1.73-1.92-2.11-4.7-.97-7.01,10.55-21.32,6.35-46.94-10.45-63.74l-15.23-15.23c-2.46-2.46-2.46-6.45,0-8.92,2.46-2.46,6.45-2.46,8.92,0l15.23,15.23c19.66,19.66,25.27,49.14,14.54,74.53,8.34,11.49,7.63,24.25-2.17,34.05-5.29,5.29-11.44,7.93-17.79,7.93Z"></path>
  <path d="m257.1,436.6c-6.69,0-12.38-1.98-16.53-6.12-13.82-13.82-3.56-44.92,23.86-72.34,27.42-27.42,58.52-37.68,72.34-23.86h0c13.82,13.82,3.56,44.92-23.86,72.34-19.2,19.2-40.2,29.98-55.81,29.98Zm63.17-95.9c-11,0-29.67,9.11-46.92,26.35-22.43,22.43-31.09,47.28-23.86,54.51,7.23,7.24,32.08-1.43,54.51-23.86,22.43-22.43,31.09-47.27,23.86-54.51-1.67-1.67-4.28-2.49-7.59-2.49Z"></path>
  <path d="m245.03,432.32c-1.61,0-3.23-.62-4.46-1.85-2.46-2.46-2.46-6.45,0-8.92l87.29-87.29c2.46-2.46,6.45-2.46,8.92,0,2.46,2.46,2.46,6.45,0,8.92l-87.29,87.29c-1.23,1.23-2.84,1.85-4.46,1.85Z"></path>
  <path d="m324.13,389.56c-.05,0-.11,0-.16,0l-70.91-1.77c-3.48-.09-6.23-2.98-6.15-6.46.09-3.48,3-6.2,6.46-6.15l70.91,1.77c3.48.09,6.23,2.98,6.15,6.46-.09,3.43-2.89,6.15-6.3,6.15Z"></path>
  <path d="m289.56,424.13c-3.41,0-6.21-2.72-6.3-6.15l-1.77-70.91c-.09-3.48,2.66-6.37,6.15-6.46.05,0,.11,0,.16,0,3.41,0,6.21,2.72,6.3,6.15l1.77,70.91c.09,3.48-2.66,6.37-6.15,6.46-.05,0-.11,0-.16,0Z"></path>
  <path d="m186.67,418.64c-.67,0-1.35-.11-2.02-.34-3.3-1.12-5.07-4.7-3.95-7.99l107.71-318.14c.49-1.44,1.48-2.65,2.79-3.42l71.63-41.89c3.01-1.76,6.87-.75,8.63,2.26,1.76,3.01.75,6.87-2.26,8.63l-69.59,40.7-106.95,315.91c-.89,2.63-3.34,4.29-5.97,4.29Z"></path>
</symbol><symbol id="i014_drink-14" xmlns="http://www.w3.org/2000/svg" viewBox="0 0 512 512">
  <path d="m247.08,341.65c-.59,0-1.18,0-1.78,0-33.32.36-57.14-8.96-70.77-27.66-20.5-28.13-11.5-68.53-4.3-90.11,15.38-46.13.01-110.73-.15-111.38-.46-1.88-.02-3.86,1.17-5.38,1.19-1.52,3.02-2.41,4.96-2.41h138.19c1.93,0,3.76.89,4.96,2.41,1.2,1.52,1.63,3.5,1.17,5.38-.16.65-15.52,65.25-.15,111.38,7.19,21.58,16.2,61.99-4.3,90.11-13.39,18.36-36.6,27.67-68.99,27.67Zm-1.78-12.62h.07c29.06.33,49.42-7.25,60.52-22.48,17.17-23.56,8.96-59.42,2.53-78.7h0c-13.41-40.24-5.61-91.24-1.82-110.55h-122.59c3.79,19.31,11.6,70.31-1.82,110.55-6.43,19.28-14.64,55.14,2.53,78.7,11.1,15.23,31.47,22.82,60.52,22.48h.07Z"></path>
  <path d="m245.3,466c-3.48,0-6.3-2.82-6.3-6.3v-124.36c0-3.48,2.82-6.3,6.3-6.3s6.3,2.82,6.3,6.3v124.36c0,3.48-2.82,6.3-6.3,6.3Z"></path>
  <path d="m305.72,466h-120.84c-3.48,0-6.3-2.82-6.3-6.3s2.82-6.3,6.3-6.3h120.84c3.48,0,6.3,2.82,6.3,6.3s-2.82,6.3-6.3,6.3Z"></path>
  <path d="m307.23,178.85h-123.87c-3.48,0-6.3-2.82-6.3-6.3s2.82-6.3,6.3-6.3h123.87c3.48,0,6.3,2.82,6.3,6.3s-2.82,6.3-6.3,6.3Z"></path>
  <path d="m347.89,151.27c-1.61,0-3.23-.62-4.46-1.85l-69.8-69.8c-2.46-2.46-2.46-6.45,0-8.92,21.7-21.7,57.01-21.7,78.71,0,10.51,10.51,16.3,24.49,16.3,39.36s-5.79,28.84-16.3,39.36c-1.23,1.23-2.85,1.85-4.46,1.85Zm-60.55-75.78l60.23,60.23c5.5-7.38,8.47-16.29,8.47-25.66,0-11.5-4.48-22.31-12.61-30.44-15.27-15.27-39.25-16.65-56.1-4.13Z"></path>
  <path d="m312.98,116.38c-2.92,0-5.54-2.04-6.16-5.01-.72-3.41,1.46-6.75,4.87-7.47l48.3-10.16c3.41-.72,6.75,1.46,7.47,4.87s-1.46,6.75-4.87,7.47l-48.3,10.16c-.44.09-.87.14-1.3.14Z"></path>
  <path d="m313,116.38c-.43,0-.87-.04-1.3-.14-3.41-.72-5.59-4.06-4.87-7.47l10.16-48.3c.72-3.41,4.06-5.59,7.47-4.87,3.41.72,5.59,4.06,4.87,7.47l-10.16,48.3c-.62,2.97-3.25,5.01-6.16,5.01Z"></path>
  <path d="m287.85,307.17c-2.44,0-4.75-1.42-5.79-3.8l-92.66-213.41-43.53-32.62c-2.79-2.09-3.35-6.04-1.27-8.83,2.09-2.79,6.04-3.35,8.83-1.27l44.87,33.62c.88.66,1.57,1.53,2,2.53l93.32,214.94c1.39,3.19-.08,6.91-3.27,8.29-.82.36-1.67.52-2.51.52Z"></path>
</symbol><symbol id="i014_drink-15" xmlns="http://www.w3.org/2000/svg" viewBox="0 0 512 512">
  <path d="m299.64,466h-87.27c-21.53,0-39.04-17.51-39.04-39.04v-11.56c0-5.39,2.12-10.29,5.56-13.91-3.45-3.63-5.56-8.53-5.56-13.91v-30.38c0-5.39,2.12-10.29,5.56-13.92-3.45-3.63-5.56-8.53-5.56-13.91v-30.38c0-5.39,2.12-10.29,5.56-13.91-3.45-3.63-5.56-8.53-5.56-13.91v-41.64c0-.49.04-.98.12-1.45-.08-.39-.12-.8-.12-1.21,0-21.03,7.42-83.21,40.41-92.83,5.7-1.66,9.25-4.27,10.55-7.75,2.27-6.09-1.91-14.68-3.71-17.48-.66-1.02-1.02-2.22-1.02-3.43v-11.57c0-3.48,2.82-6.3,6.3-6.3h60.26c3.48,0,6.3,2.82,6.3,6.3v11.57c0,1.23-.36,2.42-1.03,3.45-1.79,2.78-5.97,11.37-3.7,17.46,1.3,3.48,4.85,6.09,10.55,7.75,32.99,9.62,40.41,71.81,40.41,92.83,0,.41-.04.82-.12,1.21.08.47.12.95.12,1.45v41.64c0,5.39-2.12,10.29-5.56,13.91,3.45,3.63,5.56,8.53,5.56,13.91v30.38c0,5.39-2.12,10.29-5.56,13.91,3.45,3.63,5.56,8.53,5.56,13.92v30.38c0,5.39-2.12,10.29-5.56,13.91,3.45,3.63,5.56,8.53,5.56,13.91v11.56c0,21.53-17.51,39.04-39.04,39.04Zm-106.09-58.21c-4.2,0-7.61,3.41-7.61,7.61v11.56c0,14.57,11.86,26.43,26.43,26.43h87.27c14.57,0,26.43-11.86,26.43-26.43v-11.56c0-4.2-3.41-7.61-7.61-7.61-3.48,0-6.3-2.82-6.3-6.3s2.82-6.3,6.3-6.3c4.2,0,7.61-3.41,7.61-7.61v-30.38c0-4.2-3.41-7.61-7.61-7.61-3.48,0-6.3-2.82-6.3-6.3s2.82-6.3,6.3-6.3c4.2,0,7.61-3.41,7.61-7.61v-30.38c0-4.2-3.41-7.61-7.61-7.61-3.48,0-6.3-2.82-6.3-6.3s2.82-6.3,6.3-6.3c4.2,0,7.61-3.41,7.61-7.61v-39.15c-1.61-1.14-2.66-3.02-2.66-5.14s1-3.91,2.54-5.06c-1.17-25.5-10.77-69.71-31.21-75.67-9.76-2.85-16.11-8.07-18.86-15.51-4.05-10.96,1.45-22.58,3.95-27v-3.52h-47.65v3.52c2.5,4.42,8,16.04,3.95,27-2.75,7.45-9.1,12.67-18.86,15.51-20.44,5.96-30.04,50.17-31.21,75.67,1.54,1.15,2.54,2.99,2.54,5.06s-1.05,4-2.66,5.15v39.15c0,4.2,3.41,7.61,7.61,7.61,3.48,0,6.3,2.82,6.3,6.3s-2.82,6.3-6.3,6.3c-4.2,0-7.61,3.41-7.61,7.61v30.38c0,4.2,3.41,7.61,7.61,7.61,3.48,0,6.3,2.82,6.3,6.3s-2.82,6.3-6.3,6.3c-4.2,0-7.61,3.41-7.61,7.61v30.38c0,4.2,3.41,7.61,7.61,7.61,3.48,0,6.3,2.82,6.3,6.3s-2.82,6.3-6.3,6.3Z"></path>
  <path d="m237.35,349.58h-43.8c-3.48,0-6.3-2.82-6.3-6.3s2.82-6.3,6.3-6.3h43.8c3.48,0,6.3,2.82,6.3,6.3s-2.82,6.3-6.3,6.3Z"></path>
  <path d="m237.35,407.79h-43.8c-3.48,0-6.3-2.82-6.3-6.3s2.82-6.3,6.3-6.3h43.8c3.48,0,6.3,2.82,6.3,6.3s-2.82,6.3-6.3,6.3Z"></path>
  <path d="m329.71,233.16h-147.42c-3.48,0-6.3-2.82-6.3-6.3s2.82-6.3,6.3-6.3h147.42c3.48,0,6.3,2.82,6.3,6.3s-2.82,6.3-6.3,6.3Z"></path>
  <path d="m318.45,291.37h-124.91c-3.48,0-6.3-2.82-6.3-6.3s2.82-6.3,6.3-6.3h124.91c3.48,0,6.3,2.82,6.3,6.3s-2.82,6.3-6.3,6.3Z"></path>
  <path d="m318.45,349.58h-11.51c-3.48,0-6.3-2.82-6.3-6.3s2.82-6.3,6.3-6.3h11.51c3.48,0,6.3,2.82,6.3,6.3s-2.82,6.3-6.3,6.3Z"></path>
  <path d="m318.45,407.79h-11.51c-3.48,0-6.3-2.82-6.3-6.3s2.82-6.3,6.3-6.3h11.51c3.48,0,6.3,2.82,6.3,6.3s-2.82,6.3-6.3,6.3Z"></path>
  <path d="m293.86,100.1h-75.72c-3.48,0-6.3-2.82-6.3-6.3v-41.49c0-3.48,2.82-6.3,6.3-6.3h75.72c3.48,0,6.3,2.82,6.3,6.3v41.49c0,3.48-2.82,6.3-6.3,6.3Zm-69.41-12.61h63.11v-28.88h-63.11v28.88Z"></path>
</symbol><symbol id="i014_drink-16" xmlns="http://www.w3.org/2000/svg" viewBox="0 0 512 512">
  <path d="m295.34,355.45c-2.5,0-4.77-1.48-5.77-3.77l-95.91-218.16c-.86-1.95-.67-4.2.49-5.98s3.15-2.86,5.28-2.86h191.81c2.13,0,4.12,1.08,5.28,2.86s1.35,4.03.49,5.98l-95.91,218.16c-1.01,2.29-3.27,3.77-5.77,3.77Zm-86.25-218.16l86.25,196.18,86.25-196.18h-172.5Z"></path>
  <path d="m295.34,466c-3.48,0-6.3-2.82-6.3-6.3v-110.55c0-3.48,2.82-6.3,6.3-6.3s6.3,2.82,6.3,6.3v110.55c0,3.48-2.82,6.3-6.3,6.3Z"></path>
  <path d="m360.64,466h-130.6c-3.48,0-6.3-2.82-6.3-6.3s2.82-6.3,6.3-6.3h130.6c3.48,0,6.3,2.82,6.3,6.3s-2.82,6.3-6.3,6.3Z"></path>
  <path d="m334.36,201.38c-15.54,0-26.27-7.67-36.18-14.75-16.96-12.12-31.6-22.59-71.81,3.18-2.93,1.88-6.83,1.03-8.71-1.9-1.88-2.93-1.03-6.83,1.9-8.71,47.4-30.39,67.88-15.75,85.95-2.83,15.06,10.77,28.06,20.06,59.13,2.64,3.04-1.7,6.88-.62,8.58,2.41,1.7,3.04.62,6.88-2.41,8.58-14.78,8.29-26.59,11.38-36.45,11.38Z"></path>
  <path d="m199.44,190.36c-32.74,0-59.37-26.63-59.37-59.37s26.63-59.37,59.37-59.37,59.37,26.63,59.37,59.37c0,3.48-2.82,6.3-6.3,6.3s-6.3-2.82-6.3-6.3c0-25.78-20.98-46.76-46.76-46.76s-46.76,20.98-46.76,46.76,20.98,46.76,46.76,46.76c6.55,0,12.88-1.33,18.82-3.94,3.19-1.4,6.91.04,8.31,3.23,1.4,3.19-.04,6.91-3.23,8.31-7.55,3.32-15.59,5.01-23.9,5.01Z"></path>
  <path d="m199.44,215.99c-46.87,0-84.99-38.13-84.99-84.99s38.13-84.99,84.99-84.99,84.99,38.13,84.99,84.99c0,3.48-2.82,6.3-6.3,6.3s-6.3-2.82-6.3-6.3c0-39.91-32.47-72.38-72.38-72.38s-72.38,32.47-72.38,72.38,32.47,72.38,72.38,72.38c10.14,0,19.94-2.05,29.14-6.1,3.19-1.4,6.91.04,8.31,3.23,1.4,3.19-.04,6.91-3.23,8.31-10.81,4.76-22.32,7.17-34.22,7.17Z"></path>
  <path d="m199.44,190.36c-3.48,0-6.3-2.82-6.3-6.3v-106.13c0-3.48,2.82-6.3,6.3-6.3s6.3,2.82,6.3,6.3v106.13c0,3.48-2.82,6.3-6.3,6.3Z"></path>
  <path d="m199.44,137.3c-1.61,0-3.23-.62-4.46-1.85l-37.52-37.52c-2.46-2.46-2.46-6.45,0-8.92,2.46-2.46,6.45-2.46,8.92,0l37.52,37.52c2.46,2.46,2.46,6.45,0,8.92-1.23,1.23-2.85,1.85-4.46,1.85Z"></path>
  <path d="m161.92,174.82c-1.61,0-3.23-.62-4.46-1.85-2.46-2.46-2.46-6.45,0-8.92l75.04-75.04c2.46-2.46,6.45-2.46,8.92,0,2.46,2.46,2.46,6.45,0,8.92l-75.04,75.04c-1.23,1.23-2.85,1.85-4.46,1.85Z"></path>
  <path d="m252.5,137.3h-106.13c-3.48,0-6.3-2.82-6.3-6.3s2.82-6.3,6.3-6.3h106.13c3.48,0,6.3,2.82,6.3,6.3s-2.82,6.3-6.3,6.3Z"></path>
</symbol><symbol id="i014_drink-2" xmlns="http://www.w3.org/2000/svg" viewBox="0 0 512 512">
  <path d="m353.27,246.21c-.15,0-.31,0-.46-.02-3.47-.25-6.09-3.27-5.84-6.74l5.88-81.64h-193.72l5.88,81.63c.25,3.47-2.36,6.49-5.84,6.74-3.47.24-6.49-2.36-6.74-5.84l-6.37-88.39c-.13-1.75.48-3.47,1.67-4.75,1.19-1.28,2.86-2.01,4.62-2.01h207.27c1.75,0,3.42.73,4.62,2.01,1.19,1.28,1.8,3,1.67,4.75l-6.37,88.4c-.24,3.32-3.01,5.85-6.28,5.85Z"></path>
  <path d="m318.63,466h-125.27c-13.32,0-24.51-10.41-25.47-23.7l-5.88-68.77c-.3-3.47,2.28-6.52,5.75-6.82,3.47-.3,6.52,2.28,6.82,5.75l5.88,68.85c.49,6.81,6.15,12.08,12.89,12.08h125.27c6.74,0,12.4-5.27,12.89-11.99l5.89-68.94c.3-3.47,3.36-6.04,6.82-5.75,3.47.3,6.04,3.35,5.75,6.82l-5.88,68.85c-.95,13.2-12.14,23.61-25.46,23.61Z"></path>
  <path d="m343.69,379.3h-175.39c-8.63,0-15.7-7.68-16.47-17.87l-7.98-106.62c-.47-6.22,1.48-12.17,5.33-16.33,3.03-3.27,6.98-5.06,11.13-5.06h191.35c4.15,0,8.1,1.8,11.13,5.06,3.86,4.15,5.8,10.11,5.33,16.33l-7.98,106.62c-.76,10.18-7.84,17.87-16.47,17.87Zm-183.37-133.26c-.77,0-1.45.56-1.89,1.03-1.12,1.21-2.24,3.64-2,6.81l7.98,106.62c.27,3.65,2.27,6.2,3.89,6.2h175.39c1.62,0,3.62-2.55,3.89-6.2l7.98-106.62c.24-3.17-.88-5.6-2-6.81-.44-.47-1.12-1.03-1.89-1.03h-191.35Z"></path>
  <path d="m385.83,157.81H126.17c-4.84,0-8.78-3.94-8.78-8.78v-42.58c0-4.84,3.94-8.78,8.78-8.78h259.66c4.84,0,8.78,3.94,8.78,8.78v42.58c0,4.84-3.94,8.78-8.78,8.78Zm-255.83-12.61h252.01v-34.92h-252.01v34.92Zm255.83-34.92h0,0Z"></path>
  <path d="m246.71,348.75c-9.33,0-17.62-3.24-23.74-9.36-14.6-14.6-11.67-41.3,6.55-59.51,18.21-18.21,44.91-21.15,59.51-6.55,14.6,14.6,11.66,41.3-6.55,59.51-8.61,8.61-19.37,14.13-30.3,15.55-1.86.24-3.68.36-5.47.36Zm18.47-72.21c-8.78,0-18.74,4.25-26.75,12.26-13.3,13.3-16.23,31.99-6.55,41.68,4.47,4.47,11.1,6.39,18.67,5.41,8.18-1.06,16.35-5.31,23.01-11.96h0c13.3-13.3,16.23-31.99,6.55-41.68-3.85-3.85-9.13-5.71-14.93-5.71Z"></path>
  <path d="m227.43,341.24c-2.35,0-4.61-1.33-5.7-3.59-1.5-3.14-.17-6.91,2.98-8.4,14.67-7,20.44-15.98,27.13-26.39,6.4-9.95,13.65-21.24,29.55-30.51,3.01-1.75,6.87-.74,8.62,2.27,1.75,3.01.74,6.87-2.27,8.62-13.28,7.75-19.12,16.82-25.29,26.43-7.08,11.02-14.41,22.41-32.31,30.95-.88.42-1.8.62-2.71.62Z"></path>
  <path d="m359.63,110.28h-207.27c-3.48,0-6.3-2.82-6.3-6.3v-47.73c0-5.65,4.59-10.24,10.24-10.24h199.39c5.65,0,10.24,4.59,10.24,10.24v47.73c0,3.48-2.82,6.3-6.3,6.3Zm-200.96-12.61h194.66v-39.06h-194.66v39.06Zm197.03-39.06h0,0Z"></path>
</symbol><symbol id="i014_drink-3" xmlns="http://www.w3.org/2000/svg" viewBox="0 0 512 512">
  <path d="m308.62,466h-105.23c-11.9,0-21.71-9.29-22.37-21.17l-13.88-192.03c-.13-1.75.48-3.47,1.67-4.75,1.19-1.28,2.86-2.01,4.62-2.01h165.16c1.75,0,3.42.73,4.62,2.01,1.19,1.28,1.8,3,1.67,4.75l-13.88,192.03c-.66,11.87-10.47,21.17-22.37,21.17Zm-128.42-207.35l13.39,185.33s0,.08,0,.13c.27,5.21,4.57,9.28,9.78,9.28h105.23c5.21,0,9.51-4.08,9.78-9.28,0-.04,0-.08,0-.13l13.39-185.33h-151.6Z"></path>
  <path d="m207.24,349.79c-3.28,0-6.04-2.53-6.28-5.85l-1.64-22.73c-.25-3.47,2.36-6.49,5.83-6.74,3.47-.26,6.49,2.36,6.74,5.83l1.64,22.73c.25,3.47-2.36,6.49-5.83,6.74-.15.01-.31.02-.46.02Z"></path>
  <path d="m213.22,432.41c-3.28,0-6.04-2.53-6.28-5.85l-3.6-49.79c-.25-3.47,2.36-6.49,5.83-6.74,3.48-.26,6.49,2.36,6.74,5.83l3.6,49.79c.25,3.47-2.36,6.49-5.83,6.74-.15.01-.31.02-.46.02Z"></path>
  <path d="m354,258.65h-195.99c-5.6,0-10.15-4.55-10.15-10.15v-31.53c0-5.6,4.55-10.15,10.15-10.15h195.99c5.6,0,10.15,4.55,10.15,10.15v31.53c0,5.6-4.55,10.15-10.15,10.15Zm-193.54-12.61h191.08v-26.61h-191.08v26.61Zm193.54-26.61h0,0Z"></path>
  <path d="m334.58,219.43c-3.48,0-6.3-2.82-6.3-6.3,0-39.85-32.42-72.28-72.28-72.28s-72.28,32.42-72.28,72.28c0,3.48-2.82,6.3-6.3,6.3s-6.3-2.82-6.3-6.3c0-46.81,38.08-84.88,84.89-84.88s84.88,38.08,84.88,84.88c0,3.48-2.82,6.3-6.3,6.3Z"></path>
  <path d="m335.69,298.54h-159.39c-3.48,0-6.3-2.82-6.3-6.3s2.82-6.3,6.3-6.3h159.39c3.48,0,6.3,2.82,6.3,6.3s-2.82,6.3-6.3,6.3Z"></path>
  <path d="m256,436.64c-3.48,0-6.3-2.82-6.3-6.3v-177.99c0-3.48,2.82-6.3,6.3-6.3s6.3,2.82,6.3,6.3v177.99c0,3.48-2.82,6.3-6.3,6.3Z"></path>
  <path d="m256,140.85c-3.48,0-6.3-2.82-6.3-6.3v-46.58c0-1.96.91-3.81,2.46-5l46.4-35.65c2.76-2.12,6.72-1.6,8.84,1.16,2.12,2.76,1.6,6.72-1.16,8.84l-43.94,33.76v43.48c0,3.48-2.82,6.3-6.3,6.3Z"></path>
</symbol><symbol id="i014_drink-4" xmlns="http://www.w3.org/2000/svg" viewBox="0 0 512 512">
  <path d="m173.88,383.97c-1.89,0-3.76-.85-5-2.46-28.67-37.33-26.1-91.16-25.83-95.63v-6.04c0-3.48,2.82-6.3,6.3-6.3s6.3,2.82,6.3,6.3v6.23c0,.14,0,.28-.01.42-.03.52-3.12,53.02,23.24,87.33,2.12,2.76,1.6,6.72-1.16,8.84-1.14.88-2.5,1.31-3.84,1.31Z"></path>
  <path d="m149.34,250.58c-3.48,0-6.3-2.82-6.3-6.3v-31.52c0-3.48,2.82-6.3,6.3-6.3s6.3,2.82,6.3,6.3v31.52c0,3.48-2.82,6.3-6.3,6.3Z"></path>
  <path d="m274.71,424.93h-97.45c-.71,0-1.41-.12-2.08-.35-29.75-10.38-50.59-32.45-60.25-63.81-6.82-22.15-5.79-41.39-5.61-44.03v-122.25c0-13.5,10.98-24.48,24.48-24.48h184.37c13.5,0,24.48,10.98,24.48,24.48v122.25c.18,2.63,1.21,21.88-5.61,44.03-9.66,31.37-30.49,53.43-60.25,63.81-.67.23-1.37.35-2.08.35Zm-96.37-12.61h95.28c25.51-9.21,42.75-27.67,51.24-54.88,6.58-21.08,5.21-39.78,5.19-39.97-.01-.16-.02-.34-.02-.5v-122.48c0-6.54-5.32-11.87-11.87-11.87h-184.37c-6.54,0-11.87,5.32-11.87,11.87v122.48c0,.17,0,.34-.02.51-.01.18-1.38,18.88,5.19,39.96,8.49,27.21,25.73,45.67,51.24,54.88Z"></path>
  <path d="m335.96,343.15c-3.48,0-6.3-2.82-6.3-6.3s2.82-6.3,6.3-6.3c26.37,0,45.99-11.29,58.3-33.57,8.95-16.19,10.81-32.77,11.01-34.8v-31.92c0-6.22-5.06-11.28-11.28-11.28h-57.66c-3.48,0-6.3-2.82-6.3-6.3s2.82-6.3,6.3-6.3h57.66c13.17,0,23.89,10.72,23.89,23.89v32.2c0,.16,0,.32-.02.48-.06.81-1.65,20.18-12.35,39.74-10.09,18.47-30.35,40.48-69.56,40.48Zm75.62-80.7h0,0Z"></path>
  <path d="m319.92,466h-187.87c-.12,0-.25,0-.37-.01-28.89-1.7-37.2-31.63-37.56-47.22-.04-1.7.61-3.34,1.79-4.55,1.19-1.21,2.81-1.9,4.51-1.9h251.13c1.7,0,3.32.68,4.51,1.9,1.19,1.21,1.83,2.85,1.79,4.55-.36,15.59-8.67,45.52-37.56,47.22-.12,0-.25.01-.37.01Zm-187.68-12.61h187.48c17.84-1.16,23.22-18.67,24.83-28.46H107.4c1.61,9.79,6.99,27.3,24.84,28.46Z"></path>
  <path d="m226.15,143.11c-15.1,0-43.48-4.79-60.89-22.19-24.76-24.76-21.2-67.15-21.03-68.95.28-3.03,2.68-5.43,5.71-5.7,1.79-.16,44.19-3.73,68.95,21.03h0c23.03,23.04,21.55,61.33,21.1,68,.06.73,0,1.46-.2,2.18-.37,1.4-1.55,3.88-5.23,4.87-1.74.47-4.67.76-8.41.76Zm3.01-2.99h0s0,0,0,0Zm0,0h0s0,0,0,0Zm-72.56-81.49c-.03,11.34,1.74,37.54,17.58,53.38,15.69,15.69,42.88,18.62,53.36,18.47.13-10.8-1.31-37.99-17.57-54.26-15.9-15.89-42.04-17.65-53.36-17.59Z"></path>
  <path d="m233.63,141.97c-1.61,0-3.23-.62-4.46-1.85l-36.71-36.71c-2.46-2.46-2.46-6.45,0-8.92s6.45-2.46,8.92,0l36.71,36.71c2.46,2.46,2.46,6.45,0,8.92-1.23,1.23-2.84,1.85-4.46,1.85Z"></path>
  <path d="m233.52,142.69c-3.22,0-5.97-2.46-6.27-5.73-.32-3.47,2.23-6.54,5.7-6.86,8.85-.81,30.93-4.21,44.83-18.11,15.83-15.83,17.61-42.02,17.58-53.36-11.33-.03-37.53,1.74-53.36,17.58-4.1,4.1-7.56,9.22-10.28,15.22-1.44,3.17-5.18,4.57-8.35,3.14-3.17-1.44-4.57-5.18-3.14-8.35,3.35-7.38,7.67-13.74,12.85-18.92,24.76-24.76,67.15-21.19,68.95-21.03,3.03.28,5.43,2.68,5.71,5.71.16,1.79,3.73,44.19-21.03,68.95-16.81,16.81-42.38,20.81-52.59,21.75-.2.02-.39.03-.59.03Z"></path>
  <path d="m233.53,126.77c-1.61,0-3.23-.62-4.46-1.85-2.46-2.46-2.46-6.45,0-8.92l21.51-21.51c2.46-2.46,6.45-2.46,8.92,0s2.46,6.45,0,8.92l-21.51,21.51c-1.23,1.23-2.84,1.85-4.46,1.85Z"></path>
</symbol><symbol id="i014_drink-5" xmlns="http://www.w3.org/2000/svg" viewBox="0 0 512 512">
  <path d="m269.91,337.24c-1.73,0-3.49-.03-5.27-.08-38.28,1.17-66.26-10.34-83.12-34.23-18.35-26-22.97-65.53-13.75-117.49,6.75-38.04,18.51-68.24,19-69.51.95-2.41,3.28-4,5.87-4h143.98c2.59,0,4.92,1.59,5.87,4,.5,1.27,12.25,31.47,19,69.51,9.22,51.96,4.6,91.49-13.75,117.49-16.07,22.78-42.25,34.31-77.84,34.31Zm-5.27-12.69c.07,0,.13,0,.2,0,33.89,1.08,58.31-8.63,72.6-28.88,35.26-49.95,2.39-149.93-5.21-171.14h-135.2c-7.59,21.21-40.46,121.19-5.21,171.14,14.29,20.24,38.73,29.96,72.6,28.88.07,0,.13,0,.2,0Z"></path>
  <path d="m254.08,309.62c-.3,0-.6-.02-.9-.06-29.53-4.24-49.21-21.5-56.91-49.92-.91-3.36,1.08-6.82,4.44-7.73,3.36-.91,6.82,1.08,7.73,4.44,6.46,23.85,21.68,37.17,46.53,40.74,3.45.49,5.84,3.69,5.35,7.14-.45,3.14-3.15,5.41-6.23,5.41Z"></path>
  <path d="m198.8,229.38c-.06,0-.12,0-.18,0-3.48-.1-6.22-3-6.13-6.48.24-8.61,1.13-17.88,2.65-27.55.54-3.44,3.77-5.79,7.21-5.25,3.44.54,5.79,3.77,5.25,7.21-1.44,9.14-2.28,17.87-2.5,25.95-.09,3.42-2.9,6.13-6.3,6.13Z"></path>
  <path d="m264.64,466c-3.48,0-6.3-2.82-6.3-6.3v-128.84c0-3.48,2.82-6.3,6.3-6.3s6.3,2.82,6.3,6.3v128.84c0,3.48-2.82,6.3-6.3,6.3Z"></path>
  <path d="m322.12,466h-114.96c-3.48,0-6.3-2.82-6.3-6.3s2.82-6.3,6.3-6.3h114.96c3.48,0,6.3,2.82,6.3,6.3s-2.82,6.3-6.3,6.3Z"></path>
  <path d="m299.85,188.42c-20.37,0-32.85-6.21-44.42-11.97-17.55-8.74-32.72-16.28-76.18,1.37-3.22,1.31-6.9-.24-8.21-3.47-1.31-3.23.24-6.9,3.47-8.21,48.74-19.79,67.96-10.23,86.54-.98,18.07,8.99,36.75,18.29,89.29.64,3.3-1.11,6.88.67,7.98,3.97,1.11,3.3-.67,6.88-3.97,7.98-23.24,7.81-40.69,10.67-54.51,10.67Z"></path>
  <path d="m284.1,186.88c-2.33,0-4.57-1.3-5.67-3.54l-38.08-77.86-91.08-47.59c-3.09-1.61-4.28-5.42-2.67-8.51,1.61-3.09,5.42-4.28,8.51-2.67l92.92,48.55c1.19.62,2.15,1.61,2.74,2.82l38.99,79.71c1.53,3.13.23,6.9-2.89,8.43-.89.44-1.84.64-2.77.64Z"></path>
</symbol><symbol id="i014_drink-6" xmlns="http://www.w3.org/2000/svg" viewBox="0 0 512 512">
  <path d="m393.72,466h-194.85c-3.48,0-6.3-2.82-6.3-6.3v-255.04c0-3.48,2.82-6.3,6.3-6.3h197.91c3.48,0,6.3,2.82,6.3,6.3v251.98c0,5.17-4.2,9.37-9.37,9.37Zm-188.54-12.61h185.3v-242.43h-185.3v242.43Z"></path>
  <path d="m198.87,466h-80.59c-5.17,0-9.37-4.2-9.37-9.37v-251.98c0-3.48,2.82-6.3,6.3-6.3h83.65c3.48,0,6.3,2.82,6.3,6.3v255.04c0,3.48-2.82,6.3-6.3,6.3Zm-77.35-12.61h71.04v-242.43h-71.04v242.43Z"></path>
  <path d="m396.78,210.96h-197.91c-2.63,0-4.98-1.63-5.9-4.09l-35.14-93.86c-.73-1.94-.45-4.1.72-5.8,1.18-1.7,3.11-2.71,5.18-2.71h185.22c2.37,0,4.54,1.33,5.62,3.44l47.83,93.86c1,1.95.9,4.29-.24,6.16-1.15,1.87-3.18,3.01-5.38,3.01Zm-193.54-12.61h183.25l-41.41-81.25h-172.26l30.42,81.25Z"></path>
  <rect x="86.65" y="151.42" width="105.65" height="12.61" transform="translate(-64.68 209.2) rotate(-62.67)"></rect>
  <path d="m348.95,117.1h-185.22c-3.48,0-6.3-2.82-6.3-6.3v-29.53c0-19.45,15.82-35.27,35.27-35.27h127.3c19.45,0,35.27,15.82,35.27,35.27v29.53c0,3.48-2.82,6.3-6.3,6.3Zm-178.91-12.61h172.61v-23.22c0-12.49-10.16-22.66-22.66-22.66h-127.3c-12.49,0-22.66,10.16-22.66,22.66v23.22Z"></path>
  <path d="m157.04,466c-3.48,0-6.3-2.82-6.3-6.3v-94.37c0-3.48,2.82-6.3,6.3-6.3s6.3,2.82,6.3,6.3v94.37c0,3.48-2.82,6.3-6.3,6.3Z"></path>
  <path d="m198.87,384.16c-1.61,0-3.23-.62-4.46-1.85-2.46-2.46-2.46-6.45,0-8.92l173.2-173.2c2.46-2.46,6.46-2.46,8.92,0,2.46,2.46,2.46,6.45,0,8.92l-173.2,173.2c-1.23,1.23-2.85,1.85-4.46,1.85Z"></path>
  <path d="m219.95,466c-1.61,0-3.23-.62-4.46-1.85-2.46-2.46-2.46-6.45,0-8.92l176.84-176.84c2.46-2.46,6.46-2.46,8.92,0,2.46,2.46,2.46,6.45,0,8.92l-176.84,176.84c-1.23,1.23-2.85,1.85-4.46,1.85Z"></path>
</symbol><symbol id="i014_drink-8" xmlns="http://www.w3.org/2000/svg" viewBox="0 0 512 512">
  <path d="m256,466c-16.79,0-30.45-13.66-30.45-30.45,0-3.48,2.82-6.3,6.3-6.3s6.3,2.82,6.3,6.3c0,9.84,8,17.84,17.84,17.84s17.84-8,17.84-17.84c0-3.48,2.82-6.3,6.3-6.3s6.3,2.82,6.3,6.3c0,16.79-13.66,30.45-30.45,30.45Z"></path>
  <path d="m304.29,466c-16.79,0-30.45-13.66-30.45-30.45,0-3.48,2.82-6.3,6.3-6.3s6.3,2.82,6.3,6.3c0,9.84,8,17.84,17.84,17.84s17.84-8,17.84-17.84v-219.15c0-22.86-8.9-70.26-29.49-76.27-11.31-3.3-15.35-9.64-16.74-14.38-3.16-10.76,4.32-22.24,7.81-26.82v-2.45h-55.44v2.45c3.49,4.58,10.97,16.06,7.81,26.82-1.39,4.74-5.43,11.08-16.74,14.38-20.58,6-29.49,53.41-29.49,76.27v219.15c0,9.84,8,17.84,17.84,17.84s17.84-8,17.84-17.84c0-3.48,2.82-6.3,6.3-6.3s6.3,2.82,6.3,6.3c0,16.79-13.66,30.45-30.45,30.45s-30.45-13.66-30.45-30.45v-219.15c0-20.01,7.08-79.19,38.56-88.37,4.68-1.37,7.43-3.32,8.17-5.82,1.51-5.09-3.92-13.61-6.78-16.93-.99-1.14-1.54-2.62-1.54-4.13v-10.98c0-3.48,2.82-6.3,6.3-6.3h68.05c3.48,0,6.3,2.82,6.3,6.3v10.98c0,1.52-.55,2.99-1.55,4.14-2.85,3.31-8.28,11.82-6.77,16.92.74,2.5,3.49,4.45,8.17,5.82,31.48,9.18,38.56,68.36,38.56,88.37v219.15c0,16.79-13.66,30.45-30.45,30.45Z"></path>
  <path d="m290.02,96.48h-68.05c-3.48,0-6.3-2.82-6.3-6.3v-37.87c0-3.48,2.82-6.3,6.3-6.3h68.05c3.48,0,6.3,2.82,6.3,6.3v37.87c0,3.48-2.82,6.3-6.3,6.3Zm-61.75-12.61h55.44v-25.26h-55.44v25.26Z"></path>
  <path d="m328.44,339.75h-144.88c-3.48,0-6.3-2.82-6.3-6.3v-107.92c0-3.48,2.82-6.3,6.3-6.3h144.88c3.48,0,6.3,2.82,6.3,6.3v107.92c0,3.48-2.82,6.3-6.3,6.3Zm-138.58-12.61h132.27v-95.31h-132.27v95.31Z"></path>
</symbol><symbol id="i014_drink-7" xmlns="http://www.w3.org/2000/svg" viewBox="0 0 512 512">
  <path d="m301.12,466h-90.24c-25.43,0-46.12-20.69-46.12-46.12v-189.42c0-3.55.57-7.05,1.68-10.42l40.22-121.52c.85-2.58,3.27-4.32,5.99-4.32h86.7c2.72,0,5.13,1.74,5.99,4.32l40.22,121.52c1.11,3.37,1.68,6.87,1.68,10.42v189.42c0,25.43-20.69,46.12-46.12,46.12ZM217.2,106.81l-38.79,117.19c-.69,2.09-1.04,4.26-1.04,6.46v189.42c0,18.48,15.03,33.51,33.51,33.51h90.24c18.48,0,33.51-15.03,33.51-33.51v-189.42c0-2.2-.35-4.37-1.04-6.46l-38.79-117.19h-77.59Z"></path>
  <path d="m319.26,106.81h-126.53c-4.49,0-8.14-3.65-8.14-8.14v-44.54c0-4.49,3.65-8.14,8.14-8.14h126.53c4.49,0,8.14,3.65,8.14,8.14v44.54c0,4.49-3.65,8.14-8.14,8.14Zm-122.05-12.61h117.58v-35.59h-117.58v35.59Z"></path>
  <path d="m340.93,367.11h-169.86c-3.48,0-6.3-2.82-6.3-6.3v-119.17c0-3.48,2.82-6.3,6.3-6.3h169.86c3.48,0,6.3,2.82,6.3,6.3v119.17c0,3.48-2.82,6.3-6.3,6.3Zm-163.56-12.61h157.25v-106.56h-157.25v106.56Z"></path>
</symbol><symbol id="i014_drink-9" xmlns="http://www.w3.org/2000/svg" viewBox="0 0 512 512">
  <path d="m370.66,466h-229.32c-3.48,0-6.3-2.82-6.3-6.3v-33.64l-11.1-27.74c-.3-.74-.45-1.54-.45-2.34v-236.33c0-.8.15-1.6.45-2.34l11.1-27.74v-33.64c0-3.48,2.82-6.3,6.3-6.3h229.32c3.48,0,6.3,2.82,6.3,6.3v33.64l11.1,27.74c.3.75.45,1.54.45,2.34v236.33c0,.8-.15,1.6-.45,2.34l-11.1,27.74v33.64c0,3.48-2.82,6.3-6.3,6.3Zm-223.01-12.61h216.71v-28.55c0-.8.15-1.6.45-2.34l11.1-27.74v-233.9l-11.1-27.74c-.3-.75-.45-1.54-.45-2.34v-28.55h-216.71v28.55c0,.8-.15,1.6-.45,2.34l-11.1,27.74v233.9l11.1,27.74c.3.74.45,1.54.45,2.34v28.55Z"></path>
  <path d="m382.21,402.28h-252.41c-3.48,0-6.3-2.82-6.3-6.3v-236.33c0-3.48,2.82-6.3,6.3-6.3h252.41c3.48,0,6.3,2.82,6.3,6.3v236.33c0,3.48-2.82,6.3-6.3,6.3Zm-246.11-12.61h239.8v-223.72h-239.8v223.72Z"></path>
  <path d="m247.8,343.21c-.65,0-1.3-.1-1.95-.31-2.72-.88-4.51-3.49-4.35-6.35l2.71-47.78h-31.68c-2.34,0-4.48-1.29-5.57-3.36-1.09-2.07-.95-4.57.37-6.5l43.46-63.74c1.17-1.72,3.12-2.75,5.21-2.75h34.03c2.28,0,4.38,1.23,5.5,3.22,1.12,1.99,1.07,4.42-.11,6.37l-17.39,28.56,21.32-.4c2.29-.03,4.49,1.2,5.62,3.23,1.13,2.03,1.06,4.52-.2,6.48l-51.66,80.44c-1.18,1.84-3.2,2.9-5.31,2.9Zm-23.33-67.05h26.43c1.73,0,3.39.71,4.58,1.98,1.19,1.26,1.81,2.96,1.71,4.69l-1.73,30.5,32.32-50.33-20.99.4c-2.34.04-4.44-1.17-5.59-3.16-1.15-1.99-1.11-4.45.08-6.42l17.52-28.77h-19.47l-34.87,51.13Z"></path>
  <path d="m231.56,102.23c-1.46,0-2.93-.51-4.12-1.54l-50.42-43.62c-2.63-2.28-2.92-6.26-.64-8.89,2.28-2.63,6.26-2.92,8.89-.64l50.42,43.62c2.63,2.28,2.92,6.26.64,8.89-1.25,1.44-3,2.18-4.77,2.18Z"></path>
  <path d="m385.45,102.23H126.55c-3.48,0-6.3-2.82-6.3-6.3s2.82-6.3,6.3-6.3h258.91c3.48,0,6.3,2.82,6.3,6.3s-2.82,6.3-6.3,6.3Z"></path>
  <path d="m385.45,466H126.55c-3.48,0-6.3-2.82-6.3-6.3s2.82-6.3,6.3-6.3h258.91c3.48,0,6.3,2.82,6.3,6.3s-2.82,6.3-6.3,6.3Z"></path>
  <path d="m256,374.44c-53.28,0-96.63-43.35-96.63-96.63s43.35-96.63,96.63-96.63,96.63,43.35,96.63,96.63-43.35,96.63-96.63,96.63Zm0-180.65c-46.33,0-84.02,37.69-84.02,84.02s37.69,84.02,84.02,84.02,84.02-37.69,84.02-84.02-37.69-84.02-84.02-84.02Z"></path>
</symbol>
</svg>