<svg xmlns="http://www.w3.org/2000/svg" style="display: none;">

<symbol id="i021_app-1" xmlns="http://www.w3.org/2000/svg" viewBox="0 0 512 512">
  <g id="kebab">
    <path d="m117.1,183.7c-12.62,0-24.32-5.09-34.15-14.92-11.49-11.49-16.5-25.54-14.48-40.62,1.8-13.46,9.07-26.88,21.01-38.83,11.94-11.95,25.37-19.21,38.83-21.01,15.08-2.02,29.13,2.99,40.62,14.48s16.5,25.54,14.48,40.62c-1.8,13.46-9.07,26.88-21.01,38.83s-25.37,19.21-38.83,21.01c-2.18.29-4.33.44-6.46.44Zm17.67-102.31c-1.54,0-3.09.11-4.68.32-10.35,1.38-21.38,7.48-31.07,17.18s-15.79,20.73-17.18,31.07c-1.46,10.91,2.12,20.76,10.65,29.28h0c8.52,8.52,18.38,12.11,29.28,10.65,10.35-1.38,21.38-7.48,31.07-17.18s15.79-20.73,17.18-31.07c1.46-10.91-2.12-20.76-10.65-29.28-7.29-7.29-15.55-10.96-24.61-10.96Z"></path>
    <path d="m203.86,270.45c-12.62,0-24.32-5.09-34.15-14.92h0c-11.49-11.49-16.5-25.54-14.48-40.62,1.8-13.46,9.07-26.88,21.01-38.83,11.94-11.95,25.37-19.21,38.83-21.01,15.08-2.02,29.13,2.99,40.62,14.48,11.49,11.49,16.5,25.54,14.48,40.62-1.8,13.46-9.07,26.88-21.01,38.83-11.95,11.95-25.37,19.21-38.83,21.01-2.18.29-4.33.44-6.46.44Zm17.67-102.31c-1.54,0-3.09.11-4.68.32-10.35,1.38-21.38,7.48-31.07,17.18s-15.79,20.73-17.18,31.07c-1.46,10.91,2.12,20.76,10.65,29.28h0c8.52,8.52,18.37,12.11,29.28,10.65,10.35-1.38,21.38-7.48,31.07-17.18s15.79-20.73,17.18-31.07c1.46-10.91-2.12-20.76-10.65-29.28-7.29-7.29-15.55-10.96-24.61-10.96Z"></path>
    <path d="m290.42,357.41c-12.62,0-24.32-5.09-34.15-14.92-11.49-11.49-16.5-25.54-14.48-40.62,1.8-13.46,9.07-26.88,21.01-38.83,11.95-11.95,25.37-19.21,38.83-21.01,15.08-2.02,29.13,2.99,40.62,14.48s16.5,25.54,14.48,40.62c-1.8,13.46-9.07,26.88-21.01,38.83s-25.37,19.21-38.83,21.01c-2.18.29-4.33.44-6.46.44Zm17.67-102.31c-1.54,0-3.09.11-4.68.32-10.35,1.38-21.38,7.48-31.07,17.18s-15.79,20.73-17.18,31.07c-1.46,10.91,2.12,20.76,10.65,29.28h0c8.52,8.52,18.38,12.11,29.28,10.65,10.35-1.38,21.38-7.48,31.07-17.18s15.79-20.73,17.18-31.07c1.46-10.91-2.12-20.76-10.65-29.28-7.29-7.29-15.55-10.96-24.61-10.96Z"></path>
    <path d="m377.38,443.97c-12.62,0-24.32-5.09-34.15-14.92h0c-11.49-11.49-16.5-25.54-14.48-40.62,1.8-13.46,9.07-26.88,21.01-38.83s25.37-19.21,38.83-21.01c15.08-2.02,29.13,2.99,40.62,14.48s16.5,25.54,14.48,40.62c-1.8,13.46-9.07,26.88-21.01,38.83-11.94,11.95-25.37,19.21-38.83,21.01-2.18.29-4.33.44-6.46.44Zm17.67-102.31c-1.54,0-3.09.11-4.68.32-10.35,1.38-21.38,7.48-31.07,17.18s-15.79,20.73-17.18,31.07c-1.46,10.91,2.12,20.76,10.65,29.28h0c8.52,8.52,18.38,12.11,29.28,10.65,10.35-1.38,21.38-7.48,31.07-17.18s15.79-20.73,17.18-31.07c1.46-10.91-2.12-20.76-10.65-29.28-7.29-7.29-15.55-10.96-24.61-10.96Z"></path>
    <path d="m128.67,233.1c-5.96,0-11.93-2.27-16.47-6.81-9.08-9.08-9.08-23.85,0-32.93l80.91-80.91c4.4-4.4,10.25-6.82,16.47-6.82s12.07,2.42,16.47,6.82c4.4,4.4,6.82,10.25,6.82,16.47s-2.42,12.07-6.82,16.47l-80.91,80.91c-4.54,4.54-10.5,6.81-16.47,6.81Zm80.91-113.97c-2.61,0-5.07,1.02-6.92,2.87l-80.91,80.91c-3.82,3.82-3.82,10.03,0,13.84s10.02,3.82,13.84,0l80.91-80.91c1.85-1.85,2.87-4.31,2.87-6.92s-1.02-5.07-2.87-6.92-4.31-2.87-6.92-2.87Z"></path>
    <path d="m215.42,319.85c-5.96,0-11.93-2.27-16.47-6.81-9.08-9.08-9.08-23.85,0-32.93l80.91-80.91c4.4-4.4,10.25-6.82,16.47-6.82s12.07,2.42,16.47,6.82c4.4,4.4,6.82,10.25,6.82,16.47s-2.42,12.07-6.82,16.47l-80.91,80.91c-4.54,4.54-10.5,6.81-16.47,6.81Zm80.91-113.97c-2.61,0-5.07,1.02-6.92,2.87l-80.91,80.91c-3.82,3.82-3.82,10.03,0,13.84s10.02,3.82,13.84,0l80.91-80.91c1.85-1.85,2.87-4.31,2.87-6.92s-1.02-5.07-2.87-6.92-4.31-2.87-6.92-2.87Z"></path>
    <path d="m302.38,406.42c-6.22,0-12.07-2.42-16.47-6.82-4.4-4.4-6.82-10.25-6.82-16.47s2.42-12.07,6.82-16.47l80.9-80.91c9.08-9.08,23.85-9.08,32.93,0,9.08,9.08,9.08,23.85,0,32.93l-80.91,80.91c-4.4,4.4-10.25,6.82-16.47,6.82Zm-6.92-30.21c-1.85,1.85-2.87,4.31-2.87,6.92s1.02,5.07,2.87,6.92,4.31,2.87,6.92,2.87,5.07-1.02,6.92-2.87l80.91-80.91c3.82-3.82,3.82-10.03,0-13.84s-10.03-3.82-13.84,0l-80.9,80.91Z"></path>
    <path d="m94.25,100.85c-1.73,0-3.46-.66-4.78-1.99l-47.91-48.1c-2.63-2.64-2.62-6.92.02-9.55,2.64-2.63,6.92-2.62,9.55.02l47.91,48.1c2.63,2.64,2.62,6.92-.02,9.55-1.32,1.31-3.04,1.97-4.76,1.97Z"></path>
    <path d="m465.65,472.75c-1.73,0-3.46-.66-4.78-1.99l-47.91-48.1c-2.63-2.64-2.62-6.92.02-9.55,2.64-2.63,6.92-2.62,9.55.02l47.91,48.1c2.63,2.64,2.62,6.92-.02,9.55-1.32,1.31-3.04,1.97-4.76,1.97Z"></path>
  </g>
</symbol><symbol id="i021_app-10" xmlns="http://www.w3.org/2000/svg" viewBox="0 0 512 512">
  <g id="nuts_3">
    <path d="m241.89,423.46c-10.36,0-20.59-4.76-29.56-13.77-17.88-17.95-18.41-39.72-1.38-56.81h0c28.08-28.19,83.96-35.42,86.32-35.71,2-.26,4,.44,5.43,1.86,1.43,1.42,2.12,3.43,1.87,5.43-.29,2.37-7.5,58.44-35.57,86.62-8.08,8.11-17.45,12.39-27.11,12.39Zm48.25-91.87c-16.25,3.1-51.16,11.67-69.93,30.51h0c-16.02,16.08-6.01,30.94,1.38,38.36,4.51,4.53,11.69,9.93,20.3,9.93,6.19,0,12.2-2.87,17.84-8.54,18.79-18.86,27.32-53.94,30.41-70.25Zm-74.56,25.89h0,0Z"></path>
    <path d="m241.89,152.38c-10.36,0-20.59-4.76-29.56-13.77-17.88-17.95-18.41-39.72-1.38-56.81h0c28.08-28.19,83.96-35.42,86.32-35.71,2-.25,4,.44,5.43,1.86,1.43,1.42,2.12,3.43,1.87,5.43-.29,2.37-7.5,58.44-35.57,86.62-8.08,8.11-17.45,12.39-27.11,12.39Zm-21.68-61.36h0c-16.02,16.08-6.01,30.94,1.38,38.36,4.51,4.53,11.69,9.93,20.3,9.93,6.19,0,12.2-2.87,17.84-8.54,18.82-18.89,27.34-53.95,30.41-70.25-16.25,3.1-51.16,11.67-69.93,30.51Z"></path>
    <path d="m422.65,314.3c-9.66,0-19.03-4.28-27.11-12.39-28.07-28.18-35.28-84.25-35.57-86.62-.25-2,.44-4,1.87-5.43,1.43-1.42,3.42-2.12,5.43-1.86,2.37.29,58.24,7.53,86.32,35.71,17.03,17.1,16.5,38.87-1.38,56.81-8.98,9.01-19.2,13.77-29.56,13.77Zm-48.25-91.87c3.09,16.31,11.62,51.39,30.41,70.25,5.65,5.67,11.65,8.54,17.84,8.54,8.6,0,15.79-5.4,20.3-9.93,7.39-7.42,17.4-22.27,1.38-38.36h0c-18.77-18.84-53.67-27.4-69.93-30.51Z"></path>
    <path d="m123.13,464.7c-8.31,0-16.57-3.51-22.67-9.62-4.87-4.89-8.02-10.91-9.13-17.41-.01-.07-.02-.14-.03-.21-.06-.44-.11-.86-.21-1.32-.01-.06-.02-.12-.04-.18-.7-3.87-2.66-7.58-5.51-10.44-2.85-2.86-6.49-4.81-10.28-5.52-.17-.02-.34-.03-.51-.05l-.2-.02c-.26-.01-.5-.04-.76-.08-6.55-1.12-12.81-4.4-17.63-9.23-12.16-12.21-12.86-31.38-1.55-42.73h0c2.08-2.09,4.56-3.89,7.18-5.22.26-.13.53-.25.81-.34l4.48-1.56c.13-.04.26-.09.39-.12,20.48-5.71,45.18,2.12,62.93,19.94,17.74,17.81,25.54,42.58,19.86,63.11-.04.13-.08.26-.12.39l-1.55,4.5c-.09.28-.21.55-.34.81-1.32,2.63-3.12,5.12-5.2,7.2-5.22,5.24-12.29,8.12-19.92,8.12Zm-18.89-29.12c.66,3.73,2.6,7.38,5.48,10.27,3.66,3.67,8.54,5.77,13.4,5.77,4.12,0,7.91-1.52,10.66-4.28,1.02-1.02,1.91-2.22,2.59-3.5l1.33-3.84c4.34-16.04-2.14-35.73-16.57-50.21-14.41-14.47-34-20.98-49.96-16.62l-3.82,1.33c-1.26.68-2.46,1.58-3.47,2.6h0c-6.24,6.26-5.55,17.15,1.55,24.27,2.85,2.86,6.49,4.81,10.28,5.52.17.02.34.03.51.05l.2.02c.26.01.5.04.77.09,6.55,1.12,12.81,4.4,17.63,9.23,4.68,4.7,7.91,10.83,9.1,17.25.16.77.25,1.44.33,2.03Zm-45-63.09h0,0Z"></path>
    <path d="m241.46,283.74c-7.63,0-14.7-2.89-19.92-8.13-2.08-2.08-3.87-4.57-5.19-7.2-.13-.26-.24-.53-.34-.8l-1.55-4.5c-.04-.13-.08-.26-.12-.39-5.68-20.53,2.12-45.3,19.86-63.11,17.75-17.82,42.45-25.65,62.93-19.94.13.04.26.08.39.12l4.48,1.56c.28.1.55.21.81.34,2.62,1.33,5.1,3.13,7.18,5.22,11.31,11.35,10.62,30.52-1.55,42.73-4.82,4.84-11.08,8.12-17.63,9.23-.26.04-.52.07-.79.09l-.17.02c-.17.02-.35.04-.52.05-3.79.71-7.44,2.67-10.28,5.52-2.85,2.86-4.81,6.57-5.51,10.44-.01.06-.02.12-.04.18-.1.46-.15.89-.21,1.31,0,.07-.02.14-.03.21-1.1,6.5-4.26,12.52-9.13,17.41-6.09,6.11-14.35,9.62-22.66,9.62Zm-13.25-20.85c.68,1.27,1.58,2.47,2.59,3.49,2.75,2.76,6.53,4.28,10.66,4.28,4.86,0,9.74-2.1,13.4-5.77,2.88-2.89,4.83-6.54,5.48-10.27.08-.6.18-1.27.33-2.03,1.18-6.42,4.41-12.55,9.1-17.25,4.82-4.84,11.08-8.11,17.63-9.23.27-.05.54-.07.81-.09l.16-.02c.17-.02.34-.04.51-.05,3.8-.71,7.44-2.67,10.28-5.52,7.09-7.12,7.79-18.01,1.55-24.27h0c-1.02-1.02-2.21-1.91-3.47-2.6l-3.82-1.33c-15.97-4.35-35.55,2.16-49.96,16.62-14.42,14.48-20.91,34.16-16.57,50.21l1.33,3.84Zm61.49-30.46h0,0Z"></path>
    <path d="m116.8,155.92c-17.06,0-35.22-7.83-49.12-21.78-17.74-17.81-25.54-42.58-19.86-63.11.04-.13.08-.26.12-.39l1.55-4.5c.1-.28.21-.54.34-.8,1.32-2.63,3.12-5.12,5.19-7.2,5.22-5.24,12.29-8.12,19.92-8.12h0c8.31,0,16.57,3.51,22.67,9.62,4.87,4.89,8.02,10.91,9.13,17.41.01.07.02.14.03.21.06.43.11.85.21,1.32.01.06.02.12.04.18.7,3.87,2.66,7.58,5.51,10.44,2.84,2.86,6.49,4.81,10.28,5.52.18.02.35.03.52.05l.2.02c.26.01.5.04.76.08,6.55,1.12,12.81,4.4,17.63,9.23,12.16,12.21,12.86,31.38,1.55,42.73h0c-2.08,2.09-4.56,3.89-7.18,5.22-.26.13-.53.25-.81.34l-4.48,1.56c-.13.04-.26.09-.39.12-4.44,1.24-9.09,1.84-13.81,1.84Zm-56.42-81.22c-4.34,16.05,2.14,35.73,16.57,50.21,14.41,14.47,34,20.98,49.96,16.62l3.82-1.33c1.26-.69,2.46-1.58,3.47-2.6h0c6.24-6.26,5.55-17.15-1.55-24.27-2.85-2.86-6.49-4.81-10.28-5.52-.17-.02-.34-.03-.51-.05l-.2-.02c-.27-.01-.51-.04-.77-.09-6.55-1.12-12.81-4.4-17.63-9.23-4.69-4.7-7.91-10.83-9.1-17.25-.16-.77-.25-1.44-.33-2.03-.66-3.74-2.6-7.38-5.48-10.27-3.66-3.67-8.54-5.77-13.4-5.77-4.12,0-7.91,1.52-10.66,4.28-1.02,1.02-1.91,2.22-2.59,3.5l-1.33,3.84Zm78.46,67.52h0,0Z"></path>
    <path d="m377.94,412.61c-1.68,0-3.35-.64-4.63-1.92-13.04-13.09-19.2-31.53-16.08-48.14.5-2.64,2.56-4.71,5.19-5.21,16.79-3.22,34.74,2.81,48.03,16.14.01.01.07.07.08.09,2.53,2.58,2.49,6.72-.09,9.25-2.58,2.53-6.72,2.49-9.25-.09l-.05-.05c-8.78-8.81-20.54-13.6-31.61-13.05-.53,11.16,4.23,23,13.03,31.84,2.55,2.56,2.54,6.7-.02,9.25-1.28,1.27-2.95,1.91-4.61,1.91Z"></path>
    <path d="m419.06,465.97c-1.92,0-3.85-.13-5.82-.4-38.39-5.28-70.72-62.31-72.08-64.73-1.29-2.3-1.07-5.14.55-7.22,1.62-2.07,4.32-2.98,6.87-2.29l58.29,15.8-15.75-58.55c-.68-2.54.22-5.25,2.31-6.86,2.08-1.61,4.93-1.82,7.22-.53,2.41,1.36,59.18,33.78,64.48,72.27,1.91,13.84-2.85,26.59-14.12,37.91-9.67,9.71-20.39,14.6-31.94,14.6Zm-57.54-57.59c11.35,16.26,32.04,41.28,53.52,44.23,9.63,1.33,18.37-2.1,26.7-10.47,8.36-8.39,11.77-17.19,10.43-26.9-2.8-20.34-26.39-41.23-44.03-53.72l14.31,53.19c.61,2.26-.04,4.67-1.7,6.33-1.66,1.65-4.07,2.3-6.33,1.68l-52.92-14.34Z"></path>
    <path d="m97.98,286.65c-1.68,0-3.35-.64-4.63-1.92-13.04-13.09-19.2-31.53-16.08-48.14.5-2.64,2.56-4.71,5.19-5.21,16.79-3.22,34.74,2.81,48.03,16.14.01.01.07.07.08.09,2.53,2.58,2.49,6.72-.09,9.25-2.58,2.53-6.72,2.49-9.25-.09l-.05-.05c-8.78-8.81-20.53-13.6-31.61-13.05-.53,11.16,4.23,23,13.03,31.84,2.55,2.56,2.54,6.7-.02,9.25-1.28,1.27-2.95,1.91-4.61,1.91Z"></path>
    <path d="m139.1,340.02c-1.92,0-3.85-.13-5.82-.4-38.39-5.28-70.72-62.31-72.08-64.73-1.29-2.3-1.07-5.14.55-7.22,1.62-2.08,4.32-2.98,6.87-2.29l58.29,15.8-15.75-58.55c-.68-2.54.22-5.25,2.31-6.86,2.08-1.61,4.93-1.82,7.22-.53,2.41,1.36,59.18,33.78,64.48,72.27,1.91,13.84-2.85,26.59-14.12,37.91-9.67,9.71-20.39,14.6-31.94,14.6Zm-57.54-57.59c11.35,16.26,32.04,41.28,53.52,44.23,9.64,1.32,18.37-2.1,26.7-10.47,8.36-8.39,11.77-17.18,10.44-26.89-2.96-21.54-27.82-42.27-44.01-53.67l14.29,53.13c.61,2.26-.04,4.67-1.7,6.33-1.66,1.65-4.07,2.29-6.33,1.68l-52.92-14.34Z"></path>
    <path d="m427.92,118.3c-1.67,0-3.34-.64-4.61-1.91-2.56-2.55-2.57-6.69-.02-9.25,8.8-8.84,13.57-20.67,13.03-31.84-11.07-.53-22.83,4.24-31.65,13.09-2.54,2.55-6.69,2.59-9.25.06-2.56-2.53-2.62-6.63-.09-9.2l.05-.05c13.32-13.37,31.28-19.4,48.06-16.18,2.64.51,4.7,2.58,5.19,5.21,3.12,16.61-3.04,35.05-16.08,48.14-1.28,1.28-2.96,1.92-4.63,1.92Z"></path>
    <path d="m386.8,171.66c-11.55,0-22.28-4.89-31.94-14.6-11.28-11.32-16.03-24.08-14.12-37.91,5.3-38.49,62.06-70.91,64.48-72.27,2.29-1.29,5.14-1.08,7.22.53,2.08,1.61,2.99,4.32,2.31,6.86l-15.75,58.55,58.29-15.8c2.54-.69,5.25.21,6.87,2.29,1.62,2.08,1.84,4.92.55,7.22-1.36,2.43-33.69,59.46-72.08,64.73-1.96.27-3.9.4-5.82.4Zm10.89-104.38c-16.19,11.39-41.05,32.13-44.01,53.67-1.33,9.71,2.08,18.5,10.44,26.89,8.34,8.37,17.08,11.79,26.71,10.47,20.29-2.79,41.13-26.53,53.58-44.25l-52.99,14.36c-2.26.61-4.67-.03-6.33-1.68-1.66-1.65-2.3-4.07-1.7-6.33l14.29-53.13Z"></path>
    <path d="m229.88,109.52c-.73,0-1.47-.12-2.19-.38-3.4-1.21-5.18-4.95-3.97-8.35,6.66-18.74,29.53-25.22,30.5-25.48,3.48-.96,7.08,1.09,8.04,4.57.96,3.48-1.09,7.07-4.56,8.03-.3.09-17.31,5.03-21.66,17.25-.95,2.68-3.47,4.35-6.16,4.35Z"></path>
    <path d="m225.54,387.51c-.73,0-1.47-.12-2.19-.38-3.4-1.21-5.18-4.95-3.97-8.35,6.66-18.74,29.53-25.22,30.5-25.48,3.48-.95,7.08,1.09,8.04,4.57.96,3.48-1.09,7.07-4.56,8.03-.29.08-17.31,5.03-21.66,17.25-.95,2.68-3.47,4.35-6.16,4.35Z"></path>
    <path d="m438.99,278.34c-2.69,0-5.21-1.67-6.16-4.35-4.33-12.19-21.47-17.2-21.64-17.25-3.48-.96-5.53-4.55-4.57-8.04.96-3.48,4.55-5.53,8.04-4.57.97.27,23.85,6.74,30.5,25.48,1.21,3.4-.57,7.14-3.97,8.35-.72.26-1.46.38-2.19.38Z"></path>
    <path d="m100.61,133.6c-.54,0-1.09-.07-1.64-.21-19.91-5.15-32.86-30.15-33.4-31.21-1.64-3.22-.36-7.15,2.86-8.8,3.22-1.64,7.15-.36,8.79,2.85,2.97,5.78,13.25,21.45,25.03,24.49,3.5.9,5.6,4.47,4.69,7.97-.76,2.95-3.42,4.9-6.33,4.9Z"></path>
    <path d="m122.97,423.46c-2.38,0-4.67-1.3-5.83-3.56-2.97-5.79-13.25-21.45-25.03-24.5-3.5-.9-5.6-4.47-4.69-7.97.9-3.5,4.47-5.6,7.97-4.69,19.91,5.15,32.86,30.15,33.4,31.21,1.64,3.22.36,7.15-2.86,8.8-.95.48-1.97.71-2.96.71Z"></path>
    <path d="m237,241.39c-1,0-2.02-.23-2.97-.72-3.21-1.64-4.49-5.57-2.85-8.79.54-1.06,13.49-26.06,33.4-31.21,3.49-.9,7.06,1.2,7.97,4.69.9,3.5-1.2,7.06-4.69,7.97-11.77,3.05-22.06,18.72-25.03,24.5-1.16,2.26-3.45,3.56-5.83,3.56Z"></path>
  </g>
</symbol><symbol id="i021_app-11" xmlns="http://www.w3.org/2000/svg" viewBox="0 0 512 512">
  <g id="meal">
    <path d="m256,428.39c-100.55,0-182.36-77.33-182.36-172.39s81.8-172.39,182.36-172.39,182.36,77.33,182.36,172.39-81.8,172.39-182.36,172.39Zm0-331.7c-93.34,0-169.28,71.47-169.28,159.31s75.94,159.31,169.28,159.31,169.28-71.47,169.28-159.31-75.94-159.31-169.28-159.31Z"></path>
    <path d="m256,454.46c-56.02,0-108.71-20.6-148.36-58-39.75-37.5-61.64-87.38-61.64-140.47s21.89-102.97,61.64-140.47c39.65-37.4,92.33-58,148.36-58s108.71,20.6,148.36,58c39.75,37.5,61.64,87.38,61.64,140.47s-21.89,102.97-61.64,140.47c-39.65,37.4-92.33,58-148.36,58Zm0-383.85c-108.58,0-196.92,83.16-196.92,185.38s88.34,185.38,196.92,185.38,196.92-83.16,196.92-185.38-88.34-185.38-196.92-185.38Z"></path>
    <path d="m366.9,248.34c-11.39,0-20.65-8.9-20.65-19.85s9.26-19.85,20.65-19.85,20.65,8.9,20.65,19.85-9.26,19.85-20.65,19.85Zm0-26.62c-4.17,0-7.57,3.04-7.57,6.77s3.4,6.77,7.57,6.77,7.57-3.04,7.57-6.77-3.4-6.77-7.57-6.77Z"></path>
    <path d="m395.12,284.79c-11.39,0-20.65-8.9-20.65-19.85s9.26-19.85,20.65-19.85,20.65,8.9,20.65,19.85-9.26,19.85-20.65,19.85Zm0-26.62c-4.17,0-7.57,3.04-7.57,6.77s3.4,6.77,7.57,6.77,7.57-3.04,7.57-6.77-3.4-6.77-7.57-6.77Z"></path>
    <path d="m347.53,294.37c-11.39,0-20.65-8.9-20.65-19.85s9.26-19.85,20.65-19.85,20.65,8.9,20.65,19.85-9.26,19.85-20.65,19.85Zm0-26.62c-4.17,0-7.57,3.04-7.57,6.77s3.4,6.77,7.57,6.77,7.57-3.04,7.57-6.77-3.4-6.77-7.57-6.77Z"></path>
    <path d="m378.63,334.77c-11.39,0-20.65-8.9-20.65-19.85s9.26-19.85,20.65-19.85,20.65,8.9,20.65,19.85-9.26,19.85-20.65,19.85Zm0-26.62c-4.17,0-7.57,3.04-7.57,6.77s3.4,6.77,7.57,6.77,7.57-3.04,7.57-6.77-3.4-6.77-7.57-6.77Z"></path>
    <path d="m322.96,337.14c-11.39,0-20.65-8.9-20.65-19.85s9.26-19.85,20.65-19.85,20.65,8.91,20.65,19.85-9.26,19.85-20.65,19.85Zm0-26.62c-4.17,0-7.57,3.04-7.57,6.77s3.4,6.77,7.57,6.77,7.57-3.04,7.57-6.77-3.4-6.77-7.57-6.77Z"></path>
    <path d="m258.1,284.82c-14.69,0-28.78-5.4-39.48-15.5-14.24-13.43-19.84-33.36-14.61-52.02.63-2.26,2.43-4.01,4.72-4.58,19.72-4.92,40.02.19,54.3,13.66,14.24,13.43,19.84,33.36,14.61,52.02-.63,2.26-2.43,4.01-4.72,4.58-4.94,1.23-9.91,1.83-14.82,1.83Zm-42.37-60.2c-2.31,12.94,1.98,25.86,11.86,35.18,9.95,9.38,24.33,13.54,38.32,11.28,2.31-12.94-1.98-25.86-11.86-35.18-9.94-9.38-24.33-13.54-38.32-11.28Z"></path>
    <path d="m283.46,283.75c-3.58,0-7.21-.44-10.81-1.34-2.28-.57-4.08-2.32-4.72-4.58-3.84-13.72.27-28.37,10.73-38.23,10.45-9.86,25.28-13.6,39.69-10.01,2.28.57,4.08,2.32,4.72,4.58,3.84,13.71-.27,28.36-10.73,38.23-7.84,7.39-18.14,11.34-28.88,11.34Zm-3.71-13.31c8.69.99,17.46-1.74,23.61-7.54,6.03-5.69,8.84-13.44,7.89-21.32-8.69-1-17.46,1.74-23.61,7.54-6.03,5.69-8.84,13.44-7.89,21.32Z"></path>
    <path d="m344.03,177.94c-3.13,0-6.13-1.17-8.41-3.32l-4.7-4.43-3.64,3.43c-5.98,5.64-15.71,5.64-21.69,0-3.05-2.88-4.71-6.7-4.71-10.79s1.66-7.91,4.67-10.75l3.08-2.91-4.14-3.91c-2.74-2.58-4.05-6.18-3.6-9.87.46-3.73,2.63-6.95,5.96-8.82,13.61-7.66,30.95-5.62,42.17,4.96,11.49,10.84,13.68,27.62,5.34,40.81-1.92,3.04-5.12,5.05-8.76,5.51-.53.07-1.06.1-1.58.1Zm-29.1-40.82l7.73,7.29c1.31,1.24,2.05,2.96,2.05,4.76s-.74,3.52-2.05,4.76l-8.12,7.66c-.47.44-.57.92-.57,1.24s.1.8.57,1.24c1.02.96,2.8.96,3.78.04l8.12-7.66c2.52-2.38,6.46-2.38,8.98,0l8.46,7.98c4.29-7.68,2.79-17.15-3.81-23.38-6.65-6.28-16.75-7.78-25.13-3.92Z"></path>
    <path d="m284.88,207.77c-3.03,0-5.93-1.13-8.14-3.22l-4.07-3.84-3.08,2.9c-5.74,5.41-15.08,5.42-20.82,0-2.94-2.77-4.53-6.44-4.53-10.38,0-3.94,1.6-7.61,4.5-10.34l2.52-2.38-3.51-3.31h0c-2.65-2.5-3.92-5.99-3.49-9.58.44-3.62,2.55-6.74,5.78-8.55,12.85-7.23,29.22-5.31,39.81,4.69,10.86,10.24,12.93,26.11,5.05,38.58-1.86,2.95-4.95,4.89-8.48,5.34-.51.07-1.02.1-1.53.1Zm-26.31-38.34l6.71,6.33c1.31,1.24,2.05,2.96,2.05,4.76s-.74,3.52-2.05,4.76l-7.57,7.14c-.26.24-.39.52-.39.83s.13.59.39.83c.77.73,2.17.73,2.91.03l7.57-7.14c2.52-2.38,6.46-2.38,8.97,0l7.45,7.03c3.55-6.88,2.11-15.2-3.74-20.72-5.9-5.57-14.78-7.02-22.3-3.84Z"></path>
    <path d="m238.2,160.55c-.9,0-1.81-.11-2.71-.32-13.66-3.26-23.21-14.93-23.21-28.4s9.54-25.1,23.21-28.36c3.45-.82,7.02-.04,9.78,2.14,2.66,2.1,4.19,5.22,4.19,8.56v3.89h3.24c7.83,0,14.19,6.17,14.19,13.76s-6.37,13.8-14.19,13.8h-3.24v3.89c0,3.34-1.53,6.46-4.19,8.56-2.04,1.61-4.52,2.46-7.07,2.46Zm-1.82-43.71c-6.58,2.43-11.02,8.33-11.02,14.99s4.43,12.6,11.02,15.03v-7.77c0-3.61,2.93-6.54,6.54-6.54h9.78c.68,0,1.11-.45,1.11-.68,0-.28-.43-.72-1.11-.72h-9.78c-3.61,0-6.54-2.93-6.54-6.54v-7.77Z"></path>
    <path d="m175.19,295.36c-.37,0-.75-.03-1.14-.1-10.56-1.85-19.5-8.83-25.16-19.65,0,0,0-.01,0-.02-5.81-11.19-7.45-25.66-4.5-39.71,3.49-16.99,13.24-31.77,26.07-39.51,7.9-4.76,16.47-6.51,24.78-5.07,1.75.3,3.29,1.3,4.29,2.77s1.35,3.27.99,5.01l-6.51,31.18c-.72,3.47-4.08,5.73-7.56,5.1-1.74-.31-5.07,2.47-6.11,7.39-.68,3.28.06,5.91.98,7.26.47.69.98,1.09,1.53,1.19,1.74.31,3.28,1.31,4.27,2.78s1.34,3.27.98,5l-6.51,31.18c-.64,3.08-3.35,5.2-6.4,5.2Zm-14.7-25.81c2.52,4.81,5.9,8.45,9.81,10.66l3.94-18.89c-1.43-1.07-2.7-2.41-3.76-3.97-3.17-4.68-4.25-10.98-2.95-17.27,1.87-8.86,7.77-15.45,14.67-17.3l3.88-18.58c-2.98.5-5.98,1.63-8.88,3.38-9.76,5.88-17.24,17.46-20.01,30.96-2.34,11.17-1.14,22.46,3.3,31.01Z"></path>
    <path d="m154.69,279.11c-.74,0-1.49-.13-2.22-.39-10.5-3.79-18.61-12.76-22.85-25.28-.05-.15-.1-.31-.14-.46-3.26-9.9-3.73-21.02-1.37-32.2,1.74-8.38,5.02-16.34,9.49-23.03.21-.38.42-.73.64-1.07.82-1.39,1.8-2.67,2.97-3.92,3.38-4.2,7.26-7.75,11.52-10.54,8.36-5.48,17.44-7.56,26.25-6,1.74.31,3.28,1.31,4.27,2.77.99,1.46,1.35,3.27.99,5l-4.01,19.31c-.37,1.78-1.47,3.33-3.03,4.27-9.76,5.88-17.24,17.46-20.02,30.96-2.34,11.17-1.14,22.47,3.3,31.02,1.24,2.39.89,5.29-.88,7.32-1.27,1.45-3.07,2.23-4.92,2.23Zm-12.55-29.49c.26.76.55,1.5.85,2.21-.18-5.24.28-10.63,1.4-15.95,3.26-15.88,11.99-29.83,23.6-37.9l1.84-8.87c-3.32.56-6.67,1.93-9.92,4.06-3.18,2.08-6.1,4.78-8.66,8-.16.21-.34.4-.53.59-.5.54-.91,1.07-1.23,1.63-.02.04-.05.08-.07.12-.15.25-.31.5-.46.78-.1.19-.22.38-.34.56-3.61,5.34-6.27,11.78-7.69,18.63-1.89,8.94-1.5,18.07,1.09,25.74.05.14.09.27.12.41Z"></path>
    <path d="m135.82,257.84c-.97,0-1.94-.21-2.85-.65-17.31-8.39-26.19-32.15-21.12-56.5,2.79-13.49,9.39-25.54,18.58-33.91,9.71-8.85,21.17-12.64,32.29-10.67,1.74.31,3.29,1.31,4.28,2.78.99,1.47,1.35,3.27.98,5l-5.26,25.14c-.35,1.7-1.37,3.18-2.82,4.13-3.18,2.08-6.09,4.77-8.66,8-.16.21-.34.4-.53.59-.5.54-.91,1.07-1.23,1.63-.02.04-.05.08-.07.12-.15.25-.31.5-.46.78-.1.19-.22.38-.34.56-3.61,5.34-6.27,11.78-7.69,18.63-1.89,8.94-1.5,18.07,1.09,25.74.84,2.5.11,5.26-1.87,7-1.22,1.08-2.77,1.64-4.33,1.64Zm17.74-88.88c-12.93,2.1-25.09,16-28.9,34.39-2.17,10.4-1.27,20.53,2.05,28.45.16-3.64.64-7.32,1.42-11.01,1.74-8.38,5.02-16.34,9.49-23.03.21-.38.42-.73.64-1.07.82-1.39,1.8-2.67,2.97-3.92,2.77-3.44,5.86-6.44,9.23-8.94l3.11-14.86Z"></path>
    <path d="m307.25,395.93c-3.16,0-6.36-.85-9.26-2.62l-72.43-44.17-6.65-4.1c-4.92-2.99-8-8.38-8-14.06,0-.45,0-1.15.13-1.96.29-2.62,1.21-5.05,2.75-7.22,5.11-7.43,15.69-9.63,23.54-4.83l79.06,48.25c5.02,3.05,8.02,8.31,8.02,14.07,0,3.27-1.01,6.44-2.91,9.19-3.31,4.82-8.71,7.43-14.25,7.43Zm-83.26-65.04v.1c0,.89.46,2.12,1.74,2.9l6.66,4.1,72.41,44.15c1.98,1.21,4.69.72,5.93-1.08.5-.71.6-1.35.6-1.76,0-1.17-.63-2.23-1.74-2.9l-79.07-48.26c-1.99-1.21-4.73-.69-6,1.15-.32.45-.44.79-.48,1.24-.01.12-.03.23-.04.35Zm-.05.3s-.01.07-.02.11c0-.04.01-.07.02-.11Z"></path>
    <path d="m251.27,402.71c-4.96,0-9.88-2.09-13.32-6.13l-58.7-69.47c-2.5-2.87-3.92-6.62-3.92-10.47,0-5.11,2.5-10.03,6.68-13.14,7.45-5.54,17.94-4.4,23.89,2.59l16.62,19.63c1.22,1.44,1.75,3.32,1.48,5.18v.1c0,.89.46,2.12,1.74,2.9l6.66,4.1c.59.36,1.12.82,1.56,1.34l30.63,36.2c2.51,2.88,3.92,6.65,3.92,10.54,0,5.15-2.44,9.92-6.68,13.08-3.15,2.39-6.87,3.55-10.57,3.55Zm-58.68-89.62c-.97,0-1.96.29-2.77.9-.89.67-1.41,1.63-1.41,2.65,0,.4.1,1.19.76,1.96l58.75,69.52c1.44,1.7,4.23,1.97,6.06.59.96-.71,1.46-1.63,1.46-2.62,0-.76-.26-1.44-.77-2.03l-30.02-35.48-5.74-3.53c-4.53-2.76-7.5-7.56-7.94-12.73l-15.05-17.77c-.81-.95-2.06-1.45-3.34-1.45Zm31.36,18.09s-.01.07-.02.11c0-.04.01-.07.02-.11Z"></path>
    <path d="m202.21,403.73c-5.02,0-10-2.08-13.38-6.07l-58.74-69.44c-2.94-3.47-4.28-7.84-3.78-12.29.51-4.51,2.82-8.52,6.52-11.31,7.32-5.51,18.06-4.35,23.93,2.59l58.74,69.44c2.94,3.47,4.28,7.84,3.78,12.29-.51,4.51-2.82,8.52-6.52,11.31-3.11,2.34-6.84,3.48-10.55,3.48Zm-62.13-83.95l58.74,69.44c1.45,1.71,4.23,1.98,6.08.59.8-.6,1.29-1.42,1.39-2.32.07-.6-.01-1.5-.77-2.39l-58.74-69.44c-1.45-1.71-4.23-1.98-6.08-.59-.8.6-1.29,1.42-1.39,2.32-.07.6.01,1.5.77,2.39Z"></path>
    <path d="m271.34,283.18c-1.61,0-3.22-.59-4.49-1.78l-30.52-28.79c-2.63-2.48-2.75-6.62-.27-9.24,2.48-2.63,6.62-2.75,9.24-.27l30.52,28.79c2.63,2.48,2.75,6.62.27,9.24-1.29,1.36-3.02,2.05-4.76,2.05Z"></path>
  </g>
</symbol><symbol id="i021_app-2" xmlns="http://www.w3.org/2000/svg" viewBox="0 0 512 512">
  <g id="BBQ">
    <g>
      <path d="m311.24,135.31c-5.82,0-11.99-2.25-18.07-8.33-9.54-9.54-9.19-19.18-7.22-25.6,2.05-6.67,6.66-13.34,14.95-21.63s14.96-12.9,21.63-14.95c6.41-1.97,16.06-2.32,25.6,7.22,9.54,9.54,9.19,19.18,7.22,25.6-2.05,6.67-6.66,13.34-14.95,21.63-4.7,4.7-16.06,16.06-29.15,16.06Zm18.73-58.18c-4.43,0-10.4,3.05-19.53,12.17-16.56,16.56-13.1,22.76-7.73,28.13,5.38,5.37,11.57,8.83,28.13-7.73,16.56-16.56,13.1-22.76,7.73-28.13-2.41-2.41-5-4.44-8.6-4.44Z"></path>
      <path d="m245.17,213.84c-10.38,0-20.14-4.04-27.48-11.38-15.15-15.15-15.15-39.8,0-54.95,7.34-7.34,17.1-11.38,27.48-11.38s20.14,4.04,27.48,11.38c15.15,15.15,15.15,39.8,0,54.95-7.34,7.34-17.1,11.38-27.48,11.38Zm0-64.21c-6.77,0-13.14,2.64-17.93,7.43-9.89,9.89-9.89,25.97,0,35.86,4.79,4.79,11.16,7.43,17.93,7.43s13.14-2.64,17.93-7.43c9.89-9.89,9.89-25.97,0-35.86-4.79-4.79-11.16-7.43-17.93-7.43Z"></path>
      <path d="m180.64,282.42h-24.18c-9.75,0-17.68-7.93-17.68-17.68v-26.28c0-4.92,2.07-9.65,5.68-12.98s8.49-5.03,13.39-4.64l24.18,1.9c9.14.72,16.29,8.46,16.29,17.63v24.37c0,9.75-7.93,17.68-17.68,17.68Zm-24.19-48.14c-1.4,0-2.36.68-2.82,1.11-.5.46-1.34,1.48-1.34,3.07v26.28c0,2.31,1.88,4.18,4.18,4.18h24.18c2.31,0,4.18-1.88,4.18-4.18v-24.37c0-2.17-1.69-4-3.85-4.17l-24.18-1.9c-.12,0-.23-.01-.35-.01Z"></path>
      <path d="m290.58,181.32c-2.07,0-4.02-.81-5.48-2.27l-43.99-43.99c-3.02-3.02-3.02-7.94,0-10.96l28.66-28.66c1.46-1.46,3.41-2.27,5.48-2.27s4.02.81,5.48,2.27l43.99,43.99c1.46,1.46,2.27,3.41,2.27,5.48s-.81,4.02-2.27,5.48l-28.65,28.65c-1.46,1.46-3.41,2.27-5.48,2.27Zm4.07-11.81h.01-.01Zm-39.93-39.93l35.86,35.86,20.52-20.52-35.86-35.86-20.52,20.52Z"></path>
      <path d="m210.65,261.25c-2.07,0-4.02-.81-5.48-2.27l-43.99-43.99c-1.46-1.46-2.27-3.41-2.27-5.48s.81-4.02,2.27-5.48l33.1-33.1c1.46-1.46,3.41-2.27,5.48-2.27s4.02.81,5.48,2.27l43.99,43.99c1.46,1.46,2.27,3.41,2.27,5.48s-.81,4.02-2.27,5.48l-33.11,33.11c-1.46,1.46-3.41,2.27-5.48,2.27Zm4.07-11.82h.01-.01Zm-39.93-39.93l35.86,35.86,24.97-24.97-35.86-35.86-24.97,24.97Z"></path>
      <path d="m141.6,330.3c-2.07,0-4.02-.81-5.48-2.27l-43.99-43.99c-1.46-1.46-2.27-3.41-2.27-5.48s.81-4.02,2.27-5.48l27.91-27.91c1.46-1.46,3.41-2.27,5.48-2.27s4.02.81,5.48,2.27l43.99,43.99c1.46,1.46,2.27,3.41,2.27,5.48s-.81,4.02-2.27,5.48l-27.9,27.9c-1.46,1.46-3.41,2.27-5.48,2.27Zm4.07-11.82h.01-.01Zm-39.93-39.93l35.86,35.86,19.78-19.78-35.86-35.86-19.78,19.78Z"></path>
      <path d="m292.62,153.71c-1.73,0-3.46-.66-4.77-1.98l-11.69-11.69c-2.64-2.64-2.64-6.91,0-9.55,2.64-2.64,6.91-2.64,9.55,0l11.69,11.69c2.64,2.64,2.64,6.91,0,9.55-1.32,1.32-3.05,1.98-4.77,1.98Z"></path>
      <path d="m214.92,231.41c-1.73,0-3.46-.66-4.77-1.98l-19.42-19.42c-2.64-2.64-2.64-6.91,0-9.55s6.91-2.64,9.55,0l19.42,19.42c2.64,2.64,2.64,6.91,0,9.55-1.32,1.32-3.05,1.98-4.77,1.98Z"></path>
      <path d="m135.54,295.34c-1.73,0-3.46-.66-4.77-1.98l-11.69-11.69c-2.64-2.64-2.64-6.91,0-9.55s6.91-2.64,9.55,0l11.69,11.69c2.64,2.64,2.64,6.91,0,9.55-1.32,1.32-3.05,1.98-4.77,1.98Z"></path>
      <path d="m69.93,380.91c-8.19,0-15.9-3.19-21.69-8.99-11.96-11.96-11.96-31.42,0-43.39,5.79-5.79,13.5-8.99,21.69-8.99,5.9,0,11.54,1.65,16.4,4.74l27.8-27.79c2.64-2.64,6.91-2.64,9.55,0,2.64,2.64,2.64,6.91,0,9.55l-32.04,32.04c-2.64,2.64-6.91,2.64-9.55,0-3.24-3.24-7.56-5.03-12.15-5.03s-8.9,1.79-12.15,5.03c-6.7,6.7-6.7,17.6,0,24.29,6.7,6.7,17.6,6.7,24.29,0,2.64-2.64,6.91-2.64,9.55,0s2.64,6.91,0,9.55c-5.79,5.79-13.5,8.99-21.69,8.99Z"></path>
      <path d="m343.35,83.56c-1.73,0-3.46-.66-4.77-1.98-2.64-2.64-2.64-6.91,0-9.55l30.81-30.81c2.64-2.64,6.91-2.64,9.55,0s2.64,6.91,0,9.55l-30.81,30.81c-1.32,1.32-3.05,1.98-4.77,1.98Z"></path>
    </g>
    <g>
      <path d="m403.32,227.17c-5.48,0-11.92-1.95-18.31-8.34-19.75-19.75.93-40.43,7.73-47.22,8.29-8.29,14.96-12.9,21.63-14.95,6.41-1.97,16.06-2.32,25.6,7.22s9.19,19.18,7.22,25.6c-2.05,6.67-6.66,13.34-14.95,21.63s-14.96,12.9-21.63,14.95c-2.12.65-4.58,1.12-7.28,1.12Zm18.49-58.19c-4.43,0-10.4,3.05-19.53,12.17-16.56,16.56-13.1,22.76-7.73,28.13,5.38,5.38,11.57,8.83,28.13-7.73,16.56-16.56,13.1-22.76,7.73-28.13-2.41-2.41-5-4.44-8.6-4.44Z"></path>
      <path d="m337.01,305.67c-9.95,0-19.9-3.79-27.48-11.36s-11.38-17.1-11.38-27.48,4.04-20.14,11.38-27.48c15.15-15.15,39.8-15.15,54.95,0,7.34,7.34,11.38,17.1,11.38,27.48s-4.04,20.14-11.38,27.48h0s0,0,0,0c-7.58,7.58-17.53,11.36-27.48,11.36Zm0-64.18c-6.49,0-12.99,2.47-17.93,7.42-4.79,4.79-7.43,11.16-7.43,17.93s2.64,13.14,7.43,17.93c9.89,9.89,25.97,9.89,35.86,0h0c4.79-4.79,7.43-11.16,7.43-17.93s-2.64-13.14-7.43-17.93c-4.94-4.94-11.44-7.42-17.93-7.42Z"></path>
      <path d="m272.49,374.26h-24.18c-9.75,0-17.68-7.93-17.68-17.68v-26.28c0-4.92,2.07-9.65,5.68-12.98,3.61-3.34,8.48-5.03,13.39-4.64l24.18,1.9c9.14.72,16.29,8.46,16.29,17.63v24.37c0,9.75-7.93,17.68-17.68,17.68Zm-24.19-48.14c-1.4,0-2.36.68-2.82,1.11-.5.46-1.34,1.48-1.34,3.07v26.28c0,2.31,1.88,4.18,4.18,4.18h24.18c2.31,0,4.18-1.88,4.18-4.18v-24.37c0-2.17-1.69-4-3.85-4.17l-24.18-1.9c-.12,0-.23-.01-.35-.01Z"></path>
      <path d="m382.42,273.16c-1.98,0-3.97-.75-5.48-2.26h0s-43.99-44-43.99-44c-1.46-1.46-2.27-3.41-2.27-5.48s.81-4.02,2.27-5.48l28.66-28.66c1.46-1.46,3.41-2.27,5.48-2.27s4.02.81,5.48,2.27l43.99,43.99c1.46,1.46,2.27,3.41,2.27,5.48s-.81,4.02-2.27,5.48l-28.66,28.66c-1.51,1.51-3.5,2.27-5.48,2.27Zm-35.86-51.74l35.86,35.86,20.52-20.52-35.86-35.86-20.52,20.52Z"></path>
      <path d="m302.49,353.09c-2.07,0-4.02-.81-5.48-2.27l-43.99-43.99c-1.46-1.46-2.27-3.41-2.27-5.48s.81-4.02,2.27-5.48l33.11-33.11c1.46-1.46,3.41-2.27,5.48-2.27s4.02.81,5.48,2.27l43.99,43.99c1.46,1.46,2.27,3.41,2.27,5.48s-.81,4.02-2.27,5.48l-33.1,33.1c-1.46,1.46-3.41,2.27-5.48,2.27Zm4.07-11.82h.01-.01Zm-39.93-39.93l35.86,35.86,24.97-24.97-35.86-35.86-24.97,24.97Z"></path>
      <path d="m233.44,422.15c-2.07,0-4.02-.81-5.48-2.27l-43.99-43.99c-1.46-1.46-2.27-3.41-2.27-5.48s.81-4.02,2.27-5.48l27.9-27.9c1.46-1.46,3.41-2.27,5.48-2.27s4.02.81,5.48,2.27l43.99,43.99c1.46,1.46,2.27,3.41,2.27,5.48s-.81,4.02-2.27,5.48l-27.91,27.91c-1.46,1.46-3.41,2.27-5.48,2.27Zm4.07-11.82h.01-.01Zm-39.93-39.93l35.86,35.86,19.78-19.78-35.86-35.86-19.78,19.78Z"></path>
      <path d="m384.46,245.55c-1.73,0-3.46-.66-4.77-1.98l-11.69-11.69c-2.64-2.64-2.64-6.91,0-9.55s6.91-2.64,9.55,0l11.69,11.69c2.64,2.64,2.64,6.91,0,9.55-1.32,1.32-3.05,1.98-4.77,1.98Z"></path>
      <path d="m306.76,323.25c-1.73,0-3.46-.66-4.77-1.98l-19.42-19.42c-2.64-2.64-2.64-6.91,0-9.55s6.91-2.64,9.55,0l19.42,19.42c2.64,2.64,2.64,6.91,0,9.55-1.32,1.32-3.05,1.98-4.77,1.98Z"></path>
      <path d="m227.38,387.18c-1.73,0-3.46-.66-4.77-1.98l-11.69-11.69c-2.64-2.64-2.64-6.91,0-9.55s6.91-2.64,9.55,0l11.69,11.69c2.64,2.64,2.64,6.91,0,9.55-1.32,1.32-3.05,1.98-4.77,1.98Z"></path>
      <path d="m161.77,472.74c-7.86,0-15.71-2.99-21.69-8.97-5.79-5.79-8.99-13.5-8.99-21.69s3.19-15.9,8.99-21.69,13.5-8.99,21.69-8.99c5.9,0,11.54,1.65,16.4,4.74l27.8-27.8c2.64-2.64,6.91-2.64,9.55,0,2.64,2.64,2.64,6.91,0,9.55l-32.04,32.04c-1.27,1.27-2.98,1.98-4.77,1.98s-3.51-.71-4.77-1.98c-3.24-3.24-7.56-5.03-12.15-5.03s-8.9,1.79-12.15,5.03c-6.7,6.7-6.7,17.6,0,24.29,6.7,6.7,17.6,6.7,24.29,0,2.64-2.64,6.91-2.64,9.55,0s2.64,6.91,0,9.55c-5.98,5.98-13.84,8.97-21.69,8.97Z"></path>
      <path d="m435.19,175.4c-1.73,0-3.46-.66-4.77-1.98-2.64-2.64-2.64-6.91,0-9.55l30.81-30.81c2.64-2.64,6.91-2.64,9.55,0s2.64,6.91,0,9.55l-30.81,30.81c-1.32,1.32-3.05,1.98-4.77,1.98Z"></path>
    </g>
  </g>
</symbol><symbol id="i021_app-3" xmlns="http://www.w3.org/2000/svg" viewBox="0 0 512 512">
  <g id="cheese">
    <g id="chees">
      <path d="m466,436.47H46c-3.73,0-6.75-3.02-6.75-6.75v-198.09c0-3.73,3.02-6.75,6.75-6.75h420c3.73,0,6.75,3.02,6.75,6.75v103.79c0,3.73-3.02,6.75-6.75,6.75-14.01,0-25.42,10.66-25.42,23.77s11.4,23.77,25.42,23.77c3.73,0,6.75,3.02,6.75,6.75v33.26c0,3.73-3.02,6.75-6.75,6.75Zm-413.25-13.5h406.5v-20.33c-18.25-3.07-32.17-18.36-32.17-36.71s13.91-33.64,32.17-36.71v-90.85H52.75v184.59Z"></path>
      <path d="m465.99,238.36c-1.02,0-2.05-.23-3.02-.72L166.49,89.03c-39.6.31-70.65,23.92-92.33,70.2-16.87,36.02-21.38,72.8-21.43,73.17-.44,3.7-3.79,6.35-7.5,5.91-3.7-.44-6.35-3.79-5.91-7.49.19-1.58,4.75-39.04,22.47-77.02,24.05-51.54,60.78-78.62,106.34-78.28,1.03,0,2.05.25,2.98.72l297.9,149.33c3.33,1.67,4.68,5.73,3.01,9.06-1.18,2.36-3.57,3.73-6.04,3.73Z"></path>
      <path d="m345.53,388.23c-33.26,0-60.31-25.83-60.31-57.57s27.06-57.57,60.31-57.57,60.31,25.83,60.31,57.57-27.06,57.57-60.31,57.57Zm0-101.65c-25.81,0-46.81,19.77-46.81,44.07s21,44.07,46.81,44.07,46.81-19.77,46.81-44.07-21-44.07-46.81-44.07Z"></path>
      <path d="m233.73,328.87c-16.01,0-29.03-12.51-29.03-27.89s13.02-27.89,29.03-27.89,29.03,12.51,29.03,27.89-13.02,27.89-29.03,27.89Zm0-42.29c-8.56,0-15.53,6.46-15.53,14.39s6.97,14.39,15.53,14.39,15.53-6.46,15.53-14.39-6.97-14.39-15.53-14.39Z"></path>
      <path d="m145.96,436.47H46c-3.73,0-6.75-3.02-6.75-6.75v-100.76c0-2.55,1.44-4.89,3.72-6.03,11.97-6.02,24.89-9.07,38.39-9.07,45.41,0,82.36,35.22,82.36,78.5,0,14.57-4.18,28.75-12.1,41.01-1.24,1.93-3.38,3.09-5.67,3.09Zm-93.21-13.5h89.41c5.29-9.33,8.07-19.84,8.07-30.6,0-35.84-30.89-65-68.86-65-9.99,0-19.6,1.98-28.61,5.89v89.72Z"></path>
      <path d="m132.49,286.58c-30.97,0-58.14-25.68-58.14-54.95,0-3.73,3.02-6.75,6.75-6.75s6.75,3.02,6.75,6.75c0,22.08,20.86,41.45,44.64,41.45s44.64-19.37,44.64-41.45c0-3.73,3.02-6.75,6.75-6.75s6.75,3.02,6.75,6.75c0,29.27-27.17,54.95-58.14,54.95Z"></path>
      <path d="m466,403.21c-21.46,0-38.92-16.72-38.92-37.27s17.46-37.27,38.92-37.27c3.73,0,6.75,3.02,6.75,6.75s-3.02,6.75-6.75,6.75c-14.01,0-25.42,10.66-25.42,23.77s11.4,23.77,25.42,23.77c3.73,0,6.75,3.02,6.75,6.75s-3.02,6.75-6.75,6.75Z"></path>
    </g>
    <path d="m299.78,189.38c-.9,0-1.81-.18-2.68-.56l-135.17-58.66c-3.42-1.48-4.99-5.46-3.5-8.88,1.48-3.42,5.46-4.99,8.88-3.5l135.17,58.66c3.42,1.48,4.99,5.46,3.5,8.88-1.1,2.54-3.59,4.06-6.2,4.06Z"></path>
  </g>
</symbol><symbol id="i021_app-4" xmlns="http://www.w3.org/2000/svg" viewBox="0 0 512 512">
  <g id="chili_pepper" data-name="chili pepper">
    <path d="m46,459.95c-2.6,0-5.02-1.51-6.13-3.93-1.26-2.74-.55-5.98,1.74-7.94,114.91-98.46,155.94-174.42,191.06-249.95,10.63-22.87,23.08-41.43,37-55.17,17.91-17.67,45.49-25.46,72-20.34,21.17,4.09,39.96,10.61,55.84,19.37,21.97,12.12,37.59,31.66,43.96,55.01,6.27,22.97,2.94,47.1-9.38,67.94-20.29,34.33-53.31,65.95-98.15,93.99-35.55,22.23-78.62,42.31-128.01,59.68-83.88,29.49-158.17,41.15-158.91,41.26-.35.05-.69.08-1.03.08ZM325.38,134.55c-17.58,0-34.49,6.42-46.23,18.01-12.77,12.6-24.29,29.84-34.24,51.25-33.81,72.74-73.01,145.85-176.03,238.31,28.31-5.7,78.51-17.22,132.79-36.32,75.74-26.65,175.18-73.92,218.81-147.73,10.44-17.67,13.28-38.1,7.98-57.52-5.41-19.81-18.71-36.41-37.46-46.75-14.65-8.08-32.1-14.11-51.89-17.94-4.57-.88-9.17-1.31-13.72-1.31Z"></path>
    <path d="m383.03,149.07c-.88,0-1.76-.17-2.62-.53-3.43-1.45-5.04-5.41-3.59-8.84,1.58-3.74,39.21-91.47,89.72-87.51,3.72.29,6.49,3.54,6.2,7.26-.29,3.72-3.54,6.49-7.26,6.2-33.92-2.66-66.53,56.34-76.22,79.31-1.09,2.58-3.59,4.13-6.22,4.13Z"></path>
    <path d="m276.17,347.95c-2.37,0-4.67-1.25-5.91-3.47-1.81-3.26-.64-7.37,2.62-9.18,52.3-29.05,95.99-81.64,96.43-82.17,2.37-2.88,6.63-3.29,9.5-.92,2.88,2.37,3.29,6.62.92,9.5-1.84,2.23-45.7,55.06-100.29,85.38-1.04.58-2.16.85-3.27.85Z"></path>
    <path d="m357.4,208.61c-1.19,0-2.38-.31-3.43-.94-1.92-1.14-3.16-3.15-3.3-5.38l-1.74-27.01-43.28,1.61c-2.69.11-5.16-1.4-6.33-3.81-1.17-2.41-.79-5.29.95-7.32l35-40.92c2.42-2.83,6.68-3.17,9.52-.74,2.83,2.42,3.17,6.68.74,9.52l-24.99,29.21,34.45-1.28c3.65-.15,6.75,2.66,6.99,6.31l1.53,23.68,22.12-10.39c1.01-.48,2.13-.69,3.25-.63l43.4,2.45c3.72.21,6.57,3.4,6.36,7.12-.21,3.72-3.39,6.57-7.12,6.36l-41.7-2.35-29.54,13.87c-.91.43-1.89.64-2.87.64Z"></path>
  </g>
</symbol><symbol id="i021_app-5" xmlns="http://www.w3.org/2000/svg" viewBox="0 0 512 512">
  <path d="m440.86,313.3s-.02-.01-.03-.02c-.01-.01-.02-.03-.03-.05l-4.68-4.95c-8.81-8.79-20.92-13.11-33.44-12.33l-16.55-36.82c-.45-1.01-1.08-1.92-1.86-2.7-8.78-8.77-20.85-13.09-33.34-12.34l-15.37-35.47c-.46-1.05-1.11-2-1.91-2.81-8.79-8.79-20.9-13.13-33.43-12.34l-16.35-36.59c-.45-1.01-1.09-1.93-1.87-2.71-8.79-8.79-20.9-13.11-33.42-12.33l-16.35-36.59c-.45-1.01-1.09-1.93-1.87-2.72-9.42-9.43-22.66-13.76-36.13-12.12-41.45-37.32-78.41-50.96-107.14-39.29-18.01,7.31-34.22,29.41-39.43,53.73-3.95,18.41-.8,34.42,8.87,45.24.28.39.58.75.92,1.09l303.47,303.47c.35.35.72.66,1.12.94,6.92,6.16,15.83,9.35,25.85,9.35,3.54,0,7.23-.4,11.01-1.21,23.34-5.01,47.28-24.4,55.7-45.11,12.37-30.42,22.52-66.15-13.74-105.33Zm-3.07,98.49c-6.04,14.87-25.59,30.54-42.68,34.2-9.16,1.95-16.38.48-21.47-4.39-.21-.2-.43-.39-.66-.58L71.13,139.2c-.19-.24-.39-.48-.61-.71-5.97-6.26-7.84-17.14-5.12-29.84,3.9-18.2,16.16-35.71,28.53-40.73,23.84-9.71,53.72,7.32,78.08,27.28l-30.03,6.9c-4.88,1.12-7.94,5.99-6.81,10.87,1.12,4.89,5.99,7.92,10.87,6.81l47.4-10.88c8.47-1.94,16.91.08,22.97,5.4l13.86,31.02-36.64,8.41c-4.88,1.12-7.94,5.99-6.81,10.87,1.13,4.89,5.98,7.9,10.87,6.81l47.4-10.88c8.47-1.93,16.91.08,22.97,5.4l13.86,31.02-36.64,8.42c-4.88,1.12-7.94,5.99-6.81,10.87,1.13,4.9,6,7.91,10.87,6.81l47.4-10.89c8.44-1.92,16.87.08,22.92,5.37l13,30.01-36.77,8.44c-4.88,1.12-7.94,5.99-6.81,10.87,1.13,4.89,6.01,7.94,10.87,6.81l47.41-10.89c8.41-1.93,16.9.08,22.98,5.41l14.04,31.23-36.63,8.41c-4.88,1.12-7.94,5.99-6.81,10.87,1.13,4.89,6,7.94,10.87,6.81l47.41-10.89c9-2.07,17.99.35,23.92,6.27l4.49,4.75c29.02,31.4,21.79,57.58,10.18,86.1Z"></path>
</symbol><symbol id="i021_app-6" xmlns="http://www.w3.org/2000/svg" viewBox="0 0 512 512">
  <g id="fries">
    <path d="m406.67,200.96l-28.22-9.29,8.17-86.13c.2-2.08-.49-4.15-1.9-5.69-1.41-1.55-3.4-2.43-5.49-2.43h-45.59c-3.75,0-6.91,2.8-7.37,6.52l-13.82,113.43-8.15,5.8V88.62c0-4.1-3.32-7.42-7.42-7.42h-46.75c-1.98,0-3.88.79-5.27,2.2-1.39,1.41-2.17,3.31-2.15,5.29l1.44,151.24c-7-1.12-13.87-3.25-20.38-6.4l5.03-179.9c.06-2-.7-3.94-2.1-5.38-1.39-1.43-3.31-2.25-5.32-2.25h-56.21c-1.97,0-3.87.79-5.26,2.18-1.39,1.4-2.17,3.3-2.16,5.27l.19,42.23h-36.07c-2.09,0-4.08.88-5.49,2.43s-2.09,3.61-1.9,5.69l8.66,91.19-17.88,5.97c-3.32,1.11-5.41,4.39-5.02,7.87l28.17,250.58c.42,3.75,3.59,6.59,7.37,6.59h237.87c3.75,0,6.91-2.8,7.37-6.52l30.67-250.58c.43-3.51-1.68-6.84-5.05-7.95Zm-66.45-88.71h30.86l-7.09,74.66-2.4-.79c-2.22-.74-4.69-.37-6.62,1l-26.15,18.6,11.39-93.47Zm-50.74-16.21v136.7c-9.57,4.91-19.98,7.57-30.46,8.02l-1.37-144.72h31.84Zm-116.83-35.2h41.13l-4.57,163.62-13.3-9.4-13.63-112.85c-.45-3.72-3.61-6.53-7.37-6.53h-2.1l-.16-34.84Zm-42.59,49.68h38.27l11.23,92.98-23.2-16.4c-1.93-1.37-4.39-1.72-6.63-.98l-12.12,4.05-7.56-79.65Zm237.05,340.64h-224.67l-26.76-238.02,35.19-11.75,53.92,38.12c2.64,1.87,5.38,3.51,8.17,5.06.11.06.21.12.32.17,11.89,6.54,24.93,10.14,38.1,10.81.1,0,.18.06.28.06h.07c.06,0,.11-.03.17-.04,19.28.86,38.77-4.51,55.21-16.2l53.4-37.98,35.72,11.76-29.14,238.01Z"></path>
    <path d="m350.64,273.2c-4.04-.51-7.77,2.37-8.3,6.43l-17.33,136.64c-.51,4.06,2.36,7.78,6.43,8.3.32.04.63.06.95.06,3.68,0,6.87-2.74,7.35-6.48l17.33-136.64c.51-4.06-2.36-7.78-6.43-8.3Z"></path>
  </g>
</symbol><symbol id="i021_app-7" xmlns="http://www.w3.org/2000/svg" viewBox="0 0 512 512">
  <g id="patty">
    <path d="m379.88,432.63H81.26c-3.73,0-6.75-3.02-6.75-6.75v-.88c.26-41.54,16.6-80.51,46.02-109.76,29.43-29.27,68.49-45.38,110.01-45.38s80.58,16.1,110.01,45.32c29.42,29.21,45.79,68.11,46.08,109.55v1.15c0,3.73-3.02,6.75-6.75,6.75Zm-291.71-13.5h284.81c-3.54-75.37-66.29-135.77-142.44-135.77s-138.79,60.38-142.37,135.77Z"></path>
    <path d="m387.68,432.63c-3.38,0-6.55-.45-9.71-1.38-2.86-.84-4.82-3.45-4.85-6.43-.56-78.01-64.53-141.47-142.6-141.47s-142.04,63.56-142.52,141.68c-.02,3.04-2.07,5.7-5.01,6.48-2.8.75-5.64,1.11-8.66,1.11-19.35,0-35.09-15.74-35.09-35.09,0-10.51,4.84-20.4,12.95-27.02-1.5-3.93-2.27-8.06-2.27-12.21,0-15.99,10.56-29.42,25.25-33.65-.45-2.22-.67-4.48-.67-6.76,0-19.31,15.74-35.02,35.09-35.02,1.12,0,2.23.06,3.35.17,3.92-15.13,17.51-26.08,33.82-26.08,2.77,0,5.54.35,8.28,1.06,5.62-12.23,17.8-20.27,31.77-20.27,6.23,0,12.27,1.67,17.6,4.79,6.54-8.65,16.82-13.92,27.96-13.92s20.45,4.84,27.05,12.98c4.91-2.54,10.27-3.86,15.79-3.86,13.71,0,26.06,8.19,31.73,20.28,2.75-.71,5.53-1.06,8.31-1.06,16.3,0,29.9,10.96,33.82,26.08,1.12-.12,2.23-.17,3.35-.17,19.35,0,35.09,15.71,35.09,35.02,0,2.29-.22,4.54-.67,6.76,14.69,4.23,25.25,17.66,25.25,33.65,0,4.08-.79,8.21-2.3,12.19,8.12,6.63,12.97,16.52,12.97,27.05,0,19.35-15.74,35.09-35.09,35.09Zm-1.19-13.53c.39.02.79.03,1.19.03,11.9,0,21.59-9.68,21.59-21.59,0-7.74-4.34-14.96-11.32-18.83-1.59-.88-2.76-2.37-3.24-4.12-.48-1.75-.23-3.63.69-5.19,2.12-3.62,3.2-7.35,3.2-11.09,0-11.67-9.16-21.12-20.86-21.52-2.28-.08-4.36-1.3-5.54-3.25-1.18-1.95-1.3-4.36-.31-6.42,1.42-2.95,2.13-6.05,2.13-9.22,0-11.86-9.68-21.52-21.59-21.52-2.22,0-4.39.38-6.84,1.2-2.02.67-4.25.35-6-.87-1.75-1.22-2.82-3.2-2.88-5.34-.34-11.72-9.76-20.9-21.44-20.9-3.13,0-6.32.78-9.47,2.33-1.86.91-4.04.92-5.9.02-1.87-.9-3.22-2.61-3.66-4.63-2.16-9.81-10.99-16.93-21.01-16.93-6.11,0-10.72,2.67-13.51,4.92-1.58,1.27-3.64,1.76-5.63,1.34-1.98-.42-3.67-1.71-4.6-3.51-3.78-7.33-11.1-11.88-19.1-11.88-8.59,0-16.36,5.11-19.79,13.01-.88,2.03-2.69,3.49-4.86,3.93-2.17.44-4.41-.21-6-1.74-4.1-3.92-9.39-6.08-14.91-6.08-10.18,0-18.82,6.96-21.01,16.93-.44,2.02-1.79,3.73-3.66,4.63-1.87.9-4.04.89-5.9-.02-3.15-1.55-6.34-2.33-9.47-2.33-11.69,0-21.1,9.18-21.44,20.9-.06,2.13-1.13,4.11-2.88,5.34-1.75,1.22-3.98,1.55-6,.87-2.45-.82-4.63-1.2-6.84-1.2-11.9,0-21.59,9.65-21.59,21.52,0,3.17.72,6.28,2.13,9.22.99,2.06.87,4.47-.31,6.42-1.18,1.95-3.27,3.17-5.54,3.25-11.7.4-20.86,9.85-20.86,21.52,0,3.84,1.06,7.55,3.15,11.01.95,1.57,1.21,3.46.74,5.23-.47,1.77-1.64,3.27-3.25,4.16-6.98,3.87-11.32,11.09-11.32,18.83,0,11.9,9.68,21.59,21.59,21.59.1,0,.21,0,.31,0,1.68-39.31,17.84-76.01,45.87-103.89,29.43-29.27,68.49-45.38,110.01-45.38s80.58,16.1,110.01,45.32c28.08,27.88,44.27,64.6,45.94,103.92Z"></path>
    <path d="m429.86,283.36h-90.98c-3.73,0-6.75-3.02-6.75-6.75s3.02-6.75,6.75-6.75h84.08c-3.52-75.36-66.27-135.77-142.45-135.77-1.94,0-4.07.08-5.79.14-1.84.07-3.66.14-5.29.33-.26.03-.51.04-.77.04-.29,0-.75.05-1.22.1-.38.04-.75.08-1.13.11-2.19.2-4.51.48-6.79.83-2.29.36-4.47.7-6.64,1.17-.07.01-.13.03-.2.04-2.29.43-4.49.92-6.55,1.45-.06.01-.11.03-.17.04-.87.2-1.68.39-2.4.61-.22.07-.45.12-.67.17-.32.09-.63.17-.94.25-.48.12-.94.25-1.4.39-1.74.51-3.39,1.06-5.15,1.65-.04.01-.07.02-.11.04-2.23.7-4.63,1.58-7.11,2.6-.14.06-.29.11-.44.16-.15.07-.3.14-.46.2-2.42.93-4.9,2.03-7.01,2.98-1.32.62-2.56,1.22-3.68,1.84-.13.07-.27.14-.4.21-.76.36-1.56.79-2.4,1.24l-1,.53c-1.32.69-2.75,1.5-4.25,2.4-.05.03-.11.06-.17.1-1.13.64-2.07,1.21-2.95,1.79-.07.05-.14.09-.21.13-6.26,3.85-12.3,8.31-17.93,13.24-1.53,1.31-2.92,2.56-4.29,3.86-1.25,1.17-2.38,2.24-3.41,3.34-.09.1-.19.19-.29.29-.97.91-1.9,1.89-3.03,3.16-.09.11-.19.21-.29.31-.65.65-1.24,1.3-1.75,1.93-.08.09-.15.18-.23.27-.29.38-.62.73-.98,1.04-.13.14-.25.29-.37.44-.03.04-.07.08-.11.12-.95,1.09-1.84,2.18-2.79,3.35-1.85,2.25-3.75,4.76-5.68,7.5-.04.06-.08.11-.12.17-.53.71-1.05,1.48-1.61,2.31-.2.29-.39.58-.59.87-.16.27-.33.54-.5.81-.1.16-.21.31-.29.47-.09.16-.19.31-.29.46-1.04,1.52-1.79,2.72-2.38,3.78-.09.17-.19.33-.3.49-.33.49-.62.98-.83,1.41-.06.12-.13.24-.19.36-.74,1.29-1.48,2.55-2.21,3.87-.09.22-.2.45-.32.7-.03.06-.06.12-.09.18-.89,1.65-1.82,3.43-2.64,5.28-.05.1-.09.2-.14.3l-.16.31c-.73,1.59-1.48,3.23-2.05,4.75-.08.22-.18.44-.29.65-.13.27-.28.66-.45,1.11-.04.12-.09.23-.14.35-.78,1.78-1.44,3.44-2.01,5.08-.05.14-.1.27-.16.41-.09.27-.16.5-.25.73-.66,1.91-1.27,3.66-1.8,5.41l-.16.54c-.29.97-.54,1.81-.73,2.69-.06.27-.14.54-.23.8-.27.77-.47,1.47-.62,2.22-.02.12-.05.24-.08.36-.56,2.19-1.07,4.51-1.56,6.75-.39,1.91-.74,3.91-1.01,5.88-.01.08-.02.17-.04.25-.41,2.33-.7,4.77-.97,7.12-.2,1.58-.33,3.24-.4,4.87-.01.31-.05.62-.1.92-.03.16-.05.47-.07.8-.02.32-.04.64-.07.97-.34,3.71-3.61,6.45-7.34,6.11-3.71-.34-6.45-3.63-6.11-7.34.02-.2.03-.4.04-.59.03-.51.07-1.13.17-1.83.09-1.88.25-3.73.47-5.52.29-2.46.59-5.05,1.06-7.72.31-2.23.7-4.5,1.17-6.73.52-2.38,1.04-4.76,1.65-7.14.25-1.19.56-2.34.97-3.52.27-1.17.58-2.19.87-3.19l.17-.59c.64-2.09,1.33-4.07,1.99-5.99.02-.07.06-.17.09-.26l.03-.08c.08-.24.19-.6.36-1.02.65-1.84,1.38-3.7,2.24-5.66.21-.55.46-1.2.79-1.9.72-1.89,1.55-3.7,2.35-5.44.03-.07.06-.13.09-.2l.16-.32c.96-2.15,1.98-4.1,2.95-5.9.1-.26.2-.48.29-.66.04-.07.07-.14.11-.21.8-1.46,1.61-2.85,2.41-4.24.41-.79.88-1.6,1.41-2.42.75-1.34,1.64-2.77,2.8-4.46.16-.27.33-.54.5-.8.1-.16.21-.31.3-.47.09-.16.19-.32.3-.48l.67-.98c.61-.9,1.23-1.82,1.93-2.77,2.1-2.99,4.19-5.75,6.22-8.2.93-1.15,1.93-2.37,3.02-3.62.34-.4.76-.9,1.29-1.42.13-.16.26-.29.37-.41.7-.84,1.47-1.69,2.3-2.53,1.28-1.44,2.43-2.65,3.61-3.76,1.26-1.33,2.55-2.55,3.8-3.72,1.54-1.47,3.1-2.87,4.75-4.28,6.12-5.36,12.73-10.24,19.6-14.47,1.12-.74,2.28-1.45,3.63-2.21,1.7-1.02,3.32-1.93,4.82-2.72l.89-.48c.9-.48,1.83-.98,2.84-1.47,1.45-.79,2.9-1.48,4.31-2.15.03-.02.07-.03.1-.05,2.18-.99,4.75-2.13,7.37-3.15.51-.25.98-.43,1.39-.55,2.69-1.1,5.3-2.05,7.78-2.83,1.78-.59,3.62-1.21,5.49-1.75.54-.17,1.18-.34,1.84-.51.37-.1.75-.2,1.14-.31.15-.04.3-.08.45-.11.97-.28,1.91-.5,2.75-.69,2.29-.59,4.73-1.13,7.25-1.6,2.53-.55,4.99-.93,7.37-1.3,2.58-.39,5.17-.7,7.72-.94.35-.03.61-.06.88-.08.62-.06,1.36-.14,2.18-.16,2.02-.22,3.99-.29,5.89-.36,1.92-.07,4.2-.16,6.38-.16,41.51,0,80.58,16.1,110.01,45.32,29.42,29.21,45.79,68.11,46.08,109.55v1.15c0,3.73-3.02,6.75-6.75,6.75Zm-283.7-54.48s-.04.07-.05.11c.02-.04.04-.07.05-.11Zm28.51-47.97s0,0,0,0c0,0,0,0,0,0Zm53.94-37.21s0,0,0,0c0,0,0,0,0,0Z"></path>
    <path d="m437.66,283.36c-3.38,0-6.56-.45-9.71-1.38-2.86-.84-4.82-3.45-4.84-6.43-.56-78.01-64.53-141.47-142.6-141.47-1.94,0-4.07.08-5.79.14-1.77.06-3.6.13-5.29.33-.26.03-.51.04-.77.04-.29,0-.75.05-1.22.1-.38.04-.75.08-1.13.11-2.19.2-4.51.48-6.79.83-2.29.36-4.47.7-6.64,1.17-.07.01-.13.03-.2.04-2.29.43-4.49.92-6.55,1.45-.06.01-.11.03-.17.04-.87.2-1.68.39-2.4.61-.24.08-.49.14-.74.18-2.46.66-4.88,1.45-7.42,2.27-2.54.87-4.93,1.69-7.22,2.64-.14.06-.29.11-.44.16-.13.06-.26.12-.39.17-4.68,1.85-9.43,4.07-14.52,6.81-1.36.71-2.78,1.52-4.29,2.42-.05.03-.11.06-.17.1-1.13.64-2.07,1.21-2.95,1.79-.07.05-.14.09-.21.13-6.26,3.85-12.3,8.31-17.93,13.24-.07.06-.13.11-.2.17-1.33,1.07-2.66,2.33-4.06,3.67,0,0-.07.06-.07.07-1.2,1.13-2.34,2.2-3.37,3.3-.09.1-.19.19-.29.29-.97.91-1.9,1.89-3.03,3.16-.09.11-.19.21-.29.31-.65.65-1.24,1.3-1.75,1.93-.08.09-.15.18-.23.27-.29.38-.62.73-.98,1.04-.13.14-.25.29-.37.44-.03.04-.07.08-.11.12-.95,1.09-1.84,2.18-2.79,3.35-1.85,2.25-3.75,4.76-5.68,7.5-.04.06-.08.11-.12.17-.53.71-1.05,1.48-1.61,2.31-.2.29-.39.58-.59.87-.16.27-.33.54-.5.8-.1.16-.21.31-.29.47-.09.16-.19.31-.29.46-1.04,1.52-1.79,2.72-2.38,3.78-.09.17-.19.33-.3.49-.33.49-.62.98-.83,1.41-.06.12-.12.24-.19.36-.74,1.29-1.48,2.55-2.21,3.87-.09.22-.2.45-.32.7-.03.06-.06.12-.09.18-.89,1.65-1.82,3.43-2.64,5.28-.05.1-.09.2-.14.3l-.17.33c-.7,1.46-1.43,3.05-2.01,4.65-.09.25-.2.5-.32.74-.13.27-.28.66-.45,1.11-.04.12-.09.23-.14.35-.78,1.78-1.44,3.44-2.01,5.08-.05.14-.1.27-.16.41-.09.27-.16.5-.25.73-.66,1.91-1.27,3.66-1.8,5.41l-.16.54c-.29.97-.54,1.81-.73,2.69-.06.27-.14.54-.23.8-.27.77-.47,1.47-.62,2.22-.02.12-.05.24-.08.36-.56,2.19-1.07,4.51-1.56,6.75-.4,1.85-.74,3.83-1.01,5.85-.01.09-.03.19-.04.28-.41,2.33-.7,4.77-.97,7.12-.21,1.65-.34,3.23-.4,4.86-.01.31-.05.62-.1.93-.03.16-.05.47-.07.8-.02.32-.04.64-.07.97-.34,3.71-3.62,6.45-7.34,6.11-.38-.03-.74-.1-1.1-.19.16.62.24,1.27.22,1.94-.13,3.73-3.24,6.64-6.98,6.52-18.93-.64-33.76-16.02-33.76-35.01,0-10.51,4.84-20.4,12.95-27.02-1.5-3.93-2.27-8.06-2.27-12.21,0-15.99,10.56-29.42,25.25-33.65-.45-2.22-.67-4.48-.67-6.76,0-19.31,15.74-35.02,35.09-35.02,1.12,0,2.23.06,3.35.17,3.92-15.13,17.51-26.08,33.82-26.08,2.77,0,5.54.35,8.28,1.06,5.62-12.23,17.8-20.27,31.77-20.27,6.23,0,12.27,1.67,17.6,4.79,6.54-8.65,16.82-13.92,27.96-13.92s20.45,4.84,27.05,12.99c4.91-2.54,10.27-3.86,15.79-3.86,13.71,0,26.06,8.19,31.73,20.27,2.75-.71,5.53-1.06,8.31-1.06,16.31,0,29.9,10.96,33.82,26.08,1.12-.12,2.24-.17,3.35-.17,19.35,0,35.09,15.71,35.09,35.02,0,2.29-.22,4.54-.67,6.76,14.69,4.23,25.25,17.66,25.25,33.65,0,4.08-.79,8.21-2.3,12.19,8.12,6.63,12.97,16.52,12.97,27.05,0,19.35-15.74,35.09-35.09,35.09ZM159.58,147.11c-11.9,0-21.59,9.65-21.59,21.52,0,3.17.72,6.28,2.13,9.22.99,2.05.87,4.47-.31,6.42-1.18,1.95-3.27,3.17-5.54,3.25-11.7.4-20.86,9.85-20.86,21.52,0,3.84,1.06,7.55,3.15,11.01.95,1.57,1.21,3.46.74,5.23-.47,1.77-1.64,3.27-3.25,4.16-6.98,3.87-11.32,11.09-11.32,18.83,0,11.67,9.1,21.12,20.71,21.52.51.02,1.01.09,1.48.22-.19-.74-.26-1.52-.19-2.33.02-.2.03-.4.04-.59.03-.51.07-1.12.17-1.83.08-1.87.24-3.68.47-5.53.29-2.46.59-5.04,1.06-7.7.31-2.32.71-4.61,1.18-6.79.51-2.33,1.03-4.72,1.64-7.09.25-1.18.56-2.34.97-3.52.27-1.17.58-2.19.88-3.19l.17-.59c.64-2.09,1.33-4.07,1.99-5.99.02-.07.06-.17.09-.26l.03-.08c.08-.24.19-.6.36-1.02.65-1.84,1.38-3.7,2.24-5.66.2-.54.45-1.17.77-1.85.76-2.04,1.64-3.96,2.42-5.58.01-.03.03-.06.05-.1l.16-.32c.96-2.15,1.98-4.1,2.95-5.9.1-.26.2-.48.29-.66.04-.07.07-.14.11-.21.8-1.46,1.61-2.85,2.41-4.24.41-.79.88-1.6,1.41-2.42.75-1.34,1.64-2.77,2.8-4.46.16-.27.33-.54.5-.8.1-.16.21-.31.3-.47.09-.16.19-.32.3-.48l.67-.98c.61-.9,1.23-1.82,1.93-2.77,2.1-2.99,4.19-5.75,6.22-8.2.93-1.15,1.93-2.37,3.02-3.62.34-.4.76-.9,1.29-1.42.13-.16.26-.29.37-.41.7-.84,1.47-1.69,2.3-2.53,1.28-1.44,2.43-2.65,3.61-3.76,1.26-1.33,2.55-2.55,3.8-3.72,1.53-1.46,3.09-2.93,4.79-4.32,6.14-5.37,12.72-10.22,19.55-14.43,1.12-.74,2.28-1.45,3.64-2.21,1.7-1.02,3.32-1.93,4.82-2.72,5.35-2.87,10.44-5.27,15.48-7.28.52-.27,1.01-.45,1.43-.57,2.56-1.04,5.15-1.92,7.65-2.78.04-.01.09-.03.12-.04,2.76-.9,5.62-1.82,8.61-2.61.1-.03.21-.05.32-.08.97-.28,1.91-.5,2.75-.69,2.29-.59,4.73-1.13,7.25-1.6,2.53-.55,4.99-.93,7.37-1.3,2.58-.39,5.17-.7,7.72-.94.35-.03.61-.06.88-.08.62-.06,1.36-.14,2.18-.16,2.1-.23,4.16-.3,5.99-.37,1.83-.07,4.1-.15,6.28-.15,41.51,0,80.58,16.1,110.01,45.32,28.08,27.88,44.27,64.6,45.95,103.92.39.02.79.03,1.19.03,11.9,0,21.59-9.68,21.59-21.59,0-7.74-4.34-14.96-11.32-18.83-1.59-.88-2.76-2.37-3.24-4.12-.48-1.75-.23-3.63.69-5.2,2.12-3.62,3.2-7.35,3.2-11.09,0-11.67-9.16-21.12-20.86-21.52-2.28-.08-4.36-1.3-5.54-3.25-1.18-1.95-1.3-4.36-.31-6.42,1.41-2.95,2.13-6.05,2.13-9.22,0-11.86-9.68-21.52-21.59-21.52-2.22,0-4.39.38-6.84,1.2-2.02.67-4.25.35-6-.87-1.75-1.22-2.82-3.2-2.88-5.34-.34-11.72-9.76-20.9-21.44-20.9-3.13,0-6.32.78-9.47,2.33-1.86.91-4.04.92-5.9.02-1.87-.9-3.22-2.61-3.66-4.63-2.15-9.81-10.99-16.93-21.01-16.93-6.11,0-10.72,2.67-13.51,4.92-1.58,1.27-3.65,1.76-5.63,1.34-1.98-.42-3.67-1.71-4.6-3.51-3.78-7.33-11.1-11.88-19.1-11.88-8.59,0-16.36,5.11-19.79,13.01-.88,2.03-2.69,3.49-4.86,3.93-2.17.44-4.41-.21-6-1.74-4.1-3.92-9.39-6.08-14.91-6.08-10.18,0-18.82,6.96-21.01,16.93-.44,2.02-1.79,3.73-3.66,4.63-1.87.9-4.04.89-5.9-.02-3.15-1.55-6.34-2.33-9.47-2.33-11.68,0-21.1,9.18-21.44,20.9-.06,2.13-1.13,4.11-2.88,5.34s-3.98,1.54-6,.87c-2.45-.82-4.63-1.2-6.84-1.2Zm-13.41,81.76s-.04.08-.06.12c.02-.04.04-.08.06-.12Zm28.51-47.96s0,.01,0,.02c0,0,0-.01,0-.02Z"></path>
    <path d="m398.08,226.9c-2.45,0-4.82-1.34-6.01-3.67-15.77-30.79-50.58-51.01-50.93-51.21-3.23-1.85-4.35-5.98-2.5-9.21,1.85-3.23,5.97-4.36,9.2-2.51,1.57.9,38.61,22.34,56.24,56.77,1.7,3.32.39,7.39-2.93,9.08-.99.5-2.04.74-3.07.74Z"></path>
    <path d="m113.77,375.64c-1.04,0-2.09-.24-3.07-.74-3.32-1.7-4.63-5.77-2.93-9.08,17.63-34.43,54.68-55.88,56.24-56.77,3.23-1.85,7.36-.73,9.21,2.51,1.85,3.24.73,7.36-2.51,9.21h0c-.35.2-35.16,20.42-50.93,51.21-1.2,2.33-3.56,3.67-6.01,3.67Z"></path>
  </g>
</symbol><symbol id="i021_app-8" xmlns="http://www.w3.org/2000/svg" viewBox="0 0 512 512">
  <g id="waffles">
    <path d="m223.28,227.14H68c-1.86,0-3.63-.77-4.91-2.12-1.28-1.35-1.94-3.17-1.83-5.02,5.07-87.14,74.54-156.91,161.6-162.28,1.88-.11,3.68.54,5.04,1.82,1.36,1.28,2.13,3.06,2.13,4.92v155.93c0,3.73-3.02,6.75-6.75,6.75Zm-147.97-13.5h141.22V71.79c-74.5,7.96-133.53,67.25-141.22,141.84Z"></path>
    <path d="m169.17,227.11h-.04c-3.73-.02-6.73-3.06-6.71-6.79l.8-143.56c.02-3.72,3.04-6.71,6.75-6.71h.04c3.73.02,6.73,3.06,6.71,6.79l-.8,143.56c-.02,3.72-3.04,6.71-6.75,6.71Z"></path>
    <path d="m113.67,227.11c-3.73,0-6.75-3.02-6.75-6.75v-104.84c0-3.73,3.02-6.75,6.75-6.75s6.75,3.02,6.75,6.75v104.84c0,3.73-3.02,6.75-6.75,6.75Z"></path>
    <path d="m223.3,122.26h-109.63c-3.73,0-6.75-3.02-6.75-6.75s3.02-6.75,6.75-6.75h109.63c3.73,0,6.75,3.02,6.75,6.75s-3.02,6.75-6.75,6.75Z"></path>
    <path d="m223.3,174.69H79.77c-3.73,0-6.75-3.02-6.75-6.75s3.02-6.75,6.75-6.75h143.53c3.73,0,6.75,3.02,6.75,6.75s-3.02,6.75-6.75,6.75Z"></path>
    <path d="m223.28,400.59c-.14,0-.28,0-.42-.01-87.06-5.37-156.53-75.14-161.6-162.28-.11-1.86.55-3.67,1.83-5.02,1.27-1.35,3.05-2.12,4.91-2.12h155.28c3.73,0,6.75,3.02,6.75,6.75v155.93c0,1.86-.77,3.64-2.13,4.92-1.26,1.18-2.91,1.83-4.62,1.83ZM75.31,244.66c7.69,74.59,66.72,133.88,141.22,141.84v-141.84H75.31Z"></path>
    <path d="m169.97,388.25c-3.71,0-6.73-3-6.75-6.71l-.8-143.56c-.02-3.73,2.98-6.77,6.71-6.79h.04c3.71,0,6.73,3,6.75,6.71l.8,143.56c.02,3.73-2.98,6.77-6.71,6.79h-.04Z"></path>
    <path d="m113.67,349.53c-3.73,0-6.75-3.02-6.75-6.75v-104.84c0-3.73,3.02-6.75,6.75-6.75s6.75,3.02,6.75,6.75v104.84c0,3.73-3.02,6.75-6.75,6.75Z"></path>
    <path d="m223.3,349.53h-109.63c-3.73,0-6.75-3.02-6.75-6.75s3.02-6.75,6.75-6.75h109.63c3.73,0,6.75,3.02,6.75,6.75s-3.02,6.75-6.75,6.75Z"></path>
    <path d="m223.3,297.11H79.77c-3.73,0-6.75-3.02-6.75-6.75s3.02-6.75,6.75-6.75h143.53c3.73,0,6.75,3.02,6.75,6.75s-3.02,6.75-6.75,6.75Z"></path>
    <path d="m397.29,227.14h-155.28c-3.73,0-6.75-3.02-6.75-6.75V64.45c0-1.86.77-3.64,2.13-4.92,1.36-1.28,3.17-1.93,5.04-1.82,87.06,5.37,156.53,75.14,161.6,162.28.11,1.86-.55,3.67-1.83,5.02-1.27,1.35-3.05,2.12-4.91,2.12Zm-148.53-13.5h141.22c-7.69-74.59-66.72-133.88-141.22-141.84v141.84Z"></path>
    <path d="m296.12,227.11c-3.71,0-6.73-3-6.75-6.71l-.8-143.56c-.02-3.73,2.98-6.77,6.71-6.79h.04c3.71,0,6.73,3,6.75,6.71l.8,143.56c.02,3.73-2.98,6.77-6.71,6.79h-.04Z"></path>
    <path d="m351.62,227.11c-3.73,0-6.75-3.02-6.75-6.75v-104.84c0-3.73,3.02-6.75,6.75-6.75s6.75,3.02,6.75,6.75v104.84c0,3.73-3.02,6.75-6.75,6.75Z"></path>
    <path d="m351.62,122.26h-109.63c-3.73,0-6.75-3.02-6.75-6.75s3.02-6.75,6.75-6.75h109.63c3.73,0,6.75,3.02,6.75,6.75s-3.02,6.75-6.75,6.75Z"></path>
    <path d="m385.52,174.69h-143.53c-3.73,0-6.75-3.02-6.75-6.75s3.02-6.75,6.75-6.75h143.53c3.73,0,6.75,3.02,6.75,6.75s-3.02,6.75-6.75,6.75Z"></path>
    <path d="m270.11,472.75c-1.71,0-3.37-.65-4.62-1.83-1.36-1.28-2.13-3.06-2.13-4.92v-192.97c0-3.73,3.02-6.75,6.75-6.75h192.26c1.86,0,3.63.77,4.91,2.12s1.94,3.17,1.83,5.02l-1.29,22.14c-5.49,94.41-80.76,169.99-175.08,175.81l-22.22,1.37c-.14,0-.28.01-.42.01Zm6.75-192.97v179.04l15.05-.93c87.51-5.4,157.34-75.52,162.44-163.12l.87-15h-178.36Z"></path>
    <path d="m287.95,453.54c-1.71,0-3.37-.65-4.62-1.83-1.36-1.28-2.13-3.06-2.13-4.92v-155.93c0-3.73,3.02-6.75,6.75-6.75h155.28c1.86,0,3.63.77,4.91,2.12,1.28,1.35,1.94,3.17,1.83,5.02-5.07,87.14-74.54,156.91-161.6,162.28-.14,0-.28.01-.42.01Zm6.75-155.93v141.84c74.5-7.96,133.53-67.25,141.22-141.84h-141.22Z"></path>
    <path d="m341.26,441.19h-.04c-3.73-.02-6.73-3.06-6.71-6.79l.8-143.56c.02-3.72,3.04-6.71,6.75-6.71h.04c3.73.02,6.73,3.06,6.71,6.79l-.8,143.56c-.02,3.72-3.04,6.71-6.75,6.71Z"></path>
    <path d="m397.57,402.48c-3.73,0-6.75-3.02-6.75-6.75v-104.84c0-3.73,3.02-6.75,6.75-6.75s6.75,3.02,6.75,6.75v104.84c0,3.73-3.02,6.75-6.75,6.75Z"></path>
    <path d="m397.57,402.48h-109.63c-3.73,0-6.75-3.02-6.75-6.75s3.02-6.75,6.75-6.75h109.63c3.73,0,6.75,3.02,6.75,6.75s-3.02,6.75-6.75,6.75Z"></path>
    <path d="m431.46,350.06h-143.53c-3.73,0-6.75-3.02-6.75-6.75s3.02-6.75,6.75-6.75h143.53c3.73,0,6.75,3.02,6.75,6.75s-3.02,6.75-6.75,6.75Z"></path>
    <path d="m241.99,421.11h-8.19c-105.28,0-190.93-85.65-190.93-190.93S128.52,39.25,233.8,39.25s190.93,85.65,190.93,190.93c0,.05,0,.1,0,.15l-.17,7.76c-.08,3.67-3.08,6.6-6.75,6.6h-169.07v169.67c0,3.73-3.02,6.75-6.75,6.75Zm-8.19-368.36c-97.84,0-177.43,79.6-177.43,177.43s79.59,177.43,177.43,177.43h1.44v-169.67c0-3.73,3.02-6.75,6.75-6.75h169.21l.02-1.08c-.04-97.8-79.62-177.36-177.43-177.36Z"></path>
  </g>
</symbol><symbol id="i021_app-9" xmlns="http://www.w3.org/2000/svg" viewBox="0 0 512 512">
  <g id="nuts_2">
    <path d="m384.54,428.44c-15.35,0-31.46-7.17-45.65-21.3-13.83-13.78-21.44-29.99-21.44-45.64,0-13.03,5.3-25.2,15.33-35.19h0c10.17-10.13,29.55-15.54,57.61-16.07,20.08-.38,37.2,1.88,37.92,1.98,3.01.4,5.38,2.77,5.79,5.79.1.72,2.37,17.79,1.99,37.79-.53,27.97-5.96,47.29-16.14,57.43-10.22,10.18-22.55,15.21-35.41,15.21Zm-42.23-92.57c-7.54,7.51-11.36,16.13-11.36,25.63,0,12.04,6.21,24.85,17.47,36.08,15.71,15.65,41.38,26.64,62,6.09,14.31-14.25,13.08-57.62,10.91-78.67-21.13-2.17-64.7-3.39-79.02,10.88h0Z"></path>
    <path d="m343.64,409.1c-3.2,0-6.04-2.28-6.63-5.54-.18-.99-4.27-24.46,7.59-40.37,5.87-7.87,14.4-12.48,25.36-13.69,3.7-.41,7.04,2.26,7.45,5.97.41,3.71-2.26,7.04-5.97,7.45-7.17.79-12.4,3.51-15.99,8.3-8.36,11.16-5.19,29.76-5.16,29.94.65,3.67-1.79,7.17-5.46,7.83-.4.07-.8.11-1.2.11Z"></path>
    <path d="m222.86,472.7c-15.35,0-31.46-7.17-45.65-21.3-13.83-13.78-21.44-29.99-21.44-45.64,0-13.03,5.3-25.2,15.33-35.19h0c10.17-10.13,29.55-15.54,57.61-16.07,20.07-.38,37.2,1.88,37.92,1.98,3.01.4,5.38,2.77,5.79,5.79.1.72,2.37,17.79,1.99,37.79-.53,27.97-5.96,47.29-16.13,57.43-10.22,10.18-22.55,15.21-35.41,15.21Zm-42.23-92.57c-7.54,7.51-11.36,16.13-11.36,25.63,0,12.04,6.21,24.85,17.47,36.08,15.71,15.65,41.38,26.64,62,6.09,14.31-14.25,13.08-57.62,10.91-78.67-21.13-2.17-64.7-3.39-79.02,10.88h0Z"></path>
    <path d="m181.96,453.36c-3.2,0-6.04-2.28-6.63-5.54-.18-.99-4.27-24.46,7.59-40.37,5.87-7.87,14.4-12.48,25.36-13.69,3.71-.4,7.04,2.26,7.45,5.97.41,3.71-2.26,7.04-5.97,7.45-7.17.79-12.4,3.51-15.99,8.3-8.36,11.16-5.19,29.76-5.16,29.94.65,3.67-1.79,7.17-5.46,7.83-.4.07-.8.11-1.2.11Z"></path>
    <path d="m106.34,354.3c-15.35,0-31.46-7.17-45.65-21.3-13.83-13.78-21.44-29.99-21.44-45.64,0-13.03,5.3-25.2,15.33-35.19,10.17-10.13,29.55-15.54,57.61-16.07,20.08-.38,37.2,1.88,37.92,1.98,3.01.4,5.38,2.77,5.79,5.79.1.72,2.37,17.79,1.99,37.79-.53,27.97-5.96,47.29-16.14,57.43-10.22,10.18-22.55,15.21-35.41,15.21Zm10.7-104.76c-20.38,0-43.29,2.58-52.93,12.19-7.54,7.51-11.36,16.13-11.36,25.63,0,12.04,6.21,24.85,17.47,36.08,15.71,15.65,41.38,26.64,62,6.09,14.31-14.25,13.08-57.62,10.91-78.67-6.9-.71-16.2-1.32-26.09-1.32Z"></path>
    <path d="m65.45,334.97c-3.2,0-6.04-2.29-6.63-5.55-.18-.99-4.27-24.46,7.59-40.37,5.87-7.87,14.4-12.48,25.36-13.69,3.72-.41,7.04,2.26,7.45,5.97.41,3.71-2.26,7.04-5.97,7.45-7.19.8-12.43,3.52-16.02,8.34-8.26,11.08-5.17,29.71-5.13,29.89.67,3.67-1.77,7.18-5.44,7.85-.41.07-.81.11-1.21.11Z"></path>
    <path d="m269.37,311.84c-15.35,0-31.46-7.17-45.65-21.3-13.83-13.78-21.44-29.99-21.44-45.64,0-13.03,5.3-25.2,15.33-35.19,10.17-10.13,29.55-15.54,57.61-16.07,20.08-.38,37.2,1.88,37.92,1.98,3.01.4,5.38,2.77,5.79,5.79.1.72,2.37,17.79,1.99,37.79-.53,27.97-5.96,47.29-16.13,57.43-10.22,10.18-22.55,15.21-35.41,15.21Zm10.7-104.76c-20.39,0-43.29,2.58-52.93,12.19h0c-7.54,7.51-11.36,16.13-11.36,25.63,0,12.04,6.21,24.85,17.47,36.08,15.71,15.65,41.38,26.64,62,6.09,14.31-14.25,13.08-57.62,10.91-78.67-6.9-.71-16.2-1.32-26.09-1.32Zm-57.7,7.41h0,0Z"></path>
    <path d="m228.47,292.5c-3.2,0-6.04-2.28-6.63-5.54-.18-.99-4.27-24.46,7.59-40.37,5.87-7.87,14.4-12.48,25.36-13.69,3.72-.4,7.04,2.26,7.45,5.97.41,3.71-2.26,7.04-5.97,7.45-7.17.79-12.4,3.51-15.99,8.3-8.36,11.16-5.19,29.76-5.16,29.94.65,3.67-1.79,7.17-5.46,7.83-.4.07-.8.11-1.2.11Z"></path>
    <path d="m421.16,274.35c-15.35,0-31.46-7.17-45.65-21.3-13.83-13.78-21.44-29.99-21.44-45.64,0-13.03,5.3-25.2,15.33-35.19,10.17-10.13,29.55-15.54,57.61-16.07,20.06-.38,37.2,1.88,37.92,1.98,3.01.4,5.38,2.77,5.79,5.79.1.72,2.37,17.79,1.99,37.79-.53,27.97-5.96,47.29-16.13,57.43-10.22,10.18-22.55,15.21-35.41,15.21Zm10.7-104.76c-20.39,0-43.29,2.58-52.93,12.19-7.54,7.51-11.36,16.13-11.36,25.63,0,12.04,6.21,24.85,17.47,36.08,15.71,15.65,41.37,26.64,62,6.09,14.31-14.25,13.08-57.62,10.91-78.67-6.9-.71-16.2-1.32-26.09-1.32Z"></path>
    <path d="m380.26,255.01c-3.2,0-6.04-2.28-6.63-5.54-.18-.99-4.27-24.46,7.59-40.37,5.87-7.87,14.4-12.48,25.36-13.69,3.71-.41,7.04,2.26,7.45,5.97.41,3.71-2.26,7.04-5.97,7.45-7.17.79-12.4,3.51-15.99,8.3-8.36,11.16-5.19,29.76-5.16,29.94.65,3.67-1.79,7.17-5.46,7.83-.4.07-.8.11-1.2.11Z"></path>
    <path d="m301.99,157.49c-15.35,0-31.46-7.17-45.65-21.3-13.83-13.78-21.44-29.99-21.44-45.64,0-13.03,5.3-25.2,15.33-35.19,10.17-10.13,29.55-15.54,57.61-16.07,20.07-.38,37.2,1.88,37.92,1.98,3.01.4,5.38,2.77,5.79,5.79.1.72,2.37,17.79,1.99,37.79-.53,27.97-5.96,47.29-16.13,57.43-10.22,10.18-22.55,15.21-35.41,15.21Zm10.7-104.76c-20.39,0-43.29,2.58-52.93,12.19-7.54,7.51-11.36,16.13-11.36,25.63,0,12.04,6.21,24.85,17.47,36.08,15.71,15.65,41.38,26.64,62,6.09,14.31-14.25,13.08-57.62,10.91-78.67-6.9-.71-16.2-1.32-26.09-1.32Z"></path>
    <path d="m261.1,138.16c-3.2,0-6.04-2.29-6.63-5.55-.18-.99-4.27-24.46,7.59-40.37,5.87-7.87,14.4-12.48,25.36-13.69,3.72-.41,7.04,2.26,7.45,5.97.41,3.71-2.26,7.04-5.97,7.45-7.19.8-12.43,3.52-16.02,8.34-8.26,11.08-5.17,29.71-5.13,29.89.67,3.67-1.77,7.18-5.44,7.85-.41.07-.81.11-1.21.11Z"></path>
    <path d="m145.7,190.5c-15.35,0-31.46-7.17-45.65-21.3-13.83-13.78-21.44-29.99-21.44-45.64,0-13.03,5.3-25.2,15.33-35.19,10.17-10.13,29.55-15.54,57.61-16.07,20.06-.38,37.2,1.88,37.92,1.98,3.01.4,5.38,2.77,5.79,5.79.1.72,2.37,17.79,1.99,37.79-.53,27.97-5.96,47.29-16.13,57.43-10.22,10.18-22.55,15.21-35.41,15.21Zm10.7-104.76c-20.39,0-43.29,2.58-52.93,12.19-7.54,7.51-11.36,16.13-11.36,25.63,0,12.04,6.21,24.85,17.47,36.08,15.71,15.65,41.38,26.64,62,6.09,14.31-14.25,13.08-57.62,10.91-78.67-6.9-.71-16.2-1.32-26.09-1.32Z"></path>
    <path d="m104.8,171.17c-3.2,0-6.04-2.29-6.63-5.55-.18-.99-4.27-24.46,7.59-40.37,5.87-7.87,14.4-12.48,25.36-13.69,3.71-.41,7.04,2.26,7.45,5.97.41,3.71-2.26,7.04-5.97,7.45-7.19.8-12.43,3.52-16.02,8.34-8.26,11.08-5.17,29.71-5.13,29.89.67,3.67-1.77,7.18-5.44,7.85-.41.07-.81.11-1.21.11Z"></path>
    <path d="m166.37,148.1c-1.04,0-2.09-.24-3.08-.75-3.32-1.7-4.63-5.77-2.92-9.09l.37-.71c4.26-8.31,4.74-18.05,1.3-26.73-1.37-3.47.33-7.39,3.79-8.76,3.46-1.37,7.39.33,8.76,3.79,4.87,12.3,4.19,26.1-1.84,37.87l-.37.71c-1.2,2.33-3.56,3.67-6.01,3.67Z"></path>
    <path d="m324.19,118.77c-1.04,0-2.09-.24-3.07-.74-3.32-1.7-4.63-5.77-2.93-9.09l.37-.71c4.26-8.31,4.74-18.05,1.3-26.74-1.37-3.47.33-7.39,3.79-8.76,3.46-1.37,7.39.33,8.76,3.79,4.87,12.3,4.19,26.1-1.84,37.86l-.36.71c-1.2,2.33-3.56,3.67-6.01,3.67Z"></path>
    <path d="m442.41,231.94c-1.04,0-2.09-.24-3.07-.74-3.32-1.7-4.63-5.77-2.93-9.09l.37-.71c4.26-8.31,4.74-18.05,1.3-26.74-1.37-3.47.33-7.39,3.79-8.76,3.46-1.37,7.39.33,8.76,3.79,4.87,12.3,4.19,26.1-1.84,37.86l-.36.71c-1.2,2.33-3.56,3.67-6.01,3.67Z"></path>
    <path d="m291.89,271.52c-1.04,0-2.09-.24-3.07-.74-3.32-1.7-4.63-5.77-2.93-9.09l.37-.71c4.26-8.31,4.74-18.05,1.3-26.74-1.37-3.47.33-7.39,3.79-8.76,3.46-1.37,7.39.33,8.76,3.79,4.87,12.3,4.19,26.1-1.84,37.86l-.36.71c-1.2,2.33-3.56,3.67-6.01,3.67Z"></path>
    <path d="m127.17,314.83c-1.04,0-2.09-.24-3.07-.74-3.32-1.7-4.63-5.77-2.93-9.09l.37-.71c4.26-8.31,4.74-18.05,1.3-26.74-1.37-3.47.33-7.39,3.79-8.76,3.46-1.37,7.39.33,8.76,3.79,4.87,12.3,4.19,26.1-1.84,37.86l-.36.71c-1.2,2.33-3.56,3.67-6.01,3.67Z"></path>
    <path d="m245.09,430.29c-1.04,0-2.09-.24-3.07-.74-3.32-1.7-4.63-5.77-2.93-9.09l.37-.71c4.26-8.31,4.74-18.05,1.3-26.74-1.37-3.47.33-7.39,3.79-8.76,3.46-1.37,7.39.33,8.76,3.79,4.87,12.3,4.2,26.1-1.84,37.86l-.36.71c-1.2,2.33-3.56,3.67-6.01,3.67Z"></path>
    <path d="m404.98,387.37c-1.04,0-2.09-.24-3.07-.74-3.32-1.7-4.63-5.77-2.93-9.09l.37-.71c4.26-8.31,4.74-18.05,1.3-26.74-1.37-3.47.33-7.39,3.79-8.76,3.46-1.37,7.39.33,8.76,3.79,4.87,12.3,4.19,26.1-1.84,37.86l-.36.71c-1.2,2.33-3.56,3.67-6.01,3.67Z"></path>
  </g>
</symbol>
</svg>