<svg xmlns="http://www.w3.org/2000/svg" style="display: none;">

<symbol id="i041_soup-1" xmlns="http://www.w3.org/2000/svg" viewBox="0 0 512 512">
  <g id="soup_2">
    <path d="m168.45,320.06h-65.68c-3.48,0-6.3-2.82-6.3-6.3s2.82-6.3,6.3-6.3h65.68c3.48,0,6.3,2.82,6.3,6.3s-2.82,6.3-6.3,6.3Z" fill="#010101"></path>
    <path d="m219.8,320.06h-25.18c-3.48,0-6.3-2.82-6.3-6.3s2.82-6.3,6.3-6.3h25.18c3.48,0,6.3,2.82,6.3,6.3s-2.82,6.3-6.3,6.3Z" fill="#010101"></path>
    <path d="m350.67,390.64c-2.76,0-5.29-1.82-6.07-4.61-.94-3.35,1.02-6.83,4.37-7.77,27.36-7.66,41.55-26.84,41.69-27.04,2.04-2.81,5.98-3.45,8.8-1.42,2.82,2.03,3.47,5.96,1.44,8.78-.67.93-16.72,22.92-48.53,31.82-.57.16-1.14.23-1.7.23Z" fill="#010101"></path>
    <path d="m335.25,449.39h-158.38c-4.01,0-7.27-3.26-7.27-7.27v-33.38c0-3.48,2.82-6.3,6.3-6.3h160.32c3.48,0,6.3,2.82,6.3,6.3v33.38c0,4.01-3.26,7.27-7.27,7.27Zm-153.05-12.61h147.71v-21.74h-147.71v21.74Z" fill="#010101"></path>
    <path d="m175.94,420.6c-.76,0-1.54-.14-2.29-.43-57.68-22.54-104.04-68.44-127.19-125.93-.3-.75-.46-1.55-.46-2.36v-24.91c0-9.19,7.48-16.67,16.67-16.67h386.65c9.19,0,16.67,7.48,16.67,16.67v25.08c0,.81-.16,1.61-.46,2.36-23.15,57.32-69.44,103.15-127,125.75-3.24,1.27-6.9-.32-8.17-3.56-1.27-3.24.32-6.9,3.56-8.17,53.97-21.19,97.45-64.02,119.46-117.61v-23.84c0-2.24-1.82-4.06-4.06-4.06H62.67c-2.24,0-4.06,1.82-4.06,4.06v23.68c22.01,53.75,65.55,96.63,119.63,117.77,3.24,1.27,4.84,4.92,3.58,8.17-.97,2.49-3.35,4.01-5.87,4.01Z" fill="#010101"></path>
    <path d="m459.7,298.36H52.3c-3.48,0-6.3-2.82-6.3-6.3s2.82-6.3,6.3-6.3h407.39c3.48,0,6.3,2.82,6.3,6.3s-2.82,6.3-6.3,6.3Z" fill="#010101"></path>
    <path d="m195.23,165.01c-1.61,0-3.23-.62-4.46-1.85-2.46-2.46-2.46-6.45,0-8.92l8.83-8.83c1.54-1.54,2.39-3.59,2.39-5.76s-.85-4.22-2.39-5.76c-8.1-8.1-8.1-21.27,0-29.36l9.21-9.21c2.46-2.46,6.45-2.46,8.92,0s2.46,6.45,0,8.92l-9.21,9.21c-1.54,1.54-2.39,3.59-2.39,5.76s.85,4.22,2.39,5.76c8.09,8.09,8.09,21.27,0,29.36l-8.83,8.83c-1.23,1.23-2.84,1.85-4.46,1.85Z" fill="#010101"></path>
    <path d="m287.86,165.01c-1.61,0-3.23-.62-4.46-1.85-2.46-2.46-2.46-6.45,0-8.92l8.83-8.83c3.18-3.18,3.18-8.35,0-11.53-8.1-8.1-8.1-21.27,0-29.36l9.21-9.21c2.46-2.46,6.45-2.46,8.92,0s2.46,6.45,0,8.92l-9.21,9.21c-1.54,1.54-2.39,3.59-2.39,5.76s.85,4.22,2.39,5.76c8.09,8.09,8.09,21.27,0,29.36l-8.83,8.83c-1.23,1.23-2.84,1.85-4.46,1.85Z" fill="#010101"></path>
    <path d="m241.54,165.01c-1.15,0-2.32-.32-3.36-.98-2.94-1.86-3.82-5.75-1.96-8.7l14.18-22.43c1.67-2.65,1.67-6.06,0-8.71l-10.68-16.91c-4.26-6.74-4.26-15.44,0-22.18.04-.06.07-.12.11-.17l13.27-19.56c1.96-2.88,5.88-3.63,8.76-1.68,2.88,1.96,3.63,5.88,1.68,8.76l-13.21,19.46c-1.62,2.64-1.61,6.01.05,8.64l10.68,16.91c4.26,6.74,4.26,15.44,0,22.18l-14.18,22.43c-1.2,1.9-3.24,2.94-5.34,2.94Z" fill="#010101"></path>
    <path d="m241.57,231.2c-23.19,0-51.21-18.29-51.21-41.01,0-3.48,2.82-6.3,6.3-6.3h55.32c22.25,0,44.32-3.3,65.6-9.8l128.3-39.21c1.82-.59,3.46-.66,4.55-.66,8.57,0,15.55,6.94,15.55,15.48,0,7.08-4.79,13.24-11.65,14.99l-163.8,41.45c-1.86.47-3.39,1.43-4.31,2.69-9.43,12.97-28.22,22.38-44.67,22.38Zm-37.29-34.7c4.93,12.04,22.9,22.09,37.29,22.09,12.32,0,27.47-7.55,34.47-17.19,2.65-3.64,6.7-6.31,11.41-7.5h0l.71-.18c-11.95,1.84-24.03,2.77-36.17,2.77h-47.71Zm246.16-49.67c-.49,0-.63.04-.65.04-.05.02-.1.03-.15.05l-113.09,34.56,114.69-29.02c1.24-.31,2.14-1.48,2.14-2.77,0-1.79-1.49-2.87-2.94-2.87Z" fill="#010101"></path>
  </g>
</symbol><symbol id="i041_soup-2" xmlns="http://www.w3.org/2000/svg" viewBox="0 0 512 512">
  <g id="pan">
    <path d="m132.87,192.66c.51,0,1.04-.06,1.55-.17l245.15-55.08c2.9-.65,5.08-3.03,5.48-5.97.39-2.94-1.09-5.82-3.7-7.2-42.45-22.52-81.05-27.96-114.63-24.12,2.04-5.28,2.47-11.04,1.2-16.69-3.5-15.56-19-25.38-34.56-21.88-15.55,3.5-25.37,19-21.88,34.56,1.39,6.18,4.76,11.52,9.49,15.56-58.49,22.89-93.22,68.92-93.81,69.71-1.75,2.39-1.84,5.6-.22,8.08,1.33,2.03,3.57,3.21,5.93,3.21Zm103.59-117.29c1.09-.24,2.17-.36,3.23-.36,6.74,0,12.85,4.67,14.39,11.51.87,3.84.18,7.79-1.92,11.12-2.11,3.33-5.39,5.64-9.24,6.5-3.82.85-7.79.18-11.11-1.93-3.33-2.1-5.64-5.38-6.5-9.22-1.78-7.93,3.23-15.84,11.15-17.62Zm8.47,42.73c.37-.07.73-.04,1.1-.12.69-.16,1.32-.45,1.99-.66,11.69-2.78,24.15-4.47,37.41-4.47,21.75,0,45.53,4.37,71.06,15.21l-204.18,45.87c16.97-17.53,48.98-44.58,92.62-55.84Z" fill="#010101"></path>
    <path d="m464.14,210.49c-2.64-2.89-7.12-3.09-10.01-.46l-53.96,49.23c-7.63-28.25-17.52-46.89-17.79-47.39-1.24-2.28-3.63-3.7-6.22-3.7h-240.08c-.34,0-.63.15-.95.19-.48.07-.94.12-1.4.28-.44.16-.82.39-1.22.63-.38.23-.75.44-1.09.74-.38.33-.66.73-.96,1.14-.19.25-.44.43-.6.71-.28.5-10.24,19.19-17.98,47.44l-54.01-49.27c-2.89-2.63-7.37-2.44-10.01.46-2.64,2.89-2.44,7.38.46,10.01l59.76,54.52c-10.31,49.06-10.04,117.94,46.5,174.08.13.13.31.18.45.3.56.48,1.15.93,1.84,1.21.87.36,1.78.55,2.71.55h193.09c1.9,0,3.71-.76,5.05-2.11,55.83-56.57,56.29-125.17,46.22-174.03l59.77-54.53c2.89-2.64,3.1-7.12.46-10.01Zm-114.48,226.5h-187.03c-79.89-81.95-32.53-193.13-22.19-214.63h231.34c10.28,21.47,57.03,131.77-22.12,214.63Z" fill="#010101"></path>
    <path d="m377.74,171.4c-3.61,1.52-5.3,5.67-3.79,9.28,1.14,2.71,3.77,4.34,6.54,4.34.92,0,1.85-.18,2.75-.56,21.51-9.04,33.07-32.04,27.48-54.7-.51-2.08,0-4.32,1.34-5.97l.8-.98c13.63-16.63,11.3-41.39-5.19-55.19l-.96-.81c-3-2.51-7.47-2.11-9.99.88-2.51,3-2.12,7.47.88,9.99l.97.81c10.56,8.83,12.05,24.68,3.33,35.32l-.8.98c-4.17,5.1-5.73,11.96-4.15,18.36,3.9,15.84-4.17,31.92-19.21,38.24Z" fill="#010101"></path>
    <path d="m347.94,259.22c-3.63,1.47-5.38,5.6-3.91,9.23.24.6,23.98,60.62.23,108.13-1.75,3.5-.33,7.76,3.17,9.51,1.02.51,2.1.75,3.16.75,2.6,0,5.1-1.43,6.35-3.92,26.65-53.31,1.32-117.1.23-119.79-1.47-3.63-5.61-5.37-9.23-3.9Z" fill="#010101"></path>
  </g>
</symbol><symbol id="i041_soup-3" xmlns="http://www.w3.org/2000/svg" viewBox="0 0 512 512">
  <g id="soup_1">
    <path d="m336.38,440.8h-160.76c-44.52,0-80.74-36.22-80.74-80.74v-138.24c0-3.48,2.82-6.3,6.3-6.3h309.63c3.48,0,6.3,2.82,6.3,6.3v138.24c0,44.52-36.22,80.74-80.74,80.74ZM107.49,228.13v131.93c0,37.57,30.56,68.13,68.13,68.13h160.76c37.57,0,68.13-30.56,68.13-68.13v-131.93H107.49Z" fill="#010101"></path>
    <path d="m311.94,420.32c-3.48,0-6.3-2.82-6.3-6.3s2.82-6.3,6.3-6.3c37.57,0,68.13-30.56,68.13-68.13,0-3.48,2.82-6.3,6.3-6.3s6.3,2.82,6.3,6.3c0,44.52-36.22,80.74-80.74,80.74Z" fill="#010101"></path>
    <path d="m410.81,285.05c-3.48,0-6.3-2.82-6.3-6.3v-56.92c0-3.48,2.82-6.3,6.3-6.3h48.79c3.29,0,6.03,2.54,6.29,5.82.09,1.19,2.05,29.46-15.21,48.1-9.59,10.36-23,15.61-39.86,15.61Zm6.3-56.92v43.99c10.22-1.07,18.37-4.84,24.31-11.25,9.43-10.19,11.51-24.74,11.89-32.75h-36.19Z" fill="#010101"></path>
    <path d="m101.19,285.05c-16.86,0-30.27-5.25-39.86-15.61-17.26-18.64-15.31-46.91-15.21-48.1.25-3.28,2.99-5.82,6.29-5.82h48.79c3.48,0,6.3,2.82,6.3,6.3v56.92c0,3.48-2.82,6.3-6.3,6.3Zm-42.48-56.92c.4,8.03,2.5,22.67,11.92,32.8,5.93,6.37,14.07,10.13,24.26,11.2v-43.99h-36.18Z" fill="#010101"></path>
    <path d="m103.73,198.09c-1.08,0-2.14-.28-3.1-.81-1.46-.82-2.53-2.19-2.98-3.8l-7.92-28.41c-1.48-5.29,1.63-10.8,6.92-12.28l291.19-81.22c2.56-.71,5.25-.39,7.57.92,2.32,1.31,3.99,3.44,4.7,6l7.92,28.41c.94,3.35-1.03,6.83-4.38,7.77L105.43,197.86c-.56.15-1.13.23-1.69.23Zm-1.14-33.87l5.52,19.79,286.1-79.8-5.52-19.79L102.59,164.22Z" fill="#010101"></path>
    <path d="m212.44,133.34c-2.76,0-5.29-1.82-6.07-4.61l-7.92-28.39c-.71-2.56-.39-5.25.92-7.57,1.31-2.32,3.44-3.99,6-4.7l53.05-14.8h0c5.29-1.48,10.8,1.63,12.27,6.92l7.92,28.39c.94,3.35-1.03,6.83-4.38,7.77l-60.1,16.76c-.57.16-1.14.23-1.7.23Zm-1.13-33.84l5.51,19.77,47.95-13.38-5.51-19.77-47.95,13.38Z" fill="#010101"></path>
    <path d="m125.37,305.03c-3.48,0-6.3-2.82-6.3-6.3v-48.44c0-3.48,2.82-6.3,6.3-6.3s6.3,2.82,6.3,6.3v48.44c0,3.48-2.82,6.3-6.3,6.3Z" fill="#010101"></path>
    <path d="m125.37,351.28c-3.48,0-6.3-2.82-6.3-6.3v-24.7c0-3.48,2.82-6.3,6.3-6.3s6.3,2.82,6.3,6.3v24.7c0,3.48-2.82,6.3-6.3,6.3Z" fill="#010101"></path>
  </g>
</symbol>
</svg>