<svg xmlns="http://www.w3.org/2000/svg" style="display: none;">

<symbol id="i061_food-1" xmlns="http://www.w3.org/2000/svg" viewBox="0 0 512 512">
  <path d="m426.77,301.67h-12.8c0-87.55-70.13-158.78-156.34-158.78s-156.34,71.23-156.34,158.78h-12.8c0-94.61,75.87-171.58,169.14-171.58s169.14,76.97,169.14,171.58Z"></path>
  <path d="m427.39,370.56h-105.39v-12.8h105.39c8.94,0,16.22-7.27,16.22-16.22v-17.26c0-8.94-7.27-16.22-16.22-16.22H84.61c-8.94,0-16.22,7.27-16.22,16.22v17.26c0,8.94,7.27,16.22,16.22,16.22h130.99v12.8H84.61c-16,0-29.02-13.02-29.02-29.02v-17.26c0-16,13.02-29.02,29.02-29.02h342.77c16,0,29.02,13.02,29.02,29.02v17.26c0,16-13.02,29.02-29.02,29.02Z"></path>
  <rect x="177.67" y="245.58" width="12.8" height="21.48"></rect>
  <rect x="249.6" y="245.58" width="12.8" height="21.48"></rect>
  <rect x="321.53" y="245.58" width="12.8" height="21.48"></rect>
  <rect x="215.26" y="190.34" width="12.8" height="21.48"></rect>
  <rect x="287.2" y="190.34" width="12.8" height="21.48"></rect>
  <path d="m145.76,350.9c-27.14,0-49.23-22.08-49.23-49.23h12.8c0,20.08,16.34,36.42,36.42,36.42s36.42-16.34,36.42-36.42h12.8c0,27.14-22.08,49.23-49.23,49.23Z"></path>
  <rect x="121.63" y="311.58" width="9.96" height="12.8" transform="translate(-204.23 230.31) rotate(-53.45)"></rect>
  <rect x="155.35" y="313" width="12.8" height="9.96" transform="translate(-157.57 158.88) rotate(-36.55)"></rect>
  <rect x="137.66" y="321.98" width="12.8" height="10.21"></rect>
  <rect x="250.34" y="46" width="12.8" height="116.42"></rect>
  <polygon points="348.51 114.19 256.74 114.19 256.74 101.39 307.43 101.39 281.24 83.31 308.1 64 256.74 64 256.74 51.19 347.83 51.19 303.47 83.1 348.51 114.19"></polygon>
  <path d="m383.81,426.08h-68.21v-124.4h12.8v111.6h55.41c17.36,0,31.49-16.58,31.49-36.96v-11.66h12.8v11.66c0,27.44-19.87,49.77-44.29,49.77Z"></path>
  <path d="m249.6,426.08v-45.48c0-12.32,10.03-22.35,22.35-22.35s22.35,10.03,22.35,22.35v45.48h-44.7Zm22.35-55.02c-5.26,0-9.55,4.28-9.55,9.55v32.67h19.09v-32.67c0-5.26-4.28-9.55-9.55-9.55Z"></path>
  <path d="m131.45,426.08c-24.42,0-44.29-22.32-44.29-49.77v-12.15h12.8v12.15c0,20.38,14.13,36.96,31.49,36.96h77.75v-111.6h12.8v124.4h-90.55Z"></path>
  <path d="m238.95,466h-6.3c-12.93,0-23.45-10.52-23.45-23.45v-22.87h12.8v22.87c0,5.87,4.78,10.65,10.65,10.65h6.3c5.87,0,10.65-4.78,10.65-10.65v-22.87h12.8v22.87c0,12.93-10.52,23.45-23.45,23.45Z"></path>
  <path d="m304.95,448.85c-12.93,0-23.45-10.52-23.45-23.45v-5.72h12.8v5.72c0,5.87,4.78,10.65,10.65,10.65s10.65-4.78,10.65-10.65v-5.72h12.8v5.72c0,12.93-10.52,23.45-23.45,23.45Z"></path>
</symbol><symbol id="i061_food-10" xmlns="http://www.w3.org/2000/svg" viewBox="0 0 512 512">
  <path d="m259.89,276.6l-3.19-12.2c35.63-9.31,59.57-39.88,59.57-76.07h12.61c0,20.8-6.79,40.31-19.65,56.4-12.35,15.47-29.87,26.79-49.34,31.87Z"></path>
  <path d="m303.23,387.46c-14.14,0-25.64-11.5-25.64-25.64v-39.77c0-6.55-5.33-11.88-11.88-11.88s-11.88,5.33-11.88,11.88v19.69c0,13.73-11.17,24.9-24.9,24.9s-24.9-11.17-24.9-24.9v-59.35c-43.77-12.49-73.25-53.61-70.69-99.66,1.32-23.6,11.28-45.97,28.04-63,16.77-17.04,38.99-27.33,62.56-28.99,27.5-1.94,53.7,7.3,73.77,26,19.79,18.45,31.14,44.54,31.14,71.58v173.49c0,14.14-11.5,25.64-25.64,25.64Zm-37.52-89.9c13.5,0,24.49,10.98,24.49,24.49v39.77c0,7.19,5.85,13.03,13.03,13.03s13.03-5.85,13.03-13.03v-173.49c0-23.56-9.89-46.29-27.13-62.36-17.48-16.29-40.31-24.34-64.28-22.65-42.6,3-76.52,37.44-78.9,80.12-2.32,41.6,25.36,78.59,65.82,87.93,2.86.66,4.89,3.21,4.89,6.14v64.23c0,6.78,5.51,12.29,12.29,12.29s12.29-5.51,12.29-12.29v-19.69c0-13.5,10.99-24.49,24.49-24.49Z"></path>
  <path d="m253.49,466c-12.84,0-26.11-1.52-39.78-4.57-70.97-15.83-95.43-65.16-103.44-103.75-7.37-35.5-2.53-67.83-.85-77.03-5.32-8.9-23.98-42.77-24.11-80.66-.15-43.75,16.94-83.58,48.1-112.16,32.43-29.73,77.74-45.15,121.21-41.23,32.45,2.93,61.18,12.13,85.39,27.35,21.83,13.73,40.03,32.35,54.09,55.33,24.17,39.53,30.9,83.05,32.28,112.59,1.72,36.66-3.82,73.86-15.18,102.05-15.39,38.17-39.43,70.82-67.69,91.94-26.84,20.05-57,30.13-90.01,30.13Zm-12.36-407.39c-36.08,0-72.41,13.95-99.2,38.52-20.18,18.5-44.19,51.36-44.02,102.82.13,39.47,23.22,75.71,23.46,76.07.91,1.41,1.22,3.13.86,4.77-.08.35-7.65,36.13.45,74.7,10.64,50.63,42.19,82.13,93.76,93.64,13.07,2.92,25.34,4.24,36.83,4.24,92.31,0,134.59-85.29,146.23-114.14,20.84-51.69,22.26-140.53-16.16-203.36-27.91-45.64-71.6-71.45-129.85-76.7-4.11-.37-8.23-.55-12.36-.55Z"></path>
  <path d="m188.25,191.12h-12.61c0-31.4,25.54-56.94,56.94-56.94v12.61c-24.44,0-44.33,19.89-44.33,44.33Z"></path>
</symbol><symbol id="i061_food-11" xmlns="http://www.w3.org/2000/svg" viewBox="0 0 512 512">
  <path d="m149.02,448.36c-20.66,0-38.51-6-50.95-18.44-20.17-20.17-24.73-55.32-11.61-89.53l11.77,4.52c-11.34,29.57-7.91,59.44,8.75,76.1,27.62,27.62,91.61,15.3,145.69-28.04l7.89,9.84c-37.13,29.76-78.03,45.56-111.55,45.56Z"></path>
  <path d="m100.99,352.35c-2.95-.07-5.75-.74-8.33-1.99-13.47-6.53-16.78-26.57-7.54-45.64,4.19-8.65,10.4-15.77,17.48-20.07,7.83-4.75,16.22-5.58,23.01-2.29,3.6,1.74,6.53,4.47,8.72,8.11l-10.81,6.49c-.9-1.5-2.05-2.6-3.41-3.26-3.92-1.9-8.56.27-10.97,1.73-4.96,3-9.57,8.39-12.67,14.78-6.47,13.35-4.3,25.88,1.69,28.79.95.46,2.01.71,3.15.74l-.32,12.61Z"></path>
  <path d="m232.6,266.86c-2.74-.69-5.3-1.83-7.61-3.41-6.33-4.31-10.17-11.3-10.81-19.68-.6-7.86,1.71-16.08,6.53-23.15,4.81-7.07,11.61-12.24,19.15-14.55,8.04-2.47,15.95-1.46,22.27,2.85,3.24,2.21,5.83,5.12,7.71,8.67l-11.15,5.89c-.91-1.71-2.14-3.11-3.66-4.15-3.1-2.11-7.17-2.54-11.47-1.22-4.81,1.48-9.22,4.89-12.43,9.6-3.21,4.71-4.76,10.07-4.38,15.08.34,4.49,2.24,8.12,5.34,10.23,1.08.74,2.28,1.27,3.58,1.6l-3.07,12.23Z"></path>
  <path d="m227.2,178.86c-2.37-.58-4.54-1.6-6.46-3.02-10.12-7.49-10.41-23.67-.66-36.85,4.41-5.96,10.28-10.38,16.53-12.45,6.93-2.3,13.82-1.46,18.91,2.31,2.68,1.99,4.72,4.63,6.05,7.84l-11.65,4.83c-.44-1.07-1.08-1.92-1.9-2.53-2.39-1.77-5.68-1.06-7.43-.48-3.75,1.24-7.53,4.15-10.36,7.99-5.83,7.87-5.72,16.45-1.98,19.21.58.43,1.23.73,1.98.91l-3.01,12.25Z"></path>
  <path d="m263.87,405.52c-6.16,0-11.77-2-15.97-5.8-3-2.71-5.14-6.14-6.36-10.19l12.07-3.65c.55,1.83,1.48,3.34,2.76,4.5,3.59,3.25,8.76,2.69,11.53,2.07,5.49-1.24,11.23-4.8,15.73-9.78,4.5-4.98,7.48-11.03,8.17-16.62.35-2.81.39-8.01-3.2-11.27-.9-.81-1.97-1.44-3.17-1.87l4.21-11.89c2.78.99,5.28,2.47,7.42,4.41,5.71,5.17,8.35,13.24,7.26,22.16-1.01,8.23-5.04,16.59-11.34,23.55-6.3,6.96-14.22,11.79-22.31,13.61-2.31.52-4.59.78-6.79.78Z"></path>
  <path d="m349.3,199c-1.86,0-3.73-.3-5.6-.9l3.85-12.01c1,.32,1.96.38,2.86.17,4.18-.98,7.37-8.29,5.28-17.21-1.03-4.36-3.2-8.28-5.97-10.74-1.27-1.13-3.8-2.93-6.42-2.31-.63.15-1.21.42-1.78.83l-7.4-10.21c1.91-1.39,4.03-2.36,6.28-2.89,5.97-1.4,12.41.48,17.69,5.16,4.74,4.21,8.24,10.34,9.87,17.28,3.62,15.37-2.83,29.59-14.66,32.37-1.32.31-2.65.47-3.99.47Z"></path>
  <path d="m172.43,396.06c-1.83,0-3.63-.15-5.37-.46-7.47-1.32-13.35-5.48-16.14-11.42-1.47-3.13-2.03-6.54-1.66-10.13l12.54,1.29c-.13,1.28.05,2.45.53,3.48,1.4,2.98,4.93,4.01,6.91,4.36,4.17.74,9.21-.08,13.83-2.25,4.62-2.16,8.47-5.52,10.57-9.19,1-1.75,2.46-5.13,1.07-8.1-.34-.72-.83-1.38-1.45-1.95l8.47-9.34c1.87,1.69,3.35,3.69,4.4,5.94,2.79,5.94,2.23,13.13-1.53,19.71-3.41,5.97-9.15,11.07-16.16,14.36-5.21,2.44-10.73,3.71-16,3.71Z"></path>
  <path d="m275.37,111.36l-10.36-7.2c.48-.7,11.94-17.82,1.41-32.8-10.03-14.26-30.67-16.28-30.88-16.3l-6.05-.55,1.35-25.85,5.68-.29c1.26-.06,31.07-1.33,57.47,18.79,33.36,25.41,39.43,60.24,39.67,61.71l-12.44,2.05,6.22-1.02-6.22,1.04c-.05-.31-5.64-31.47-34.87-53.74-16.31-12.42-34.54-15.38-43.54-16.05l-.12,2.32c8.63,1.84,24.43,6.96,34.05,20.63,15.64,22.24-.67,46.23-1.37,47.25Z"></path>
  <path d="m302.08,361.31l-9.77-7.98c55.01-67.37,60.21-131.28,58.42-163.38l12.59-.7c1.89,33.92-3.54,101.39-61.24,172.06Z"></path>
  <path d="m344.48,153.05c-8.2-27.27-23.57-46.06-40.12-49.03-17.39-3.11-31.57,5.48-52.32,31.73l-9.89-7.82c19.9-25.17,38.46-40.98,64.44-36.32,21.58,3.87,40.26,25.48,49.98,57.81l-12.08,3.63Z"></path>
  <path d="m125.81,290.7l-10.47-7.03c11.11-16.54,25.34-33.63,40.06-48.11,25.81-25.39,44.84-50.66,60.66-72.35l10.19,7.43c-17.29,23.72-36.77,49.09-62,73.91-14.13,13.9-27.78,30.29-38.44,46.15Z"></path>
</symbol><symbol id="i061_food-12" xmlns="http://www.w3.org/2000/svg" viewBox="0 0 512 512">
  <path d="m256,466c-35.09,0-67.36-9.41-90.87-26.5-24.96-18.14-38.7-44.13-38.7-73.18,0-39.07,50.04-98.46,92.02-141.41l9.02,8.81c-57.03,58.34-88.43,105.43-88.43,132.6,0,25.27,11.59,47.05,33.51,62.98,21.38,15.54,51.02,24.09,83.46,24.09s62.08-8.56,83.46-24.09c21.92-15.93,33.51-37.71,33.51-62.98,0-27.22-31.4-74.31-88.43-132.59l9.01-8.82c41.98,42.91,92.02,102.27,92.02,141.41,0,29.05-13.75,55.04-38.7,73.18-23.51,17.09-55.79,26.5-90.87,26.5Z"></path>
  <path d="m294.6,241.34l-9.33-6.98c-.07-.05-11-7.82-29.84-7.39-17.06.38-29.05,7.64-29.17,7.71l-8.42,5.18-1.15-9.82c-.18-1.53-4.39-37.55-5.44-49.97-.58-6.86-1.82-24.54-.83-40.6.87-13.91,3.5-32.56,16.32-33.87,9.86-1.01,17.22,10.81,24.83,40.41l1.04-30.21c.07-22.77,4.29-53.37,15.99-64.85,4.25-4.17,8.6-5.02,11.49-4.95,14.53.23,17.59,20.52,18.6,27.18,1.88,12.42,2.11,27.89,2.08,42.74-.05,28.24-5.22,110.31-5.45,113.79l-.74,11.63Zm-66.93-122.68c-1.18,1.57-4,7.05-4.8,24.09-.68,14.64.43,30.23.94,36.26.72,8.51,3.04,29.04,4.39,40.84,6.31-2.49,15.72-5.24,26.94-5.49,12.2-.27,21.77,2.31,28.2,4.91,1.4-23.08,4.79-81.16,4.83-103.36.02-14.36-.19-29.25-1.94-40.84-2.03-13.45-5.26-16.44-6.33-16.45-.27,0-1.08-.02-2.46,1.34-6.9,6.78-12.15,30.84-12.22,55.98v.2s-2.92,84.62-2.92,84.62l-12.54.7c-.03-.2-2.97-20.04-7.58-40.56-7.1-31.58-12.57-40.09-14.5-42.24Z"></path>
  <path d="m269.4,465.08l-5.94-11.12,2.97,5.56-2.98-5.55c.15-.08,14.84-8.11,28-24.52,17.38-21.67,24.08-47.1,19.92-75.58-4.43-30.35-16.34-55.12-35.38-73.64-11.66-11.34-22.59-16.73-26.24-18.34-7.62,1.02-44.95,7.53-81.3,40.1l-8.41-9.39c43.88-39.3,88.24-43.29,90.11-43.44l1.37-.11,1.29.47c.62.23,15.36,5.71,31.46,21.18,14.7,14.12,33.5,39.7,39.58,81.35,5.87,40.22-9.21,68.81-22.9,85.72-14.77,18.24-30.86,26.96-31.54,27.32Z"></path>
</symbol><symbol id="i061_food-13" xmlns="http://www.w3.org/2000/svg" viewBox="0 0 512 512">
  <path d="m362.48,462.52c-24.43,0-43.24-5.69-59.84-10.7-14.83-4.48-28.81-8.71-46.63-8.71s-30.28,3.69-44.93,7.97c-17.55,5.12-37.42,10.92-66.64,10.92-27.47,0-51.14-9.84-68.46-28.45-23.01-24.73-32.85-62.67-29.24-112.77,3.78-52.43,28.38-118.16,64.19-171.55,43.15-64.32,94.66-99.74,145.06-99.74s98.41,34.13,141.62,96.09c37.68,54.04,63.59,121.15,67.63,175.13,3.71,49.61-6.02,87.28-28.91,111.95-18.13,19.54-43.67,29.87-73.84,29.87Zm-106.47-32.02c19.69,0,34.54,4.49,50.26,9.25,15.78,4.77,33.64,10.17,56.21,10.17,26.58,0,48.91-8.93,64.6-25.83,20.41-21.99,29.02-56.46,25.58-102.43-3.88-51.86-28.94-116.56-65.4-168.86-40.19-57.64-88.03-90.69-131.27-90.69-46.06,0-93.86,33.44-134.59,94.15-34.66,51.67-58.45,115.07-62.08,165.44-3.35,46.46,5.36,81.21,25.89,103.27,14.87,15.98,35.35,24.43,59.23,24.43,27.42,0,46.37-5.53,63.09-10.41,15.6-4.55,29.05-8.48,48.48-8.48Zm106.47-9.97c-18.23,0-31.88-4.13-47.69-8.91-16.3-4.93-34.75-10.51-58.78-10.51s-40.45,4.91-56.7,9.65c-16.29,4.75-31.66,9.24-54.87,9.24-15.73,0-28.42-5.07-37.72-15.07-14.54-15.62-20.79-43.68-18.09-81.14,3.24-44.88,25.68-104.22,57.18-151.18,34.59-51.57,74.76-81.14,110.19-81.14,33.39,0,73.88,29.92,108.32,80.02,32.49,47.27,55.67,107.07,59.05,152.33,2.76,36.96-3.4,64.71-17.82,80.25-10.12,10.91-24.61,16.44-43.06,16.44Zm-106.47-32.02c25.9,0,45.3,5.87,62.42,11.04,14.87,4.49,27.7,8.37,44.06,8.37,14.8,0,26.17-4.17,33.81-12.41,11.97-12.9,16.98-37.36,14.48-70.73-3.23-43.21-25.56-100.57-56.87-146.13-32.08-46.68-68.69-74.56-97.92-74.56-31.16,0-67.51,27.54-99.72,75.56-30.37,45.27-51.98,102.21-55.07,145.06-2.44,33.88,2.66,58.65,14.75,71.64,6.82,7.33,16.4,11.05,28.49,11.05,21.41,0,35.94-4.24,51.32-8.73,17.12-5,34.81-10.16,60.25-10.16Z"></path>
  <rect x="126.42" y="205.03" width="187.6" height="12.61" transform="translate(-84.93 217.61) rotate(-45)"></rect>
  <rect x="123.71" y="264.4" width="239.02" height="12.61" transform="translate(-120.19 251.54) rotate(-45.04)"></rect>
  <rect x="216.4" y="290.06" width="166.6" height="12.61" transform="translate(-121.78 298.72) rotate(-45)"></rect>
  <rect x="285.97" y="117.53" width="12.61" height="187.6" transform="translate(-63.83 268.57) rotate(-45)"></rect>
  <rect x="263.53" y="150.79" width="12.61" height="239.82" transform="translate(-112.38 271.09) rotate(-45.15)"></rect>
  <rect x="206.49" y="213.07" width="12.61" height="166.6" transform="translate(-147.24 237.27) rotate(-45)"></rect>
</symbol><symbol id="i061_food-14" xmlns="http://www.w3.org/2000/svg" viewBox="0 0 512 512">
  <path d="m257.22,458.69c-66.92,0-122.37-21.37-160.37-61.79-32.79-34.88-50.85-81.89-50.85-132.37s23.84-104.26,65.4-145.82c41.56-41.56,94.71-65.4,145.82-65.4s103.72,23.85,144.64,65.43c40.76,41.42,64.14,94.56,64.14,145.78s-18.06,98.9-50.86,133.6c-37.44,39.61-92.05,60.55-157.92,60.55Zm0-392.77c-100.23,0-198.61,98.38-198.61,198.61,0,90.37,61.41,181.55,198.61,181.55s196.17-91.18,196.17-181.55c0-100.23-97.17-198.61-196.17-198.61Z"></path>
  <path d="m257.05,431.31c-57.84,0-105.78-18.48-138.65-53.45-28.37-30.18-44-70.85-44-114.52s20.61-90.18,56.54-126.11,81.9-56.54,126.11-56.54,89.72,20.62,125.1,56.57c35.24,35.81,55.45,81.76,55.45,126.07s-15.63,85.55-44.01,115.58c-32.39,34.27-79.61,52.39-136.54,52.39Zm0-338c-85.81,0-170.04,84.22-170.04,170.04,0,77.33,52.58,155.35,170.04,155.35s167.94-78.03,167.94-155.35c0-85.81-83.19-170.04-167.94-170.04Z"></path>
  <path d="m358.77,264.01c-6.24,0-13.14-.14-20.25-.53-35.05-1.91-56.08-8.63-64.29-20.54-7.94-11.52-7.59-32.58,1.07-64.37,6.09-22.35,14.06-41.46,14.4-42.26l2.34-5.58,5.67,2.11c51.97,19.33,91.66,71.33,94.36,123.66l.32,6.15-6.14.46c-.66.05-12.08.9-27.48.9Zm-59.77-117.07c-11.47,29.21-24.1,74.75-14.38,88.85,10.01,14.53,60.67,16.99,94.35,15.16-4.9-43.48-37.34-85.69-79.97-104.01Z"></path>
  <path d="m256.74,377.8c-30.15,0-56.49-6.58-78.3-19.57l-5.29-3.15,3.02-5.36c.5-.89,12.51-22.12,28.38-43.47,22.66-30.5,40.82-44.81,55.47-43.79,14,.98,30.9,15.76,51.66,45.19,14.61,20.72,25.5,40.83,25.96,41.68l2.83,5.25-5.09,3.12c-21.78,13.34-48.24,20.11-78.64,20.11Zm-66.38-27.35c18.75,9.79,41.05,14.74,66.38,14.74s48.08-5.13,66.84-15.25c-17.11-30.39-47.24-73.71-64.44-74.91-4.47-.31-17.77,2.83-44.4,38.65-10.71,14.4-19.79,29.08-24.38,36.77Z"></path>
  <path d="m132.88,268.64c-4.16,0-6.72-.06-7.03-.07l-6.14-.16v-6.15c0-26.09,9.71-53.52,27.35-77.24,17.08-22.97,40.44-41.12,65.77-51.12l5.47-2.16,2.54,5.3c.38.8,9.47,19.91,16.7,42.26,10.31,31.88,11.43,53.03,3.42,64.66-8.15,11.82-29.65,19.26-65.73,22.73-17.31,1.67-33.48,1.94-42.35,1.94Zm-.35-12.58c35.09.21,87.93-4.57,98.05-19.25,9.67-14.03-5.42-59.72-18.58-88.87-43.72,19.71-76.58,64.48-79.46,108.12Z"></path>
  <rect x="193.43" y="173.06" width="12.61" height="17.8" transform="translate(-69.7 161.77) rotate(-38.05)"></rect>
  <rect x="158.94" y="219.11" width="12.61" height="17.8" transform="translate(-108.13 295.57) rotate(-67.95)"></rect>
  <rect x="174.5" y="193.33" width="12.61" height="17.5" transform="translate(-89.77 219.93) rotate(-51.95)"></rect>
  <rect x="340.37" y="219.15" width="17.8" height="12.61" transform="translate(-62.86 170.99) rotate(-25.31)"></rect>
  <rect x="303.05" y="175.36" width="17.8" height="12.61" transform="translate(-15.21 334.24) rotate(-55.22)"></rect>
  <rect x="325.06" y="196.25" width="17.5" height="12.61" transform="translate(-52.88 256.7) rotate(-39.22)"></rect>
  <rect x="221.61" y="333.89" width="17.8" height="12.61" transform="translate(-158.41 472.91) rotate(-74.72)"></rect>
  <rect x="281.74" y="331.45" width="12.61" height="17.8" transform="translate(-76.61 83.77) rotate(-14.63)"></rect>
  <rect x="249.2" y="337.05" width="17.5" height="12.61" transform="translate(-91.47 593.03) rotate(-88.63)"></rect>
</symbol><symbol id="i061_food-15" xmlns="http://www.w3.org/2000/svg" viewBox="0 0 512 512">
  <path d="m193.8,331.99c-2.01,0-3.95-.95-5.18-2.64-6.75-9.32-20.23-16.5-35.84-24.82-32.57-17.37-73.11-38.98-88.75-96.33-8.96-32.86-2.36-67.63,4.03-101.26,1.13-5.97,2.31-12.15,3.38-18.23,4.31-24.51,11.45-37.72,22.46-41.58,13.97-4.89,28.97,6.92,43.13,19.43,2.17,1.92,4.35,3.84,6.53,5.75,28.36,24.92,57.68,50.69,71.52,85.25,22.33,55.79,7.32,96.17-4.75,128.63-5.57,14.99-10.39,27.94-10.16,39.28.06,2.79-1.71,5.3-4.36,6.19-.67.22-1.35.33-2.03.33ZM100.61,58.8c-.88,0-1.71.13-2.48.4-3.39,1.19-9.72,6.88-14.1,31.73-1.08,6.16-2.27,12.38-3.41,18.4-6.4,33.68-12.44,65.5-4.25,95.51,14.18,52.02,52.02,72.2,82.43,88.41,11.47,6.12,21.89,11.67,30.05,18.23,1.93-9.33,5.54-19.06,9.51-29.74,11.3-30.39,25.36-68.22,4.86-119.42-12.7-31.72-39.6-55.36-68.09-80.4-2.19-1.92-4.38-3.85-6.56-5.77-9.87-8.72-20.7-17.34-27.97-17.34Z"></path>
  <path d="m326.93,342.38c-27.66,0-46.68-12.89-62.72-23.76-10.14-6.88-18.91-12.81-27.43-13.6-2.76-.25-5.04-2.25-5.65-4.95-.61-2.7.59-5.49,2.97-6.9,7.35-4.37,12.69-13.65,18.87-24.39,12.87-22.38,28.89-50.22,74.68-57.75,29.51-4.85,59.36,5.22,88.24,14.95l4.17,1.41c17.92,6.02,29.5,11.81,31.85,22.07,2.37,10.32-5.57,20.63-19.15,33.92l-1.56,1.53c-22.34,21.89-45.44,44.52-74.85,53.04-10.82,3.13-20.57,4.46-29.42,4.46Zm-76.39-46.73c7.02,3.01,13.81,7.61,20.85,12.38,19.96,13.53,42.58,28.86,81.42,17.61,26.32-7.62,48.25-29.11,69.46-49.89l1.56-1.53c11.2-10.97,16.46-18.35,15.63-21.94-.81-3.54-8.7-7.85-23.46-12.8l-4.19-1.41c-27.39-9.24-55.72-18.79-82.08-14.45-39.81,6.55-53.55,30.44-65.67,51.51-4.3,7.47-8.45,14.68-13.51,20.51Z"></path>
  <path d="m235.06,440.85h-.14c-33.33-.07-51.57-19.39-64.89-33.5-6.21-6.58-11.58-12.26-16.69-14.31-2.56-1.03-4.18-3.58-4-6.33.17-2.75,2.09-5.09,4.76-5.78,5.33-1.4,11.3-6.09,18.21-11.53,14.95-11.77,35.42-27.88,68.57-23.8,21.09,2.6,39.21,15.44,56.73,27.85l2.55,1.81c12.74,9,19.56,15.37,19.1,23.2-.49,8.34-8.59,13.16-21.78,20.33l-.91.49c-19.49,10.6-39.63,21.57-61.51,21.57Zm-66.37-52.86c3.5,3.04,6.94,6.68,10.63,10.59,13.02,13.8,27.79,29.43,55.62,29.49h.11c18.63,0,37.32-10.17,55.4-20.01l.91-.5c4.49-2.44,13.71-7.46,15.07-9.88-.41-1.1-2.64-4.2-13.66-11.99l-2.56-1.81c-16.98-12.03-33.01-23.38-50.91-25.59-27.85-3.44-44.45,9.63-59.09,21.15-4.03,3.17-7.78,6.13-11.52,8.55Z"></path>
  <path d="m128.36,466c-.13-1.4-3.03-34.79,16.23-76.45,11.25-24.34,27.79-46.48,49.15-65.82,26.51-23.99,60.57-43.68,101.21-58.52,1.03-.37,24.86-8.84,54.15-12.71l1.67,12.67c-27.87,3.68-51.25,11.98-51.48,12.06-69.48,25.36-118.87,65.83-142.8,117.01-18.06,38.65-15.44,70.25-15.41,70.56l-12.73,1.19Z"></path>
  <path d="m187.42,325.99c-.04-.6-4.26-61.1-49.43-120.83l10.2-7.71c47.62,62.97,51.84,125.15,51.99,127.77l-12.76.77Z"></path>
  <path d="m236.09,399.16c-39.3-8.04-79.58-5.69-79.98-5.67l-.79-12.76c1.71-.11,42.32-2.48,83.33,5.91l-2.56,12.52Z"></path>
</symbol><symbol id="i061_food-16" xmlns="http://www.w3.org/2000/svg" viewBox="0 0 512 512">
  <path d="m249.59,466c-1.04,0-2.07-.25-3-.76-7.96-4.31-17.32-8.74-27.22-13.42-27.32-12.92-61.32-28.99-91.32-54.71-35.37-30.31-58.16-67.68-69.67-114.25-16.32-66.03-9.71-122.3-1.29-157.88,9.31-39.37,25.18-70.83,38.58-76.5,11.52-4.88,27.36-2.57,47.08,6.86,25.55,12.22,54.79,35.19,80.22,63,27.75,30.35,47.53,62.85,55.7,91.52,12.51,43.92,16.23,84.91,11.35,125.3-4.2,34.84-13.99,63.31-22.63,88.42-4.59,13.34-8.92,25.93-11.66,37.55-.45,1.91-1.77,3.5-3.56,4.3-.82.37-1.7.55-2.58.55ZM108.83,58.63c-3.17,0-5.94.48-8.25,1.46-5.7,2.41-21.21,25.46-31.22,67.8-8.1,34.23-14.45,88.37,1.26,151.95,24.55,99.31,99.45,134.72,154.13,160.58,7.28,3.44,14.28,6.75,20.72,10.01,2.75-9.87,6.29-20.17,9.99-30.94,17.01-49.47,38.18-111.04,11.07-206.17-16.48-57.84-81.34-123.69-129.24-146.6-11.16-5.34-20.94-8.09-28.47-8.09Z"></path>
  <path d="m243.3,460.06c-.06-.95-6.33-96.23-68.16-190.25l10.53-6.93c33.32,50.66,50.63,101.28,59.28,134.82,9.4,36.43,10.88,60.62,10.94,61.63l-12.59.73Z"></path>
  <path d="m251.06,465.83l-2.92-12.26c.85-.2,1.84-.43,2.94-.69,85.08-19.78,144.8-60.51,177.5-121.05,21.79-40.35,29.69-136.53,14.82-180.56-3.23-9.58-7.44-15.95-11.83-17.93-8.83-3.99-32.06-1.78-64.05,12.14-33.64,14.64-66.48,37.36-92.45,63.98l-9.02-8.81c27.09-27.76,61.34-51.47,96.44-66.74,32.21-14.01,59.97-18.53,74.27-12.07,7.84,3.54,14.1,12.08,18.59,25.39,7.42,21.97,10.08,57.76,7.12,95.72-3.05,39.12-11.36,73.69-22.79,94.86-22.1,40.92-56.46,73.71-102.11,97.45-36.34,18.9-69.47,26.6-83.62,29.89-1.08.25-2.04.47-2.87.67Z"></path>
  <path d="m254.21,463.99l-9.23-8.59c.95-1.02,94.95-102.92,127.84-212.07l12.07,3.64c-17.66,58.61-52.26,114.5-78.17,151.06-28.02,39.53-52.27,65.7-52.52,65.96Z"></path>
</symbol><symbol id="i061_food-17" xmlns="http://www.w3.org/2000/svg" viewBox="0 0 512 512">
  <path d="m215.12,225.45l-11.24-5.72c11.46-22.49,28.35-40.83,48.86-53.03l6.45,10.84c-18.46,10.98-33.7,27.55-44.07,47.92Z"></path>
  <path d="m449.28,280.11h-12.61c0-65.26-53.09-118.35-118.35-118.35-20.86,0-41.33,5.47-59.2,15.81l-3.16,1.83-3.16-1.82c-17.89-10.34-38.34-15.81-59.14-15.81-65.26,0-118.35,53.09-118.35,118.35h-12.61c0-72.21,58.75-130.96,130.96-130.96,21.79,0,43.25,5.43,62.29,15.74,19.02-10.31,40.51-15.74,62.36-15.74,72.21,0,130.96,58.75,130.96,130.96Z"></path>
  <path d="m256,466c-106.58,0-193.28-86.71-193.28-193.28h12.61c0,99.62,81.05,180.67,180.67,180.67s176.75-76.22,180.54-173.53l12.6.49c-1.94,50.01-22.9,96.72-59,131.53-36.2,34.9-83.84,54.12-134.14,54.12Z"></path>
  <path d="m262.27,169.68h-12.61c0-45.56,36.76-81.25,83.69-81.25,30.23,0,57.63,15.01,71.52,39.16,1.25,2.17,1.09,4.88-.4,6.9-1.49,2.02-4.04,2.95-6.48,2.39-4.52-1.04-17.71-3.75-24.41-3.75-21.56,0-41.71,9.62-55.29,26.4l-9.8-7.93c15.98-19.75,39.71-31.08,65.09-31.08,3.11,0,7.03.42,10.92.99-12.71-12.87-31.17-20.46-51.15-20.46-39.86,0-71.08,30.15-71.08,68.64Z"></path>
  <path d="m262.27,172.11h-12.61c0-39.19-31.87-71.08-71.04-71.08-18.85,0-37.96,9.1-49.9,20.02,3.2-.37,6.43-.55,9.67-.55,25.38,0,49.1,11.33,65.08,31.07l-9.8,7.93c-13.58-16.77-33.73-26.39-55.28-26.39-8,0-15.85,1.32-23.32,3.91-2.41.84-5.08.14-6.78-1.76-1.69-1.9-2.08-4.64-.97-6.94,9.32-19.27,40.2-39.9,71.29-39.9,46.13,0,83.65,37.54,83.65,83.69Z"></path>
  <path d="m232.84,111.98l-12.55-1.19c2.29-24.2,13.45-46.62,31.42-63.13,2.4-2.21,6.09-2.22,8.51-.02,17.83,16.2,29,38.4,31.44,62.5l-12.55,1.27c-1.93-19-10.08-36.65-23.12-50.28-13.18,13.9-21.34,31.74-23.16,50.86Z"></path>
  <path d="m105.08,337.08c-23.39-50.99-15.49-103.6,19.23-127.95l7.24,10.32c-29.65,20.8-35.82,67-15.01,112.37l-11.46,5.26Z"></path>
  <path d="m190.1,421.24c-9.17-4.6-18.05-10.42-26.4-17.31l8.02-9.73c7.62,6.29,15.71,11.59,24.04,15.77l-5.66,11.27Z"></path>
  <path d="m347.52,286.41c-24.96,0-45.27-22.11-45.27-49.29s20.31-49.29,45.27-49.29,45.27,22.11,45.27,49.29-20.31,49.29-45.27,49.29Zm0-85.98c-18.01,0-32.66,16.46-32.66,36.68s14.65,36.68,32.66,36.68,32.66-16.46,32.66-36.68-14.65-36.68-32.66-36.68Z"></path>
</symbol><symbol id="i061_food-18" xmlns="http://www.w3.org/2000/svg" viewBox="0 0 512 512">
  <rect x="84.61" y="282.34" width="311.36" height="12.73"></rect>
  <path d="m372.09,270.01L143.15,117.92l3.52-5.3c20.68-31.13,52.02-52.49,88.24-60.17,36.27-7.68,73.09-.72,103.69,19.61,30.6,20.33,51.29,51.57,58.27,87.99,6.97,36.37-.58,73.54-21.26,104.66l-3.52,5.3ZM160.92,114.45l207.48,137.84c16.24-27.18,21.91-58.84,15.97-89.84-6.33-33.03-25.08-61.36-52.81-79.78-27.72-18.42-61.11-24.72-94.01-17.76-30.88,6.54-57.87,24.04-76.63,49.54Z"></path>
  <path d="m356.24,156.25c-3.92-12.91-10.29-24.59-18.95-34.72l9.68-8.27c9.8,11.48,17.02,24.7,21.45,39.29l-12.18,3.7Z"></path>
  <path d="m317.42,103.94c-21.56-14.32-47.53-19.28-73.13-13.98l-2.58-12.46c28.95-6,58.34-.37,82.75,15.84l-7.04,10.6Z"></path>
  <path d="m203.18,108.99l-7.82-10.04c5.73-4.47,11.93-8.39,18.4-11.67l5.74,11.36c-5.75,2.91-11.24,6.39-16.33,10.35Z"></path>
  <path d="m390.47,453.96c-.19-.09-18.82-9.29-33.98-17.32-26.47-14.01-38.11-15.81-59.24-19.08-3.11-.48-6.41-.99-9.97-1.57-2.5-.41-5.78-.65-9.24-.9-8.91-.65-19.01-1.39-25.36-5.58-21.77-14.38-33.53-27.24-43.91-38.58-13.46-14.71-24.09-26.33-52.23-36.79-3.21-1.19-5.04-4.33-4.45-7.63,1.55-8.64,19.57-10.92,28.88-10.92,26.93,0,43.31,15.12,57.75,28.46,12.96,11.96,24.15,22.3,41.29,22.33h.06c3.9,0,5.57-.81,5.92-1.15.48-2.19-5.13-11.44-17.95-16.23-7.09-2.66-11.91-8.74-12.57-15.88-.6-6.42,2.36-12.42,7.7-15.64,18.15-10.95,43.43,6.24,53.46,14.14,27.58,21.72,46.71,34.97,74.68,47.12,2.13.92,4.7,2.06,7.39,3.25,6.03,2.67,15.15,6.7,17.05,7.26l-3.57,12.22c-2.51-.73-9.01-3.58-18.63-7.83-2.66-1.18-5.2-2.3-7.31-3.22-29.25-12.71-49.05-26.4-77.49-48.8-12.2-9.6-29.74-18.84-39.01-13.24-1.65,1-1.67,2.83-1.6,3.57.08.85.63,3.73,4.36,5.13,16.29,6.1,27.95,19.76,26,30.47-.63,3.48-3.7,11.56-18.44,11.56h-.09c-22.1-.05-36.23-13.09-49.89-25.71-13.97-12.9-27.16-25.08-49.12-25.08-1.85,0-3.56.08-5.13.21,20.52,9.99,30.77,21.2,42.32,33.82,9.88,10.8,21.08,23.04,41.54,36.55,3.58,2.36,12.28,3,19.27,3.51,3.76.28,7.31.53,10.37,1.03,3.53.58,6.79,1.08,9.87,1.56,21.75,3.36,34.88,5.4,63.24,20.4,15,7.94,33.48,17.06,33.66,17.15l-5.63,11.41Z"></path>
  <rect x="358.69" y="415.05" width="91.14" height="12.73" transform="translate(-138.77 636.19) rotate(-67.77)"></rect>
  <path d="m342.89,85.11c-3.81,0-7.53-1.12-10.78-3.27-4.35-2.89-7.32-7.3-8.35-12.42-1.03-5.12,0-10.34,2.88-14.69,5.97-8.98,18.13-11.43,27.11-5.47,8.98,5.97,11.43,18.13,5.47,27.11-2.89,4.35-7.3,7.32-12.42,8.35-1.3.26-2.61.39-3.91.39Zm.05-26.39c-2.21,0-4.38,1.07-5.7,3.05-1.01,1.52-1.37,3.34-1.01,5.13.36,1.79,1.4,3.33,2.92,4.34,1.52,1.01,3.34,1.37,5.13,1.01,1.79-.36,3.33-1.4,4.34-2.91,2.08-3.14,1.23-7.38-1.91-9.46-1.16-.77-2.47-1.14-3.77-1.14Z"></path>
  <path d="m157.92,269.42l-3.33-.35c-.85-.09-20.99-2.43-36.27-21.69-12.42-15.65-16.81-35.95-18.31-50.22-1.08-10.29-1.42-28.56,2.29-33.77,1.79-2.51,4.89-3.54,7.7-2.55,24.66,8.6,56.35,48.19,59.23,68.52,3.23,22.8-8.63,36.93-9.13,37.52l-2.18,2.54Zm-45.68-93.55c-1.01,13.12.24,43.65,16.06,63.59,8.51,10.73,18.75,14.75,24.07,16.19,2.4-4.22,5.91-12.73,4.25-24.52-1.84-13.01-24.8-43.94-44.39-55.27Z"></path>
  <path d="m167.29,270.75c-5.64,0-10.34-1.09-13.39-1.8l2.81-12.41h.06c5.32,1.25,14.21,3.31,23.7-1.82,18.11-9.79,30.14-27.88,35.81-53.81-11.54,1.8-35.69,8.85-49.88,27.03l-10.04-7.83c11.96-15.33,28.89-23.44,40.98-27.55.23-.08,23.24-7.81,29.97-3.58,2.68,1.69,3.78,4.95,2.74,7.83-.08.37-.22,1.13-.34,1.81-5.95,32.37-20.48,55.01-43.19,67.29-6.89,3.73-13.54,4.83-19.24,4.83Zm62.48-73.25v.02s0-.01,0-.02Zm0,0s0,0,0,0c0,0,0,0,0,0Z"></path>
</symbol><symbol id="i061_food-19" xmlns="http://www.w3.org/2000/svg" viewBox="0 0 512 512">
  <path d="m203.89,319.61H68.56c-3.3,0-6.04-2.55-6.29-5.84-.06-.76-1.36-18.89-.05-45.79,0-.06,0-.13.01-.19,2.75-34.96,10.47-86.09,31.64-131.09,24.79-52.7,61.48-83.2,109.04-90.64,1.82-.28,3.67.24,5.07,1.44,1.4,1.2,2.21,2.95,2.21,4.79v261c0,3.48-2.82,6.3-6.3,6.3Zm-129.34-12.61h123.04V59.9c-97.42,21.3-118.32,152.31-122.77,208.8-.84,17.27-.55,30.99-.26,38.31Z"></path>
  <path d="m146.08,466c-27.36,0-49.62-22.26-49.62-49.62,0-12.08,4.37-23.7,12.31-32.75.03-.04.07-.08.1-.11,4.02-4.36,6.24-10.04,6.24-15.98,0-2.98-.55-5.88-1.63-8.63-2.39-4.94-3.6-10.23-3.6-15.73,0-19.95,16.23-36.19,36.19-36.19v12.61c-13,0-23.58,10.58-23.58,23.58,0,3.63.81,7.13,2.42,10.39.07.14.13.28.19.43,1.74,4.31,2.62,8.86,2.62,13.54,0,9.09-3.38,17.78-9.53,24.47-5.89,6.73-9.13,15.38-9.13,24.37,0,20.41,16.6,37.01,37.01,37.01s36.71-16.3,37-36.45l-11-59.95c-1.61-8.78-2.43-17.75-2.43-26.67v-17.01h12.61v17.01c0,8.16.75,16.37,2.22,24.4l11.11,60.53c.07.38.1.76.1,1.14,0,27.36-22.26,49.62-49.62,49.62Z"></path>
  <path d="m146.08,439.59c-13.92,0-25.24-11.32-25.24-25.24s11.32-25.24,25.24-25.24,25.24,11.32,25.24,25.24-11.32,25.24-25.24,25.24Zm0-37.87c-6.96,0-12.63,5.67-12.63,12.63s5.67,12.63,12.63,12.63,12.63-5.67,12.63-12.63-5.67-12.63-12.63-12.63Z"></path>
  <path d="m94.37,275.84c-.49-49.22,13.68-89.89,25.65-115.34,13.01-27.65,26.05-43.54,26.6-44.21l9.72,8.04c-.5.61-50.26,61.98-49.36,151.39l-12.61.13Z"></path>
  <rect x="329.43" y="249.31" width="43.75" height="12.61"></rect>
  <path d="m444.06,175.51h-185.49c-3.48,0-6.3-2.82-6.3-6.3V52.3c0-3.48,2.82-6.3,6.3-6.3h185.49c3.48,0,6.3,2.82,6.3,6.3v116.9c0,3.48-2.82,6.3-6.3,6.3Zm-179.19-12.61h172.89V58.61h-172.89v104.29Z"></path>
  <rect x="325.12" y="169.2" width="12.61" height="86.41"></rect>
  <rect x="364.89" y="169.2" width="12.61" height="86.41"></rect>
  <path d="m351.31,466c-27.6,0-50.06-22.45-50.06-50.06v-138.13c0-.11,0-.22,0-.33,0-15.54,12.64-28.18,28.18-28.18v12.61c-8.49,0-15.42,6.84-15.57,15.3,0,.09,0,.18,0,.28v138.45c0,20.65,16.8,37.45,37.45,37.45s37.45-16.8,37.45-37.45v-138.46c0-8.58-6.99-15.57-15.57-15.57v-12.61c15.54,0,28.18,12.64,28.18,28.18v138.46c0,27.6-22.45,50.05-50.06,50.05Z"></path>
  <rect x="292.83" y="131.47" width="12.61" height="17.21"></rect>
  <rect x="292.83" y="73.63" width="12.61" height="37.12"></rect>
  <rect x="332.89" y="388.38" width="12.61" height="13.85"></rect>
  <rect x="332.89" y="286.49" width="12.61" height="60.23"></rect>
</symbol><symbol id="i061_food-2" xmlns="http://www.w3.org/2000/svg" viewBox="0 0 512 512">
  <path d="m416.79,387.28h-101.98v-12.61h101.98c8.59,0,15.58-6.99,15.58-15.58v-23.83c0-8.59-6.99-15.58-15.58-15.58h-101.98v-12.61h101.98c15.55,0,28.19,12.65,28.19,28.19v23.83c0,15.55-12.65,28.19-28.19,28.19Z"></path>
  <path d="m211.86,387.28h-126.75c-15.55,0-28.19-12.65-28.19-28.19v-23.83c0-15.55,12.65-28.19,28.19-28.19h210.43v12.61H85.12c-8.59,0-15.58,6.99-15.58,15.58v23.83c0,8.59,6.99,15.58,15.58,15.58h126.75v12.61Z"></path>
  <path d="m374.63,440.81h-59.81v-12.61h59.81c16.74,0,30.36-16,30.36-35.66v-11.57h12.61v11.57c0,26.62-19.28,48.27-42.97,48.27Z"></path>
  <rect x="250.95" y="428.19" width="30.86" height="12.61"></rect>
  <path d="m211.86,440.81h-81.43c-23.69,0-42.97-21.65-42.97-48.27v-11.57h12.61v11.57c0,19.66,13.62,35.66,30.36,35.66h81.43v12.61Z"></path>
  <rect x="254.29" y="125.16" width="20.79" height="12.61" transform="translate(-7.21 247.28) rotate(-49.48)"></rect>
  <rect x="307.21" y="170.38" width="20.79" height="12.61" transform="translate(-23.05 303.35) rotate(-49.48)"></rect>
  <rect x="360.12" y="215.6" width="20.79" height="12.61" transform="translate(-38.9 359.4) rotate(-49.48)"></rect>
  <rect x="316.68" y="108.16" width="20.79" height="12.61" transform="translate(27.57 288.75) rotate(-49.48)"></rect>
  <rect x="369.59" y="153.38" width="20.79" height="12.61" transform="translate(11.73 344.82) rotate(-49.48)"></rect>
  <path d="m141.28,367.65c-29.93,0-54.27-24.35-54.27-54.27h12.61c0,22.97,18.69,41.66,41.66,41.66s41.66-18.69,41.66-41.66h12.61c0,29.93-24.35,54.27-54.27,54.27Z"></path>
  <rect x="114.26" y="325.33" width="11.16" height="12.61" transform="translate(-217.94 230.4) rotate(-53.45)"></rect>
  <rect x="152.88" y="326.06" width="12.61" height="11.16" transform="translate(-166.2 160.03) rotate(-36.55)"></rect>
  <rect x="133.07" y="336.12" width="12.61" height="11.44"></rect>
  <rect x="308.51" y="232.03" width="12.61" height="202.47"></rect>
  <path d="m231.41,466c-14.25,0-25.85-11.6-25.85-25.85v-5.65h12.61v5.65c0,7.3,5.94,13.24,13.24,13.24s13.24-5.94,13.24-13.24v-5.65h12.61v5.65c0,14.25-11.6,25.85-25.85,25.85Z"></path>
  <path d="m298.36,462.07c-12.57,0-22.8-10.23-22.8-22.8v-4.77h12.61v4.77c0,5.62,4.57,10.19,10.19,10.19s10.19-4.57,10.19-10.19v-4.77h12.61v4.77c0,12.57-10.23,22.8-22.8,22.8Z"></path>
  <path d="m288.12,434.5h-12.61v-37.81c0-5.03-4.09-9.13-9.13-9.13s-9.13,4.09-9.13,9.13v37.81h-12.61v-37.81c0-11.99,9.75-21.74,21.74-21.74s21.74,9.75,21.74,21.74v37.81Z"></path>
  <rect x="205.56" y="313.37" width="12.61" height="121.13"></rect>
  <rect x="275.51" y="203.83" width="12.61" height="109.54"></rect>
  <path d="m410,319.68c-1.5,0-2.96-.54-4.11-1.52l-201.72-172.98v40.96c0,11-8.95,19.95-19.95,19.95s-19.95-8.95-19.95-19.95v-77.37c0-1.5.54-2.95,1.51-4.1,59.52-69.64,163.79-78.57,232.44-19.9,33.27,28.43,53.31,68.3,56.43,112.27,3.12,43.93-11.04,86.7-39.86,120.42-1.09,1.27-2.64,2.06-4.31,2.19-.16.01-.33.02-.49.02ZM197.87,125.16c1.48,0,2.94.52,4.11,1.52l207.24,177.71c23.95-30.38,35.59-67.94,32.86-106.46-2.88-40.57-21.36-77.36-52.04-103.58-62.79-53.66-157.91-46-213.14,16.76v75.02c0,4.05,3.29,7.34,7.34,7.34s7.34-3.29,7.34-7.34v-54.67c0-2.46,1.43-4.7,3.67-5.73.84-.39,1.74-.58,2.63-.58Z"></path>
  <path d="m193.26,265.92h-16.72c-6.77,0-12.27-5.5-12.27-12.27v-21.07c0-6.77,5.5-12.27,12.27-12.27h16.72c6.77,0,12.27,5.5,12.27,12.27v21.07c0,6.77-5.5,12.27-12.27,12.27Zm-16.38-12.61h16.04v-20.39h-16.04v20.39Z"></path>
</symbol><symbol id="i061_food-20" xmlns="http://www.w3.org/2000/svg" viewBox="0 0 512 512">
  <path d="m381.31,466h-117.07c-13.67,0-26.23-6.9-33.61-18.45-7.33-11.49-8.36-25.69-2.78-38.1l26.41-92.02c3.59-12.51,13.52-20.97,24.71-21.05l88.05-.64h.16c11.39,0,21.4,8.56,24.95,21.35l25.8,92.9c5.35,12.39,4.17,26.49-3.19,37.82-7.4,11.39-19.9,18.2-33.44,18.2Zm-14.12-157.66h-.07l-88.05.64c-5.55.04-10.65,4.83-12.68,11.92l-26.68,92.94-.21.44c-3.99,8.59-3.33,18.49,1.76,26.47,5.05,7.91,13.64,12.63,22.98,12.63h117.07c9.39,0,17.73-4.54,22.86-12.45,5.11-7.87,5.88-17.69,2.05-26.27l-.19-.43-.13-.45-25.92-93.34c-2.01-7.25-7.15-12.11-12.8-12.11Z"></path>
  <rect x="241.25" y="368.2" width="91.75" height="12.61" transform="translate(-122.37 609.03) rotate(-82.32)"></rect>
  <rect x="352.62" y="328.65" width="12.61" height="91.75" transform="translate(-46.82 51.31) rotate(-7.68)"></rect>
  <rect x="316.01" y="327.43" width="12.61" height="102.01"></rect>
  <path d="m354.72,302.26h-12.61v-42.64c0-1.74-3.98-4.95-10.49-4.95h-18.77c-6.51,0-10.49,3.2-10.49,4.95v42.32h-12.61v-42.32c0-9.84,10.15-17.56,23.1-17.56h18.77c12.96,0,23.1,7.71,23.1,17.56v42.64Z"></path>
  <path d="m342.06,250.58l-11.98-3.95c.23-.7,22.98-70.51,22.98-133.07,0-50.87-29.63-52-30.89-52.02h-.35s-.15-.02-.15-.02c-.3-.02-8.81-.49-16.63,6.82-8.94,8.36-13.66,24-13.66,45.23,0,62.61,21.58,132.46,21.8,133.16l-12.04,3.76c-.91-2.92-22.37-72.34-22.37-136.92,0-25.39,6.05-43.8,17.97-54.73,11.19-10.25,23.68-10.01,25.75-9.9,1.85.05,12.12.72,22.19,8.62,9.57,7.51,20.98,23.33,20.98,56.01,0,64.63-22.65,134.09-23.62,137.01Z"></path>
  <path d="m322.23,123.33c-12.05,0-21.86-9.81-21.86-21.86s9.81-21.86,21.86-21.86,21.86,9.81,21.86,21.86-9.81,21.86-21.86,21.86Zm0-31.11c-5.1,0-9.25,4.15-9.25,9.25s4.15,9.25,9.25,9.25,9.25-4.15,9.25-9.25-4.15-9.25-9.25-9.25Z"></path>
  <path d="m160.48,465.93c-12.87,0-25.5-11.49-25.5-23.19v-164.11c-1.2-3.95-11.81-17.9-18.87-27.18-14.86-19.53-20.6-27.57-20.75-33.02-.17-3.37-4.29-87.55-4.58-119.97-.17-19.05.63-37.83,1.24-41.89.97-6.46,5.92-6.99,6.9-7.04,5.19-.2,8.37,3.96,13.59,17.9,3.41,9.13,6.87,20.66,9.48,31.63,7.13,29.95,11.74,75.44,13.19,95.31.13,1.8,1.28,3.26,2.57,3.26s2.58-1.42,2.61-3.54l1.42-90.63c.02-23.52,12.4-52.45,12.93-53.67,1-2.31,3.27-3.8,5.79-3.8s4.79,1.5,5.79,3.8c.53,1.22,12.91,30.15,12.93,53.67l1.42,90.61c.03,2.13,1.36,3.56,2.59,3.56,1.31,0,2.46-1.46,2.59-3.26,1.45-19.87,6.06-65.36,13.19-95.31,2.61-10.97,6.07-22.5,9.48-31.63,5.21-13.94,8.4-18.13,13.59-17.9.98.04,5.94.58,6.9,7.04.61,4.07,1.41,22.85,1.24,41.89-.3,32.42-4.42,116.6-4.58,119.97-.15,5.45-5.88,13.49-20.75,33.02-7.06,9.28-17.67,23.22-18.87,27.18v164.11c0,11.7-12.63,23.19-25.5,23.19Zm-52.53-248.2c1.19,3.74,11.4,17.16,18.19,26.09,15.57,20.46,21.45,28.72,21.45,34.43v164.49c0,4.37,6.67,10.58,12.89,10.58s12.89-6.15,12.89-10.58v-164.49c0-5.71,5.88-13.98,21.45-34.43,6.79-8.92,17-22.35,18.19-26.09.22-4.44,4.27-87.44,4.57-119.38.06-6.57,0-12.85-.11-18.41-2.11,6.46-4.31,14.05-6.22,22.06-6.94,29.17-11.46,73.79-12.88,93.31-.61,8.38-7.26,14.95-15.15,14.95-8.28,0-15.09-7.17-15.21-15.98l-1.42-90.65s0-.07,0-.1c0-10.71-3.08-23.13-6.1-32.75-3.03,9.63-6.11,22.06-6.11,32.75,0,.03,0,.07,0,.1l-1.42,90.66c-.12,8.8-6.93,15.97-15.19,15.97s-14.56-6.57-15.17-14.95c-1.42-19.52-5.94-64.14-12.88-93.31-1.91-8.01-4.1-15.6-6.21-22.06-.12,5.57-.17,11.85-.11,18.41.29,31.94,4.35,114.94,4.57,119.38Zm105.04.48h0s0,0,0,0Zm-105.03,0h0s0,0,0,0Z"></path>
</symbol><symbol id="i061_food-21" xmlns="http://www.w3.org/2000/svg" viewBox="0 0 512 512">
  <path d="m305.05,221.85h-12.61v-29.1h-72.76v29.1h-12.61v-35.41c0-3.48,2.82-6.3,6.3-6.3h85.37c3.48,0,6.3,2.82,6.3,6.3v35.41Z"></path>
  <path d="m346.48,302.31l-90.98-22.29-89.97,22.28-3.03-12.24,91.47-22.66c.99-.24,2.03-.25,3.02,0l92.49,22.66-3,12.25Z"></path>
  <path d="m255.49,426.84c-.51,0-1.02-.06-1.52-.18l-91.47-22.65,3.03-12.24,89.97,22.28,90.98-22.28,3,12.25-92.49,22.65c-.49.12-1,.18-1.5.18Z"></path>
  <path d="m321.34,192.75h-22.59v-12.61h16.28v-20.53h-119.08v20.53h17.43v12.61h-23.74c-3.48,0-6.3-2.82-6.3-6.3v-33.14c0-3.48,2.82-6.3,6.3-6.3h131.69c3.48,0,6.3,2.82,6.3,6.3v33.14c0,3.48-2.82,6.3-6.3,6.3Z"></path>
  <path d="m241,154.6l-12.34-2.59,21.17-101c.61-2.92,3.19-5.01,6.17-5.01h0c2.99,0,5.56,2.1,6.17,5.02l21.02,101-12.35,2.57-14.87-71.44-14.97,71.45Z"></path>
  <path d="m347.98,466h-183.96c-3.48,0-6.3-2.82-6.3-6.3v-237.84c0-3.48,2.82-6.3,6.3-6.3h183.96c3.48,0,6.3,2.82,6.3,6.3v237.84c0,3.48-2.82,6.3-6.3,6.3Zm-177.66-12.61h171.35v-225.23h-171.35v225.23Z"></path>
</symbol><symbol id="i061_food-22" xmlns="http://www.w3.org/2000/svg" viewBox="0 0 512 512">
  <path d="m256.86,221.85h-12.61v-29.1h-72.76v29.1h-12.61v-35.41c0-3.48,2.82-6.3,6.3-6.3h85.37c3.48,0,6.3,2.82,6.3,6.3v35.41Z"></path>
  <path d="m117.34,302.31l-3.03-12.24,91.47-22.65c.99-.24,2.03-.25,3.02,0l27.66,6.77-3,12.25-26.15-6.41-89.97,22.28Z"></path>
  <path d="m207.3,426.84c-.51,0-1.02-.06-1.52-.18l-91.47-22.66,3.03-12.24,89.97,22.28,11.21-2.75,3,12.25-12.72,3.12c-.49.12-1,.18-1.5.18Z"></path>
  <path d="m273.14,192.75h-22.59v-12.61h16.28v-20.53h-119.08v20.53h17.43v12.61h-23.74c-3.48,0-6.3-2.82-6.3-6.3v-33.14c0-3.48,2.82-6.3,6.3-6.3h131.69c3.48,0,6.3,2.82,6.3,6.3v33.14c0,3.48-2.82,6.3-6.3,6.3Z"></path>
  <path d="m222.66,154.6l-14.97-71.45-14.87,71.44-12.35-2.57,21.02-101c.61-2.92,3.18-5.02,6.17-5.02h0c2.98,0,5.56,2.09,6.17,5.01l21.17,101-12.34,2.59Z"></path>
  <path d="m299.79,466H115.83c-3.48,0-6.3-2.82-6.3-6.3v-237.84c0-3.48,2.82-6.3,6.3-6.3h183.96c3.48,0,6.3,2.82,6.3,6.3v27.84h-12.61v-21.53H122.13v225.23h177.66v12.61Z"></path>
  <path d="m281.44,340.33l-11.24-5.72c6.17-12.11,15.28-21.99,26.35-28.58l6.45,10.84c-9.02,5.37-16.47,13.48-21.56,23.46Z"></path>
  <path d="m402.48,367.12h-12.61c0-31.95-26-57.95-57.95-57.95-10.22,0-20.24,2.68-28.99,7.74l-3.16,1.83-3.16-1.82c-8.76-5.06-18.77-7.74-28.96-7.74-31.95,0-57.95,26-57.95,57.95h-12.61c0-38.91,31.65-70.56,70.56-70.56,11.19,0,22.22,2.66,32.11,7.72,9.89-5.06,20.93-7.72,32.15-7.72,38.91,0,70.56,31.65,70.56,70.56Z"></path>
  <path d="m299.79,466c-56.62,0-102.69-46.07-102.69-102.69h12.61c0,49.67,40.41,90.08,90.08,90.08s88.13-38,90.01-86.52l12.6.49c-1.03,26.57-12.16,51.39-31.35,69.88-19.23,18.54-44.54,28.75-71.26,28.75Z"></path>
  <path d="m306.08,310.2h-12.61c0-25.2,20.29-44.94,46.19-44.94,16.67,0,31.81,8.32,39.51,21.72,1.25,2.17,1.09,4.88-.4,6.9-1.49,2.01-4.04,2.95-6.48,2.39-3.11-.72-9.09-1.86-11.9-1.86-10.19,0-19.71,4.55-26.12,12.48l-9.8-7.93c7.98-9.86,19.45-15.91,31.93-16.98-4.93-2.64-10.68-4.1-16.74-4.1-18.83,0-33.58,14.2-33.58,32.33Z"></path>
  <path d="m306.08,311.45h-12.61c0-18.52-15.06-33.58-33.57-33.58-5.44,0-11.07,1.67-15.9,4.18,12.16,1.26,23.29,7.26,31.09,16.9l-9.8,7.93c-6.42-7.93-15.94-12.47-26.12-12.47-3.78,0-7.49.62-11.02,1.85-2.41.84-5.08.14-6.78-1.76-1.7-1.9-2.08-4.64-.97-6.94,5.95-12.29,23.67-22.29,39.5-22.29,25.46,0,46.18,20.72,46.18,46.19Z"></path>
  <path d="m290.89,280.74l-12.55-1.19c1.25-13.23,7.35-25.48,17.17-34.51,2.4-2.21,6.09-2.22,8.51-.02,9.75,8.86,15.85,20.99,17.19,34.17l-12.55,1.27c-.82-8.12-3.86-15.49-8.86-21.61-5.03,6.25-8.15,13.83-8.91,21.89Z"></path>
  <path d="m225.48,397.76c-12.68-27.64-8.19-56.32,10.93-69.73l7.24,10.32c-14.06,9.86-16.82,32.13-6.71,54.15l-11.46,5.26Z"></path>
  <path d="m263.38,438.02c-4.93-2.48-9.7-5.6-14.18-9.3l8.02-9.73c3.75,3.09,7.73,5.7,11.82,7.76l-5.66,11.27Z"></path>
  <path d="m346.96,373.43c-14.55,0-26.39-12.77-26.39-28.46s11.84-28.47,26.39-28.47,26.39,12.77,26.39,28.47-11.84,28.46-26.39,28.46Zm0-44.32c-7.6,0-13.78,7.11-13.78,15.86s6.18,15.85,13.78,15.85,13.78-7.11,13.78-15.85-6.18-15.86-13.78-15.86Z"></path>
</symbol><symbol id="i061_food-23" xmlns="http://www.w3.org/2000/svg" viewBox="0 0 512 512">
  <path d="m157.81,345.99c-.19-.6-4.56-14.89-2.62-32.41,1.83-16.53,9.75-39.08,37.1-52.62l5.59,11.3c-17.86,8.84-28.01,23.21-30.16,42.7-1.65,14.92,2.09,27.14,2.13,27.27l-12.04,3.75Z"></path>
  <path d="m256,450.37c-70.58,0-86.35-23.02-87.91-25.64-1.05-1.77-1.18-3.94-.34-5.81.43-.96,42.96-97.51,13.52-181.13-3.93-11.16-10.47-18.54-17.95-20.25-5.05-1.16-10.15.52-14.38,4.72-10.92,10.84-15.58,29.14-12.8,50.2,3.05,23.1,14.57,47.08,32.44,67.52,1.51,1.73,1.96,4.15,1.18,6.31-.79,2.16-2.69,3.72-4.96,4.07-1.66.25-41.05,5.97-74.61-19.37-23.81-17.97-38.34-46.73-43.2-85.48-5.02-39.99,9.61-83.83,39.12-117.28,26.8-30.38,78.04-66.59,169.91-66.59s143.1,36.21,169.91,66.59c29.51,33.45,44.14,77.29,39.12,117.28-4.86,38.75-19.4,67.51-43.2,85.48-33.56,25.33-72.95,19.62-74.61,19.37-2.27-.35-4.18-1.91-4.96-4.07-.79-2.16-.34-4.58,1.18-6.31,17.87-20.44,29.39-44.42,32.44-67.52,2.78-21.06-1.89-39.35-12.8-50.2-4.23-4.2-9.33-5.87-14.38-4.72-7.48,1.71-14.03,9.09-17.95,20.25-29.48,83.74,13.09,180.16,13.52,181.13.84,1.88.72,4.05-.34,5.81-1.57,2.62-17.34,25.64-87.91,25.64Zm-75.14-30.1c5.66,5.1,24.64,17.49,75.14,17.49s69.47-12.39,75.14-17.49c-3.4-8.33-11.42-29.61-17.17-57.76-6.78-33.23-11.45-82.57,4.87-128.92,5.39-15.32,15.25-25.65,27.03-28.35,9.27-2.12,18.78.81,26.08,8.06,27.13,26.95,21.69,81.12-11.05,125.08,12.99-.29,34.57-3.25,53.45-17.56,20.91-15.85,33.75-41.72,38.17-76.9,4.57-36.45-8.91-76.59-36.06-107.37-25.09-28.43-73.29-62.32-160.45-62.32s-135.37,33.89-160.45,62.32c-27.16,30.78-40.64,70.91-36.06,107.37,4.42,35.24,17.31,61.15,38.29,76.99,18.95,14.31,40.42,17.23,53.35,17.5-32.76-43.97-38.21-98.16-11.08-125.11,7.3-7.25,16.8-10.19,26.08-8.06,11.79,2.7,21.64,13.03,27.03,28.35,16.32,46.35,11.66,95.69,4.87,128.92-5.75,28.15-13.77,49.43-17.17,57.76Z"></path>
  <path d="m354.19,345.99l-12.04-3.74c.61-1.99,14.47-48.94-28.03-69.98l5.59-11.3c27.36,13.54,35.28,36.09,37.1,52.62,1.94,17.51-2.44,31.8-2.62,32.41Z"></path>
</symbol><symbol id="i061_food-3" xmlns="http://www.w3.org/2000/svg" viewBox="0 0 512 512">
  <path d="m433.17,264.22h-12.61c0-92.15-73.82-167.12-164.56-167.12s-164.56,74.97-164.56,167.12h-12.61c0-99.1,79.48-179.73,177.17-179.73s177.17,80.63,177.17,179.73Z"></path>
  <path d="m438.18,365.52H73.82c-15.34,0-27.82-12.48-27.82-27.82v-51.98c0-15.34,12.48-27.82,27.82-27.82h364.37c15.34,0,27.82,12.48,27.82,27.82v51.98c0,15.34-12.48,27.82-27.82,27.82Zm-364.37-95c-8.39,0-15.21,6.82-15.21,15.21v51.98c0,8.39,6.82,15.21,15.21,15.21h364.37c8.39,0,15.21-6.82,15.21-15.21v-51.98c0-8.39-6.82-15.21-15.21-15.21H73.82Z"></path>
  <rect x="172.46" y="205.32" width="12.61" height="22.56"></rect>
  <rect x="247.98" y="205.32" width="12.61" height="22.56"></rect>
  <rect x="323.51" y="205.32" width="12.61" height="22.56"></rect>
  <rect x="211.93" y="147.32" width="12.61" height="22.56"></rect>
  <rect x="287.46" y="147.32" width="12.61" height="22.56"></rect>
  <path d="m193.53,340.25c-41.92,0-76.03-34.11-76.03-76.03h12.61c0,34.97,28.45,63.42,63.42,63.42s63.42-28.45,63.42-63.42h12.61c0,41.93-34.11,76.03-76.03,76.03Z"></path>
  <rect x="156.1" y="284.46" width="16.22" height="12.61" transform="translate(-167.16 249.51) rotate(-53.45)"></rect>
  <rect x="215.11" y="282.66" width="12.61" height="16.22" transform="translate(-129.62 189.07) rotate(-36.56)"></rect>
  <rect x="186.31" y="297.28" width="12.61" height="16.63"></rect>
  <path d="m388.48,427.52H123.52c-25.41,0-46.09-23.25-46.09-51.84v-16.46h12.61v16.46c0,21.63,15.02,39.23,33.48,39.23h264.96c18.46,0,33.48-17.6,33.48-39.23v-16.46h12.61v16.46c0,28.58-20.68,51.84-46.09,51.84Z"></path>
</symbol><symbol id="i061_food-4" xmlns="http://www.w3.org/2000/svg" viewBox="0 0 512 512">
  <path d="m412.1,206.3H108.98v-6.43c0-84.77,67.99-153.74,151.56-153.74s151.56,68.97,151.56,153.74v6.43Zm-290.12-12.85h277.13c-3.32-74.71-64.2-134.46-138.56-134.46S125.29,118.73,121.97,193.45Z"></path>
  <path d="m373.07,465.86h-225.06c-22.18,0-40.22-20.23-40.22-45.1v-20.41h305.5v20.41c0,24.87-18.04,45.1-40.22,45.1Zm-252.42-52.66v7.56c0,17.78,12.28,32.25,27.37,32.25h225.06c15.09,0,27.37-14.47,27.37-32.25v-7.56H120.64Z"></path>
  <rect x="188.5" y="151.62" width="12.85" height="19.16"></rect>
  <rect x="252.65" y="151.62" width="12.85" height="19.16"></rect>
  <rect x="316.8" y="151.62" width="12.85" height="19.16"></rect>
  <rect x="220.34" y="102.35" width="12.85" height="19.16"></rect>
  <rect x="284.49" y="102.35" width="12.85" height="19.16"></rect>
  <path d="m299.88,318.18c-28.37,0-51.45-23.08-51.45-51.45s23.08-51.45,51.45-51.45,51.45,23.08,51.45,51.45-23.08,51.45-51.45,51.45Zm0-90.04c-21.28,0-38.59,17.31-38.59,38.59s17.31,38.59,38.59,38.59,38.59-17.31,38.59-38.59-17.31-38.59-38.59-38.59Z"></path>
  <rect x="276.3" y="270.87" width="10.47" height="12.85" transform="translate(-108.9 338.28) rotate(-53.44)"></rect>
  <rect x="312.05" y="272.06" width="12.85" height="10.47" transform="translate(-102.51 244.22) rotate(-36.55)"></rect>
  <rect x="293.45" y="281.51" width="12.85" height="10.74"></rect>
  <rect x="275.11" y="250.45" width="12.85" height="10.47" transform="translate(-96.91 217.98) rotate(-36.56)"></rect>
  <rect x="313.24" y="249.26" width="10.47" height="12.85" transform="translate(-76.59 359.25) rotate(-53.45)"></rect>
  <rect x="293.45" y="240.75" width="12.85" height="10.74"></rect>
  <path d="m260.13,386.13c-68.16,0-125.03-10.29-152.86-16.42-12.13-2.67-20.61-13.22-20.61-25.66,0-7.85,3.47-15.23,9.52-20.23,6.06-5.01,13.97-7.05,21.69-5.57,29.48,5.61,87.16,15.02,142.25,15.02,50.11,0,110.81-9.64,142.53-15.39,7.68-1.39,15.51.68,21.5,5.68,6,5.01,9.43,12.36,9.43,20.18v.46c0,12.35-8.4,22.88-20.42,25.61-26.81,6.09-82.35,16.32-153.04,16.32Zm-147.19-55.5c-3.1,0-6.12,1.07-8.56,3.09-3.09,2.56-4.86,6.32-4.86,10.33,0,6.35,4.33,11.74,10.52,13.1,27.32,6.02,83.14,16.12,150.09,16.12s123.91-10.02,150.2-16c6.13-1.39,10.42-6.77,10.42-13.08v-.46c0-3.99-1.76-7.75-4.82-10.31-3.06-2.55-7.06-3.61-10.97-2.9-32.15,5.82-93.71,15.6-144.82,15.6-56.15,0-114.73-9.55-144.66-15.25-.84-.16-1.69-.24-2.54-.24Z"></path>
  <rect x="392.93" y="284.49" width="12.85" height="11.83"></rect>
  <rect x="392.93" y="227.89" width="12.85" height="38.3"></rect>
  <rect x="119.39" y="227.16" width="12.85" height="71.17"></rect>
  <rect x="194.81" y="285.46" width="12.85" height="13.4"></rect>
  <rect x="194.81" y="225.73" width="12.85" height="23.75"></rect>
  <rect x="453.91" y="362.87" width="10.11" height="12.85" transform="translate(-102.72 191.69) rotate(-21.27)"></rect>
  <rect x="430.33" y="370.95" width="17.57" height="12.85" transform="translate(-109.35 191.85) rotate(-21.99)"></rect>
  <rect x="449.07" y="426.68" width="12.85" height="8.08" transform="translate(-161.18 543.44) rotate(-53.76)"></rect>
  <rect x="428.47" y="404.01" width="12.85" height="22.59" transform="translate(-158.05 515.46) rotate(-53.27)"></rect>
  <rect x="46.62" y="360.47" width="12.85" height="10.02" transform="translate(-305.74 277.99) rotate(-68.04)"></rect>
  <rect x="66.53" y="364.73" width="12.85" height="17.57" transform="translate(-300.71 301.32) rotate(-68.01)"></rect>
  <rect x="52.42" y="420.23" width="8.41" height="12.85" transform="translate(-250.61 125.25) rotate(-37.99)"></rect>
  <rect x="65.88" y="405.02" width="22.59" height="12.85" transform="translate(-230.75 127.85) rotate(-36.73)"></rect>
</symbol><symbol id="i061_food-5" xmlns="http://www.w3.org/2000/svg" viewBox="0 0 512 512">
  <path d="m410.2,342.77h-12.61c0-63.47-40.9-122.48-95.14-137.26l3.32-12.17c30.15,8.22,57.26,28.47,76.33,57.01,18.12,27.12,28.1,59.95,28.1,92.42Z"></path>
  <path d="m117.34,342.77h-12.61c0-31.88,10.86-66.05,29.79-93.74,20.07-29.36,47.28-49.16,76.62-55.76l2.77,12.3c-53.25,11.97-96.57,73.52-96.57,137.2Z"></path>
  <path d="m154.15,287.96l-11.17-5.86c4.89-9.32,10.9-18.04,17.86-25.92l9.45,8.35c-6.29,7.12-11.72,15-16.14,23.43Z"></path>
  <path d="m143.71,316.81l-12.32-2.71c.81-3.69,1.8-7.39,2.92-11l12.03,3.76c-1.02,3.26-1.91,6.6-2.64,9.94Z"></path>
  <path d="m410.21,412.87h-85.96v-12.61h85.96c7.75,0,14.05-6.3,14.05-14.05v-22.89c0-7.75-6.3-14.05-14.05-14.05H101.79c-7.75,0-14.05,6.3-14.05,14.05v22.89c0,7.75,6.3,14.05,14.05,14.05h187.64v12.61H101.79c-14.7,0-26.66-11.96-26.66-26.66v-22.89c0-14.7,11.96-26.66,26.66-26.66h308.43c14.7,0,26.66,11.96,26.66,26.66v22.89c0,14.7-11.96,26.66-26.66,26.66Z"></path>
  <path d="m371,466h-227.07c-22.28,0-40.4-20.33-40.4-45.33v-14.11h12.61v14.11c0,18.04,12.47,32.72,27.79,32.72h227.07c15.32,0,27.79-14.68,27.79-32.72v-14.11h12.61v14.11c0,24.99-18.12,45.33-40.4,45.33Z"></path>
  <polygon points="306.34 432.69 223.41 348.63 232.38 339.77 306.54 414.94 384.26 339.67 393.03 348.73 306.34 432.69"></polygon>
  <path d="m171.5,394.48c-28.63,0-51.91-23.11-51.91-51.51h12.61c0,21.45,17.63,38.9,39.3,38.9s39.3-17.45,39.3-38.9h12.61c0,28.4-23.29,51.51-51.91,51.51Z"></path>
  <rect x="147.49" y="354.82" width="10.61" height="12.61" transform="translate(-228.29 268.76) rotate(-53.44)"></rect>
  <rect x="183.91" y="355.82" width="12.61" height="10.61" transform="translate(-177.67 184.33) rotate(-36.56)"></rect>
  <rect x="165.07" y="365.38" width="12.61" height="10.88"></rect>
  <path d="m217.13,257.36l-12.6-.37c.82-28.08,2.96-71.53,3.08-74.02.11-4.91,4.37-9.66,16.22-21.69,4.39-4.46,11.61-11.78,13.11-14.55v-81.93c0-9.67,9.97-18.81,20.52-18.81s20.52,9.32,20.52,18.81v81.93c1.5,2.77,8.72,10.09,13.11,14.55,11.86,12.03,16.11,16.78,16.22,21.69.12,2.5,2.26,45.76,3.08,73.84l-12.6.37c-.78-26.82-2.78-67.64-3.05-73.09-1.43-2.59-8.13-9.39-12.63-13.96-12.15-12.33-16.74-17.47-16.74-22.62v-82.7c0-2.17-4.07-6.2-7.91-6.2s-7.91,3.98-7.91,6.2v82.7c0,5.15-4.59,10.3-16.74,22.62-4.5,4.57-11.2,11.37-12.63,13.96-.27,5.46-2.27,46.44-3.05,73.27Z"></path>
  <path d="m273.13,265.82l-12.61-.16.89-70.04c.1-7.42,5.88-13.45,12.89-13.45s12.35,5.53,12.87,12.59c.93,12.8,3.41,46.81,6.93,66.29l-12.41,2.24c-3.64-20.15-6.15-54.64-7.1-67.62-.03-.41-.17-.67-.28-.81-.13.16-.28.47-.29.92l-.89,70.03Z"></path>
  <path d="m241.81,265.81l-.89-70.03c0-.45-.16-.76-.29-.91-.11.14-.25.4-.28.81-.94,12.98-3.45,47.45-7.1,67.61l-12.41-2.24c3.52-19.49,6-53.49,6.93-66.28.51-7.06,6.16-12.59,12.85-12.59,7.02,0,12.8,6.03,12.9,13.45l.89,70.04-12.61.16Z"></path>
  <path d="m257.49,272.63h-.2c-41.37-1.29-68.8-18.94-69.94-19.69l6.91-10.55c.24.16,25.68,16.41,63.23,17.62,37.76-1.22,62.98-17.46,63.23-17.62l6.91,10.55c-1.15.75-28.57,18.4-69.94,19.68h-.2Z"></path>
</symbol><symbol id="i061_food-6" xmlns="http://www.w3.org/2000/svg" viewBox="0 0 512 512">
  <path d="m301.81,398.71c-24,0-43.53-19.53-43.53-43.53s19.53-43.53,43.53-43.53,43.52,19.53,43.52,43.53-19.53,43.53-43.52,43.53Zm0-74.44c-17.05,0-30.92,13.87-30.92,30.92s13.87,30.92,30.92,30.92,30.92-13.87,30.92-30.92-13.87-30.92-30.92-30.92Z"></path>
  <path d="m256,458.71c-42.27,0-82.1-8.36-112.17-23.55-31.43-15.88-48.75-37.49-48.75-60.85,0-.93.2-1.84.6-2.68l16.72-35.62c.88-1.86,2.61-3.18,4.64-3.53,2.03-.35,4.1.31,5.55,1.78,9.51,9.6,22.72,14.35,36.26,13.04,21.26-2.07,38.5-19.72,40.09-41.05,1.81-24.34-16.43-45.85-40.67-47.96-2.05-.18-3.89-1.35-4.92-3.13-1.03-1.79-1.12-3.96-.24-5.83l55.3-117.79c.78-1.66,2.24-2.9,4-3.39,1.76-.5,3.65-.2,5.18.81,1.35.89,3.59,1.81,6.54,1.11,3.01-.72,5.41-3.26,5.97-6.32.87-4.75-2.19-8.3-5.67-9.36-1.75-.53-3.19-1.8-3.93-3.47-.74-1.67-.72-3.59.05-5.24l29.74-63.34c1.04-2.21,3.26-3.63,5.71-3.63s4.67,1.41,5.71,3.63l51.91,110.55c1.48,3.15.13,6.9-3.02,8.38-12.73,5.99-19.94,19.42-17.94,33.43,1.86,13.02,12.2,23.89,25.15,26.44,6.74,1.33,13.56.49,19.75-2.42,1.51-.71,3.25-.79,4.82-.23,1.57.57,2.86,1.74,3.57,3.25l70.38,149.89c.39.84.6,1.75.6,2.68,0,23.36-17.31,44.97-48.75,60.85-30.07,15.19-69.9,23.55-112.17,23.55Zm-148.28-83.06c.71,17.87,15.49,34.96,41.8,48.25,28.34,14.31,66.15,22.2,106.48,22.2s78.14-7.88,106.48-22.2c26.31-13.29,41.09-30.38,41.8-48.25l-67.26-143.25c-6.98,2.15-14.35,2.53-21.65,1.1-18.41-3.62-32.56-18.5-35.2-37.03-2.48-17.4,5.25-34.18,19.54-43.54l-43.71-93.09-21.47,45.73c6.16,4.62,9.45,12.46,7.98,20.45-1.45,7.9-7.66,14.46-15.46,16.31-3.3.78-6.63.78-9.79.02l-49.2,104.79c11.53,2.81,21.9,9.15,29.8,18.33,9.95,11.58,14.81,26.38,13.66,41.7-2.04,27.37-24.16,50.01-51.45,52.67-14.35,1.4-28.44-2.55-39.79-10.95l-12.57,26.76Z"></path>
  <path d="m121.2,344.18l-6.17-11c.26-.15,27.09-15.49,38.01-40.38,9.32-21.24.68-37.01.3-37.68l10.92-6.3c.51.87,12.31,21.73.32,49.05-12.65,28.82-42.14,45.61-43.39,46.31Z"></path>
  <path d="m336.63,229.59c-.81-.57-19.99-14.08-27.94-32.39-8.64-19.88-7.13-41.22-7.06-42.12l12.57.95c-.01.19-1.31,19.2,6.05,36.14,6.55,15.07,23.42,26.95,23.59,27.07l-7.21,10.34Z"></path>
</symbol><symbol id="i061_food-7" xmlns="http://www.w3.org/2000/svg" viewBox="0 0 512 512">
  <path d="m295.64,461.55c-7.18,0-14.32-2.13-21.28-4.21-6.51-1.94-12.67-3.78-18.36-3.78s-11.85,1.84-18.36,3.78c-9.25,2.76-18.81,5.61-28.37,3.44-9.95-2.26-17.46-9.13-24.73-15.77-4.86-4.44-9.45-8.64-14.28-10.97-4.98-2.4-11.22-3.41-17.83-4.47-9.62-1.55-19.57-3.15-27.37-9.38-7.85-6.26-11.62-15.63-15.26-24.69-2.49-6.19-4.84-12.04-8.26-16.32-3.39-4.24-8.54-7.81-14-11.59-8.06-5.58-16.39-11.35-20.78-20.45-4.31-8.94-3.66-18.96-3.02-28.66.44-6.72.85-13.06-.38-18.51-1.17-5.15-4.22-10.52-7.44-16.2-4.87-8.59-9.91-17.47-9.91-27.77s5.04-19.18,9.91-27.77c3.23-5.69,6.27-11.06,7.44-16.21,1.24-5.45.82-11.8.39-18.51-.63-9.69-1.29-19.72,3.02-28.66,4.39-9.11,12.72-14.87,20.78-20.45,5.46-3.78,10.61-7.35,13.99-11.59,3.42-4.28,5.77-10.13,8.26-16.32,3.65-9.06,7.42-18.43,15.26-24.69,7.8-6.23,17.75-7.83,27.37-9.38,6.61-1.06,12.86-2.07,17.83-4.47,4.82-2.33,9.42-6.53,14.28-10.97,7.26-6.64,14.78-13.51,24.73-15.77,9.56-2.17,19.12.68,28.37,3.44,6.51,1.94,12.67,3.78,18.36,3.78s11.85-1.84,18.36-3.78c9.25-2.76,18.81-5.61,28.37-3.44,9.95,2.26,17.46,9.13,24.73,15.77,4.86,4.44,9.45,8.64,14.28,10.97,4.98,2.4,11.22,3.41,17.83,4.47,9.62,1.55,19.57,3.15,27.37,9.38,7.85,6.26,11.62,15.63,15.26,24.69,2.49,6.19,4.84,12.04,8.26,16.32,3.39,4.24,8.54,7.81,14,11.59,8.06,5.58,16.39,11.35,20.78,20.45,4.31,8.94,3.66,18.96,3.02,28.66-.44,6.72-.85,13.06.38,18.51,1.17,5.15,4.22,10.52,7.44,16.2,4.87,8.59,9.91,17.47,9.91,27.77s-5.04,19.18-9.91,27.77c-3.23,5.69-6.27,11.06-7.44,16.21-1.24,5.45-.82,11.8-.39,18.51.63,9.69,1.29,19.72-3.02,28.66-4.39,9.11-12.72,14.87-20.78,20.45-5.46,3.78-10.61,7.35-13.99,11.59-3.42,4.28-5.77,10.13-8.26,16.32-3.65,9.06-7.42,18.43-15.26,24.69-7.8,6.23-17.75,7.83-27.37,9.38-6.61,1.06-12.86,2.07-17.83,4.47-4.82,2.33-9.42,6.53-14.28,10.97-7.26,6.64-14.78,13.51-24.73,15.77-2.36.54-4.73.77-7.09.77Zm-39.64-20.6c7.54,0,14.87,2.19,21.97,4.31,8.04,2.4,15.64,4.67,21.97,3.23,6.7-1.52,12.68-6.99,19.01-12.78,5.32-4.86,10.82-9.89,17.31-13.02,6.64-3.2,14.09-4.4,21.31-5.56,8.38-1.35,16.29-2.62,21.51-6.79,5.25-4.2,8.26-11.65,11.43-19.55,2.72-6.76,5.53-13.75,10.11-19.47,4.54-5.69,10.71-9.96,16.67-14.08,7.02-4.86,13.65-9.45,16.6-15.57,2.87-5.95,2.35-13.92,1.8-22.35-.48-7.32-.97-14.89.67-22.13,1.58-6.96,5.24-13.4,8.77-19.63,4.25-7.49,8.27-14.57,8.27-21.55s-4.02-14.05-8.27-21.55c-3.53-6.23-7.19-12.67-8.77-19.63-1.65-7.24-1.15-14.81-.67-22.13.55-8.44,1.07-16.41-1.8-22.35-2.95-6.11-9.58-10.7-16.6-15.57-5.96-4.13-12.13-8.4-16.67-14.09-4.57-5.73-7.39-12.72-10.11-19.48-3.18-7.89-6.18-15.35-11.43-19.55-5.21-4.16-13.13-5.44-21.51-6.79-7.21-1.16-14.67-2.36-21.31-5.56-6.49-3.13-11.99-8.16-17.31-13.02-6.33-5.79-12.32-11.26-19.01-12.78-6.33-1.44-13.93.83-21.97,3.23-7.09,2.12-14.43,4.31-21.97,4.31s-14.87-2.19-21.97-4.31c-8.04-2.4-15.64-4.66-21.97-3.23-6.7,1.52-12.68,6.99-19.01,12.78-5.32,4.86-10.82,9.89-17.31,13.02-6.64,3.2-14.09,4.4-21.31,5.56-8.38,1.35-16.29,2.62-21.51,6.78-5.25,4.2-8.26,11.65-11.43,19.55-2.72,6.76-5.54,13.75-10.11,19.48-4.54,5.68-10.71,9.96-16.67,14.08-7.02,4.86-13.65,9.45-16.6,15.56-2.87,5.95-2.35,13.92-1.8,22.35.48,7.32.97,14.89-.67,22.13-1.58,6.96-5.24,13.4-8.77,19.63-4.25,7.49-8.27,14.57-8.27,21.55s4.02,14.05,8.27,21.55c3.53,6.23,7.19,12.67,8.77,19.63,1.65,7.24,1.15,14.81.67,22.13-.55,8.44-1.07,16.41,1.8,22.35,2.95,6.11,9.58,10.7,16.6,15.56,5.96,4.13,12.13,8.4,16.67,14.08,4.57,5.73,7.39,12.72,10.11,19.48,3.18,7.89,6.18,15.35,11.43,19.55,5.21,4.16,13.13,5.44,21.51,6.79,7.21,1.16,14.67,2.36,21.31,5.56,6.49,3.13,11.99,8.16,17.31,13.02,6.33,5.79,12.32,11.26,19.01,12.78,6.33,1.44,13.93-.83,21.97-3.23,7.09-2.12,14.43-4.31,21.97-4.31Z"></path>
  <path d="m221.34,436.54c-2.12,0-4.25-.21-6.38-.69-8.91-2.02-15.56-8.1-21.98-13.98-4.21-3.85-8.18-7.48-12.29-9.46-4.25-2.05-9.65-2.92-15.38-3.84-8.51-1.37-17.32-2.79-24.31-8.37-7.02-5.61-10.36-13.9-13.59-21.92-2.16-5.36-4.19-10.42-7.11-14.07-2.89-3.62-7.35-6.71-12.07-9.97-7.13-4.94-14.5-10.04-18.43-18.19-3.86-8-3.28-16.87-2.72-25.45.38-5.81.74-11.31-.32-15.96-1-4.39-3.63-9.04-6.43-13.96-4.11-7.24-8.77-15.45-8.77-24.67s4.66-17.43,8.77-24.67c2.79-4.92,5.43-9.57,6.43-13.96,1.06-4.66.7-10.15.32-15.96-.56-8.58-1.14-17.45,2.72-25.46,3.93-8.15,11.3-13.25,18.43-18.19,4.72-3.27,9.18-6.36,12.07-9.98,2.92-3.65,4.95-8.71,7.11-14.07,3.23-8.02,6.56-16.31,13.59-21.91,6.99-5.58,15.79-7,24.31-8.37,5.72-.92,11.13-1.79,15.38-3.84,4.11-1.98,8.09-5.62,12.29-9.46,6.43-5.88,13.08-11.95,21.98-13.98,8.56-1.95,17.02.58,25.21,3.02,5.64,1.68,10.97,3.27,15.83,3.27s10.19-1.59,15.83-3.27c8.19-2.44,16.65-4.97,25.21-3.02,8.91,2.02,15.55,8.1,21.98,13.98,4.21,3.85,8.18,7.48,12.29,9.46,4.25,2.05,9.65,2.92,15.38,3.84,8.51,1.37,17.32,2.79,24.31,8.37,7.02,5.61,10.36,13.9,13.59,21.91,2.16,5.36,4.19,10.42,7.11,14.07,2.89,3.62,7.35,6.71,12.07,9.98,7.13,4.94,14.5,10.04,18.43,18.19,3.86,8,3.28,16.87,2.72,25.45-.38,5.81-.74,11.3.32,15.96,1,4.39,3.63,9.03,6.43,13.95,4.11,7.24,8.77,15.46,8.77,24.67s-4.66,17.43-8.77,24.67c-2.79,4.92-5.43,9.57-6.43,13.96-1.06,4.66-.7,10.15-.32,15.96.56,8.58,1.14,17.45-2.72,25.45-3.93,8.15-11.3,13.26-18.43,18.19-4.72,3.27-9.18,6.36-12.07,9.97-2.92,3.65-4.95,8.71-7.11,14.07-3.23,8.02-6.56,16.31-13.59,21.91-6.99,5.58-15.79,7-24.31,8.37-5.72.92-11.13,1.79-15.38,3.84-4.11,1.98-8.09,5.62-12.29,9.46-6.43,5.88-13.08,11.95-21.98,13.98-8.56,1.95-17.03-.58-25.21-3.02-5.64-1.68-10.97-3.27-15.83-3.27s-10.19,1.59-15.83,3.27c-6.14,1.83-12.45,3.71-18.83,3.71Zm-.01-348.46c-1.24,0-2.44.11-3.57.37-5.65,1.29-10.81,6-16.27,10.99-4.69,4.29-9.54,8.73-15.32,11.51-5.91,2.85-12.49,3.91-18.85,4.93-7.22,1.16-14.04,2.26-18.44,5.77-4.43,3.54-7.02,9.97-9.76,16.77-2.4,5.96-4.88,12.13-8.95,17.23-4.04,5.06-9.48,8.83-14.75,12.47-6.05,4.19-11.77,8.15-14.26,13.3-2.42,5.01-1.97,11.88-1.49,19.15.42,6.46.86,13.13-.61,19.58-1.41,6.2-4.63,11.88-7.75,17.38-3.66,6.46-7.13,12.56-7.13,18.45s3.46,11.99,7.13,18.45c3.12,5.5,6.34,11.18,7.75,17.38,1.47,6.44,1.03,13.12.61,19.58-.47,7.27-.92,14.14,1.49,19.15,2.49,5.16,8.2,9.11,14.26,13.3,5.26,3.64,10.7,7.41,14.75,12.47,4.07,5.1,6.55,11.26,8.95,17.23,2.74,6.8,5.33,13.23,9.76,16.77,4.4,3.51,11.22,4.61,18.44,5.77,6.36,1.02,12.95,2.08,18.85,4.93,5.78,2.79,10.63,7.22,15.32,11.51,5.46,4.99,10.61,9.7,16.27,10.99,5.33,1.21,11.88-.74,18.81-2.81,6.26-1.87,12.73-3.8,19.44-3.8s13.18,1.93,19.43,3.8c6.93,2.07,13.47,4.02,18.81,2.81,5.65-1.29,10.81-6,16.27-10.99,4.69-4.29,9.54-8.73,15.32-11.51,5.91-2.85,12.49-3.91,18.85-4.93,7.22-1.16,14.04-2.26,18.44-5.77,4.43-3.54,7.02-9.97,9.76-16.77,2.4-5.96,4.88-12.13,8.95-17.23,4.04-5.06,9.48-8.83,14.75-12.47,6.05-4.19,11.77-8.15,14.26-13.3,2.42-5.01,1.97-11.88,1.49-19.15-.42-6.46-.86-13.13.61-19.58,1.41-6.2,4.63-11.88,7.75-17.38,3.66-6.46,7.13-12.56,7.13-18.45s-3.46-11.99-7.13-18.45c-3.12-5.5-6.34-11.18-7.75-17.38-1.47-6.44-1.03-13.12-.61-19.58.48-7.27.93-14.14-1.49-19.15-2.49-5.16-8.2-9.11-14.26-13.3-5.26-3.64-10.7-7.41-14.75-12.47-4.07-5.1-6.55-11.27-8.95-17.23-2.74-6.8-5.32-13.23-9.76-16.77-4.4-3.51-11.22-4.61-18.44-5.77-6.36-1.02-12.95-2.08-18.85-4.93-5.78-2.79-10.63-7.22-15.32-11.51-5.46-4.99-10.62-9.7-16.27-10.99-5.33-1.21-11.88.74-18.81,2.81-6.26,1.87-12.73,3.8-19.43,3.8s-13.18-1.93-19.43-3.8c-5.45-1.63-10.66-3.18-15.24-3.18Z"></path>
  <rect x="81.07" y="203.83" width="248.62" height="12.61" transform="translate(-88.43 206.79) rotate(-45)"></rect>
  <rect x="131.69" y="254.45" width="248.62" height="12.61" transform="translate(-109.4 257.39) rotate(-45)"></rect>
  <rect x="182.31" y="305.06" width="248.62" height="12.61" transform="translate(-130.37 308.01) rotate(-45)"></rect>
  <rect x="300.31" y="85.82" width="12.61" height="248.62" transform="translate(-58.78 278.36) rotate(-45)"></rect>
  <rect x="249.7" y="136.44" width="12.61" height="248.62" transform="translate(-109.4 257.39) rotate(-45)"></rect>
  <rect x="199.08" y="187.06" width="12.61" height="248.62" transform="translate(-160.02 236.43) rotate(-45)"></rect>
</symbol><symbol id="i061_food-8" xmlns="http://www.w3.org/2000/svg" viewBox="0 0 512 512">
  <path d="m338.38,466H126.53v-6.3c0-35.92,12.54-54,24.67-71.49,11.53-16.62,22.42-32.33,22.42-64.3s-10.89-47.68-22.42-64.31c-12.13-17.49-24.67-35.57-24.67-71.49s12.54-54,24.67-71.49c11.53-16.63,22.42-32.33,22.42-64.31v-6.3h211.84v6.3c0,35.92-12.54,54-24.67,71.49-11.53,16.62-22.42,32.33-22.42,64.3s10.89,47.68,22.42,64.31c12.13,17.49,24.67,35.57,24.67,71.49s-12.54,54.01-24.67,71.49c-11.53,16.63-22.42,32.33-22.42,64.31v6.3Zm-199.09-12.61h186.61c1.38-31.79,13.14-48.75,24.54-65.19,11.53-16.63,22.42-32.33,22.42-64.31s-10.89-47.68-22.42-64.31c-12.13-17.49-24.67-35.57-24.67-71.49s12.54-54,24.67-71.49c10.75-15.49,20.94-30.19,22.27-58h-186.61c-1.38,31.79-13.14,48.75-24.54,65.19-11.53,16.63-22.42,32.33-22.42,64.31s10.89,47.68,22.42,64.31c12.13,17.49,24.67,35.57,24.67,71.49s-12.54,54-24.67,71.49c-10.75,15.49-20.94,30.18-22.27,58Z"></path>
  <path d="m238.62,459.7h-12.61c0-35.92,12.54-54,24.67-71.49,11.53-16.63,22.42-32.33,22.42-64.31s-10.89-47.68-22.42-64.31c-12.13-17.49-24.67-35.57-24.67-71.49s12.54-54,24.67-71.49c11.53-16.63,22.42-32.33,22.42-64.3h12.61c0,35.92-12.54,54-24.67,71.49-11.53,16.62-22.42,32.33-22.42,64.3s10.89,47.68,22.42,64.31c12.13,17.49,24.67,35.57,24.67,71.49s-12.54,54.01-24.67,71.49c-11.53,16.63-22.42,32.33-22.42,64.31Z"></path>
</symbol><symbol id="i061_food-9" xmlns="http://www.w3.org/2000/svg" viewBox="0 0 512 512">
  <path d="m422.88,191.95c-.72-.84-17.71-20.96-29.4-52.49-13.83-37.3-17.11-46.16-45.66-52.36-2.22-.48-4.36-.71-6.62-.96-8.54-.93-18.21-1.98-28.32-17.28-3.08-4.66-6.46-7.23-9.07-8.63l-2,5.54c4.93,3.07,7.86,7.51,10.53,11.55,3.81,5.77,7.11,10.76,16.39,12.89,18.84,4.32,31.33,11.13,38.18,20.81,6.27,8.86,7.86,20.16,4.86,34.54-4.56,21.85-17.98,36.67-18.55,37.29l-9.3-8.52c.12-.13,11.68-13,15.5-31.34,4.03-19.33-.17-32.84-33.52-40.49-14.2-3.26-19.68-11.56-24.09-18.23-3.39-5.14-5.36-7.87-9.63-9.07-1.69-.47-3.1-1.63-3.9-3.19-.8-1.56-.92-3.38-.32-5.03l6.07-16.8c.97-2.69,3.62-4.39,6.47-4.14,1.35.12,13.43,1.55,22.89,15.88,6.84,10.36,11.48,10.86,19.16,11.69,2.38.26,5.07.55,7.94,1.18,35.29,7.67,40.61,22,54.81,60.3,10.92,29.46,27.01,48.5,27.17,48.69l-9.59,8.18Z"></path>
  <path d="m251.29,466c-10.34,0-19.81-.64-28.03-1.55-51.69-5.71-78.47-21.75-98.03-33.46-6.15-3.68-11.46-6.86-16.37-8.95-1.43-.61-2.35-.83-2.86-.9-.11.29-.25.72-.39,1.36-.4,1.77-.56,3.9-.73,6.16-.63,8.27-1.79,23.65-23.16,22.36-6.54-.39-12.35-3.48-16.8-8.92-7.25-8.86-10.45-23.68-8.36-38.7,1.48-10.62,10.33-45.17,62.08-43.78,23.54.63,37.23,5.76,48.24,9.88,15.49,5.8,25.72,9.63,56.65-3.95,18.26-8.02,31.18-8.39,41.56-8.69,8.95-.26,14.86-.43,21.18-5.4,3.09-2.43,4.08-5.72,6.01-12.91,2.43-9.05,6.03-22.44,18.64-40.88-2.55-10.86-4.84-24.34-4.84-37.65,0-24.19,6.22-47.24,17.53-64.91,12.01-18.78,29.01-30.17,47.86-32.07,9.85-.99,59.78-3.39,76.21,47.03,10.9,33.46,17.07,77.67-19.79,151.88-20.72,41.7-52.23,71.47-93.67,88.47-29.29,12.02-58.55,15.58-82.93,15.58Zm-145.76-57.51c2.47,0,5.21.65,8.27,1.95,5.71,2.42,11.36,5.81,17.91,9.74,18.56,11.11,43.97,26.34,92.93,31.74,41.18,4.55,142.31,4.34,191.95-95.58,34.84-70.13,29.2-111.32,19.09-142.36-13.43-41.22-54.8-39.21-62.95-38.39-30.81,3.11-54.04,39.4-54.04,84.44,0,26.91,10.65,55.86,10.76,56.15l-11.82,4.4c-.12-.33-.98-2.65-2.17-6.42-6.73,11.82-9.12,20.71-10.99,27.67-2.08,7.74-3.88,14.43-10.4,19.55-9.59,7.54-18.83,7.81-28.61,8.09-9.77.28-20.84.6-36.86,7.63-35.62,15.64-49.09,10.6-66.14,4.21-10.65-3.99-22.72-8.51-44.15-9.09-40.19-1.08-47.82,22.66-49.25,32.92-1.6,11.47.61,22.84,5.63,28.97,2.23,2.73,4.78,4.14,7.8,4.32,8.98.54,9.15-1.85,9.83-10.74.2-2.6.4-5.29,1-7.95.41-1.82,1.65-7.37,6.74-9.98,1.66-.85,3.48-1.28,5.48-1.28Z"></path>
  <path d="m329.38,275.89c-4-56.62,20.19-78.81,21.22-79.73l8.38,9.42-4.19-4.71,4.23,4.68c-.21.19-20.58,19.57-17.06,69.45l-12.58.89Z"></path>
  <path d="m219.13,402.89l-6.44-10.84c1.33-.79,32.93-19.27,65.41-14.05l-2,12.45c-28.01-4.51-56.68,12.27-56.97,12.44Z"></path>
</symbol>
</svg>