<svg xmlns="http://www.w3.org/2000/svg" style="display: none;">

<symbol id="i062_food-10" data-name="Layer 1" xmlns="http://www.w3.org/2000/svg" viewBox="0 0 512 512">
  <path d="m46.51,241.79v9.42c0,94.94,93.98,172.19,209.49,172.19,11.43,0,22.66-.76,33.6-2.21,25.04-3.34,48.61-10.44,69.86-20.41,22.43-10.5,42.26-23.84,58.53-40.74h.01c17.35-16.89,30.65-37.5,38.69-59.56,4.61-12.63,7.51-25.81,8.45-39.48.22-3.25.34-6.49.34-9.8v-9.42H46.51Zm359.91,102.53c-4.94,5.15-10.28,9.93-15.97,14.52-26.87,21.71-61.81,36.89-100.84,42.5-10.91,1.59-22.13,2.38-33.6,2.38-12.4,0-24.52-.75-36.26-2.6-83.47-13.01-147.6-70.64-153.16-139.62h378.83c-2.49,30.97-16.65,59.52-39,82.82Z"></path>
  <path d="m255.45,198.11c-3.08,0-6.12-1.45-8.04-4.16-3.14-4.44-2.09-10.59,2.35-13.74l1.42-1c4.53-3.21,7.15-7.91,7.2-12.87.04-5.02-2.42-9.62-6.95-12.95l-2.5-1.84c-9.78-7.2-15.23-17.95-14.96-29.5.27-11.61,6.27-22.16,16.45-28.95,4.52-3.01,10.63-1.79,13.65,2.74,3.01,4.53,1.79,10.65-2.74,13.66-4.76,3.17-7.56,7.91-7.68,13-.12,5.03,2.41,9.83,6.94,13.16l2.5,1.84c9.61,7.07,15.07,17.64,14.97,29-.1,11.37-5.75,21.86-15.5,28.79l-1.42,1.01c-1.73,1.22-3.71,1.81-5.68,1.81Z"></path>
  <path d="m204.81,198.11c-3.08,0-6.12-1.45-8.04-4.16-3.14-4.44-2.09-10.59,2.34-13.74l1.41-1c4.53-3.22,7.15-7.91,7.2-12.87.04-5.02-2.42-9.62-6.95-12.95l-2.5-1.84c-9.78-7.2-15.23-17.95-14.96-29.5.27-11.61,6.27-22.16,16.45-28.95,4.52-3.01,10.63-1.79,13.65,2.74,3.01,4.53,1.79,10.65-2.74,13.66-4.76,3.17-7.56,7.91-7.68,13-.12,5.03,2.41,9.83,6.94,13.16l2.5,1.84c9.61,7.07,15.07,17.65,14.97,29-.1,11.37-5.75,21.86-15.5,28.79l-1.42,1.01c-1.73,1.22-3.71,1.81-5.68,1.81Z"></path>
  <path d="m305.81,195.26c-3.08,0-6.12-1.45-8.04-4.16-3.14-4.44-2.09-10.59,2.34-13.74l1.41-1c4.53-3.22,7.16-7.91,7.2-12.87.04-5.02-2.42-9.62-6.95-12.95l-2.5-1.84c-9.78-7.2-15.23-17.95-14.96-29.5.27-11.61,6.27-22.16,16.45-28.95,4.52-3.02,10.63-1.79,13.65,2.74,3.01,4.53,1.79,10.65-2.74,13.66-4.76,3.17-7.56,7.91-7.68,13-.12,5.03,2.41,9.83,6.94,13.16l2.5,1.84c9.61,7.07,15.07,17.65,14.97,29.01-.1,11.37-5.75,21.86-15.5,28.78l-1.42,1c-1.73,1.23-3.71,1.81-5.68,1.81Z"></path>
  <path d="m333.05,367.86c-3.79,0-7.4-2.2-9.02-5.9-2.18-4.98.08-10.8,5.06-12.98,26.81-11.78,48.38-29.52,62.36-51.3,2.94-4.58,9.03-5.91,13.6-2.96,4.57,2.94,5.9,9.04,2.96,13.62-16.08,25.06-40.64,45.35-71.01,58.69-1.29.56-2.63.83-3.95.83Z"></path>
</symbol><symbol id="i062_food-24" data-name="Layer 1" xmlns="http://www.w3.org/2000/svg" viewBox="0 0 512 512">
  <path d="m336.85,370.27h-80.85c-5.44,0-9.84-4.41-9.84-9.85s4.41-9.85,9.84-9.85h80.85c5.44,0,9.84,4.41,9.84,9.85s-4.41,9.85-9.84,9.85Z"></path>
  <path d="m387.46,65.24H124.54v381.52h61.86v-35.2h201.06V65.24Zm-220.74,361.81h-22.5v-15.49h22.5v15.49Zm201.06-35.2h-223.55v-168.94h223.55v168.94Zm0-188.65h-223.55v-56.31h223.55v56.31Zm0-76.02h-223.55v-42.24h223.55v42.24Z"></path>
</symbol><symbol id="i062_food-1" data-name="Layer 1" xmlns="http://www.w3.org/2000/svg" viewBox="0 0 512 512">
  <path d="m348.49,125.42c-4.22,0-8.35.49-12.36,1.45-3.11-8.26-7.44-15.82-12.79-22.48-15.17-18.96-38.41-30.66-64.13-30.66-35.25,0-66.07,22.4-77.51,54.79-5.68-2.04-11.7-3.1-17.84-3.1-29.17,0-52.92,23.78-52.92,52.99s21.39,50.71,48.45,52.84v197.18c0,5.45,4.4,9.85,9.84,9.85h178.56c5.44,0,9.84-4.41,9.84-9.85v-197.93c24.69-4.62,43.43-26.21,43.43-52.09,0-29.21-23.58-52.99-52.57-52.99Zm-169.42,293.15v-35.2h158.88v35.2h-158.88Zm168.72-206.88c-5.44,0-9.84,4.41-9.84,9.85v142.12h-18.28v-114.03c0-5.44-4.41-9.85-9.84-9.85s-9.84,4.41-9.84,9.85v114.03h-18.28v-114.03c0-5.44-4.41-9.85-9.84-9.85s-9.84,4.41-9.84,9.85v114.03h-82.95v-142.56c0-2.94-1.32-5.74-3.6-7.62-2.28-1.87-5.27-2.62-8.17-2.04-.39.07-1.84.24-3.8.24-18.14,0-32.89-14.92-32.89-33.28s14.92-33.28,33.24-33.28c.35,0,.69,0,1.04.03,5.57.15,10.94,1.7,15.72,4.52h.01c.63.38,1.27.77,1.88,1.2,2.74,1.87,6.26,2.22,9.32.94,3.07-1.28,5.29-4.01,5.89-7.29,5.51-29.61,31.37-51.09,61.48-51.09s54.3,19.89,60.92,48.39c0,.03.01.06.01.08.7,2.87,2.66,5.29,5.33,6.57,2.7,1.3,5.85,1.28,8.53-.03,4.53-2.2,9.41-3.32,14.48-3.32,18.14,0,32.89,14.94,32.89,33.28s-15.07,33.28-33.59,33.28Z"></path>
</symbol><symbol id="i062_food-11" data-name="Layer 1" xmlns="http://www.w3.org/2000/svg" viewBox="0 0 512 512">
  <path d="m374.75,242.79c-1.89-2.25-4.69-3.91-7.64-3.91h-222.22c-2.99,0-5.83,1.68-7.72,4.01-1.89,2.32-2.65,5.55-2.05,8.49l17.54,85.92,2.21,10.85,4.46,21.91,7.12,34.85c.95,4.65,5.03,7.99,9.77,7.99h163.83c4.84,0,8.97-3.45,9.81-8.22l6.11-34.59,2.59-14.73,3.18-18.06,15.19-86.18c.51-2.91-.28-6.06-2.18-8.33Zm-39.03,126.95l-4.03,23.19h-147.34l-4.67-22.85-4.07-19.95-.8-4.25-1.74-8.57-15.95-78.45h198.12l-13.8,78.45-5.71,32.44Z"></path>
  <path d="m358.49,308.43h-122.43c-5.51,0-9.97-4.47-9.97-9.98s4.46-9.98,9.97-9.98h122.43c5.51,0,9.97,4.47,9.97,9.98s-4.46,9.98-9.97,9.98Z"></path>
  <path d="m320.11,181.83v-41.36h-38.46v-41.36h-52.71v41.36h-37.04v41.36h-37.04v57.05h19.94v-37.09h12.82v37.09h24.22v-78.45h12.82v78.45h25.64v-37.09h12.82v37.09h24.22v-78.45h12.82v78.45h25.64v-37.09h12.82v37.09h19.94v-57.05h-38.46Zm-58.41,0h-12.82v-62.76h12.82v62.76Z"></path>
</symbol><symbol id="i062_food-12" data-name="Layer 1" xmlns="http://www.w3.org/2000/svg" viewBox="0 0 512 512">
  <path d="m317.01,386.85c-9.38,6.7-19.63,11.62-30.31,14.79-9.65,2.86-19.62,4.29-29.58,4.29-13.91,0-27.8-2.77-40.74-8.29-11.82-5.02-22.83-12.32-32.37-21.88l-46.24-46.3c-14.36-14.38-23.63-32.13-27.72-50.86-1.09-5-1.81-10.08-2.16-15.17-1.61-23.35,4.61-47.22,18.79-67.17l14.98,15c-2.44,3.75-4.53,7.65-6.27,11.67-5.53,12.58-7.74,26.22-6.72,39.66.74,9.9,3.26,19.68,7.51,28.81,3.95,8.47,9.38,16.37,16.31,23.31l46.24,46.3c27.75,27.79,71.2,31.72,103.3,10.83l7.12,7.11,2.42,2.43.04.06,5.4,5.39Z"></path>
  <g>
    <path d="m180.17,140.09l-.16.15,192.97,193.23h.01s-192.83-193.38-192.83-193.38Z"></path>
    <path d="m386.61,317.47l-14.92-14.96c15.56-23.05,18.18-52.08,8.12-77.11-4.03-10.02-10.09-19.39-18.18-27.49l-46.24-46.3c-28.24-28.28-72.16-31.91-104.4-10.12l-14.92-14.97c40.64-29.83,97.71-26.02,134.04,10.36l46.24,46.3c5.28,5.28,9.87,11.01,13.75,17.06,22.98,35.6,22.03,82.44-3.48,117.23Z"></path>
  </g>
  <path d="m402.09,332.98l-15.4-15.43-.07-.07-14.92-14.96-61.42-61.54-99.29-99.48-14.92-14.97-16.78-16.8c-9.23-9.24-21.54-14.66-34.65-14.66h-.07c-13.11,0-25.42,5.42-34.65,14.66-9.23,9.24-14.33,21.89-14.33,35.05s5.1,25.48,14.33,34.72l31.75,31.79,120.78,120.95,39.58,39.63,7.12,7.11,2.42,2.43,5.44,5.45,15.73,15.75c9.23,9.24,21.54,14.35,34.68,14.35s25.45-5.13,34.68-14.39c9.25-9.24,14.33-21.61,14.33-34.77s-5.08-25.55-14.33-34.81Zm-14.72,54.87c-5.29,5.31-12.38,8.23-19.96,8.23s-14.67-2.95-19.98-8.26L124.63,164.68c-5.31-5.31-8.23-12.49-8.23-20.08s2.93-14.84,8.23-20.15c5.31-5.31,12.38-8.56,19.93-8.56h.07c7.55,0,14.63,3.24,19.93,8.56l15.61,15.64,192.83,193.36,14.37,14.42c5.31,5.31,8.23,12.41,8.23,19.99s-2.93,14.69-8.23,19.99Z"></path>
  <path d="m378.28,364.01c-2.04,2.04-4.7,3.05-7.36,3.05s-5.34-1.01-7.36-3.05c-3.37-3.38-6.27-3.39-13.05-3.1-7.88.34-18.67.82-28.66-9.18-9.97-10-9.51-20.81-9.17-28.69.3-6.79.28-9.67-3.09-13.05-3.37-3.38-6.26-3.39-13.04-3.1-7.88.34-18.68.8-28.66-9.18-9.97-10-9.51-20.81-9.17-28.69.3-6.79.28-9.67-3.09-13.05s-6.26-3.39-13.04-3.1c-7.88.34-18.67.82-28.64-9.18-9.99-9.99-9.51-20.79-9.17-28.69.3-6.79.28-9.67-3.09-13.05-3.37-3.36-6.26-3.38-13.04-3.1-7.88.36-18.67.82-28.66-9.17-9.97-10-9.51-20.81-9.17-28.69.3-6.79.28-9.67-3.09-13.05-4.06-4.06-4.06-10.66,0-14.73,4.07-4.06,10.66-4.06,14.72,0,9.99,10,9.51,20.81,9.17,28.69-.3,6.79-.28,9.67,3.09,13.05s6.26,3.39,13.04,3.1c7.88-.34,18.67-.82,28.66,9.17,9.97,10,9.51,20.81,9.16,28.69-.28,6.79-.27,9.67,3.11,13.05,3.36,3.38,6.24,3.39,13.02,3.1,7.89-.34,18.68-.82,28.66,9.18,9.97,9.99,9.51,20.79,9.17,28.69-.3,6.79-.28,9.67,3.09,13.05,3.37,3.38,6.26,3.39,13.04,3.1,7.88-.34,18.67-.82,28.66,9.18,9.97,9.99,9.51,20.79,9.17,28.69-.3,6.79-.28,9.67,3.09,13.05,3.37,3.38,6.27,3.39,13.05,3.1,7.88-.34,18.67-.8,28.66,9.18,4.06,4.08,4.06,10.67,0,14.73Z"></path>
</symbol><symbol id="i062_food-14" data-name="Layer 1" xmlns="http://www.w3.org/2000/svg" viewBox="0 0 512 512">
  <g>
    <path d="m256,46.23c-115.52,0-209.49,94.1-209.49,209.77s93.98,209.77,209.49,209.77,209.49-94.1,209.49-209.77S371.52,46.23,256,46.23Zm0,399.83c-104.66,0-189.81-85.26-189.81-190.06s85.15-190.06,189.81-190.06,189.81,85.26,189.81,190.06-85.15,190.06-189.81,190.06Z"></path>
    <path d="m421.98,222.01c-11.69-57.21-53.03-105.24-107.88-125.35-5.11-1.87-10.76.76-12.63,5.87-1.87,5.11.75,10.77,5.86,12.64,48.49,17.78,85.03,60.23,95.37,110.79.95,4.67,5.05,7.88,9.63,7.88.65,0,1.32-.07,1.98-.2,5.32-1.09,8.76-6.3,7.67-11.63Z"></path>
    <path d="m255.76,86.35c-38.34,0-74.51,12.49-104.61,36.13-4.28,3.36-5.03,9.55-1.67,13.84,1.94,2.48,4.83,3.77,7.75,3.77,2.12,0,4.26-.69,6.07-2.1,26.6-20.89,58.58-31.93,92.47-31.93,5.44,0,9.84-4.41,9.84-9.85s-4.41-9.85-9.84-9.85Z"></path>
  </g>
  <path d="m344.7,152.23l-.08-.06c-2.81-2.31-7.05-2.04-10.25-.3l-136.31,75.21h-.01s-40.74,21.98-40.74,21.98l-.1-.07-60.26,32.94c-3.98,2.18-5.66,6.92-3.97,11.13,4.71,11.82,10.3,23,16.7,33.54,12.56,20.67,28.34,38.82,47.15,54.28,30.14,24.78,65.53,40.47,105.16,46.69,4.47.71,8.78-2.05,10.05-6.37l11.29-38.13,18.34-62.33h0s.2-.61.2-.61l9.58-33.62.05-.09,36.16-124.57c.14-.45.23-.92.29-1.38.38-3.08-.82-6.25-3.24-8.24Zm-24.89,40.36l-23.77,81.67-2.51,8.66-11.48,39.45-1.74,5.97-11.98,41.16c-26.44-7.54-50.46-20.05-71.48-37.33-16.85-13.84-31.07-30.2-42.51-48.8-1.94-3.11-3.77-6.28-5.53-9.5l8.12-4.45,59.41-32.58,107.84-59.17-4.35,14.92Zm-62.82,215.84c-33.26-6.46-63.08-20.41-88.72-41.48-24.01-19.75-42.65-44.38-55.45-73.32l20.21-11.08c13.37,24.57,30.95,45.92,52.39,63.54,22.93,18.84,49.09,32.5,77.87,40.71l-6.3,21.64Z"></path>
  <path d="m249.57,333.99c-4.15,5.05-11.6,5.78-16.64,1.63-5.04-4.15-5.77-11.6-1.63-16.64,4.15-5.05,11.6-5.77,16.64-1.63,5.04,4.15,5.77,11.6,1.63,16.64Z"></path>
  <path d="m296.51,237.61c-6.54,7.02-17.52,7.4-24.53.86-7.01-6.54-7.4-17.52-.86-24.54,6.54-7.02,17.52-7.4,24.54-.86,7.01,6.54,7.4,17.52.86,24.54Z"></path>
  <path d="m257.04,271.81c-4.15,5.05-11.6,5.77-16.64,1.63-5.04-4.15-5.77-11.6-1.63-16.64,4.15-5.05,11.6-5.78,16.64-1.63,5.04,4.15,5.77,11.6,1.63,16.64Z"></path>
  <path d="m279.94,320.46c-12.77,0-23.15-10.38-23.15-23.15s10.39-23.15,23.15-23.15,23.15,10.38,23.15,23.15-10.39,23.15-23.15,23.15Zm0-33.3c-5.6,0-10.15,4.55-10.15,10.15s4.55,10.15,10.15,10.15,10.15-4.55,10.15-10.15-4.55-10.15-10.15-10.15Z"></path>
  <path d="m187.14,290.49c-18.57,0-34.7-13.2-38.34-31.39l-.98-4.91,65.63-32.16,3.28,3.79c6.14,7.1,9.52,16.18,9.52,25.56,0,21.56-17.54,39.11-39.11,39.11Zm-24.18-29.25c3.94,9.65,13.45,16.25,24.18,16.25,14.4,0,26.11-11.71,26.11-26.11,0-4.61-1.22-9.11-3.51-13.06l-46.78,22.92Z"></path>
</symbol><symbol id="i062_food-22" data-name="Layer 1" xmlns="http://www.w3.org/2000/svg" viewBox="0 0 512 512">
  <g>
    <path d="m256,43.26c-115.52,0-209.49,94.1-209.49,209.77s93.98,209.77,209.49,209.77,209.49-94.1,209.49-209.77S371.52,43.26,256,43.26Zm0,399.83c-104.66,0-189.81-85.26-189.81-190.06S151.34,62.96,256,62.96s189.81,85.26,189.81,190.06-85.15,190.06-189.81,190.06Z"></path>
    <path d="m421.98,219.04c-11.69-57.21-53.03-105.24-107.88-125.35-5.11-1.87-10.76.76-12.63,5.87-1.87,5.11.75,10.77,5.86,12.64,48.49,17.78,85.03,60.23,95.37,110.79.95,4.67,5.05,7.88,9.63,7.88.65,0,1.32-.07,1.98-.2,5.32-1.09,8.76-6.3,7.67-11.63Z"></path>
    <path d="m255.76,83.38c-38.34,0-74.51,12.49-104.61,36.13-4.28,3.36-5.03,9.55-1.67,13.84,1.94,2.48,4.83,3.77,7.75,3.77,2.12,0,4.26-.69,6.07-2.1,26.6-20.89,58.58-31.93,92.47-31.93,5.44,0,9.84-4.41,9.84-9.85s-4.41-9.85-9.84-9.85Z"></path>
  </g>
  <path d="m382.78,277.22c-1.22-2.83-3.7-4.94-6.71-5.67-3.01-.73-6.17-.01-8.56,1.96-5.88,4.81-13.98,5.58-20.64,1.94-5.06-2.76-8.49-7.6-9.43-13.3-.86-5.18-3.89-9.78-8.34-12.61-4.54-2.9-10.15-3.72-15.4-2.25-4.67,1.31-9.6.75-13.86-1.58-6.78-3.69-10.52-11.02-9.55-18.7.35-2.77-.49-5.56-2.31-7.67-1.81-2.11-4.44-3.35-7.23-3.42-24.35-.58-41.59,3.25-53.47,7.97-5.08,2.01-9.17,4.2-12.41,6.26l-29.27-15.95,2.62-4.8c4.96-9.14,6.05-19.71,3.02-29.76-3.01-9.98-9.69-18.22-18.81-23.19-9.11-4.97-19.66-6.12-29.65-3.22-10.07,2.91-18.35,9.55-23.33,18.7-5.51,10.15-6.05,21.71-2.42,31.82-10.45,2.44-19.85,9.15-25.36,19.3-4.98,9.15-6.06,19.72-3.04,29.76,2.99,10,9.67,18.23,18.8,23.2,5.96,3.25,12.39,4.79,18.73,4.79,13.84,0,27.22-7.32,34.26-20.26l2.19-4.04,29.53,16.09c.13,20.65,10.5,41.69,19.7,56.31,10.99,17.47,25.9,34.37,37.08,42.04,17.22,11.81,37.32,17.99,57.44,17.99,7.59,0,15.18-.87,22.62-2.66,10.52-2.52,20.2-6.79,28.61-12.45,10.14-6.79,18.4-15.61,23.97-25.88,11.22-20.64,11.67-46.4,1.22-70.72Zm-183.43-31.72c-.11.18-.24.37-.34.55-.37.59-.72,1.2-1.05,1.8-.37.69-.72,1.39-1.07,2.1-.11.25-.22.51-.34.76-.21.46-.42.93-.62,1.39-.01.03-.03.06-.04.08l-32.52-17.74c-2.29-1.24-4.98-1.53-7.48-.79-2.52.73-4.61,2.44-5.86,4.74l-6.9,12.68c-5.08,9.33-16.86,12.73-26.29,7.6-4.54-2.48-7.86-6.59-9.36-11.57-1.49-4.97-.97-10.18,1.48-14.66,3.49-6.41,10.1-10.04,16.91-10.04,3.11,0,6.24.75,9.15,2.34,4.78,2.6,10.76.83,13.36-3.94.82-1.51,1.2-3.13,1.2-4.72,0-3.49-1.86-6.87-5.13-8.66-9.31-5.07-12.75-16.78-7.69-26.12,2.45-4.48,6.52-7.74,11.5-9.18,4.99-1.45,10.24-.89,14.78,1.59,2.28,1.24,4.25,2.89,5.82,4.84,1.59,1.96,2.8,4.24,3.54,6.73,1.49,4.97.97,10.16-1.46,14.66l-7.31,13.44c-1.25,2.29-1.53,5-.8,7.5.75,2.51,2.45,4.62,4.74,5.87l32.45,17.7c-.22.34-.44.68-.65,1.01Zm164.92,93.02c-3.74,6.9-9.22,12.94-15.97,17.78-6.83,4.93-14.97,8.63-23.93,10.78-21.76,5.24-45.2.72-64.32-12.42-7.62-5.22-20.91-19.37-31.55-36.28-12.08-19.2-17.93-37.11-16.45-50.46.42-3.93,1.5-7.5,3.21-10.64,1.6-2.96,3.78-5.55,6.65-7.95,3.89-3.24,9-5.96,15.1-8.1,9.29-3.27,20.88-5.19,33.94-5.59,1.87,11.46,8.87,21.58,19.47,27.37,8.56,4.66,18.39,5.87,27.8,3.45,2.19,11.26,9.15,20.79,19.25,26.3,9.69,5.28,20.84,6.05,30.82,2.56,4.13,15.39,2.78,30.69-4.01,43.19Z"></path>
</symbol><symbol id="i062_food-13" data-name="Layer 1" xmlns="http://www.w3.org/2000/svg" viewBox="0 0 512 512">
  <path d="m408.83,187.02H109.23l4.76-13.2c15.98-44.31,60.07-74.08,109.71-74.08h70.65c49.64,0,93.73,29.77,109.71,74.08l4.76,13.2Zm-270.28-19.71h240.95c-16.42-29.12-48.98-47.87-85.15-47.87h-70.65c-36.17,0-68.72,18.75-85.15,47.87Z"></path>
  <path d="m263.32,156.92c0,3.01-2.62,5.46-5.84,5.46s-5.84-2.44-5.84-5.46,2.62-5.46,5.84-5.46,5.84,2.44,5.84,5.46Z"></path>
  <ellipse cx="233.11" cy="142.14" rx="5.84" ry="5.46"></ellipse>
  <ellipse cx="281.47" cy="142.14" rx="5.84" ry="5.46"></ellipse>
  <path d="m263.32,131.23c0,3.01-2.62,5.46-5.84,5.46s-5.84-2.44-5.84-5.46,2.62-5.46,5.84-5.46,5.84,2.44,5.84,5.46Z"></path>
  <path d="m310.43,156.92c0,3.01-2.62,5.46-5.84,5.46s-5.84-2.44-5.84-5.46,2.62-5.46,5.84-5.46,5.84,2.44,5.84,5.46Z"></path>
  <path d="m320.85,135.1c0,3.01-2.62,5.46-5.84,5.46s-5.84-2.44-5.84-5.46,2.62-5.46,5.84-5.46,5.84,2.44,5.84,5.46Z"></path>
  <path d="m343.97,151.47c0,3.01-2.62,5.46-5.84,5.46s-5.84-2.44-5.84-5.46,2.62-5.46,5.84-5.46,5.84,2.44,5.84,5.46Z"></path>
  <path d="m204.9,156.92c0,3.01,2.62,5.46,5.84,5.46s5.84-2.44,5.84-5.46-2.62-5.46-5.84-5.46-5.84,2.44-5.84,5.46Z"></path>
  <path d="m194.48,135.1c0,3.01,2.62,5.46,5.84,5.46s5.84-2.44,5.84-5.46-2.62-5.46-5.84-5.46-5.84,2.44-5.84,5.46Z"></path>
  <path d="m171.36,151.47c0,3.01,2.62,5.46,5.84,5.46s5.84-2.44,5.84-5.46-2.62-5.46-5.84-5.46-5.84,2.44-5.84,5.46Z"></path>
  <path d="m400.82,220.8c0,5.8-2.38,11.09-6.2,14.91-3.81,3.83-9.1,6.21-14.89,6.21h-245.35c-11.6,0-21.09-9.5-21.09-21.12,0-5.8,2.38-11.09,6.2-14.91,3.81-3.83,9.1-6.21,14.89-6.21h138.31c2.04,12.71,22.19,22.71,46.76,22.71s44.71-10,46.75-22.71h13.53c11.6,0,21.09,9.5,21.09,21.12Z"></path>
  <path d="m401.17,256.7H110.83c-4.06,0-7.38,3.33-7.38,7.39h0c0,4.07,3.32,7.39,7.38,7.39h290.34c4.06,0,7.38-3.33,7.38-7.39h0c0-4.07-3.32-7.39-7.38-7.39Z"></path>
  <path d="m349.73,283.69c-16.89,0-25.87,8.63-32.43,14.94-5.62,5.4-8.15,7.59-14.45,7.59s-8.83-2.19-14.44-7.59c-6.56-6.3-15.54-14.94-32.43-14.94s-25.87,8.63-32.43,14.94c-5.62,5.4-8.15,7.59-14.44,7.59s-8.83-2.19-14.44-7.59c-6.56-6.3-15.54-14.94-32.43-14.94s-25.87,8.63-32.42,14.94c-5.62,5.4-8.15,7.59-14.44,7.59-7.37,0-13.35,6.3-13.35,14.08s5.98,14.08,13.35,14.08c16.89,0,25.87-8.63,32.43-14.94,5.62-5.4,8.15-7.59,14.44-7.59s8.83,2.19,14.44,7.59c6.56,6.3,15.54,14.94,32.43,14.94s25.87-8.63,32.43-14.94c5.62-5.4,8.15-7.59,14.44-7.59s8.83,2.19,14.44,7.59c6.56,6.3,15.54,14.94,32.43,14.94s25.87-8.63,32.43-14.93c5.62-5.4,8.15-7.59,14.45-7.59s8.83,2.19,14.45,7.59c6.56,6.3,15.54,14.94,32.43,14.94,7.37,0,13.35-6.3,13.35-14.08s-5.98-14.08-13.35-14.08c-6.3,0-8.83-2.19-14.45-7.59-6.56-6.3-15.54-14.93-32.43-14.93Z"></path>
  <path d="m392.51,355.11l-1.77-7.6H124.83l-1.81,7.56c-.77,3.27-1.29,6.25-1.29,10.22v5.74c0,22.74,17.34,41.24,38.64,41.24h194.89c21.22,0,37.84-18.12,37.84-41.24v-5.74c0-.65.03-1.27.04-1.86.07-2.21.17-4.97-.62-8.32Zm-19.11,15.92c0,12.07-7.97,21.53-18.15,21.53h-194.89c-10.45,0-18.95-9.66-18.95-21.53v-3.82h231.99v3.82Z"></path>
</symbol><symbol id="i062_food-23" data-name="Layer 1" xmlns="http://www.w3.org/2000/svg" viewBox="0 0 512 512">
  <path d="m390.89,291.82c-7.59,23.1-28.91,40.08-54.19,41.33.2-.11.38-.23.56-.35,25.03-1.46,46.07-18.15,53.63-40.98Z"></path>
  <path d="m338.8,135.57c-.06-.06-.13-.11-.18-.17,24.54,2,45.06,18.84,52.39,41.55-7.33-22.6-27.77-39.31-52.2-41.38Z"></path>
  <path d="m376.86,128.4s-.07-.03-.1-.04h.01c5.34-4.9,8.67-12.11,8.67-19.91v-1.6c0-14.75-11.94-26.23-26.67-26.23h-126.53c-6.06,0-11.67,1.77-16.15,5.18-6.43,4.89-10.62,12.36-10.62,21.05v1.6c0,7.52,3.14,14.39,8.14,19.33-22.58,14.01-37.67,38.95-37.67,67.51v77.87c0,44.01,35.8,79.18,79.75,79.18h77.78c43.94,0,80.09-35.17,80.09-79.18v-77.87c0-28.09-14.76-52.67-36.71-66.89Zm-151.69-21.03c0-3.89,3.15-7.04,7.03-7.04h126.54c3.88,0,7.03,3.15,7.03,7.04v1.41c0,3.89-3.15,7.04-7.03,7.04h-126.54c-3.88,0-7.03-3.15-7.03-7.04v-1.41Zm168.72,165.79c0,6.53-1.05,12.8-2.99,18.67-7.55,22.84-28.6,39.52-53.63,40.98-.18.03-.38.03-.56.04-1,.06-2.21-.23-3.22-.23h-77.78c-33.1,0-60.06-26.33-60.06-59.47v-77.87c0-33.14,26.97-59.76,60.06-59.76h82.15c.24.01.49.01.75.03.07,0,.13.01.2.01,24.44,2.07,44.88,18.78,52.2,41.38,1.87,5.77,2.88,11.94,2.88,18.34v77.87Z"></path>
  <path d="m279.72,251.72h-49.57l-24.78-42.98,24.78-42.98h49.57l24.78,42.98-24.78,42.98Zm-38.2-19.71h26.84l13.42-23.27-13.42-23.27h-26.84l-13.42,23.27,13.42,23.27Z"></path>
  <path d="m380.6,260.09l-20.45-34.88v.42h.32l-4.34-8.45h-49.56l-24.79,42.94,24.79,42.94h49.56l24.79-42.95h-.16s-.15-.02-.15-.02Zm-35.83,23.26h-26.84l-13.41-23.23,13.41-23.23h26.84l13.43,23.23-13.43,23.23Z"></path>
  <path d="m254.95,313.62c-.09,0-.18,0-.27,0-30.19-.82-40.05-26.45-40.05-35.19,0-5.44,4.41-9.85,9.84-9.85s9.47,4.05,9.82,9.18c.27,1.46,3.33,15.68,20.93,16.16,5.43.15,9.72,4.68,9.57,10.12-.15,5.35-4.52,9.59-9.83,9.59Zm-20.65-35.74c0,.18.02.36.02.54,0-.13,0-.31-.02-.54Z"></path>
  <path d="m260.04,362.76c-4.92-3.2-11.4-1.99-14.47,2.25-11.34-7.26-25.46-6.32-34.53,1.21l-96.63-62.84c-5.06-3.29-11.57-2.26-14.53,2.3-2.96,4.56-1.26,10.93,3.81,14.23l96.63,62.84c-3.19,11.36,2.12,24.02,13.35,31.44-2.62,4.53-.78,10.47,4.14,13.67,4.92,3.2,11.78,2.58,14.85-1.66,13.7,8.77,31.84,6.21,39.83-6.1l2.81-4.33c7.98-12.31,2.89-29.87-10.68-38.83,2.62-4.53.35-10.98-4.57-14.18Zm-37.33,24.97l2.81-4.33c2.07-3.19,6.37-4.07,10.37-1.62l-10.44,16.1c-3.86-2.66-4.8-6.96-2.73-10.14Zm34.25,16.12l-2.81,4.33c-2.07,3.19-6.37,4.07-10.37,1.62l10.44-16.1c3.86,2.66,4.8,6.96,2.73,10.14Z"></path>
</symbol><symbol id="i062_food-3" data-name="Layer 1" xmlns="http://www.w3.org/2000/svg" viewBox="0 0 512 512">
  <path d="m402.58,255.51c-8.56-7.41-19.54-10.26-29.2-10.19.17-3.53.27-7.1.27-10.69v-9.32H95.25v9.32c0,90.14,54.41,164.58,124.05,174.08,4.96.68,10.07,1.03,15.17,1.03,33.63,0,64.52-15.11,88.62-40.19,33.79-.08,84.33-17.36,92.49-66.14,4.43-26.44-4.63-40.64-13.01-47.89Zm-149.46,132.87c-6.07,1.27-12.32,2.04-18.67,2.04-63.31,0-115.26-65.15-119.19-145.4h238.37c-3.53,71.8-45.93,132.18-100.52,143.36Zm143.06-88.24c-2.77,16.56-12.47,29.52-28.82,38.56-7.97,4.41-17.38,7.64-27.04,9.47,15.78-23.26,26.81-51.72,31.21-83.06,5.54-.44,12.92.77,18.18,5.31,8.25,7.15,8.07,20.12,6.47,29.72Z"></path>
  <path d="m209.15,356.95c-.79,0-1.59-.1-2.39-.3-38.57-9.66-53.45-53.89-54.07-55.77-1.69-5.17,1.12-10.74,6.29-12.43,5.16-1.69,10.71,1.12,12.41,6.28.21.64,12.31,35.83,40.14,42.8,5.27,1.32,8.48,6.67,7.16,11.95-1.12,4.48-5.13,7.47-9.54,7.47Z"></path>
  <path d="m313.52,198.13c-3.08,0-6.12-1.45-8.04-4.16-3.14-4.44-2.09-10.59,2.35-13.74l1.42-1c4.53-3.21,7.15-7.91,7.2-12.87.04-5.02-2.42-9.62-6.95-12.95l-2.5-1.84c-9.78-7.2-15.23-17.95-14.96-29.5.27-11.61,6.27-22.16,16.45-28.95,4.52-3.01,10.63-1.79,13.65,2.74,3.01,4.53,1.79,10.65-2.74,13.66-4.76,3.17-7.56,7.91-7.68,13-.12,5.03,2.41,9.83,6.94,13.16l2.5,1.84c9.61,7.07,15.07,17.64,14.97,29-.1,11.37-5.75,21.86-15.5,28.79l-1.42,1.01c-1.73,1.22-3.71,1.81-5.68,1.81Z"></path>
  <path d="m262.88,198.13c-3.08,0-6.12-1.45-8.04-4.16-3.14-4.44-2.09-10.59,2.34-13.74l1.41-1c4.53-3.22,7.15-7.91,7.2-12.87.04-5.02-2.42-9.62-6.95-12.95l-2.5-1.84c-9.78-7.2-15.23-17.95-14.96-29.5.27-11.61,6.27-22.16,16.45-28.95,4.52-3.01,10.63-1.79,13.65,2.74,3.01,4.53,1.79,10.65-2.74,13.66-4.76,3.17-7.56,7.91-7.68,13-.12,5.03,2.41,9.83,6.94,13.16l2.5,1.84c9.61,7.07,15.07,17.65,14.97,29-.1,11.37-5.75,21.86-15.5,28.79l-1.42,1.01c-1.73,1.22-3.71,1.81-5.68,1.81Z"></path>
  <path d="m331.46,420.53h-201.53c-5.44,0-9.84-4.41-9.84-9.85s4.41-9.85,9.84-9.85h201.53c5.44,0,9.84,4.41,9.84,9.85s-4.41,9.85-9.84,9.85Z"></path>
  <path d="m402.58,255.51c-8.56-7.41-19.54-10.26-29.2-10.19.17-3.53.27-7.1.27-10.69v-9.32H95.25v9.32c0,90.14,54.41,164.58,124.05,174.08,4.96.68,10.07,1.03,15.17,1.03,33.63,0,64.52-15.11,88.62-40.19,33.79-.08,84.33-17.36,92.49-66.14,4.43-26.44-4.63-40.64-13.01-47.89Zm-149.46,132.87c-6.07,1.27-12.32,2.04-18.67,2.04-63.31,0-115.26-65.15-119.19-145.4h238.37c-3.53,71.8-45.93,132.18-100.52,143.36Zm143.06-88.24c-2.77,16.56-12.47,29.52-28.82,38.56-7.97,4.41-17.38,7.64-27.04,9.47,15.78-23.26,26.81-51.72,31.21-83.06,5.54-.44,12.92.77,18.18,5.31,8.25,7.15,8.07,20.12,6.47,29.72Z"></path>
</symbol><symbol id="i062_food-4" data-name="Layer 1" xmlns="http://www.w3.org/2000/svg" viewBox="0 0 512 512">
  <path d="m332.56,463.71h-201.53c-5.44,0-9.84-4.41-9.84-9.85s4.41-9.85,9.84-9.85h201.53c5.44,0,9.84,4.41,9.84,9.85s-4.41,9.85-9.84,9.85Z"></path>
  <path d="m389.91,270.66c-.03-.18-.06-.37-.08-.55-4.34-26.45-17.58-36.96-27.84-41.11-9.35-3.76-19.37-3.56-27.81-1.2v-49.23h-205.28v206.73c0,6.84,1.35,14.01,3.53,20.12,8.03,22.51,29.68,39.24,54.88,39.24h89.17c12.33,0,23.71-4.03,33.04-10.81,14.95-10.87,24.66-28.79,24.66-48.54v-27c17.45-8.24,36.22-22.34,47.17-41.49,7.49-13.11,11.33-28.58,8.56-46.15Zm-75.42,114.64c0,21.22-16.83,39.64-38.02,39.64h-89.17c-18.36,0-33.91-13.56-37.67-30.85-.59-2.65-1.05-5.98-1.05-8.8v-187.02h165.91v187.02Zm41.1-66.17c-5.79,6.39-12.98,12.22-21.41,16.95v-87.22c5.62-2.21,14.13-4.17,20.57-1.59,10.12,4.1,14.12,16.43,15.71,26.03,2.71,16.57-2.31,31.99-14.86,45.83Z"></path>
  <path d="m280.41,154.96c-3.08,0-6.12-1.45-8.04-4.16-3.14-4.44-2.09-10.59,2.35-13.74l1.42-1c4.53-3.21,7.15-7.91,7.2-12.87.04-5.02-2.42-9.62-6.95-12.95l-2.5-1.84c-9.78-7.2-15.23-17.95-14.96-29.5.27-11.61,6.27-22.16,16.45-28.95,4.52-3.01,10.63-1.79,13.65,2.74,3.01,4.53,1.79,10.65-2.74,13.66-4.76,3.17-7.56,7.91-7.68,13-.12,5.03,2.41,9.83,6.94,13.16l2.5,1.84c9.61,7.07,15.07,17.64,14.97,29-.1,11.37-5.75,21.86-15.5,28.79l-1.42,1.01c-1.73,1.22-3.71,1.81-5.68,1.81Z"></path>
  <path d="m229.77,154.96c-3.08,0-6.12-1.45-8.04-4.16-3.14-4.44-2.09-10.59,2.34-13.74l1.41-1c4.53-3.22,7.16-7.91,7.2-12.87.04-5.02-2.42-9.62-6.95-12.95l-2.5-1.84c-9.78-7.2-15.23-17.95-14.96-29.5.27-11.61,6.27-22.16,16.45-28.95,4.52-3.01,10.63-1.79,13.65,2.74,3.01,4.53,1.79,10.65-2.74,13.66-4.76,3.17-7.56,7.91-7.68,13-.12,5.03,2.41,9.83,6.94,13.16l2.5,1.84c9.61,7.07,15.07,17.65,14.97,29-.1,11.37-5.75,21.86-15.5,28.79l-1.42,1c-1.73,1.22-3.71,1.81-5.68,1.81Z"></path>
  <path d="m202.07,407.15c-6.09,0-14.69-1.33-22.07-7.48-8.83-7.36-13.01-19.11-12.43-34.93.2-5.44,4.74-9.67,10.19-9.49,5.43.2,9.68,4.77,9.48,10.21-.23,6.46.5,15.02,5.36,19.06,4.91,4.09,12.82,2.65,12.9,2.64,5.3-1.19,10.56,2.17,11.74,7.48,1.18,5.31-2.17,10.58-7.47,11.76-.7.16-3.64.75-7.7.75Z"></path>
  <path d="m169.67,223.62v77.43h66.08v-77.43h-66.08Zm46.4,57.72h-26.71v-38.01h26.71v38.01Z"></path>
  <path d="m202.71,238.4c-5.44,0-9.84-4.41-9.84-9.85v-57.72c0-5.44,4.41-9.85,9.84-9.85s9.84,4.41,9.84,9.85v57.72c0,5.44-4.41,9.85-9.84,9.85Z"></path>
</symbol><symbol id="i062_food-7" data-name="Layer 1" xmlns="http://www.w3.org/2000/svg" viewBox="0 0 512 512">
  <path d="m333.37,212.58c0,1.53-.06,3.04-.17,4.55,0,.11.01.23,0,.32,0,.14,0,.27-.01.41-2.73,33.37-30.69,60.31-67.25,64.51v114.7h41.73c5.44,0,9.84,4.41,9.84,9.85s-4.4,9.85-9.84,9.85h-103.37c-5.44,0-9.84-4.41-9.84-9.85s4.4-9.85,9.84-9.85h41.96v-114.7c-36.56-4.28-65.86-32.34-67.47-66.73,0-.03-.01-.06-.01-.08v-.3c0-.89-.14-1.77-.14-2.67,0-.32,0-.63.03-.94.14-17.49,3.87-39.12,8.23-58.55,6-26.79,13.17-49.36,13.7-51.01,1.66-5.18,7.21-8.04,12.38-6.38,5.17,1.66,8.05,7.21,6.4,12.39-.13.37-6.65,20.54-12.37,44.99-4.88,20.74-9.18,44.57-8.54,61.97h0c1.41,26.81,26.71,48.19,57.58,48.19s55.49-20.89,57.51-47.23c.93-15.94-3.46-40.97-8.35-62.93-5.4-24.27-11.42-44.83-11.53-45.21-1.53-5.22,1.45-10.7,6.65-12.25,5.22-1.53,10.69,1.45,12.23,6.66.51,1.72,7.16,24.44,12.79,50.79,4.32,20.09,8.04,42.28,8.01,58.88.01.2.03.41.03.62Z"></path>
  <path d="m257.31,223.9c-7.79-.21-13.3-2.15-16.38-5.74-3.95-4.63-3.25-11.32-3.21-11.64.76-5.34-2.92-10.31-8.25-11.12-5.38-.83-10.4,2.87-11.22,8.25-.24,1.56-2.05,15.6,7.48,27.03,6.83,8.19,17.27,12.54,31.03,12.94h.28c5.3,0,9.69-4.24,9.83-9.57.15-5.45-4.12-9.98-9.56-10.14Z"></path>
  <path d="m310.89,164.53h-104.26c-4.74,0-8.59-4.28-8.59-9.57s3.85-9.57,8.59-9.57h104.26c4.75,0,8.59,4.29,8.59,9.57s-3.84,9.57-8.59,9.57Z"></path>
</symbol><symbol id="i062_food-15" data-name="Layer 1" xmlns="http://www.w3.org/2000/svg" viewBox="0 0 512 512">
  <g>
    <path d="m266.47,46.23c-115.52,0-209.49,94.1-209.49,209.77s93.98,209.77,209.49,209.77,209.49-94.1,209.49-209.77S381.99,46.23,266.47,46.23Zm0,399.83c-104.66,0-189.81-85.26-189.81-190.06s85.15-190.06,189.81-190.06,189.81,85.26,189.81,190.06-85.15,190.06-189.81,190.06Z"></path>
    <path d="m432.45,222.01c-11.69-57.21-53.03-105.24-107.88-125.35-5.11-1.87-10.76.76-12.63,5.87-1.87,5.11.75,10.77,5.86,12.64,48.49,17.78,85.03,60.23,95.37,110.79.95,4.67,5.05,7.88,9.63,7.88.65,0,1.32-.07,1.98-.2,5.32-1.09,8.76-6.3,7.67-11.63Z"></path>
    <path d="m266.23,86.35c-38.34,0-74.51,12.49-104.61,36.13-4.28,3.36-5.03,9.55-1.67,13.84,1.94,2.48,4.83,3.77,7.75,3.77,2.12,0,4.26-.69,6.07-2.1,26.6-20.89,58.58-31.93,92.47-31.93,5.44,0,9.84-4.41,9.84-9.85s-4.41-9.85-9.84-9.85Z"></path>
  </g>
  <path d="m299.78,354.63l-31.3-18.15,9.69-16.75c2.9-5.03,3.67-10.87,2.18-16.47-1.49-5.6-5.06-10.29-10.08-13.19l-1.83-1.06c-10.33-6-23.62-2.45-29.61,7.9l-9.69,16.75-8.11-4.7,10.33-17.87c2.71-4.72,1.11-10.74-3.59-13.47-4.71-2.72-10.73-1.11-13.46,3.59l-10.33,17.88-8.91-5.18,9.69-16.75c5.99-10.35,2.45-23.65-7.9-29.65l-1.83-1.07c-5.01-2.9-10.84-3.67-16.44-2.18s-10.28,5.08-13.17,10.09l-9.69,16.75-8.11-4.7,10.33-17.88c2.71-4.7,1.11-10.73-3.59-13.46-4.71-2.73-10.73-1.13-13.46,3.59l-10.33,17.87-79.76-46.25c-4.71-2.73-10.73-1.13-13.46,3.58-2.73,4.72-1.11,10.74,3.59,13.47l79.78,46.26-10.81,18.67c-2.73,4.72-1.11,10.74,3.59,13.47,1.56.9,3.25,1.32,4.92,1.32,3.4,0,6.71-1.76,8.53-4.91l10.8-18.68,8.11,4.7-9.69,16.75c-2.9,5.01-3.68,10.87-2.19,16.47,1.49,5.6,5.08,10.28,10.1,13.19l1.81,1.06c3.35,1.94,7.07,2.93,10.83,2.93,1.88,0,3.77-.24,5.62-.73,5.6-1.51,10.28-5.08,13.17-10.11l9.69-16.74,8.93,5.17-10.81,18.68c-2.73,4.72-1.11,10.74,3.59,13.47,1.56.9,3.25,1.32,4.92,1.32,3.4,0,6.71-1.76,8.53-4.91l10.8-18.68,8.11,4.7-9.69,16.75c-2.9,5.01-3.68,10.85-2.19,16.46,1.5,5.6,5.08,10.29,10.09,13.19l1.81,1.06c3.35,1.94,7.07,2.94,10.83,2.94,1.88,0,3.77-.25,5.62-.75,5.6-1.49,10.28-5.08,13.17-10.09l9.69-16.75,31.31,18.15c1.55.9,3.25,1.34,4.92,1.34,3.39,0,6.69-1.76,8.52-4.93,2.73-4.7,1.12-10.73-3.59-13.46Zm-112.06-87.34l-9.69,16.75-9.86,17.05-9.69,16.75c-.35.59-.86.83-1.22.93-.35.1-.91.14-1.5-.21l-1.83-1.06c-.59-.34-.83-.84-.93-1.21s-.14-.92.21-1.51l9.69-16.75,9.86-17.06,9.69-16.75c.35-.58.84-.83,1.21-.92.15-.04.32-.07.53-.07.28,0,.63.06.98.27l1.83,1.06c.94.55,1.27,1.77.72,2.73Zm73.41,42.56l-9.69,16.75-9.86,17.06-9.69,16.74c-.35.59-.86.83-1.22.93-.35.1-.91.14-1.5-.2l-1.83-1.06c-.59-.35-.83-.84-.93-1.21s-.14-.93.21-1.52l9.69-16.75,9.86-17.05,9.69-16.75c.37-.63,1.04-1,1.73-1,.34,0,.69.1,1,.27l1.83,1.07c.59.34.83.84.93,1.21.08.37.14.92-.21,1.51Z"></path>
  <path d="m430.54,300.8l-29.39-17.03,3.18-5.5c7.99-13.81-.07-32.92-18.33-43.5-2.25-1.31-4.95-1.68-7.47-1-2.52.68-4.67,2.32-5.98,4.59l-12.49,21.6-9.31-5.41,10.81-18.67c2.73-4.72,1.11-10.74-3.59-13.47-1.56-.9-3.25-1.32-4.92-1.32-3.4,0-6.71,1.76-8.53,4.91l-10.8,18.68-8.11-4.7,9.69-16.75c2.9-5.01,3.68-10.87,2.19-16.47-1.49-5.6-5.08-10.28-10.09-13.19l-1.81-1.06c-3.35-1.94-7.07-2.93-10.83-2.93-1.88,0-3.77.24-5.62.73-5.6,1.51-10.28,5.08-13.17,10.11l-9.69,16.74-8.93-5.17,10.81-18.68c2.73-4.72,1.11-10.74-3.59-13.47-1.56-.9-3.25-1.32-4.92-1.32-3.4,0-6.71,1.76-8.53,4.91l-10.8,18.68-8.11-4.7,9.69-16.75c2.9-5.01,3.68-10.85,2.19-16.46-1.5-5.6-5.08-10.29-10.1-13.19l-1.81-1.06c-3.35-1.94-7.07-2.94-10.83-2.94-1.88,0-3.77.25-5.62.75-5.6,1.49-10.28,5.08-13.17,10.09l-9.69,16.75-31.31-18.15c-1.55-.9-3.25-1.34-4.92-1.34-3.39,0-6.69,1.76-8.52,4.93-2.73,4.7-1.12,10.73,3.59,13.46l31.3,18.15-9.69,16.75c-2.9,5.03-3.67,10.87-2.18,16.47,1.49,5.6,5.06,10.29,10.08,13.19l1.83,1.06c10.33,6,23.62,2.45,29.61-7.9l9.69-16.75,8.11,4.7-10.33,17.87c-2.71,4.72-1.11,10.74,3.59,13.47,4.71,2.72,10.73,1.11,13.46-3.59l10.33-17.88,8.91,5.18-9.69,16.75c-5.99,10.35-2.45,23.65,7.9,29.65l1.83,1.07c5.01,2.9,10.84,3.67,16.44,2.18,5.6-1.49,10.28-5.08,13.17-10.09l9.69-16.75,8.11,4.7-10.33,17.88c-2.71,4.7-1.11,10.73,3.59,13.46,4.71,2.73,10.73,1.13,13.46-3.59l10.33-17.87,9.29,5.39-12.29,21.24c-2.73,4.72-1.12,10.74,3.59,13.47,7.33,4.25,15.38,6.53,22.95,6.53.79,0,1.57-.03,2.35-.07,9.55-.62,17.39-5.05,21.51-12.19l2.98-5.17,29.39,17.03c4.71,2.73,10.73,1.13,13.46-3.58,2.73-4.72,1.11-10.74-3.59-13.47Zm-185.68-130.03l-9.69,16.75-9.86,17.05-9.69,16.75c-.37.63-1.04,1-1.73,1-.34,0-.69-.1-1-.27l-1.83-1.07c-.59-.34-.83-.84-.93-1.21-.08-.37-.14-.92.21-1.51l9.69-16.75,9.86-17.06,9.69-16.74c.35-.59.86-.83,1.22-.93.35-.1.91-.14,1.5.2l1.83,1.06c.59.35.83.84.93,1.21s.14.93-.21,1.52Zm73.41,42.56l-9.69,16.75-9.86,17.06-9.69,16.75c-.35.58-.84.83-1.21.92-.15.04-.32.07-.53.07-.28,0-.63-.06-.98-.27l-1.83-1.06c-.94-.55-1.27-1.77-.72-2.73l9.69-16.75,9.86-17.05,9.69-16.75c.35-.59.86-.83,1.22-.93.35-.1.91-.14,1.5.21l1.83,1.06c.59.34.83.84.93,1.21s.14.92-.21,1.51Zm69.03,55.05l-3.19,5.5-9.87,17.05-2.98,5.17c-.76,1.32-2.9,2.22-5.74,2.41-1.52.1-3.15-.01-4.84-.32l6.54-11.32,9.87-17.05,6.73-11.66c3.49,4.14,4.6,8.26,3.47,10.22Z"></path>
</symbol><symbol id="i062_food-16" data-name="Layer 1" xmlns="http://www.w3.org/2000/svg" viewBox="0 0 512 512">
  <g>
    <path d="m256,46.23c-115.52,0-209.49,94.1-209.49,209.77s93.98,209.77,209.49,209.77,209.49-94.1,209.49-209.77S371.52,46.23,256,46.23Zm0,399.83c-104.66,0-189.81-85.26-189.81-190.06S151.34,65.94,256,65.94s189.81,85.26,189.81,190.06-85.15,190.06-189.81,190.06Z"></path>
    <path d="m421.98,222.01c-11.69-57.21-53.03-105.24-107.88-125.35-5.1-1.87-10.76.75-12.63,5.87-1.87,5.11.75,10.77,5.86,12.64,48.49,17.78,85.03,60.23,95.37,110.79.95,4.67,5.05,7.88,9.63,7.88.65,0,1.32-.07,1.98-.2,5.33-1.09,8.76-6.3,7.67-11.63Z"></path>
    <path d="m255.76,86.35c-38.34,0-74.51,12.49-104.61,36.13-4.28,3.36-5.03,9.55-1.67,13.84,1.94,2.48,4.83,3.77,7.75,3.77,2.12,0,4.26-.69,6.07-2.1,26.6-20.89,58.58-31.93,92.47-31.93,5.44,0,9.84-4.41,9.84-9.85s-4.41-9.85-9.84-9.85Z"></path>
  </g>
  <g>
    <path d="m335.12,347.34c-2.98-11.04-10.04-20.22-19.87-25.9l-.28-.18c-7.65-4.66-14.9-7.64-21.55-8.94l3.59-6.3c11.68-20.55,4.54-47.2-15.92-58.46h-.01s-.01,0-.01-.02c-.03-.01-.07-.03-.1-.05-9.95-5.62-21.51-7.04-32.58-3.97-6.97,1.93-13.23,5.48-18.32,10.32-3.85-6.03-9.98-11.28-18.64-16.25-.03-.01-.06-.03-.08-.04-.03-.01-.04-.04-.07-.06l-.2-.11c-.21-.11-.44-.23-.66-.34-20.12-10.69-45.39-3.38-56.77,16.64l-.27.46-41.53-23.69c-2.28-1.3-4.96-1.63-7.48-.93-2.52.69-4.65,2.35-5.95,4.62l-14.62,25.69c-2.31,4.05-1.42,9.05,1.86,12.09.53.51,1.15.96,1.83,1.34l41.53,23.71-.31.55c-11.46,20.13-4.78,45.74,14.88,57.54.06.04.13.08.18.13.04.01.07.36.11.37.04.03.08.4.13.4h.01s.03-.29.04-.29c.01.01.03-.14.04-.13s.04-.07.07-.05c.06.03.11.03.15.06,9.24,5.25,16.77,7.08,23.75,6.84-1.74,7.04-1.72,14.43.2,21.64,2.95,11.18,10.05,20.47,19.99,26.12l.31.18c6.44,3.67,13.57,5.53,20.81,5.53,3.91,0,7.86-.54,11.74-1.63,11.01-3.11,20.16-10.28,25.8-20.17l2.57-4.52c4.12,4.56,10.1,9.31,18.63,13.94l.25.14c14.13,8,30.95,7.04,43.87-1.06l.03-.03c5.83-3.65,10.87-8.76,14.51-15.16l4.2-7.41c5.67-9.95,7.14-21.54,4.15-32.62Zm-25.45,30.27c-6.37,11.19-20.58,15.13-31.66,8.81-.1-.06-.2-.1-.3-.15l-.22-.13c-10.88-5.9-17.72-13.04-16.62-17.34,1.21-4.77-1.29-9.71-5.86-11.56s-9.8-.03-12.23,4.27l-12.96,22.79c-3.07,5.36-8.06,9.26-14.05,10.95-5.98,1.69-12.18.97-17.46-2.04l-.32-.18c-5.3-3.03-9.1-8.02-10.7-14.06-1.6-6.07-.79-12.39,2.29-17.8l5.41-9.53c2.12-3.72,1.59-8.39-1.29-11.54-1.91-2.08-4.56-3.2-7.25-3.2-1.39,0-2.8.31-4.12.92-11.99,5.53-16.73,7.12-28.25.58-10.81-6.19-14.52-20.15-8.28-31.11l5.19-9.12c.96-1.69,1.36-3.53,1.28-5.34-.15-3.25-1.91-6.36-4.95-8.1l-41.55-23.69,4.88-8.57,41.53,23.69c2.26,1.3,4.95,1.63,7.48.94,2.52-.69,4.65-2.35,5.95-4.62l5.13-9.04c6.23-10.94,20.13-14.85,30.95-8.73,13.39,7.7,14.92,13.12,13.39,23.14-.7,4.7,2.02,9.24,6.51,10.8,4.47,1.55,9.43-.31,11.78-4.43l6.07-10.69c3.09-5.43,8.13-9.47,14.19-11.15,6.06-1.66,12.36-.75,17.77,2.07h.01c10.99,7.04,14.81,20.6,8.49,31.68l-13.75,24.25c-2.36,4.14-1.42,9.42,2.25,12.48,3.66,3.06,8.98,3.06,12.63-.01,3.87-3.25,13.17-1.19,23.71,5.25l.1.06c.15.1.3.18.45.27v.02s.03.01.04.01c7.45,4.27,11.63,12.11,11.63,20.19,0,3.93-.98,7.91-3.07,11.57l-1.05,1.84-3.15,5.56Z"></path>
    <path d="m248.43,325.21l-70.38-40.15c-4.72-2.69-10.73-1.05-13.42,3.68-2.69,4.73-1.04,10.75,3.68,13.44l70.38,40.15c1.54.88,3.21,1.29,4.86,1.29,3.42,0,6.75-1.79,8.56-4.98,2.69-4.73,1.04-10.75-3.68-13.44Z"></path>
    <path d="m297.57,353.24l-14.78-8.43c-4.72-2.69-10.73-1.05-13.42,3.68-2.69,4.73-1.04,10.75,3.68,13.44l14.78,8.43c1.54.88,3.21,1.29,4.86,1.29,3.42,0,6.75-1.79,8.56-4.98,2.69-4.73,1.04-10.75-3.68-13.44Z"></path>
  </g>
  <path d="m235.6,239.45c-9.79,0-19.46-2.54-28.19-7.53-13.26-7.57-22.79-19.85-26.82-34.59-8.33-30.43,9.61-61.96,40-70.3,14.72-4.04,30.13-2.1,43.39,5.47,13.26,7.57,22.79,19.85,26.82,34.59,8.33,30.43-9.61,61.96-40,70.3-5.02,1.38-10.13,2.06-15.2,2.06Zm.15-94.76c-3.32,0-6.67.45-9.96,1.35-19.92,5.47-31.68,26.14-26.22,46.09,2.65,9.66,8.89,17.71,17.58,22.67,8.69,4.96,18.79,6.23,28.44,3.58,19.92-5.47,31.68-26.14,26.22-46.09-2.65-9.66-8.89-17.71-17.58-22.67-5.73-3.27-12.06-4.93-18.48-4.93Z"></path>
  <path d="m245.78,172.36c2.43-4.67.76-10.47-3.85-13.1-4.61-2.63-10.44-1.11-13.22,3.37-4.67-2.43-10.46-.76-13.09,3.86-2.63,4.62-1.11,10.46,3.36,13.24-2.43,4.67-.76,10.47,3.85,13.1,1.54.88,3.21,1.29,4.86,1.29,3.3,0,6.5-1.68,8.35-4.67,1.45.75,2.99,1.13,4.53,1.13,3.42,0,6.75-1.79,8.56-4.98,2.63-4.62,1.11-10.46-3.36-13.24Z"></path>
  <path d="m317.03,219.66c-1.66-6.05-7.9-9.62-13.95-7.95-6.06,1.66-9.62,7.91-7.96,13.97.25.94.63,1.83,1.1,2.65,2.52,4.41,7.75,6.73,12.86,5.32,3.85-1.06,6.68-3.96,7.8-7.5.66-2.03.75-4.27.14-6.48Z"></path>
  <path d="m360.42,207.75c-1.66-6.05-7.9-9.62-13.95-7.95-6.06,1.66-9.62,7.91-7.96,13.97.25.94.63,1.83,1.1,2.65,2.52,4.41,7.76,6.73,12.86,5.32,3.85-1.06,6.68-3.96,7.8-7.5.66-2.03.75-4.27.14-6.48Z"></path>
  <path d="m346.88,242.63c-1.66-6.07-7.92-9.63-13.96-7.97s-9.62,7.91-7.96,13.98c.25.96.63,1.84,1.11,2.66,2.52,4.38,7.76,6.69,12.85,5.29,3.84-1.06,6.68-3.96,7.82-7.49.66-2.03.75-4.27.14-6.48Z"></path>
  <path d="m385.44,225.65c-5.46-3.11-12.39-1.21-15.49,4.25-2.07,3.63-1.93,7.91.01,11.29.97,1.7,2.4,3.18,4.23,4.22,5.46,3.11,12.39,1.2,15.49-4.25.39-.69.72-1.42.94-2.15,1.62-5.01-.44-10.64-5.19-13.36Z"></path>
  <path d="m376.78,267.47c-1.66-6.07-7.9-9.63-13.96-7.97-6.05,1.66-9.6,7.93-7.94,13.98.25.94.63,1.83,1.1,2.65,2.52,4.39,7.75,6.72,12.86,5.31,3.84-1.06,6.68-3.96,7.8-7.48.66-2.04.75-4.28.14-6.49Z"></path>
  <path d="m333.39,279.38c-1.66-6.07-7.9-9.63-13.96-7.97-6.05,1.66-9.6,7.93-7.94,13.98.27.94.63,1.83,1.1,2.65,2.52,4.39,7.75,6.72,12.85,5.32,3.84-1.06,6.68-3.96,7.82-7.49.66-2.04.75-4.28.14-6.49Z"></path>
  <path d="m362.18,299.98c-1.66-6.05-7.86-9.62-13.91-7.95-6.05,1.66-9.49,7.91-7.83,13.98.25.94-.08,1.83,1.32,2.63h0c1.41,4.41,7.52,6.73,12.63,5.32,3.84-1.06,6.45-3.96,7.59-7.49.66-2.03.8-4.28.2-6.49Z"></path>
  <path d="m331.08,184.92c-1.66-6.07-7.9-9.63-13.96-7.97-6.05,1.66-9.6,7.91-7.94,13.98.25.94.63,1.83,1.1,2.65,2.5,4.39,7.75,6.72,12.85,5.31,3.84-1.06,6.68-3.96,7.82-7.48.66-2.04.75-4.28.14-6.49Z"></path>
</symbol><symbol id="i062_food-17" data-name="Layer 1" xmlns="http://www.w3.org/2000/svg" viewBox="0 0 512 512">
  <g>
    <path d="m256,46.23c-115.52,0-209.49,94.1-209.49,209.77s93.98,209.77,209.49,209.77,209.49-94.1,209.49-209.77S371.52,46.23,256,46.23Zm0,399.83c-104.66,0-189.81-85.26-189.81-190.06s85.15-190.06,189.81-190.06,189.81,85.26,189.81,190.06-85.15,190.06-189.81,190.06Z"></path>
    <path d="m421.98,222.01c-11.69-57.21-53.03-105.24-107.88-125.35-5.1-1.87-10.76.75-12.63,5.87-1.87,5.11.75,10.77,5.86,12.64,48.49,17.78,85.03,60.23,95.37,110.79.95,4.67,5.05,7.88,9.63,7.88.65,0,1.32-.07,1.98-.2,5.33-1.09,8.76-6.3,7.67-11.63Z"></path>
    <path d="m255.76,86.35c-38.34,0-74.51,12.49-104.61,36.13-4.28,3.36-5.03,9.55-1.67,13.84,1.94,2.48,4.83,3.77,7.75,3.77,2.12,0,4.26-.69,6.07-2.1,26.6-20.89,58.58-31.93,92.47-31.93,5.44,0,9.84-4.41,9.84-9.85s-4.41-9.85-9.84-9.85Z"></path>
  </g>
  <path d="m389.13,312.17c-.17-5.45-.83-10.32-1.9-14.67-7.25-29.71-33.74-35.73-59.47-41.57-16.14-3.67-34.43-7.83-51.05-17.81-23.8-14.3-30.99-27.27-37.93-39.8-6.44-11.63-13.09-23.65-31.62-31.63-14.34-6.19-29.69-6.05-44.4.38-1.03.45-2.04.93-3.05,1.44-2.14,1.07-4.25,2.28-6.31,3.59l-.04.04c-15.45,9.88-28.43,26.41-35.08,45.18-.96,2.51-10.18,27.57-9.73,60.13.63,45.12,19.6,83.06,54.85,109.74,24.96,18.87,53.03,26.21,80.32,26.21,29.2,0,57.49-8.4,80.07-20.12,6.5-3.38,12.61-7.03,18.29-10.88,29.85-20.29,47.83-46.54,47.06-70.22Zm-57.76,53.64c-5.16,3.55-10.74,6.9-16.65,9.97-38.36,19.89-95.14,29.21-139.48-4.32-30.48-23.06-46.3-54.57-47.02-93.64-.55-29.89,8.35-53.29,8.44-53.51.04-.1.07-.2.11-.3,5.43-15.42,16.59-29.21,29.19-36.51,1.36-.8,2.76-1.52,4.16-2.15.17-.07.34-.15.51-.23,9.72-4.27,19.37-4.38,28.72-.35,12.36,5.34,16.28,12.4,22.2,23.1,7.44,13.42,16.69,30.11,45.01,47.13,19.32,11.61,39.26,16.13,56.83,20.13,31.14,7.08,45.05,11.32,46.05,37.2,0,.15.01.31.01.46.53,16.42-14.52,36.8-38.09,53.01Z"></path>
  <path d="m186.74,308.11c-22.11,0-40.09-18.01-40.09-40.15s17.99-40.15,40.09-40.15,40.09,18.01,40.09,40.15-17.99,40.15-40.09,40.15Zm0-60.58c-11.25,0-20.41,9.17-20.41,20.44s9.16,20.44,20.41,20.44,20.41-9.17,20.41-20.44-9.16-20.44-20.41-20.44Z"></path>
  <path d="m269.32,347.36c-10.27,0-20.53-3.91-28.35-11.74-7.57-7.58-11.74-17.66-11.74-28.39s4.17-20.8,11.74-28.39c15.63-15.65,41.07-15.65,56.7,0h0c7.57,7.58,11.74,17.66,11.74,28.39s-4.17,20.8-11.74,28.39c-7.82,7.83-18.08,11.74-28.35,11.74Zm0-60.55c-5.23,0-10.45,1.99-14.43,5.98-3.85,3.86-5.98,8.99-5.98,14.45s2.12,10.59,5.98,14.45c7.96,7.97,20.9,7.97,28.86,0,3.85-3.86,5.98-8.99,5.98-14.45s-2.12-10.59-5.98-14.45h0c-3.98-3.98-9.2-5.98-14.43-5.98Z"></path>
  <path d="m299.58,372.06c-3.56,0-6.99-1.94-8.74-5.31-2.51-4.83-.63-10.78,4.19-13.29,9.07-4.72,17.2-10.56,23.51-16.88,3.84-3.85,10.07-3.85,13.92,0,3.85,3.85,3.85,10.09,0,13.94-7.71,7.73-17.52,14.8-28.35,20.44-1.45.75-3,1.11-4.53,1.11Z"></path>
  <path d="m246.97,385.43c-21.5,0-41.23-6.42-57.73-18.91-4.34-3.28-5.2-9.46-1.92-13.8,3.28-4.34,9.45-5.2,13.79-1.92,20.16,15.25,42.6,16.11,57.87,14.14,5.4-.69,10.32,3.12,11.02,8.52.69,5.4-3.11,10.34-8.5,11.03-4.91.63-9.76.95-14.51.95Z"></path>
</symbol><symbol id="i062_food-25" data-name="Layer 1" xmlns="http://www.w3.org/2000/svg" viewBox="0 0 512 512">
  <g>
    <path d="m247.46,126.48c-74.09,0-134.37,60.36-134.37,134.55s60.28,134.55,134.37,134.55,134.37-60.36,134.37-134.55-60.28-134.55-134.37-134.55Zm0,249.39c-63.24,0-114.69-51.52-114.69-114.84s51.45-114.84,114.69-114.84,114.69,51.52,114.69,114.84-51.45,114.84-114.69,114.84Z"></path>
    <path d="m339.69,228.21c-6.9-20.72-20.79-38.73-39.12-50.73-4.55-2.98-10.65-1.7-13.62,2.86-2.97,4.56-1.7,10.66,2.85,13.64,14.63,9.57,25.71,23.94,31.21,40.46,1.37,4.13,5.21,6.74,9.34,6.74,1.03,0,2.08-.16,3.11-.51,5.16-1.72,7.94-7.3,6.22-12.46Z"></path>
    <path d="m220.31,165.53c-14.87,4.33-28.69,12.3-39.95,23.06-3.93,3.76-4.08,10-.32,13.93,1.93,2.03,4.53,3.05,7.12,3.05,2.44,0,4.89-.9,6.79-2.73,8.99-8.59,20-14.95,31.85-18.39,5.22-1.52,8.22-6.99,6.71-12.21-1.52-5.23-6.98-8.23-12.2-6.72Z"></path>
    <path d="m223.9,332.98c-32.27-10.3-53.95-40.02-53.95-73.97,0-10.8,2.17-21.25,6.45-31.05,2.18-4.99-.1-10.8-5.08-12.98-4.98-2.18-10.78.1-12.96,5.08-5.37,12.31-8.1,25.41-8.1,38.95,0,42.56,27.19,79.83,67.66,92.75.99.32,2,.47,2.99.47,4.17,0,8.04-2.67,9.38-6.87,1.65-5.19-1.21-10.73-6.39-12.38Z"></path>
  </g>
  <path d="m51.19,71.57h-10.31v367.45h50.62V112.4c0-22.51-17.83-40.83-40.31-40.83Zm20.63,347.74h-11.25v-104.18h11.25v104.18Zm0-123.89h-11.25V93.73c7.03,3.53,11.25,10.59,11.25,18.67v183.02Z"></path>
  <path d="m392.38,80.02v126.71h14.06v233.7h50.62v-233.7h14.06v-126.71h-78.74Zm44.99,340.7h-11.25v-92.92h11.25v92.92Zm0-112.63h-11.25v-101.36h11.25v101.36Zm14.06-121.07h-39.37v-87.29h9.84v52.09h19.68v-52.09h9.84v87.29Z"></path>
</symbol><symbol id="i062_food-2" data-name="Layer 1" xmlns="http://www.w3.org/2000/svg" viewBox="0 0 512 512">
  <path d="m430.3,349.66v-7.78c0-78.47-77.67-142.31-173.13-142.31-9.45,0-18.73.63-27.77,1.83-20.69,2.76-40.17,8.63-57.74,16.86-18.53,8.68-34.93,19.7-48.37,33.67h-.01c-14.34,13.96-25.33,30.99-31.98,49.22-3.81,10.44-6.2,21.33-6.98,32.63-.19,2.69-.28,5.37-.28,8.1v7.78h346.27Zm-297.44-84.73c4.08-4.26,8.49-8.21,13.2-12,22.21-17.94,51.08-30.48,83.34-35.13,9.02-1.31,18.29-1.97,27.77-1.97,10.25,0,20.26.62,29.97,2.15,68.99,10.75,121.98,58.38,126.57,115.39H100.62c2.06-25.6,13.76-49.19,32.23-68.44Z"></path>
  <path d="m193.48,245.48c3.13,0,6.11,1.82,7.45,4.87,1.8,4.12-.07,8.92-4.18,10.73-22.16,9.73-39.98,24.39-51.54,42.4-2.43,3.78-7.46,4.88-11.24,2.45-3.78-2.43-4.87-7.47-2.44-11.25,13.29-20.71,33.58-37.48,58.68-48.51,1.06-.47,2.17-.69,3.26-.69Z"></path>
  <path d="m457.87,350.05H54.13c-4.49,0-8.13-3.65-8.13-8.14s3.64-8.14,8.13-8.14h403.73c4.49,0,8.13,3.65,8.13,8.14s-3.64,8.14-8.13,8.14Z"></path>
  <path d="m254.84,207.72c-12.6,0-22.85-10.26-22.85-22.88s10.25-22.88,22.85-22.88,22.85,10.27,22.85,22.88-10.25,22.88-22.85,22.88Zm0-29.48c-3.63,0-6.58,2.96-6.58,6.59s2.95,6.59,6.58,6.59,6.58-2.96,6.58-6.59-2.95-6.59-6.58-6.59Z"></path>
</symbol><symbol id="i062_food-8" data-name="Layer 1" xmlns="http://www.w3.org/2000/svg" viewBox="0 0 512 512">
  <path d="m288.34,145.34V63.13h-66.08v82.8c-28.57,8.07-49.21,34.39-49.21,64.39v220.34c0,9.87,8.63,18.22,18.84,18.22h129c9.97,0,18.07-8.17,18.07-18.22v-220.34c0-31.2-21.22-57.72-50.62-64.97Zm-46.4-62.51h26.71v18.3h-26.71v-18.3Zm77.33,266.08h-54.83v-98.55h54.83v98.55Zm0-118.26h-74.52v137.97h74.52v60.54h-126.54v-218.85c0-23.17,17.55-43.25,40.82-46.71l8.39-1.24v-41.52h26.71v41.57l8.77.96c23.86,2.6,41.84,22.79,41.84,46.94v20.34Z"></path>
  <path d="m213.82,365.81c-5.44,0-9.84,4.41-9.84,9.85v19.71c0,5.44,4.41,9.85,9.84,9.85s9.84-4.41,9.84-9.85v-19.71c0-5.44-4.41-9.85-9.84-9.85Z"></path>
  <path d="m213.82,228.55c-5.44,0-9.84,4.41-9.84,9.85v102.54c0,5.44,4.41,9.85,9.84,9.85s9.84-4.41,9.84-9.85v-102.54c0-5.44-4.41-9.85-9.84-9.85Z"></path>
</symbol><symbol id="i062_food-9" data-name="Layer 1" xmlns="http://www.w3.org/2000/svg" viewBox="0 0 512 512">
  <path d="m283.33,211.74v-87.32c6.93-5.62,10.93-13.72,10.93-22.57v-25.45c0-9.15-4.28-17.51-11.67-23.15-1.45-3.46-4.85-5.88-8.83-5.88h-.29c-3.74-1.37-7.3-1.37-10.25-1.37h-14.02c-2.98,0-6.56,0-10.33,1.4-2.9.22-5.42,1.72-7.04,3.94-8.68,5.79-14.1,15.25-14.1,25.06v25.45c0,9.11,4.69,17.94,12.3,23.78v86.09c-34.95,11.36-58.75,43.53-58.75,80.72v163.99c0,5.29,4.28,9.58,9.56,9.58h150.29c5.29,0,9.56-4.28,9.56-9.58v-163.99c0-37.29-23.24-69.44-57.38-80.69Zm-41.58,16.35c4.34-1,7.42-4.62,7.42-9.1v-98.62c0-3.61-2.02-6.91-5.25-8.54-3.51-1.78-7.05-5.55-7.05-9.99v-25.45c0-4.42,3.54-8.19,7.05-9.97.6-.31,1.18-.67,1.69-1.09.64-.18,2.4-.18,3.59-.18h14.02c1.08,0,2.65,0,3.4.14.72.81,1.58,1.5,2.57,2.04,3.77,2.04,5.93,5.35,5.93,9.07v25.45c0,3.72-2.16,7.03-5.93,9.08-3.09,1.67-5,4.9-5,8.41v99.65c0,4.47,3.07,8.1,7.42,9.1,21.68,4.99,38.2,20.38,45.63,39.54h-19.72c-5.23-13.68-21.51-23.5-41.29-23.5s-36.07,9.82-41.3,23.5h-19.88c7.8-19.15,24.87-34.52,46.69-39.54Zm38.43,49.59c0,6.59-9.84,13.93-23.94,13.93s-23.95-7.33-23.95-13.93,9.84-13.91,23.95-13.91,23.94,7.33,23.94,13.91Zm41.4,169.16h-131.16v-27.36h131.16v27.36Zm0-46.51h-131.16v-107.9c0-1.74.08-2.91.2-5.65h24.32c5.23,13.68,21.51,23.5,41.3,23.5s36.06-9.82,41.29-23.5h23.86c.12,2.74.19,3.91.19,5.65v107.9Z"></path>
</symbol><symbol id="i062_food-5" data-name="Layer 1" xmlns="http://www.w3.org/2000/svg" viewBox="0 0 512 512">
  <path d="m348.08,140.24v243.23c0,35.77-30.14,64.74-67.26,64.74h-34.99c-37.11,0-67.26-28.98-67.26-64.74v-243.23c0-5.3,4.28-9.58,9.57-9.58s9.57,4.28,9.57,9.58v243.23c0,25.2,21.56,45.58,48.12,45.58h34.99c26.56,0,48.12-20.38,48.12-45.58v-243.23c0-5.3,4.28-9.58,9.57-9.58s9.57,4.28,9.57,9.58Z"></path>
  <path d="m307.07,264.35v116.33c0,5.28-4.28,9.58-9.57,9.58s-9.57-4.3-9.57-9.58v-116.33c0-5.3,4.29-9.58,9.57-9.58s9.57,4.28,9.57,9.58Z"></path>
  <path d="m274.26,264.34v116.32c0,5.3-4.28,9.58-9.57,9.58s-9.57-4.28-9.57-9.58v-116.32c0-5.3,4.28-9.58,9.57-9.58s9.57,4.28,9.57,9.58Z"></path>
  <path d="m363.8,466h-198.21c-5.29,0-9.57-4.29-9.57-9.58s4.28-9.58,9.57-9.58h198.21c5.28,0,9.57,4.29,9.57,9.58s-4.28,9.58-9.57,9.58Z"></path>
  <path d="m264.69,140.38c0-13.12-9.94-23.9-22.69-25.22l-13.45-48.26c-2.54-9.12-9.4-16.37-18.37-19.4-8.95-3.02-18.8-1.42-26.34,4.3l-45.21,34.26,11.54,15.28,45.22-34.26c2.53-1.9,5.69-2.42,8.68-1.41s5.19,3.34,6.04,6.38l13.51,48.49c-5.83,4.65-9.58,11.8-9.58,19.84,0,12.92,9.65,23.55,22.12,25.14l5.16,18.52h19.88l-6.54-23.47c6.09-4.63,10.04-11.94,10.04-20.19Z"></path>
  <path d="m332.36,203.17h-135.62c-6.16,0-11.17-4.28-11.17-9.57s5.01-9.57,11.17-9.57h135.62c6.18,0,11.17,4.29,11.17,9.57s-5,9.57-11.17,9.57Z"></path>
</symbol><symbol id="i062_food-19" data-name="Layer 1" xmlns="http://www.w3.org/2000/svg" viewBox="0 0 512 512">
  <path d="m109.12,286.83c-.64,0-1.29-.06-1.95-.19l-13.08-2.63c-5.33-1.07-8.78-6.27-7.71-11.6,1.07-5.34,6.25-8.8,11.59-7.72l13.08,2.63c5.33,1.07,8.78,6.27,7.71,11.6-.94,4.68-5.05,7.92-9.64,7.92Z"></path>
  <g>
    <g>
      <path d="m256,46.23c-115.52,0-209.49,94.1-209.49,209.77s93.98,209.77,209.49,209.77,209.49-94.1,209.49-209.77S371.52,46.23,256,46.23Zm0,399.83c-104.66,0-189.81-85.26-189.81-190.06s85.15-190.06,189.81-190.06,189.81,85.26,189.81,190.06-85.15,190.06-189.81,190.06Z"></path>
      <path d="m421.98,222.01c-11.69-57.21-53.03-105.24-107.88-125.35-5.11-1.87-10.76.76-12.63,5.87-1.87,5.11.75,10.77,5.86,12.64,48.49,17.78,85.03,60.23,95.37,110.79.95,4.67,5.05,7.88,9.63,7.88.65,0,1.32-.07,1.98-.2,5.32-1.09,8.76-6.3,7.67-11.63Z"></path>
      <path d="m255.76,86.35c-38.34,0-74.51,12.49-104.61,36.13-4.28,3.36-5.03,9.55-1.67,13.84,1.94,2.48,4.83,3.77,7.75,3.77,2.12,0,4.26-.69,6.07-2.1,26.6-20.89,58.58-31.93,92.47-31.93,5.44,0,9.84-4.41,9.84-9.85s-4.41-9.85-9.84-9.85Z"></path>
    </g>
    <path d="m332.73,349.99c-7.61-9.52-18.01-21.16-29.32-32.79-8.63-8.87-21.36-21.41-35.88-33.97-14.54-12.54-30.85-25.1-46.67-34-25.45-14.33-44.04-19.1-58.49-15.04-14.41,4.05-21.09,15.98-25.97,24.69l-.56,1.03c-.46.8-.93,1.62-1.39,2.44-2.81,4.89-6,10.45-7.63,16.8-1,3.84-1.42,7.98-.83,12.43.18,1.48.48,2.97.9,4.52,3.84,13.98,17.25,27.03,42.19,41.08,33.06,18.61,82.07,31.38,101.61,36.01,16.15,3.83,31.73,6.83,43.85,8.43,6.02.8,10.94,1.31,14.96,1.31,4.61,0,8.03-.66,10.55-2.28,1.46-.92,2.62-2.17,3.53-3.8.04-.06.07-.11.08-.17.21-.37.39-.73.55-1.1,2.62-6.32-1.42-13.01-11.49-25.59Zm-23.68,11.02c-21.96-3.62-55.96-11.23-87.06-22.02-6.57-2.28-12.99-5.56-19.15-6.97h-.01c-7.73-4.22-15.03-6.84-21.64-10.43-.83-.45-1.66-1.03-2.46-1.48-5.75-3.24-10.53-6.31-14.51-9.11-12.12-8.53-16.66-15.02-18.14-19.4-.08-.24-.15-.48-.23-.72-.38-1.39-.51-2.77-.39-4.18.32-4.18,2.66-8.59,6.06-14.53.49-.87,1-1.73,1.48-2.59l.59-1.06c4.7-8.42,8-13.64,14.12-15.36,1.36-.39,3.05-.65,5.13-.65,7.18,0,19.04,3,38.38,13.9,37.2,20.93,83.15,68.24,103.73,93.04.82.97,1.58,1.9,2.31,2.8-2.49-.34-5.24-.76-8.21-1.25Z"></path>
    <path d="m117.65,259.54c-1.63,0-3.29-.41-4.81-1.27l-25.74-14.49c-4.74-2.67-6.42-8.68-3.76-13.42,2.67-4.74,8.66-6.43,13.4-3.76l25.74,14.49c4.74,2.67,6.42,8.68,3.76,13.42-1.81,3.22-5.15,5.03-8.59,5.03Z"></path>
    <path d="m136.03,238.88c-2.65,0-5.3-1.07-7.24-3.18l-9.04-9.82c-3.68-4-3.43-10.24.57-13.93,4-3.69,10.22-3.43,13.91.57l9.04,9.82c3.68,4,3.43,10.24-.57,13.93-1.89,1.75-4.28,2.61-6.67,2.61Z"></path>
    <path d="m202.14,286.87c-8.27,17.01-15.58,27.82-20.95,34.46-.83-.45-1.66-.9-2.46-1.35-5.75-3.24-10.53-6.25-14.51-9.05,4.16-4.77,11.43-14.61,20.22-32.69,2.38-4.89,8.27-6.93,13.16-4.55,4.88,2.38,6.92,8.28,4.54,13.18Z"></path>
    <path d="m229.65,325.17c-2.78,5.74-5.39,10.18-7.66,13.57-6.57-2.28-12.99-4.7-19.15-7.24,1.8-2.14,5.09-6.64,9.11-14.95,2.38-4.9,8.27-6.93,13.16-4.55,4.88,2.38,6.92,8.28,4.54,13.16Z"></path>
    <path d="m240.22,159.83c-8.69-5.69-18.83-8.12-28.56-6.9-10.33,1.32-18.97,6.56-24.31,14.75-3.14,4.81-4.82,10.21-5.16,15.73-.83,13.32,6.14,27.38,19.18,35.93,7.21,4.73,15.42,7.22,23.58,7.22,1.67,0,3.33-.11,4.98-.32,10.33-1.31,18.97-6.55,24.31-14.75,1.15-1.76,2.11-3.6,2.87-5.5,6.36-15.75-.42-35.36-16.89-46.15Zm-2.45,40.87c-.13.2-.27.39-.42.59h0c-2.19,2.96-5.68,4.87-9.9,5.41-5.1.63-10.53-.72-15.31-3.86-5.72-3.76-9.35-9.29-10.19-14.71-.55-3.44.01-6.81,1.87-9.66,2.15-3.28,5.82-5.41,10.32-5.98.83-.1,1.67-.15,2.52-.15,4.33,0,8.8,1.38,12.79,4,9.36,6.14,13.09,17.06,8.32,24.37Z"></path>
    <path d="m339.39,182.44c-5.23-18.89-26.77-29.45-48-23.57-17.32,4.8-29.17,19.1-30.12,34.45-.22,3.48.11,7.01,1.08,10.5,4.25,15.35,19.26,25.2,36.12,25.2,3.89,0,7.89-.53,11.88-1.63,13.34-3.72,23.45-13.05,27.81-24.17,2.59-6.57,3.16-13.77,1.22-20.78Zm-21.03,16.64c-2.7,4.2-7.4,7.69-13.26,9.32-10.78,2.98-21.44-1.44-23.78-9.84-.1-.38-.18-.75-.24-1.13-1.46-8.11,5.26-16.7,15.56-19.57,2.29-.63,4.57-.93,6.76-.93,8.17,0,15.17,4.14,17,10.77,1.07,3.84.21,7.86-2.05,11.38Z"></path>
    <path d="m329.58,231.73c-22-1.32-40.84,13.53-42.01,33.1,0,.06-.01.13-.01.18-1.04,19.5,15.87,36.36,37.79,37.69.91.06,1.81.08,2.71.08,10.4,0,19.95-3.6,27.04-9.56,4.41-3.72,7.87-8.33,9.98-13.56,1.28-3.15,2.07-6.53,2.28-10.07,1.17-19.57-15.78-36.56-37.78-37.87Zm18.14,36.7c-.15,2.53-1.05,4.87-2.55,6.91-3.64,4.98-10.73,8.14-18.64,7.67-9.72-.58-17.53-6.42-19.05-13.68-.24-1.08-.32-2.2-.25-3.34.49-8.31,9.15-14.64,19.63-14.64.51,0,1.04.01,1.56.04,10.84.66,19.33,7.87,19.33,16.29,0,.25-.01.49-.03.75Z"></path>
    <path d="m281.83,269.98c-.55.56-1.18,1.07-1.88,1.49-1.59.96-3.35,1.42-5.09,1.42-3.32,0-6.57-1.69-8.42-4.74l-18.74-30.97c-.35-.58-.63-1.18-.86-1.8-1.55-4.32.1-9.26,4.18-11.74,4.64-2.82,10.7-1.32,13.51,3.32l18.74,30.97c2.4,3.96,1.69,8.91-1.43,12.05Z"></path>
    <path d="m380.42,297.66c-5.39-.69-10.31,3.15-11,8.55l-.76,6.1-2.98,23.95c-.67,5.39,3.15,10.32,8.55,11,.41.06.82.08,1.22.08,3.36,0,6.43-1.72,8.21-4.42,0-.01.01-.01.01-.01.8-1.22,1.34-2.66,1.53-4.21l3.75-30.03c.67-5.41-3.16-10.32-8.55-11Z"></path>
  </g>
</symbol><symbol id="i062_food-20" data-name="Layer 1" xmlns="http://www.w3.org/2000/svg" viewBox="0 0 512 512">
  <g>
    <path d="m256,46.23c-115.52,0-209.49,94.1-209.49,209.77s93.98,209.77,209.49,209.77,209.49-94.1,209.49-209.77S371.52,46.23,256,46.23Zm0,399.83c-104.66,0-189.81-85.26-189.81-190.06s85.15-190.06,189.81-190.06,189.81,85.26,189.81,190.06-85.15,190.06-189.81,190.06Z"></path>
    <path d="m421.98,222.01c-11.69-57.21-53.03-105.24-107.88-125.35-5.11-1.87-10.76.76-12.63,5.87-1.87,5.11.75,10.77,5.86,12.64,48.49,17.78,85.03,60.23,95.37,110.79.95,4.67,5.05,7.88,9.63,7.88.65,0,1.32-.07,1.98-.2,5.32-1.09,8.76-6.3,7.67-11.63Z"></path>
    <path d="m255.76,86.35c-38.34,0-74.51,12.49-104.61,36.13-4.28,3.36-5.03,9.55-1.67,13.84,1.94,2.48,4.83,3.77,7.75,3.77,2.12,0,4.26-.69,6.07-2.1,26.6-20.89,58.58-31.93,92.47-31.93,5.44,0,9.84-4.41,9.84-9.85s-4.41-9.85-9.84-9.85Z"></path>
  </g>
  <g>
    <path d="m195.73,228.43c-4.61-4.66-10.76-7.25-17.32-7.31-6.55-.03-13.37,2.83-18.03,7.45-8.35,8.26-9.76,21.17-4.14,30.94h0c1.41,1.39,2.66,2.55,3.94,3.84,1.86,1.87,4.29,3.24,6.52,4.38,8.31,4.29,18.76,3.45,26.38-2.42.79-.62,1.64-1.34,2.37-2.06,9.63-9.55,9.8-25.19.26-34.83Zm-11.39,23.44c-3.39,3.35-8.86,3.32-12.2-.07-3.35-3.38-3.32-8.87.07-12.22.25-.25.53-.49.82-.72,1.52-1.17,3.36-1.79,5.29-1.77,2.31.01,4.49.93,6.1,2.56,3.35,3.39,3.3,8.87-.07,12.22Z"></path>
    <path d="m355.8,156.4c-18.51-17.74-42.78-27.2-68.37-26.65-21.03.45-40.2,8.25-55.11,20.92-5.08,4.27-9.65,9.12-13.66,14.42-6.6,8.8-11.63,18.86-14.61,29.77-3.3-1.12-6.71-2.01-10.21-2.65-36.85-6.86-72.39,17.62-79.21,54.52-6.26,33.87,15.91,66.53,49.53,73.26.02.15.02.3.04.45.04.65.1,1.33.19,1.97-.24-.03-.46-.08-.71-.12-1.91-.36-3.79-.79-5.63-1.3-32.82-9.07-53.85-42.04-47.56-76.15,3.58-19.34,14.47-36.13,30.66-47.28,16.19-11.14,35.75-15.31,55.08-11.74,5.33,1,10.48-2.55,11.46-7.88.99-5.37-2.54-10.5-7.89-11.5-24.49-4.53-49.28.74-69.8,14.88-20.53,14.11-34.32,35.41-38.85,59.93-7.21,38.93,13.06,76.68,47.02,93.2,0,0,0,0,0,0-2.18,3.45-3.61,7.44-4.27,11.59-1.28,8,.64,16.04,5.4,22.61,4.76,6.57,11.79,10.89,19.79,12.18,6.74,1.07,13.48-.13,19.37-3.37,1.11-.61,2.18-1.28,3.22-2.05.61-.45,1.2-.91,1.77-1.39,15.01,22.05,37.83,38.88,65.64,45.89,26.94,6.79,54.9,2.65,78.74-11.63,3.58-2.13,6.99-4.45,10.23-6.96,18.44-14.19,31.48-34.06,37.24-57,3.19-12.69,3.76-25.61,1.79-38.16,3.46-.54,6.81-1.69,9.91-3.4,1.11-.61,2.18-1.28,3.22-2.05,1.87-1.35,3.55-2.89,5.03-4.59,3.73-4.25,6.21-9.47,7.12-15.21,1.27-8.02-.64-16.04-5.41-22.62-3.54-4.89-8.36-8.54-13.89-10.61,1.66-7.8,2.42-15.84,2.24-24.02-.56-25.64-11.04-49.51-29.52-67.25Zm-209.42,181.53c2.5.91,5.07,1.71,7.69,2.39-3.43-.82-6.83-1.98-10.13-3.34.81.32,1.61.66,2.43.95Zm26.95,17.81c1.4,3.2,2.95,6.33,4.64,9.38-1.69-3.05-3.24-6.18-4.64-9.38-.75,1.46-1.84,2.73-3.2,3.72-2.31,1.67-5.13,2.34-7.93,1.89-2.81-.44-5.3-1.98-6.97-4.29s-2.35-5.15-1.91-7.96c.45-2.82,1.94-5.35,4.24-7.02.33-.24.62-.52.96-.74l.32.06c.43.1.84.18,1.25.26,2.81.52,5.63.9,8.45,1.11,1.33,4.43,2.92,8.75,4.79,12.96Zm182.02-56.68c.26.88.51,1.78.75,2.67,3.2,12.23,3.28,25.15.11,37.76-5.49,21.87-19.17,40.3-38.48,51.86-19.33,11.58-42,14.93-63.83,9.43-26.76-6.74-47.92-24.51-59.82-47.27-1.99-3.82-3.72-7.78-5.19-11.85-1.43-3.97-2.59-8.06-3.47-12.23-.49-2.29-.88-4.61-1.19-6.95-1.54-11.37-.97-23.19,1.99-34.97,1.34-5.29-1.85-10.63-7.13-11.96-5.28-1.33-10.62,1.88-11.94,7.15-1.43,5.66-2.4,11.36-2.92,17-20.95-6.2-34.3-27.43-30.24-49.41,3.67-19.87,19.06-34.65,37.68-38.53,3.77-.79,7.68-1.13,11.62-.98,2.31.09,4.63.34,6.98.78,3.7.69,7.3,1.74,10.7,3.14,8,3.28,15.09,8.45,20.68,15.17,1.09,1.31,2.14,2.69,3.12,4.12,2.11,3.08,3.87,6.3,5.3,9.68-1.02.77-2.03,1.59-3,2.43-5.25,4.43-9.98,9.48-14.11,15.07-2.55,3.45-4.87,7.11-6.9,10.95-3.29,6.21-5.88,12.88-7.66,19.97-.11.43-.23.87-.32,1.29-2.02,8.59-2.63,17.27-1.88,25.81.58,6.62,1.97,13.15,4.17,19.47,1.83,5.28,4.21,10.42,7.15,15.35,11.19,18.72,29.01,31.99,50.16,37.31,19.54,4.92,39.82,1.94,57.12-8.43,17.29-10.36,29.53-26.85,34.44-46.42,2.69-10.69,2.83-21.64.5-32.11-1.54-6.88-4.11-13.56-7.72-19.83-.18-.32-.37-.65-.56-.96-1.37-2.28-2.85-4.45-4.43-6.54-4.03-5.3-8.74-9.95-14.01-13.84-7.22-5.32-15.47-9.26-24.43-11.51-2.31-.59-4.65-1.04-6.99-1.35-2.97-.44-5.94-.64-8.91-.61-10.09-.01-20.02,2.37-29.13,7.01-1.31.68-2.63,1.38-3.9,2.15-2.92,1.76-5.69,3.72-8.27,5.88-2.8,2.32-5.22,5.15-7.56,7.9-1.93,2.27-4.27,3.74-5.15,7.44h-.01c-2.25,2.86-4,6.42-5.46,10.01-1.15,2.84-2.17,5.65-2.94,8.66-.31,1.27-.42,2.45-.26,3.65.51,3.88,3.32,7.19,7.33,8.22,5.28,1.31,10.61-1.9,11.93-7.18.25-.92.5-1.87.79-2.77,1.11-3.5,2.63-6.82,4.52-9.9,0-.02.02-.05.04-.07,2.03-3.28,4.48-6.27,7.29-8.93,2.25-2.18,4.8-4.11,7.54-5.79.11-.06.21-.13.33-.2,10.31-6.19,22.38-7.96,34.03-5.02,4.21,1.07,8.23,2.64,11.96,4.69,6.2,3.41,11.61,8.11,15.89,13.87,1.05,1.38,2.03,2.84,2.92,4.35.7,1.16,1.34,2.35,1.94,3.55,3.11,6.26,4.83,12.99,5.14,19.86.21,4.84-.26,9.73-1.49,14.57-3.62,14.46-12.68,26.64-25.46,34.29-12.77,7.66-27.76,9.87-42.2,6.23-16.06-4.03-29.58-14.1-38.08-28.32-2.66-4.46-4.74-9.17-6.19-14.02-2.04-6.77-2.9-13.82-2.52-20.89.03-.76.08-1.52.15-2.29.29-3.26.83-6.54,1.65-9.78.8-3.18,1.81-6.24,3.01-9.17,1.49-3.7,3.3-7.22,5.36-10.51,2.43-3.9,5.26-7.51,8.38-10.8,1.41-1.5,2.87-2.92,4.41-4.27,4.34-3.86,9.17-7.14,14.33-9.76,6.28-3.21,13.05-5.45,20.1-6.64,9.01-1.48,18.44-1.18,27.85,1.19.53.12,1.04.26,1.56.41,8.82,2.41,17.01,6.32,24.27,11.52,5.34,3.84,10.18,8.35,14.39,13.5.35.43.78.82,1.05,1.3h0c1.15,2.11,2.88,3.89,4.2,5.96.46.69.9,1.4,1.32,2.12,3.3,5.49,5.84,11.31,7.65,17.3Zm-57.52-72.96c-6.07-.97-12.03-1.07-18.08-1.07h0c-2.19-4.22-1.63-9.2,1.83-12.61.32-.32.66-.56,1-.83,1.87-1.44,4.15-2.19,6.54-2.17,2.85,0,5.53,1.1,7.53,3.13,3.66,3.72,4.05,9.42,1.18,13.55Zm38.11,15.17c-5.82-3.92-12.09-7.21-18.74-9.78-2.88-1.12-5.85-2.07-8.86-2.92,3.01.85,5.98,1.79,8.86,2.92,4.39-10.88,2.21-23.86-6.57-32.73-5.7-5.77-13.3-8.97-21.4-9.03-8.11-.04-15.56,2.93-21.32,8.65-8.21,8.12-10.64,19.69-7.57,30.06-4.58,1.29-9.04,2.95-13.33,4.95-1.36-2.93-2.93-5.79-4.72-8.54.67-1.37,1.04-2.92,1-4.54-.18-8.68,2.09-17,6.47-24.23,1.68-2.79,3.69-5.43,6-7.85,8.3-8.68,19.49-13.62,31.49-13.87,13.38-.28,26.05,4.66,35.72,13.94,9.66,9.26,15.14,21.72,15.44,35.13.14,6.14-.71,12.15-2.49,17.85Zm47,36.53c-.46,2.81-1.97,5.28-4.28,6.96-1.98,1.43-4.33,2.13-6.73,2.01-.72-1.9-1.52-3.79-2.37-5.65,2.92-4.67,5.45-9.52,7.59-14.56,1.52.75,2.86,1.86,3.88,3.29.27.37.5.74.72,1.13,1.14,2.07,1.55,4.45,1.19,6.82Zm-17.31-53.72c.17,7.91-.74,15.69-2.68,23.15-1.27,4.96-3.01,9.79-5.19,14.42-1.86-2.38-3.82-4.67-5.88-6.85.24-.55.47-1.1.7-1.67,0,0,0-.01,0-.02,3.84-9.42,5.75-19.62,5.51-30.11-.4-18.65-8.02-36.03-21.49-48.95-13.46-12.91-31.14-19.79-49.77-19.39-15.78.33-30.55,6.27-42.09,16.8-1.09,1-2.15,2.05-3.18,3.12-4.92,5.14-8.9,10.98-11.86,17.25-2.13,4.5-3.7,9.26-4.74,14.14-.94-.72-1.89-1.42-2.88-2.08,1.35-6.36,3.6-12.39,6.58-17.97,3.7-6.96,8.57-13.22,14.37-18.48,11.85-10.85,27.51-17.6,44.79-17.97,20.33-.45,39.64,7.06,54.33,21.18,14.71,14.06,23.02,33.04,23.46,53.43Z"></path>
  </g>
  <path d="m282.59,276.92c-22.34,0-40.52,18.2-40.52,40.57s18.18,40.56,40.52,40.56,40.51-18.2,40.51-40.56-18.18-40.57-40.51-40.57Zm0,61.42c-11.49,0-20.84-9.36-20.84-20.85s9.35-20.86,20.84-20.86,20.82,9.36,20.82,20.86-9.35,20.85-20.82,20.85Z"></path>
</symbol><symbol id="i062_food-6" data-name="Layer 1" xmlns="http://www.w3.org/2000/svg" viewBox="0 0 512 512">
  <path d="m290.85,358.39h-69.71c-5.43,0-9.84,4.41-9.84,9.85s4.41,9.85,9.84,9.85h69.71c5.44,0,9.84-4.41,9.84-9.85s-4.4-9.85-9.84-9.85Z"></path>
  <path d="m261.8,358.41c-.11-.01-.24-.01-.35-.01h-10.9c-5.44,0-9.84,4.41-9.84,9.85s4.4,9.85,9.84,9.85h10.9c.11,0,.24,0,.35-.01,5.27-.18,9.49-4.51,9.49-9.84s-4.22-9.66-9.49-9.84Z"></path>
  <path d="m256,246.47c-5.44,0-9.84,4.41-9.84,9.85v78.84c0,5.45,4.4,9.85,9.84,9.85s9.84-4.41,9.84-9.85v-78.84c0-5.45-4.4-9.85-9.84-9.85Z"></path>
  <path d="m256,345.02c-5.44,0-9.84-4.41-9.84-9.85v-53.5c0-5.44,4.41-9.85,9.84-9.85s9.84,4.41,9.84,9.85v53.5c0,5.44-4.41,9.85-9.84,9.85Z"></path>
  <path d="m256,271.81c-5.44,0-9.84,4.41-9.84,9.85v53.5c0,5.45,4.4,9.85,9.84,9.85s9.84-4.41,9.84-9.85v-53.5c0-5.45-4.41-9.85-9.84-9.85Z"></path>
  <path d="m351.46,203.71v-26.03c9.52-5.55,15.93-15.88,15.93-27.68,0-17.67-14.36-32.03-31.99-32.03-4.33,0-8.59.89-12.51,2.58-7.1-9.81-18.63-16.02-31.16-16.02-4.09,0-8.13.65-11.97,1.91-8.69-21.57-29.98-36.6-53.98-36.6-27.46,0-50.55,19.16-56.61,44.83-3.87-1.34-7.94-2.04-12.11-2.04-20.58,0-37.32,16.77-37.32,37.38,0,16.8,11.14,31.06,26.42,35.73v182.44c0,32.08,26.01,57.79,58.05,57.79h89.17c30.85,0,55.86-23.83,57.7-54.23,23.41-3.77,41.13-24.14,41.13-48.64v-70.76c0-24.45-17.42-44.8-40.77-48.63Zm-19.68,164.46c0,16.63-10.55,30.61-25.31,35.97-.07.03-.13.04-.2.07-4.04,1.45-8.35,2.04-12.86,2.04h-89.17c-21.19,0-38.37-16.87-38.37-38.08v-181.85c3.5-.84,6.81-2.18,9.84-3.94v28.42c0,14.75,11.98,26.51,26.71,26.51h1.41c14.73,0,26.71-11.76,26.71-26.51v-24.69c6.37-.51,12.54-2.08,18.28-4.56,6.03-2.59,11.6-6.22,16.46-10.73,7.03,6.69,16.48,10.63,26.45,10.63,5.13,0,10.14-1.03,14.73-2.96,2.8-1.15,5.44-2.63,7.89-4.42,4.84,4.25,10.9,7,17.42,7.73v186.37Zm3.63-205.85c-4.79,0-9.18-2.84-11.18-7.22-1.48-3.22-4.57-5.41-8.1-5.72-3.56-.31-6.95,1.31-8.96,4.22-3.52,5.1-9.28,8.14-15.44,8.14-7.21,0-13.86-4.25-16.94-10.83-1.5-3.21-4.63-5.36-8.15-5.65-3.52-.27-6.95,1.38-8.93,4.32-3.85,5.72-9.08,10.21-15.07,13.11-3.77,1.86-7.86,3.08-12.09,3.6-1.56.2-3.15.3-4.75.3-5.24,0-10.29-1.04-14.93-2.97v47.18c0,3.89-3.15,6.8-7.03,6.8h-1.41c-3.88,0-7.03-2.91-7.03-6.8v-59.09c-.93-1.2-1.8-2.45-2.59-3.77-2.18-3.62-6.41-5.45-10.55-4.53-2.87.62-5.23,2.48-6.55,4.97-.59,1.08-.97,2.29-1.11,3.58-.46,4.24-2.39,7.97-5.24,10.74-1.04,1.01-2.22,1.89-3.49,2.62-2.59,1.49-5.6,2.34-8.79,2.34-4.11,0-7.89-1.42-10.9-3.79-4.11-3.24-6.73-8.25-6.73-13.87,0-9.74,7.9-17.67,17.63-17.67,5.02,0,9.81,2.18,13.17,5.97,1.5,1.69,3.49,2.76,5.6,3.14,1.84.35,3.8.17,5.61-.61,3.88-1.65,6.3-5.6,5.98-9.81-.08-1.14-.13-2.07-.13-2.94,0-2.11.17-4.15.51-6.17,0-.03.01-.07.01-.1,2.98-18.27,18.87-32.27,37.96-32.27s35.26,14.11,38.05,32.8c.52,3.52,2.9,6.48,6.2,7.76,3.32,1.27,7.06.66,9.79-1.6,3.39-2.79,7.51-4.27,11.91-4.27,8.27,0,15.65,5.55,17.97,13.49.63,2.17,1.97,4.01,3.74,5.27,1.03.73,2.19,1.28,3.46,1.58,2.78.66,5.69.06,7.97-1.58.55-.39,1.04-.83,1.5-1.34,2.38-2.56,5.58-3.97,9.03-3.97,4.18,0,7.89,2.1,10.11,5.31,1.38,1.98,2.19,4.41,2.19,7.01,0,6.79-5.53,12.32-12.3,12.32Zm37.15,160.77c0,13.53-8.67,24.95-21.09,28.44v-127.63c12.42,3.49,21.09,14.89,21.09,28.44v70.76Z"></path>
  <path d="m361.59,442.16h-211.19c-5.44,0-9.84-4.41-9.84-9.85s4.41-9.85,9.84-9.85h211.19c5.44,0,9.84,4.41,9.84,9.85s-4.41,9.85-9.84,9.85Z"></path>
</symbol><symbol id="i062_food-18" data-name="Layer 1" xmlns="http://www.w3.org/2000/svg" viewBox="0 0 512 512">
  <g>
    <path d="m256,46.11c-115.73,0-209.89,94.16-209.89,209.89s94.16,209.89,209.89,209.89,209.89-94.16,209.89-209.89S371.73,46.11,256,46.11Zm0,400.06c-104.86,0-190.17-85.31-190.17-190.17s85.31-190.17,190.17-190.17,190.17,85.31,190.17,190.17-85.31,190.17-190.17,190.17Z"></path>
    <path d="m422.29,221.99c-11.71-57.24-53.13-105.3-108.09-125.42-5.11-1.87-10.78.75-12.65,5.87-1.87,5.11.76,10.78,5.87,12.65,48.58,17.79,85.19,60.27,95.55,110.86.96,4.67,5.06,7.89,9.65,7.89.65,0,1.32-.07,1.99-.2,5.34-1.09,8.78-6.3,7.68-11.64Z"></path>
    <path d="m255.76,86.25c-38.41,0-74.65,12.5-104.81,36.15-4.29,3.36-5.04,9.56-1.67,13.84,1.95,2.48,4.84,3.78,7.77,3.78,2.13,0,4.27-.69,6.08-2.1,26.65-20.9,58.69-31.95,92.64-31.95,5.45,0,9.86-4.41,9.86-9.86s-4.41-9.86-9.86-9.86Z"></path>
  </g>
  <path d="m386.58,285.53c-.66-47.39-20.61-87.25-57.69-115.26-54.29-41.03-122.77-30.2-168.73-6.38-37.95,19.64-63.46,48.19-68.01,75.03-.55,3.37-.79,6.69-.69,9.97,1.44,44.51,33.43,51.77,64.38,58.8,17.07,3.87,36.43,8.27,54.04,18.83,25.24,15.14,32.86,28.88,40.23,42.15,6.75,12.17,13.73,24.76,33.13,33.12,5.62,2.42,11.4,3.92,17.23,4.48,1.79.18,3.58.27,5.37.27,7.96,0,15.99-1.72,23.83-5.16,6.87-3.01,13.45-7.3,19.48-12.54,11.9-10.35,21.64-24.48,27.19-40.12.06-.15.15-.41.27-.73.01-.01.01-.04.03-.06,1.9-5.2,10.4-30.33,9.95-62.4Zm-28.68,56.19c-.03.1-.07.2-.11.3-.03.08-.06.15-.08.24-3.47,9.72-9.09,18.83-15.9,26.24-5.97,6.49-12.88,11.69-20.03,14.82-10.4,4.54-20.74,4.66-30.72.35-13.23-5.69-17.38-13.2-23.69-24.57-7.82-14.09-17.55-31.62-47.32-49.5-20.31-12.19-41.32-16.95-59.83-21.16-33.34-7.56-48.12-12.09-49.02-40.19-.04-1.25,0-2.52.13-3.82.2-2.04.61-4.13,1.21-6.25,5.48-19.36,27.15-41.46,56.71-56.78,21.24-11.02,47.82-18.95,75.07-18.95,24.86,0,50.29,6.62,72.7,23.55,32.31,24.41,49.09,57.77,49.84,99.13.58,31.53-8.79,56.19-8.95,56.59Z"></path>
  <path d="m179.63,267.51c-16.54,0-30.28-13.14-30.89-29.8-.62-17.04,12.73-31.42,29.78-32.04,8.25-.3,16.13,2.63,22.19,8.25,6.05,5.62,9.55,13.27,9.85,21.52.62,17.04-12.73,31.41-29.78,32.04-.38.01-.76.02-1.14.02Zm.02-42.13c-.14,0-.28,0-.42,0-2.99.11-5.76,1.38-7.8,3.57-2.04,2.19-3.1,5.05-2.99,8.04.23,6.17,5.47,11.02,11.61,10.79,2.99-.11,5.76-1.38,7.8-3.57,2.04-2.19,3.1-5.05,2.99-8.04-.11-2.99-1.38-5.76-3.57-7.8-2.09-1.94-4.78-3-7.62-3Z"></path>
  <path d="m352.4,282.96l-14.3-10.82,13.42-20.28c3.01-4.54,1.76-10.66-2.78-13.67-4.54-3.01-10.66-1.76-13.66,2.78l-12.73,19.24-23.17-17.55,10.78-16.88c2.93-4.59,1.59-10.69-3-13.62-4.59-2.93-10.69-1.59-13.62,3l-9.94,15.55-13.53-10.24c-4.34-3.29-10.53-2.43-13.81,1.91-3.29,4.34-2.43,10.53,1.91,13.81l14.78,11.19-14.12,22.11-13.65-10.34c-4.34-3.29-10.53-2.43-13.81,1.91-3.29,4.34-2.43,10.53,1.91,13.81l14.91,11.29-8.87,13.89c-2.93,4.59-1.59,10.69,3,13.62,1.64,1.05,3.48,1.55,5.3,1.55,3.25,0,6.44-1.61,8.32-4.55l8.03-12.56,22.32,16.9-9.78,14.78c-3.01,4.54-1.76,10.66,2.78,13.67,1.68,1.11,3.56,1.64,5.43,1.64,3.2,0,6.33-1.55,8.23-4.42l9.09-13.73,13.77,10.43c1.78,1.35,3.87,2,5.94,2,2.98,0,5.93-1.35,7.87-3.91,3.29-4.34,2.43-10.53-1.91-13.81l-14.77-11.18,14.46-21.85,13.3,10.07c1.78,1.35,3.87,2,5.94,2,2.98,0,5.93-1.35,7.87-3.91,3.29-4.34,2.43-10.53-1.91-13.81Zm-55.42,15.57l-22.58-17.1,14.12-22.11,22.92,17.35-14.46,21.85Z"></path>
</symbol><symbol id="i062_food-21" data-name="Layer 1" xmlns="http://www.w3.org/2000/svg" viewBox="0 0 512 512">
  <g>
    <path d="m256,46.23c-115.52,0-209.49,94.1-209.49,209.77s93.98,209.77,209.49,209.77,209.49-94.1,209.49-209.77S371.52,46.23,256,46.23Zm0,399.83c-104.66,0-189.81-85.26-189.81-190.06s85.15-190.06,189.81-190.06,189.81,85.26,189.81,190.06-85.15,190.06-189.81,190.06Z"></path>
    <path d="m421.98,222.01c-11.69-57.21-53.03-105.24-107.88-125.35-5.11-1.87-10.76.76-12.63,5.87-1.87,5.11.75,10.77,5.86,12.64,48.49,17.78,85.03,60.23,95.37,110.79.95,4.67,5.05,7.88,9.63,7.88.65,0,1.32-.07,1.98-.2,5.32-1.09,8.76-6.3,7.67-11.63Z"></path>
    <path d="m255.76,86.35c-38.34,0-74.51,12.49-104.61,36.13-4.28,3.36-5.03,9.55-1.67,13.84,1.94,2.48,4.83,3.77,7.75,3.77,2.12,0,4.26-.69,6.07-2.1,26.6-20.89,58.58-31.93,92.47-31.93,5.44,0,9.84-4.41,9.84-9.85s-4.41-9.85-9.84-9.85Z"></path>
  </g>
  <path d="m204.15,222.03c3.67-6.11,1.71-14.05-4.4-17.73-6.1-3.68-14.03-1.71-17.7,4.4-3.67,6.11-1.71,14.05,4.4,17.73,6.1,3.68,14.03,1.71,17.7-4.4Z"></path>
  <path d="m403.03,281.28c-37.55-19.54-69.41,3.49-70.75,4.48-.55.41-1.05.87-1.49,1.37-22.3-27.57-55.07-66.91-81.34-93.59-.42-.52-.89-.99-1.41-1.42-11.12-11.19-20.99-20.01-28.3-24.5-39.12-24.07-97.52,9.93-99.98,11.39-2.77,1.63-4.56,4.52-4.81,7.71-.22,2.93-5.09,71.94,34.1,96.06,7.45,4.59,20.16,9.49,35.63,14.37.6.27,1.25.45,1.9.59,36.39,11.32,87.19,22.5,121.79,29.59-.73,8.78-1.15,41.36,29.4,62.51,1.69,1.17,3.64,1.75,5.6,1.75,1.24,0,2.46-.24,3.63-.7.84-.32,1.64-.77,2.38-1.35.51-.39,6.21-4.96,10.77-14.43,4.51-9.38,7.9-23.57,4.02-43.31,38.67-11.66,43.82-38.84,44.04-40.1.73-4.22-1.36-8.43-5.16-10.42Zm-215.5-3.84c-12.5-4.03-22.44-7.93-28.18-11.46-20.2-12.45-24.83-47.2-25.04-67.82-.03-1.68-.01-3.25.01-4.72,16.96-8.83,53.19-22.54,75.11-9.04,5.72,3.52,13.67,10.53,22.89,19.74.37,6.93-.11,25.31-12.86,44.35-6.69,10-16.79,20.17-31.93,28.95Zm24.59,7.25c10.76-8.28,18.67-17.2,24.46-26.07,8.23-12.53,12.22-24.93,14.06-35.22,24.72,26.99,53.39,61.75,73.65,87.07-32.1-6.43-76.67-16.08-112.17-25.78Zm129.76,83.05c-13.2-13.21-14.26-29.62-14.05-36.49,6.29,1.24,11.28,2.2,14.57,2.82.86.17,1.6.31,2.22.42.3,1.39.55,2.76.76,4.07,2.22,14.28-.58,23.67-3.5,29.18Zm12.99-53.81c-.98-.32-2.02-.49-3.09-.48-2.24-2.86-5.24-6.66-8.84-11.18.34-.2.67-.39,1-.63.84-.61,18.88-13.33,41.52-6.36-4.01,5.93-12.63,14.09-30.58,18.65Z"></path>
</symbol>
</svg>