<svg xmlns="http://www.w3.org/2000/svg" style="display: none;">

<symbol id="i064_food-1" xmlns="http://www.w3.org/2000/svg" viewBox="0 0 512 512">
  <path d="m446.35,104.94c3.88-12.73,2.38-25.3-4.22-35.39-14.15-21.75-45.2-29.7-72.24-18.46-72.38,30.54-155.4,30.55-227.83-.02-26.97-11.22-58.02-3.27-72.18,18.47-6.61,10.1-8.12,22.67-4.23,35.41,5.12,16.75,19.05,31.35,37.28,39.01,32.79,13.84,67.22,22.9,102.16,27.41-13.84,59.42-14.18,98.78-.94,116.97,5.21,7.17,12.65,11.29,22.07,11.93h14.7s0,25.67,0,25.67h-11.21c-7.03,0-12.75,5.92-12.75,13.19v113.68c0,7.27,5.72,13.19,12.74,13.19h38.4c3.34,0,6.48-1.32,8.88-3.71,2.47-2.47,3.88-5.93,3.88-9.49v-113.67c0-7.27-5.72-13.19-12.75-13.19h-11.2v-25.69h15.27c8.84-.63,16.26-4.75,21.47-11.89,13.13-18,12.92-56.83-.56-115.38,39.69-3.71,78.89-13.35,115.99-29.01,18.23-7.68,32.17-22.28,37.29-39.03Zm-213.43,345.09v-67.97c4.66,1.18,10.41,2.16,16.88,2.16,4.73,0,9.83-.62,15.07-1.97v67.77h-31.95Zm31.95-84.41c-12.95,4.69-25.52,1.93-31.95-.19v-23.51h31.95v23.7Zm15.85-86.67c-2.45,3.36-5.53,5.07-9.13,5.34l-22.61.02s-.05-.02-.08-.02-.05.02-.08.02l-22.05.02c-4.17-.3-7.26-2-9.71-5.38-9.58-13.17-8.7-48.43,2.18-97.74l.96,53.12c.15,8.21,2.78,16.04,7.63,22.67l3.43,4.69c4.16,5.69,10.59,8.95,17.64,8.95h0c7.05,0,13.47-3.26,17.63-8.95l3.43-4.69c4.84-6.63,7.47-14.47,7.62-22.67l.96-53.15c10.89,49.33,11.76,84.63,2.18,97.77Zm-45.63-104.77c6.96.37,13.93.58,20.91.58,2.23,0,4.46-.13,6.69-.16l-1.07,59.46c-.09,4.9-1.66,9.58-4.55,13.53l-3.43,4.7c-2.23,3.06-7.24,3.06-9.48,0l-3.43-4.7c-2.89-3.96-4.47-8.64-4.55-13.54l-1.08-59.86Zm-125.96-44.93c-13.91-5.86-24.46-16.68-28.21-28.96-2.48-8.12-1.65-15.93,2.32-22v-.02c6.86-10.53,19.6-16.36,33.34-16.36,6.38,0,12.98,1.26,19.32,3.89,1.7.72,3.43,1.33,5.14,2.02l-10.89,27.87c-1.61,4.11.42,8.74,4.53,10.35.96.37,1.94.55,2.91.55,3.19,0,6.21-1.93,7.44-5.08l11-28.14c12.23,4.17,24.67,7.61,37.27,10.2l-5.18,30.68c-.74,4.34,2.2,8.47,6.54,9.2.45.07.9.11,1.34.11,3.83,0,7.21-2.76,7.87-6.66l5.15-30.51c12.93,1.97,25.96,3.05,39.01,3.38v37.28c0,4.42,3.58,7.99,7.99,7.99s7.99-3.57,7.99-7.99v-37.28c13.73-.35,27.43-1.57,41-3.73l5.21,30.85c.66,3.9,4.04,6.66,7.87,6.66.44,0,.88-.04,1.34-.11,4.35-.73,7.28-4.86,6.54-9.2l-5.25-31.13c12.7-2.7,25.24-6.2,37.55-10.5l11.29,28.89c1.23,3.15,4.25,5.08,7.44,5.08.96,0,1.95-.17,2.91-.55,4.11-1.61,6.14-6.24,4.53-10.35l-11.23-28.74c.96-.39,1.93-.73,2.88-1.13,19.99-8.33,42.64-2.97,52.69,12.46,3.97,6.07,4.79,13.88,2.32,21.99-3.75,12.28-14.29,23.11-28.21,28.98-93.33,39.39-200.39,39.38-293.73,0Z"></path>
</symbol><symbol id="i064_food-10" xmlns="http://www.w3.org/2000/svg" viewBox="0 0 512 512">
  <path d="m331.52,422.84c-3.88,0-7.75-1.48-10.7-4.43L93.59,191.19c-5.9-5.9-5.9-15.51,0-21.41l76.19-76.19c2.86-2.86,6.66-4.43,10.7-4.43s7.85,1.57,10.7,4.43l227.23,227.23c5.9,5.9,5.9,15.51,0,21.41l-76.19,76.19c-2.95,2.95-6.83,4.43-10.71,4.43ZM180.48,101.76c-.39,0-1.14.1-1.79.74l-76.19,76.19c-.99.99-.99,2.59,0,3.58l227.23,227.23c.99.99,2.59.99,3.58,0l76.19-76.19c.99-.99.99-2.59,0-3.58L182.27,102.5c-.64-.64-1.4-.74-1.79-.74Z"></path>
  <path d="m136.14,142.45c-.29,0-.58-.02-.87-.06l-83.84-11.62c-2.37-.33-4.35-1.97-5.11-4.24-.76-2.27-.17-4.77,1.52-6.46L120.06,47.85c1.69-1.69,4.2-2.28,6.46-1.52,2.27.76,3.91,2.74,4.24,5.11l11.62,83.84c.27,1.96-.39,3.93-1.79,5.32-1.19,1.19-2.8,1.85-4.46,1.85Zm-70.41-22.43l63.02,8.74-8.74-63.03-54.29,54.29Z"></path>
  <path d="m387.48,466c-.67,0-1.35-.11-2.01-.33-2.27-.76-3.91-2.74-4.24-5.11l-11.62-83.84c-.27-1.96.39-3.93,1.79-5.32,1.4-1.4,3.37-2.06,5.32-1.79l83.84,11.62c2.37.33,4.35,1.97,5.11,4.24.76,2.27.17,4.77-1.52,6.46l-72.21,72.21c-1.2,1.2-2.81,1.85-4.46,1.85Zm-4.23-82.75l8.74,63.02,54.29-54.29-63.02-8.74Z"></path>
  <path d="m153.29,188.86c-1.61,0-3.23-.62-4.46-1.85l-23.21-23.21c-3.48-3.48-5.4-8.11-5.4-13.03s1.92-9.55,5.4-13.03l11.74-11.74c3.48-3.48,8.11-5.4,13.03-5.4s9.55,1.92,13.03,5.4l23.21,23.21c2.46,2.46,2.46,6.45,0,8.92-2.46,2.46-6.46,2.46-8.92,0l-23.21-23.21c-1.1-1.1-2.56-1.7-4.11-1.7s-3.01.6-4.11,1.7l-11.74,11.74c-1.1,1.1-1.71,2.56-1.71,4.11s.61,3.01,1.7,4.11l23.21,23.21c2.46,2.46,2.46,6.45,0,8.92-1.23,1.23-2.84,1.85-4.46,1.85Z"></path>
  <path d="m361.42,391.58c-4.92,0-9.55-1.92-13.03-5.4l-23.21-23.21c-2.46-2.46-2.46-6.45,0-8.92,2.46-2.46,6.46-2.46,8.92,0l23.21,23.21c2.27,2.27,5.96,2.27,8.23,0l11.74-11.74c1.1-1.1,1.71-2.56,1.71-4.11s-.61-3.01-1.7-4.11l-23.21-23.21c-2.46-2.46-2.46-6.45,0-8.92,2.46-2.46,6.46-2.46,8.92,0l23.21,23.21c3.48,3.48,5.4,8.11,5.4,13.03s-1.92,9.55-5.4,13.03l-11.74,11.74c-3.48,3.48-8.11,5.4-13.03,5.4Z"></path>
</symbol><symbol id="i064_food-11" xmlns="http://www.w3.org/2000/svg" viewBox="0 0 512 512">
  <path d="m293.23,466c-1.29,0-2.56-.39-3.64-1.15-1.67-1.18-2.67-3.1-2.67-5.15v-124.2c0-17.05-13.87-30.92-30.92-30.92s-30.92,13.87-30.92,30.92v124.2c0,2.05-1,3.97-2.67,5.15-1.67,1.18-3.82,1.48-5.75.79-46.66-16.56-78.09-60.75-78.41-110.11l-27.97-114.43c-4.17-14.12-6.28-28.61-6.28-43.09,0-83.81,68.19-152,152-152s152,68.19,152,152c0,14.48-2.11,28.98-6.28,43.1l-27.97,114.43c-.32,49.36-31.75,93.55-78.41,110.11-.69.24-1.4.36-2.11.36Zm-37.23-407.39c-76.86,0-139.39,62.53-139.39,139.39,0,13.32,1.95,26.66,5.81,39.66.03.1.06.2.08.3l28.18,115.31c.12.49.18.99.18,1.5,0,41.31,24.41,78.66,61.61,95.6v-114.86c0-24,19.53-43.53,43.53-43.53s43.53,19.53,43.53,43.53v114.86c37.19-16.94,61.61-54.29,61.61-95.6,0-.5.06-1.01.18-1.5l28.18-115.31c.02-.1.05-.2.08-.3,3.85-13,5.81-26.34,5.81-39.66,0-76.86-62.53-139.39-139.39-139.39Z"></path>
  <path d="m115.74,243.55c-.57,0-1.14-.08-1.71-.24-3.35-.94-5.3-4.43-4.36-7.78,8.8-31.26,27.9-59.43,53.79-79.33,26.74-20.55,58.74-31.41,92.54-31.41s65.8,10.86,92.54,31.41c25.89,19.89,44.99,48.07,53.79,79.33.94,3.35-1.01,6.83-4.36,7.78-3.35.94-6.83-1.01-7.78-4.36-16.83-59.79-72.01-101.54-134.19-101.54s-117.37,41.76-134.19,101.54c-.78,2.78-3.31,4.6-6.07,4.6Z"></path>
  <path d="m384.19,292.59c-2.24,0-4.41-1.2-5.55-3.3-24.43-45.08-71.42-73.08-122.64-73.08s-98.12,27.95-122.57,72.95c-1.66,3.06-5.49,4.19-8.55,2.53-3.06-1.66-4.19-5.49-2.53-8.55,26.65-49.06,77.87-79.54,133.65-79.54s107.09,30.53,133.72,79.68c1.66,3.06.52,6.89-2.54,8.55-.95.52-1.98.76-3,.76Z"></path>
  <path d="m144.62,362.59c-1.44,0-2.88-.49-4.06-1.49-2.66-2.25-3-6.22-.75-8.89,23.53-27.88,56.23-46.38,92.06-52.1,3.44-.55,6.67,1.79,7.22,5.23.55,3.44-1.79,6.67-5.23,7.22-32.85,5.24-62.83,22.21-84.42,47.78-1.25,1.48-3.03,2.24-4.82,2.24Z"></path>
  <path d="m367.43,362.65c-1.79,0-3.58-.76-4.82-2.24-21.59-25.6-51.58-42.59-84.46-47.84-3.44-.55-5.78-3.78-5.23-7.22.55-3.44,3.78-5.79,7.22-5.23,35.86,5.73,68.58,24.25,92.11,52.16,2.24,2.66,1.91,6.64-.76,8.88-1.18,1-2.63,1.49-4.06,1.49Z"></path>
  <path d="m163.34,422.88c-1.82,0-3.62-.78-4.87-2.29-2.22-2.69-1.84-6.66.85-8.88,17.08-14.09,36.54-24.08,57.85-29.7,3.36-.89,6.82,1.12,7.7,4.49.89,3.37-1.12,6.82-4.49,7.7-19.53,5.15-37.37,14.31-53.03,27.23-1.17.97-2.6,1.44-4.01,1.44Z"></path>
  <path d="m348.66,422.88c-1.41,0-2.83-.47-4.01-1.44-15.66-12.92-33.5-22.08-53.03-27.23-3.37-.89-5.38-4.34-4.49-7.7.89-3.37,4.34-5.38,7.7-4.49,21.31,5.61,40.77,15.61,57.84,29.7,2.69,2.22,3.07,6.19.85,8.88-1.25,1.51-3.05,2.29-4.87,2.29Z"></path>
  <path d="m256,304.57c-3.48,0-6.3-2.82-6.3-6.3V52.3c0-3.48,2.82-6.3,6.3-6.3s6.3,2.82,6.3,6.3v245.96c0,3.48-2.82,6.3-6.3,6.3Z"></path>
</symbol><symbol id="i064_food-12" xmlns="http://www.w3.org/2000/svg" viewBox="0 0 512 512">
  <path d="m191.04,400.77h-115.17c-5.51,0-9.99-4.48-9.99-9.99V121.22c0-5.51,4.48-9.99,9.99-9.99h115.17c5.51,0,9.99,4.48,9.99,9.99v269.56c0,5.51-4.48,9.99-9.99,9.99Zm-112.55-12.61h109.94V123.84h-109.94v264.33Z"></path>
  <path d="m159.81,123.84h-52.71c-3.48,0-6.3-2.82-6.3-6.3v-62.29c0-5.1,4.15-9.24,9.24-9.24h46.84c5.1,0,9.24,4.15,9.24,9.24v62.29c0,3.48-2.82,6.3-6.3,6.3Zm-46.4-12.61h40.1v-52.62h-40.1v52.62Z"></path>
  <path d="m156.87,466h-46.84c-5.1,0-9.24-4.15-9.24-9.24v-62.29c0-3.48,2.82-6.3,6.3-6.3h52.71c3.48,0,6.3,2.82,6.3,6.3v62.29c0,5.1-4.15,9.24-9.24,9.24Zm-43.47-12.61h40.1v-52.62h-40.1v52.62Z"></path>
  <path d="m313.58,400.77h-115.17c-5.51,0-9.99-4.48-9.99-9.99V121.22c0-5.51,4.48-9.99,9.99-9.99h115.17c5.51,0,9.99,4.48,9.99,9.99v269.56c0,5.51-4.48,9.99-9.99,9.99Zm-112.55-12.61h109.94V123.84h-109.94v264.33Z"></path>
  <path d="m282.35,123.84h-52.71c-3.48,0-6.3-2.82-6.3-6.3v-62.29c0-5.1,4.15-9.24,9.24-9.24h46.84c5.1,0,9.24,4.15,9.24,9.24v62.29c0,3.48-2.82,6.3-6.3,6.3Zm-46.4-12.61h40.1v-52.62h-40.1v52.62Z"></path>
  <path d="m279.42,466h-46.84c-5.1,0-9.24-4.15-9.24-9.24v-62.29c0-3.48,2.82-6.3,6.3-6.3h52.71c3.48,0,6.3,2.82,6.3,6.3v62.29c0,5.1-4.15,9.24-9.24,9.24Zm-43.47-12.61h40.1v-52.62h-40.1v52.62Z"></path>
  <path d="m436.13,400.77h-115.17c-5.51,0-9.99-4.48-9.99-9.99V121.22c0-5.51,4.48-9.99,9.99-9.99h115.17c5.51,0,9.99,4.48,9.99,9.99v269.56c0,5.51-4.48,9.99-9.99,9.99Zm-112.55-12.61h109.94V123.84h-109.94v264.33Z"></path>
  <path d="m404.9,123.84h-52.71c-3.48,0-6.3-2.82-6.3-6.3v-62.29c0-5.1,4.15-9.24,9.24-9.24h46.84c5.1,0,9.24,4.15,9.24,9.24v62.29c0,3.48-2.82,6.3-6.3,6.3Zm-46.4-12.61h40.1v-52.62h-40.1v52.62Z"></path>
  <path d="m401.96,466h-46.84c-5.1,0-9.24-4.15-9.24-9.24v-62.29c0-3.48,2.82-6.3,6.3-6.3h52.71c3.48,0,6.3,2.82,6.3,6.3v62.29c0,5.1-4.15,9.24-9.24,9.24Zm-43.47-12.61h40.1v-52.62h-40.1v52.62Z"></path>
  <path d="m107.1,260.11c-3.48,0-6.3-2.82-6.3-6.3v-77.09c0-3.48,2.82-6.3,6.3-6.3s6.3,2.82,6.3,6.3v77.09c0,3.48-2.82,6.3-6.3,6.3Z"></path>
  <path d="m404.9,347.08c-3.48,0-6.3-2.82-6.3-6.3v-77.09c0-3.48,2.82-6.3,6.3-6.3s6.3,2.82,6.3,6.3v77.09c0,3.48-2.82,6.3-6.3,6.3Z"></path>
  <path d="m229.65,339.72c-3.48,0-6.3-2.82-6.3-6.3v-34.92c0-3.48,2.82-6.3,6.3-6.3s6.3,2.82,6.3,6.3v34.92c0,3.48-2.82,6.3-6.3,6.3Z"></path>
</symbol><symbol id="i064_food-13" xmlns="http://www.w3.org/2000/svg" viewBox="0 0 512 512">
  <path d="m304.77,318.66c-1.27,0-2.53-.06-3.74-.17-14.72-1.47-28.17-11.34-37.92-27.79-9.3-15.69-14.42-36.11-14.42-57.48s5.52-43.33,15.53-59.27c10.6-16.85,25-26.13,40.55-26.13,13.89,0,27.14,7.59,37.29,21.38,9.49,12.83,15.88,30.41,17.98,49.49.54,4.6.81,9.37.81,14.52,0,11.94-1.58,23.51-4.69,34.39-8.81,31.01-28.98,51.06-51.39,51.06Zm0-158.24c-11.06,0-21.67,7.19-29.87,20.24-8.77,13.95-13.6,32.61-13.6,52.55s4.5,37.28,12.66,51.05c7.65,12.91,17.7,20.61,28.3,21.67.78.07,1.64.11,2.52.11,16.62,0,32.03-16.45,39.26-41.91,2.8-9.76,4.21-20.16,4.21-30.93,0-4.66-.24-8.94-.73-13.1-1.86-16.95-7.4-32.35-15.59-43.43-7.73-10.49-17.37-16.26-27.15-16.26Z"></path>
  <path d="m304.75,318.66h-132.19c-37.2,0-67.46-38.33-67.46-85.45s30.26-85.39,67.46-85.39h132.19c3.48,0,6.3,2.82,6.3,6.3s-2.82,6.3-6.3,6.3c-11.05,0-21.65,7.18-29.86,20.23-8.78,13.95-13.61,32.61-13.61,52.56s4.83,38.65,13.61,52.6c8.21,13.05,18.81,20.23,29.86,20.23,3.48,0,6.3,2.82,6.3,6.3s-2.82,6.3-6.3,6.3Zm-132.19-158.23c-30.24,0-54.85,32.65-54.85,72.78s24.61,72.84,54.85,72.84h102.62c-3.97-3.73-7.65-8.26-10.96-13.52-10.02-15.94-15.55-37.01-15.55-59.32s5.52-43.34,15.55-59.27c3.31-5.26,6.99-9.78,10.96-13.51h-102.61Z"></path>
  <path d="m75.65,261.61c-2.44,0-4.9-.59-7.14-1.79-4.93-2.64-8-7.75-8-13.34v-26.52c0-5.59,3.06-10.71,8-13.34,4.93-2.64,10.88-2.35,15.54.76l30.86,20.6c1.75,1.17,2.8,3.14,2.8,5.24s-1.05,4.07-2.8,5.24l-30.86,20.6c-2.54,1.69-5.46,2.55-8.4,2.55Zm.02-44.19c-.51,0-.93.17-1.21.31-.5.27-1.33.91-1.33,2.22v26.52c0,1.31.83,1.96,1.33,2.22.5.27,1.5.6,2.59-.13l23-15.36-23-15.35c-.49-.33-.96-.44-1.38-.44Z"></path>
  <path d="m457.29,364.18H54.71c-4.8,0-8.71-3.91-8.71-8.71v-40.71c0-4.8,3.91-8.71,8.71-8.71h402.58c4.8,0,8.71,3.91,8.71,8.71v40.71c0,4.8-3.91,8.71-8.71,8.71Zm-398.68-12.61h394.78v-32.91H58.61v32.91Z"></path>
  <path d="m408.97,318.66h-104.2c-3.48,0-6.3-2.82-6.3-6.3s2.82-6.3,6.3-6.3c16.62,0,32.03-16.45,39.26-41.91.77-2.71,3.25-4.58,6.07-4.58h58.87c7.89,0,15.32,3.08,20.91,8.67,5.59,5.59,8.67,13.01,8.67,20.91,0,16.28-13.27,29.53-29.57,29.53Zm-74.74-12.61h74.74c9.35,0,16.96-7.59,16.96-16.92,0-4.52-1.77-8.78-4.97-11.99-3.21-3.21-7.47-4.97-11.99-4.97h-54.22c-4.71,14.19-11.88,25.81-20.53,33.88Z"></path>
  <path d="m304.77,318.66h-3.14c-3.48,0-6.3-2.82-6.3-6.3v-.14c0-1.78.75-3.47,2.06-4.66,1.31-1.19,3.07-1.78,4.84-1.61.81.08,1.67.12,2.55.12,3.48,0,6.3,2.82,6.3,6.3s-2.82,6.3-6.3,6.3Z"></path>
  <path d="m424.55,272.17h-74.45c-1.98,0-3.84-.93-5.03-2.51s-1.57-3.63-1.03-5.53c2.79-9.75,4.21-20.15,4.21-30.92,0-4.66-.24-8.94-.73-13.1-.21-1.79.35-3.58,1.55-4.93,1.2-1.35,2.91-2.12,4.71-2.12h70.77c7.86,0,15.27,3.08,20.86,8.67,5.59,5.59,8.67,13.01,8.67,20.91,0,16.28-13.24,29.53-29.52,29.53Zm-66.39-12.61h66.39c9.33,0,16.91-7.59,16.91-16.92,0-4.52-1.77-8.78-4.97-11.99s-7.45-4.97-11.94-4.97h-63.9c.14,2.44.21,4.93.21,7.53,0,9.04-.91,17.87-2.7,26.35Z"></path>
  <path d="m408.97,225.68h-55.2c-3.22,0-5.92-2.42-6.27-5.62-1.86-16.9-7.39-32.3-15.59-43.38-1.42-1.91-1.63-4.46-.56-6.59s3.25-3.47,5.63-3.47h71.98c7.89,0,15.32,3.08,20.91,8.67,5.58,5.52,8.67,12.93,8.67,20.86,0,16.28-13.27,29.53-29.57,29.53Zm-49.68-12.61h49.68c9.35,0,16.96-7.59,16.96-16.92,0-4.53-1.76-8.76-4.95-11.92-3.23-3.23-7.49-5-12.02-5h-60.61c5.24,9.86,9,21.45,10.93,33.83Z"></path>
  <path d="m293.72,243.13c-9.55,0-17.33-7.77-17.33-17.33s7.77-17.33,17.33-17.33,17.33,7.77,17.33,17.33-7.77,17.33-17.33,17.33Zm0-22.04c-2.6,0-4.72,2.12-4.72,4.72s2.12,4.72,4.72,4.72,4.72-2.12,4.72-4.72-2.12-4.72-4.72-4.72Z"></path>
  <path d="m331.43,251.77c-2.64,0-5.1-1.67-5.98-4.31l-3.63-10.88c-1.1-3.3.68-6.87,3.99-7.98,3.3-1.1,6.87.68,7.98,3.99l3.63,10.88c1.1,3.3-.68,6.87-3.99,7.98-.66.22-1.33.33-1.99.33Z"></path>
  <path d="m295.45,290.58c-1.41,0-2.83-.47-4-1.43-2.69-2.21-3.08-6.18-.87-8.87l6.18-7.52c2.21-2.69,6.18-3.08,8.87-.87,2.69,2.21,3.08,6.18.87,8.87l-6.18,7.52c-1.25,1.52-3.05,2.3-4.87,2.3Z"></path>
  <path d="m306.34,198.16c-1.41,0-2.83-.47-4-1.43-2.69-2.21-3.08-6.18-.87-8.87l6.18-7.52c2.21-2.69,6.18-3.08,8.87-.87,2.69,2.21,3.08,6.18.87,8.87l-6.18,7.52c-1.25,1.52-3.05,2.3-4.87,2.3Z"></path>
  <path d="m176.75,195.84h-55.17c-3.48,0-6.3-2.82-6.3-6.3s2.82-6.3,6.3-6.3h55.17c3.48,0,6.3,2.82,6.3,6.3s-2.82,6.3-6.3,6.3Z"></path>
  <path d="m264.84,286.83h-49.76c-3.48,0-6.3-2.82-6.3-6.3s2.82-6.3,6.3-6.3h49.76c3.48,0,6.3,2.82,6.3,6.3s-2.82,6.3-6.3,6.3Z"></path>
</symbol><symbol id="i064_food-14" xmlns="http://www.w3.org/2000/svg" viewBox="0 0 512 512">
  <path d="m101.35,293.39c-2.05,0-4-1-5.19-2.72-21.14-30.58-37.64-65.82-45.28-96.68-9.84-39.76-4.77-70.99,14.67-90.31,19.23-19.11,50.4-23.91,90.15-13.87,30.97,7.82,66.19,24.47,96.63,45.66,2.05,1.42,3.06,3.92,2.59,6.37l-2.92,15.11c-.49,2.54-2.49,4.53-5.03,5l-31.93,5.97-6.15,31.88c-.49,2.54-2.49,4.53-5.03,5.01l-31.92,5.96-6.14,31.87c-.49,2.54-2.49,4.53-5.04,5.01l-31.9,5.95-6.14,31.87c-.49,2.54-2.49,4.53-5.04,5.01l-15.18,2.83c-.39.07-.77.11-1.16.11Zm16.77-196.24c-17.32,0-32.62,4.48-43.67,15.47-36.56,36.34-2.92,118.69,29.8,167.51l6.91-1.29,6.14-31.87c.49-2.55,2.49-4.53,5.04-5.01l31.9-5.95,6.14-31.87c.49-2.54,2.49-4.53,5.03-5.01l31.92-5.96,6.15-31.87c.49-2.54,2.49-4.53,5.03-5l31.93-5.97,1.32-6.83c-33.92-22.89-84.04-46.36-123.64-46.36Z"></path>
  <path d="m371.84,303.63c-1.34,0-2.67-.43-3.78-1.26-1.71-1.28-2.66-3.34-2.51-5.47l.75-11.12-29.34-13.88c-2.34-1.11-3.77-3.54-3.59-6.12l2.18-32.38-29.34-13.88c-2.34-1.11-3.77-3.54-3.59-6.12l2.17-32.4-29.34-13.89c-2.34-1.11-3.77-3.54-3.59-6.12l2.17-32.41-10.03-4.75c-1.93-.91-3.26-2.74-3.55-4.85-.29-2.11.52-4.23,2.13-5.62,11.09-9.55,22.03-17.58,31.64-23.22,26.28-15.42,56.98-19.69,86.47-12.02,29.49,7.67,54.22,26.37,69.64,52.64,31.84,54.24,13.62,124.27-40.62,156.11-9.64,5.66-21.98,11.32-35.68,16.37-.71.26-1.45.39-2.18.39Zm-25.6-41.29l29.34,13.88c2.34,1.11,3.77,3.54,3.59,6.12l-.37,5.52c9.32-3.81,17.68-7.85,24.52-11.87,23.37-13.72,40-35.72,46.82-61.94,6.82-26.23,3.03-53.54-10.69-76.91-13.72-23.37-35.72-40-61.94-46.82-26.23-6.82-53.54-3.03-76.91,10.69-6.82,4-14.41,9.34-22.28,15.65l4.98,2.36c2.34,1.11,3.77,3.54,3.59,6.12l-2.17,32.41,29.34,13.89c2.34,1.11,3.77,3.54,3.59,6.12l-2.17,32.4,29.34,13.88c2.34,1.11,3.77,3.54,3.59,6.12l-2.18,32.38Z"></path>
  <path d="m256.35,437.61c-49.63,0-90-40.38-90-90,0-4.44-.2-9.5-.41-14.86-.94-23.99-2.1-53.84,12.86-68.13,4.89-4.67,48.81-45.64,84.35-45.64,21.64,0,34.77,21.92,45.31,39.54,4.75,7.93,9.23,15.42,13.55,19.55,15.47,14.78,24.34,40.13,24.34,69.54,0,49.63-40.38,90-90.01,90Zm6.8-206.02c-24.87,0-59.25,26.49-75.64,42.14-10.85,10.36-9.81,37.06-8.97,58.52.21,5.49.42,10.67.42,15.35,0,42.67,34.72,77.39,77.39,77.39s77.39-34.72,77.39-77.39c0-25.61-7.64-48.19-20.44-60.42-5.55-5.3-10.46-13.51-15.66-22.19-9.37-15.66-20-33.41-34.49-33.41Z"></path>
  <path d="m256.35,391.86c-24.4,0-44.25-19.85-44.25-44.25s19.85-44.25,44.25-44.25,44.25,19.85,44.25,44.25-19.85,44.25-44.25,44.25Zm0-75.89c-17.45,0-31.64,14.19-31.64,31.64s14.19,31.64,31.64,31.64,31.64-14.19,31.64-31.64-14.19-31.64-31.64-31.64Z"></path>
</symbol><symbol id="i064_food-15" xmlns="http://www.w3.org/2000/svg" viewBox="0 0 512 512">
  <path d="m408.12,168.03H103.88c-8.75,0-15.87-7.12-15.87-15.87v-67.17c0-8.75,7.12-15.87,15.87-15.87h304.24c8.75,0,15.87,7.12,15.87,15.87v67.17c0,8.75-7.12,15.87-15.87,15.87ZM103.88,81.72c-1.8,0-3.26,1.46-3.26,3.26v67.17c0,1.8,1.46,3.26,3.26,3.26h304.24c1.8,0,3.26-1.46,3.26-3.26v-67.17c0-1.8-1.46-3.26-3.26-3.26H103.88Z"></path>
  <path d="m450.31,145.24c-3.1,0-6.19-.92-8.86-2.75l-27.33-18.72c-1.72-1.18-2.74-3.12-2.74-5.2s1.03-4.03,2.74-5.2l27.33-18.72c4.82-3.3,11.01-3.66,16.18-.93,5.16,2.72,8.37,8.04,8.37,13.87v21.96c0,5.84-3.21,11.15-8.37,13.87-2.3,1.21-4.82,1.82-7.32,1.82Zm-21.47-26.67l19.73,13.51c1.38.95,2.68.44,3.17.18.49-.26,1.64-1.05,1.64-2.72v-21.96c0-1.67-1.15-2.46-1.64-2.72-.49-.26-1.79-.76-3.17.18l-19.73,13.52Z"></path>
  <path d="m61.69,145.24c-2.5,0-5.01-.6-7.32-1.82-5.16-2.72-8.37-8.04-8.37-13.87v-21.96c0-5.84,3.21-11.15,8.37-13.87,5.16-2.72,11.36-2.36,16.18.93l27.33,18.72c1.72,1.18,2.74,3.12,2.74,5.2s-1.03,4.03-2.74,5.2l-27.33,18.72c-2.67,1.83-5.76,2.75-8.86,2.75Zm.02-40.74c-.66,0-1.19.22-1.46.37-.49.26-1.64,1.05-1.64,2.72v21.96c0,1.67,1.15,2.46,1.64,2.72.49.26,1.79.76,3.17-.18l19.73-13.51-19.73-13.52c-.61-.42-1.2-.55-1.71-.55Z"></path>
  <path d="m170.54,116.82c-2.11,0-4.16-1.05-5.36-2.97l-21.87-35.1c-1.84-2.96-.94-6.84,2.02-8.69,2.95-1.84,6.84-.94,8.69,2.02l21.87,35.1c1.84,2.96.94,6.84-2.02,8.69-1.04.65-2.19.95-3.33.95Z"></path>
  <path d="m234.81,116.82c-2.11,0-4.16-1.05-5.36-2.97l-21.87-35.1c-1.84-2.96-.94-6.84,2.02-8.69,2.95-1.84,6.84-.94,8.69,2.02l21.87,35.1c1.84,2.96.94,6.84-2.02,8.69-1.04.65-2.19.95-3.33.95Z"></path>
  <path d="m299.07,116.82c-2.11,0-4.16-1.05-5.36-2.97l-21.87-35.1c-1.84-2.96-.94-6.84,2.02-8.69s6.84-.94,8.69,2.02l21.87,35.1c1.84,2.96.94,6.84-2.02,8.69-1.04.65-2.19.95-3.33.95Z"></path>
  <path d="m363.34,116.82c-2.11,0-4.16-1.05-5.36-2.97l-21.87-35.1c-1.84-2.96-.94-6.84,2.02-8.69,2.95-1.84,6.84-.94,8.69,2.02l21.87,35.1c1.84,2.96.94,6.84-2.02,8.69-1.04.65-2.19.95-3.33.95Z"></path>
  <path d="m278.84,442.89h-45.68c-7.06,0-12.81-5.75-12.81-12.81v-169.64c0-3.48,2.82-6.3,6.3-6.3h58.69c3.48,0,6.3,2.82,6.3,6.3v169.64c0,7.06-5.75,12.81-12.81,12.81Zm-45.88-176.15v163.34c0,.11.09.2.2.2h45.68c.11,0,.2-.09.2-.2v-163.34h-46.08Z"></path>
  <path d="m342.7,229.31h-173.39c-7.07,0-12.83-5.75-12.83-12.83v-54.76c0-3.48,2.82-6.3,6.3-6.3h186.43c3.48,0,6.3,2.82,6.3,6.3v54.76c0,7.07-5.75,12.83-12.83,12.83Zm-173.61-61.28v48.46c0,.12.1.22.22.22h173.39c.12,0,.22-.1.22-.22v-48.46h-173.82Z"></path>
  <path d="m269.81,266.74h-27.62c-3.48,0-6.3-2.82-6.3-6.3v-37.43c0-3.48,2.82-6.3,6.3-6.3h27.62c3.48,0,6.3,2.82,6.3,6.3v37.43c0,3.48-2.82,6.3-6.3,6.3Zm-21.31-12.61h15.01v-24.82h-15.01v24.82Z"></path>
  <path d="m285.35,301.99h-58.69c-3.48,0-6.3-2.82-6.3-6.3s2.82-6.3,6.3-6.3h58.69c3.48,0,6.3,2.82,6.3,6.3s-2.82,6.3-6.3,6.3Z"></path>
</symbol><symbol id="i064_food-16" xmlns="http://www.w3.org/2000/svg" viewBox="0 0 512 512">
  <path d="m256,432.05c-77.33,0-143.17-50.12-166.76-119.57-.89.48-1.91.75-2.99.75h-33.95c-3.48,0-6.3-2.82-6.3-6.3v-101.85c0-3.48,2.82-6.3,6.3-6.3h33.95c1.06,0,2.06.26,2.93.72,5.93-17.48,14.65-34.02,26.01-49.13,2.09-2.78,6.04-3.34,8.83-1.25,2.78,2.09,3.34,6.04,1.25,8.83-21.4,28.47-32.72,62.38-32.72,98.06,0,90.12,73.32,163.44,163.44,163.44s163.44-73.32,163.44-163.44-73.32-163.44-163.44-163.44c-26.95,0-53.67,6.71-77.27,19.4-3.07,1.65-6.89.5-8.54-2.57-1.65-3.07-.5-6.89,2.57-8.54,25.43-13.67,54.22-20.9,83.24-20.9,77.33,0,143.17,50.12,166.76,119.57.89-.48,1.91-.75,2.99-.75h33.95c3.48,0,6.3,2.82,6.3,6.3v101.85c0,3.48-2.82,6.3-6.3,6.3h-33.95c-1.08,0-2.1-.27-2.99-.75-23.59,69.45-89.43,119.57-166.76,119.57Zm176.05-131.43h21.34v-89.24h-21.34v89.24Zm-373.44,0h21.34v-89.24h-21.34v89.24Zm197.39,97.48c-78.35,0-142.1-63.75-142.1-142.1s63.75-142.1,142.1-142.1,142.1,63.75,142.1,142.1-63.75,142.1-142.1,142.1Zm0-271.59c-71.4,0-129.49,58.09-129.49,129.49s58.09,129.49,129.49,129.49,129.49-58.09,129.49-129.49-58.09-129.49-129.49-129.49Zm-18.62,237.64c-3.48,0-6.3-2.82-6.3-6.3v-28.04c0-3.48,2.82-6.3,6.3-6.3s6.3,2.82,6.3,6.3v28.04c0,3.48-2.82,6.3-6.3,6.3Zm44.09-14.02c-2.34,0-4.59-1.31-5.68-3.55-1.52-3.13-.21-6.9,2.92-8.42l16.75-8.13c3.13-1.52,6.91-.21,8.42,2.92,1.52,3.13.21,6.9-2.92,8.42l-16.75,8.13c-.89.43-1.82.63-2.75.63Zm49.78-8.13c-2.93,0-5.55-2.05-6.17-5.03l-7.35-35.63c-.7-3.41,1.49-6.75,4.9-7.45,3.41-.7,6.75,1.49,7.45,4.9l7.35,35.63c.7,3.41-1.49,6.75-4.9,7.45-.43.09-.86.13-1.28.13Zm-131.11,0c-1.26,0-2.54-.38-3.65-1.17l-16.58-11.8c-2.84-2.02-3.5-5.95-1.48-8.79,2.02-2.84,5.96-3.5,8.79-1.48l16.59,11.8c2.84,2.02,3.5,5.95,1.48,8.79-1.23,1.73-3.17,2.65-5.14,2.65Zm37.26-35.63c-.41,0-.83-.04-1.24-.12-3.41-.68-5.63-4-4.95-7.42l4.35-21.73c.68-3.41,4-5.63,7.42-4.95,3.41.68,5.63,4,4.95,7.42l-4.35,21.73c-.6,3-3.23,5.07-6.18,5.07Zm52.56,0c-1.1,0-2.21-.29-3.22-.89l-16.97-10.12c-2.99-1.78-3.97-5.65-2.19-8.64,1.78-2.99,5.65-3.97,8.64-2.19l16.97,10.12c2.99,1.78,3.97,5.65,2.19,8.64-1.18,1.98-3.27,3.08-5.42,3.08Zm-89.8,0c-.32,0-.64-.02-.96-.07l-33.15-5.06c-3.44-.53-5.81-3.74-5.28-7.18.53-3.44,3.75-5.81,7.18-5.28l33.15,5.06c3.44.53,5.81,3.74,5.28,7.18-.48,3.12-3.16,5.35-6.23,5.35Zm143.26-10.12c-1.84,0-3.67-.81-4.92-2.35-2.18-2.71-1.75-6.68.96-8.86l14.45-11.61c2.71-2.18,6.68-1.75,8.86.96,2.18,2.71,1.75,6.68-.96,8.86l-14.45,11.61c-1.16.94-2.56,1.39-3.95,1.39Zm-131.24-11.61c-1.53,0-3.07-.56-4.29-1.68l-24.07-22.34c-2.55-2.37-2.7-6.36-.33-8.91,2.37-2.55,6.36-2.7,8.91-.33l24.07,22.34c2.55,2.37,2.7,6.36.33,8.91-1.24,1.34-2.93,2.02-4.62,2.02Zm103.43-11.17c-.09,0-.18,0-.26,0-3.48-.14-6.18-3.08-6.04-6.56l.86-20.98c.14-3.48,3.09-6.18,6.56-6.04,3.48.14,6.18,3.08,6.04,6.56l-.86,20.98c-.14,3.39-2.93,6.05-6.29,6.05Zm-161.45-11.17c-1.35,0-2.71-.43-3.86-1.33-2.75-2.14-3.25-6.1-1.11-8.85l7.62-9.81c2.14-2.75,6.1-3.25,8.85-1.11,2.75,2.14,3.25,6.1,1.11,8.85l-7.62,9.81c-1.24,1.6-3.1,2.44-4.98,2.44Zm135.81-4.91c-.3,0-.6-.02-.91-.07l-33.95-4.91c-3.45-.5-5.84-3.7-5.34-7.14.5-3.45,3.7-5.83,7.14-5.34l33.95,4.91c3.45.5,5.84,3.7,5.34,7.14-.45,3.14-3.15,5.4-6.23,5.4Zm54.33-4.91c-3.48,0-6.3-2.82-6.3-6.3v-24.14c0-3.48,2.82-6.3,6.3-6.3s6.3,2.82,6.3,6.3v24.14c0,3.48-2.82,6.3-6.3,6.3Zm-132.11-12.07c-.78,0-1.58-.15-2.35-.46-3.23-1.3-4.8-4.97-3.5-8.2l9.88-24.56c1.3-3.23,4.97-4.8,8.2-3.5,3.23,1.3,4.8,4.97,3.5,8.2l-9.88,24.56c-.99,2.46-3.35,3.95-5.85,3.95Zm-24.07-20.1c-.67,0-1.36-.11-2.03-.34l-26.33-8.95c-3.3-1.12-5.06-4.7-3.94-8,1.12-3.3,4.7-5.06,8-3.94l26.33,8.95c3.3,1.12,5.06,4.7,3.94,8-.89,2.62-3.34,4.28-5.97,4.28Zm80.56,0c-2.46,0-4.8-1.45-5.82-3.86-1.35-3.21.16-6.91,3.37-8.25l21.29-8.95c3.21-1.35,6.91.16,8.26,3.37,1.35,3.21-.16,6.91-3.37,8.25l-21.29,8.95c-.8.34-1.63.49-2.44.49Zm42.58-35.63c-.93,0-1.87-.21-2.77-.64l-21.3-10.42c-3.13-1.53-4.42-5.31-2.89-8.43,1.53-3.13,5.31-4.42,8.43-2.89l21.3,10.42c3.13,1.53,4.42,5.31,2.89,8.43-1.09,2.24-3.34,3.54-5.67,3.54Zm-89.2-10.42c-2.76,0-5.3-1.83-6.07-4.62-.93-3.35,1.03-6.83,4.39-7.76l18.81-5.23c3.36-.93,6.83,1.03,7.76,4.39s-1.03,6.83-4.39,7.76l-18.81,5.23c-.56.16-1.13.23-1.69.23Zm-80.78-37.02c-1.7,0-3.39-.68-4.64-2.03-2.36-2.56-2.2-6.55.36-8.91,4.13-3.81,8.62-7.54,13.36-11.11,2.78-2.09,6.73-1.54,8.83,1.25,2.09,2.78,1.54,6.73-1.25,8.83-4.41,3.32-8.58,6.79-12.4,10.31-1.21,1.12-2.74,1.67-4.27,1.67Z"></path>
</symbol><symbol id="i064_food-17" xmlns="http://www.w3.org/2000/svg" viewBox="0 0 512 512">
  <path d="m374.82,398.1h-84.87c-3.48,0-6.3-2.82-6.3-6.3s2.82-6.3,6.3-6.3h84.87c43.32,0,78.57-35.25,78.57-78.57,0-3.46-.23-6.87-.66-10.22-16.33,20.66-45.52,33.5-77.9,33.5h-186.72c-32.43,0-64.14-8.51-89.29-23.97-17.03-10.47-30.6-23.79-39.7-38.73,5.84,66.04,61.46,118,128.99,118h33.95c3.48,0,6.3,2.82,6.3,6.3s-2.82,6.3-6.3,6.3h-33.95c-78.36,0-142.1-63.75-142.1-142.1S109.75,113.9,188.1,113.9c48.42,0,93.06,24.34,119.43,65.11,14.95,22.6,40.11,36.13,67.29,36.13,1.01,0,1.95.23,2.8.65,48.96,1.5,88.38,41.92,88.38,91.14s-40.9,91.18-91.18,91.18ZM59.74,238.85c.74.74,1.3,1.66,1.6,2.74,12.48,44.04,65.79,76.01,126.76,76.01h186.72c32.35,0,61.87-14.9,73.46-37.08.1-.19.21-.37.32-.55-10.99-29.89-39.69-51.4-73.28-51.61h-.5c-1.01,0-1.95-.23-2.8-.65-30.34-.9-58.24-16.38-75.05-41.79-24.07-37.22-64.76-59.4-108.88-59.4-65.59,0-119.95,49.02-128.36,112.34Zm200.5,159.25h-8.49c-3.48,0-6.3-2.82-6.3-6.3s2.82-6.3,6.3-6.3h8.49c3.48,0,6.3,2.82,6.3,6.3s-2.82,6.3-6.3,6.3Zm-91.71-135.8c-25.15,0-45.62-20.46-45.62-45.62s20.46-45.6,45.62-45.6,45.62,20.46,45.62,45.6-20.46,45.62-45.62,45.62Zm0-78.61c-18.2,0-33.01,14.8-33.01,32.99s14.81,33.01,33.01,33.01,33.01-14.81,33.01-33.01-14.81-32.99-33.01-32.99Z"></path>
</symbol><symbol id="i064_food-18" xmlns="http://www.w3.org/2000/svg" viewBox="0 0 512 512">
  <path d="m171.15,424.66c-2.66,0-5.15-1.03-7.03-2.91l-73.86-73.86c-3.87-3.88-3.87-10.18,0-14.06l73.86-73.86c3.88-3.88,10.19-3.88,14.06,0l73.86,73.86c3.88,3.88,3.88,10.19,0,14.06l-73.86,73.86c-1.88,1.88-4.38,2.91-7.03,2.91Zm1.89-11.83h0,0Zm-71.98-71.98l70.09,70.09,70.09-70.09-70.09-70.09-70.09,70.09Z"></path>
  <path d="m295.91,299.9c-2.66,0-5.15-1.03-7.03-2.91l-73.86-73.86c-3.88-3.88-3.88-10.18,0-14.06l73.86-73.86c1.88-1.88,4.38-2.91,7.03-2.91s5.15,1.03,7.03,2.91l73.86,73.86c3.88,3.88,3.88,10.18,0,14.06l-73.86,73.86c-1.88,1.88-4.37,2.91-7.03,2.91Zm-70.09-83.8l70.09,70.09,70.09-70.09-70.09-70.09-70.09,70.09Z"></path>
  <path d="m268.67,357.74c-2.54,0-4.93-.99-6.73-2.79l-104.89-104.89c-1.8-1.8-2.79-4.19-2.79-6.73s.99-4.93,2.79-6.73l37.91-37.91c1.8-1.8,4.19-2.79,6.73-2.79s4.93.99,6.73,2.79l104.89,104.89c1.8,1.8,2.79,4.19,2.79,6.73s-.99,4.93-2.79,6.73l-37.91,37.91c-1.8,1.8-4.19,2.79-6.73,2.79Zm-100.51-114.4l100.51,100.51,33.53-33.53-100.51-100.51-33.53,33.53Zm136.24,69.17h.01-.01Z"></path>
  <path d="m390.12,235.67c-2.93,0-5.69-1.14-7.77-3.22l-102.81-102.81c-2.07-2.07-3.22-4.83-3.22-7.77s1.14-5.69,3.22-7.77l35.84-35.84c2.07-2.07,4.83-3.22,7.77-3.22s5.69,1.14,7.77,3.22l102.81,102.81c4.28,4.28,4.28,11.25,0,15.53l-35.84,35.84c-2.07,2.07-4.83,3.22-7.77,3.22Zm-100.51-113.8l100.51,100.51,33.53-33.53-100.51-100.51-33.53,33.53Zm135.2,68.13h0,0Z"></path>
  <path d="m406.34,152.22c-11.93,0-23.86-4.54-32.94-13.62-8.8-8.8-13.64-20.49-13.64-32.94s4.84-24.14,13.64-32.94c18.16-18.16,47.71-18.16,65.87,0,8.8,8.8,13.64,20.49,13.64,32.94s-4.84,24.14-13.64,32.94c-9.08,9.08-21.01,13.62-32.94,13.62Zm0-80.52c-9.07,0-17.6,3.53-24.02,9.95-6.42,6.42-9.95,14.95-9.95,24.02s3.53,17.6,9.95,24.02c6.42,6.42,14.95,9.95,24.02,9.95s17.6-3.53,24.02-9.95h0c6.41-6.42,9.95-14.95,9.95-24.02s-3.53-17.6-9.95-24.02c-6.41-6.42-14.95-9.95-24.02-9.95Z"></path>
  <path d="m434.81,83.49c-1.61,0-3.23-.62-4.46-1.85-2.46-2.46-2.46-6.45,0-8.92l24.88-24.88c2.46-2.46,6.46-2.46,8.92,0,2.46,2.46,2.46,6.45,0,8.92l-24.88,24.88c-1.23,1.23-2.85,1.85-4.46,1.85Z"></path>
  <path d="m80.05,466c-8.72,0-17.45-3.32-24.09-9.96-13.28-13.28-13.28-34.9,0-48.18,2.46-2.46,6.46-2.46,8.92,0s2.46,6.45,0,8.92c-8.37,8.37-8.37,21.98,0,30.35,8.37,8.37,21.98,8.37,30.35,0,8.37-8.37,8.37-21.98,0-30.35-2.46-2.46-2.46-6.45,0-8.92l31.95-31.95c2.46-2.46,6.45-2.46,8.92,0,2.46,2.46,2.46,6.45,0,8.92l-27.91,27.91c9.06,13.26,7.72,31.55-4.04,43.31-6.64,6.64-15.37,9.96-24.09,9.96Z"></path>
</symbol><symbol id="i064_food-19" xmlns="http://www.w3.org/2000/svg" viewBox="0 0 512 512">
  <path d="m408.77,381.13h-118.82c-3.48,0-6.3-2.82-6.3-6.3s2.82-6.3,6.3-6.3h118.82c13.08,0,24.06-9.12,26.92-21.34H76.31c2.86,12.21,13.84,21.34,26.92,21.34h118.82c3.48,0,6.3,2.82,6.3,6.3s-2.82,6.3-6.3,6.3h-118.82c-20.05,0-36.73-14.74-39.76-33.95h-11.16c-3.48,0-6.3-2.82-6.3-6.3s2.82-6.3,6.3-6.3h27.64v-27.64c0-23.23,4.51-45.9,13.4-67.37,8.89-21.47,21.73-40.68,38.16-57.11,16.43-16.43,35.64-29.27,57.11-38.16,21.47-8.89,44.14-13.4,67.37-13.4s45.9,4.51,67.37,13.4c21.47,8.89,40.69,21.73,57.11,38.16,16.43,16.43,29.27,35.64,38.16,57.11,8.89,21.47,13.4,44.14,13.4,67.37v27.64h27.64c3.48,0,6.3,2.82,6.3,6.3s-2.82,6.3-6.3,6.3h-11.16c-3.03,19.21-19.71,33.95-39.76,33.95Zm-10.67-46.56h12.42l-12.42-12.42v12.42Zm-271.59,0h258.98v-21.89c0-35.49-13.85-70.23-38.01-95.3-24.45-25.38-56.94-39.35-91.49-39.35s-67.04,13.98-91.48,39.35c-24.15,25.07-38.01,59.81-38.01,95.3v21.89Zm-33.95,0h21.34v-21.89c0-1.04.01-2.08.03-3.11l-20.42-20.42c-.63,5.86-.95,11.8-.95,17.78v27.64Zm305.31-30.49l21.58,21.58v-18.73c0-18.13-2.93-35.81-8.57-52.5-1.15.4-2.43.47-3.69.13l-23.28-6.24c8.12,17.29,12.89,36.16,13.97,55.76Zm-302.2-29.1c1.19.23,2.32.81,3.23,1.73l16.26,16.26c2.4-18.66,8.18-36.49,17.05-52.71l-8.04-29.98c-14.2,19.29-23.89,41.29-28.5,64.7Zm279.92-41.94l30.11,8.07c-8.06-18.32-19.55-35.17-34.13-49.75-2.52-2.52-5.1-4.94-7.76-7.28-.79.89-1.84,1.57-3.08,1.9l-23.02,6.17c6.66,4.87,12.97,10.38,18.85,16.48,7.24,7.51,13.59,15.69,19.02,24.4Zm-242.43-33.92c.89.79,1.57,1.84,1.9,3.08l6.28,23.45c4.24-5.97,8.95-11.66,14.1-17,8.18-8.5,17.19-15.83,26.84-21.92l7.9-29.49c-18.32,8.06-35.17,19.55-49.75,34.13-2.52,2.52-4.94,5.1-7.28,7.75Zm136.78-33c18.89,1.89,36.99,7.62,53.44,16.83l29.28-7.85c-19.29-14.2-41.29-23.89-64.7-28.5-.23,1.18-.81,2.31-1.73,3.23l-16.29,16.29Zm-66.44-14.05c.4,1.15.47,2.43.13,3.69l-6.06,22.6c17.16-8.03,35.85-12.45,55.19-12.9l21.02-21.02c-5.86-.63-11.8-.95-17.78-.95-18.13,0-35.81,2.93-52.5,8.57Zm56.75,229.07h-8.49c-3.48,0-6.3-2.82-6.3-6.3s2.82-6.3,6.3-6.3h8.49c3.48,0,6.3,2.82,6.3,6.3s-2.82,6.3-6.3,6.3Z"></path>
</symbol><symbol id="i064_food-2" xmlns="http://www.w3.org/2000/svg" viewBox="0 0 512 512">
  <path d="m179.58,46c-34.28,0-62.18,27.89-62.18,62.18v295.64c0,34.28,27.89,62.18,62.18,62.18s62.18-27.89,62.18-62.18V108.18c0-34.29-27.89-62.18-62.18-62.18Zm0,15.19c22.2,0,40.82,15.5,45.7,36.23-18.29-.7-59.52.72-92.69,23.01v-12.26c0-25.91,21.08-46.99,46.99-46.99Zm46.99,305.76c-17.62-.79-60.07.18-93.98,22.97v-65.64c2.4.11,5.26.2,8.55.2,20.42,0,56.09-3.25,85.43-22.81v65.27Zm-79.83-57.86c22.44-12.85,48.46-16.19,66.02-16.77-22.44,12.85-48.46,16.19-66.02,16.77Zm79.83-31.97c-17.62-.79-60.07.18-93.98,22.97v-65.64c2.4.11,5.26.2,8.55.2,20.42,0,56.09-3.25,85.43-22.81v65.27Zm-79.84-57.85c22.44-12.85,48.45-16.19,66.02-16.77-22.44,12.85-48.45,16.19-66.02,16.77Zm79.84-31.97c-17.62-.79-60.07.18-93.98,22.97v-65.64c2.4.11,5.26.2,8.55.2,20.42,0,56.09-3.25,85.43-22.81v65.28Zm-79.84-57.86c22.44-12.86,48.46-16.19,66.03-16.77-22.44,12.85-48.46,16.19-66.03,16.77Zm66.03,252.72c-22.44,12.86-48.46,16.19-66.03,16.77,22.44-12.86,48.46-16.19,66.03-16.77Zm-33.18,68.66c-22.35,0-41.08-15.7-45.8-36.65,2.15.09,4.6.15,7.36.15,20.42,0,56.09-3.25,85.43-22.81v12.32c0,25.91-21.08,46.99-46.99,46.99Z"></path>
  <path d="m341.91,461.21c29.05,0,52.68-23.64,52.68-52.69v-244.23c0-29.05-23.64-52.69-52.68-52.69s-52.69,23.63-52.69,52.69v244.23c0,29.05,23.64,52.69,52.69,52.69Zm-37.5-271.18c1.69.07,3.58.11,5.7.11,16.58,0,45.16-2.76,69.29-18.75v53.94c-15.07-.57-47.84.72-74.99,18.86v-54.16Zm14.63-15.47c15.65-8.48,32.9-11.45,46-12.3-15.65,8.48-32.9,11.45-46,12.3Zm45.99,66.26c-15.65,8.48-32.9,11.45-45.99,12.3,15.65-8.47,32.9-11.45,45.99-12.3Zm-60.62,27.77c1.69.07,3.58.11,5.7.11,16.58,0,45.16-2.76,69.29-18.75v53.95c-15.07-.57-47.84.71-74.99,18.85v-54.16Zm60.61,50.79c-15.64,8.47-32.89,11.45-45.98,12.3,15.64-8.47,32.89-11.45,45.98-12.3Zm-60.61,27.77c1.69.07,3.58.11,5.7.11,16.58,0,45.16-2.76,69.29-18.75v53.95c-15.07-.57-47.84.72-74.99,18.86v-54.16Zm60.61,50.79c-15.63,8.46-32.87,11.44-45.96,12.29,15.63-8.46,32.87-11.44,45.96-12.29Zm-23.11,48.09c-14.42,0-26.81-8.27-33.09-20.23.46,0,.82.02,1.29.02,16.58,0,45.16-2.76,69.29-18.75v1.46c0,20.68-16.82,37.5-37.5,37.5Zm0-319.22c14.28,0,26.57,8.11,32.9,19.89-16.48-.1-45.75,2.48-70.4,18.95v-1.34c0-20.68,16.82-37.5,37.5-37.5Z"></path>
</symbol><symbol id="i064_food-20" xmlns="http://www.w3.org/2000/svg" viewBox="0 0 512 512">
  <path d="m230.34,135.65h-86.15c-5.89,0-10.68-4.79-10.68-10.68v-37.21c0-5.89,4.79-10.68,10.68-10.68h86.15c5.89,0,10.68,4.79,10.68,10.68v37.21c0,5.89-4.79,10.68-10.68,10.68Zm-82.54-14.29h78.93v-29.99h-78.93v29.99Z"></path>
  <path d="m230.34,245.18h-86.15c-5.89,0-10.68-4.79-10.68-10.68v-37.21c0-5.89,4.79-10.68,10.68-10.68h86.15c5.89,0,10.68,4.79,10.68,10.68v37.21c0,5.89-4.79,10.68-10.68,10.68Zm-82.54-14.29h78.93v-29.99h-78.93v29.99Z"></path>
  <path d="m230.34,354.72h-86.15c-5.89,0-10.68-4.79-10.68-10.68v-37.21c0-5.89,4.79-10.68,10.68-10.68h86.15c5.89,0,10.68,4.79,10.68,10.68v37.21c0,5.89-4.79,10.68-10.68,10.68Zm-82.54-14.29h78.93v-29.99h-78.93v29.99Z"></path>
  <path d="m187.26,200.9c-21.93,0-39.77-17.84-39.77-39.77s17.84-39.77,39.77-39.77,39.78,17.84,39.78,39.77-17.84,39.77-39.78,39.77Zm0-65.25c-14.05,0-25.48,11.43-25.48,25.48s11.43,25.48,25.48,25.48,25.48-11.43,25.48-25.48-11.43-25.48-25.48-25.48Z"></path>
  <path d="m187.26,310.44c-21.93,0-39.77-17.84-39.77-39.77s17.84-39.78,39.77-39.78,39.78,17.84,39.78,39.78-17.84,39.77-39.78,39.77Zm0-65.25c-14.05,0-25.48,11.43-25.48,25.48s11.43,25.48,25.48,25.48,25.48-11.43,25.48-25.48-11.43-25.48-25.48-25.48Z"></path>
  <path d="m187.26,91.37c-3.95,0-7.15-3.2-7.15-7.15v-31.07c0-3.95,3.2-7.15,7.15-7.15s7.15,3.2,7.15,7.15v31.07c0,3.95-3.2,7.15-7.15,7.15Z"></path>
  <path d="m187.26,414.92c-3.95,0-7.15-3.2-7.15-7.15v-60.21c0-3.95,3.2-7.15,7.15-7.15s7.15,3.2,7.15,7.15v60.21c0,3.95-3.2,7.15-7.15,7.15Z"></path>
  <path d="m187.26,466c-18.02,0-32.68-14.66-32.68-32.68s14.66-32.69,32.68-32.69,32.69,14.66,32.69,32.69-14.66,32.68-32.69,32.68Zm0-51.08c-10.14,0-18.39,8.25-18.39,18.39s8.25,18.39,18.39,18.39,18.39-8.25,18.39-18.39-8.25-18.39-18.39-18.39Z"></path>
  <path d="m367.81,135.65h-86.15c-5.89,0-10.68-4.79-10.68-10.68v-37.21c0-5.89,4.79-10.68,10.68-10.68h86.15c5.89,0,10.68,4.79,10.68,10.68v37.21c0,5.89-4.79,10.68-10.68,10.68Zm-82.54-14.29h78.93v-29.99h-78.93v29.99Z"></path>
  <path d="m367.81,245.18h-86.15c-5.89,0-10.68-4.79-10.68-10.68v-37.21c0-5.89,4.79-10.68,10.68-10.68h86.15c5.89,0,10.68,4.79,10.68,10.68v37.21c0,5.89-4.79,10.68-10.68,10.68Zm-82.54-14.29h78.93v-29.99h-78.93v29.99Z"></path>
  <path d="m367.81,354.72h-86.15c-5.89,0-10.68-4.79-10.68-10.68v-37.21c0-5.89,4.79-10.68,10.68-10.68h86.15c5.89,0,10.68,4.79,10.68,10.68v37.21c0,5.89-4.79,10.68-10.68,10.68Zm-82.54-14.29h78.93v-29.99h-78.93v29.99Z"></path>
  <path d="m324.74,200.9c-21.93,0-39.77-17.84-39.77-39.77s17.84-39.77,39.77-39.77,39.78,17.84,39.78,39.77-17.84,39.77-39.78,39.77Zm0-65.25c-14.05,0-25.48,11.43-25.48,25.48s11.43,25.48,25.48,25.48,25.48-11.43,25.48-25.48-11.43-25.48-25.48-25.48Z"></path>
  <path d="m324.74,310.44c-21.93,0-39.77-17.84-39.77-39.77s17.84-39.78,39.77-39.78,39.78,17.84,39.78,39.78-17.84,39.77-39.78,39.77Zm0-65.25c-14.05,0-25.48,11.43-25.48,25.48s11.43,25.48,25.48,25.48,25.48-11.43,25.48-25.48-11.43-25.48-25.48-25.48Z"></path>
  <path d="m324.74,91.37c-3.95,0-7.15-3.2-7.15-7.15v-31.07c0-3.95,3.2-7.15,7.15-7.15s7.15,3.2,7.15,7.15v31.07c0,3.95-3.2,7.15-7.15,7.15Z"></path>
  <path d="m324.74,414.92c-3.95,0-7.15-3.2-7.15-7.15v-60.21c0-3.95,3.2-7.15,7.15-7.15s7.15,3.2,7.15,7.15v60.21c0,3.95-3.2,7.15-7.15,7.15Z"></path>
  <path d="m324.74,466c-18.02,0-32.68-14.66-32.68-32.68s14.66-32.69,32.68-32.69,32.69,14.66,32.69,32.69-14.66,32.68-32.69,32.68Zm0-51.08c-10.14,0-18.39,8.25-18.39,18.39s8.25,18.39,18.39,18.39,18.39-8.25,18.39-18.39-8.25-18.39-18.39-18.39Z"></path>
</symbol><symbol id="i064_food-21" xmlns="http://www.w3.org/2000/svg" viewBox="0 0 512 512">
  <path d="m410.16,465.98H80.11c-9.91,0-18.43-5.69-22.22-14.85-3.79-9.16-1.8-19.2,5.21-26.21L424.94,63.09c7.01-7.01,17.05-9.01,26.21-5.21,9.16,3.79,14.85,12.31,14.85,22.22v330.04c0,30.79-25.05,55.84-55.84,55.84Zm31.66-397.38c-2.92,0-5.72,1.16-7.96,3.4L72.02,433.84c-3.38,3.39-4.31,8.05-2.48,12.47,1.83,4.42,5.78,7.06,10.57,7.06h330.04c23.84,0,43.23-19.39,43.23-43.23V80.1c0-4.79-2.64-8.74-7.06-10.57-1.5-.62-3.02-.92-4.51-.92Z"></path>
  <path d="m76.61,424.66c-1.41,0-2.82-.47-4-1.43-3.51-2.88-6.78-6.12-9.72-9.63-11.63-13.87-17.61-31.1-16.83-48.51.79-17.62,8.37-33.32,21.35-44.21,7.83-6.57,17.12-10.93,27.21-12.82-4.98-23.28,2.44-46.76,19.89-61.39,16.99-14.24,40.26-17.82,62.27-9.56,3.26,1.22,4.91,4.86,3.69,8.12-1.22,3.26-4.86,4.91-8.12,3.69-17.69-6.64-36.28-3.87-49.74,7.41-15.31,12.84-20.82,34.47-14.03,55.11.61,1.85.33,3.89-.77,5.5-1.1,1.62-2.88,2.64-4.83,2.76-10.29.65-19.79,4.39-27.47,10.83-10.24,8.59-16.23,21.06-16.85,35.11-.64,14.25,4.3,28.4,13.9,39.85,2.44,2.92,5.16,5.6,8.06,7.99,2.69,2.21,3.08,6.18.87,8.87-1.25,1.52-3.05,2.3-4.88,2.3Z"></path>
  <path d="m243.04,180.85c-2.55,0-4.95-1.56-5.9-4.09-8.26-22.01-4.69-45.28,9.56-62.27,14.64-17.45,38.11-24.86,61.39-19.89,1.89-10.08,6.25-19.38,12.81-27.21,22.34-26.63,63.93-28.66,92.72-4.52,3.51,2.95,6.75,6.22,9.63,9.72,2.21,2.69,1.82,6.66-.87,8.87-2.69,2.21-6.67,1.82-8.87-.87-2.38-2.9-5.07-5.61-7.99-8.06-23.46-19.68-57.08-18.35-74.95,2.96-6.44,7.68-10.19,17.18-10.83,27.47-.12,1.95-1.14,3.73-2.76,4.83s-3.65,1.38-5.5.77c-20.64-6.79-42.27-1.28-55.11,14.03-11.28,13.45-14.05,32.05-7.41,49.74,1.22,3.26-.43,6.89-3.69,8.12-.73.27-1.48.4-2.22.4Z"></path>
  <path d="m168.25,335.01c-1.61,0-3.23-.62-4.46-1.85-11.91-11.91-18.46-27.74-18.46-44.58s6.56-32.67,18.46-44.58c24.58-24.58,64.57-24.58,89.15,0,2.46,2.46,2.46,6.45,0,8.92-2.46,2.46-6.45,2.46-8.92,0-19.66-19.66-51.66-19.66-71.32,0-9.53,9.52-14.77,22.19-14.77,35.66s5.25,26.13,14.77,35.66c2.46,2.46,2.46,6.45,0,8.92-1.23,1.23-2.84,1.85-4.46,1.85Z"></path>
  <path d="m248.48,254.77c-1.61,0-3.23-.62-4.46-1.85-11.91-11.91-18.46-27.74-18.46-44.58s6.56-32.67,18.46-44.58c24.58-24.58,64.57-24.58,89.15,0,2.46,2.46,2.46,6.45,0,8.92-2.46,2.46-6.45,2.46-8.92,0-19.66-19.66-51.66-19.66-71.32,0-9.53,9.52-14.77,22.19-14.77,35.66s5.25,26.13,14.77,35.66c2.46,2.46,2.46,6.45,0,8.92-1.23,1.23-2.84,1.85-4.46,1.85Z"></path>
  <path d="m386.09,392.38c-1.61,0-3.23-.62-4.46-1.85l-89.13-89.13c-2.46-2.46-2.46-6.45,0-8.92,2.46-2.46,6.45-2.46,8.92,0l89.13,89.13c2.46,2.46,2.46,6.45,0,8.92-1.23,1.23-2.84,1.85-4.46,1.85Z"></path>
  <path d="m279.57,402.48c-1.61,0-3.23-.62-4.46-1.85l-49.28-49.28c-2.46-2.46-2.46-6.45,0-8.92,2.46-2.46,6.45-2.46,8.92,0l49.28,49.28c2.46,2.46,2.46,6.45,0,8.92-1.23,1.23-2.84,1.85-4.46,1.85Z"></path>
  <path d="m181.5,421.02c-1.61,0-3.23-.62-4.46-1.85l-19.39-19.39c-2.46-2.46-2.46-6.45,0-8.92,2.46-2.46,6.45-2.46,8.92,0l19.39,19.39c2.46,2.46,2.46,6.45,0,8.92-1.23,1.23-2.84,1.85-4.46,1.85Z"></path>
  <path d="m396.19,285.86c-1.61,0-3.23-.62-4.46-1.85l-49.28-49.28c-2.46-2.46-2.46-6.45,0-8.92,2.46-2.46,6.45-2.46,8.92,0l49.28,49.28c2.46,2.46,2.46,6.45,0,8.92-1.23,1.23-2.84,1.85-4.46,1.85Z"></path>
  <path d="m414.74,187.79c-1.61,0-3.23-.62-4.46-1.85l-19.39-19.39c-2.46-2.46-2.46-6.45,0-8.92,2.46-2.46,6.45-2.46,8.92,0l19.39,19.39c2.46,2.46,2.46,6.45,0,8.92-1.23,1.23-2.84,1.85-4.46,1.85Z"></path>
</symbol><symbol id="i064_food-22" xmlns="http://www.w3.org/2000/svg" viewBox="0 0 512 512">
  <path d="m55.35,205.99l-6.1-11.04,233.64-129.05c.93-.52,1.98-.79,3.05-.79,1.54,0,38.17.19,78.8,16.59,54.31,21.92,89.28,62.53,101.12,117.44l-12.33,2.66c-11.08-51.35-42.54-87.82-93.51-108.4-33.8-13.65-65.25-15.41-72.51-15.64L55.35,205.99Z"></path>
  <path d="m437.06,446.88H74.94c-15.96,0-28.94-12.98-28.94-28.94v-69.44c0-3.48,2.82-6.3,6.3-6.3,18.15,0,32.92-14.77,32.92-32.92s-14.77-32.92-32.92-32.92c-3.48,0-6.3-2.82-6.3-6.3v-69.58c0-3.48,2.82-6.3,6.3-6.3h407.39c3.48,0,6.3,2.82,6.3,6.3v42.02c0,1.79-.76,3.49-2.09,4.69-1.33,1.2-3.1,1.77-4.88,1.59-.5-.05-.99-.12-1.48-.18-.76-.1-1.42-.19-1.94-.19-18.15,0-32.92,14.77-32.92,32.92s14.77,32.92,32.92,32.92c.53,0,1.18-.09,1.94-.19.49-.07.98-.13,1.48-.18,1.78-.18,3.55.39,4.88,1.59,1.33,1.2,2.09,2.9,2.09,4.69v97.83c0,15.96-12.98,28.94-28.94,28.94ZM58.61,354.37v63.57c0,9,7.32,16.33,16.33,16.33h362.12c9,0,16.33-7.33,16.33-16.33v-91.17c-24.08-1.16-43.3-21.11-43.3-45.47s19.23-44.31,43.3-45.47v-29.05H58.61v57.41c22.13,3.08,39.22,22.13,39.22,45.09s-17.09,42.01-39.22,45.09Z"></path>
  <path d="m156.4,403.11c-18.84,0-34.16-15.32-34.16-34.16s15.32-34.16,34.16-34.16,34.16,15.32,34.16,34.16-15.32,34.16-34.16,34.16Zm0-55.71c-11.88,0-21.55,9.67-21.55,21.55s9.67,21.55,21.55,21.55,21.55-9.67,21.55-21.55-9.67-21.55-21.55-21.55Z"></path>
  <path d="m354.08,378.31c-18.84,0-34.16-15.32-34.16-34.16s15.32-34.16,34.16-34.16,34.16,15.32,34.16,34.16-15.32,34.16-34.16,34.16Zm0-55.71c-11.88,0-21.55,9.67-21.55,21.55s9.67,21.55,21.55,21.55,21.55-9.67,21.55-21.55-9.67-21.55-21.55-21.55Z"></path>
  <path d="m261.47,305.08c-18.84,0-34.16-15.32-34.16-34.16s15.32-34.16,34.16-34.16,34.16,15.32,34.16,34.16-15.32,34.16-34.16,34.16Zm0-55.71c-11.88,0-21.55,9.67-21.55,21.55s9.67,21.55,21.55,21.55,21.55-9.67,21.55-21.55-9.67-21.55-21.55-21.55Z"></path>
  <path d="m408.6,165.75c-24,0-43.52-19.52-43.52-43.52,0-11.22,4.26-21.87,11.99-30l9.13,8.69c-5.49,5.77-8.51,13.34-8.51,21.31,0,17.04,13.87,30.91,30.91,30.91,9.17,0,17.82-4.04,23.71-11.08l9.67,8.1c-8.3,9.91-20.47,15.6-33.38,15.6Z"></path>
  <path d="m279.2,165.75c-14.34,0-26-11.66-26-26s11.66-26,26-26,26,11.66,26,26-11.66,26-26,26Zm0-39.39c-7.39,0-13.39,6.01-13.39,13.39s6.01,13.39,13.39,13.39,13.39-6.01,13.39-13.39-6.01-13.39-13.39-13.39Z"></path>
</symbol><symbol id="i064_food-3" xmlns="http://www.w3.org/2000/svg" viewBox="0 0 512 512">
  <path d="m115.74,247.65c-12.38,0-22.46,10.07-22.46,22.45s10.08,22.46,22.46,22.46,22.45-10.08,22.45-22.46-10.07-22.45-22.45-22.45Zm0,30.35c-4.35,0-7.89-3.54-7.89-7.89s3.54-7.89,7.89-7.89,7.89,3.53,7.89,7.89-3.53,7.89-7.89,7.89Z"></path>
  <path d="m462.35,189.15c-2.82-1.61-6.35-1.18-8.68,1.06l-72.71,69.87c-8.17-7.36-25.44-21.82-49.03-35.74l18.27-21.77c1.26-1.5,1.86-3.45,1.67-5.4-.19-1.96-1.17-3.75-2.7-4.97-37.21-29.73-97.48-32.15-100.03-32.24-2.04-.09-4.17.78-5.61,2.34l-25.43,27.58c-.32,0-.63-.02-.95-.02-92.45,0-165.93,72.01-169.01,75.08-1.37,1.37-2.15,3.22-2.15,5.16s.78,3.8,2.15,5.16c3.08,3.07,76.56,75.08,169.01,75.08,79.69,0,145.25-53.48,163.8-70.21l72.71,69.87c1.39,1.34,3.21,2.03,5.04,2.03,1.24,0,2.5-.32,3.63-.98,2.81-1.62,4.21-4.89,3.44-8.04l-17.79-72.93,17.79-72.92c.77-3.15-.63-6.42-3.44-8.04Zm-210.45-14.43c11.83.86,53.2,5.16,82.13,24.46l-15.06,17.95c-23.29-12.21-51.33-22.81-82.07-26.14l15-16.27Zm-99.87,42.16c8.21,14.72,29.34,61.11.27,106.58-42.64-15.72-75.59-42.21-88.25-53.34,12.63-11.11,45.47-37.5,87.98-53.23Zm65.12,118.91c-17.67,0-34.7-2.97-50.66-7.64,28.83-48.39,9.45-96.92-.49-115.93,16.1-4.76,33.31-7.78,51.15-7.78,72.43,0,134.54,49.35,153.1,65.68-18.56,16.32-80.68,65.68-153.1,65.68Zm216.28-63.95l12.28,50.32-54.17-52.05,54.17-52.05-12.28,50.32c-.28,1.14-.28,2.32,0,3.46Z"></path>
  <path d="m258.76,285.84l19.14,6.21-20.85,13.53c-3.38,2.19-4.34,6.7-2.15,10.07,1.39,2.16,3.73,3.32,6.12,3.32,1.36,0,2.73-.38,3.95-1.17l33.69-21.85c2.36-1.53,3.63-4.27,3.26-7.06-.36-2.78-2.3-5.11-4.97-5.97l-33.69-10.93c-3.85-1.25-7.94.86-9.17,4.68-1.25,3.83.85,7.94,4.68,9.17Z"></path>
</symbol><symbol id="i064_food-4" xmlns="http://www.w3.org/2000/svg" viewBox="0 0 512 512">
  <path d="m465.92,249.62l-.05-7.52c0-.14-.07-.24-.08-.38.24-15.27-4-29.65-12.88-42.91-36.33-54.31-141.76-75.43-185.4-81.99-92.2-13.84-151.61,11.38-176.52,75.06-8.29,7.62-43.15,41.64-44.86,76.7,0,.16-.09.29-.09.45l-.02,6.44c-.19,42.58-.4,90.82,79.43,107.34,47.47,9.82,98.67,16.06,146.6,16.06,93.56,0,174.66-23.77,191.29-91.06,2.79-11.31,2.79-35.96,2.58-58.18Zm-361.69-45.98c1.1-.96,1.94-2.18,2.46-3.54,17.28-46.08,56.06-69.29,115.56-69.29,13.2,0,27.42,1.13,42.64,3.43,41.33,6.21,140.95,25.88,173.38,74.35,9.73,14.54,12.34,30.18,7.97,47.84-20.74,83.88-174.26,91.56-317.24,61.98-37.94-7.85-59.59-21-64.33-39.08-7.21-27.45,26.11-63.94,39.56-75.68Zm24.78,161.92c-46.6-9.64-60.03-29.44-63.87-55.34,13.29,11.3,33.34,19.85,60.31,25.44,47.48,9.83,98.66,16.06,146.6,16.06,76.01,0,143.82-15.71,175.49-57.68-.31,3.88-.72,7.26-1.29,9.55-20.74,83.88-174.26,91.56-317.24,61.98Z"></path>
  <path d="m136.23,249.21c2.64,0,5.24-1.18,6.98-3.43l37.72-48.94c2.97-3.85,2.25-9.38-1.6-12.35-3.86-2.98-9.38-2.26-12.35,1.6l-37.72,48.94c-2.97,3.85-2.25,9.38,1.6,12.35,1.6,1.24,3.49,1.83,5.37,1.83Z"></path>
  <path d="m191.93,277.57c2.64,0,5.24-1.18,6.98-3.43l54.28-70.43c2.97-3.85,2.25-9.38-1.6-12.35-3.86-2.98-9.38-2.25-12.35,1.6l-54.28,70.43c-2.97,3.85-2.25,9.38,1.6,12.35,1.6,1.24,3.49,1.83,5.37,1.83Z"></path>
  <path d="m264.19,284.43c2.64,0,5.25-1.18,6.98-3.43l54.28-70.43c2.97-3.85,2.25-9.38-1.6-12.35-3.86-2.99-9.39-2.26-12.35,1.6l-54.29,70.43c-2.97,3.85-2.25,9.38,1.6,12.35,1.6,1.24,3.49,1.83,5.36,1.83Z"></path>
  <path d="m337.39,284.43c2.64,0,5.25-1.18,6.98-3.43l37.72-48.94c2.97-3.85,2.25-9.38-1.6-12.35-3.85-2.98-9.38-2.26-12.35,1.6l-37.72,48.94c-2.97,3.85-2.25,9.38,1.6,12.35,1.6,1.24,3.49,1.83,5.36,1.83Z"></path>
</symbol><symbol id="i064_food-5" xmlns="http://www.w3.org/2000/svg" viewBox="0 0 512 512">
  <path d="m327.91,48.6c-35.51-1.69-68.36,10.63-92.39,34.65-38.24,38.24-97.76,155.04-85.77,225.39l-48.62,48.62c-13.93-8.58-32.48-6.85-44.55,5.22-14.1,14.11-14.1,37.05,0,51.15,7.91,7.9,18.58,11.41,28.92,10.42-.95,10.34,2.52,21.03,10.42,28.92,6.83,6.83,15.91,10.59,25.56,10.59h0c9.66,0,18.74-3.76,25.57-10.6,9.98-9.97,13.06-24.76,8.39-37.75l50.44-50.45c70.41,12.05,187.15-47.52,225.38-85.77,49.39-49.39,45.66-133.47-8.31-187.43-26.03-26.04-59.79-41.29-95.05-42.96Zm-188.38,358.91c-2.68,2.68-3.22,6.82-1.31,10.1,4.46,7.66,3.24,17.34-2.97,23.54-7.36,7.37-20.18,7.36-27.54,0-7.59-7.59-7.59-19.95,0-27.54,1.63-1.63,2.45-3.77,2.45-5.9s-.81-4.27-2.45-5.9c-3.26-3.26-8.55-3.26-11.8,0-7.6,7.6-19.95,7.59-27.54,0-7.59-7.6-7.59-19.95,0-27.55,7.6-7.59,19.95-7.6,27.54,0,3.26,3.26,8.54,3.26,11.8,0l47.48-47.48c4.83,10.84,14.29,25.26,32.12,32.93l-47.79,47.79Zm279.93-140.32c-35.87,35.87-151.09,94.5-214.53,80.38-.09-.02-.17,0-.26-.02-.05,0-.08-.04-.13-.05-30.96-5.34-37.29-36.34-37.55-37.65,0-.03-.03-.06-.04-.09-.01-.06,0-.11-.02-.17-14.09-63.4,44.52-178.67,80.39-214.54,20.66-20.66,48.98-31.29,79.8-29.78,31.1,1.47,60.94,15,84.03,38.09,47.46,47.46,51.18,120.95,8.31,163.83Z"></path>
</symbol><symbol id="i064_food-6" xmlns="http://www.w3.org/2000/svg" viewBox="0 0 512 512">
  <path d="m224.59,120.32c2.56-3.68,4.08-7.76,4.08-12.15,0-14.18-14.84-25.62-35.03-28.12v-25.75c0-4.59-3.71-8.3-8.3-8.3s-8.3,3.71-8.3,8.3v25.75c-20.19,2.5-35.03,13.93-35.03,28.12,0,4.39,1.52,8.47,4.08,12.15-9.42.5-16.95,8.25-16.95,17.78v17.57c0,4.15,1.48,7.93,3.87,10.97-2.41,4.52-3.87,10.29-3.87,16.93v33.59c0,6.64,1.46,12.42,3.87,16.94-2.39,3.04-3.87,6.82-3.87,10.97v17.57c0,4.15,1.48,7.93,3.87,10.97-2.41,4.52-3.87,10.29-3.87,16.93v33.59c0,14.96,7.1,25.85,16.97,26.5-2.57,3.69-4.1,7.78-4.1,12.17,0,14.19,14.84,25.62,35.03,28.12v17.68c0,4.59,3.71,8.3,8.3,8.3,8.96,0,16.25,7.28,16.25,16.25s-7.29,16.25-16.25,16.25-16.25-7.28-16.25-16.25c0-4.59-3.71-8.3-8.3-8.3s-8.3,3.71-8.3,8.3c0,18.11,14.73,32.84,32.85,32.84s32.84-14.73,32.84-32.84c0-15.24-10.44-28.1-24.55-31.78v-10.44c20.19-2.5,35.03-13.93,35.03-28.12,0-4.4-1.53-8.49-4.1-12.17,9.88-.65,16.98-11.54,16.98-26.51v-33.59c0-6.64-1.46-12.41-3.87-16.93,2.39-3.04,3.87-6.82,3.87-10.97v-17.57c0-4.16-1.48-7.93-3.87-10.97,2.41-4.52,3.87-10.29,3.87-16.94v-33.59c0-6.64-1.46-12.41-3.87-16.93,2.39-3.04,3.87-6.82,3.87-10.97v-17.57c0-9.54-7.54-17.29-16.96-17.79Zm-39.24-24.21c16.31,0,26.73,7.14,26.73,12.06s-10.41,12.06-26.73,12.06-26.73-7.14-26.73-12.06,10.41-12.06,26.73-12.06Zm-39.6,41.99c0-.72.56-1.28,1.28-1.28h76.64c.72,0,1.28.56,1.28,1.28v17.57c0,.7-.57,1.28-1.28,1.28h-76.64c-.71,0-1.28-.58-1.28-1.28v-17.57Zm79.2,106.97v17.57c0,.71-.57,1.28-1.28,1.28h-76.64c-.71,0-1.28-.58-1.28-1.28v-17.57c0-.72.56-1.28,1.28-1.28h76.64c.72,0,1.28.56,1.28,1.28Zm0-27.91c0,5.41-1.52,8.82-2.41,10.03h-74.39c-.89-1.21-2.4-4.63-2.4-10.03v-33.59c0-5.4,1.52-8.81,2.4-10.02h74.39c.89,1.21,2.41,4.63,2.41,10.02v33.59Zm-39.6,157.71c-16.31,0-26.73-7.14-26.73-12.06s10.41-12.05,26.73-12.05,26.73,7.14,26.73,12.05-10.41,12.06-26.73,12.06Zm39.6-50.74c0,5.4-1.52,8.82-2.41,10.03h-74.39c-.89-1.21-2.4-4.63-2.4-10.03v-33.59c0-5.4,1.52-8.81,2.4-10.03h74.39c.89,1.22,2.41,4.63,2.41,10.03v33.59Z"></path>
  <path d="m365.89,120.32c2.56-3.68,4.08-7.77,4.08-12.15,0-14.18-14.84-25.62-35.03-28.12v-25.75c0-4.59-3.71-8.3-8.3-8.3s-8.3,3.71-8.3,8.3v25.75c-20.19,2.5-35.03,13.93-35.03,28.12,0,4.39,1.52,8.47,4.08,12.15-9.42.49-16.96,8.25-16.96,17.79v17.57c0,4.15,1.49,7.93,3.87,10.97-2.41,4.52-3.87,10.29-3.87,16.93v33.59c0,6.64,1.46,12.42,3.87,16.94-2.39,3.04-3.87,6.82-3.87,10.97v17.57c0,4.15,1.49,7.93,3.87,10.97-2.41,4.52-3.87,10.29-3.87,16.93v33.59c0,14.97,7.1,25.86,16.98,26.51-2.57,3.69-4.1,7.78-4.1,12.17,0,14.19,14.84,25.62,35.03,28.12v17.68c0,4.59,3.71,8.3,8.3,8.3,8.96,0,16.25,7.28,16.25,16.25s-7.28,16.25-16.25,16.25-16.25-7.28-16.25-16.25c0-4.59-3.71-8.3-8.3-8.3s-8.3,3.71-8.3,8.3c0,18.11,14.73,32.84,32.84,32.84s32.84-14.73,32.84-32.84c0-15.24-10.44-28.1-24.55-31.78v-10.44c20.19-2.5,35.03-13.93,35.03-28.12,0-4.4-1.53-8.49-4.1-12.17,9.87-.65,16.97-11.54,16.97-26.5v-33.59c0-6.64-1.46-12.41-3.87-16.93,2.39-3.04,3.87-6.82,3.87-10.97v-17.57c0-4.16-1.48-7.93-3.87-10.97,2.42-4.52,3.87-10.29,3.87-16.94v-33.59c0-6.64-1.46-12.41-3.87-16.93,2.39-3.04,3.87-6.82,3.87-10.97v-17.57c0-9.54-7.53-17.29-16.95-17.78Zm-39.24-24.21c16.31,0,26.73,7.14,26.73,12.06s-10.41,12.06-26.73,12.06-26.73-7.14-26.73-12.06,10.41-12.06,26.73-12.06Zm-39.6,41.99c0-.72.56-1.28,1.28-1.28h76.64c.72,0,1.28.56,1.28,1.28v17.57c0,.7-.58,1.28-1.28,1.28h-76.64c-.71,0-1.28-.58-1.28-1.28v-17.57Zm79.2,106.97v17.57c0,.71-.58,1.28-1.28,1.28h-76.64c-.71,0-1.28-.58-1.28-1.28v-17.57c0-.72.56-1.28,1.28-1.28h76.64c.72,0,1.28.56,1.28,1.28Zm0-27.91c0,5.41-1.52,8.82-2.41,10.03h-74.39c-.89-1.21-2.41-4.63-2.41-10.03v-33.59c0-5.4,1.52-8.81,2.41-10.02h74.39c.89,1.21,2.41,4.63,2.41,10.02v33.59Zm-39.6,157.71c-16.31,0-26.73-7.14-26.73-12.06s10.41-12.05,26.73-12.05,26.73,7.14,26.73,12.05-10.41,12.06-26.73,12.06Zm39.6-50.74c0,5.4-1.52,8.82-2.41,10.03h-74.39c-.89-1.21-2.41-4.63-2.41-10.03v-33.59c0-5.4,1.52-8.81,2.41-10.03h74.39c.89,1.22,2.41,4.63,2.41,10.03v33.59Z"></path>
</symbol><symbol id="i064_food-7" xmlns="http://www.w3.org/2000/svg" viewBox="0 0 512 512">
  <path d="m363.67,415.15c-9.75,0-17.44-10.68-22.85-31.73-4.6-17.91-7.13-41.61-7.13-66.74s2.53-48.84,7.13-66.74c5.41-21.06,13.1-31.73,22.85-31.73s17.44,10.68,22.85,31.73c4.6,17.91,7.13,41.61,7.13,66.74s-2.53,48.84-7.13,66.74c-5.41,21.06-13.1,31.73-22.85,31.73Zm0-184.34c-1.09.14-6.19,4.47-10.86,23.2-4.19,16.81-6.5,39.06-6.5,62.67s2.31,45.86,6.5,62.67c4.67,18.73,9.77,23.06,10.88,23.2,1.09-.14,6.19-4.47,10.86-23.2,4.19-16.81,6.5-39.06,6.5-62.67s-2.31-45.86-6.5-62.67c-4.67-18.72-9.77-23.06-10.88-23.2Z"></path>
  <path d="m363.67,415.15h-88.86c-22.01,0-42.98-9.46-57.55-25.95-12.18-13.78-29.71-21.69-48.1-21.69h-8.57c-23.29,0-42.24-18.95-42.24-42.24v-17.19c0-23.29,18.95-42.24,42.24-42.24h8.57c18.39,0,35.93-7.9,48.11-21.69,14.57-16.49,35.55-25.95,57.55-25.95h88.86c3.48,0,6.3,2.82,6.3,6.3s-2.82,6.3-6.3,6.3h-88.86c-18.39,0-35.93,7.9-48.1,21.69-14.57,16.49-35.55,25.95-57.56,25.95h-8.57c-16.34,0-29.63,13.29-29.63,29.63v17.19c0,16.34,13.29,29.63,29.63,29.63h8.57c22.01,0,42.98,9.46,57.55,25.95,12.18,13.78,29.71,21.69,48.1,21.69h88.86c3.48,0,6.3,2.82,6.3,6.3s-2.82,6.3-6.3,6.3Z"></path>
  <path d="m124.65,322.98H52.3c-3.48,0-6.3-2.82-6.3-6.3s2.82-6.3,6.3-6.3h72.35c3.48,0,6.3,2.82,6.3,6.3s-2.82,6.3-6.3,6.3Z"></path>
  <path d="m459.7,322.98h-72.34c-3.48,0-6.3-2.82-6.3-6.3s2.82-6.3,6.3-6.3h72.34c3.48,0,6.3,2.82,6.3,6.3s-2.82,6.3-6.3,6.3Z"></path>
  <path d="m68.72,358.89c-3.48,0-6.3-2.82-6.3-6.3v-71.83c0-3.48,2.82-6.3,6.3-6.3s6.3,2.82,6.3,6.3v71.83c0,3.48-2.82,6.3-6.3,6.3Z"></path>
  <path d="m444.3,358.89c-3.48,0-6.3-2.82-6.3-6.3v-71.83c0-3.48,2.82-6.3,6.3-6.3s6.3,2.82,6.3,6.3v71.83c0,3.48-2.82,6.3-6.3,6.3Z"></path>
  <path d="m344.11,271.06h-40.84c-3.48,0-6.3-2.82-6.3-6.3s2.82-6.3,6.3-6.3h40.84c3.48,0,6.3,2.82,6.3,6.3s-2.82,6.3-6.3,6.3Z"></path>
  <path d="m344.11,374.9h-73.25c-3.48,0-6.3-2.82-6.3-6.3s2.82-6.3,6.3-6.3h73.25c3.48,0,6.3,2.82,6.3,6.3s-2.82,6.3-6.3,6.3Z"></path>
  <path d="m320.49,200.1c-1.78,0-3.55-.75-4.8-2.21-16.77-19.66-8-37.19-.96-51.27,6.99-13.98,12.51-25.02.84-39.5-2.18-2.71-1.76-6.68.95-8.87,2.71-2.18,6.68-1.76,8.87.95,16.75,20.79,7.81,38.68.62,53.06-7.71,15.42-11.55,24.76-.73,37.45,2.26,2.65,1.94,6.63-.7,8.89-1.19,1.01-2.64,1.51-4.09,1.51Z"></path>
  <path d="m270.87,200.1c-1.78,0-3.55-.75-4.8-2.21-16.77-19.66-8-37.19-.96-51.27,6.99-13.98,12.51-25.02.84-39.5-2.18-2.71-1.76-6.68.95-8.87,2.71-2.18,6.68-1.76,8.87.95,16.75,20.79,7.81,38.68.62,53.06-7.71,15.42-11.55,24.76-.73,37.45,2.26,2.65,1.94,6.63-.7,8.89-1.19,1.01-2.64,1.51-4.09,1.51Z"></path>
  <path d="m221.24,200.1c-1.78,0-3.55-.75-4.8-2.21-16.77-19.66-8-37.19-.96-51.27,6.99-13.98,12.51-25.02.84-39.5-2.18-2.71-1.76-6.68.95-8.87,2.71-2.18,6.68-1.76,8.87.95,16.75,20.79,7.81,38.68.62,53.06-7.71,15.42-11.55,24.76-.73,37.45,2.26,2.65,1.94,6.63-.7,8.89-1.19,1.01-2.64,1.51-4.09,1.51Z"></path>
</symbol><symbol id="i064_food-8" xmlns="http://www.w3.org/2000/svg" viewBox="0 0 512 512">
  <path d="m258.09,304.43c-27.02,0-48.47-8.54-63.82-25.43-32.53-35.79-25.46-95.8-25.14-98.34.31-2.5,2.09-4.58,4.51-5.28,2.42-.7,5.03.11,6.63,2.07l69.85,85.38,81.95-85.74c1.68-1.76,4.23-2.39,6.54-1.63,2.31.77,3.98,2.79,4.27,5.21.3,2.41,6.95,59.51-22.79,95.64-13.9,16.88-33.38,26.32-57.9,28.05-.09,0-.17.01-.26.01-1.29.04-2.58.06-3.85.06Zm3.66-6.36h0,0Zm-80.8-99.87c.13,19.16,3.53,51.32,22.68,72.36,12.75,14,30.87,21.14,53.91,21.26l-12.67-15.49s-.02-.03-.04-.04l-63.89-78.09Zm77.21,74.46l14.42,17.62c15.65-3.15,28.31-10.5,37.75-21.95,17.95-21.77,20.76-53.68,20.72-71.93l-72.88,76.26Z"></path>
  <path d="m200.16,218.03c-2.9,0-5.52-2.02-6.16-4.97-3.12-14.41-4.7-29.68-4.7-45.38,0-31.82,6.54-61.83,18.41-84.5,12.55-23.97,29.7-37.17,48.29-37.17s35.74,13.2,48.29,37.17c11.87,22.68,18.41,52.69,18.41,84.5,0,13.61-1.2,26.97-3.56,39.71-.63,3.42-3.93,5.68-7.35,5.05-3.42-.64-5.68-3.93-5.05-7.35,2.22-11.98,3.35-24.56,3.35-37.41,0-59.12-24.77-109.07-54.09-109.07s-54.09,49.95-54.09,109.07c0,14.81,1.49,29.18,4.42,42.71.74,3.4-1.42,6.76-4.83,7.5-.45.1-.9.14-1.34.14Z"></path>
  <path d="m256,272.11c-3.48,0-6.3-2.82-6.3-6.3V52.3c0-3.48,2.82-6.3,6.3-6.3s6.3,2.82,6.3,6.3v213.5c0,3.48-2.82,6.3-6.3,6.3Z"></path>
  <path d="m305.43,107.7h-98.86c-3.48,0-6.3-2.82-6.3-6.3s2.82-6.3,6.3-6.3h98.86c3.48,0,6.3,2.82,6.3,6.3s-2.82,6.3-6.3,6.3Z"></path>
  <path d="m314.82,147.72h-117.63c-3.48,0-6.3-2.82-6.3-6.3s2.82-6.3,6.3-6.3h117.63c3.48,0,6.3,2.82,6.3,6.3s-2.82,6.3-6.3,6.3Z"></path>
  <path d="m315.96,187.75h-119.92c-3.48,0-6.3-2.82-6.3-6.3s2.82-6.3,6.3-6.3h119.92c3.48,0,6.3,2.82,6.3,6.3s-2.82,6.3-6.3,6.3Z"></path>
  <path d="m298.38,227.77h-90.24c-3.48,0-6.3-2.82-6.3-6.3s2.82-6.3,6.3-6.3h90.24c3.48,0,6.3,2.82,6.3,6.3s-2.82,6.3-6.3,6.3Z"></path>
  <path d="m256,337.98c-3.48,0-6.3-2.82-6.3-6.3v-33.59c0-3.48,2.82-6.3,6.3-6.3s6.3,2.82,6.3,6.3v33.59c0,3.48-2.82,6.3-6.3,6.3Z"></path>
  <path d="m277.12,369.44h-42.25c-2.84,0-5.32-1.89-6.08-4.62l-8.7-31.46c-.52-1.9-.13-3.93,1.06-5.5,1.19-1.57,3.05-2.49,5.02-2.49h59.65c1.97,0,3.82.92,5.02,2.49,1.19,1.57,1.58,3.6,1.06,5.5l-8.7,31.46c-.76,2.73-3.24,4.62-6.08,4.62Zm-37.45-12.61h32.65l5.21-18.85h-43.08l5.21,18.85Z"></path>
  <path d="m256,466c-8.45,0-16.32-3.36-22.16-9.47-5.84-6.11-8.85-14.12-8.47-22.56l3.2-71.11c.15-3.37,2.93-6.02,6.3-6.02h42.25c3.37,0,6.15,2.65,6.3,6.02l3.2,71.11c.38,8.44-2.63,16.46-8.47,22.56-5.84,6.11-13.71,9.47-22.16,9.47Zm-15.1-96.56l-2.93,65.09c-.22,4.97,1.55,9.69,4.98,13.28,3.44,3.6,8.07,5.58,13.04,5.58s9.61-1.98,13.04-5.58c3.44-3.6,5.21-8.31,4.98-13.28l-2.93-65.09h-30.19Z"></path>
</symbol><symbol id="i064_food-9" xmlns="http://www.w3.org/2000/svg" viewBox="0 0 512 512">
  <path d="m459.69,189.95c-.7,0-1.41-.12-2.1-.36L190.15,94.99c-19.69-6.96-41.78-1.75-56.28,13.26l-77.03,79.76c-2.42,2.5-6.41,2.58-8.92.16-2.5-2.42-2.57-6.41-.16-8.91l77.03-79.76c17.92-18.56,45.23-25,69.55-16.39l267.45,94.59c3.28,1.16,5,4.76,3.84,8.05-.92,2.59-3.35,4.2-5.94,4.2Z"></path>
  <path d="m143.18,380.02c-16.57,0-30.05-13.48-30.05-30.05s13.48-30.05,30.05-30.05,30.05,13.48,30.05,30.05-13.48,30.05-30.05,30.05Zm0-47.49c-9.62,0-17.44,7.82-17.44,17.44s7.82,17.44,17.44,17.44,17.44-7.82,17.44-17.44-7.82-17.44-17.44-17.44Z"></path>
  <path d="m418.45,432.66H93.54c-26.22,0-47.54-21.33-47.54-47.54v-88.37c0-3.48,2.82-6.3,6.3-6.3,17.06,0,30.94-13.88,30.94-30.94s-13.88-30.94-30.94-30.94c-3.48,0-6.3-2.82-6.3-6.3v-38.62c0-3.48,2.82-6.3,6.3-6.3h407.39c3.48,0,6.3,2.82,6.3,6.3v93.57c0,3.48-2.82,6.3-6.3,6.3-15.3,0-27.75,12.45-27.75,27.75s12.45,27.75,27.75,27.75c3.48,0,6.3,2.82,6.3,6.3v39.8c0,26.22-21.33,47.54-47.54,47.54ZM58.61,302.6v82.52c0,19.26,15.67,34.93,34.93,34.93h324.91c19.26,0,34.93-15.67,34.93-34.93v-33.99c-19.27-3.04-34.05-19.76-34.05-39.87s14.78-36.83,34.05-39.87v-81.45H58.61v26.47c21.03,3.06,37.24,21.22,37.24,43.09s-16.21,40.03-37.24,43.09Z"></path>
  <path d="m366.34,303.05c-16.57,0-30.05-13.48-30.05-30.05s13.48-30.05,30.05-30.05,30.05,13.48,30.05,30.05-13.48,30.05-30.05,30.05Zm0-47.49c-9.62,0-17.44,7.82-17.44,17.44s7.82,17.44,17.44,17.44,17.44-7.82,17.44-17.44-7.82-17.44-17.44-17.44Z"></path>
  <path d="m245.18,326.19c-24.98,0-45.3-20.32-45.3-45.3s20.32-45.3,45.3-45.3,45.3,20.32,45.3,45.3-20.32,45.3-45.3,45.3Zm0-78c-18.03,0-32.69,14.67-32.69,32.69s14.67,32.69,32.69,32.69,32.69-14.67,32.69-32.69-14.67-32.69-32.69-32.69Z"></path>
</symbol>
</svg>