<svg xmlns="http://www.w3.org/2000/svg" style="display: none;">

<symbol id="i112_other-1" xmlns="http://www.w3.org/2000/svg" viewBox="0 0 512 512">
  <path d="m256,466c-3.48,0-6.3-2.82-6.3-6.3v-29.51l-55.26-19.83c-6.63,15.89-19.73,28.35-36.25,34.11-7.6,2.65-15.43,5.38-21.58,7.52l-5.12,1.78c-6.57,2.3-13.88-.41-17.36-6.45l-.52-.89c-.52-.89-1.05-1.8-1.54-2.67-3.2-5.55-2.41-12.44,1.95-17.14l2.04-2.2c.63-.68,1.29-1.39,1.97-2.13-4.84,2.07-10.35,4.42-15.36,6.57l-10.69,4.57c-6.75,2.88-14.62.26-18.29-6.11l-.6-1.04c-.39-.67-.78-1.35-1.15-2-3.22-5.53-2.35-12.68,2.15-17.33l2.9-3c.43-.44.62-1.07.51-1.68-.11-.58-.51-1.12-1.07-1.4-2.31-1.11-4.85-2.34-7.45-3.6-2.6-1.26-5.26-2.55-7.81-3.78-11.58-5.59-17.56-18.66-14.23-31.08.04-.14.08-.28.13-.42,3.47-12.2,15.08-20.34,27.75-19.39,3.48.25,7.16.52,10.67.78l6.25.46c.61.04,1.22-.21,1.62-.69.39-.46.54-1.11.39-1.72l-1.01-4.01c-1.56-6.3,1.25-12.92,6.83-16.14.68-.39,1.34-.77,2-1.15l1.01-.59c6.36-3.67,14.49-2.01,18.9,3.87,4.76,6.35,11.57,15.44,16.98,22.66-.48-2.11-.92-4.07-1.31-5.76-1.44-6.2,1.32-12.57,6.88-15.8.61-.36,1.25-.72,1.9-1.09l1.64-.95c6.04-3.5,13.73-2.2,18.29,3.08,1.9,2.2,4.29,4.97,6.93,8.03,3.57,4.13,7.6,8.81,11.54,13.38,12.24,14.17,17.24,33.06,13.75,51.3l51.63,18.52v-72.7c-23.76-1.31-46.81-9.99-65.5-24.78-2.73-2.16-3.19-6.13-1.03-8.86,2.16-2.73,6.12-3.2,8.86-1.03,16.48,13.03,36.75,20.74,57.68,22.04V120.21c0-3.48,2.82-6.3,6.3-6.3s6.3,2.82,6.3,6.3v211.25c31.79-1.94,60.98-18.43,79-44.97l7.72-11.36c9.23-13.58,18.08-26.6,24.07-35.42,2.74-4.02,2.22-9.45-1.23-12.89l-5.77-5.77c-3.17-3.17-7.97-3.9-11.93-1.8-5.83,3.08-13.42,7.1-21.28,11.25l-14.97,7.92c-5.28,2.78-11.68,1.56-15.58-2.94-3.89-4.57-4.11-11.08-.57-15.87.05-.07.1-.13.15-.2l.14-.17c1.76-2.25,36.55-46.56,52.96-67.43,3.17-4.04,2.82-9.82-.81-13.46-1.59-1.57-3.23-3.21-4.79-4.78l-.13-.13c-3.19-3.19-8.17-3.89-12.11-1.71l-7.32,4.06c-6.36,3.53-14.1,3.79-20.7.7-6.6-3.1-11.35-9.21-12.7-16.35-1.04-5.45-2.19-11.5-3.37-17.67l-2.99-15.67c-3.11-16.34-17.45-28.2-34.09-28.2s-31.01,11.86-34.12,28.2c-.99,5.19-2.02,10.59-3.04,15.91-1.16,6.08-2.3,12.05-3.33,17.43-1.36,7.14-6.1,13.24-12.7,16.34-6.61,3.09-14.35,2.83-20.71-.7l-7.32-4.06c-3.93-2.18-8.91-1.48-12.1,1.71l-.24.24c-1.53,1.53-3.13,3.13-4.71,4.69-3.61,3.61-3.96,9.39-.78,13.44,16.03,20.39,51.24,65.23,53.01,67.49l.09.11c.05.06.1.12.14.19,3.54,4.79,3.32,11.3-.54,15.83-3.93,4.54-10.33,5.76-15.59,2.99l-36.25-19.17c-3.96-2.1-8.75-1.37-11.93,1.8l-5.77,5.77c-3.45,3.45-3.97,8.87-1.23,12.89l12.87,18.95c1.96,2.88,1.21,6.8-1.67,8.76-2.88,1.96-6.8,1.21-8.76-1.67l-12.87-18.94c-6.14-9.02-4.98-21.17,2.74-28.9l5.77-5.77c7.12-7.11,17.86-8.73,26.74-4.03l36.24,19.16s.1,0,.14-.04c0,0,0-.05-.01-.1h0c-1.59-2.05-35.9-45.74-53.02-67.52-7.11-9.06-6.34-22.03,1.8-30.17,1.58-1.56,3.17-3.15,4.68-4.67l.24-.24c7.15-7.15,18.31-8.72,27.14-3.82l7.32,4.06c2.84,1.58,6.29,1.69,9.24.31,2.94-1.38,5.06-4.1,5.66-7.28,1.02-5.39,2.17-11.35,3.33-17.44,1.01-5.31,2.05-10.71,3.04-15.9,4.24-22.28,23.79-38.45,46.47-38.45s42.26,16.17,46.51,38.45l2.99,15.66c1.18,6.17,2.34,12.22,3.37,17.68.6,3.18,2.72,5.9,5.67,7.29,2.94,1.38,6.39,1.26,9.23-.31l7.32-4.06c8.84-4.9,20-3.33,27.14,3.82l.13.13c1.55,1.55,3.18,3.18,4.77,4.75,8.16,8.16,8.94,21.13,1.83,30.19-17.45,22.19-51.37,65.39-52.98,67.46l-.05.07c-.02.05,0,.1.02.13,0,0,.08.02.12,0l14.95-7.91c7.86-4.16,15.45-8.17,21.28-11.25,8.88-4.7,19.62-3.08,26.74,4.03l5.77,5.77c7.73,7.73,8.88,19.88,2.74,28.9-5.99,8.82-14.84,21.84-24.07,35.42l-7.72,11.36c-20.38,29.99-53.46,48.56-89.43,50.51v72.7l51.63-18.52c-3.48-18.24,1.52-37.13,13.76-51.31,3.97-4.61,8.05-9.34,11.65-13.5,2.6-3.01,4.95-5.73,6.81-7.9,4.57-5.29,12.26-6.58,18.29-3.09l1.62.94c.65.37,1.3.75,1.92,1.11,5.56,3.23,8.32,9.6,6.88,15.84-.38,1.68-.82,3.63-1.3,5.73,5.56-7.42,12.53-16.72,16.98-22.66,4.41-5.89,12.54-7.55,18.91-3.87l1.06.61c.64.37,1.29.74,1.91,1.1,5.61,3.24,8.42,9.87,6.87,16.13l-1.03,4.09c-.14.57.01,1.22.41,1.69.39.46,1,.72,1.62.67l6.25-.46c3.51-.26,7.18-.53,10.66-.78,12.67-.94,24.27,7.2,27.74,19.4.05.14.09.27.13.41,3.33,12.42-2.66,25.49-14.23,31.07-2.54,1.23-5.19,2.51-7.78,3.76-2.61,1.27-5.17,2.5-7.48,3.62-.56.28-.97.81-1.08,1.44-.1.57.09,1.2.52,1.65l2.9,3c4.5,4.65,5.37,11.8,2.11,17.38-.37.65-.78,1.37-1.2,2.09l-.52.89c-3.68,6.37-11.54,8.99-18.29,6.11l-10.82-4.63c-4.97-2.12-10.43-4.46-15.24-6.51.61.66,1.2,1.29,1.76,1.9l2.25,2.43c4.36,4.69,5.15,11.58,1.94,17.14-.48.83-.99,1.71-1.5,2.59l-.57.98c-3.48,6.03-10.79,8.74-17.36,6.44l-4.11-1.43c-6.28-2.19-14.56-5.07-22.58-7.87-16.52-5.75-29.62-18.22-36.25-34.11l-55.26,19.83v29.51c0,3.48-2.82,6.3-6.3,6.3Zm-125.83-61.79c3.1,0,6.12,1.51,7.91,4.18,2.49,3.63,2.14,8.5-.89,11.78-3.96,4.26-8.41,9.06-11.9,12.83l-2.04,2.21c-.58.63-.69,1.54-.27,2.28.49.86,1.01,1.74,1.52,2.62l.53.91c.47.81,1.43,1.16,2.29.86l5.13-1.79c6.14-2.14,13.98-4.87,21.57-7.52,12.91-4.49,23.18-14.14,28.51-26.47l-64.47-23.13c-3.28-1.18-4.98-4.79-3.81-8.06s4.79-4.98,8.06-3.81l63.67,22.84c2.06-13.86-1.97-28.01-11.25-38.74-3.94-4.57-7.97-9.25-11.54-13.38-2.65-3.07-5.04-5.84-6.93-8.04-.6-.7-1.62-.87-2.42-.41l-1.68.97c-.62.36-1.24.71-1.84,1.06-.74.43-1.12,1.29-.93,2.09,1.2,5.29,2.99,13.18,4.55,20,1.01,4.34-1.11,8.75-5.15,10.69-3.97,1.91-8.81.79-11.54-2.65l-.04-.05s-.07-.09-.1-.13c-.87-1.14-17.69-23.58-25.77-34.38-.58-.78-1.66-1-2.51-.51l-1,.58c-.69.4-1.37.8-2.05,1.18-.7.41-1.07,1.29-.86,2.14l1.01,4.03c1.12,4.55,0,9.36-2.99,12.9-3.01,3.55-7.55,5.46-12.16,5.13l-6.27-.46c-3.51-.26-7.18-.53-10.67-.78-6.8-.51-13,3.9-14.76,10.48-.03.11-.06.21-.09.32-1.59,6.49,1.58,13.24,7.61,16.15,2.55,1.23,5.22,2.52,7.83,3.78,2.6,1.26,5.14,2.49,7.44,3.6,0,0,.01,0,.02.01,4.16,2.02,7.14,5.95,7.98,10.51.81,4.61-.63,9.33-3.85,12.67l-2.9,3.01c-.61.63-.73,1.54-.3,2.28.39.69.77,1.34,1.14,1.98l.61,1.05c.49.84,1.52,1.19,2.42.81l10.69-4.57c12.5-5.34,26.6-11.37,28.61-12.22.14-.07.29-.13.44-.19,1.12-.44,2.28-.65,3.44-.65Zm199.28,1.89c5.33,12.32,15.6,21.97,28.51,26.47,8.02,2.8,16.3,5.68,22.58,7.87l4.12,1.44c.87.3,1.83-.05,2.29-.85l.58-1c.49-.85.99-1.71,1.47-2.54.43-.75.33-1.66-.25-2.28l-2.26-2.44c-3.46-3.73-7.81-8.43-11.68-12.59-3.05-3.3-3.4-8.16-.87-11.85,2.42-3.61,7.19-5.09,11.31-3.48.15.06.29.12.43.19,1.98.84,16.03,6.84,28.48,12.17l10.82,4.62c.89.38,1.93.03,2.42-.82l.52-.91c.4-.69.8-1.39,1.19-2.06.46-.79.35-1.71-.26-2.33l-2.91-3.01c-3.23-3.35-4.67-8.07-3.86-12.64.84-4.59,3.82-8.52,7.98-10.55,0,0,.01,0,.02-.01,2.32-1.11,4.87-2.35,7.48-3.61,2.6-1.26,5.25-2.54,7.8-3.77,6.03-2.91,9.19-9.67,7.6-16.16-.03-.1-.06-.21-.09-.31-1.76-6.58-7.97-10.99-14.75-10.49-3.49.25-7.16.52-10.66.78l-6.27.46c-4.62.32-9.17-1.58-12.16-5.12-2.99-3.56-4.11-8.37-3.01-12.87l1.03-4.1c.2-.81-.17-1.7-.91-2.12-.62-.35-1.29-.74-1.96-1.13l-1.04-.6c-.85-.49-1.93-.27-2.52.51-8.09,10.8-24.91,33.25-25.77,34.37-.03.04-.07.09-.11.13l-.04.05c-2.73,3.44-7.58,4.56-11.55,2.65-4.04-1.94-6.15-6.34-5.14-10.7,1.56-6.8,3.35-14.69,4.54-19.94.19-.84-.19-1.7-.92-2.12-.6-.35-1.23-.71-1.86-1.07l-1.66-.96c-.79-.46-1.81-.29-2.42.41-1.86,2.16-4.21,4.88-6.82,7.9-3.59,4.16-7.67,8.88-11.65,13.5-9.28,10.74-13.31,24.89-11.25,38.75l63.67-22.84c3.28-1.18,6.89.53,8.06,3.81,1.18,3.28-.53,6.89-3.81,8.06l-64.47,23.13Zm-187.78-45.78s0,.01,0,.02c0,0,0-.01,0-.02Zm228.65-.02s0,.01,0,.02c0,0,0-.01,0-.02Zm-204.84-63.95c-2.01,0-3.99-.96-5.21-2.74-1.3-1.89-2.59-3.81-3.87-5.7-1.95-2.89-1.19-6.8,1.69-8.75,2.89-1.95,6.81-1.19,8.75,1.69,1.27,1.87,2.55,3.76,3.83,5.64,1.97,2.87,1.23,6.8-1.64,8.76-1.09.75-2.33,1.1-3.56,1.1Z"></path>
</symbol><symbol id="i112_other-10" xmlns="http://www.w3.org/2000/svg" viewBox="0 0 512 512">
  <path d="m381.15,505.94c-3.85,0-7.83-.07-11.91-.24-46.83-1.9-84.05-15.37-107.61-38.93-21.16-21.16-34.18-53.35-37.99-93.63-3.17,18.63-10.18,37.78-24.41,52-38.35,38.34-112.55,24.28-115.68,23.66-2.51-.49-4.48-2.46-4.97-4.97-.62-3.14-14.68-77.34,23.66-115.68,13.48-13.48,31.4-20.49,49.09-23.88-38.5-4.25-69.32-17.11-89.81-37.6-5.7-5.7-10.85-12.21-15.33-19.37-1.85-2.95-.95-6.84,2-8.69,2.95-1.84,6.84-.95,8.69,2,3.97,6.35,8.53,12.12,13.55,17.14,41.49,41.49,118.3,36.78,147.93,33.12l-55.41-55.41-63.83-.11c-3.48,0-6.3-2.83-6.29-6.32,0-3.48,2.83-6.29,6.3-6.29h.01l51.18.09-55.53-55.53c-2.46-2.46-2.46-6.45,0-8.92,2.46-2.46,6.45-2.46,8.92,0l55.53,55.53-.09-51.18c0-3.48,2.81-6.31,6.29-6.32h.01c3.48,0,6.3,2.82,6.3,6.29l.11,63.83,55.4,55.4c3.64-29.64,8.32-106.49-33.11-147.92-45.97-45.97-135.29-35.22-155.76-32.03-1.2,7.67-3.48,24.99-3.44,45.95,0,3.48-2.81,6.31-6.29,6.32h-.01c-3.48,0-6.3-2.81-6.3-6.29-.07-29.63,4.21-51.74,4.4-52.66.49-2.51,2.46-4.48,4.97-4.97,1.16-.23,28.84-5.58,63.75-4.16,46.83,1.9,84.05,15.37,107.61,38.93,20.1,20.1,32.84,50.11,37.34,87.56,3.6-16.65,10.55-33.25,23.23-45.93,38.34-38.35,112.54-24.28,115.68-23.66,2.51.49,4.48,2.46,4.97,4.97.62,3.14,14.68,77.34-23.66,115.68-13.33,13.33-30.99,20.32-48.49,23.75,39.07,4.11,70.33,17.02,91.03,37.73,23.56,23.56,37.03,60.78,38.93,107.61,1.42,34.91-3.93,62.59-4.16,63.75-.49,2.51-2.46,4.48-4.97,4.97-1.03.2-22.74,4.4-51.84,4.4Zm50.62-10.58h0,0Zm0,0h0,0Zm-194.34-185.42c-3.64,29.64-8.31,106.5,33.11,147.92,45.9,45.9,135.25,35.21,155.76,32.03,3.18-20.51,13.87-109.85-32.03-155.75-41.42-41.42-118.27-36.75-147.92-33.11l55.4,55.4,63.83.11c3.48,0,6.3,2.83,6.29,6.32,0,3.48-2.83,6.29-6.3,6.29h-.01l-51.18-.09,55.53,55.53c2.46,2.46,2.46,6.45,0,8.92-2.46,2.46-6.46,2.46-8.92,0l-55.53-55.53.09,51.18c0,3.48-2.81,6.31-6.29,6.32h-.01c-3.48,0-6.3-2.82-6.3-6.29l-.11-63.83-55.4-55.4Zm-147.17,127.19c15.79,2.28,71.3,7.85,100.06-20.9,25.11-25.11,24.09-70.43,21.89-92.13l-78.95,78.95c-2.46,2.46-6.45,2.46-8.92,0-2.46-2.46-2.46-6.45,0-8.92l78.94-78.94c-21.71-2.18-67.06-3.18-92.12,21.88-28.75,28.75-23.18,84.26-20.9,100.05Zm132.67-127.59c.13.67.57,3.02,1.07,6.65.54-5.48,1.14-10.08,1.65-13.54-2.8.41-6.34.88-10.49,1.34,1.39.23,2.31.4,2.69.47,1.22.22,2.39.8,3.33,1.75.94.94,1.53,2.11,1.75,3.33Zm17.04-27.17c-.32,2.62-.63,4.93-.92,6.88,2.57-.38,5.77-.81,9.49-1.22-1.84-.29-3.05-.52-3.49-.6-1.22-.22-2.39-.8-3.33-1.75-.94-.94-1.52-2.09-1.74-3.3Zm19.64-5.68c21.72,2.18,67.06,3.18,92.11-21.86,28.75-28.75,23.18-84.26,20.9-100.05-15.79-2.28-71.3-7.85-100.05,20.9-25.1,25.1-24.07,70.42-21.88,92.12l78.93-78.93c2.46-2.46,6.45-2.46,8.92,0,2.46,2.46,2.46,6.45,0,8.92l-78.92,78.92ZM34.56,208.11c-2.85,0-5.44-1.95-6.13-4.85-.9-3.79-1.67-7.52-2.3-11.07-.6-3.43,1.69-6.7,5.12-7.3,3.43-.6,6.7,1.69,7.3,5.12.58,3.31,1.3,6.79,2.15,10.35.8,3.39-1.29,6.79-4.68,7.59-.49.12-.98.17-1.46.17Z"></path>
</symbol><symbol id="i112_other-11" xmlns="http://www.w3.org/2000/svg" viewBox="0 0 512 512">
  <path d="m126.36,466c-24.04,0-43.6-21.42-43.6-47.75,0-16.93,8.26-32.57,21.38-41.1-.25-2.54-.38-5.11-.38-7.68,0-21.18,8.62-40.16,22.04-49.78-.73-1.2-1.43-2.44-2.09-3.7-1.6-3.09-.4-6.9,2.69-8.5,3.09-1.6,6.9-.4,8.5,2.69,1.42,2.75,3.07,5.29,4.9,7.57,1.22,1.53,1.67,3.53,1.21,5.43-.46,1.9-1.78,3.48-3.57,4.27-12.41,5.5-21.07,22.78-21.07,42.01,0,3.39.27,6.76.79,10.04.43,2.71-.93,5.38-3.38,6.62-11.18,5.66-18.41,18.26-18.41,32.12,0,19.38,13.9,35.14,30.99,35.14s30.97-15.76,30.97-35.14c0-1.64-.09-3.21-.27-4.67-.26-2.14.59-4.27,2.26-5.64,9.49-7.8,15.39-22.54,15.39-38.46,0-11.36-2.96-22.16-8.33-30.42-1.11-1.71-1.33-3.84-.58-5.74.74-1.9,2.36-3.32,4.33-3.81,16.46-4.14,28.4-23.25,28.4-45.43,0-7.26-1.25-14.23-3.71-20.69-.63-1.65-.54-3.48.25-5.06s2.2-2.75,3.89-3.24c14.17-4.1,24.46-21.56,24.46-41.52,0-23.39-13.74-42.42-30.64-42.42s-30.64,19.03-30.64,42.42c0,5.7.82,11.24,2.44,16.49.54,1.75.29,3.65-.68,5.2-.97,1.55-2.57,2.61-4.38,2.89-5.69.89-11.23,3.72-16.01,8.2-2.54,2.38-6.53,2.25-8.91-.29-2.38-2.54-2.25-6.53.29-8.91,4.81-4.5,10.25-7.82,16-9.8-.91-4.48-1.36-9.09-1.36-13.78,0-30.34,19.4-55.03,43.25-55.03,4.18,0,8.23.76,12.06,2.18.69-.8,1.59-1.43,2.65-1.81,20.72-7.37,25.02-14.6,25.73-18.25.78-3.97-1.92-7.55-3.15-8.94-30.19,2.44-59.24.27-86.58-6.5-3.38-.84-5.44-4.26-4.61-7.63.84-3.38,4.25-5.45,7.63-4.61,40.28,9.97,80.28,8.28,115.82,1.54l-13.39-7.29c-20.03-10.91-33.09-31.84-34.08-54.62-.07-1.72.56-3.39,1.74-4.63,1.19-1.24,2.83-1.94,4.55-1.94h1.25c18.95,0,37.19,7.99,50.04,21.93,10.22,11.08,16.41,25.25,17.74,40.08,16.19-4.45,31.01-9.69,43.97-14.94,5.8-2.35,11.37-4.76,16.71-7.18.47-.72,1.1-1.36,1.87-1.85,1.3-.83,2.78-1.13,4.2-.96,37.78-17.84,61.94-35.62,62.23-35.83,2.8-2.07,6.74-1.49,8.82,1.31,2.07,2.8,1.49,6.74-1.3,8.82-1.17.87-24.24,17.87-61.16,35.6,6.17,11.52,16.96,35.41,15.5,59.38,16.4,9.36,27.64,28.34,27.64,50.19,0,23.44-13.34,44.43-32.61,52.66,3.35,8.52,5.1,17.92,5.1,27.58,0,24.89-11.54,46.86-29.22,56.62.78,3.83,1.18,7.77,1.18,11.75,0,28.2-20.05,51.52-45.78,54.66.25,2,.38,4.03.38,6.06,0,26.12-20.83,47.37-46.43,47.37s-46.42-21.25-46.42-47.37c0-22.79,15.54-41.75,36.63-46.32-1.19-4.67-1.79-9.48-1.79-14.4,0-23.73,14.42-44.64,35.09-52.11-1.13-5.28-1.7-10.73-1.7-16.26,0-24.43,11.58-46.55,28.84-56.41-3.11-7.41-4.73-15.54-4.73-23.84,0-31.09,22.76-56.38,50.74-56.38,3.64,0,7.2.43,10.62,1.24-.15-19.83-9.44-39.73-14.5-49.11-4.76,2.13-9.7,4.25-14.83,6.33-16.54,6.72-33.03,12.26-49.34,16.59-.49,1.35-1.43,2.52-2.71,3.28-1.91,1.14-4.28,1.19-6.23.13l-1.46-.8c-10.32,2.43-20.56,4.36-30.67,5.79-1.61.23-3.21.44-4.81.64,1.62,3.65,2.53,8.05,1.6,12.8-1.96,10.04-11.37,18.59-28,25.46,11.13,9.97,18.42,26.44,18.42,45.04,0,23.11-11.02,43.18-27.47,51.27,1.72,6.16,2.58,12.6,2.58,19.24,0,24.57-12.4,46.33-30.39,54.93,4.27,9.02,6.57,19.58,6.57,30.47,0,18.51-6.47,35.39-17.45,45.94.05.93.07,1.88.07,2.84,0,26.33-19.55,47.75-43.58,47.75Zm231.56-307.23c-21.03,0-38.13,19.64-38.13,43.77,0,8.47,2.1,16.66,6.08,23.71.91,1.61,1.07,3.53.43,5.27-.64,1.73-2,3.1-3.73,3.74-15.83,5.87-26.89,25.41-26.89,47.52,0,6.47.93,12.79,2.76,18.77.52,1.69.3,3.52-.59,5.04-.89,1.52-2.38,2.6-4.11,2.97-18.22,3.92-31.45,21.42-31.45,41.59,0,6,1.14,11.82,3.4,17.27.79,1.91.59,4.08-.53,5.82-1.12,1.74-3.01,2.82-5.08,2.89-18.3.65-32.63,15.91-32.63,34.73s15.17,34.76,33.81,34.76,33.83-15.59,33.83-34.76c0-3.48-.5-6.92-1.49-10.23-.58-1.94-.19-4.03,1.04-5.64,1.23-1.6,3.17-2.53,5.18-2.46.59.02,1.08.03,1.58.03,21.56,0,39.1-19.02,39.1-42.41,0-4.6-.67-9.1-1.98-13.38-.96-3.14.65-6.5,3.71-7.71,15.49-6.12,26.31-25.57,26.31-47.29,0-10.22-2.32-20.03-6.71-28.38-.9-1.72-.96-3.75-.17-5.52.8-1.77,2.36-3.07,4.24-3.53,17.46-4.29,30.14-22.3,30.14-42.8,0-24.14-17.11-43.77-38.13-43.77ZM228.22,58.92c2.79,15.65,12.62,29.52,26.75,37.21l22.59,12.29c-1.22-11.83-6.23-23.1-14.38-31.94-9.15-9.92-21.65-16.15-34.96-17.56Zm-105.77,231.46c-3.48,0-6.3-2.82-6.3-6.3,0-4.87.48-9.75,1.44-14.51.69-3.41,4.01-5.63,7.42-4.94,3.41.69,5.63,4.01,4.94,7.42-.79,3.95-1.19,8-1.19,12.03,0,3.48-2.82,6.3-6.3,6.3Z"></path>
</symbol><symbol id="i112_other-12" xmlns="http://www.w3.org/2000/svg" viewBox="0 0 512 512">
  <path d="m256,466c-78.36,0-142.1-56.13-142.1-125.13,0-14.13,2.72-35.24,7.66-59.45.7-3.41,4.03-5.62,7.44-4.92,3.41.7,5.61,4.03,4.92,7.44-4.78,23.41-7.41,43.62-7.41,56.93,0,37.85,21.62,71.39,54.69,91.8-1.01-8.75-3.09-26.86-5.44-47.32-7.29-63.29-7.76-127.5-1.42-190.87,1.98-19.81,3.89-38.88,5.28-52.82-12.66,27.17-22.43,55.52-29.1,77.33-1.02,3.33-4.54,5.21-7.87,4.19-3.33-1.02-5.2-4.54-4.19-7.87,15.56-50.9,58.17-169.3,117.54-169.3,44.9,0,80.19,67.29,101.89,123.74,25.17,65.48,40.21,138.44,40.21,171.14,0,68.99-63.75,125.13-142.1,125.13Zm-27.82-15.23c8.97,1.71,18.28,2.62,27.82,2.62s18.86-.9,27.82-2.62c-.17-.69-.22-1.42-.14-2.17,0,0,4.14-38.8,8.32-78.11,5.7-53.51,6.48-107.84,2.31-161.48-4.82-62.04-10.64-136.9-10.64-136.9l1.97-.15c-10.09-8.77-20.07-13.35-29.63-13.35-8.96,0-18.3,3.97-27.78,11.7.12.58.17,1.18.12,1.8,0,0-5.82,74.86-10.64,136.9-4.17,53.64-3.39,107.97,2.31,161.48,4.18,39.31,8.32,78.12,8.32,78.12.08.75.03,1.48-.14,2.17Zm69.05-366.97c1.86,23.97,6.04,77.7,9.66,124.23,4.23,54.41,3.44,109.51-2.34,163.79-3.59,33.81-7.16,67.26-8.09,75.95,7.49-2.15,14.69-4.88,21.52-8.12-.32-.89-.45-1.86-.33-2.86,0,0,2.78-24.12,6.08-52.87,7.19-62.4,7.66-125.71,1.4-188.18-3.89-38.87-7.49-74.91-7.49-74.91-.18-1.83.43-3.55,1.57-4.82-7.24-12.77-14.61-23.55-21.97-32.2Zm-103.19,355.85c6.82,3.24,14.02,5.97,21.52,8.12-.93-8.69-4.49-42.13-8.09-75.95-5.78-54.27-6.57-109.38-2.34-163.79,3.62-46.62,7.81-100.47,9.67-124.37-5.76,6.76-11.54,14.86-17.27,24.24-1.61,2.64-3.2,5.34-4.75,8.07,1.15,1.27,1.78,3.01,1.6,4.85,0,0-3.6,36.04-7.49,74.91-6.26,62.47-5.79,125.78,1.4,188.17,3.29,28.75,6.08,52.87,6.08,52.87.12,1-.01,1.98-.33,2.86Zm138.35-297.89c1.39,13.93,3.29,32.96,5.27,52.73,6.35,63.36,5.87,127.58-1.42,190.87-2.34,20.45-4.43,38.57-5.44,47.32,33.07-20.41,54.69-53.95,54.69-91.8,0-31.55-14.73-102.5-39.38-166.61-4.47-11.64-9.06-22.48-13.73-32.5Zm-76.39,256.35c-3.48,0-6.3-2.82-6.3-6.3V120.2c0-3.48,2.82-6.3,6.3-6.3s6.3,2.82,6.3,6.3v271.59c0,3.48-2.82,6.3-6.3,6.3Zm-121.52-138.7c-.52,0-1.04-.06-1.56-.2-3.37-.86-5.41-4.29-4.55-7.67l.53-2.07c.29-1.11.57-2.23.85-3.35.84-3.38,4.27-5.43,7.65-4.59,3.38.84,5.43,4.27,4.59,7.65-.29,1.15-.58,2.29-.87,3.43l-.52,2.04c-.73,2.85-3.29,4.75-6.11,4.75Z"></path>
</symbol><symbol id="i112_other-13" xmlns="http://www.w3.org/2000/svg" viewBox="0 0 512 512">
  <path d="m153.63,464.95c-3.02,0-5.62-2.14-6.19-5.11-.57-2.97,1.04-5.92,3.85-7.05,44.02-17.6,81.92-46.36,110.57-83.7-.96.27-1.93.53-2.89.79-71.34,19.12-145.85,9.31-209.81-27.62-2.62-1.51-3.79-4.67-2.81-7.52.99-2.86,3.87-4.61,6.86-4.18,69.17,9.95,138.14-7.56,194.2-49.33,2.79-2.08,6.74-1.5,8.82,1.29,2.08,2.79,1.5,6.74-1.29,8.82-28.76,21.43-60.94,36.83-95.66,45.8-24.6,6.35-49.65,9.25-74.83,8.66,120.86,51.31,264.2,5.48,331.48-111.06,7.65-13.23,13.2-22.85,15.59-26.99-.46-1.72-1.13-4.21-1.92-7.15-1.72-6.48-6.49-11.76-12.76-14.15-6.25-2.36-13.33-1.58-18.92,2.11h0c-1.03.68-2.26,1.06-3.51,1.06-3.48,0-6.3-2.82-6.3-6.3,0-.13,0-.29.01-.41.4-6.69-2.45-13.21-7.64-17.43-5.19-4.23-12.15-5.73-18.6-4l-7.19,1.93c-3.42,5.93-13.26,22.98-25.88,44.83v1c0,2.71-1.71,5.02-4.11,5.91-6,9.75-12.65,19.18-19.84,28.13-2.18,2.71-6.15,3.15-8.86.97-2.71-2.18-3.15-6.15-.97-8.86,7.76-9.67,14.88-19.93,21.17-30.55v-67.02c0-15.23,5.93-29.53,16.7-40.28,4.89-4.91,10.73-8.92,17.08-11.75v-32.41c0-3.48,2.82-6.3,6.3-6.3h33.78c3.48,0,6.3,2.82,6.3,6.3v32.41c6.35,2.83,12.19,6.84,17.09,11.76.8.79,1.57,1.61,2.32,2.45l9.22-15.99c.84-1.45,2.21-2.51,3.83-2.94,1.62-.43,3.34-.21,4.79.63l29.25,16.89c3.01,1.74,4.05,5.59,2.31,8.61l-16.19,28.07c4.1,5.64,7.09,11.92,8.91,18.73,3.88,14.48,1.81,30.23-5.7,43.22l-8.44,14.62s0,0,0,0c0,0-6.52,11.32-16.89,29.26-1.34,2.32-2.71,4.62-4.11,6.9.38,1.09.47,2.3.18,3.5-13.94,59.76-48.1,113.97-96.21,152.63-24.03,19.31-50.86,34.35-79.74,44.71-29.89,10.72-61.3,16.15-93.34,16.15Zm128.39-102.32c-24.77,36.84-57.59,66.73-96.11,87.77,99.58-12.01,183.27-79.04,216.56-173.73-31.5,39.13-72.87,68.72-120.44,85.96Zm127.44-190.13c4,0,8.02.71,11.85,2.16,8.53,3.25,15.32,9.83,18.87,18.08l1.08-1.87c5.84-10.11,7.46-22.38,4.44-33.65-1.73-6.45-4.79-12.28-9.12-17.35-1.74-2.03-2-4.93-.67-7.25l15.17-26.3-18.33-10.58-9.69,16.79c-.15,1.83-1.1,3.56-2.69,4.67l-2.79,4.84c-1.34,2.32-3.99,3.54-6.61,3.05-6.49-1.21-13.26-.95-19.59.75-11.45,3.07-21.01,10.41-26.94,20.67l-1.08,1.87c8.93-1.05,18.03,1.55,25.09,7.31,5.75,4.69,9.71,11.13,11.4,18.2,3.12-.93,6.36-1.4,9.61-1.4Zm-80.65-15.22v25.73c9.67-16.74,16.03-27.76,16.26-28.17,0,0,0,0,0-.01l5.12-8.87c-5.97-.39-11.88,1.81-16.14,6.08l-5.25,5.25Zm33.77-97.63v30.37c0,2.68-1.69,5.06-4.21,5.95-6.19,2.18-11.92,5.79-16.56,10.44-8.39,8.38-13,19.51-13,31.37v2.17c7.22-5.37,16.4-7.67,25.39-6.21,1.04.17,1.98.58,2.77,1.18,7.64-10.42,18.5-17.87,31.15-21.26,6.68-1.79,13.75-2.34,20.68-1.62l.22-.39c-1.35-1.85-2.85-3.6-4.48-5.22-4.66-4.67-10.38-8.28-16.58-10.46-2.52-.89-4.21-3.27-4.21-5.95v-30.37h-21.17Zm-87.8,212.86c-1.72,0-3.43-.7-4.67-2.07-2.34-2.58-2.15-6.56.43-8.91,1.44-1.31,2.87-2.64,4.29-3.98,2.53-2.39,6.53-2.27,8.91.27,2.39,2.54,2.27,6.53-.27,8.91-1.48,1.39-2.96,2.77-4.46,4.13-1.21,1.1-2.72,1.64-4.24,1.64Z"></path>
</symbol><symbol id="i112_other-14" xmlns="http://www.w3.org/2000/svg" viewBox="0 0 512 512">
  <path d="m256,466c-46.23,0-90.53-21.44-124.74-60.37-32.61-37.11-51.31-85.46-51.31-132.65,0-25.54,11.8-55.4,35.08-88.75,1.99-2.85,5.92-3.55,8.78-1.56,2.86,1.99,3.55,5.92,1.56,8.78-21.77,31.2-32.81,58.63-32.81,81.54,0,94.42,77.9,180.42,163.44,180.42s163.44-85.99,163.44-180.42c0-48.58-48.83-107.63-93.72-151.64l-30.94,36.87c-1.14,1.36-2.81,2.18-4.59,2.25-1.78.08-3.5-.62-4.75-1.89l-18.07-18.49-29.56,19.36c-2.2,1.44-5.06,1.36-7.19-.19l-46.26-33.95c-.42-.31-.8-.66-1.12-1.05-3.23,3.2-6.47,6.48-9.7,9.82-2.42,2.5-6.41,2.57-8.92.15-2.5-2.42-2.57-6.41-.15-8.92,42.99-44.42,87.29-77.7,87.73-78.03,2.24-1.67,5.31-1.68,7.55,0,.43.32,43.32,32.54,85.61,75.85,57.51,58.89,86.67,109.31,86.67,149.87,0,47.19-18.7,95.54-51.31,132.65-34.21,38.93-78.51,60.37-124.74,60.37Zm-63.73-350.56l42.29,31.04,30.24-19.81c2.52-1.65,5.86-1.29,7.96.87l16.83,17.22,27.03-32.2c-27.2-25.81-51.54-45.24-60.63-52.31-9.45,7.34-35.36,27.99-63.72,55.19Zm40.36,305.27c-2.29,0-4.49-1.25-5.61-3.42-31.94-62.12-12-158.53-11.14-162.6.72-3.41,4.07-5.58,7.47-4.86,3.41.72,5.58,4.07,4.86,7.47-.2.95-19.86,96.12,10.01,154.22,1.59,3.1.37,6.9-2.72,8.49-.92.47-1.91.7-2.88.7Zm99.07-22.61c-1.21,0-2.43-.35-3.51-1.07-2.89-1.94-3.66-5.86-1.72-8.75,32.93-49.06,46.62-96.03,39.6-135.83-5.27-29.83-20.44-45.51-20.59-45.67-2.44-2.47-2.42-6.46.04-8.91,2.46-2.45,6.44-2.45,8.89,0,.72.72,17.75,18.06,23.91,51.43,3.57,19.35,2.75,40.18-2.43,61.9-6.39,26.82-19.5,55.11-38.95,84.09-1.22,1.81-3.21,2.79-5.24,2.79Zm-41.76-26.06c-1.05,0-2.12-.26-3.1-.82-3.02-1.71-4.08-5.53-2.4-8.55.15-.28,6.04-11.55,6.65-36.25.58-23.15-3.48-63.07-26.11-121.81-1.25-3.25.37-6.9,3.62-8.15,3.25-1.25,6.9.37,8.15,3.62,45.73,118.74,19.81,166.78,18.68,168.77-1.16,2.05-3.29,3.2-5.49,3.2Zm-120.76-26.96c-2.3,0-4.52-1.27-5.63-3.46-43.74-86.57-15.86-130.51-14.66-132.34,1.92-2.91,5.83-3.7,8.74-1.79,2.89,1.91,3.7,5.8,1.81,8.7-.17.27-6.28,10.18-7.53,29.49-1.17,18.18,1.85,48.59,22.9,90.25,1.57,3.11.32,6.9-2.78,8.47-.91.46-1.88.68-2.84.68Zm-27.34-179.07c-1.43,0-2.86-.48-4.04-1.47-2.67-2.23-3.03-6.21-.79-8.88,1.58-1.89,3.18-3.76,4.8-5.64,2.27-2.64,6.25-2.93,8.89-.66,2.64,2.27,2.93,6.25.66,8.89-1.57,1.83-3.13,3.65-4.68,5.5-1.25,1.49-3.04,2.26-4.84,2.26Z"></path>
</symbol><symbol id="i112_other-15" xmlns="http://www.w3.org/2000/svg" viewBox="0 0 512 512">
  <path d="m256,466c-78.36,0-142.1-63.75-142.1-142.1,0-3.48,2.82-6.3,6.3-6.3s6.3,2.82,6.3,6.3c0,69.29,54.7,126.04,123.19,129.34v-229.7l-49.04-98.08c-1.82-1.21-2.94-3.33-2.81-5.61l-11.31-22.62c-38.78,43.5-60.03,99.15-60.03,157.71,0,3.48-2.82,6.3-6.3,6.3s-6.3-2.82-6.3-6.3c0-64.83,24.74-126.29,69.66-173.04,1.42-1.48,3.47-2.17,5.49-1.87,2.03.31,3.78,1.58,4.69,3.41l8.84,17.68c14.23-38.82,49.3-53.91,50.99-54.62,1.56-.65,3.31-.65,4.87,0,1.69.71,36.76,15.8,50.99,54.62l8.84-17.68c.92-1.83,2.67-3.11,4.69-3.41,2.03-.31,4.07.39,5.49,1.87,44.92,46.76,69.66,108.21,69.66,173.04v68.97c0,78.36-63.75,142.1-142.1,142.1Zm6.3-242.46v229.7c68.49-3.3,123.19-60.05,123.19-129.34v-68.97c0-58.55-21.25-114.21-60.03-157.71l-11.31,22.62c.13,2.28-.98,4.4-2.81,5.61l-49.04,98.08Zm-51.35-105.67l45.04,90.09,45.04-90.08c-7.26-36.69-36.44-54.16-45.06-58.59-8.74,4.41-37.74,21.61-45.02,58.59Zm-90.75,182.63c-3.48,0-6.3-2.82-6.3-6.3v-8.49c0-3.48,2.82-6.3,6.3-6.3s6.3,2.82,6.3,6.3v8.49c0,3.48-2.82,6.3-6.3,6.3Z"></path>
</symbol><symbol id="i112_other-16" xmlns="http://www.w3.org/2000/svg" viewBox="0 0 512 512">
  <path d="m214.8,466c-1.58,0-3.16-.59-4.38-1.78-2.5-2.42-2.57-6.41-.14-8.91,18.46-19.07,30.73-40.45,36.75-63.96-20.34,10.3-37.17,11.8-50.17,4.44-25.84-14.63-24.81-58.43-24.75-60.29.08-2.59,1.73-4.87,4.17-5.74,20.79-7.45,39.05-6.97,54.25,1.44,9.12,5.05,15.86,12.26,20.76,19.49-.33-10.03-1.61-20.38-3.84-31.02-6.96-33.19-21.5-59.14-26.43-67.3-11.04.59-40.38-.14-63.85-21.28-2.59-2.33-2.8-6.32-.47-8.9,2.33-2.59,6.32-2.8,8.9-.47,17.32,15.59,39.1,18.04,50.45,18.12-.54-2.18-1.1-4.73-1.59-7.6-14.2-49.39-34.08-81.43-48.88-100.11-9.67-12.2-18.37-20.29-24.27-25.12-2.4,17.14-3.24,32.85-2.51,46.81.18,3.48-2.49,6.45-5.96,6.63-3.46.2-6.45-2.49-6.63-5.96-.93-17.59.5-37.68,4.24-59.71.35-2.04,1.67-3.78,3.54-4.65,1.87-.88,4.06-.78,5.84.26.65.38,16.13,9.52,35.08,33.24,1.52,1.9,3.09,3.93,4.7,6.1.72-18.78,9.09-46.53,40.25-81.6,1.66-1.87,4.27-2.58,6.64-1.81,2.38.76,4.08,2.86,4.34,5.35.05.47,4.78,44.73,16.68,74.27,10.48-11.9,24.02-23.88,41.48-35.36,16.16-10.63,11.82-23.43,11.27-24.85-1.3-3.17.17-6.76,3.31-8.14,3.13-1.38,6.81.03,8.26,3.14,1.11,2.37,26.84,58.66,4.25,113.83-13.45,32.84-41.09,57.98-82.22,74.8,6.51,11.29,19.19,36.01,25.82,67.34.67,3.14,1.25,6.27,1.76,9.38,3.14-5.45,7.34-11.08,12.97-16.41,21.84-20.69,56.73-29.43,103.72-25.98,2.53.19,4.71,1.87,5.51,4.28.33.97,7.82,23.98-5.49,44.13-10.4,15.75-30.15,24.88-58.69,27.16-33.09,2.63-48.61,3.88-55.81,4.47-.2,3.97-.55,7.9-1.03,11.78.23.87.36,1.42.39,1.57.44,2.01-.13,4.07-1.45,5.55-5.25,30.36-19.44,57.91-42.26,81.48-1.24,1.28-2.88,1.92-4.53,1.92Zm-30.06-125.76c.47,12.72,4.23,36.62,18.35,44.6,10.64,6.01,26.24,2.89,46.41-9.26-2.62-7.9-9.83-24.95-25.14-33.38-10.9-6-24.21-6.65-39.62-1.96Zm174.05-44.7c-33.81,0-59.15,7.73-75.48,23.07-12.23,11.49-16.37,24.53-17.77,32.29.54-.04,1.11-.09,1.7-.14,8.8-.71,24.33-1.96,51.25-4.1,24.4-1.94,40.92-9.16,49.1-21.44,7.13-10.71,6.18-23.07,5.05-29.28-4.76-.27-9.39-.41-13.85-.41Zm-131.95-65.83c.74,2.61,1.47,5.28,2.19,7.98,37.88-15.48,63.22-38.28,75.36-67.83,12.12-29.49,8.64-60.14,3.7-80.42-2.75,4.07-6.68,8.07-12.15,11.67-40.47,26.61-63.79,58.67-69.32,95.3-2.02,13.35-1.17,24.93.23,33.31Zm-30.18-73.62c5.98,10.59,12.02,22.88,17.7,37.02,2.6-15.91,9.21-35.69,24.33-56.25-.29-.37-.54-.79-.74-1.23-9.63-21.2-15.15-50.82-17.77-68.27-20.54,26.18-26.52,46.47-27.73,59.43-1.45,15.52,3.49,23.98,3.54,24.06,1.02,1.63,1.21,3.54.67,5.23Zm-54.76,48.83c-2.45,0-4.79-1.44-5.81-3.84-1.5-3.54-2.86-7.28-4.03-11.14-1.01-3.33.86-6.85,4.2-7.87,3.34-1.01,6.85.87,7.87,4.2,1.04,3.43,2.24,6.75,3.57,9.88,1.36,3.21-.13,6.91-3.34,8.27-.8.34-1.64.5-2.46.5Z"></path>
</symbol><symbol id="i112_other-17" xmlns="http://www.w3.org/2000/svg" viewBox="0 0 512 512">
  <path d="m162.65,466c-50.28,0-91.18-40.9-91.18-91.18,0-9.76,1.53-19.34,4.54-28.47,1.09-3.31,4.65-5.1,7.96-4.01,3.31,1.09,5.1,4.66,4.01,7.96-2.59,7.86-3.91,16.11-3.91,24.52,0,43.33,35.25,78.57,78.57,78.57s78.57-35.25,78.57-78.57-35.25-78.57-78.57-78.57c-12.15,0-23.79,2.69-34.58,8.01-3.12,1.54-6.9.25-8.44-2.87-1.54-3.12-.25-6.9,2.87-8.44,12.54-6.18,26.05-9.31,40.15-9.31,50.28,0,91.18,40.9,91.18,91.18s-40.9,91.18-91.18,91.18Zm25.46-68.17c-17.52,0-31.77-14.25-31.77-31.77s14.25-31.77,31.77-31.77,31.77,14.25,31.77,31.77-14.25,31.77-31.77,31.77Zm0-50.93c-10.56,0-19.16,8.59-19.16,19.16s8.59,19.16,19.16,19.16,19.16-8.59,19.16-19.16-8.59-19.16-19.16-19.16Zm161.44,25.49c-7.93,0-15.9-1.04-23.77-3.15-23.53-6.31-43.2-21.39-55.37-42.47-12.17-21.08-15.4-45.65-9.1-69.18,6.31-23.53,21.39-43.2,42.47-55.37h0c43.53-25.14,99.41-10.17,124.55,33.37,25.14,43.54,10.17,99.41-33.37,124.55-14.04,8.11-29.62,12.25-45.42,12.25Zm-39.46-159.25h0c-37.52,21.66-50.42,69.81-28.76,107.33,10.49,18.16,27.43,31.16,47.71,36.59,20.28,5.44,41.45,2.65,59.62-7.84,37.52-21.66,50.42-69.81,28.76-107.33-21.66-37.52-69.81-50.41-107.33-28.76Zm-215.33,117.06c-1.31,0-2.64-.41-3.77-1.26-2.79-2.09-3.36-6.04-1.27-8.83,2.07-2.77,4.32-5.43,6.67-7.91,2.4-2.53,6.39-2.63,8.91-.23,2.53,2.4,2.63,6.39.23,8.91-2.02,2.12-3.94,4.41-5.72,6.79-1.24,1.65-3.13,2.53-5.05,2.53Zm272.34-37.57c-10.99,0-21.69-5.7-27.57-15.88-4.24-7.35-5.37-15.91-3.17-24.11,2.2-8.2,7.45-15.05,14.8-19.29,15.17-8.76,34.64-3.54,43.39,11.63,8.76,15.17,3.54,34.64-11.63,43.4-4.99,2.88-10.44,4.25-15.83,4.25Zm-.09-50.91c-3.25,0-6.54.83-9.55,2.56h0c-4.43,2.56-7.6,6.69-8.92,11.63-1.33,4.95-.65,10.11,1.91,14.54,5.28,9.15,17.02,12.29,26.17,7.01,9.15-5.28,12.29-17.02,7.01-26.17-3.54-6.14-10-9.57-16.62-9.57Zm-12.7-2.9h0,0Zm-166.36-10.49c-15.46,0-31.11-3.93-45.44-12.2-43.54-25.14-58.51-81.02-33.37-124.55,25.14-43.54,81.02-58.51,124.55-33.37h0c43.54,25.14,58.51,81.02,33.37,124.56-16.87,29.22-47.58,45.57-79.12,45.57Zm.29-169.72c-27.18,0-53.64,14.09-68.18,39.27-21.66,37.52-8.76,85.66,28.76,107.33,37.52,21.66,85.67,8.76,107.33-28.76,21.66-37.52,8.76-85.67-28.76-107.33-12.34-7.13-25.83-10.51-39.15-10.51Zm-17.86,90c-5.39,0-10.84-1.37-15.83-4.25-7.35-4.24-12.6-11.09-14.8-19.29-2.2-8.2-1.07-16.76,3.17-24.11,4.24-7.34,11.09-12.6,19.29-14.8,8.2-2.2,16.76-1.07,24.1,3.17h0c15.17,8.76,20.38,28.23,11.63,43.4-5.88,10.18-16.58,15.88-27.57,15.88Zm.09-50.92c-1.67,0-3.34.22-5,.66-4.94,1.32-9.08,4.49-11.63,8.92-2.56,4.43-3.24,9.59-1.91,14.54s4.49,9.08,8.92,11.63c9.15,5.28,20.89,2.14,26.17-7.01,5.28-9.15,2.14-20.89-7.01-26.17h0c-2.95-1.7-6.22-2.57-9.54-2.57Z"></path>
</symbol><symbol id="i112_other-18" xmlns="http://www.w3.org/2000/svg" viewBox="0 0 512 512">
  <path d="m266.49,466c-1.07,0-2.15-.27-3.15-.85l-30.69-17.72c-1.45-.84-2.5-2.21-2.94-3.83s-.21-3.34.63-4.78l68.94-119.4c-10.67-9.42-19.64-20.7-26.45-33.36-10.65-19.8-15.57-42.13-14.22-64.58.3-5.14.5-8.37.5-8.37.13-2.18,1.38-4.14,3.31-5.17,1.92-1.04,4.24-1,6.14.09l10.48,6.05c1.49-3.48,3.19-6.9,5.11-10.22,26.17-45.31,84.33-60.89,129.65-34.75,21.94,12.67,37.64,33.14,44.21,57.64,6.57,24.5,3.2,50.07-9.47,72.01-1.9,3.3-4.01,6.5-6.3,9.55l10.48,6.05c1.89,1.09,3.08,3.07,3.15,5.25.07,2.18-.99,4.24-2.8,5.45,0,0-2.69,1.8-7.02,4.65-18.76,12.38-40.56,19.28-63.04,19.96-14.36.43-28.61-1.7-42.11-6.22l-68.94,119.4c-1.17,2.02-3.29,3.15-5.47,3.15Zm-22.08-26.33l19.77,11.42,64.58-111.85-19.77-11.42-64.58,111.85Zm26.69-215.6c-1.76,40.55,18.84,78.18,54.09,98.54,35.25,20.34,78.14,19.37,112.38-2.42l-7.82-4.51c-.15-.08-.31-.17-.45-.26l-44.28-25.57c-1.45-.84-2.5-2.21-2.94-3.83l-11.34-42.32-42.32,11.34c-1.61.43-3.34.21-4.78-.63l-44.15-25.49c-.25-.12-.48-.26-.7-.41l-7.68-4.44Zm122.48,56.16l37.64,21.73c2.34-3,4.48-6.18,6.38-9.49,10.99-19.02,13.9-41.2,8.21-62.45-5.69-21.25-19.31-39-38.33-49.98-39.3-22.67-89.73-9.16-112.42,30.12-1.92,3.34-3.6,6.78-5.02,10.28l37.63,21.73,45.89-12.3c1.61-.43,3.34-.21,4.78.63,1.45.84,2.5,2.21,2.94,3.83l12.3,45.89Zm-195.94,94.14c-1.1,0-2.19-.29-3.15-.84-1.45-.84-2.5-2.21-2.94-3.83l-35.68-133.17c-14.21.88-28.52-.75-42.29-4.88-21.54-6.47-40.81-18.78-55.73-35.61-3.42-3.85-5.56-6.27-5.56-6.27-1.44-1.64-1.94-3.9-1.31-5.99.63-2.09,2.3-3.7,4.4-4.27l11.69-3.13c-1.41-3.51-2.62-7.14-3.61-10.85-3.09-11.54-3.99-23.38-2.66-35.21.39-3.46,3.52-5.95,6.97-5.56,3.46.39,5.95,3.51,5.56,6.97-1.15,10.26-.38,20.53,2.31,30.54,1,3.73,2.25,7.36,3.72,10.83l41.99-11.25,23.75-41.15c.84-1.45,2.21-2.51,3.83-2.94,1.61-.43,3.34-.21,4.78.63l41.14,23.75,41.98-11.25c-.47-3.78-1.2-7.54-2.19-11.22-5.69-21.22-19.31-38.96-38.35-49.96-19.05-11-41.23-13.92-62.45-8.23-8.21,2.19-15.96,5.6-23.05,10.14-2.93,1.88-6.83,1.02-8.71-1.91-1.88-2.93-1.02-6.83,1.91-8.71,8.18-5.24,17.13-9.17,26.58-11.7,24.47-6.56,50.05-3.19,72.01,9.49,21.96,12.68,37.67,33.14,44.23,57.61.99,3.68,1.76,7.43,2.3,11.2l11.69-3.13c2.11-.56,4.37,0,5.96,1.51s2.29,3.72,1.84,5.87c0,0-.65,3.15-1.68,8.18-4.5,22.03-15.03,42.33-30.45,58.7-9.86,10.47-21.44,19.04-34.18,25.38l35.67,133.17c.9,3.36-1.09,6.82-4.46,7.72l-34.24,9.18c-.54.14-1.09.22-1.63.22Zm-28.96-138.78l33.42,124.75,22.06-5.91-33.42-124.75-22.06,5.91Zm-100.15-46.55c27.43,29.91,68.6,41.95,107.92,31.42,39.32-10.54,68.96-41.56,77.74-81.17l-8.69,2.33c-.18.06-.36.1-.54.14l-49.37,13.23c-1.61.43-3.34.21-4.78-.63l-37.94-21.91-21.91,37.96c-.84,1.45-2.21,2.51-3.83,2.94l-58.6,15.7Zm56.97-21.79h0,0Zm-46.74-64.88c-1.09,0-2.19-.28-3.2-.88-3-1.77-3.99-5.64-2.22-8.63,1.83-3.1,3.81-6.08,5.87-8.84,2.08-2.79,6.03-3.36,8.82-1.28,2.79,2.08,3.36,6.03,1.28,8.82-1.79,2.4-3.51,4.99-5.12,7.71-1.18,1.99-3.28,3.1-5.44,3.1Z"></path>
</symbol><symbol id="i112_other-19" xmlns="http://www.w3.org/2000/svg" viewBox="0 0 512 512">
  <path d="m174.55,466c-1.39,0-2.77-.46-3.91-1.36-1.7-1.34-41.91-33.43-68.14-81.83-1.66-3.06-.52-6.89,2.54-8.55,3.06-1.66,6.89-.52,8.55,2.54,20.82,38.41,51.77,66.75,61.69,75.28,41.71-23.52,66.95-53.93,75.05-90.46,13.41-60.46-24-120.36-32.74-133.27h-98.67c-18.72,26.22-27.26,54.3-25.37,83.51.23,3.47-2.41,6.47-5.88,6.7-3.45.24-6.47-2.41-6.7-5.88-2.11-32.58,7.45-63.76,28.44-92.69v-31.88c0-3.48,2.82-6.3,6.3-6.3h42.11l22.45-72.08c-4.81-1.76-9.54-3.62-14.21-5.57-50.74-21.27-75.05-46.43-76.06-47.49-2.4-2.52-2.3-6.51.22-8.91,2.52-2.4,6.51-2.3,8.91.21h0c.23.24,23.95,24.64,72.53,44.86,44.87,18.68,120.77,37.51,227.5,21.16,3.45-.53,6.66,1.84,7.19,5.28.53,3.44-1.84,6.66-5.28,7.19-26.32,4.03-52.04,6.17-76.95,6.42l12.48,47.15,35.71-9.57c1.61-.43,3.34-.21,4.79.63,1.45.84,2.5,2.21,2.94,3.83l8.45,31.57c3.87,5.1,19.98,27.38,31.37,59.63,17.01,48.13,15.07,95.45-5.61,136.84-1.06,2.13-3.23,3.47-5.61,3.49h-.1c-3.24,0-52.22-.67-86.62-39.41-26.03-29.32-36.35-72.07-30.7-127.14-.81-.11-1.59-.37-2.31-.79-1.45-.84-2.51-2.21-2.94-3.83l-8.79-32.8c-.43-1.62-.21-3.34.63-4.78.84-1.45,2.21-2.51,3.83-2.94l42.79-11.47-13.35-50.46c-16.45-.28-32.53-1.4-48.17-3.38-24.72-3.12-48.39-8.35-70.69-15.6l-21.16,67.96h49.84c3.48,0,6.3,2.82,6.3,6.3v31.93c3.56,5.11,14.06,21.01,23.28,43.25,14.74,35.61,18.95,70.56,12.19,101.07-9.17,41.33-37.8,75.27-85.09,100.88-.94.51-1.97.76-3,.76Zm234.05-65.89h0,0Zm-104.38-163.22c-6.23,53.42,2.85,94.33,27.02,121.63,25.72,29.07,61.78,34.19,73.5,35.1,17.64-37.7,18.78-79.04,3.36-122.94-9.4-26.76-22.53-46.65-27.89-54.16l-75.99,20.37Zm-13.24-31.6l5.53,20.62,78.48-21.04-5.52-20.61-33.65,9.02c-.59.41-1.27.73-2.01.93-.73.19-1.45.25-2.16.19l-40.68,10.91Zm-168.96,10.46h92.55v-21.34h-51.96c-.1,0-.19,0-.29,0h-40.3v21.34Zm-27.46,139.48c-2.65,0-5.12-1.69-5.99-4.35-.99-3.02-1.81-5.74-2.5-8.33-.91-3.36,1.08-6.82,4.44-7.73,3.36-.91,6.82,1.08,7.73,4.44.64,2.37,1.4,4.89,2.32,7.7,1.08,3.31-.72,6.87-4.03,7.95-.65.21-1.31.31-1.96.31Z"></path>
</symbol><symbol id="i112_other-2" xmlns="http://www.w3.org/2000/svg" viewBox="0 0 512 512">
  <path d="m298.54,466h-85.08c-92.34,0-167.46-75.12-167.46-167.46,0-37.79,16.39-73.63,44.95-98.37,2.63-2.28,6.61-1.99,8.89.64,2.28,2.63,1.99,6.61-.64,8.89-25.8,22.33-40.6,54.71-40.6,88.81,0,81.02,62.52,147.7,141.85,154.33-10.58-8.59-20.19-21.24-28.35-37.54-15.65-31.3-24.26-72.77-24.26-116.77,0-48.8,13.81-92.91,36.05-115.15l5.91-5.91c15.76-15.76,25.94-49.31,25.94-85.47v-33.4h-21.34v33.4c0,28.47-11.08,55.27-31.19,75.45-2.46,2.47-6.45,2.48-8.92.02-2.47-2.46-2.47-6.45-.02-8.92,17.74-17.81,27.51-41.44,27.51-66.56v-39.7c0-3.48,2.82-6.3,6.3-6.3h135.8c3.48,0,6.3,2.82,6.3,6.3v39.7c0,35.93,19.97,68.23,52.11,84.29,3.89,1.95,7.84,3.94,11.79,5.9,21.63,10.81,39.77,27.4,52.48,47.95,12.71,20.56,19.42,44.2,19.42,68.37,0,92.36-75.12,167.48-167.46,167.48Zm-36.23-12.61h14.96c19.01,0,37.25-15.53,51.34-43.72,14.79-29.58,22.93-69.05,22.93-111.13,0-44.88-12.7-86.58-32.36-106.23l-5.91-5.91c-18.28-18.28-29.63-54.45-29.63-94.39v-33.4h-21.34v394.78ZM228.36,58.61v33.4c0,39.94-11.36,76.11-29.63,94.39l-5.91,5.91c-19.66,19.66-32.36,61.35-32.36,106.22,0,42.1,8.14,81.57,22.93,111.15,14.1,28.19,32.33,43.72,51.34,43.72h14.96V58.61h-21.34Zm67.9,0v33.4c0,36.16,10.18,69.71,25.94,85.47l5.91,5.91c22.24,22.24,36.05,66.35,36.05,115.13,0,44.02-8.62,85.49-24.26,116.79-8.15,16.3-17.77,28.95-28.35,37.54,79.33-6.62,141.85-73.3,141.85-154.31,0-44.78-24.88-85.03-64.92-105.05-3.95-1.97-7.91-3.96-11.81-5.91-17.75-8.87-32.66-22.49-43.1-39.39-10.44-16.89-15.96-36.32-15.96-56.18v-33.4h-21.34ZM120.72,194.15c-2.32,0-4.55-1.28-5.65-3.5-1.55-3.12-.28-6.9,2.84-8.45,3.95-1.96,7.9-3.95,11.78-5.9,3.11-1.56,6.9-.31,8.46,2.8,1.56,3.11.31,6.9-2.8,8.46-3.89,1.96-7.86,3.94-11.82,5.92-.9.45-1.86.66-2.8.66Z"></path>
</symbol><symbol id="i112_other-20" xmlns="http://www.w3.org/2000/svg" viewBox="0 0 512 512">
  <path d="m248.49,466c-1.98,0-3.92-.93-5.15-2.67-2.01-2.84-1.34-6.78,1.51-8.79,27.98-19.79,47.81-42.12,59.27-66.69-27.98,15.48-52.28,18.39-72.33,8.64-39.34-19.14-46.39-79.75-46.67-82.32-.29-2.63,1.1-5.16,3.47-6.33,25.69-12.72,49.32-14.41,70.23-5.03,30.69,13.77,46.7,47.53,52.91,64.03,1.25-4.75,2.21-9.58,2.89-14.47,6.96-50.35-18.49-95.59-30.51-113.66-5.92,13.13-16.82,25.6-32.61,37.26-2.25,1.66-5.32,1.65-7.55-.04-1.46-1.11-35.86-27.5-36.36-64.58-.03-2.09.05-4.17.24-6.24-.68,0-1.37.01-2.04.01-39.48,0-65.4-14.65-80.5-27.43-17.64-14.93-24.68-30.46-24.97-31.11-.93-2.1-.65-4.53.73-6.36,9.17-12.13,19.07-21.94,29.43-29.16,2.86-1.99,6.79-1.29,8.78,1.57,1.99,2.86,1.29,6.79-1.57,8.78-8.37,5.83-16.48,13.65-24.14,23.26,2.81,4.86,9.24,14.51,20.35,23.79,20.2,16.88,45.9,24.93,76.47,23.98,4.12-13.16,12.81-25.76,26-37.64-3.08-5.16-9.11-16.57-11.71-30.58-3.66-2.76-16.79-11.86-34.39-15.02-3.43-.61-5.71-3.89-5.09-7.32.61-3.43,3.88-5.71,7.32-5.09,12.97,2.33,23.71,7.33,30.99,11.56.23-5.22,1.12-10.58,2.91-15.95,6.91-20.68,25.41-36.19,54.99-46.09,2.19-.73,4.61-.21,6.3,1.37,1.41,1.31,34.42,32.53,26.02,64.77-1.39,5.34-3.81,10.33-7.25,14.96,24.89-2.17,76.03-3.02,103.7,22.06,1.69,1.53,2.42,3.86,1.91,6.09-.32,1.37-8.1,33.87-39.5,53.47-22.21,13.86-50.26,17.63-83.47,11.23-.1,1.05-.23,2.09-.39,3.13,5.62,7.22,38.31,51.6,39.69,107.55,9.21-9.19,28.97-20.59,67.85-13.23,3.36.64,5.6,3.84,5.05,7.22-.2,1.18-5.01,29.07-26.03,37.48-13.3,5.32-29.35,1.51-47.77-11.32-.11.97-.23,1.93-.37,2.91-5.84,42.49-31.08,79.79-75,110.85-1.11.78-2.38,1.16-3.63,1.16Zm-50.19-148.8c2.3,13.55,11.42,54.57,39.02,67.97,16.86,8.18,38.34,4.76,63.9-10.18-4.37-12.54-18.89-47.83-47.63-60.69-16.22-7.26-34.8-6.28-55.3,2.9Zm137.46,24.27c14.19,9.68,25.87,12.78,34.78,9.24,9.57-3.81,14.49-14.73,16.72-21.71-32.07-4.43-46.16,6.21-51.51,12.47Zm-88.79-179.2c-17.97,15.47-26.97,31.88-26.77,48.84.3,24.43,19.56,44.34,27.74,51.7,19.24-15.28,28.93-31.55,28.81-48.38-.18-24.57-21.07-44.79-29.79-52.16Zm41.92,45.09c38.46,8.01,68.62,1.62,89.71-19.03,12.19-11.94,17.92-25.65,20.09-32.01-33.62-26.01-103.72-14.89-104.44-14.77-.96.16-1.9.09-2.78-.17-8.48,5.77-19.23,10.74-32.21,14.88,10.38,9.58,26.66,27.95,29.64,51.1Zm-7.2-147.78c-23.42,8.54-37.99,20.9-43.31,36.77-6.87,20.47,3.25,42.09,8,50.55,32.3-8.59,50.84-21.22,55.12-37.58,5.34-20.4-12.83-42.28-19.81-49.74Zm-124.26,51.52c-2.72,0-5.23-1.78-6.04-4.52-.99-3.34.92-6.85,4.26-7.83,2.85-.84,5.77-1.54,8.66-2.06,3.43-.61,6.71,1.66,7.33,5.08s-1.66,6.71-5.08,7.33c-2.45.44-4.91,1.03-7.33,1.74-.6.18-1.2.26-1.79.26Z"></path>
</symbol><symbol id="i112_other-21" xmlns="http://www.w3.org/2000/svg" viewBox="0 0 512 512">
  <path d="m256,466s-.08,0-.12,0c-115.74-.07-209.88-94.25-209.88-210v-.29s0-.05,0-.07v-.09h0c.04-18.25,2.42-35.96,6.85-52.84,4.75-18.11,11.89-35.48,21.23-51.64.03-.04.05-.09.08-.13,12.19-21.06,28.11-40.1,47.31-56.14.22-.19.45-.36.69-.5,7.22-5.99,14.84-11.5,22.83-16.49.21-.17.43-.32.66-.47,1.67-1.03,3.41-2.08,5.32-3.2.25-.14.5-.27.76-.38,8.11-4.66,16.56-8.79,25.3-12.35.18-.09.36-.18.55-.25,24.84-10.03,51.14-15.13,78.16-15.16h0s.06,0,.09,0h.17c115.79,0,210,94.21,210,210s-94.15,209.93-209.88,210c-.04,0-.08,0-.12,0ZM58.61,256c0,107.38,86.18,195.01,193.01,197.34,3.99-11.2,14.96-44.34,20.62-84.21.65-4.61,1.25-9.42,1.76-14.37-5.3-11.97-20.76-41.82-49.33-59.07-.89.41-1.88.61-2.93.56h0c-.43-.02-42.89-1.84-62.15,18.28-6.25,6.53-9.31,14.57-9.31,24.48,0,1.57.08,3.19.23,4.85.02.2.03.39.03.59,0,3.22-2.45,5.97-5.72,6.27-3.46.32-6.54-2.23-6.86-5.7-.19-2.04-.28-4.04-.28-5.99,0-13.19,4.3-24.35,12.83-33.25,12.66-13.21,32.25-18.63,47.78-20.8-22.66-5.17-47.99-1.59-75.52,10.73-3.18,1.42-6.91,0-8.33-3.18-.37-.83-.55-1.71-.55-2.57,0-2.41,1.39-4.71,3.73-5.76,19.37-8.67,37.87-13.36,55.33-14.05-9.25-17.52-33.09-55.92-67.06-62.33-3.03-.57-5.14-3.22-5.14-6.19,0-.39.04-.78.11-1.17.65-3.42,3.94-5.67,7.36-5.03,44.74,8.44,72.35,60.92,79.04,75.06,10.87.98,21.3,3.61,31.26,7.9,27.95,12.03,46.27,34.54,57.06,52.2.08-2.79.12-5.6.12-8.43,0-35.68-6.63-74.31-28.57-104.5-30.51-41.97-85.59-61.28-163.72-57.38-7.65,13.73-13.7,28.45-17.91,43.94-4.5,16.56-6.86,33.81-6.9,51.37,0,0,0,0,0,0v.07h0s0,.06,0,.08v.27Zm227.16,106.95c-.33,2.73-.69,5.47-1.09,8.23-5.26,36.92-14.71,67.59-19.64,82,104.66-4.74,188.34-91.37,188.34-197.19,0-49.66-18.44-95.1-48.82-129.82-40.54-6.29-76.18,5.06-106.03,33.76,13.8,4.69,44.02,18.13,62.01,49.86,4.99,8.8,8.63,18.28,10.94,28.44,7.72,1.96,33.24,10.29,41.64,36.19.21.65.31,1.3.31,1.95,0,2.66-1.7,5.13-4.36,5.99-3.31,1.08-6.87-.74-7.94-4.05-5.03-15.51-18.93-22.95-27.37-26.12.46,4.45.69,9.02.69,13.69,0,18.33-3.54,38.36-10.63,59.98-1.08,3.31-4.65,5.11-7.95,4.03-2.66-.87-4.34-3.34-4.34-5.99,0-.65.1-1.31.32-1.97,6.67-20.34,10-39.05,10-56.03,0-18.8-4.09-35.48-12.27-49.89-.68-1.2-1.38-2.37-2.1-3.52l.12,3.53h.11c-.22.01-5.38.43-10.04,5.84-3.75,4.36-7.85,12.82-7.85,28.98,0,2.71.12,5.64.37,8.79.01.17.02.34.02.51,0,3.26-2.5,6.02-5.81,6.28-3.46.26-6.51-2.31-6.78-5.78-.27-3.42-.41-6.7-.41-9.84,0-16.58,3.79-29.21,11.31-37.63,4.58-5.13,9.56-7.56,13.24-8.71-20.51-25.64-49.94-33.54-52.95-34.29-18.32,21.06-26.87,41.7-26.97,41.93-.37.9-.92,1.67-1.59,2.28,13.76,20.51,22.57,45.66,26.21,74.84,1.28,10.32,1.93,21.16,1.93,32.46,0,10.01-.5,20.38-1.51,31.07.68,1.67,1.05,2.73,1.15,3.01.24.69.36,1.39.36,2.09,0,2.01-.97,3.92-2.61,5.11ZM102.61,147.16c68.2,0,118.33,18.83,149.36,56.15,4.09-8.65,15.2-29.65,34.79-49.47,5.99-6.05,13.08-12.27,21.3-18-.72-1.85-2.52-5.03-6.95-8.25-10.1-7.35-38.05-17.54-111.8-3.21-3.41.66-6.73-1.57-7.39-4.99-.08-.41-.12-.81-.12-1.21,0-2.96,2.09-5.59,5.1-6.18,25.22-4.9,47.08-7.42,65.49-7.55-.61-1.32-4.08-6.33-22.72-12.19-2.69-.85-4.42-3.33-4.42-6.01,0-.63.09-1.26.29-1.89,1.04-3.32,4.58-5.17,7.9-4.13,19.77,6.21,29.77,13.28,31.46,22.25.15.79.22,1.56.24,2.29,19.62,1.2,34.48,5.67,44.43,13.41,4.79,3.73,7.59,7.62,9.23,10.86,19.04-10.85,43.02-18.44,72.18-16.95-35.33-33.16-82.82-53.5-134.99-53.5h-.17s-.04,0-.07,0c-68.62.08-129.15,35.36-164.47,88.72,3.83-.11,7.6-.17,11.32-.17Z"></path>
</symbol><symbol id="i112_other-22" xmlns="http://www.w3.org/2000/svg" viewBox="0 0 512 512">
  <path d="m256,466c-1.24,0-2.48-.36-3.55-1.09-21.7-14.77-38.83-40.77-50.95-77.34-34.44,17.29-64.93,23.57-90.71,18.65-2.54-.48-4.53-2.47-5.01-5.01-4.91-25.78,1.36-56.27,18.65-90.71-36.57-12.13-62.57-29.25-77.34-50.95-1.46-2.14-1.46-4.95,0-7.09,14.77-21.71,40.77-38.83,77.34-50.95-1.82-3.62-3.53-7.24-5.13-10.83-1.42-3.18.01-6.91,3.19-8.33,3.18-1.42,6.91.01,8.33,3.19,2.47,5.53,5.23,11.16,8.22,16.73.89,1.67.99,3.64.27,5.39-.72,1.75-2.19,3.08-4,3.62-35.38,10.71-60.65,25.74-75.22,44.72,14.57,18.98,39.84,34.01,75.22,44.72,1.81.55,3.28,1.88,4,3.62.72,1.75.62,3.72-.27,5.39-17.45,32.59-24.69,61.09-21.57,84.8,23.71,3.12,52.21-4.11,84.8-21.57,1.67-.89,3.64-.99,5.39-.27,1.75.72,3.08,2.19,3.62,4,10.71,35.38,25.74,60.66,44.72,75.22,18.98-14.57,34.01-39.84,44.72-75.22.55-1.81,1.88-3.28,3.62-4,1.74-.72,3.72-.62,5.39.27,32.59,17.45,61.09,24.7,84.8,21.57,3.13-23.71-4.11-52.21-21.57-84.8-.89-1.67-.99-3.64-.27-5.39.72-1.75,2.19-3.07,4-3.62,35.38-10.71,60.65-25.74,75.22-44.72-14.57-18.98-39.84-34.01-75.22-44.72-1.81-.55-3.28-1.88-4-3.62s-.62-3.72.27-5.39c17.45-32.59,24.69-61.09,21.57-84.8-23.71-3.13-52.21,4.11-84.8,21.57-1.67.89-3.64.99-5.39.27-1.75-.72-3.07-2.19-3.62-4-10.71-35.38-25.74-60.65-44.72-75.22-18.98,14.56-34.01,39.84-44.72,75.22-.55,1.81-1.88,3.28-3.62,4-1.74.72-3.72.63-5.39-.27-32.59-17.45-61.09-24.7-84.8-21.57-.78,5.95-.91,12.23-.39,18.73.28,3.47-2.31,6.51-5.78,6.79-3.47.29-6.51-2.31-6.79-5.78-.74-9.22-.32-18.11,1.26-26.42.48-2.54,2.47-4.53,5.01-5.01,25.78-4.92,56.27,1.36,90.71,18.65,12.13-36.57,29.25-62.57,50.95-77.34,2.14-1.46,4.95-1.46,7.09,0,21.7,14.77,38.83,40.77,50.95,77.34,34.44-17.29,64.92-23.57,90.71-18.65,2.54.48,4.53,2.47,5.01,5.01,4.91,25.78-1.36,56.27-18.65,90.71,36.57,12.13,62.57,29.25,77.34,50.95,1.46,2.14,1.46,4.95,0,7.09-14.77,21.7-40.77,38.83-77.34,50.95,17.29,34.44,23.57,64.93,18.65,90.71-.48,2.54-2.47,4.53-5.01,5.01-25.79,4.91-56.27-1.36-90.71-18.65-12.13,36.57-29.25,62.57-50.95,77.34-1.07.73-2.31,1.09-3.55,1.09Zm0-67.9c-1.24,0-2.48-.36-3.55-1.09-14.39-9.78-25.81-26.7-34-50.35-22.51,10.93-42.55,14.82-59.66,11.56-2.54-.48-4.53-2.47-5.01-5.01-3.26-17.11.63-37.15,11.56-59.66-23.65-8.19-40.56-19.61-50.35-34-1.45-2.14-1.45-4.95,0-7.09,9.78-14.39,26.7-25.81,50.35-34-10.93-22.51-14.82-42.55-11.56-59.66.48-2.54,2.47-4.53,5.01-5.01,17.11-3.26,37.15.63,59.66,11.56,8.19-23.65,19.61-40.57,34-50.35,2.14-1.45,4.95-1.45,7.09,0,14.39,9.79,25.81,26.7,34,50.35,22.5-10.93,42.55-14.82,59.66-11.56,2.54.48,4.53,2.47,5.01,5.01,3.26,17.11-.63,37.15-11.56,59.66,23.65,8.19,40.57,19.61,50.35,34,1.45,2.14,1.45,4.95,0,7.09-9.79,14.39-26.7,25.81-50.35,34,10.93,22.51,14.82,42.55,11.56,59.66-.48,2.54-2.47,4.53-5.01,5.01-17.11,3.26-37.15-.63-59.66-11.56-8.19,23.65-19.61,40.56-34,50.35-1.07.73-2.31,1.09-3.55,1.09Zm-33.83-66.72c.82,0,1.64.16,2.41.48,1.75.72,3.08,2.19,3.62,4,6.77,22.36,16.11,38.51,27.8,48.08,11.69-9.57,21.03-25.71,27.8-48.08.55-1.81,1.88-3.28,3.62-4,1.75-.72,3.72-.62,5.39.27,20.59,11.03,38.61,15.85,53.66,14.34,1.5-15.04-3.31-33.06-14.34-53.66-.89-1.67-.99-3.64-.27-5.39s2.19-3.08,4-3.62c22.36-6.77,38.51-16.11,48.08-27.79-9.57-11.69-25.71-21.03-48.08-27.8-1.81-.55-3.28-1.88-4-3.62-.72-1.75-.62-3.72.27-5.39,11.03-20.59,15.84-38.61,14.34-53.66-15.04-1.5-33.06,3.31-53.66,14.34-1.67.89-3.64.99-5.39.27-1.75-.72-3.07-2.19-3.62-4-6.77-22.36-16.11-38.51-27.8-48.08-11.69,9.57-21.03,25.71-27.8,48.08-.55,1.81-1.88,3.28-3.62,4-1.75.72-3.72.62-5.39-.27-20.59-11.03-38.61-15.84-53.66-14.34-1.5,15.04,3.31,33.07,14.34,53.66.89,1.67.99,3.64.27,5.39-.72,1.75-2.19,3.08-4,3.62-22.36,6.77-38.51,16.11-48.08,27.8,9.57,11.69,25.71,21.03,48.08,27.79,1.81.55,3.28,1.88,4,3.62.72,1.75.62,3.72-.27,5.39-11.03,20.59-15.84,38.61-14.34,53.66,15.04,1.5,33.07-3.31,53.66-14.34.93-.5,1.95-.75,2.98-.75Zm33.83-35.12c-22.2,0-40.25-18.06-40.25-40.25s18.06-40.25,40.25-40.25,40.25,18.06,40.25,40.25-18.06,40.25-40.25,40.25Zm0-67.9c-15.24,0-27.64,12.4-27.64,27.65s12.4,27.64,27.64,27.64,27.64-12.4,27.64-27.64-12.4-27.65-27.64-27.65Zm-139.52-56.66c-2.7,0-5.2-1.75-6.03-4.47-.52-1.7-.99-3.35-1.41-4.88-.91-3.36,1.07-6.82,4.43-7.74,3.36-.91,6.82,1.07,7.74,4.43.38,1.42.82,2.94,1.3,4.52,1.01,3.33-.87,6.85-4.2,7.87-.61.19-1.23.27-1.84.27Z"></path>
</symbol><symbol id="i112_other-23" xmlns="http://www.w3.org/2000/svg" viewBox="0 0 512 512">
  <path d="m256,466c-115.79,0-210-94.21-210-210,0-59.59,25.51-116.62,70-156.47,2.59-2.32,6.58-2.1,8.9.49,2.32,2.59,2.1,6.58-.49,8.9-40.25,36.05-63.97,87.06-65.7,140.77h163.34c3.48,0,6.3,2.82,6.3,6.3s-2.82,6.3-6.3,6.3H58.71c3.35,105.93,90.56,191.08,197.29,191.08s193.95-85.15,197.29-191.08h-163.34c-3.48,0-6.3-2.82-6.3-6.3s2.82-6.3,6.3-6.3h163.34c-3.35-105.93-90.56-191.09-197.29-191.09-25.82,0-50.91,4.91-74.57,14.6-3.22,1.32-6.9-.22-8.22-3.45-1.32-3.22.22-6.9,3.45-8.22,25.19-10.31,51.88-15.54,79.35-15.54,115.79,0,210,94.21,210,210s-94.21,210-210,210Zm56.26-67.9c-1.2,0-2.41-.34-3.48-1.05-38.86-25.82-131.71-15.12-132.65-15.01-3.46.41-6.59-2.06-7.01-5.51-.41-3.46,2.06-6.59,5.51-7.01,4-.48,98.4-11.35,141.12,17.03,2.9,1.93,3.69,5.84,1.76,8.74-1.21,1.83-3.22,2.82-5.26,2.82Zm34.86-71.19c-16.51,0-36.17-2.11-58.78-8.05-3.37-.89-5.38-4.33-4.49-7.7.89-3.37,4.34-5.38,7.7-4.49,70.62,18.57,110.67-2.97,111.07-3.19,3.04-1.68,6.88-.6,8.57,2.43,1.7,3.03.63,6.86-2.4,8.56-1.25.7-22.7,12.44-61.67,12.44Zm-214.09-7.85c-2.71,0-5.22-1.76-6.04-4.49-1-3.33.87-6.83,4.19-7.85.77-.23,19.34-5.73,57.29-3.52,3.48.2,6.13,3.19,5.93,6.66-.2,3.48-3.18,6.12-6.66,5.93-35.37-2.06-52.73,2.95-52.9,3-.6.18-1.21.26-1.8.26Zm29.59-117.76c-28.41,0-44.1-7.04-45.07-7.48-3.16-1.46-4.54-5.21-3.07-8.37,1.46-3.15,5.19-4.53,8.35-3.08.4.18,32.6,14.24,89-.37,3.37-.87,6.81,1.15,7.68,4.52.87,3.37-1.15,6.81-4.52,7.68-20.51,5.31-38.06,7.1-52.37,7.1Zm229.17,0c-1.15,0-2.31-.31-3.36-.97-30.38-19.16-71.23-3.1-71.64-2.93-3.23,1.3-6.9-.27-8.2-3.5-1.3-3.23.27-6.9,3.5-8.2,1.92-.77,47.3-18.59,83.07,3.96,2.95,1.86,3.83,5.75,1.97,8.7-1.2,1.9-3.25,2.94-5.34,2.94Zm-112.11-40.84c-3.43,0-6.25-2.75-6.3-6.2-.06-3.48,2.72-6.35,6.2-6.41,58.5-.96,58.99-31.96,58.98-33.27-.1-3.48,2.65-6.35,6.13-6.45,3.48-.13,6.38,2.68,6.48,6.16.02.56.25,13.95-11.47,26.21-12.23,12.79-32.39,19.51-59.91,19.96-.04,0-.07,0-.11,0Zm-91.57-19.57c-1.5,0-3.01-.53-4.21-1.62-2.58-2.33-2.8-6.29-.48-8.88.34-.38,8.48-9.37,22.94-15.78,13.31-5.91,34.79-10.75,61.51-.28,3.24,1.27,4.84,4.93,3.57,8.17-1.27,3.24-4.93,4.84-8.17,3.57-42.94-16.83-69.37,11.53-70.47,12.75-1.25,1.37-2.96,2.07-4.68,2.07Zm-40.84-50.83c-2.1,0-4.15-1.05-5.35-2.96-1.85-2.95-.96-6.84,1.99-8.69,2.44-1.53,4.75-2.93,7.06-4.28,3.01-1.76,6.87-.74,8.62,2.27,1.76,3.01.74,6.87-2.27,8.62-2.2,1.28-4.39,2.61-6.72,4.07-1.04.65-2.2.96-3.34.96Z"></path>
</symbol><symbol id="i112_other-3" xmlns="http://www.w3.org/2000/svg" viewBox="0 0 512 512">
  <path d="m256,466c-3.48,0-6.3-2.82-6.3-6.3v-49.42c-.06-.11-.12-.23-.18-.36-12.22-24.44-35.57-41.75-62.47-46.34-2.77-.47-5.59-.81-8.41-.99-3.47-.23-6.1-3.24-5.87-6.71.23-3.47,3.25-6.11,6.71-5.87,3.24.22,6.5.6,9.69,1.15,22.13,3.77,42.17,15.06,56.89,31.48-11.4-40.01-48.29-69.39-91.9-69.39h-33.44c-15.52,0-28.15,12.63-28.15,28.15,0,6.17,2.77,11.85,7.6,15.62,4.85,3.78,11.03,5.09,16.96,3.61,1.73-.43,3.49-.88,5.3-1.33l.77-.19c3.38-.85,6.8,1.2,7.65,4.57.85,3.38-1.2,6.8-4.57,7.65l-.77.19c-1.82.46-3.59.91-5.32,1.34-9.72,2.44-19.85.29-27.78-5.9-7.92-6.18-12.46-15.48-12.46-25.51,0-22.53,18.29-40.81,40.76-40.81h33.44c41.35,0,77.35,23.32,95.54,57.5v-32.72c-.06-.11-.12-.23-.18-.36-18.17-36.34-58.35-54.83-97.72-44.98-11.07,2.77-22,5.5-31.6,7.91-9.73,2.44-19.86.29-27.79-5.9-7.92-6.18-12.46-15.48-12.46-25.51,0-22.53,18.29-40.81,40.76-40.81h33.44c41.35,0,77.35,23.32,95.54,57.5v-32.72c-.06-.11-.12-.23-.18-.36-18.17-36.34-58.35-54.82-97.72-44.98l-1.95.49c-10.4,2.6-20.61,5.15-29.65,7.42-9.73,2.44-19.86.29-27.79-5.9-7.92-6.18-12.46-15.48-12.46-25.51,0-22.53,18.29-40.81,40.76-40.81h33.44c41.35,0,77.35,23.32,95.54,57.5v-32.72c-.06-.11-.12-.23-.18-.36-18.17-36.34-58.35-54.82-97.72-44.98-11.07,2.77-22,5.5-31.6,7.91-9.73,2.44-19.86.29-27.79-5.9-7.92-6.18-12.46-15.48-12.46-25.51,0-22.53,18.29-40.81,40.76-40.81h33.44c41.35,0,77.35,23.32,95.54,57.5v-51.2c0-3.48,2.82-6.3,6.3-6.3s6.3,2.82,6.3,6.3v51.2c18.19-34.18,54.19-57.5,95.54-57.5h33.44c22.48,0,40.76,18.29,40.76,40.76,0,10.09-4.54,19.38-12.46,25.56-7.93,6.19-18.05,8.34-27.78,5.9-9.61-2.41-20.54-5.14-31.6-7.91-39.37-9.85-79.55,8.64-97.7,44.94-.07.14-.14.27-.2.4v32.72c18.19-34.18,54.19-57.5,95.54-57.5h33.44c22.48,0,40.76,18.29,40.76,40.76,0,10.09-4.54,19.39-12.46,25.56-7.93,6.19-18.05,8.34-27.78,5.9-8.84-2.22-18.79-4.71-28.95-7.24l-2.66-.66c-39.37-9.84-79.55,8.64-97.7,44.94-.07.14-.14.27-.2.4v32.72c18.19-34.18,54.19-57.5,95.54-57.5h33.44c22.48,0,40.76,18.29,40.76,40.76,0,10.09-4.54,19.38-12.46,25.56-7.93,6.19-18.06,8.34-27.78,5.9-9.61-2.41-20.54-5.14-31.6-7.91-39.37-9.85-79.55,8.64-97.7,44.94-.07.14-.14.27-.2.4v32.72c18.19-34.18,54.19-57.5,95.54-57.5h33.44c22.48,0,40.76,18.29,40.76,40.76,0,10.09-4.54,19.38-12.46,25.56-7.93,6.19-18.06,8.33-27.78,5.9-8.41-2.11-17.82-4.46-27.46-6.87l-4.14-1.04c-39.37-9.84-79.55,8.64-97.7,44.95l-.2.4v49.42c0,3.48-2.82,6.3-6.3,6.3Zm101.85-152.77c-43.61,0-80.49,29.37-91.9,69.37,8.96-10,19.93-18.16,32.24-23.83,20.3-9.34,43.41-11.49,65.08-6.08l4.14,1.04c9.64,2.41,19.06,4.77,27.47,6.88,5.93,1.49,12.12.17,16.96-3.61,4.83-3.77,7.6-9.44,7.6-15.57,0-15.58-12.63-28.2-28.15-28.2h-33.44Zm-185.27-48.33c14.16,0,28.27,3.03,41.24,9,12.3,5.66,23.28,13.82,32.24,23.83-11.41-40-48.29-69.37-91.9-69.37h-33.44c-15.52,0-28.15,12.63-28.15,28.15,0,6.17,2.77,11.85,7.6,15.62,4.85,3.78,11.03,5.1,16.96,3.61,9.61-2.41,20.54-5.14,31.61-7.91,7.82-1.96,15.84-2.93,23.84-2.93Zm185.27-36.54c-43.61,0-80.49,29.37-91.9,69.37,8.96-10,19.93-18.16,32.24-23.82,20.29-9.34,43.41-11.5,65.08-6.08,11.07,2.77,22,5.5,31.61,7.91,5.93,1.49,12.11.17,16.96-3.61,4.83-3.77,7.6-9.44,7.6-15.57,0-15.58-12.63-28.2-28.15-28.2h-33.44Zm-185.27-48.33c14.16,0,28.27,3.03,41.24,9,12.3,5.66,23.28,13.82,32.24,23.83-11.41-40-48.29-69.37-91.9-69.37h-33.44c-15.52,0-28.15,12.63-28.15,28.15,0,6.17,2.77,11.85,7.6,15.62,4.84,3.78,11.03,5.09,16.96,3.61,9.04-2.27,19.26-4.82,29.66-7.42l1.95-.49c7.82-1.96,15.84-2.93,23.84-2.93Zm185.27-36.54c-43.61,0-80.49,29.37-91.9,69.37,8.96-10,19.93-18.16,32.24-23.83,20.29-9.34,43.41-11.5,65.08-6.07l2.66.66c10.15,2.54,20.12,5.03,28.95,7.25,5.93,1.49,12.12.17,16.96-3.61,4.83-3.77,7.6-9.44,7.6-15.57,0-15.57-12.63-28.2-28.15-28.2h-33.44Zm-185.28-48.33c14.16,0,28.27,3.03,41.24,9,12.3,5.66,23.28,13.82,32.24,23.83-11.41-40-48.29-69.37-91.9-69.37h-33.44c-15.52,0-28.15,12.63-28.15,28.15,0,6.17,2.77,11.85,7.6,15.62,4.84,3.78,11.03,5.09,16.96,3.61,9.61-2.41,20.54-5.14,31.61-7.91,7.82-1.96,15.84-2.93,23.84-2.93Zm185.28-36.54c-43.61,0-80.49,29.37-91.9,69.37,8.96-10,19.93-18.16,32.24-23.82,20.3-9.34,43.41-11.49,65.08-6.08,11.07,2.77,22,5.5,31.61,7.91,5.93,1.49,12.12.17,16.96-3.61,4.83-3.77,7.6-9.44,7.6-15.57,0-15.58-12.63-28.2-28.15-28.2h-33.44Zm-207.59,306.51c-2.83,0-5.41-1.92-6.12-4.79-.84-3.38,1.23-6.8,4.61-7.63,1.53-.38,3.08-.72,4.61-1.03,3.42-.68,6.74,1.53,7.42,4.95.68,3.41-1.53,6.74-4.95,7.42-1.34.27-2.71.57-4.05.91-.51.13-1.02.19-1.52.19Z"></path>
</symbol><symbol id="i112_other-4" xmlns="http://www.w3.org/2000/svg" viewBox="0 0 512 512">
  <path d="m268.63,466h-38.87c-21.67,0-39.3-17.63-39.3-39.3v-43.73c0-7.12-2.78-13.82-7.83-18.88l-17.86-17.85c-16.8-16.8-38.04-38.03-54.01-54.01-15.31-15.31-15.31-40.25,0-55.58.96-.94,1.87-1.85,2.78-2.76,15.32-15.31,40.25-15.32,55.58,0l16.53,16.53c-3.95-6.84-9.66-16.73-16.12-27.92-11.3-19.57-24.88-43.1-35.31-61.16-10.83-18.76-4.37-42.85,14.38-53.69,6.07-3.5,12.54-7.23,18.81-10.85,7.46-4.31,14.64-8.45,20.53-11.84,5.18-3.01,11.5-3.85,17.31-2.29,5.81,1.56,10.67,5.26,13.71,10.43.05.08.1.16.14.24h0c.57.99,1.63,1.6,2.77,1.6s2.22-.62,2.8-1.63c4.56-7.93,10.46-18.14,15.96-27.66,10.83-18.76,34.91-25.22,53.69-14.38.41.23.86.49,1.3.75.45.26.89.52,1.34.77,9,5.2,15.67,13.89,18.34,23.88,2.72,10.12,1.33,20.72-3.91,29.82l-.33.57c-14.16,24.52-33.25,57.57-40.67,70.46-.83,1.43-.83,3.2,0,4.62,2.9,5.02,8.06,8.47,13.8,9.22,5.76.76,11.63-1.24,15.71-5.33l28.44-28.44c7.42-7.42,17.29-11.51,27.79-11.51s20.37,4.09,27.79,11.51l17.29,17.29c7.42,7.42,11.51,17.29,11.51,27.79s-4.09,20.37-11.51,27.79l-56.67,56.67c-.07.18-.14.35-.22.53-.73,1.53-2,2.62-3.48,3.17l-25.1,25.1c-5.04,5.04-7.82,11.74-7.82,18.87v15.57c0,3.48-2.82,6.31-6.31,6.31s-6.31-2.82-6.31-6.31v-.44c-.14-.02-.29-.05-.43-.08l-54.97-11.94c-3.4-.74-5.56-4.1-4.82-7.5.74-3.4,4.1-5.56,7.5-4.82l52.73,11.45v-2.25c0-10.5,4.09-20.37,11.51-27.79l20.52-20.52-39.15-18.83c-3.14-1.51-4.46-5.28-2.95-8.42,1.51-3.14,5.28-4.46,8.42-2.95l43.13,20.75,55.49-55.5c5.04-5.04,7.81-11.74,7.81-18.88s-2.78-13.84-7.81-18.88l-17.29-17.29c-5.04-5.04-11.74-7.82-18.88-7.82s-13.83,2.78-18.87,7.82l-11.59,11.59,38.32,22.03c3.02,1.74,4.06,5.59,2.33,8.61-1.74,3.02-5.59,4.06-8.61,2.33l-41.28-23.72-7.61,7.61c-6.83,6.85-16.65,10.19-26.27,8.92-9.6-1.26-18.23-7.02-23.08-15.42-3.08-5.33-3.07-11.94,0-17.24,3.51-6.1,9.65-16.72,16.63-28.83-.15-.07-.3-.15-.45-.24l-22.84-13.28c-3.01-1.75-4.03-5.61-2.28-8.62s5.61-4.03,8.62-2.28l22.84,13.28c.14.08.27.16.4.25,6.01-10.41,12.25-21.22,17.75-30.74l.33-.57c3.56-6.18,4.5-13.38,2.66-20.26-1.81-6.79-6.34-12.69-12.43-16.2-.44-.25-.91-.52-1.39-.8-.42-.24-.84-.48-1.25-.72-12.79-7.38-29.14-2.99-36.5,9.75-5.51,9.53-11.39,19.73-15.97,27.68-2.36,4.05-6.37,6.82-10.86,7.65l-34.23,33.88c-2.48,2.45-6.47,2.43-8.92-.04-2.45-2.47-2.43-6.47.04-8.92l29.33-29.04c-1-.95-1.89-2.05-2.62-3.26-.06-.1-.13-.2-.19-.3-1.35-2.36-3.55-4.05-6.18-4.76-2.63-.7-5.38-.34-7.73,1.02-5.91,3.4-13.08,7.54-20.54,11.85-6.27,3.62-12.74,7.35-18.81,10.85-12.73,7.36-17.12,23.72-9.77,36.46,10.43,18.05,24.01,41.58,35.31,61.16.87,1.51,1.73,3,2.58,4.46.94-.52,2.02-.81,3.17-.78l42.65.89c3.48.07,6.24,2.95,6.17,6.44-.07,3.48-2.95,6.23-6.44,6.17l-38.68-.81c4.86,8.41,8.67,15.02,10.7,18.53,1.61,2.79,2.45,5.95,2.45,9.15,0,4.31-2.56,8.12-6.51,9.75-3.89,1.64-8.4.76-11.43-2.28l-24.91-24.91c-10.41-10.4-27.35-10.4-37.75,0-.94.94-1.88,1.88-2.82,2.8-10.36,10.37-10.36,27.31.04,37.71,8.59,8.59,18.7,18.71,28.82,28.83l10.44-16.81c1.84-2.96,5.72-3.87,8.68-2.03,2.96,1.84,3.87,5.72,2.03,8.68l-11.99,19.31c5.57,5.57,10.99,10.99,16.03,16.02l17.86,17.86c7.43,7.45,11.51,17.32,11.51,27.79v.51h38.19c3.48,0,6.31,2.82,6.31,6.31s-2.82,6.31-6.31,6.31h-38.19v30.61c0,14.72,11.97,26.69,26.69,26.69h38.87c14.72,0,26.69-11.97,26.69-26.69v-8.28c0-3.48,2.82-6.31,6.31-6.31s6.31,2.82,6.31,6.31v8.28c0,21.67-17.63,39.3-39.3,39.3Zm33-69.91c-3.48,0-6.31-2.82-6.31-6.31v-8.84c0-3.48,2.82-6.31,6.31-6.31s6.31,2.82,6.31,6.31v8.84c0,3.48-2.82,6.31-6.31,6.31Z"></path>
</symbol><symbol id="i112_other-5" xmlns="http://www.w3.org/2000/svg" viewBox="0 0 512 512">
  <path d="m352.49,485.01h-63.13c-6.15,0-12.15-2.49-16.47-6.83-.17-.17-.34-.34-.5-.52-.17.18-.35.36-.53.54-4.29,4.32-10.3,6.81-16.45,6.81h-47.87c-6.87,0-13.34-3.01-17.77-8.25-4.41-5.21-6.31-12.08-5.19-18.85l13.6-81.58v-4.43c0-36.42-20.24-69.16-52.82-85.45l-11.59-5.81c-2.61-1.31-3.99-4.24-3.32-7.09.67-2.85,3.21-4.86,6.14-4.86,41.35,0,77.35,23.32,95.54,57.5v-42.97c0-25.52-9.94-49.5-27.98-67.55l-38.07-38.07c-2.07-2.07-2.44-5.29-.91-7.77,1.54-2.49,4.58-3.59,7.36-2.67,0,0,14.31,4.77,32.2,10.73,27.02,9.01,48.63,27.9,61.35,51.87v-29.35c0-38.94-10.28-77.35-29.73-111.09l-8.57-14.87c-1.37-2.38-1.04-5.38.81-7.41,1.86-2.03,4.81-2.62,7.31-1.46,46.62,21.66,76.74,68.86,76.74,120.26v33.6c16.46-48.18,48.39-90.34,92.05-119.44,2.5-1.67,5.83-1.34,7.96.79s2.45,5.45.79,7.96l-29.48,44.23c-24.44,36.64-37.35,79.3-37.35,123.37v65.76l8.3,33.2c.84,3.38-1.21,6.8-4.59,7.65-3.38.84-6.8-1.21-7.65-4.59l-7.29-29.17h-56.67v112.52c0,2.82,1.14,5.56,3.12,7.53,1.99,2,4.74,3.14,7.55,3.14h63.13c3.26,0,6.4-1.53,8.4-4.1,2.02-2.58,2.75-5.99,1.95-9.16l-1.84-7.36c-1.11-4.45-2.3-9.24-3.56-14.25-.85-3.38,1.2-6.8,4.58-7.65,3.38-.85,6.8,1.2,7.65,4.58,1.26,5.01,2.46,9.82,3.57,14.27l1.83,7.34c1.73,6.92.15,14.39-4.25,19.99-4.42,5.68-11.11,8.95-18.34,8.95Zm-142.66-101.85l-12.8,76.82c-.51,3.1.35,6.25,2.37,8.63,2.03,2.41,5,3.78,8.14,3.78h47.87c2.82,0,5.56-1.14,7.53-3.12,2-1.99,3.14-4.74,3.14-7.56v-78.57h-56.25Zm34.91-12.61h21.34v-90.03c0-41.19-26.26-77.62-65.34-90.66-2.36-.79-4.66-1.55-6.87-2.29l19.19,19.19c20.42,20.42,31.67,47.58,31.67,76.46v87.31Zm-33.96,0h21.14c-2.5-38.15-27.49-70.27-61.81-83.17,9.66,7.71,17.96,17.05,24.52,27.66,10.33,16.72,15.9,35.88,16.14,55.5Zm101.86-33.95h21.34v-60.24c0-46.57,13.65-91.65,39.47-130.37l6.73-10.1c-42.84,41.49-67.54,98.79-67.54,159.66v41.04Zm-33.95,0h21.34v-150.74c0-38.73-18.9-74.83-49.58-97.14,18.49,34.25,28.24,72.73,28.24,111.7v136.18Zm78.56,80.51c-2.83,0-5.4-1.91-6.11-4.78l-.43-1.72c-.5-2.01-1-4.01-1.5-6.02-.83-3.38,1.24-6.8,4.62-7.62,3.38-.83,6.8,1.24,7.62,4.62.49,1.98.98,3.97,1.48,5.96l.43,1.72c.84,3.38-1.21,6.8-4.59,7.64-.51.13-1.03.19-1.53.19Z"></path>
</symbol><symbol id="i112_other-6" xmlns="http://www.w3.org/2000/svg" viewBox="0 0 512 512">
  <path d="m231.01,472.37c-20.21,0-49.18-4.33-75.81-24.19-38.26-28.53-59.61-79.98-63.47-152.93-.15-2.9,1.7-5.53,4.48-6.37,2.79-.84,5.78.34,7.25,2.85.1.17,4.93,8.3,13.23,18.9-.84-2.12-1.65-4.3-2.4-6.54-6.92-20.54-8.43-42.18-4.48-64.33,4.87-27.33,18.11-55.44,39.34-83.54.14-.2.29-.38.46-.56.63-.68,1.37-1.2,2.19-1.54.8-.34,1.65-.5,2.58-.5.77.01,1.54.17,2.27.47.7.29,1.33.69,1.88,1.19.68.62,1.2,1.37,1.54,2.18.34.79.52,1.67.5,2.57,0,.23-.02.47-.05.7-.11,1.05-1.25,12.86.7,31.03,1.25-15.89,4.49-33.21,11.08-50.63,1.23-3.26,4.87-4.9,8.13-3.66,3.26,1.23,4.9,4.87,3.66,8.13-21.25,56.12-4.58,113.19-4.41,113.76.95,3.18-.72,6.56-3.84,7.72-3.12,1.16-6.59-.29-7.95-3.32-15.2-33.89-19.39-64.16-20.27-83.31-26.83,41.9-34.02,82.07-21.37,119.63,10.63,31.55,31.81,49.23,32.02,49.4,2.56,2.1,3.05,5.83,1.13,8.53s-5.61,3.45-8.43,1.71c-18.94-11.64-34.45-28.67-44.71-41.89,6.5,56.64,25.41,97.01,56.36,120.16,21.23,15.88,44.59,20.65,62.39,21.51-2.37-7.63-4.39-15.94-6.07-24.91l-56.58-32.96c-3.01-1.75-4.03-5.61-2.27-8.62s5.61-4.02,8.62-2.27l47.68,27.78c-2.84-21.57-4-46.4-3.45-74.37l-51.52-44.44c-2.64-2.27-2.93-6.25-.66-8.89,2.27-2.64,6.26-2.93,8.89-.66l43.78,37.76c.83-20.26,2.47-42.04,4.94-65.3,7.15-67.49,18.95-123.07,19.07-123.63.73-3.4,4.08-5.57,7.48-4.85,3.4.73,5.57,4.08,4.85,7.48-.3,1.41-19.37,91.93-23.47,183.04l50.56-52.64c2.41-2.51,6.4-2.59,8.91-.18,2.51,2.41,2.59,6.4.18,8.91l-60.28,62.76c-.54,25.93.34,51.41,3.41,74.37l67.69-50.44c2.79-2.08,6.74-1.5,8.82,1.29,2.08,2.79,1.5,6.74-1.29,8.82l-73,54.39c1.81,9.83,4.11,19.07,6.95,27.52,9.57-.5,15.62-1.88,15.79-1.93.23-.06.48-.1.72-.13,35.87-4.26,62.63-18.84,79.56-43.34,26.07-37.74,23.18-90.54,19.43-117.52-28.43,45.47-64.13,38.65-65.79,38.3-2.36-.49-4.23-2.29-4.82-4.62-.59-2.34.2-4.8,2.04-6.36,36.92-31.21,53.58-73.4,49.52-125.41-1.15-14.78-3.89-28.25-6.86-39.33-6.85,52.7-33.58,72.48-34.93,73.44-2.16,1.55-5.06,1.57-7.24.06s-3.19-4.22-2.52-6.79c22.36-85.15-17.48-144.16-29.19-159.13-12.05,6.77-22.9,14.57-32.3,23.23-2.56,2.36-6.55,2.2-8.91-.36-2.36-2.56-2.2-6.55.36-8.91,11.35-10.46,24.62-19.72,39.43-27.55,2.52-1.33,5.62-.81,7.57,1.29.65.7,16.14,17.59,28.25,47.62,9.4,23.29,18.17,58.56,12.02,102.01.52-.89,1.04-1.83,1.57-2.79,7.4-13.74,15.97-37.88,14.73-74.84-.1-2.98,1.91-5.63,4.8-6.33,2.9-.71,5.9.71,7.18,3.41.63,1.31,15.35,32.51,18.58,74.01,3.82,48.91-10.22,91.25-40.74,123.54,12.5-3.76,30.09-14.83,44.49-45.99,1.12-2.43,3.65-3.88,6.31-3.63,2.66.25,4.88,2.15,5.52,4.75.89,3.56,21.32,87.85-18.14,145.06-19.01,27.56-48.66,43.94-88.13,48.7-2.17.49-11.86,2.49-25.57,2.49Zm-35.83-355.23c-1.22,0-2.46-.35-3.55-1.1-2.88-1.96-3.62-5.88-1.66-8.76,1.25-1.83,2.64-3.76,4.27-5.91,2.1-2.78,6.05-3.32,8.83-1.22s3.32,6.06,1.22,8.83c-1.5,1.98-2.77,3.74-3.9,5.4-1.22,1.79-3.2,2.75-5.21,2.75Z"></path>
</symbol><symbol id="i112_other-7" xmlns="http://www.w3.org/2000/svg" viewBox="0 0 512 512">
  <path d="m262.86,485.01c-.1,0-.2,0-.3,0-3.48-.16-6.16-3.12-6-6.6.02-.46,1.11-24.8.01-61.29h-61.61c-40.92,0-74.2-33.29-74.2-74.2,0-3.48,2.82-6.3,6.3-6.3h67.9c23.93,0,45.25,11.39,58.83,29.02-1.69-21.53-4.22-44.75-7.94-68.33-2.98-18.88-6.5-36.71-10.56-53.43-1.35-2.91-2.24-6.06-2.61-9.37-4.69,10.72-15.4,18.22-27.83,18.22-16.74,0-30.36-13.62-30.36-30.36s13.62-30.34,30.36-30.34c6.12,0,11.83,1.82,16.61,4.95-1.72-4.86-3.5-9.58-5.34-14.18-3.75-4.45-6.25-10-6.94-16.09-.76-1.65-1.54-3.28-2.32-4.88-1.76-3.61-3.56-7.12-5.4-10.53-1.12,15.72-14.28,28.17-30.28,28.17s-30.36-13.62-30.36-30.36,13.62-30.36,30.36-30.36c3.59,0,7.04.63,10.24,1.78-16.45-20.83-35.37-35.34-56.58-43.31-3.26-1.23-4.91-4.86-3.68-8.12,1.23-3.26,4.86-4.91,8.12-3.68,16.55,6.22,31.78,15.97,45.6,29.16.42-16.37,13.87-29.56,30.35-29.56s30.36,13.62,30.36,30.36-13.62,30.36-30.36,30.36c-1.6,0-3.17-.12-4.7-.36,4.57,6.79,8.92,14.08,13.06,21.86,5.37-8.59,14.91-14.32,25.76-14.32,16.73,0,30.34,13.62,30.34,30.36s-13.61,30.36-30.34,30.36c-2.02,0-3.99-.2-5.9-.57,2.13,6.03,4.17,12.25,6.13,18.65,5.57-6.66,13.94-10.89,23.28-10.89,16.74,0,30.36,13.62,30.36,30.36s-13.62,30.36-30.36,30.36c-3.93,0-7.68-.75-11.13-2.11,2.44,11.58,4.64,23.63,6.61,36.11,2.31,14.66,4.16,29.19,5.64,43.25,15.44-41.04,55.1-70.31,101.46-70.31h33.22c3.48,0,6.3,2.82,6.3,6.3v.03c0,59.75-48.61,108.36-108.36,108.36h-26.91v27.64c0,.96-.22,1.89-.62,2.73,1.29,38.85.11,64.99.09,65.47-.16,3.38-2.95,6.01-6.29,6.01Zm-129.18-135.8c3.17,31.01,29.44,55.29,61.27,55.29h36.64l-52.83-21.82c-3.22-1.33-4.75-5.02-3.42-8.23,1.33-3.22,5.01-4.75,8.23-3.42l72.16,29.8c-4.78-29.24-30.22-51.62-60.79-51.62h-61.27Zm148.05,21.34h14.87c50.69,0,92.3-39.59,95.54-89.47h-26.71c-48.17,0-88.15,35.76-94.78,82.12l65.7-51.19c2.75-2.14,6.71-1.65,8.85,1.1,2.14,2.75,1.65,6.71-1.1,8.85l-62.37,48.59Zm-34.53-131.03c2.99,5.58,8.89,9.39,15.66,9.39,9.79,0,17.75-7.96,17.75-17.75s-7.96-17.75-17.75-17.75-17.75,7.96-17.75,17.75v.11c.71,2.72,1.41,5.47,2.09,8.25Zm-42.35-34.9c-9.79,0-17.75,7.95-17.75,17.73s7.96,17.75,17.75,17.75,17.75-7.96,17.75-17.75-7.96-17.73-17.75-17.73Zm22.1-28.66c3.2,3.12,7.57,5.05,12.39,5.05,9.78,0,17.73-7.96,17.73-17.75s-7.95-17.75-17.73-17.75-17.75,7.96-17.75,17.75c0,.09,0,.18,0,.26,1.83,4.03,3.62,8.18,5.36,12.43Zm-55.78-44.6c-9.79,0-17.75,7.96-17.75,17.75s7.96,17.75,17.75,17.75,17.75-7.96,17.75-17.75-7.96-17.75-17.75-17.75Zm34.05-53.74c-9.79,0-17.75,7.96-17.75,17.75s7.96,17.75,17.75,17.75,17.75-7.96,17.75-17.75-7.96-17.75-17.75-17.75Z"></path>
</symbol><symbol id="i112_other-8" xmlns="http://www.w3.org/2000/svg" viewBox="0 0 512 512">
  <path d="m255.69,471.91c-27.17,0-55.75-13.79-82.32-40.13-32.39-32.11-58.13-79.26-72.47-132.79-6.31-23.52-10.12-47.22-11.33-70.44-.18-3.48,2.49-6.44,5.97-6.62,3.44-.17,6.44,2.49,6.62,5.97,1.16,22.34,4.83,45.16,10.92,67.83,13.77,51.4,38.33,96.54,69.16,127.1,27.8,27.55,57.45,40.01,84.24,35.59l-6.39-23.85-80.79-46.63c-3.01-1.74-4.05-5.6-2.31-8.61,1.74-3.02,5.6-4.05,8.61-2.31l69.87,40.33-12.93-48.28-80.8-46.64c-3.01-1.74-4.05-5.6-2.31-8.61,1.74-3.02,5.59-4.05,8.61-2.31l69.88,40.34-12.93-48.27-80.8-46.66c-3.01-1.74-4.05-5.6-2.31-8.61,1.74-3.02,5.6-4.05,8.61-2.31l69.88,40.35-12.94-48.29-80.8-46.66c-3.02-1.74-4.05-5.6-2.31-8.61,1.74-3.02,5.6-4.05,8.61-2.31l69.88,40.35-22.39-83.56c-.9-3.36,1.09-6.82,4.46-7.72,3.37-.9,6.82,1.09,7.72,4.46l22.39,83.57,40.34-69.88c1.74-3.01,5.6-4.05,8.61-2.31,3.01,1.74,4.05,5.6,2.31,8.61l-46.64,80.8,12.93,48.28,40.34-69.87c1.74-3.02,5.59-4.05,8.61-2.31,3.01,1.74,4.05,5.6,2.31,8.61l-46.64,80.8,12.93,48.27,40.35-69.88c1.74-3.02,5.6-4.05,8.61-2.31,3.02,1.74,4.05,5.6,2.31,8.61l-46.66,80.8,12.94,48.3,40.34-69.89c1.74-3.02,5.6-4.05,8.61-2.31,3.01,1.74,4.05,5.6,2.31,8.61l-46.65,80.81,6.39,23.83c25.4-9.56,44.86-35.18,55.16-72.94,9.72-35.64,10.23-78.14,1.69-121.68-.1-.11-.19-.21-.28-.33-1.42-1.77-1.74-4.06-1.03-6.06-1.19-5.52-2.53-11.05-4.01-16.58-13.77-51.39-38.33-96.52-69.17-127.08-29.96-29.69-62.06-41.85-90.4-34.26-28.35,7.6-50.08,34.19-61.18,74.88-.92,3.36-4.38,5.34-7.74,4.42-3.36-.92-5.34-4.38-4.42-7.74,12.33-45.2,37.22-74.94,70.08-83.74,24.98-6.7,52.02-.6,78.17,17.2.33-1.08.96-2.08,1.87-2.88,22.42-19.63,47.05-28.63,71.26-26.01,33.81,3.64,62.97,29.2,82.09,71.97,18.62,41.63,25.59,94.9,19.65,149.99-5.95,55.08-24.14,105.63-51.22,142.33-27.49,37.26-60.96,56.01-94.4,52.91-6.25,1.57-12.63,2.35-19.08,2.35Zm91.81-92.31c-.48,1.99-.99,3.97-1.52,5.93-7.94,29.09-21.07,51.78-38.19,66.6,18.07-7.18,35.59-21.76,51.24-42.97,25.77-34.93,43.11-83.3,48.82-136.2,5.71-52.9-.9-103.86-18.62-143.49-17.22-38.5-42.76-61.43-71.94-64.58-20.61-2.23-41.91,5.71-61.6,22.96-.2.17-.4.33-.61.47,4.98,3.98,9.92,8.38,14.79,13.21,11.87,11.76,22.84,25.54,32.69,40.91l1.84-17.08c.37-3.46,3.48-5.97,6.94-5.59,3.46.37,5.97,3.48,5.59,6.94l-3.12,28.92c-.14,1.29-.66,2.44-1.43,3.36,6.28,11.42,11.99,23.54,17.02,36.22l41.08-33.09c2.71-2.18,6.68-1.76,8.86.95,2.18,2.71,1.76,6.68-.95,8.86l-43.42,34.98c-.3.24-.61.45-.94.63,3.08,8.7,5.85,17.64,8.3,26.76.9,3.34,1.74,6.68,2.53,10.02l18.35-14.77c2.71-2.18,6.68-1.76,8.86.96,2.18,2.71,1.76,6.68-.96,8.86l-23.27,18.73c2.71,13.8,4.54,27.51,5.49,40.97l2.6-2.1c2.71-2.18,6.68-1.75,8.86.96s1.75,6.68-.96,8.86l-9.8,7.88c.34,16.84-.75,33.16-3.28,48.6,2.38-.73,5.08.01,6.74,2.07,2.19,2.71,1.77,6.68-.94,8.87l-4.93,3.98c-1.22.99-2.7,1.44-4.15,1.4ZM96.06,200.61c-.15,0-.29,0-.44-.02-3.47-.24-6.1-3.25-5.86-6.72.27-3.87.57-7.31.92-10.52.38-3.46,3.5-5.95,6.96-5.58,3.46.38,5.96,3.5,5.58,6.96-.33,3.03-.62,6.3-.88,10-.23,3.33-3,5.87-6.28,5.87Z"></path>
</symbol><symbol id="i112_other-9" xmlns="http://www.w3.org/2000/svg" viewBox="0 0 512 512">
  <path d="m228.76,484.92c-.44,0-.87-.05-1.28-.13,0,0,0,0-.01,0-.27-.06-.53-.13-.78-.22-.11-.04-.22-.08-.32-.12-.71-.29-1.35-.71-1.9-1.22-.52-.49-.96-1.07-1.3-1.71h0s0,0,0-.01c-.11-.22-.22-.45-.3-.69-.06-.16-.11-.33-.16-.5,0,0,0,0,0,0h0c-.07-.24-.12-.49-.16-.74-.29-1.58-5.01-25.75-24.34-37.42-13.37-8.07-30.97-8.59-52.32-1.55-3.31,1.09-6.87-.71-7.96-4.01-.22-.66-.32-1.32-.32-1.98,0-2.65,1.68-5.11,4.33-5.99,25.07-8.27,46.23-7.33,62.9,2.8,2.77,1.69,5.3,3.55,7.6,5.54-8.17-20.69-20.58-36.36-37.12-46.8-47.25-29.83-113.57-7.65-114.24-7.42-3.3,1.12-6.88-.62-8.01-3.92-.23-.68-.34-1.37-.34-2.05,0-2.62,1.64-5.06,4.25-5.96,2.94-1.01,72.59-24.38,125.01,8.65,19.15,12.07,33.36,30.02,42.5,53.63.39-13.6.68-29.67.68-47.36,0-20.85-.4-43.93-1.53-67.86l-65.98-5.31c-10.72-.86-20.46-5.84-27.43-14.03-6.25-7.34-9.6-16.47-9.6-26.01,0-1.1.04-2.21.13-3.32.28-3.47,3.31-6.06,6.79-5.78l67.71,5.45c10.37.84,19.51,5.56,26.11,12.62-.93-11.86-2.02-23.25-3.28-34.2-.69.19-1.42.26-2.15.2l-67.68-5.45c-21.03-1.7-37.03-19.38-37.02-40.13,0-1.07.04-2.14.13-3.22.13-1.67.92-3.21,2.2-4.3,1.27-1.08,2.91-1.62,4.59-1.48l67.71,5.45c11.07.89,20.74,6.2,27.42,14.07-2.52-15.49-5.43-29.84-8.72-43.01h-63.53c-22.2,0-40.25-18.06-40.25-40.25,0-3.48,2.82-6.3,6.3-6.3h67.93c5.54,0,10.82,1.13,15.63,3.16-9.43-22.88-20.7-39.62-33.68-49.83-1.58-1.24-2.41-3.09-2.41-4.96,0-1.36.44-2.74,1.35-3.89,2.15-2.74,6.12-3.21,8.85-1.06,16.47,12.96,30.2,34.33,41.16,63.97,3.3-7.7,9.02-14.44,16.82-18.95l58.84-33.97c3.02-1.74,6.87-.71,8.61,2.31,3.58,6.2,5.41,13.08,5.41,20.06,0,3.5-.46,7.02-1.39,10.49-2.78,10.39-9.44,19.07-18.76,24.45-23.47,13.55-53.24,30.74-58.11,33.55,2.3,9.4,4.41,19.36,6.33,29.88,3.1-2.99,6.7-5.48,10.71-7.38,26.77-12.71,61.36-29.13,61.36-29.13,3.14-1.49,6.9-.15,8.4,2.99,2.6,5.48,3.92,11.35,3.91,17.24,0,4.55-.78,9.11-2.35,13.52-3.61,10.13-10.94,18.25-20.66,22.86l-54.61,25.92c.92,7.96,1.76,16.17,2.52,24.62,3.08-3,6.7-5.56,10.79-7.51,26.77-12.7,61.37-29.13,61.37-29.13,1.51-.72,3.24-.81,4.82-.24,1.58.56,2.86,1.72,3.58,3.23,2.6,5.48,3.92,11.35,3.91,17.25,0,4.55-.78,9.11-2.35,13.53-3.61,10.13-10.94,18.25-20.66,22.86l-58.24,27.64c1.17,24.47,1.59,48.09,1.59,69.39,0,13.57-.17,26.19-.42,37.5,9.07-18.8,21.84-33.43,38.22-43.75,52.42-33.03,122.07-9.66,125.01-8.65,2.61.9,4.26,3.35,4.26,5.96,0,.68-.11,1.37-.34,2.05-1.13,3.29-4.71,5.04-8.01,3.91h0c-.66-.23-66.99-22.4-114.24,7.42-16.54,10.44-28.95,26.11-37.12,46.8,2.3-1.99,4.83-3.86,7.6-5.54,16.67-10.12,37.84-11.07,62.9-2.8,2.65.87,4.33,3.34,4.33,5.99,0,.65-.1,1.32-.32,1.98-1.09,3.31-4.66,5.1-7.96,4.01-21.35-7.04-38.96-6.52-52.32,1.55-19.31,11.66-24.04,35.8-24.34,37.42-.02.12-.04.24-.06.35-.05.24-.11.47-.19.69-.07.22-.16.44-.25.65,0,0,0,0,0,0,0,0,0,0,0,0-.29.63-.69,1.21-1.16,1.7-.48.51-1.06.94-1.7,1.27-.22.11-.45.22-.69.3-.11.04-.23.08-.35.12,0,0-.01,0-.01,0,0,0,0,0-.01,0h0c-.53.16-1.08.25-1.65.26-.05,0-.11,0-.16,0Zm-95.23-208.36c.75,5.05,2.9,9.81,6.29,13.8,4.79,5.62,11.47,9.05,18.83,9.63l60.67,4.88c-1.86-12.4-12.07-22.38-25.09-23.43l-60.71-4.89Zm101.07,12.92c.28,3.96.54,7.97.78,12.03.02.4.05.8.07,1.2l53.55-25.42c6.67-3.17,11.71-8.75,14.19-15.7,1.08-3.03,1.62-6.16,1.62-9.29,0-1.96-.21-3.92-.63-5.84-11.22,5.33-35.26,16.74-55.02,26.12-7.29,3.46-12.36,9.73-14.55,16.91Zm-110.45-83.43c1.88,12.4,12.09,22.38,25.12,23.43l60.69,4.89c-1.86-12.41-12.08-22.39-25.1-23.43l-60.7-4.88Zm102.43,9.32c.78,5.06,1.52,10.24,2.22,15.53l50.83-24.13c6.67-3.17,11.71-8.74,14.19-15.7,1.08-3.03,1.62-6.16,1.62-9.28,0-1.96-.21-3.91-.63-5.84-11.22,5.32-35.25,16.73-55.02,26.12-5.89,2.79-10.5,7.46-13.21,13.3Zm-112.46-79.9c2.86,12.21,13.84,21.34,26.92,21.34h60.16c-.72-2.51-1.45-4.98-2.2-7.39-4.76-8.33-13.73-13.94-23.98-13.94h-60.9Zm101.13,10.7c0,2.67.39,5.35,1.18,7.97,10.75-6.21,33.78-19.51,52.72-30.44,6.4-3.69,10.97-9.65,12.88-16.79.64-2.38.95-4.8.95-7.2,0-2.7-.4-5.37-1.18-7.95l-52.75,30.45c-8.84,5.11-13.79,14.41-13.8,23.95Z"></path>
</symbol>
</svg>