<svg xmlns="http://www.w3.org/2000/svg" style="display: none;">

<symbol id="i113_other-1" xmlns="http://www.w3.org/2000/svg" viewBox="0 0 512 512">
  <path d="m233.52,98.01c1.29-2.74.81-5.99-1.2-8.25-2.01-2.26-5.18-3.12-8.05-2.14-.59.19-53.57,18.52-59.76,72.17-9.69-7.37-23.92-14.53-39.89-10.85-2.58.6-4.66,2.51-5.49,5.04-.83,2.52-.26,5.3,1.47,7.31.33.38,32.8,38.73,20.99,92.13-.31,1.69-7.18,41.69,18.88,74.12,19.42,24.16,51.47,37.26,95.24,38.91,2.52.1,4.98.14,7.4.14,55.59,0,84.93-24.6,99.87-45.75,30.97-43.83,27.13-108.01,9.57-152.17-.89-2.25-2.8-3.94-5.14-4.53-2.34-.62-4.82-.07-6.7,1.47l-12.05,9.88c4.16-19.17,7.5-44.43-.3-55.92-2.94-4.33-7.18-6.85-12.27-7.27-3.52-.4-6.86,1.95-7.88,5.38-.07.21-4.92,16.11-15.23,30.59.54-26.64-2.04-71.24-23.15-91.4-9.36-8.94-21.13-12.39-35-10.26-2.79.43-5.11,2.37-6.02,5.04-.91,2.67-.25,5.63,1.69,7.67.11.11,10.87,11.93,10,30.48-.76,16.25-9.87,32.93-27.1,49.67-3.85-8.91-7.86-24.49.1-41.46Zm42.13-7.51c.55-11.6-2.27-21.2-5.54-28.25,3.44,1.07,6.51,2.92,9.27,5.55,20.85,19.9,19.6,78.94,17.36,100.01-.32,3.03,1.19,5.95,3.86,7.42,2.65,1.48,5.94,1.21,8.34-.66,14.4-11.27,23.72-28.06,28.86-39.62,1.33,12.99-3.22,38.2-9.53,58.9-.97,3.19.26,6.65,3.03,8.5,2.77,1.86,6.43,1.68,9.01-.44l21.73-17.81c12.89,39.57,14.1,91.88-11.42,127.99-19.54,27.64-51.24,40.79-94.33,39.22-39.11-1.49-67.34-12.63-83.9-33.14-21.77-26.96-15.95-61.74-15.95-61.79,9.24-41.78-5.02-74.92-15.35-92.13,13.85,4.07,24.58,17.39,24.72,17.56,2.05,2.61,5.58,3.58,8.7,2.37,3.1-1.21,5.06-4.31,4.81-7.62-2.82-37.26,19.45-57.74,35.14-67.42-3.87,25.89,10.06,45.83,10.78,46.83,1.24,1.74,3.15,2.87,5.27,3.12,2.11.26,4.25-.41,5.85-1.81,25.01-21.7,38.23-44.17,39.29-66.8Z"></path>
  <path d="m411.33,385.45h0s-4.98-22.16-4.98-22.16c-.89-3.95-3.26-7.32-6.68-9.48-3.42-2.17-7.48-2.86-11.42-1.98l-132.26,29.74-132.25-29.74c-3.95-.89-8-.18-11.42,1.98-3.42,2.16-5.79,5.53-6.68,9.47l-4.98,22.17c-1.83,8.15,3.31,16.26,11.46,18.1l23.06,5.18-23.06,5.18c-8.15,1.83-13.28,9.95-11.46,18.1l4.98,22.15c.89,3.95,3.26,7.32,6.68,9.48,2.46,1.55,5.23,2.35,8.06,2.35,1.12,0,2.24-.12,3.35-.38l132.24-29.73,132.27,29.73c1.11.25,2.24.38,3.35.38,2.83,0,5.61-.8,8.07-2.35,3.42-2.16,5.79-5.53,6.68-9.47l4.98-22.17c1.83-8.15-3.31-16.26-11.46-18.09l-23.06-5.18,23.06-5.18c8.15-1.83,13.28-9.95,11.46-18.1Zm-295.89,3.32l4.98-22.16,101.05,22.72-51.78,11.64-54.26-12.2Zm4.98,62.08l-4.98-22.16,276.13-62.08,4.98,22.16-276.13,62.09Zm276.13-22.16l-4.98,22.16-101.07-22.72,51.8-11.65,54.25,12.2Z"></path>
  <path d="m195.53,236.58c-2.68,5.38-5.43,40.66,11.76,65.68,8.54,12.43,25.01,26.41,55.86,26.41,3.37,0,6.92-.17,10.65-.53,22.91-2.17,39.46-11.11,49.16-26.54,19.49-30.99,3.11-76.38,2.41-78.3-1.21-3.28-4.5-5.32-8-4.9-3.48.42-6.22,3.17-6.62,6.65-1.07,9.18-6.63,15.96-12.09,20.51.98-56.34-47.66-70.51-48.2-70.66-2.63-.72-5.43,0-7.36,1.92-1.93,1.91-2.69,4.72-1.98,7.34,5.8,21.56.82,45.84-3.44,60.34-13.82-11.96-34.27-12.13-35.37-12.13-2.87,0-5.5,1.63-6.78,4.2Zm13.33,11.59c7.71,1.23,19.99,4.81,24.31,15.22,1.17,2.82,3.9,4.65,6.95,4.67h.03c3.04,0,5.78-1.8,6.97-4.58.68-1.58,14.54-34.42,11.29-68.24,12.63,8.11,29.82,26.23,23.87,63.38-.43,2.68.61,5.38,2.72,7.08,2.11,1.71,4.98,2.15,7.5,1.18.82-.33,14.07-5.61,23.67-17.55,2.04,13.51,2.26,31.01-6.04,44.21-7.08,11.26-19.79,17.82-37.78,19.54-22.24,2.1-38.92-3.08-49.55-15.43-13.27-15.41-14.5-38.51-13.96-49.48Z"></path>
</symbol><symbol id="i113_other-10" xmlns="http://www.w3.org/2000/svg" viewBox="0 0 512 512">
  <path d="m310.67,466H85.98c-20.77,0-37.66-16.87-37.66-37.6v-111.16c0-82.71,67.29-150.01,150.01-150.01,40.12,0,77.77,15.6,106.03,43.92,17.4,17.4,30.38,39.04,37.53,62.57,4.24,14.13,6.39,28.76,6.39,43.51v111.16c0,20.73-16.86,37.6-37.6,37.6Zm-112.34-286.15c-75.76,0-137.4,61.64-137.4,137.4v111.16c0,13.78,11.24,24.99,25.05,24.99h224.69c13.78,0,24.99-11.21,24.99-24.99v-111.16c0-13.52-1.97-26.93-5.85-39.87-6.54-21.54-18.43-41.36-34.38-57.31-25.87-25.94-60.36-40.22-97.1-40.22Z"></path>
  <rect x="54.62" y="398.48" width="287.36" height="12.61"></rect>
  <path d="m104.97,213.77h-12.61v-69.87c0-18.49,6.69-36.34,18.84-50.27,12.03-13.79,28.57-22.83,46.57-25.45l1.81,12.48c-31.14,4.53-54.62,31.72-54.62,63.24v69.87Z"></path>
  <path d="m302.84,212.46h-12.61v-68.55c0-30.19-21.41-56.52-50.91-62.59l2.54-12.35c35.33,7.27,60.98,38.79,60.98,74.94v68.55Z"></path>
  <path d="m236.76,101.4h-74.27c-5.57,0-10.11-4.53-10.11-10.11v-35.18c0-5.57,4.53-10.11,10.11-10.11h74.27c5.57,0,10.11,4.53,10.11,10.11v35.18c0,5.57-4.53,10.11-10.11,10.11Zm-71.77-12.61h69.27v-30.18h-69.27v30.18Z"></path>
  <path d="m199.63,179.84c-15.49,0-28.1-12.6-28.1-28.09s12.6-28.09,28.1-28.09,28.09,12.6,28.09,28.09-12.6,28.09-28.09,28.09Zm0-43.58c-8.54,0-15.49,6.95-15.49,15.49s6.95,15.49,15.49,15.49,15.48-6.95,15.48-15.49-6.95-15.49-15.48-15.49Z"></path>
  <rect x="76.97" y="234" width="242.71" height="12.61"></rect>
  <path d="m341.96,363.78c-1,0-2-.24-2.92-.72-2.08-1.09-3.39-3.24-3.39-5.59v-40.23c0-13.52-1.97-26.93-5.85-39.87-.78-2.61.2-5.43,2.43-6.98l40.17-28c2.86-1.99,6.79-1.29,8.78,1.57l40.43,57.98c.96,1.37,1.33,3.07,1.04,4.71-.29,1.65-1.23,3.11-2.6,4.07l-74.48,51.93c-1.08.75-2.34,1.13-3.61,1.13Zm1.18-85.61c3.4,12.74,5.13,25.86,5.13,39.07v28.15l59.4-41.42-33.22-47.64-31.31,21.83Z"></path>
  <path d="m426.87,321.31c-.8,0-1.61-.07-2.42-.21-3.57-.64-6.68-2.63-8.76-5.61l-49.27-70.67c-2.08-2.98-2.87-6.58-2.23-10.16s2.63-6.68,5.61-8.76l32.48-22.64c3.21-2.24,7.23-2.98,11.02-2.05,3.8.93,7.01,3.46,8.81,6.93l40.05,77.1c3.13,6.04,1.29,13.52-4.29,17.41l-23.25,16.21c-2.31,1.61-4.99,2.45-7.74,2.45Zm-16.83-107.89c-.16,0-.36.04-.55.18l-32.48,22.64c-.28.19-.37.45-.4.63s-.03.46.16.73l49.27,70.67c.19.27.45.37.63.4.18.03.46.03.73-.16l23.25-16.21h0c.4-.28.54-.82.31-1.25l-40.05-77.1c-.17-.32-.44-.45-.63-.5-.07-.02-.15-.03-.24-.03Z"></path>
</symbol><symbol id="i113_other-11" xmlns="http://www.w3.org/2000/svg" viewBox="0 0 512 512">
  <path d="m113.78,222.3c-1.05,0-2.12-.26-3.11-.82-3.03-1.72-4.09-5.57-2.37-8.6,11.13-19.62,6.77-25.48.72-33.58-6.7-8.99-15.04-20.17-.75-45.9,1.69-3.04,5.53-4.14,8.57-2.45,3.04,1.69,4.14,5.53,2.45,8.57-10.33,18.6-6.07,24.32-.17,32.23,6.83,9.16,15.34,20.57.14,47.35-1.16,2.05-3.29,3.19-5.49,3.19Z"></path>
  <path d="m171.24,197.76c-1.05,0-2.12-.26-3.11-.82-3.03-1.72-4.09-5.57-2.37-8.6,11.13-19.62,6.77-25.48.72-33.58-6.7-8.99-15.04-20.17-.75-45.9,1.69-3.04,5.53-4.14,8.57-2.45,3.04,1.69,4.14,5.53,2.45,8.57-10.33,18.6-6.07,24.32-.17,32.23,6.83,9.16,15.34,20.57.14,47.35-1.16,2.05-3.29,3.19-5.49,3.19Z"></path>
  <path d="m228.69,222.3c-1.05,0-2.12-.26-3.11-.82-3.03-1.72-4.09-5.57-2.37-8.6,11.13-19.62,6.77-25.48.72-33.58-6.7-8.99-15.04-20.17-.75-45.9,1.69-3.04,5.53-4.14,8.57-2.45,3.04,1.69,4.14,5.53,2.45,8.57-10.33,18.6-6.07,24.32-.17,32.23,6.83,9.16,15.34,20.57.14,47.35-1.16,2.05-3.29,3.19-5.49,3.19Z"></path>
  <path d="m264.4,406.39H78.7c-7.7,0-13.97-6.27-13.97-13.97v-105.34c0-3.48,2.82-6.3,6.3-6.3h201.03c3.48,0,6.3,2.82,6.3,6.3v105.34c0,7.7-6.27,13.97-13.97,13.97Zm-187.06-113v99.03c0,.75.61,1.36,1.36,1.36h185.7c.75,0,1.36-.61,1.36-1.36v-99.03H77.34Z"></path>
  <path d="m272.07,349.88c-1.55,0-3.06-.57-4.23-1.63-1.32-1.2-2.08-2.89-2.08-4.68v-56.5c0-3.48,2.82-6.3,6.3-6.3h167.95c14.33,0,25.99,11.66,25.99,25.98,0,13.39-10.04,24.5-23.36,25.85l-169.93,17.24c-.21.02-.43.03-.64.03Zm6.31-56.5v43.22l162.99-16.54h0c6.86-.7,12.02-6.42,12.02-13.31,0-7.38-6-13.38-13.38-13.38h-161.64Z"></path>
  <path d="m286.91,293.38H56.19c-5.62,0-10.19-4.57-10.19-10.19v-27.87c0-5.62,4.57-10.19,10.19-10.19h230.72c5.62,0,10.19,4.57,10.19,10.19v27.87c0,5.62-4.57,10.19-10.19,10.19Zm-228.3-12.61h225.88v-23.03H58.61v23.03Z"></path>
  <rect x="310.84" y="287.08" width="12.61" height="51.93"></rect>
</symbol><symbol id="i113_other-12" xmlns="http://www.w3.org/2000/svg" viewBox="0 0 512 512">
  <path d="m223.96,466c-23.92,0-46.43-9.07-63.7-25.74-18.09-17.46-28.06-40.92-28.06-66.06v-5.8c0-13.06,10.63-23.69,23.69-23.69h153.59c3.48,0,6.3,2.82,6.3,6.3v21.13c0,24.16-9.06,47.17-25.51,64.81-16.63,17.83-38.99,28.12-62.95,28.98-1.13.04-2.26.06-3.38.06Zm-68.07-108.67c-6.11,0-11.08,4.97-11.08,11.08v5.8c0,21.68,8.6,41.92,24.2,56.98,15.6,15.05,36.16,22.94,57.87,22.15,42.07-1.5,76.29-37.91,76.29-81.18v-14.83h-147.29Z"></path>
  <rect x="303.18" y="286.17" width="12.61" height="64.85"></rect>
  <path d="m322.27,292.48h-25.57c-5.2,0-9.42-4.23-9.42-9.42V115.77c0-5.2,4.23-9.42,9.42-9.42h25.57c5.2,0,9.42,4.23,9.42,9.42v167.29c0,5.2-4.23,9.42-9.42,9.42Zm-22.38-12.61h19.2V118.95h-19.2v160.91Z"></path>
  <path d="m309.49,118.95c-3.48,0-6.3-2.82-6.3-6.3v-28.34c0-21.12,17.18-38.31,38.31-38.31s38.31,17.18,38.31,38.31v10.01c0,3.48-2.82,6.3-6.3,6.3s-6.3-2.82-6.3-6.3v-10.01c0-14.17-11.53-25.7-25.7-25.7s-25.7,11.53-25.7,25.7v28.34c0,3.48-2.82,6.3-6.3,6.3Z"></path>
  <rect x="139.54" y="381.24" width="168.97" height="12.61"></rect>
  <path d="m220.68,320.56c-3.48,0-6.3-2.82-6.3-6.3v-10.34c0-7.92-6.45-14.37-14.37-14.37h-5.57c-16.85,0-30.56-13.71-30.56-30.56s13.71-30.56,30.56-30.56h31.02c7.92,0,14.37-6.45,14.37-14.37v-23.06c0-3.48,2.82-6.3,6.3-6.3s6.3,2.82,6.3,6.3v23.06c0,14.88-12.1,26.98-26.98,26.98h-31.02c-9.9,0-17.95,8.05-17.95,17.95s8.05,17.95,17.95,17.95h5.57c14.88,0,26.98,12.1,26.98,26.98v10.34c0,3.48-2.82,6.3-6.3,6.3Z"></path>
  <path d="m154.88,213.31c-1.06,0-2.14-.27-3.12-.83-3.02-1.73-4.07-5.58-2.34-8.6,4.43-7.75,2.52-10.62-.96-15.83-4.1-6.15-10.31-15.46,1.41-30.96,2.1-2.78,6.05-3.33,8.83-1.23,2.78,2.1,3.33,6.05,1.23,8.83-6.31,8.35-4.64,10.86-.98,16.36,3.87,5.8,9.72,14.57,1.42,29.09-1.16,2.04-3.29,3.18-5.48,3.18Z"></path>
  <path d="m204.74,197.31c-1.06,0-2.14-.27-3.12-.83-3.02-1.73-4.07-5.58-2.34-8.6,4.43-7.75,2.51-10.62-.96-15.83-4.1-6.15-10.31-15.46,1.41-30.96,2.1-2.78,6.05-3.33,8.83-1.23,2.78,2.1,3.33,6.05,1.23,8.83-6.31,8.35-4.64,10.86-.98,16.36,3.87,5.8,9.72,14.57,1.42,29.09-1.16,2.04-3.29,3.18-5.48,3.18Z"></path>
</symbol><symbol id="i113_other-13" xmlns="http://www.w3.org/2000/svg" viewBox="0 0 512 512">
  <path d="m309.83,418.63l-3.56-12.1c74.95-22.06,127.3-92.11,127.3-170.36,0-97.91-79.66-177.57-177.57-177.57S78.43,138.27,78.43,236.18c0,72.99,45.75,139.61,113.84,165.78l-4.52,11.77c-35.5-13.64-65.82-37.39-87.7-68.68-22.39-32.01-34.22-69.66-34.22-108.88,0-104.86,85.31-190.18,190.18-190.18s190.18,85.31,190.18,190.18c0,41.9-13.35,81.63-38.61,114.91-24.45,32.2-59.15,56.19-97.73,67.55Z"></path>
  <path d="m256,426.39c-10.93,0-21.83-.93-32.4-2.78l2.17-12.42c9.86,1.72,20.03,2.59,30.23,2.59,5.64,0,11.27-.27,16.73-.8l1.22,12.55c-5.86.57-11.9.86-17.95.86Z"></path>
  <path d="m309.98,347.13l-5.52-11.33c38.4-18.71,62.25-56.88,62.25-99.62,0-61.04-49.66-110.71-110.71-110.71s-110.71,49.66-110.71,110.71c0,36.58,18.05,70.77,48.28,91.47l-7.12,10.4c-33.67-23.05-53.77-61.13-53.77-101.88,0-68,55.32-123.32,123.32-123.32s123.32,55.32,123.32,123.32c0,23.57-6.66,46.49-19.27,66.26-12.27,19.25-29.58,34.71-50.07,44.69Z"></path>
  <path d="m256,359.53c-8.67,0-17.37-.92-25.85-2.75l2.65-12.33c12.97,2.79,26.53,3.19,39.62,1.27l1.83,12.48c-6.02.88-12.16,1.33-18.25,1.33Z"></path>
  <path d="m231.46,372.21h-41.47c-3.48,0-6.3-2.82-6.3-6.3v-150.77c0-3.48,2.82-6.3,6.3-6.3h33.26c8,0,14.52,6.51,14.52,14.52v142.56c0,3.48-2.82,6.3-6.3,6.3Zm-35.16-12.61h28.86v-136.26c0-1.05-.85-1.91-1.91-1.91h-26.95v138.16Z"></path>
  <path d="m220.85,466h-27c-5.6,0-10.15-4.56-10.15-10.15v-89.94c0-3.48,2.82-6.3,6.3-6.3h34.7c3.48,0,6.3,2.82,6.3,6.3v89.94c0,5.6-4.55,10.15-10.15,10.15Zm-24.54-12.61h22.09v-81.18h-22.09v81.18Z"></path>
  <path d="m304.2,466h-27c-5.6,0-10.15-4.56-10.15-10.15v-118.19c0-4.7,3.82-8.52,8.52-8.52h30.27c4.7,0,8.52,3.82,8.52,8.52v118.19c0,5.6-4.56,10.15-10.15,10.15Zm-24.54-12.61h22.09v-111.65h-22.09v111.65Z"></path>
  <path d="m294.79,304.72h-8.18c-18.49,0-33.53-15.04-33.53-33.52v-56.06c0-3.48,2.82-6.3,6.3-6.3s6.3,2.82,6.3,6.3v56.06c0,11.53,9.38,20.92,20.92,20.92h8.18c11.53,0,20.92-9.38,20.92-20.92v-56.06c0-3.48,2.82-6.3,6.3-6.3s6.3,2.82,6.3,6.3v56.06c0,18.49-15.04,33.52-33.53,33.52Z"></path>
  <path d="m322.01,277.5h-62.62c-3.48,0-6.3-2.82-6.3-6.3s2.82-6.3,6.3-6.3h62.62c3.48,0,6.3,2.82,6.3,6.3s-2.82,6.3-6.3,6.3Z"></path>
  <path d="m290.7,277.5c-3.48,0-6.3-2.82-6.3-6.3v-56.06c0-3.48,2.82-6.3,6.3-6.3s6.3,2.82,6.3,6.3v56.06c0,3.48-2.82,6.3-6.3,6.3Z"></path>
  <path d="m290.7,341.74c-3.48,0-6.3-2.82-6.3-6.3v-37.02c0-3.48,2.82-6.3,6.3-6.3s6.3,2.82,6.3,6.3v37.02c0,3.48-2.82,6.3-6.3,6.3Z"></path>
</symbol><symbol id="i113_other-14" xmlns="http://www.w3.org/2000/svg" viewBox="0 0 512 512">
  <path d="m389.4,466H103.86c-5.49,0-9.96-4.47-9.96-9.96V55.96c0-5.49,4.47-9.96,9.96-9.96h285.54c5.49,0,9.96,4.47,9.96,9.96v400.08c0,5.49-4.47,9.96-9.96,9.96Zm-282.89-12.61h280.24V58.61H106.51v394.78Z"></path>
  <rect x="143.1" y="52.3" width="12.61" height="407.39"></rect>
  <path d="m116.6,124.86h-32.8c-3.48,0-6.3-2.82-6.3-6.3s2.82-6.3,6.3-6.3h32.8c3.48,0,6.3,2.82,6.3,6.3s-2.82,6.3-6.3,6.3Z"></path>
  <path d="m116.6,193.58h-32.8c-3.48,0-6.3-2.82-6.3-6.3s2.82-6.3,6.3-6.3h32.8c3.48,0,6.3,2.82,6.3,6.3s-2.82,6.3-6.3,6.3Z"></path>
  <path d="m116.6,262.31h-32.8c-3.48,0-6.3-2.82-6.3-6.3s2.82-6.3,6.3-6.3h32.8c3.48,0,6.3,2.82,6.3,6.3s-2.82,6.3-6.3,6.3Z"></path>
  <path d="m116.6,331.03h-32.8c-3.48,0-6.3-2.82-6.3-6.3s2.82-6.3,6.3-6.3h32.8c3.48,0,6.3,2.82,6.3,6.3s-2.82,6.3-6.3,6.3Z"></path>
  <path d="m116.6,399.75h-32.8c-3.48,0-6.3-2.82-6.3-6.3s2.82-6.3,6.3-6.3h32.8c3.48,0,6.3,2.82,6.3,6.3s-2.82,6.3-6.3,6.3Z"></path>
  <path d="m333.9,220.99c-3.48,0-6.3-2.82-6.3-6.3,0-31.08-25.29-56.37-56.37-56.37s-56.37,25.29-56.37,56.37c0,3.48-2.82,6.3-6.3,6.3s-6.3-2.82-6.3-6.3c0-38.03,30.94-68.97,68.97-68.97s68.98,30.94,68.98,68.97c0,3.48-2.82,6.3-6.3,6.3Z"></path>
  <path d="m354.01,220.99h-165.56c-3.48,0-6.3-2.82-6.3-6.3s2.82-6.3,6.3-6.3h165.56c3.48,0,6.3,2.82,6.3,6.3s-2.82,6.3-6.3,6.3Z"></path>
  <path d="m271.23,158.32c-3.48,0-6.3-2.82-6.3-6.3v-16.4c0-3.48,2.82-6.3,6.3-6.3s6.3,2.82,6.3,6.3v16.4c0,3.48-2.82,6.3-6.3,6.3Z"></path>
  <path d="m333.9,288.84h-125.34c-3.48,0-6.3-2.82-6.3-6.3s2.82-6.3,6.3-6.3h125.34c3.48,0,6.3,2.82,6.3,6.3s-2.82,6.3-6.3,6.3Z"></path>
  <path d="m424.88,179h-38.13v-85.36h38.13c5.3,0,9.62,4.31,9.62,9.62v66.13c0,5.3-4.32,9.62-9.62,9.62Zm-25.52-12.61h22.53v-60.14h-22.53v60.14Z"></path>
  <path d="m424.88,251.76h-38.13v-85.36h38.13c5.3,0,9.62,4.32,9.62,9.62v66.13c0,5.3-4.32,9.62-9.62,9.62Zm-25.52-12.61h22.53v-60.14h-22.53v60.14Z"></path>
  <path d="m424.88,324.51h-38.13v-85.36h38.13c5.3,0,9.62,4.31,9.62,9.62v66.13c0,5.3-4.32,9.62-9.62,9.62Zm-25.52-12.61h22.53v-60.14h-22.53v60.14Z"></path>
</symbol><symbol id="i113_other-15" xmlns="http://www.w3.org/2000/svg" viewBox="0 0 512 512">
  <path d="m343.09,466h-174.19c-12.23,0-23.94-5.2-32.13-14.28-8.19-9.07-12.18-21.25-10.94-33.41l26.47-228.58c.37-3.18,3.06-5.58,6.26-5.58h194.87c3.2,0,5.89,2.4,6.26,5.58l26.46,228.49c1.25,12.25-2.74,24.43-10.93,33.5-8.19,9.07-19.91,14.28-32.13,14.28ZM164.18,196.76l-25.81,222.91c-.87,8.53,1.95,17.17,7.76,23.6s14.11,10.12,22.77,10.12h174.19c8.66,0,16.97-3.69,22.77-10.12,5.81-6.43,8.63-15.06,7.75-23.68l-25.8-222.83h-183.63Z"></path>
  <path d="m375.64,196.76h-239.28c-5.93,0-10.75-4.82-10.75-10.75v-31.24c0-5.93,4.82-10.75,10.75-10.75h239.28c5.93,0,10.75,4.82,10.75,10.75v31.24c0,5.93-4.82,10.75-10.75,10.75Zm-237.42-12.61h235.56v-27.52h-235.56v27.52Z"></path>
  <path d="m349.57,150.32h-12.61c0-43.29-34.62-91.71-80.96-91.71s-80.96,48.42-80.96,91.71h-12.61c0-25.1,9.87-51.04,27.07-71.18,18.26-21.37,41.88-33.14,66.5-33.14s48.23,11.77,66.5,33.14c17.2,20.13,27.07,46.07,27.07,71.18Z"></path>
  <path d="m216.63,118.15c-3.48,0-6.3-2.82-6.3-6.3v-7.55c0-3.48,2.82-6.3,6.3-6.3s6.3,2.82,6.3,6.3v7.55c0,3.48-2.82,6.3-6.3,6.3Z"></path>
  <path d="m256,105.91c-3.48,0-6.3-2.82-6.3-6.3v-7.55c0-3.48,2.82-6.3,6.3-6.3s6.3,2.82,6.3,6.3v7.55c0,3.48-2.82,6.3-6.3,6.3Z"></path>
  <path d="m295.37,118.15c-3.48,0-6.3-2.82-6.3-6.3v-7.55c0-3.48,2.82-6.3,6.3-6.3s6.3,2.82,6.3,6.3v7.55c0,3.48-2.82,6.3-6.3,6.3Z"></path>
  <path d="m204.89,350.49c-.08,0-.17,0-.26,0-3.48-.14-6.19-3.07-6.05-6.55l6.12-153.73c.14-3.48,3.06-6.21,6.55-6.05,3.48.14,6.19,3.07,6.05,6.55l-6.12,153.73c-.13,3.39-2.93,6.05-6.3,6.05Z"></path>
  <path d="m256,374.98c-3.48,0-6.3-2.82-6.3-6.3v-178.22c0-3.48,2.82-6.3,6.3-6.3s6.3,2.82,6.3,6.3v178.22c0,3.48-2.82,6.3-6.3,6.3Z"></path>
  <path d="m307.1,350.49c-3.37,0-6.16-2.66-6.3-6.05l-6.12-153.73c-.14-3.48,2.57-6.41,6.05-6.55,3.46-.16,6.41,2.57,6.55,6.05l6.12,153.73c.14,3.48-2.57,6.41-6.05,6.55-.09,0-.17,0-.26,0Z"></path>
</symbol><symbol id="i113_other-16" xmlns="http://www.w3.org/2000/svg" viewBox="0 0 512 512">
  <path d="m301.07,466h-90.15c-24.92,0-45.2-20.27-45.2-45.2v-232.67c0-10.2,4.62-19.64,12.67-25.9,8.58-6.67,13.5-16.74,13.5-27.61v-38.57c0-3.48,2.82-6.3,6.3-6.3h115.59c3.48,0,6.3,2.82,6.3,6.3v38.57c0,10.87,4.92,20.94,13.5,27.61,8.05,6.26,12.67,15.7,12.67,25.9v232.67c0,24.92-20.28,45.2-45.2,45.2ZM204.51,102.35v32.27c0,14.79-6.7,28.48-18.37,37.57-4.96,3.85-7.8,9.67-7.8,15.95v232.67c0,17.97,14.62,32.59,32.59,32.59h90.15c17.97,0,32.59-14.62,32.59-32.59v-232.67c0-6.28-2.84-12.09-7.8-15.95-11.68-9.08-18.37-22.77-18.37-37.56v-32.27h-102.98Z"></path>
  <path d="m330.74,102.35h-149.49c-5.76,0-10.44-4.68-10.44-10.44v-35.47c0-5.76,4.68-10.44,10.44-10.44h149.49c5.76,0,10.44,4.68,10.44,10.44v35.47c0,5.76-4.68,10.44-10.44,10.44Zm-147.32-12.61h145.15v-31.13h-145.15v31.13Zm147.32-31.13h0,0Z"></path>
  <path d="m339.97,214.75h-53.18c-3.48,0-6.3-2.82-6.3-6.3s2.82-6.3,6.3-6.3h53.18c3.48,0,6.3,2.82,6.3,6.3s-2.82,6.3-6.3,6.3Z"></path>
  <path d="m339.97,248.56h-167.94c-3.48,0-6.3-2.82-6.3-6.3s2.82-6.3,6.3-6.3h167.94c3.48,0,6.3,2.82,6.3,6.3s-2.82,6.3-6.3,6.3Z"></path>
  <path d="m339.97,282.37h-53.18c-3.48,0-6.3-2.82-6.3-6.3s2.82-6.3,6.3-6.3h53.18c3.48,0,6.3,2.82,6.3,6.3s-2.82,6.3-6.3,6.3Z"></path>
  <path d="m339.97,350h-53.18c-3.48,0-6.3-2.82-6.3-6.3s2.82-6.3,6.3-6.3h53.18c3.48,0,6.3,2.82,6.3,6.3s-2.82,6.3-6.3,6.3Z"></path>
  <path d="m339.97,417.62h-53.18c-3.48,0-6.3-2.82-6.3-6.3s2.82-6.3,6.3-6.3h53.18c3.48,0,6.3,2.82,6.3,6.3s-2.82,6.3-6.3,6.3Z"></path>
</symbol><symbol id="i113_other-17" xmlns="http://www.w3.org/2000/svg" viewBox="0 0 512 512">
  <path d="m459.69,466H52.31c-3.48,0-6.3-2.82-6.3-6.3s2.82-6.3,6.3-6.3h163.44v-106.21h-61.59c-22.2,0-40.25-18.06-40.25-40.25v-34.51c0-3.48,2.82-6.3,6.3-6.3s6.3,2.82,6.3,6.3v34.51c0,13.07,9.12,24.06,21.34,26.92v-121.74c-12.21,2.86-21.34,13.84-21.34,26.92,0,3.48-2.82,6.3-6.3,6.3s-6.3-2.82-6.3-6.3c0-22.2,18.06-40.25,40.25-40.25s40.26,18.06,40.26,40.25v61.59h21.34v-157.16c0-12.79,6-24.21,15.33-31.58-2.54-1.32-4.97-2.92-7.22-4.79-9.28-7.71-14.61-19.06-14.61-31.13v-6.89c0-3.48,2.82-6.3,6.3-6.3h6.89c5.35,0,10.58,1.05,15.46,3.07,2.02-4.87,4.98-9.31,8.77-13.1l4.87-4.87c1.18-1.18,2.79-1.85,4.46-1.85s3.28.66,4.46,1.85l4.87,4.87c3.79,3.79,6.75,8.23,8.77,13.1,4.87-2.02,10.11-3.07,15.46-3.07h6.89c3.48,0,6.3,2.82,6.3,6.3v6.89c0,12.08-5.32,23.42-14.6,31.13-2.26,1.87-4.68,3.47-7.23,4.8,9.33,7.38,15.33,18.79,15.33,31.58v191.11h21.34v-27.64c0-22.2,18.06-40.25,40.25-40.25s40.25,18.06,40.25,40.25c0,3.48-2.82,6.3-6.3,6.3s-6.3-2.82-6.3-6.3c0-13.07-9.12-24.06-21.34-26.92v87.79c12.21-2.86,21.34-13.84,21.34-26.92,0-3.48,2.82-6.3,6.3-6.3s6.3,2.82,6.3,6.3c0,22.2-18.06,40.26-40.25,40.26h-61.59v72.26h163.44c3.48,0,6.3,2.82,6.3,6.3s-2.82,6.3-6.3,6.3Zm-197.39-12.61h21.34v-78.57c0-3.48,2.82-6.3,6.3-6.3h61.59v-88.51c-12.21,2.86-21.34,13.84-21.34,26.92v33.95c0,3.48-2.82,6.3-6.3,6.3h-33.95c-3.48,0-6.3-2.82-6.3-6.3v-197.41c0-13.28-9.41-24.4-21.91-27.05-.24,0-.47,0-.71-.02.8,1.06,1.28,2.38,1.28,3.81v333.19Zm-33.95,0h21.34V120.2c0-1.43.48-2.75,1.28-3.81-.24,0-.47.01-.71.02-12.5,2.65-21.91,13.77-21.91,27.05v163.47c0,3.48-2.82,6.3-6.3,6.3h-33.95c-3.48,0-6.3-2.82-6.3-6.3v-67.9c0-13.08-9.12-24.06-21.34-26.92v122.46h61.59c3.48,0,6.3,2.82,6.3,6.3v112.52Zm-6.5-378.03v.59c0,8.31,3.66,16.12,10.05,21.43,4.91,4.07,10.95,6.29,17.18,6.42,4.5-.78,9.34-.78,13.84,0,6.23-.13,12.28-2.36,17.19-6.43,6.38-5.3,10.04-13.11,10.04-21.42v-.59h-.59c-5.62,0-11.05,1.68-15.71,4.86-1.76,1.2-4,1.43-5.97.62-1.97-.82-3.39-2.57-3.78-4.66-1.04-5.53-3.69-10.56-7.68-14.55l-.41-.41-.41.41c-3.99,3.99-6.64,9.02-7.68,14.55-.39,2.09-1.82,3.85-3.78,4.66-1.97.82-4.21.58-5.97-.62-4.66-3.18-10.09-4.86-15.71-4.86h-.59Z"></path>
</symbol><symbol id="i113_other-18" xmlns="http://www.w3.org/2000/svg" viewBox="0 0 512 512">
  <path d="m169.94,466c-4.4,0-8.91-.32-13.51-.97-25.4-3.57-50.6-16.75-70.96-37.11-20.36-20.36-33.54-45.56-37.11-70.96-3.66-26.06,3.16-49.25,19.21-65.3,13.59-13.59,32.19-20.52,53.77-20.09.11,0,.22,0,.33,0,7.6,0,14.22-5.52,16.15-13.54,2.63-10.87,7.77-20.19,15.28-27.7,11.32-11.32,26.7-17.29,44.5-17.29.09,0,.18,0,.27,0,17.1.06,34.81,5.6,51.21,16.03,2.93,1.86,3.8,5.75,1.93,8.69-1.87,2.93-5.75,3.8-8.69,1.93-29.08-18.49-62.11-18.68-80.33-.46-5.85,5.85-9.87,13.17-11.95,21.76-3.32,13.72-14.93,23.16-28.38,23.17-.2,0-.4,0-.6,0-18.08-.4-33.5,5.29-44.61,16.4-27.72,27.72-19.7,80.86,17.9,118.46,37.59,37.59,90.73,45.62,118.46,17.9,10.64-10.64,16.33-25.31,16.46-42.43.11-14.25,9.87-26.38,23.75-29.49,8.95-2.01,16.55-6.09,22.59-12.14,19.37-19.37,17.8-55.18-3.72-85.15-2.03-2.82-1.38-6.76,1.44-8.78,2.82-2.03,6.76-1.38,8.78,1.44,11.95,16.64,18.92,35.74,19.62,53.79.74,18.84-5.38,35.74-17.23,47.6-7.76,7.76-17.43,12.98-28.74,15.52-8.26,1.85-13.85,8.81-13.92,17.31-.16,20.49-7.12,38.21-20.14,51.23s-31.28,20.17-51.79,20.18Z"></path>
  <path d="m191.7,355.28c-9.32,0-18.64-3.55-25.73-10.64-14.19-14.19-14.19-37.28,0-51.47,14.19-14.19,37.28-14.19,51.47,0,14.19,14.19,14.19,37.28,0,51.47-7.1,7.09-16.41,10.64-25.73,10.64Zm0-60.18c-6.36,0-12.34,2.48-16.83,6.97-9.28,9.28-9.28,24.39,0,33.67,4.5,4.5,10.47,6.97,16.83,6.97s12.34-2.48,16.83-6.97c4.5-4.5,6.97-10.47,6.97-16.83s-2.48-12.34-6.97-16.83c-4.5-4.5-10.47-6.97-16.83-6.97Z"></path>
  <path d="m221.78,325.59c-1.61,0-3.22-.61-4.45-1.84-2.46-2.46-2.46-6.44,0-8.9l166.18-166.18-21.58-21.58-166.17,166.17c-2.46,2.46-6.44,2.46-8.9,0-2.46-2.46-2.46-6.44,0-8.9l170.62-170.62c1.18-1.18,2.78-1.84,4.45-1.84h0c1.67,0,3.27.66,4.45,1.84l30.48,30.48c2.46,2.46,2.46,6.44,0,8.9l-170.62,170.63c-1.23,1.23-2.84,1.84-4.45,1.84Z"></path>
  <path d="m403.01,164.51c-2.36,0-4.58-.92-6.25-2.59l-48.08-48.08c-3.45-3.45-3.45-9.06,0-12.5l52.75-52.75c1.67-1.67,3.89-2.59,6.25-2.59s4.58.92,6.25,2.59l48.08,48.08c1.67,1.67,2.59,3.89,2.59,6.25s-.92,4.58-2.59,6.25l-52.75,52.75c-1.67,1.67-3.89,2.59-6.25,2.59Zm-42.79-56.93l42.79,42.79,47.45-47.45-42.79-42.79-47.45,47.45Z"></path>
  <path d="m363.29,184.09c-1.61,0-3.22-.61-4.45-1.84l-30.48-30.48c-2.46-2.46-2.46-6.44,0-8.9,2.46-2.46,6.44-2.46,8.9,0l30.48,30.48c2.46,2.46,2.46,6.44,0,8.9-1.23,1.23-2.84,1.84-4.45,1.84Z"></path>
  <path d="m341.7,205.67c-1.61,0-3.22-.61-4.45-1.84l-30.48-30.48c-2.46-2.46-2.46-6.44,0-8.9,2.46-2.46,6.44-2.46,8.9,0l30.48,30.48c2.46,2.46,2.46,6.44,0,8.9-1.23,1.23-2.84,1.84-4.45,1.84Z"></path>
  <path d="m320.11,227.26c-1.61,0-3.22-.61-4.45-1.84l-30.48-30.48c-2.46-2.46-2.46-6.44,0-8.9,2.46-2.46,6.44-2.46,8.9,0l30.48,30.48c2.46,2.46,2.46,6.44,0,8.9-1.23,1.23-2.84,1.84-4.45,1.84Z"></path>
  <path d="m298.53,248.85c-1.61,0-3.22-.61-4.45-1.84l-30.48-30.48c-2.46-2.46-2.46-6.44,0-8.9,2.46-2.46,6.44-2.46,8.9,0l30.48,30.48c2.46,2.46,2.46,6.44,0,8.9-1.23,1.23-2.84,1.84-4.45,1.84Z"></path>
  <path d="m276.94,270.44c-1.61,0-3.22-.61-4.45-1.84l-30.48-30.48c-2.46-2.46-2.46-6.44,0-8.9,2.46-2.46,6.44-2.46,8.9,0l30.48,30.48c2.46,2.46,2.46,6.44,0,8.9-1.23,1.23-2.84,1.84-4.45,1.84Z"></path>
  <path d="m255.35,292.02c-1.61,0-3.22-.61-4.45-1.84l-30.48-30.48c-2.46-2.46-2.46-6.44,0-8.9,2.46-2.46,6.44-2.46,8.9,0l30.48,30.48c2.46,2.46,2.46,6.44,0,8.9-1.23,1.23-2.84,1.84-4.45,1.84Z"></path>
  <path d="m154.67,415.73c-1.61,0-3.22-.61-4.45-1.84l-53.51-53.51c-2.46-2.46-2.46-6.44,0-8.9s6.44-2.46,8.9,0l53.51,53.51c2.46,2.46,2.46,6.44,0,8.9-1.23,1.23-2.84,1.84-4.45,1.84Z"></path>
  <path d="m430.89,157.16c-1.61,0-3.22-.61-4.45-1.84l-21.93-21.93c-2.46-2.46-2.46-6.44,0-8.9,2.46-2.46,6.44-2.46,8.9,0l21.93,21.93c2.46,2.46,2.46,6.44,0,8.9-1.23,1.23-2.84,1.84-4.45,1.84Z"></path>
  <path d="m450.95,137.1c-1.61,0-3.22-.61-4.45-1.84l-21.93-21.93c-2.46-2.46-2.46-6.44,0-8.9,2.46-2.46,6.44-2.46,8.9,0l21.93,21.93c2.46,2.46,2.46,6.44,0,8.9-1.23,1.23-2.84,1.84-4.45,1.84Z"></path>
  <path d="m380.38,106.66c-1.61,0-3.22-.61-4.45-1.84l-21.93-21.93c-2.46-2.46-2.46-6.44,0-8.9,2.46-2.46,6.44-2.46,8.9,0l21.93,21.93c2.46,2.46,2.46,6.44,0,8.9-1.23,1.23-2.84,1.84-4.45,1.84Z"></path>
  <path d="m400.45,86.59c-1.61,0-3.22-.61-4.45-1.84l-21.93-21.93c-2.46-2.46-2.46-6.44,0-8.9,2.46-2.46,6.44-2.46,8.9,0l21.93,21.93c2.46,2.46,2.46,6.44,0,8.9-1.23,1.23-2.84,1.84-4.45,1.84Z"></path>
</symbol><symbol id="i113_other-19" xmlns="http://www.w3.org/2000/svg" viewBox="0 0 512 512">
  <path d="m315.8,371.22h-119.6c-3.48,0-6.3-2.82-6.3-6.3v-231.73c0-3.48,2.82-6.3,6.3-6.3h119.6c3.48,0,6.3,2.82,6.3,6.3v231.73c0,3.48-2.82,6.3-6.3,6.3Zm-113.3-12.61h106.99v-219.12h-106.99v219.12Z"></path>
  <path d="m420.24,139.49H91.76c-3.48,0-6.3-2.82-6.3-6.3s2.82-6.3,6.3-6.3h328.49c3.48,0,6.3,2.82,6.3,6.3s-2.82,6.3-6.3,6.3Z"></path>
  <path d="m287.77,139.49h-63.54c-3.48,0-6.3-2.82-6.3-6.3V57.61c0-6.4,5.21-11.61,11.6-11.61h52.94c6.4,0,11.6,5.21,11.6,11.61v75.58c0,3.48-2.82,6.3-6.3,6.3Zm-57.23-12.61h50.93V58.61h-50.93v68.27Z"></path>
  <path d="m315.8,311.52c-1.39,0-2.8-.46-3.96-1.4l-149.15-120.69h-22.86c-14.6,0-26.48-11.88-26.48-26.48v-29.75c0-3.48,2.82-6.3,6.3-6.3s6.3,2.82,6.3,6.3v29.75c0,7.65,6.22,13.87,13.87,13.87h25.09c1.44,0,2.84.5,3.97,1.4l150.89,122.09c2.71,2.19,3.13,6.16.93,8.87-1.25,1.54-3.07,2.34-4.9,2.34Z"></path>
  <path d="m372.17,189.42h-56.37c-3.48,0-6.3-2.82-6.3-6.3s2.82-6.3,6.3-6.3h56.37c7.65,0,13.87-6.22,13.87-13.87v-29.75c0-3.48,2.82-6.3,6.3-6.3s6.3,2.82,6.3,6.3v29.75c0,14.6-11.88,26.48-26.48,26.48Z"></path>
  <path d="m372.8,466h-233.6c-3.48,0-6.3-2.82-6.3-6.3v-86.49c0-8.05,6.55-14.6,14.6-14.6h217.02c8.05,0,14.6,6.55,14.6,14.6v86.49c0,3.48-2.82,6.3-6.3,6.3Zm-227.29-12.61h220.99v-80.18c0-1.1-.89-1.99-1.99-1.99h-217.02c-1.1,0-1.99.89-1.99,1.99v80.18Z"></path>
  <path d="m171.28,466c-3.48,0-6.3-2.82-6.3-6.3v-38c0-3.48,2.82-6.3,6.3-6.3s6.3,2.82,6.3,6.3v38c0,3.48-2.82,6.3-6.3,6.3Z"></path>
  <path d="m213.64,466c-3.48,0-6.3-2.82-6.3-6.3v-38c0-3.48,2.82-6.3,6.3-6.3s6.3,2.82,6.3,6.3v38c0,3.48-2.82,6.3-6.3,6.3Z"></path>
  <path d="m256,466c-3.48,0-6.3-2.82-6.3-6.3v-38c0-3.48,2.82-6.3,6.3-6.3s6.3,2.82,6.3,6.3v38c0,3.48-2.82,6.3-6.3,6.3Z"></path>
  <path d="m298.36,466c-3.48,0-6.3-2.82-6.3-6.3v-38c0-3.48,2.82-6.3,6.3-6.3s6.3,2.82,6.3,6.3v38c0,3.48-2.82,6.3-6.3,6.3Z"></path>
  <path d="m340.72,466c-3.48,0-6.3-2.82-6.3-6.3v-38c0-3.48,2.82-6.3,6.3-6.3s6.3,2.82,6.3,6.3v38c0,3.48-2.82,6.3-6.3,6.3Z"></path>
  <path d="m229.91,371.22c-3.48,0-6.3-2.82-6.3-6.3v-30.95c0-3.48,2.82-6.3,6.3-6.3s6.3,2.82,6.3,6.3v30.95c0,3.48-2.82,6.3-6.3,6.3Z"></path>
</symbol><symbol id="i113_other-2" xmlns="http://www.w3.org/2000/svg" viewBox="0 0 512 512">
  <path d="m256.27,384.88c71.07,0,128.88-57.81,128.88-128.88s-57.81-128.88-128.88-128.88-128.88,57.81-128.88,128.88,57.81,128.88,128.88,128.88Zm-45.22-25.39v-206.98c6.25-2.74,12.79-4.88,19.57-6.46v219.91c-6.77-1.58-13.32-3.72-19.57-6.46Zm70.88,6.46v-219.9c6.77,1.58,13.32,3.72,19.57,6.46v206.98c-6.25,2.74-12.79,4.88-19.57,6.46Zm70.89-51.53v-116.85c10.37,17.07,16.46,37.03,16.46,58.42s-6.09,41.35-16.46,58.42Zm-15.88-137.41v157.98c-5.89,6.02-12.46,11.34-19.56,15.93v-189.83c7.1,4.59,13.67,9.91,19.56,15.93Zm-70.89-33.52v225.02c-3.23.28-6.48.5-9.78.5s-6.55-.22-9.78-.5v-225.02c3.23-.28,6.48-.5,9.78-.5s6.55.22,9.78.5Zm-70.88,17.59v189.83c-7.1-4.59-13.68-9.91-19.57-15.93v-157.98c5.89-6.02,12.46-11.34,19.57-15.93Zm-35.45,36.49v116.85c-10.37-17.07-16.46-37.03-16.46-58.42s6.09-41.35,16.46-58.42Z"></path>
  <path d="m62.46,327.6h11.72c9.08,0,16.46-7.38,16.46-16.46v-8.98h16c19.75,63.88,79.35,110.43,149.63,110.43s129.88-46.55,149.62-110.43h15.46v8.98c0,9.08,7.38,16.46,16.46,16.46h11.72c9.08,0,16.46-7.38,16.46-16.46v-110.29c0-9.08-7.38-16.46-16.46-16.46h-11.72c-9.08,0-16.46,7.38-16.46,16.46v8.98h-15.46c-19.75-63.88-79.35-110.42-149.62-110.42s-129.87,46.54-149.63,110.42h-16v-8.98c0-9.08-7.38-16.46-16.46-16.46h-11.72c-9.08,0-16.46,7.38-16.46,16.46v110.29c0,9.08,7.38,16.46,16.46,16.46Zm374.77-126.75c0-.32.26-.59.59-.59h11.72c.32,0,.59.26.59.59v110.29c0,.32-.26.59-.59.59h-11.72c-.32,0-.59-.26-.59-.59v-110.29Zm-15.88,24.86v60.58h-11.5c1.93-9.81,3-19.92,3-30.28s-1.07-20.48-3-30.29h11.5Zm-165.08-110.42c77.59,0,140.71,63.13,140.71,140.71s-63.12,140.71-140.71,140.71-140.71-63.13-140.71-140.71,63.12-140.71,140.71-140.71Zm-153.59,110.42c-1.93,9.81-3,19.93-3,30.29s1.07,20.48,3,30.28h-12.03v-60.58h12.04Zm-40.81-24.86c0-.32.26-.59.59-.59h11.72c.32,0,.59.26.59.59v110.29c0,.32-.26.59-.59.59h-11.72c-.32,0-.59-.26-.59-.59v-110.29Z"></path>
</symbol><symbol id="i113_other-20" xmlns="http://www.w3.org/2000/svg" viewBox="0 0 512 512">
  <path d="m256,420.22c-.08,0-.16,0-.23,0-72.03-2.66-126.89-18.99-163.04-48.57-36.12-29.54-45.26-65.26-46.56-90.03-2.02-38.37,14.66-77.3,34.32-80.11,21.42-3.06,30.38,10.75,38.28,22.93,7.31,11.28,14.22,21.93,30.57,25.51l-2.69,12.32c-21.41-4.68-30.86-19.26-38.45-30.96-8.19-12.64-13.05-19.14-25.92-17.31-9.18,1.31-25.42,30.49-23.51,66.96,1.89,35.95,24.89,120.22,197.24,126.64,172.35-6.43,195.35-90.7,197.24-126.64,1.92-36.47-14.32-65.65-23.51-66.96-12.96-1.85-17.83,4.43-26.02,16.63-7.59,11.3-17.03,25.37-38.35,30.03l-2.69-12.32c16.36-3.58,23.58-14.34,30.57-24.74,7.91-11.78,16.87-25.14,38.27-22.08,19.66,2.81,36.33,41.74,34.32,80.11-1.3,24.76-10.44,60.48-46.56,90.03-36.15,29.57-91.01,45.91-163.04,48.57-.08,0-.15,0-.23,0Z"></path>
  <path d="m259.06,304.95c-1.01,0-2.03,0-3.06-.02-1.04.01-2.08.02-3.1.02-72.67,0-107.12-24.42-108.58-25.47-1.59-1.16-2.56-3-2.6-4.97-.67-31.54,6.27-76.07,17.68-113.44,9.45-30.94,25.09-68.07,46-69.23,18.76-1.04,25.17,12.8,30.32,23.92,5.32,11.49,9.15,18.56,20.28,18.92,11.13-.36,14.96-7.43,20.28-18.92,5.15-11.12,11.58-24.96,30.32-23.92,20.91,1.16,36.56,38.29,46,69.23,11.41,37.37,18.35,81.9,17.67,113.44-.04,2.01-1.04,3.87-2.68,5.03-1.5,1.05-37.05,25.41-108.54,25.41Zm-3.06-12.63s.04,0,.06,0c58.44.56,92.32-16.15,101.65-21.5.1-30.07-6.53-71.21-17.17-106.07-12.53-41.04-26.42-59.87-34.64-60.32-9.77-.56-12.95,5.33-18.18,16.62-5.31,11.46-11.91,25.72-31.56,26.23-.11,0-.22,0-.33,0-19.65-.51-26.25-14.77-31.56-26.23-5.23-11.3-8.42-17.17-18.18-16.62-8.22.45-22.11,19.28-34.64,60.32-10.65,34.88-17.28,76.05-17.17,106.13,9.06,5.32,42.29,22,101.65,21.45.02,0,.04,0,.06,0Z"></path>
  <path d="m253.2,262.06c-16.46,0-31.02-1.26-43.19-2.97-38.41-5.4-61.62-16.06-62.59-16.51l5.32-11.43c.22.1,22.84,10.44,59.54,15.53,33.79,4.69,86.81,5.76,147.54-15.75l4.21,11.89c-41.5,14.7-79.58,19.26-110.83,19.26Z"></path>
  <path d="m241.04,374.94c-42.47,0-73.51-10.8-93.76-21.43-29.74-15.61-43.3-34.01-43.86-34.79-2.04-2.82-1.41-6.76,1.41-8.81,2.82-2.04,6.75-1.41,8.8,1.4.22.3,12.88,17.23,40.18,31.38,25.32,13.13,68.81,26.5,132.26,15.67,3.43-.59,6.69,1.72,7.28,5.15.59,3.43-1.72,6.69-5.15,7.28-17.04,2.91-32.75,4.15-47.15,4.15Z"></path>
</symbol><symbol id="i113_other-21" xmlns="http://www.w3.org/2000/svg" viewBox="0 0 512 512">
  <path d="m411.07,302.22H138.91c-10.16,0-18.43-8.27-18.43-18.43V102.77c0-10.16,8.27-18.43,18.43-18.43h272.16c1.99,0,3.86.94,5.05,2.53,1.19,1.59,1.56,3.65,1,5.56l-29.65,100.86,29.65,100.85c.56,1.91.19,3.97-1,5.56-1.19,1.59-3.06,2.53-5.05,2.53ZM138.91,96.95c-3.21,0-5.82,2.61-5.82,5.82v181.02c0,3.21,2.61,5.82,5.82,5.82h263.74l-27.79-94.55c-.34-1.16-.34-2.4,0-3.56l27.79-94.55H138.91Z"></path>
  <path d="m298.49,245.07c-1,0-2.01-.24-2.93-.72l-26.62-14-26.62,14c-2.12,1.12-4.7.93-6.64-.48-1.94-1.41-2.91-3.8-2.51-6.17l5.08-29.64-21.54-20.99c-1.72-1.67-2.34-4.18-1.6-6.46.74-2.28,2.71-3.95,5.09-4.29l29.76-4.33,13.31-26.97c1.06-2.15,3.25-3.51,5.65-3.51s4.59,1.36,5.65,3.51l13.31,26.97,29.76,4.33c2.38.34,4.35,2.01,5.09,4.29.74,2.28.12,4.79-1.6,6.46l-21.54,20.99,5.08,29.64c.41,2.37-.57,4.76-2.51,6.17-1.1.8-2.4,1.2-3.71,1.2Zm-63.83-58.12l14.76,14.39c1.49,1.45,2.16,3.54,1.81,5.58l-3.48,20.32,18.25-9.59c1.84-.97,4.03-.97,5.87,0l18.25,9.59-3.49-20.32c-.35-2.05.33-4.13,1.81-5.58l14.76-14.39-20.4-2.96c-2.05-.3-3.83-1.59-4.75-3.45l-9.12-18.49-9.12,18.49c-.92,1.86-2.69,3.15-4.75,3.45l-20.4,2.96Z"></path>
  <path d="m172.85,433.14h-28.28c-3.48,0-6.3-2.82-6.3-6.3v-130.92c0-3.48,2.82-6.3,6.3-6.3h28.28c3.48,0,6.3,2.82,6.3,6.3v130.92c0,3.48-2.82,6.3-6.3,6.3Zm-21.98-12.61h15.67v-118.31h-15.67v118.31Z"></path>
  <path d="m172.85,96.95h-28.28c-3.48,0-6.3-2.82-6.3-6.3v-35.76c0-4.9,3.99-8.89,8.89-8.89h23.12c4.9,0,8.89,3.99,8.89,8.89v35.76c0,3.48-2.82,6.3-6.3,6.3Zm-21.98-12.61h15.67v-25.73h-15.67v25.73Z"></path>
  <path d="m216.49,466h-115.56c-3.48,0-6.3-2.82-6.3-6.3v-30.86c0-4.58,3.73-8.31,8.31-8.31h111.56c4.58,0,8.31,3.73,8.31,8.31v30.86c0,3.48-2.82,6.3-6.3,6.3Zm-109.26-12.61h102.95v-20.25h-102.95v20.25Z"></path>
  <path d="m155.56,184.42c-3.48,0-6.3-2.82-6.3-6.3v-55.75c0-3.48,2.82-6.3,6.3-6.3s6.3,2.82,6.3,6.3v55.75c0,3.48-2.82,6.3-6.3,6.3Z"></path>
  <path d="m155.56,240.17c-3.48,0-6.3-2.82-6.3-6.3v-19.91c0-3.48,2.82-6.3,6.3-6.3s6.3,2.82,6.3,6.3v19.91c0,3.48-2.82,6.3-6.3,6.3Z"></path>
</symbol><symbol id="i113_other-22" xmlns="http://www.w3.org/2000/svg" viewBox="0 0 512 512">
  <path d="m419.51,378.22H92.49c-9.43,0-17.1-7.67-17.1-17.1s7.67-17.1,17.1-17.1h327.02c9.43,0,17.1,7.67,17.1,17.1s-7.67,17.1-17.1,17.1Zm-327.02-23.36c-3.45,0-6.26,2.81-6.26,6.26s2.81,6.26,6.26,6.26h327.02c3.45,0,6.26-2.81,6.26-6.26s-2.81-6.26-6.26-6.26H92.49Z"></path>
  <path d="m419.51,354.86H92.49c-2.99,0-5.42-2.43-5.42-5.42v-23.36c0-93.15,75.78-168.93,168.93-168.93s168.93,75.78,168.93,168.93v23.36c0,2.99-2.43,5.42-5.42,5.42Zm-321.6-10.85h316.18v-17.94c0-87.17-70.92-158.09-158.09-158.09s-158.09,70.92-158.09,158.09v17.94Z"></path>
  <path d="m115.85,331.5c-2.99,0-5.42-2.43-5.42-5.42,0-80.27,65.31-145.58,145.58-145.58,2.99,0,5.42,2.43,5.42,5.42s-2.43,5.42-5.42,5.42c-74.29,0-134.73,60.44-134.73,134.73,0,2.99-2.43,5.42-5.42,5.42Z"></path>
  <path d="m256,167.99c-9.43,0-17.1-7.67-17.1-17.1s7.67-17.1,17.1-17.1,17.1,7.67,17.1,17.1-7.67,17.1-17.1,17.1Zm0-23.36c-3.45,0-6.26,2.81-6.26,6.26s2.81,6.26,6.26,6.26,6.26-2.81,6.26-6.26-2.81-6.26-6.26-6.26Z"></path>
</symbol><symbol id="i113_other-23" xmlns="http://www.w3.org/2000/svg" viewBox="0 0 512 512">
  <path d="m418.95,364.15H93.04c-12.59,0-24.41-4.89-33.28-13.76-8.88-8.88-13.76-20.7-13.76-33.28,0-3.48,2.82-6.3,6.3-6.3h407.39c3.48,0,6.3,2.82,6.3,6.3,0,25.94-21.1,47.04-47.04,47.04Zm-359.77-40.74c1.25,6.81,4.51,13.07,9.5,18.06,6.49,6.49,15.15,10.07,24.36,10.07h325.91c16.83,0,30.89-12.14,33.86-28.13H59.18Z"></path>
  <path d="m256,323.41H120.2c-3.48,0-6.3-2.82-6.3-6.3,0-40.92,33.29-74.2,74.2-74.2s74.2,33.29,74.2,74.2c0,3.48-2.82,6.3-6.3,6.3Zm-129.17-12.61h122.55c-3.17-31.01-29.44-55.29-61.27-55.29s-58.1,24.28-61.27,55.29Z"></path>
  <path d="m391.8,323.41h-135.8c-3.48,0-6.3-2.82-6.3-6.3,0-40.92,33.29-74.2,74.2-74.2s74.2,33.29,74.2,74.2c0,3.48-2.82,6.3-6.3,6.3Zm-129.17-12.61h122.55c-3.17-31.01-29.44-55.29-61.27-55.29s-58.1,24.28-61.27,55.29Z"></path>
  <path d="m104.34,221.57c-1,0-2.01-.24-2.93-.72l-16.95-8.9-16.95,8.9c-2.12,1.11-4.7.93-6.64-.48-1.94-1.41-2.91-3.8-2.51-6.17l3.23-18.84-13.7-13.34c-1.72-1.67-2.34-4.18-1.6-6.46.74-2.28,2.72-3.95,5.09-4.29l18.95-2.75,8.47-17.14c1.06-2.15,3.25-3.51,5.65-3.51s4.59,1.36,5.65,3.51l8.47,17.14,18.94,2.75c2.38.34,4.35,2.01,5.09,4.29.74,2.28.12,4.79-1.6,6.46l-13.7,13.34,3.23,18.84c.41,2.37-.57,4.76-2.51,6.17-1.1.8-2.4,1.2-3.71,1.2Zm-19.88-23.05c1.01,0,2.01.24,2.93.72l8.57,4.5-1.63-9.52c-.35-2.05.33-4.13,1.82-5.58l6.92-6.74-9.57-1.39c-2.05-.3-3.83-1.59-4.75-3.45l-4.29-8.67-4.29,8.67c-.92,1.86-2.69,3.15-4.75,3.45l-9.57,1.39,6.92,6.74c1.49,1.45,2.17,3.54,1.82,5.58l-1.63,9.52,8.57-4.5c.92-.48,1.92-.72,2.93-.72Z"></path>
  <path d="m150.36,221.57c-1.31,0-2.61-.41-3.71-1.2-1.94-1.41-2.91-3.8-2.51-6.17l3.23-18.84-13.7-13.34c-1.72-1.67-2.34-4.18-1.6-6.46.74-2.28,2.72-3.95,5.09-4.29l18.94-2.75,8.47-17.14c1.06-2.15,3.25-3.51,5.65-3.51s4.59,1.36,5.65,3.51l8.47,17.14,18.94,2.75c2.38.34,4.35,2.01,5.09,4.29.74,2.28.12,4.79-1.6,6.46l-13.7,13.34,3.23,18.84c.41,2.37-.57,4.76-2.51,6.17s-4.51,1.6-6.64.48l-16.95-8.9-16.95,8.9c-.92.48-1.93.72-2.93.72Zm1.27-39.67l6.92,6.74c1.49,1.45,2.17,3.54,1.82,5.58l-1.63,9.52,8.57-4.5c1.84-.96,4.03-.96,5.86,0l8.57,4.5-1.63-9.52c-.35-2.05.33-4.13,1.82-5.58l6.92-6.74-9.57-1.39c-2.05-.3-3.83-1.59-4.75-3.45l-4.29-8.68-4.29,8.68c-.92,1.86-2.69,3.15-4.75,3.45l-9.57,1.39Z"></path>
  <path d="m275.88,221.57c-1,0-2.01-.24-2.93-.72l-16.95-8.9-16.95,8.9c-2.12,1.11-4.7.93-6.64-.48-1.94-1.41-2.91-3.8-2.51-6.17l3.23-18.84-13.7-13.34c-1.72-1.67-2.34-4.18-1.6-6.46.74-2.28,2.72-3.95,5.09-4.29l18.94-2.75,8.47-17.14c1.06-2.15,3.25-3.51,5.65-3.51h0c2.4,0,4.59,1.36,5.65,3.51l8.47,17.14,18.94,2.75c2.38.34,4.35,2.01,5.09,4.29.74,2.28.12,4.79-1.6,6.46l-13.7,13.34,3.23,18.84c.41,2.37-.57,4.76-2.51,6.17-1.1.8-2.4,1.2-3.71,1.2Zm-38.48-39.67l6.92,6.74c1.49,1.45,2.17,3.54,1.82,5.58l-1.63,9.52,8.57-4.5c1.84-.96,4.03-.96,5.86,0l8.57,4.5-1.63-9.52c-.35-2.05.33-4.14,1.82-5.58l6.92-6.74-9.57-1.39c-2.05-.3-3.83-1.59-4.75-3.45l-4.29-8.68-4.29,8.68c-.92,1.86-2.69,3.15-4.75,3.45l-9.57,1.39Z"></path>
  <path d="m361.64,221.57c-1,0-2.01-.24-2.93-.72l-16.95-8.9-16.95,8.9c-2.12,1.11-4.7.93-6.64-.48-1.94-1.41-2.91-3.8-2.51-6.17l3.23-18.84-13.7-13.34c-1.72-1.67-2.34-4.18-1.6-6.46.74-2.28,2.72-3.95,5.09-4.29l18.94-2.75,8.47-17.14c1.06-2.15,3.25-3.51,5.65-3.51s4.59,1.36,5.65,3.51l8.47,17.14,18.94,2.75c2.38.34,4.35,2.01,5.09,4.29.74,2.28.12,4.79-1.6,6.46l-13.7,13.34,3.23,18.84c.41,2.37-.57,4.76-2.51,6.17-1.1.8-2.4,1.2-3.71,1.2Zm-19.88-23.05c1.01,0,2.01.24,2.93.72l8.57,4.5-1.63-9.52c-.35-2.05.33-4.13,1.82-5.58l6.92-6.74-9.57-1.39c-2.05-.3-3.83-1.59-4.75-3.45l-4.29-8.68-4.29,8.68c-.92,1.86-2.69,3.15-4.75,3.45l-9.57,1.39,6.92,6.74c1.49,1.45,2.17,3.54,1.82,5.58l-1.63,9.52,8.57-4.5c.92-.48,1.92-.72,2.93-.72Z"></path>
  <path d="m447.41,221.57c-1,0-2.01-.24-2.93-.72l-16.95-8.9-16.95,8.9c-2.12,1.11-4.7.93-6.64-.48-1.94-1.41-2.91-3.8-2.51-6.17l3.23-18.84-13.7-13.34c-1.72-1.67-2.34-4.18-1.6-6.46.74-2.28,2.72-3.95,5.09-4.29l18.94-2.75,8.47-17.14c1.06-2.15,3.25-3.51,5.65-3.51h0c2.4,0,4.59,1.36,5.65,3.51l8.47,17.14,18.95,2.75c2.38.34,4.35,2.01,5.09,4.29.74,2.28.12,4.79-1.6,6.46l-13.7,13.34,3.23,18.84c.41,2.37-.57,4.76-2.51,6.17-1.1.8-2.4,1.2-3.71,1.2Zm-19.88-23.05c1.01,0,2.01.24,2.93.72l8.57,4.5-1.63-9.52c-.35-2.05.33-4.14,1.82-5.58l6.92-6.74-9.57-1.39c-2.05-.3-3.83-1.59-4.75-3.45l-4.29-8.67-4.29,8.67c-.92,1.86-2.69,3.15-4.75,3.45l-9.57,1.39,6.92,6.74c1.49,1.45,2.17,3.54,1.82,5.58l-1.63,9.52,8.57-4.5c.92-.48,1.92-.72,2.93-.72Z"></path>
</symbol><symbol id="i113_other-24" xmlns="http://www.w3.org/2000/svg" viewBox="0 0 512 512">
  <path d="m256,466c-56.09,0-108.83-21.84-148.49-61.51-39.66-39.66-61.51-92.4-61.51-148.49s21.84-108.83,61.51-148.49c39.66-39.66,92.4-61.51,148.49-61.51s108.83,21.84,148.49,61.51c39.66,39.66,61.51,92.4,61.51,148.49s-21.84,108.83-61.51,148.49c-39.66,39.66-92.4,61.51-148.49,61.51Zm0-407.39c-108.84,0-197.39,88.55-197.39,197.39s88.55,197.39,197.39,197.39,197.39-88.55,197.39-197.39S364.84,58.61,256,58.61Z"></path>
  <path d="m256,438.84c-100.82,0-182.84-82.02-182.84-182.84s82.02-182.84,182.84-182.84,182.84,82.02,182.84,182.84-82.02,182.84-182.84,182.84Zm0-353.07c-93.87,0-170.23,76.36-170.23,170.23s76.37,170.23,170.23,170.23,170.23-76.36,170.23-170.23-76.37-170.23-170.23-170.23Z"></path>
  <path d="m323.9,296.25h-54.32c-3.48,0-6.3-2.82-6.3-6.3v-135.8c0-3.48,2.82-6.3,6.3-6.3,33.43,0,60.62,27.2,60.62,60.62v81.48c0,3.48-2.82,6.3-6.3,6.3Zm-48.01-12.61h41.71v-75.17c0-24.34-18.2-44.51-41.71-47.6v122.78Z"></path>
  <path d="m283.16,364.15c-10.96,0-19.88-8.92-19.88-19.88v-54.32c0-3.48,2.82-6.3,6.3-6.3h27.16c3.48,0,6.3,2.82,6.3,6.3v54.32c0,10.96-8.92,19.88-19.88,19.88Zm-7.27-67.9v48.01c0,4.01,3.26,7.27,7.27,7.27s7.27-3.26,7.27-7.27v-48.01h-14.55Z"></path>
  <path d="m215.26,364.15c-10.96,0-19.88-8.92-19.88-19.88v-93.84l-13.13-32.82c-.3-.74-.45-1.54-.45-2.34v-27.16c0-3.48,2.82-6.3,6.3-6.3h54.32c3.48,0,6.3,2.82,6.3,6.3v27.16c0,.8-.15,1.6-.45,2.34l-13.13,32.82v93.84c0,10.96-8.92,19.88-19.88,19.88Zm-20.85-150.11l13.13,32.82c.3.74.45,1.54.45,2.34v95.06c0,4.01,3.26,7.27,7.27,7.27s7.27-3.26,7.27-7.27v-95.06c0-.8.15-1.6.45-2.34l13.13-32.82v-19.64h-41.71v19.64Z"></path>
  <path d="m188.1,194.41c-3.48,0-6.3-2.82-6.3-6.3v-33.95c0-3.48,2.82-6.3,6.3-6.3s6.3,2.82,6.3,6.3v33.95c0,3.48-2.82,6.3-6.3,6.3Z"></path>
  <path d="m215.26,194.41c-3.48,0-6.3-2.82-6.3-6.3v-33.95c0-3.48,2.82-6.3,6.3-6.3s6.3,2.82,6.3,6.3v33.95c0,3.48-2.82,6.3-6.3,6.3Z"></path>
  <path d="m242.42,194.41c-3.48,0-6.3-2.82-6.3-6.3v-33.95c0-3.48,2.82-6.3,6.3-6.3s6.3,2.82,6.3,6.3v33.95c0,3.48-2.82,6.3-6.3,6.3Z"></path>
</symbol><symbol id="i113_other-25" xmlns="http://www.w3.org/2000/svg" viewBox="0 0 512 512">
  <path d="m459.7,330.2H52.3c-3.48,0-6.3-2.82-6.3-6.3v-27.16c0-3.48,2.82-6.3,6.3-6.3h407.39c3.48,0,6.3,2.82,6.3,6.3v27.16c0,3.48-2.82,6.3-6.3,6.3Zm-401.09-12.61h394.78v-14.55H58.61v14.55Z"></path>
  <path d="m323.9,303.04H120.2c-2.04,0-3.95-.98-5.13-2.64-1.18-1.66-1.49-3.79-.83-5.71l37.34-108.64c.88-2.55,3.27-4.26,5.96-4.26h203.7c2.04,0,3.95.98,5.13,2.64,1.18,1.66,1.49,3.79.83,5.71l-37.34,108.64c-.88,2.55-3.27,4.26-5.96,4.26Zm-194.86-12.61h190.36l33.01-96.03h-190.36l-33.01,96.03Z"></path>
  <path d="m391.8,303.04h-67.9c-2.04,0-3.95-.98-5.13-2.64-1.18-1.66-1.49-3.79-.83-5.71l37.34-108.64c.9-2.61,3.38-4.33,6.14-4.25,2.76.08,5.14,1.94,5.89,4.6l30.55,108.64c.53,1.9.15,3.94-1.04,5.51s-3.05,2.5-5.03,2.5Zm-59.06-12.61h50.74l-22.83-81.19-27.91,81.19Z"></path>
  <path d="m327.29,221.57h-152.77c-3.48,0-6.3-2.82-6.3-6.3s2.82-6.3,6.3-6.3h152.77c3.48,0,6.3,2.82,6.3,6.3s-2.82,6.3-6.3,6.3Z"></path>
  <path d="m313.71,248.73h-152.77c-3.48,0-6.3-2.82-6.3-6.3s2.82-6.3,6.3-6.3h152.77c3.48,0,6.3,2.82,6.3,6.3s-2.82,6.3-6.3,6.3Z"></path>
  <path d="m303.53,275.88h-152.77c-3.48,0-6.3-2.82-6.3-6.3s2.82-6.3,6.3-6.3h152.77c3.48,0,6.3,2.82,6.3,6.3s-2.82,6.3-6.3,6.3Z"></path>
</symbol><symbol id="i113_other-26" xmlns="http://www.w3.org/2000/svg" viewBox="0 0 512 512">
  <path d="m391.8,466H120.2c-3.48,0-6.3-2.82-6.3-6.3V120.2c0-3.48,2.82-6.3,6.3-6.3h271.59c3.48,0,6.3,2.82,6.3,6.3v339.49c0,3.48-2.82,6.3-6.3,6.3Zm-265.29-12.61h258.98V126.51H126.51v326.88Z"></path>
  <path d="m323.9,126.51H120.2c-3.09,0-5.73-2.24-6.22-5.3-.5-3.05,1.3-6.01,4.23-6.99l203.69-67.9c1.92-.64,4.04-.32,5.68.87,1.64,1.18,2.62,3.09,2.62,5.12v67.9c0,3.48-2.82,6.3-6.3,6.3Zm-164.84-12.61h158.54v-52.85l-158.54,52.85Z"></path>
  <path d="m323.9,330.2h-54.32c-3.48,0-6.3-2.82-6.3-6.3v-135.8c0-3.48,2.82-6.3,6.3-6.3,33.43,0,60.62,27.2,60.62,60.62v81.48c0,3.48-2.82,6.3-6.3,6.3Zm-48.01-12.61h41.71v-75.17c0-24.34-18.2-44.51-41.71-47.6v122.77Z"></path>
  <path d="m283.16,398.1c-10.96,0-19.88-8.92-19.88-19.88v-54.32c0-3.48,2.82-6.3,6.3-6.3h27.16c3.48,0,6.3,2.82,6.3,6.3v54.32c0,10.96-8.92,19.88-19.88,19.88Zm-7.27-67.9v48.01c0,4.01,3.26,7.27,7.27,7.27s7.27-3.26,7.27-7.27v-48.01h-14.55Z"></path>
  <path d="m215.26,398.1c-10.96,0-19.88-8.92-19.88-19.88v-93.84l-13.13-32.82c-.3-.74-.45-1.54-.45-2.34v-27.16c0-3.48,2.82-6.3,6.3-6.3h54.32c3.48,0,6.3,2.82,6.3,6.3v27.16c0,.8-.15,1.6-.45,2.34l-13.13,32.82v93.84c0,10.96-8.92,19.88-19.88,19.88Zm-20.85-150.11l13.13,32.82c.3.74.45,1.54.45,2.34v95.06c0,4.01,3.26,7.27,7.27,7.27s7.27-3.26,7.27-7.27v-95.06c0-.8.15-1.6.45-2.34l13.13-32.82v-19.64h-41.71v19.64Z"></path>
  <path d="m188.1,228.36c-3.48,0-6.3-2.82-6.3-6.3v-33.95c0-3.48,2.82-6.3,6.3-6.3s6.3,2.82,6.3,6.3v33.95c0,3.48-2.82,6.3-6.3,6.3Z"></path>
  <path d="m215.26,228.36c-3.48,0-6.3-2.82-6.3-6.3v-33.95c0-3.48,2.82-6.3,6.3-6.3s6.3,2.82,6.3,6.3v33.95c0,3.48-2.82,6.3-6.3,6.3Z"></path>
  <path d="m242.42,228.36c-3.48,0-6.3-2.82-6.3-6.3v-33.95c0-3.48,2.82-6.3,6.3-6.3s6.3,2.82,6.3,6.3v33.95c0,3.48-2.82,6.3-6.3,6.3Z"></path>
</symbol><symbol id="i113_other-27" xmlns="http://www.w3.org/2000/svg" viewBox="0 0 512 512">
  <path d="m380.99,466h-233.63c-3.48,0-6.3-2.82-6.3-6.3V52.3c0-3.48,2.82-6.3,6.3-6.3h233.63c16.92,0,30.69,13.77,30.69,30.69v358.63c0,16.92-13.77,30.69-30.69,30.69Zm-227.33-12.61h227.33c9.97,0,18.08-8.11,18.08-18.08V76.69c0-9.97-8.11-18.08-18.08-18.08h-227.33v394.78Z"></path>
  <path d="m147.36,466h-16.36c-16.92,0-30.69-13.77-30.69-30.69V76.69c0-16.92,13.77-30.69,30.69-30.69h16.36c3.48,0,6.3,2.82,6.3,6.3v407.39c0,3.48-2.82,6.3-6.3,6.3Zm-16.36-407.39c-9.97,0-18.08,8.11-18.08,18.08v358.63c0,9.97,8.11,18.08,18.08,18.08h10.05V58.61h-10.05Z"></path>
  <path d="m344.27,296.25h-54.32c-3.48,0-6.3-2.82-6.3-6.3v-135.8c0-3.48,2.82-6.3,6.3-6.3,33.43,0,60.62,27.2,60.62,60.62v81.48c0,3.48-2.82,6.3-6.3,6.3Zm-48.01-12.61h41.71v-75.17c0-24.34-18.2-44.51-41.71-47.6v122.78Z"></path>
  <path d="m303.53,364.15c-10.96,0-19.88-8.92-19.88-19.88v-54.32c0-3.48,2.82-6.3,6.3-6.3h27.16c3.48,0,6.3,2.82,6.3,6.3v54.32c0,10.96-8.92,19.88-19.88,19.88Zm-7.27-67.9v48.01c0,4.01,3.26,7.27,7.27,7.27s7.27-3.26,7.27-7.27v-48.01h-14.55Z"></path>
  <path d="m235.63,364.15c-10.96,0-19.88-8.92-19.88-19.88v-93.84l-13.13-32.82c-.3-.74-.45-1.54-.45-2.34v-27.16c0-3.48,2.82-6.3,6.3-6.3h54.32c3.48,0,6.3,2.82,6.3,6.3v27.16c0,.8-.15,1.6-.45,2.34l-13.13,32.82v93.84c0,10.96-8.92,19.88-19.88,19.88Zm-20.85-150.11l13.13,32.82c.3.74.45,1.54.45,2.34v95.06c0,4.01,3.26,7.27,7.27,7.27s7.27-3.26,7.27-7.27v-95.06c0-.8.15-1.6.45-2.34l13.13-32.82v-19.64h-41.71v19.64Z"></path>
  <path d="m208.47,194.41c-3.48,0-6.3-2.82-6.3-6.3v-33.95c0-3.48,2.82-6.3,6.3-6.3s6.3,2.82,6.3,6.3v33.95c0,3.48-2.82,6.3-6.3,6.3Z"></path>
  <path d="m235.63,194.41c-3.48,0-6.3-2.82-6.3-6.3v-33.95c0-3.48,2.82-6.3,6.3-6.3s6.3,2.82,6.3,6.3v33.95c0,3.48-2.82,6.3-6.3,6.3Z"></path>
  <path d="m262.79,194.41c-3.48,0-6.3-2.82-6.3-6.3v-33.95c0-3.48,2.82-6.3,6.3-6.3s6.3,2.82,6.3,6.3v33.95c0,3.48-2.82,6.3-6.3,6.3Z"></path>
</symbol><symbol id="i113_other-28" xmlns="http://www.w3.org/2000/svg" viewBox="0 0 512 512">
  <path d="m391.8,466H120.2c-3.48,0-6.3-2.82-6.3-6.3V52.3c0-3.48,2.82-6.3,6.3-6.3h271.59c3.48,0,6.3,2.82,6.3,6.3v407.39c0,3.48-2.82,6.3-6.3,6.3Zm-265.29-12.61h258.98V58.61H126.51v394.78Z"></path>
  <path d="m323.9,438.84h-135.8c-3.48,0-6.3-2.82-6.3-6.3,0-18.99-15.45-34.43-34.43-34.43-3.48,0-6.3-2.82-6.3-6.3V120.2c0-3.48,2.82-6.3,6.3-6.3,18.99,0,34.43-15.45,34.43-34.43,0-3.48,2.82-6.3,6.3-6.3h135.8c3.48,0,6.3,2.82,6.3,6.3,0,18.99,15.45,34.43,34.43,34.43,3.48,0,6.3,2.82,6.3,6.3v271.59c0,3.48-2.82,6.3-6.3,6.3-18.99,0-34.43,15.45-34.43,34.43,0,3.48-2.82,6.3-6.3,6.3Zm-129.91-12.61h124.03c2.81-20.91,19.41-37.51,40.32-40.32V126.09c-20.91-2.81-37.51-19.41-40.32-40.32h-124.03c-2.81,20.91-19.41,37.51-40.32,40.32v259.82c20.91,2.81,37.51,19.41,40.32,40.32Z"></path>
  <path d="m323.9,296.25h-54.32c-3.48,0-6.3-2.82-6.3-6.3v-135.8c0-3.48,2.82-6.3,6.3-6.3,33.43,0,60.62,27.2,60.62,60.62v81.48c0,3.48-2.82,6.3-6.3,6.3Zm-48.01-12.61h41.71v-75.17c0-24.34-18.2-44.51-41.71-47.6v122.78Z"></path>
  <path d="m283.16,364.15c-10.96,0-19.88-8.92-19.88-19.88v-54.32c0-3.48,2.82-6.3,6.3-6.3h27.16c3.48,0,6.3,2.82,6.3,6.3v54.32c0,10.96-8.92,19.88-19.88,19.88Zm-7.27-67.9v48.01c0,4.01,3.26,7.27,7.27,7.27s7.27-3.26,7.27-7.27v-48.01h-14.55Z"></path>
  <path d="m215.26,364.15c-10.96,0-19.88-8.92-19.88-19.88v-93.84l-13.13-32.82c-.3-.74-.45-1.54-.45-2.34v-27.16c0-3.48,2.82-6.3,6.3-6.3h54.32c3.48,0,6.3,2.82,6.3,6.3v27.16c0,.8-.15,1.6-.45,2.34l-13.13,32.82v93.84c0,10.96-8.92,19.88-19.88,19.88Zm-20.85-150.11l13.13,32.82c.3.74.45,1.54.45,2.34v95.06c0,4.01,3.26,7.27,7.27,7.27s7.27-3.26,7.27-7.27v-95.06c0-.8.15-1.6.45-2.34l13.13-32.82v-19.64h-41.71v19.64Z"></path>
  <path d="m188.1,194.41c-3.48,0-6.3-2.82-6.3-6.3v-33.95c0-3.48,2.82-6.3,6.3-6.3s6.3,2.82,6.3,6.3v33.95c0,3.48-2.82,6.3-6.3,6.3Z"></path>
  <path d="m215.26,194.41c-3.48,0-6.3-2.82-6.3-6.3v-33.95c0-3.48,2.82-6.3,6.3-6.3s6.3,2.82,6.3,6.3v33.95c0,3.48-2.82,6.3-6.3,6.3Z"></path>
  <path d="m242.42,194.41c-3.48,0-6.3-2.82-6.3-6.3v-33.95c0-3.48,2.82-6.3,6.3-6.3s6.3,2.82,6.3,6.3v33.95c0,3.48-2.82,6.3-6.3,6.3Z"></path>
</symbol><symbol id="i113_other-29" xmlns="http://www.w3.org/2000/svg" viewBox="0 0 512 512">
  <path d="m391.8,466H120.2c-3.48,0-6.3-2.82-6.3-6.3V52.3c0-3.48,2.82-6.3,6.3-6.3h271.59c3.48,0,6.3,2.82,6.3,6.3v407.39c0,3.48-2.82,6.3-6.3,6.3Zm-265.29-12.61h258.98V58.61H126.51v394.78Z"></path>
  <path d="m323.9,438.84h-135.8c-3.48,0-6.3-2.82-6.3-6.3,0-18.99-15.45-34.43-34.43-34.43-3.48,0-6.3-2.82-6.3-6.3V120.2c0-3.48,2.82-6.3,6.3-6.3,18.99,0,34.43-15.45,34.43-34.43,0-3.48,2.82-6.3,6.3-6.3h135.8c3.48,0,6.3,2.82,6.3,6.3,0,18.99,15.45,34.43,34.43,34.43,3.48,0,6.3,2.82,6.3,6.3v271.59c0,3.48-2.82,6.3-6.3,6.3-18.99,0-34.43,15.45-34.43,34.43,0,3.48-2.82,6.3-6.3,6.3Zm-129.91-12.61h124.03c2.81-20.91,19.41-37.51,40.32-40.32V126.09c-20.91-2.81-37.51-19.41-40.32-40.32h-124.03c-2.81,20.91-19.41,37.51-40.32,40.32v259.82c20.91,2.81,37.51,19.41,40.32,40.32Z"></path>
  <path d="m256,218.17h-13.58c-3.48,0-6.3-2.82-6.3-6.3s2.82-6.3,6.3-6.3h13.58c4.01,0,7.27-3.26,7.27-7.27s-3.26-7.27-7.27-7.27c-10.96,0-19.88-8.92-19.88-19.88s8.92-19.88,19.88-19.88h13.58c3.48,0,6.3,2.82,6.3,6.3s-2.82,6.3-6.3,6.3h-13.58c-4.01,0-7.27,3.26-7.27,7.27s3.26,7.27,7.27,7.27c10.96,0,19.88,8.92,19.88,19.88s-8.92,19.88-19.88,19.88Z"></path>
  <path d="m256,231.75c-3.48,0-6.3-2.82-6.3-6.3v-13.58c0-3.48,2.82-6.3,6.3-6.3s6.3,2.82,6.3,6.3v13.58c0,3.48-2.82,6.3-6.3,6.3Z"></path>
  <path d="m256,163.85c-3.48,0-6.3-2.82-6.3-6.3v-13.58c0-3.48,2.82-6.3,6.3-6.3s6.3,2.82,6.3,6.3v13.58c0,3.48-2.82,6.3-6.3,6.3Z"></path>
  <path d="m313.71,374.34h-115.43c-10.96,0-19.88-8.92-19.88-19.88s8.92-19.88,19.88-19.88h115.43c10.96,0,19.88,8.92,19.88,19.88s-8.92,19.88-19.88,19.88Zm-115.43-27.16c-4.01,0-7.27,3.26-7.27,7.27s3.26,7.27,7.27,7.27h115.43c4.01,0,7.27-3.26,7.27-7.27s-3.26-7.27-7.27-7.27h-115.43Z"></path>
  <path d="m313.71,347.18h-115.43c-3.48,0-6.3-2.82-6.3-6.3v-3.39c0-35.3,28.72-64.02,64.02-64.02s64.02,28.72,64.02,64.02v3.39c0,3.48-2.82,6.3-6.3,6.3Zm-109.04-12.61h102.65c-1.51-27-23.96-48.5-51.33-48.5s-49.81,21.5-51.33,48.5Z"></path>
  <path d="m256,286.07c-10.96,0-19.88-8.92-19.88-19.88s8.92-19.88,19.88-19.88,19.88,8.92,19.88,19.88-8.92,19.88-19.88,19.88Zm0-27.16c-4.01,0-7.27,3.26-7.27,7.27s3.26,7.27,7.27,7.27,7.27-3.26,7.27-7.27-3.26-7.27-7.27-7.27Z"></path>
</symbol><symbol id="i113_other-3" xmlns="http://www.w3.org/2000/svg" viewBox="0 0 512 512">
  <path d="m220.3,257.41l-7.98-7.99c-6.86-6.87-18.06-6.88-24.94,0L51.15,385.65c-6.87,6.87-6.87,18.06,0,24.93l50.26,50.26c3.33,3.33,7.76,5.17,12.47,5.17s9.14-1.84,12.46-5.17l136.23-136.23c6.87-6.87,6.87-18.06,0-24.93l-7.99-7.99s0,0,0,0l30.13-30.13s0,0,.01-.01l5.12,5.11c7.04,6.11,15.3,9.24,24.23,9.24,2.56,0,5.18-.25,7.83-.77,59.66-11.64,134.76-156.23,143.13-172.68,1.95-3.84.85-8.52-2.61-11.08-3.47-2.57-8.27-2.24-11.36.74l-102.46,98.83c-8.46,8.16-19.07,13.43-30.69,15.24l-14.32,2.23,2.23-14.32c1.8-11.61,7.07-22.22,15.23-30.69l98.83-102.46c2.99-3.1,3.3-7.9.74-11.36-2.56-3.46-7.24-4.58-11.09-2.61-16.45,8.36-161.03,83.47-172.67,143.13-2.33,11.91.6,23,8.89,32.52l4.68,4.67h0s-30.13,30.13-30.13,30.13Zm-106.42,190.97l-50.26-50.26,89.36-89.36c7.55,13.86,23.23,36.43,50.08,50.44l-89.18,89.18Zm102.38-102.38c-29.36-13.08-44.8-39.37-50.16-50.35l33.76-33.76,20.44,20.44s0,.01,0,.01l4.68,4.67,25.13,25.13-33.85,33.85Zm37.92-152.54c5.94-30.43,62.91-71.82,111.11-101.31l-56.92,59.01c-10.7,11.09-17.6,25-19.97,40.22l-4.09,26.24c-.43,2.78.49,5.6,2.48,7.59,1.98,1.99,4.8,2.91,7.59,2.48l26.24-4.08c15.23-2.37,29.13-9.28,40.22-19.97l59.03-56.94c-29.49,48.2-70.89,105.19-101.33,111.13-6.67,1.31-12.11-.12-16.68-4.05l-17.09-17.08s-.03-.04-.05-.06l-9.35-9.35s-.05-.04-.07-.06l-16.65-16.63c-4.35-5.02-5.78-10.46-4.48-17.13Zm-12.05,85.76l-9.35-9.35,30.13-30.13,9.35,9.35-30.13,30.13Z"></path>
</symbol><symbol id="i113_other-4" xmlns="http://www.w3.org/2000/svg" viewBox="0 0 512 512">
  <path d="m429.01,46.14c-2.89-.52-5.89.43-7.98,2.52l-225.47,225.47-30.95,30.95-.03.02s0,.02-.02.03l-96.47,96.47c-3.55,3.55-3.55,9.3,0,12.85l48.89,48.9c1.77,1.76,4.09,2.66,6.42,2.66,2.1,0,4.21-.73,5.92-2.2,8.5-7.3,64.43-55.94,95.87-97.82.05-.05.11-.06.16-.11.35-.35.51-.8.79-1.19,7.85-10.6,14.09-20.73,17.52-29.61l20.26,20.27c1.77,1.76,4.09,2.66,6.42,2.66,1.97,0,3.94-.63,5.59-1.92,2.24-1.74,55.36-43.45,102.12-101.4,63.35-78.52,83.28-148.88,57.61-203.46-1.26-2.68-3.74-4.58-6.66-5.08ZM123.85,444.5l-36.48-36.49,83.64-83.64,35.88,35.87c-21.85,27.28-56.18,60.65-83.04,84.25Zm93.99-98.99l-33.98-33.98,18.12-18.12,25.72,25.72c.21.22.79.79.71,2.88-.22,5.8-4.15,13.96-10.57,23.5Zm53.14-8.8l-30.43-30.43-25.72-25.72,209.21-209.21c32.45,104.16-119.97,237.87-153.06,265.36Z"></path>
</symbol><symbol id="i113_other-5" xmlns="http://www.w3.org/2000/svg" viewBox="0 0 512 512">
  <path d="m438.37,157.47c-12.62,0-23.18,8.56-26.46,20.13h-10.77c.91-5.61,1.54-11.29,1.54-17.1,0-4.14-3.36-7.49-7.49-7.49H113.75c-4.14,0-7.49,3.36-7.49,7.49,0,5.82.63,11.49,1.54,17.1h-7.7c-3.29-11.58-13.84-20.13-26.46-20.13-15.24,0-27.63,12.39-27.63,27.62s12.39,27.63,27.63,27.63c12.62,0,23.17-8.55,26.46-20.12h11.26c9.94,31.77,34.17,58.58,66.57,75.23-1.09,1.64-1.92,3.45-2.38,5.42l-37.15,160.12c-1,4.3-.26,8.74,2.08,12.49,2.34,3.75,6,6.36,10.3,7.36l5.09,1.18c1.26.3,2.53.44,3.79.44,3.05,0,6.05-.85,8.71-2.5,3.76-2.34,6.38-6,7.37-10.31l37.16-160.13c.07-.31.06-.61.12-.92,13.18,3.26,27.07,5.1,41.47,5.1s28.64-1.86,41.96-5.2c.06.34.05.68.13,1.03l22.33,96.25c-9.46,8.26-14.98,20.23-14.98,32.94,0,24.12,19.62,43.74,43.74,43.74.59,0,1.16-.05,1.73-.14,1.08.05,2.53.08,4.19-.3l.9-.23c21.39-3.38,36.92-21.5,36.92-43.08s-15.17-38.9-35.45-42.8l-22.05-95.05c-.48-2.05-1.34-3.93-2.5-5.61,32.2-16.67,56.28-43.38,66.18-75.03h14.32c3.29,11.58,13.84,20.12,26.46,20.12,15.24,0,27.63-12.39,27.63-27.63s-12.39-27.62-27.63-27.62Zm-364.75,40.26c-6.97,0-12.64-5.67-12.64-12.64s5.67-12.63,12.64-12.63,12.64,5.67,12.64,12.63-5.67,12.64-12.64,12.64Zm87.49,240.91h0c-.12.52-.45.82-.7.97-.25.15-.67.3-1.17.19l-5.1-1.18c-.71-.16-1.33-1.15-1.17-1.87l37.15-160.12c.15-.63.94-1.2,1.62-1.2.08,0,.17.01.25.03l5.1,1.18c.84.19,1.36,1.03,1.17,1.86l-37.16,160.12Zm181.41-61.88c.75,3.23,3.54,5.59,6.85,5.79,15.16.91,27.03,13.45,27.03,28.55,0,14.16-10.21,26.05-24.8,28.38l-1.06.27-.81-.04c-.27-.01-.57-.02-.86-.01-.23.01-1,.12-1.24.15-15.85,0-28.75-12.9-28.75-28.75,0-9.51,4.71-18.4,12.59-23.78,2.56-1.74,3.78-4.87,3.08-7.89l-23.41-100.91c-.19-.84.33-1.68,1.17-1.87l5.1-1.19c.08-.02.16-.03.24-.03.68,0,1.47.56,1.62,1.2l23.23,100.13Zm-88.06-105.67c-70.42,0-128.25-45.59-132.91-103.09h265.83c-4.66,57.49-62.49,103.09-132.92,103.09Zm183.91-73.36c-6.97,0-12.64-5.67-12.64-12.64s5.67-12.63,12.64-12.63,12.64,5.67,12.64,12.63-5.67,12.64-12.64,12.64Z"></path>
  <path d="m327.58,410.79c0,11.12,9.01,20.13,20.13,20.13s20.13-9.01,20.13-20.13-9.01-20.13-20.13-20.13-20.13,9.01-20.13,20.13Z"></path>
  <path d="m205.38,138.03c1.45,1.38,3.3,2.06,5.16,2.06,1.98,0,3.96-.78,5.44-2.33,2.85-3,2.72-7.75-.28-10.6-8.86-8.41-6.42-12.13,2.64-22.62,5.88-6.82,12.55-14.55,11.44-24.74-.8-7.39-5.62-14.3-14.74-21.13-3.31-2.48-8.01-1.81-10.49,1.5-2.48,3.31-1.81,8.01,1.5,10.49,5.46,4.09,8.51,7.81,8.83,10.75.4,3.72-3.63,8.4-7.89,13.34-7.95,9.22-21.26,24.64-1.61,43.29Z"></path>
  <path d="m252.32,138.03c1.45,1.38,3.3,2.06,5.16,2.06,1.98,0,3.96-.78,5.44-2.33,2.85-3,2.72-7.75-.28-10.6-8.86-8.41-6.42-12.13,2.64-22.62,5.88-6.82,12.55-14.55,11.44-24.74-.8-7.39-5.63-14.3-14.75-21.13-3.31-2.48-8-1.81-10.49,1.5-2.48,3.31-1.81,8.01,1.5,10.49,5.46,4.09,8.51,7.81,8.83,10.75.4,3.72-3.63,8.4-7.89,13.34-7.95,9.22-21.25,24.64-1.61,43.29Z"></path>
  <path d="m299.26,138.03c1.45,1.38,3.3,2.06,5.16,2.06,1.98,0,3.96-.78,5.44-2.33,2.85-3,2.72-7.75-.28-10.6-8.86-8.41-6.42-12.13,2.64-22.62,5.88-6.82,12.55-14.55,11.44-24.74-.8-7.39-5.63-14.3-14.75-21.13-3.31-2.48-8.01-1.81-10.49,1.5-2.48,3.31-1.81,8.01,1.5,10.49,5.46,4.09,8.51,7.81,8.83,10.75.4,3.72-3.63,8.4-7.89,13.34-7.95,9.22-21.26,24.64-1.61,43.29Z"></path>
</symbol><symbol id="i113_other-6" xmlns="http://www.w3.org/2000/svg" viewBox="0 0 512 512">
  <path d="m95.52,252.95c11.28,0,20.73-7.48,23.96-17.71h8.54c8.86,27.63,29.91,50.96,57.99,65.65-.74,1.29-1.37,2.66-1.73,4.18l-32.68,140.87c-.95,4.02-.26,8.17,1.92,11.68,2.19,3.52,5.61,5.97,9.66,6.92l4.48,1.03c1.18.28,2.36.41,3.54.41,2.86,0,5.67-.8,8.15-2.35,3.52-2.19,5.97-5.62,6.9-9.66l32.67-140.8c11.38,2.73,23.33,4.3,35.73,4.3s24.64-1.59,36.14-4.39c0,0,0,0,0,0l19.53,84.16c-8.28,7.43-13.1,18.05-13.1,29.31,0,21.73,17.68,39.41,39.42,39.41.55,0,1.09-.05,1.51-.12,1,.05,2.35.07,3.9-.29l.73-.19c19.27-3.05,33.26-19.37,33.26-38.82s-13.37-34.71-31.35-38.45l-19.28-83.05c-.36-1.58-1.02-3.02-1.82-4.37,27.91-14.69,48.82-37.95,57.64-65.47h11.26c3.23,10.22,12.68,17.71,23.96,17.71,13.91,0,25.23-11.32,25.23-25.23s-11.32-25.23-25.23-25.23c-11.28,0-20.75,7.49-23.97,17.72h-7.71c.7-4.64,1.18-9.34,1.18-14.13,0-51.48-41.44-94.8-97.46-107.52v-11.89h2.96c9.56,0,17.34-8.68,17.34-19.35v-1.97c0-10.67-7.78-19.35-17.34-19.35h-73.67c-9.57,0-17.34,8.68-17.34,19.35v1.97c0,10.67,7.78,19.35,17.34,19.35h3.34v11.8c-56.22,12.61-97.85,56.01-97.85,107.6,0,4.8.48,9.49,1.18,14.13h-4.99c-3.22-10.23-12.68-17.72-23.97-17.72-13.92,0-25.23,11.32-25.23,25.23s11.32,25.23,25.23,25.23Zm76.09,197.66l-.54.34-4.82-1.58,33.23-141.24,4.82,1.58-32.7,140.9Zm159.64-54.03c.75,3.24,3.54,5.6,6.87,5.8,12.85.77,22.91,11.4,22.91,24.2,0,12.01-8.65,22.09-21.11,24.07l-1.34.18c-.18-.01-.36-.02-.54-.02-.37,0-1.04.09-1.39.14-13.45,0-24.39-10.94-24.39-24.38,0-8.06,3.99-15.6,10.69-20.15,2.57-1.75,3.79-4.89,3.09-7.91l-20.27-89.34,5.03-.7,20.46,88.11Zm85.23-179.06c5.62,0,10.19,4.57,10.19,10.19s-4.57,10.2-10.19,10.2-10.2-4.58-10.2-10.2,4.58-10.19,10.2-10.19Zm-161.83,84.94c-61.09,0-111.32-39.22-115.97-88.87h231.91c-4.64,49.65-54.87,88.87-115.94,88.87Zm-39.16-235.14v-1.97c0-2.68,1.5-4.32,2.31-4.32h73.67c.82,0,2.31,1.64,2.31,4.32v1.97c0,2.68-1.49,4.32-2.31,4.32h-73.67c-.82,0-2.31-1.64-2.31-4.32Zm20.68,19.35h37.31v9.27c-6.17-.76-12.42-1.28-18.83-1.28s-12.42.51-18.47,1.23v-9.23Zm18.47,23.02c61.07,0,111.31,39.22,115.94,88.87h-231.91c4.65-49.65,54.88-88.87,115.97-88.87Zm-159.13,107.82c5.62,0,10.2,4.57,10.2,10.19s-4.58,10.2-10.2,10.2-10.2-4.58-10.2-10.2,4.58-10.19,10.2-10.19Z"></path>
  <path d="m318.99,426.32c0,9.78,7.93,17.71,17.72,17.71s17.71-7.93,17.71-17.71-7.93-17.71-17.71-17.71-17.72,7.93-17.72,17.71Z"></path>
</symbol><symbol id="i113_other-7" xmlns="http://www.w3.org/2000/svg" viewBox="0 0 512 512">
  <path d="m109.03,270.87c10.41,0,19.16-6.83,22.27-16.21h7.16c8.16,25.15,27.31,46.4,52.82,59.86-.59,1.1-1.09,2.27-1.39,3.54l-29.93,129.03c-.89,3.81-.24,7.74,1.83,11.06,2.06,3.31,5.29,5.62,9.11,6.51l4.08.95c1.12.26,2.24.39,3.36.39,2.69,0,5.35-.76,7.7-2.22,3.32-2.07,5.64-5.31,6.52-9.12l29.83-128.53c10.32,2.44,21.15,3.85,32.37,3.85s22.33-1.43,32.77-3.94l17.72,76.39c-7.55,6.88-11.93,16.65-11.93,27,0,20.16,16.39,36.55,36.55,36.55.52,0,1.01-.04,1.43-.1.97.06,2.2.05,3.64-.28l.64-.16c17.88-2.83,30.85-17.97,30.85-36s-12.26-32.02-28.79-35.59l-17.6-75.81c-.31-1.32-.84-2.54-1.48-3.69,25.35-13.47,44.37-34.65,52.51-59.69h9.65c3.11,9.38,11.86,16.21,22.27,16.21,12.99,0,23.56-10.57,23.56-23.56s-10.56-23.55-23.56-23.55c-10.42,0-19.17,6.84-22.27,16.23h-6.19c.59-4.1.99-8.25.99-12.49,0-.29-.13-.53-.16-.81,6.27-25.81.81-53.06-15.69-77.05-11.16-16.21-26.53-29.58-44.57-39.29l2.67-9.66,2.18.6c1.3.36,2.64.54,3.98.54,2.66,0,5.34-.71,7.79-2.1,4.22-2.39,7.43-6.62,8.8-11.6l.49-1.74c2.67-9.65-2.21-19.46-10.89-21.87l-65.04-17.99c-4.39-1.2-9.18-.33-13.13,2.41-3.58,2.5-6.23,6.32-7.45,10.73l-.49,1.76c-2.67,9.66,2.21,19.47,10.89,21.87l2.53.7-2.67,9.64c-52.76-2.45-100.1,25.8-112.73,71.44-.52,1.87-.27,3.88.69,5.57.96,1.69,2.55,2.93,4.43,3.45l166.53,46.06h-172.29c-4.05,0-7.33,3.28-7.33,7.33s.4,8.39.99,12.49h-3.71c-3.1-9.39-11.85-16.23-22.27-16.23-12.99,0-23.57,10.56-23.57,23.55s10.57,23.56,23.57,23.56Zm69.25,180.44l-4.03-.89,29.91-129.02,4.07.9-29.95,129.01Zm146.2-49.24c.73,3.17,3.46,5.47,6.71,5.66,11.53.69,20.56,10.23,20.56,21.71,0,10.77-7.77,19.82-18.98,21.61l-1.06.16c-.31-.02-.63-.02-.92-.01-.44.02-.85.07-.93.13-12.07,0-21.88-9.82-21.88-21.88,0-7.23,3.58-14,9.59-18.09,2.5-1.7,3.7-4.77,3.01-7.72l-18.9-81.28,4.07-.98,18.73,80.7Zm78.5-163.64c4.9,0,8.89,3.99,8.89,8.88s-3.99,8.89-8.89,8.89-8.89-3.99-8.89-8.89,3.99-8.88,8.89-8.88Zm-144.86-173.07l.5-1.77c.31-1.12.93-2.08,1.7-2.61.32-.22.61-.32.77-.32.02,0,.04,0,.07,0l65.03,17.99c.4.11,1.28,1.64.68,3.8l-.49,1.75s0,.02,0,.02c-.4,1.46-1.25,2.39-2.53,2.94l-65.05-17.99c-.39-.11-1.26-1.64-.67-3.8Zm13.43,22.55l32.06,8.87-2,7.24c-5.16-2.1-10.42-4.02-15.9-5.53-5.4-1.49-10.78-2.53-16.16-3.36l2-7.21Zm10.25,24.71c27.53,7.62,50.89,23.71,65.77,45.33,13.05,18.97,18.14,40.16,14.65,60.43l-203.76-56.36c16.36-42.17,69.87-64.19,123.35-49.39Zm78.67,122.21c-4.52,45-50.2,80.49-105.71,80.49s-101.19-35.48-105.71-80.49h211.41Zm-251.44,3.6c4.9,0,8.89,3.99,8.89,8.88s-3.99,8.89-8.89,8.89-8.9-3.99-8.9-8.89,3.99-8.88,8.9-8.88Z"></path>
  <path d="m313.69,429.2c0,8.96,7.26,16.22,16.23,16.22s16.22-7.26,16.22-16.22-7.26-16.22-16.22-16.22-16.23,7.26-16.23,16.22Z"></path>
</symbol><symbol id="i113_other-8" xmlns="http://www.w3.org/2000/svg" viewBox="0 0 512 512">
  <path d="m259.26,278.93c-5.73,0-9.88-.54-11.52-.79-5.11.12-34.72-.13-57.13-21.39-16.5-15.65-24.86-38.58-24.86-68.14,0-31.33,16.98-45.07,33.41-58.37,19.36-15.67,37.64-30.47,29.44-76.92-.35-1.99.29-4.03,1.71-5.47,1.42-1.44,3.46-2.1,5.46-1.76,1.16.19,28.82,4.97,56.19,23.63,25.53,17.41,55.42,50.54,52.8,109.52-1.69,38.13-13.23,65.96-34.28,82.73-17.97,14.31-38.49,16.97-51.22,16.97Zm-11.12-13.28c.38,0,.76.03,1.13.1.28.05,30.12,5.11,53.55-13.63,18.03-14.43,27.95-39.14,29.48-73.43,1.89-42.58-13.92-75.69-47.01-98.42-16.39-11.26-33.24-17.12-43.05-19.84,5.37,46.65-16.13,64.05-35.24,79.52-15.44,12.5-28.78,23.3-28.78,48.67s7.03,45.79,20.88,59c20.13,19.19,48.45,18.06,48.73,18.05.1,0,.2,0,.3,0Z"></path>
  <path d="m255.33,278.91c-24.93,0-45.21-20.28-45.21-45.21,0-21.78,17.55-73.37,45.21-73.37s45.21,51.59,45.21,73.37c0,24.93-20.28,45.21-45.21,45.21Zm0-106.1c-15.39,0-32.74,39.72-32.74,60.89,0,18.05,14.69,32.74,32.74,32.74s32.74-14.69,32.74-32.74c0-21.17-17.34-60.89-32.74-60.89Z"></path>
  <path d="m405.29,466c-12.68,0-25.26-3.82-36.25-11.13-28.95-19.25-37.8-57.04-19.72-84.23,18.08-27.19,56.35-33.65,85.3-14.4,13.96,9.28,23.72,23.1,27.48,38.92,3.8,15.98,1.04,32.07-7.76,45.31-8.8,13.24-22.58,22.01-38.78,24.68-3.41.56-6.84.84-10.27.84Zm-6.99-108.38c-15.34,0-29.95,6.92-38.6,19.93-14.27,21.46-6.99,51.49,16.24,66.94h0c11.32,7.53,24.66,10.5,37.58,8.36,12.75-2.11,23.56-8.95,30.43-19.28,6.87-10.33,9-22.94,6.01-35.52-3.03-12.73-10.93-23.89-22.25-31.42-9.15-6.08-19.44-9.01-29.41-9.01Z"></path>
  <ellipse cx="401.83" cy="405.56" rx="14.39" ry="15.43" transform="translate(-158.38 515.6) rotate(-56.38)"></ellipse>
  <ellipse cx="110.17" cy="405.56" rx="15.43" ry="14.39" transform="translate(-206.13 128.85) rotate(-33.62)"></ellipse>
  <path d="m368.82,454.72L69.55,237.09c-21.22-14.19-27.66-41.99-14.34-62.02,13.32-20.03,41.44-24.84,62.74-10.77l58.26,35.31-6.47,10.67-58.36-35.37c-.07-.04-.15-.09-.22-.14-15.58-10.36-36.02-7.13-45.56,7.21-9.53,14.34-4.61,34.44,10.97,44.8.07.05.14.1.22.15l299.38,217.71-7.34,10.09Z"></path>
  <rect x="349.51" y="227.53" width="12.47" height="176.39" transform="translate(-98.65 456.31) rotate(-58.78)"></rect>
  <path d="m106.71,466c-3.43,0-6.86-.28-10.27-.84-16.2-2.68-29.98-11.44-38.78-24.68-8.8-13.24-11.56-29.33-7.76-45.31,3.76-15.82,13.52-29.64,27.48-38.92,28.95-19.25,67.22-12.79,85.3,14.4,18.08,27.19,9.23,64.98-19.72,84.23h0c-10.99,7.31-23.57,11.13-36.25,11.13Zm6.99-108.38c-9.98,0-20.26,2.93-29.41,9.01-11.32,7.53-19.22,18.69-22.25,31.42-2.99,12.57-.86,25.19,6.01,35.52,6.87,10.33,17.67,17.18,30.43,19.28,12.91,2.13,26.26-.84,37.58-8.36h0c23.23-15.44,30.51-45.47,16.24-66.94-8.65-13.01-23.26-19.93-38.6-19.93Z"></path>
  <rect x="125.74" y="401.09" width="144.04" height="12.47" transform="translate(-201.76 194.22) rotate(-36.03)"></rect>
  <path d="m341.94,310.18l-7.34-10.09,100.61-73.16c.07-.05.14-.1.22-.15,15.58-10.36,20.51-30.46,10.97-44.8-9.53-14.34-29.97-17.57-45.56-7.21-.07.05-.15.1-.22.14l-62.47,37.86-6.47-10.67,62.36-37.79c21.3-14.08,49.42-9.27,62.74,10.77,13.32,20.03,6.88,47.82-14.34,62.02l-100.51,73.09Z"></path>
  <rect x="72.97" y="327.05" width="108.62" height="12.47" transform="translate(-154.32 114.24) rotate(-31.22)"></rect>
  <path d="m349.61,389.73c-1.23,0-2.48-.36-3.57-1.12l-59.12-41.3c-2.82-1.97-3.51-5.86-1.54-8.69,1.97-2.82,5.86-3.51,8.68-1.54l59.12,41.3c2.82,1.97,3.51,5.86,1.54,8.69-1.21,1.74-3.15,2.67-5.12,2.67Z"></path>
</symbol><symbol id="i113_other-9" xmlns="http://www.w3.org/2000/svg" viewBox="0 0 512 512">
  <path d="m172.66,466c-13.11,0-23.77-10.66-23.77-23.77v-228.02c-21.56-13.67-35.81-45.29-35.81-80.29,0-22.91,5.91-44.54,16.64-60.89,11.27-17.18,26.52-26.64,42.95-26.64s31.68,9.46,42.95,26.64c10.73,16.36,16.64,37.98,16.64,60.89,0,35-14.25,66.62-35.81,80.29v228.02c0,13.11-10.66,23.77-23.77,23.77Zm0-407c-12.04,0-23.54,7.44-32.4,20.94-9.4,14.33-14.57,33.5-14.57,53.98,0,32.24,13.04,60.81,32.46,71.1,2.06,1.09,3.35,3.24,3.35,5.57v231.64c0,6.16,5.01,11.16,11.16,11.16s11.16-5.01,11.16-11.16v-231.64c0-2.33,1.29-4.48,3.35-5.57,19.41-10.28,32.46-38.85,32.46-71.1,0-20.48-5.17-39.65-14.57-53.98-8.86-13.51-20.37-20.94-32.4-20.94Z"></path>
  <path d="m326.6,466c-.61,0-1.21-.09-1.78-.26-11.58-1.66-20.49-12.18-20.49-24.48v-221.51c-29.37-10.07-49.49-37.87-49.49-69.24v-84.62c0-10.97,8.92-19.89,19.89-19.89s19.89,8.92,19.89,19.89v70.16c0,3.96,3.22,7.18,7.18,7.18s7.18-3.22,7.18-7.18v-70.94c0-9.13,6.51-17.02,15.47-18.75.24-.05.48-.08.73-.1.4-.07.99-.16,1.7-.15.73-.01,1.56.07,2.45.25,8.92,1.73,15.43,9.61,15.43,18.74v70.94c0,3.96,3.22,7.18,7.18,7.18s7.18-3.22,7.18-7.18v-70.16c0-10.97,8.92-19.89,19.89-19.89s19.89,8.92,19.89,19.89v84.62c0,31.36-20.12,59.17-49.49,69.24v221.51c0,12.34-8.96,22.88-20.59,24.49-.63.18-1.3.27-1.96.24-.09,0-.19,0-.28,0Zm-51.87-407.39c-4.02,0-7.28,3.27-7.28,7.28v84.62c0,27.31,18.44,51.37,44.83,58.49,2.75.74,4.66,3.24,4.66,6.09v226.17c0,6.16,4.34,11.39,9.94,12.03,5.6-.64,9.94-5.87,9.94-12.03v-226.17c0-2.85,1.91-5.34,4.66-6.09,26.4-7.13,44.83-31.18,44.83-58.49v-84.62c0-4.01-3.27-7.28-7.28-7.28s-7.28,3.27-7.28,7.28v70.16c0,10.91-8.88,19.79-19.79,19.79s-19.79-8.88-19.79-19.79v-70.94c0-3.08-2.18-5.75-5.2-6.36-.12.02-.26.04-.4.05-2.89.7-4.96,3.31-4.96,6.31v70.94c0,10.91-8.88,19.79-19.79,19.79s-19.79-8.88-19.79-19.79v-70.16c0-4.01-3.27-7.28-7.28-7.28Zm52.75.09s-.01,0-.02,0c0,0,.01,0,.02,0Zm-1.85-12.46h-.01.01Zm.02,0h-.02.02Z"></path>
</symbol>
</svg>