<svg xmlns="http://www.w3.org/2000/svg" style="display: none;">

<symbol id="i541_fastfood-1" xmlns="http://www.w3.org/2000/svg" viewBox="0 0 512 512">
  <path d="m428.34,314.24c3.09,1.44,6.29,3.06,9.74,5.03,5.94,3.38,13.29,3.35,19.19-.09,5.47-3.18,8.73-8.7,8.73-14.79,0-18.57-10.92-34.81-27.13-43.71,11.82-8.18,19.6-21.83,19.6-37.26,0-91.02-75.17-143.22-206.22-143.22S46.01,132.4,46.01,223.41c0,21.29,14.78,39.15,34.6,43.98l-26.84,23.09c-7.15,6.2-9.6,15.4-6.39,24.01,3.44,9.22,12.4,15.18,22.85,15.18h7.97c.02,3.18.66,7.94,3.49,12.58-20.37,4.43-35.68,22.58-35.68,44.26,0,24.98,20.33,45.31,45.31,45.31h321.83c24.98,0,45.31-20.32,45.31-45.31,0-22.21-16.07-40.7-37.19-44.54,4.43-5.44,7.06-12.03,7.06-19.14v-8.58Zm-15.3,8.58c0,10.13-10.81,18.37-24.11,18.37H117.6c-15.99,0-24.1-3.92-24.1-11.66,0-.39-.17-.73-.22-1.1,8.69-2.02,16.54-6.49,22.39-12.99l3.21-3.58c6.65-7.42,18.48-9.11,27.48-3.93l3.49,2.01c11.14,6.39,24.73,7.98,37.24,4.32l7.86-2.29c11.72-3.4,23.99-3.09,35.5.89l1.82.63c10.61,3.68,22.25,3.53,32.78-.42l21.52-8.08c24.71-9.28,53.02-4.37,72.07,12.49,1.92,1.69,4.52,2.33,7.01,1.67l9.6-2.51c2.26-.59,4.62-1.49,7.06-2.7,11.07-5.51,20.57-7.15,31.34-4.85-.38.9-.59,1.89-.59,2.93v10.8ZM61.31,223.41c0-81.3,69.59-127.92,190.93-127.92s190.93,46.63,190.93,127.92c0,16.55-13.47,30.01-30.01,30.01H91.32c-16.55,0-30.01-13.47-30.01-30.01Zm.41,85.73c-.56-1.49-1.03-4.41,2.08-7.1l38.73-33.32h307.93c22.2,0,40.25,16,40.25,35.67,0,.75-.61,1.27-1.12,1.56-.96.55-2.49.84-3.94.02-22.86-13.04-43.55-18.98-70.16-5.74-1.49.74-2.87,1.28-4.12,1.6l-5.78,1.51c-23.14-18.41-55.78-23.43-84.41-12.68l-21.52,8.08c-7.18,2.7-15.14,2.8-22.4.29l-1.82-.63c-14.53-5.04-30.03-5.42-44.77-1.12l-7.86,2.29c-8.56,2.48-17.8,1.43-25.35-2.9l-3.49-2.01c-15.13-8.69-35.12-5.69-46.49,6.97l-3.21,3.57c-5.23,5.82-13.05,9.16-21.46,9.16h-12.58c-4.84,0-7.57-2.7-8.51-5.23Zm381.45,77.36c0,16.55-13.47,30.01-30.01,30.01H91.32c-16.55,0-30.01-13.46-30.01-30.01s13.47-30.01,30.01-30.01h321.83c16.55,0,30.01,13.47,30.01,30.01Z"></path>
  <path d="m229.19,147.99c5.19,0,9.39-4.2,9.39-9.39s-4.2-9.39-9.39-9.39-9.39,4.21-9.39,9.39,4.2,9.39,9.39,9.39Z"></path>
  <path d="m190.52,160.14c5.19,0,9.39-4.2,9.39-9.39s-4.21-9.39-9.39-9.39-9.39,4.2-9.39,9.39,4.2,9.39,9.39,9.39Z"></path>
  <path d="m216.3,181.87c5.19,0,9.39-4.2,9.39-9.39s-4.21-9.39-9.39-9.39-9.39,4.2-9.39,9.39,4.2,9.39,9.39,9.39Z"></path>
  <path d="m251.54,178.92c5.19,0,9.39-4.2,9.39-9.39s-4.2-9.39-9.39-9.39-9.39,4.2-9.39,9.39,4.2,9.39,9.39,9.39Z"></path>
  <path d="m159.77,184.08c5.19,0,9.39-4.21,9.39-9.39s-4.21-9.39-9.39-9.39-9.39,4.21-9.39,9.39,4.2,9.39,9.39,9.39Z"></path>
  <path d="m280.48,147.99c5.19,0,9.39-4.2,9.39-9.39s-4.2-9.39-9.39-9.39-9.39,4.21-9.39,9.39,4.21,9.39,9.39,9.39Z"></path>
  <path d="m321.49,162.72c5.19,0,9.39-4.2,9.39-9.39s-4.2-9.39-9.39-9.39-9.39,4.2-9.39,9.39,4.21,9.39,9.39,9.39Z"></path>
  <path d="m276.66,170.27c0,5.19,4.21,9.39,9.39,9.39s9.39-4.2,9.39-9.39-4.2-9.39-9.39-9.39-9.39,4.2-9.39,9.39Z"></path>
  <path d="m352.25,186.66c5.19,0,9.39-4.2,9.39-9.39s-4.2-9.39-9.39-9.39-9.39,4.2-9.39,9.39,4.21,9.39,9.39,9.39Z"></path>
</symbol><symbol id="i541_fastfood-10" xmlns="http://www.w3.org/2000/svg" viewBox="0 0 512 512">
  <g id="sandwich">
    <circle cx="356.06" cy="98.47" r="9.06"></circle>
    <circle cx="320.58" cy="169.26" r="9.06"></circle>
    <circle cx="226.52" cy="305.27" r="9.06"></circle>
    <circle cx="180.2" cy="347.71" r="9.06"></circle>
    <circle cx="141.87" cy="411.33" r="9.06"></circle>
    <circle cx="258.52" cy="235.55" r="9.06"></circle>
    <path d="m206.32,441.66c-2.09,0-4.1-1-5.34-2.77-1.6-2.26-1.6-5.28,0-7.54L454.12,73.1c1.64-2.33,4.6-3.32,7.32-2.46,2.72.86,4.56,3.38,4.56,6.23v287.3c0,2.93-1.95,5.51-4.77,6.3l-253.14,70.95c-.58.16-1.18.24-1.77.24ZM452.92,97.47l-230.63,326.39,230.63-64.64V97.47Z"></path>
    <path d="m206.32,441.66h-20.9c-6.96,0-13.26-3.84-16.46-10.01-3.2-6.18-2.69-13.54,1.32-19.22L406.46,78.18c3.47-4.91,9.13-7.84,15.14-7.84h37.86c3.61,0,6.54,2.93,6.54,6.54s-2.93,6.54-6.54,6.54h-37.86c-1.77,0-3.44.86-4.46,2.31l-236.18,334.25c-1.73,2.45-.85,4.77-.39,5.66.46.89,1.85,2.95,4.85,2.95h20.9c3.61,0,6.54,2.93,6.54,6.54s-2.93,6.54-6.54,6.54Z"></path>
    <path d="m103.46,441.66h-42.9c-5.46,0-10.41-3.01-12.92-7.86-2.51-4.85-2.11-10.63,1.04-15.09L290.49,76.49c2.72-3.85,7.17-6.15,11.88-6.15h42.9c3.61,0,6.54,2.93,6.54,6.54s-2.93,6.54-6.54,6.54h-42.9c-.48,0-.93.23-1.2.62L59.36,426.26c-.43.6-.29,1.16-.1,1.53.19.36.57.8,1.31.8h42.9c3.61,0,6.54,2.93,6.54,6.54s-2.93,6.54-6.54,6.54Z"></path>
    <path d="m185.43,441.66h-81.96c-5.46,0-10.41-3.01-12.92-7.86-2.51-4.85-2.11-10.63,1.04-15.09L333.39,76.49c2.72-3.85,7.17-6.15,11.88-6.15h76.33c3.61,0,6.54,2.93,6.54,6.54s-2.93,6.54-6.54,6.54h-76.33c-.48,0-.93.23-1.2.62L102.26,426.26c-.43.6-.29,1.16-.11,1.53.19.36.57.8,1.31.8h81.96c3.61,0,6.54,2.93,6.54,6.54s-2.93,6.54-6.54,6.54Z"></path>
    <path d="m112.7,406.7c-2.57,0-5-1.52-6.05-4.04-1.38-3.34.21-7.16,3.54-8.54l88.2-36.47c2.73-1.13,4.83-3.27,5.9-6.03,1.07-2.76.97-5.75-.29-8.43l-14.93-31.81c-2.58-5.49-2.78-11.88-.54-17.52,2.24-5.64,6.75-10.16,12.39-12.4l72.49-28.76c6.63-2.63,10.94-9.18,10.73-16.3l-1.87-63.9c-.44-15.03,8.66-28.83,22.64-34.36l83.93-33.16c3.36-1.32,7.16.32,8.49,3.68,1.33,3.36-.32,7.16-3.68,8.49l-83.93,33.16c-8.87,3.51-14.65,12.27-14.37,21.81l1.87,63.9c.37,12.6-7.26,24.2-18.98,28.85l-72.49,28.76c-2.34.93-4.13,2.72-5.06,5.06-.92,2.34-.85,4.87.22,7.15l14.93,31.81c2.79,5.95,3.02,12.59.64,18.72-2.38,6.12-7.03,10.88-13.1,13.39l-88.2,36.47c-.82.34-1.66.5-2.5.5Z"></path>
  </g>
</symbol><symbol id="i541_fastfood-11" xmlns="http://www.w3.org/2000/svg" viewBox="0 0 512 512">
  <g id="sandwich_1">
    <path d="m329.29,385.55H114.13c-15.63,0-28.34-12.16-28.34-27.1v-193.66c-11.06-1.5-21.25-6.77-28.64-14.97-8.3-9.21-12.18-20.96-10.92-33.08,2.31-22.21,23.33-39.61,47.86-39.61h255.24c24.53,0,45.55,17.4,47.86,39.61,1.26,12.12-2.62,23.87-10.92,33.08-7.39,8.2-17.59,13.48-28.64,14.97v193.66c0,14.94-12.71,27.1-28.34,27.1ZM92.33,152.14c1.01,0,2.03.23,2.96.71,2.19,1.12,3.59,3.36,3.59,5.82v199.78c0,7.73,6.85,14.02,15.26,14.02h215.16c8.41,0,15.26-6.29,15.26-14.02v-199.78c0-3.61,2.93-6.54,6.54-6.54.16,0,.31,0,.46.02,9.65-.12,18.75-4.14,25-11.08,5.79-6.42,8.5-14.58,7.62-22.97-1.63-15.63-16.93-27.88-34.85-27.88H94.09c-17.92,0-33.22,12.25-34.85,27.88-.87,8.39,1.84,16.55,7.62,22.97,6.3,6.99,15.47,11.02,25.2,11.09.09,0,.17,0,.26,0Z"></path>
    <path d="m397.84,434.87h-215.38c-15.51,0-28.12-12.07-28.12-26.9,0-3.61,2.93-6.54,6.54-6.54s6.54,2.93,6.54,6.54c0,7.62,6.75,13.82,15.04,13.82h215.38c8.41,0,15.26-6.29,15.26-14.02v-214.82c0-3.61,2.93-6.54,6.54-6.54,18.38,0,33.28-15.02,33.28-33.49s-14.46-33.12-32.41-33.55c-.29.04-.58.06-.87.06h-29.79c-3.61,0-6.54-2.93-6.54-6.54s2.93-6.54,6.54-6.54h28.92c.31-.05.62-.07.94-.07,25.52,0,46.29,20.92,46.29,46.64,0,23.47-17.35,42.94-39.82,46.12v208.73c0,14.94-12.71,27.1-28.34,27.1Z"></path>
    <path d="m139,136.16c-1.75,0-3.5-.7-4.78-2.08l-14.9-15.97c-2.46-2.64-2.32-6.78.32-9.24,2.64-2.47,6.78-2.32,9.24.32l14.9,15.97c2.46,2.64,2.32,6.78-.32,9.24-1.26,1.18-2.86,1.76-4.46,1.76Z"></path>
    <path d="m228.03,156.28c-1.61,0-3.22-.59-4.49-1.78l-15.91-15.01c-2.63-2.48-2.75-6.62-.27-9.24,2.48-2.63,6.62-2.75,9.24-.27l15.91,15.01c2.63,2.48,2.75,6.62.27,9.24-1.29,1.36-3.02,2.05-4.76,2.05Z"></path>
    <path d="m298.11,131.05c-1.74,0-3.47-.69-4.76-2.05-2.48-2.63-2.36-6.77.27-9.24l14.22-13.41c2.63-2.48,6.77-2.36,9.24.27,2.48,2.63,2.36,6.77-.27,9.24l-14.22,13.41c-1.26,1.19-2.88,1.78-4.49,1.78Z"></path>
    <path d="m426.19,166.66c-1.61,0-3.22-.59-4.49-1.78l-14.22-13.41c-2.63-2.48-2.75-6.62-.27-9.24,2.48-2.63,6.62-2.75,9.24-.27l14.22,13.41c2.63,2.48,2.75,6.62.27,9.24-1.29,1.36-3.02,2.05-4.76,2.05Z"></path>
    <path d="m264.93,211.53c-1.35,0-2.71-.42-3.88-1.28-2.91-2.14-3.53-6.24-1.38-9.15l10.83-14.69c2.14-2.91,6.24-3.52,9.14-1.38,2.91,2.14,3.53,6.24,1.38,9.15l-10.83,14.69c-1.28,1.74-3.26,2.66-5.27,2.66Z"></path>
    <path d="m149.16,212.17c-1.55,0-3.1-.55-4.35-1.66-2.7-2.4-2.94-6.54-.53-9.23l14.22-15.97c2.4-2.7,6.54-2.94,9.23-.53,2.7,2.4,2.94,6.54.53,9.23l-14.22,15.97c-1.29,1.45-3.09,2.19-4.89,2.19Z"></path>
    <path d="m221.71,264.54c-1.31,0-2.64-.39-3.79-1.21l-19.74-14.05c-2.94-2.09-3.63-6.18-1.54-9.12,2.09-2.94,6.18-3.63,9.12-1.54l19.74,14.05c2.94,2.09,3.63,6.18,1.54,9.12-1.28,1.79-3.29,2.75-5.33,2.75Z"></path>
    <path d="m164.73,320.74c-1.66,0-3.32-.63-4.59-1.88l-14.9-14.69c-2.57-2.54-2.6-6.68-.06-9.25,2.54-2.57,6.68-2.6,9.25-.06l14.9,14.69c2.57,2.54,2.6,6.68.06,9.25-1.28,1.3-2.97,1.95-4.66,1.95Z"></path>
    <path d="m258.16,335.43c-1.68,0-3.36-.64-4.63-1.93-2.55-2.56-2.54-6.7.02-9.25l12.19-12.13c2.56-2.55,6.7-2.54,9.25.02,2.55,2.56,2.54,6.7-.02,9.25l-12.19,12.13c-1.28,1.27-2.95,1.91-4.61,1.91Z"></path>
    <path d="m287.28,270.28c-2.04,0-4.06-.96-5.33-2.75-2.09-2.94-1.41-7.03,1.54-9.12l17.94-12.77c2.94-2.09,7.03-1.41,9.12,1.53s1.41,7.03-1.54,9.12l-17.94,12.77c-1.15.82-2.48,1.21-3.79,1.21Z"></path>
    <path d="m372.52,231.87c-2.01,0-3.99-.92-5.27-2.67-2.14-2.91-1.51-7,1.4-9.14,6.66-4.9,10.48-12.27,10.48-20.23,0-14.31-12.56-25.95-28-25.95-3.61,0-6.54-2.93-6.54-6.54s2.93-6.54,6.54-6.54c22.65,0,41.08,17.51,41.08,39.03,0,12.16-5.76,23.38-15.82,30.77-1.17.86-2.52,1.27-3.87,1.27Z"></path>
    <path d="m373.35,295.76h-.1c-3.61,0-6.54-2.93-6.54-6.54,0-3.35,2.52-6.11,5.77-6.49,12.65-2.64,21.78-13.26,21.78-25.4s-9.61-23.28-22.85-25.55c-3.56-.61-5.95-3.99-5.34-7.55.61-3.56,3.99-5.94,7.55-5.34,19.54,3.35,33.72,19.52,33.72,38.44s-13.77,34.62-32.74,38.31c-.41.08-.83.12-1.25.12Z"></path>
    <path d="m356.34,356.6c-2.4,0-4.48-.16-6.36-.49-3.56-.63-5.93-4.02-5.3-7.58.63-3.56,4.02-5.93,7.58-5.3,1.12.2,2.45.29,4.08.29,15.44,0,28-11.64,28-25.95,0-9.05-5.16-17.53-13.51-22.27-2.42-.96-4.13-3.32-4.13-6.08,0-3.61,2.93-6.54,6.54-6.54h.1c1.08,0,2.14.27,3.1.78,12.94,6.96,20.98,20.03,20.98,34.11,0,21.52-18.43,39.03-41.08,39.03Z"></path>
    <path d="m290.8,414.68c-16.38,0-31.21-9.26-37.78-23.6-.39-.85-.59-1.78-.59-2.72v-.1c0-3.61,2.93-6.54,6.54-6.54,2.88,0,5.33,1.86,6.2,4.45,4.57,9.4,14.56,15.43,25.63,15.43,14.43,0,26.39-10.02,27.83-23.31.39-3.59,3.61-6.19,7.21-5.8,3.59.39,6.19,3.62,5.8,7.21-2.16,19.94-19.72,34.97-40.84,34.97Z"></path>
    <path d="m157.32,414.68c-21.12,0-38.67-15.04-40.84-34.97-.39-3.59,2.2-6.82,5.8-7.21,3.6-.39,6.82,2.21,7.21,5.8,1.44,13.29,13.41,23.31,27.83,23.31.9,0,2.01-.09,2.99-.17,8.2-.77,15.86-5.17,20.44-11.78,2.06-2.97,6.13-3.71,9.1-1.65,2.97,2.06,3.7,6.13,1.65,9.1-6.86,9.89-17.8,16.21-30.02,17.36-1.3.11-2.74.23-4.16.23Z"></path>
    <path d="m221.71,422.16c-18.16,0-34.48-10.25-41.56-26.12-1.47-3.3,0-7.17,3.31-8.64,3.3-1.47,7.17,0,8.64,3.31,4.98,11.16,16.61,18.37,29.62,18.37,14.53,0,27.14-9.02,30.82-21.98.54-3.06,3.22-5.39,6.44-5.39,3.61,0,6.54,2.93,6.54,6.54v.1c0,.57-.07,1.14-.22,1.69-5.04,18.91-22.96,32.12-43.58,32.12Z"></path>
    <path d="m375.25,414.68h-24.13c-3.61,0-6.54-2.93-6.54-6.54s2.93-6.54,6.54-6.54h24.13c8.41,0,15.26-6.29,15.26-14.02v-22.33c0-3.61,2.93-6.54,6.54-6.54s6.54,2.93,6.54,6.54v22.33c0,14.94-12.71,27.1-28.34,27.1Z"></path>
  </g>
</symbol><symbol id="i541_fastfood-12" xmlns="http://www.w3.org/2000/svg" viewBox="0 0 512 512">
  <g id="pizza_2">
    <path d="m392.81,127.27c-.3,0-.6-.02-.89-.07l-57.82-9c-56.77-8.78-114.35-8.78-171.12,0l-57.89,9c-.29.05-.59.07-.89.07-12.06,0-23.45-4.47-32.06-12.59l-.26-.24c-6.63-6.29-9.99-15.12-9.23-24.23.8-9.57,5.94-18.2,14.09-23.69,17.7-11.86,47.65-25.99,89.84-25.99h163.91c42.19,0,72.14,14.13,89.83,25.98,8.11,5.41,13.25,13.97,14.1,23.48.81,9.1-2.51,17.97-9.12,24.34-8.57,8.34-20.11,12.94-32.5,12.94Zm-144.27-27.24c29.18,0,58.36,2.24,87.33,6.72l57.37,8.93c9.19-.1,17.7-3.53,24-9.66,0,0,.02-.02.03-.02,4.13-3.98,6.13-9.29,5.62-14.97-.53-6-3.81-11.42-9-14.88-16.37-10.96-44.11-24.03-83.39-24.03h-163.91c-39.28,0-67.03,13.06-83.38,24.02-5.21,3.51-8.5,8.99-9,15.04-.47,5.66,1.54,10.94,5.67,14.86l.22.21c6.35,5.99,14.74,9.33,23.68,9.43l57.44-8.93c28.98-4.48,58.16-6.72,87.34-6.72Z"></path>
    <path d="m248.54,460.54h0c-7.57,0-14.22-4.1-17.37-10.71L70.65,112.73c-1.2-2.53-.43-5.55,1.84-7.19,2.27-1.64,5.38-1.42,7.4.51,3.9,3.74,8.75,6.55,14.03,8.13,4.41,1.32,9.62,1.53,15.47.62l51.82-8.06c57.96-8.96,116.72-8.96,174.68,0l51.8,8.07c5.81.9,11,.7,15.43-.6,5.36-1.58,10.25-4.41,14.14-8.2,2.01-1.96,5.13-2.19,7.41-.56,2.28,1.63,3.06,4.67,1.86,7.2l-160.6,337.17c-3.15,6.61-9.8,10.71-17.37,10.71ZM89.26,124.87l152.38,319.97c1.82,3.81,5.75,4.11,6.91,4.11,1.16,0,5.09-.3,6.91-4.11L407.87,124.87c-.49.16-.99.32-1.49.47-6.08,1.79-12.97,2.1-20.48.93l-51.8-8.07c-56.77-8.78-114.35-8.78-171.12,0l-51.81,8.06c-7.57,1.18-14.49.85-20.56-.96-.45-.13-.9-.28-1.34-.42Z"></path>
    <path d="m151.41,182.72c-3.95,0-7.95-.48-11.92-1.47-2.02-.5-3.61-2.05-4.18-4.06-4.21-15.04.3-31.1,11.77-41.92,11.5-10.84,27.83-14.96,43.7-11,2.02.5,3.61,2.05,4.18,4.06,4.21,15.04-.3,31.1-11.77,41.93-8.62,8.13-19.96,12.47-31.78,12.47Zm-5.69-12.03c10.8,1.62,21.85-1.64,29.52-8.87,7.6-7.17,10.95-17.06,9.32-27-10.8-1.62-21.85,1.64-29.52,8.87-7.6,7.17-10.95,17.06-9.32,27Z"></path>
    <path d="m347.37,182.72c-11.82,0-23.16-4.35-31.78-12.47-11.47-10.82-15.99-26.89-11.77-41.93.56-2.01,2.16-3.55,4.18-4.06,15.87-3.95,32.2.16,43.7,11,11.47,10.82,15.99,26.89,11.77,41.93-.56,2-2.16,3.55-4.18,4.06-3.97.99-7.97,1.47-11.92,1.47Zm-33.15-47.9c-1.64,9.94,1.72,19.83,9.32,27,7.67,7.23,18.72,10.49,29.52,8.87,1.64-9.94-1.72-19.83-9.32-27-7.67-7.23-18.72-10.49-29.52-8.87Z"></path>
    <path d="m236.17,242.45c-3.95,0-7.95-.48-11.92-1.47-2.02-.5-3.61-2.05-4.18-4.06-4.21-15.04.3-31.1,11.77-41.93,11.5-10.84,27.83-14.96,43.7-11,2.02.5,3.61,2.05,4.18,4.06,4.21,15.04-.3,31.1-11.77,41.93-8.62,8.13-19.96,12.47-31.78,12.47Zm-5.69-12.03c10.8,1.62,21.85-1.64,29.52-8.87,7.6-7.17,10.95-17.06,9.32-27-10.8-1.62-21.85,1.64-29.52,8.87-7.6,7.17-10.95,17.06-9.32,27Z"></path>
    <path d="m242.58,359.37c-3.95,0-7.95-.48-11.92-1.47-2.02-.5-3.61-2.05-4.18-4.06-4.21-15.04.3-31.1,11.77-41.93,11.5-10.84,27.83-14.95,43.7-11,2.02.5,3.61,2.05,4.18,4.06,4.21,15.04-.3,31.1-11.77,41.93-8.62,8.13-19.96,12.47-31.78,12.47Zm-5.69-12.03c10.8,1.62,21.85-1.64,29.52-8.87,7.6-7.17,10.95-17.06,9.32-27-10.8-1.62-21.85,1.64-29.52,8.87-7.6,7.17-10.95,17.06-9.32,27Z"></path>
    <path d="m177.87,245.42c-12.57,0-22.79-9.79-22.79-21.83s10.22-21.83,22.79-21.83,22.79,9.79,22.79,21.83-10.22,21.83-22.79,21.83Zm0-32.07c-6.18,0-11.21,4.59-11.21,10.24s5.03,10.24,11.21,10.24,11.21-4.59,11.21-10.24-5.03-10.24-11.21-10.24Z"></path>
    <path d="m248.55,419.41c-13.31,0-24.14-10.36-24.14-23.1s10.83-23.1,24.14-23.1,24.14,10.36,24.14,23.1-10.83,23.1-24.14,23.1Zm0-34.62c-6.93,0-12.56,5.17-12.56,11.52s5.63,11.52,12.56,11.52,12.56-5.17,12.56-11.52-5.63-11.52-12.56-11.52Z"></path>
    <path d="m290.49,296.88c-13.77,0-24.97-10.71-24.97-23.89s11.2-23.89,24.97-23.89,24.97,10.71,24.97,23.89-11.2,23.89-24.97,23.89Zm0-36.19c-7.38,0-13.39,5.52-13.39,12.3s6.01,12.3,13.39,12.3,13.39-5.52,13.39-12.3-6.01-12.3-13.39-12.3Z"></path>
    <path d="m262.95,172.83c-2.99,0-5.85-1.12-8.02-3.17l-5.51-5.19-4.41,4.16c-5.81,5.48-15.26,5.48-21.07,0-2.96-2.79-4.57-6.48-4.57-10.44s1.61-7.65,4.52-10.4l3.92-3.7-5.01-4.73c-2.6-2.45-3.85-5.87-3.42-9.38.43-3.55,2.5-6.6,5.67-8.39,13.68-7.7,31.12-5.65,42.39,4.98,11.52,10.87,13.72,27.69,5.36,40.91-1.83,2.9-4.88,4.81-8.35,5.25-.51.06-1.01.09-1.51.09Zm-13.53-22.12c1.43,0,2.86.53,3.97,1.58l9.48,8.94s.12.01.18,0c5.31-8.46,3.85-19.24-3.56-26.22-7.48-7.06-19.02-8.5-28.25-3.6l8.98,8.47c1.16,1.09,1.82,2.62,1.82,4.21s-.66,3.12-1.82,4.21l-8.38,7.91c-.73.69-.89,1.46-.89,1.98s.15,1.28.89,1.98c1.42,1.34,3.84,1.34,5.21.04l8.38-7.91c1.12-1.05,2.55-1.58,3.97-1.58Zm-18.67-19.78h0,0Z"></path>
    <path d="m192.42,308.22c-.5,0-1.01-.03-1.51-.09-3.48-.44-6.52-2.35-8.35-5.25-8.36-13.22-6.16-30.04,5.36-40.91,11.28-10.64,28.71-12.69,42.39-4.98,3.17,1.78,5.24,4.84,5.67,8.39.43,3.51-.82,6.93-3.42,9.38l-5.01,4.73,3.92,3.69c2.92,2.75,4.52,6.45,4.52,10.4,0,3.96-1.61,7.65-4.52,10.4-5.85,5.52-15.3,5.52-21.11.04l-4.41-4.16-5.51,5.19c-2.17,2.05-5.03,3.17-8.02,3.17Zm-.11-11.6c.06.02.16.02.2,0l9.47-8.94c2.23-2.11,5.72-2.1,7.95,0l8.38,7.91c1.38,1.3,3.8,1.3,5.17,0,.77-.73.93-1.5.93-2.01s-.15-1.28-.89-1.98l-8.38-7.91c-1.16-1.09-1.82-2.62-1.82-4.21s.66-3.12,1.82-4.21l8.98-8.47c-9.23-4.9-20.76-3.46-28.25,3.6-7.41,6.99-8.87,17.76-3.56,26.22Z"></path>
    <path d="m300.66,241.21c-.5,0-1.01-.03-1.51-.09-3.48-.44-6.52-2.35-8.35-5.25-8.36-13.22-6.16-30.04,5.36-40.91,11.28-10.64,28.71-12.69,42.39-4.98,3.17,1.79,5.24,4.84,5.67,8.39.43,3.51-.82,6.92-3.42,9.38l-5.01,4.73,3.92,3.7c2.92,2.75,4.52,6.45,4.52,10.4,0,3.96-1.61,7.65-4.52,10.4-.01.01-.06.06-.08.07-5.77,5.45-15.23,5.45-21.04-.03l-4.41-4.16-5.51,5.19c-2.17,2.05-5.03,3.17-8.02,3.17Zm-.11-11.6c.06.02.16.02.2,0l9.47-8.94c2.23-2.1,5.72-2.1,7.95,0l8.38,7.91c1.38,1.3,3.8,1.3,5.17,0,.01-.01.06-.06.08-.07.7-.66.85-1.42.85-1.94s-.15-1.28-.89-1.98l-8.38-7.91c-1.16-1.09-1.82-2.62-1.82-4.21s.66-3.12,1.82-4.21l8.98-8.47c-9.23-4.9-20.76-3.46-28.25,3.6-7.41,6.99-8.87,17.76-3.56,26.22Zm32.31-30.3h0,0Z"></path>
  </g>
</symbol><symbol id="i541_fastfood-13" xmlns="http://www.w3.org/2000/svg" viewBox="0 0 512 512">
  <g id="cake">
    <path d="m459.46,324.15H146.37c-1.87,0-3.65-.8-4.89-2.19-1.24-1.4-1.83-3.26-1.61-5.11.14-1.18,3.57-29.35,16.88-57.88,18.09-38.76,45.75-59.23,80.02-59.23.21,0,.42,0,.63,0,1,0,1.99.25,2.88.69l222.09,111.33c2.71,1.36,4.13,4.4,3.43,7.35-.7,2.95-3.33,5.03-6.36,5.03Zm-305.41-13.08h277.77l-195.99-98.25c-28.7.37-51.26,17.66-67.09,51.4-8.59,18.32-12.86,36.92-14.69,46.84Z"></path>
    <path d="m52.55,319.6c-.34,0-.69-.03-1.04-.08-3.56-.57-5.99-3.92-5.42-7.49.27-1.7,6.96-42.14,33.21-83.03,15.52-24.18,34.67-43.43,56.92-57.22,27.52-17.06,59.78-25.7,95.88-25.7.41,0,.81,0,1.21,0,1.64,0,3.21.63,4.41,1.74,9.83,9.11,23.54,33.81,5.12,62.04-1.97,3.02-6.03,3.88-9.05,1.9s-3.88-6.03-1.9-9.05c14.14-21.66,3.04-38.25-1.45-43.55-60.38.45-107.44,26.19-139.9,76.53-24.9,38.61-31.48,78.01-31.54,78.41-.52,3.21-3.3,5.5-6.45,5.5Z"></path>
    <circle cx="281.36" cy="280.98" r="9.15"></circle>
    <circle cx="238.78" cy="241.99" r="9.15"></circle>
    <circle cx="225.16" cy="290.13" r="9.15"></circle>
    <path d="m193.83,261.95c0,5.05,4.1,9.15,9.15,9.15,5.05,0,9.15-4.1,9.15-9.15s-4.1-9.15-9.15-9.15c-5.05,0-9.15,4.1-9.15,9.15Z"></path>
    <path d="m441.8,365.92H101.06c-12.84,0-25.14-6.11-32.91-16.34l-17.08-22.5c-4.12-5.43-5.84-12.23-4.73-18.66,4.45-25.78,26.7-44.5,52.9-44.5,29.6,0,53.68,24.08,53.68,53.68,0,3.61-2.93,6.54-6.54,6.54s-6.54-2.93-6.54-6.54c0-22.39-18.21-40.6-40.6-40.6-19.82,0-36.65,14.15-40.01,33.64-.5,2.87.33,5.98,2.26,8.53l17.08,22.5c5.31,6.99,13.71,11.16,22.49,11.16h336.41l15.97-37.78c1.41-3.33,5.24-4.88,8.57-3.48,3.33,1.41,4.88,5.24,3.48,8.57l-17.66,41.77c-1.02,2.42-3.4,3.99-6.02,3.99Z"></path>
  </g>
</symbol><symbol id="i541_fastfood-14" xmlns="http://www.w3.org/2000/svg" viewBox="0 0 512 512">
  <path d="m274.85,319.37c-7.18,0-14.37-1.33-21.27-4.01-14.62-5.67-26.15-16.7-32.47-31.05-6.32-14.35-6.68-30.3-1.01-44.92,5.67-14.62,16.7-26.15,31.05-32.47h0c14.35-6.33,30.3-6.69,44.92-1.01,14.62,5.67,26.15,16.7,32.47,31.05,6.32,14.35,6.68,30.3,1.01,44.92-5.67,14.62-16.71,26.15-31.06,32.48-7.58,3.34-15.61,5.02-23.65,5.02Zm-18.87-101.5c-11.42,5.03-20.2,14.21-24.71,25.85-4.52,11.64-4.23,24.33.8,35.76,5.03,11.42,14.21,20.2,25.85,24.72,11.64,4.52,24.33,4.23,35.76-.8,11.42-5.03,20.2-14.21,24.72-25.85,4.52-11.64,4.23-24.34-.8-35.76-5.03-11.42-14.21-20.2-25.85-24.72-11.63-4.52-24.34-4.23-35.76.8h0Z"></path>
  <path d="m299.57,276.41c-.72,0-1.45-.13-2.17-.41-3.08-1.2-4.61-4.67-3.41-7.75,2.01-5.18,1.88-10.82-.35-15.9-2.24-5.08-6.32-8.98-11.5-10.99-3.08-1.2-4.61-4.67-3.41-7.75,1.2-3.08,4.66-4.61,7.75-3.41,8.16,3.17,14.59,9.32,18.12,17.33,3.53,8.01,3.73,16.91.56,25.07-.92,2.37-3.18,3.82-5.58,3.82Z"></path>
  <path d="m206.42,409.59c-.72,0-1.45-.13-2.13-.39-1.5-.57-2.7-1.72-3.35-3.18L46.51,55.59c-.97-2.22-.52-4.8,1.15-6.55,1.67-1.75,4.23-2.32,6.49-1.44l351.75,136.56c3.03,1.18,4.57,4.56,3.46,7.61l-1.04,2.95c-.67,1.91-1.34,3.83-2.08,5.74-36.11,93.01-106.19,167.1-197.33,208.6-.79.36-1.63.54-2.48.54ZM63.29,63.99l146.14,331.62c85.6-40.65,151.4-111.28,185.64-199.48.37-.97.73-1.94,1.08-2.91L63.29,63.99Z"></path>
  <path d="m230.75,464.81c-.73,0-1.45-.13-2.14-.39-1.49-.57-2.7-1.71-3.34-3.18l-24.33-55.22c-1.32-3,.02-6.51,3-7.86,88.28-40.2,156.17-111.96,191.14-202.04.69-1.78,1.32-3.57,1.95-5.36l1.08-3.06c.55-1.52,1.68-2.75,3.15-3.42,1.47-.67,3.14-.72,4.65-.13l56.28,21.85c3.04,1.18,4.58,4.57,3.46,7.64-.4,1.08-.78,2.17-1.15,3.25-.63,1.81-1.27,3.62-1.96,5.42-41.93,108.02-123.36,193.95-229.29,241.98-.78.35-1.63.53-2.47.53Zm-16.49-58.25l19.51,44.27c100.38-47.18,177.52-129.67,217.58-232.87.37-.97.73-1.94,1.08-2.91l-45.11-17.51c-.35.97-.71,1.94-1.08,2.91-35.4,91.18-103.45,164.17-191.97,206.11Z"></path>
  <path d="m130.53,143.45c-2.67,0-5.34-.5-7.91-1.49-5.44-2.11-9.72-6.21-12.07-11.55-2.35-5.34-2.49-11.27-.37-16.7,2.11-5.44,6.21-9.72,11.54-12.07,5.34-2.35,11.27-2.48,16.7-.37,5.44,2.11,9.72,6.21,12.07,11.55,2.35,5.34,2.49,11.27.37,16.7h0c-2.11,5.44-6.21,9.72-11.54,12.08-2.82,1.24-5.81,1.87-8.8,1.87Zm-.01-31.7c-1.35,0-2.7.28-3.97.84-2.41,1.06-4.26,3-5.21,5.45-.96,2.46-.9,5.13.17,7.54,1.06,2.41,3,4.26,5.45,5.21,2.46.96,5.13.89,7.54-.17,2.41-1.06,4.26-3,5.21-5.45h0c.95-2.46.9-5.13-.17-7.54-1.06-2.41-3-4.26-5.45-5.21-1.16-.45-2.37-.67-3.57-.67Z"></path>
  <path d="m347.2,234.01c-3.56,0-7.18-.73-10.63-2.28h0c-13.12-5.88-19.01-21.35-13.13-34.47,5.89-13.12,21.36-19.01,34.47-13.13,13.12,5.88,19.01,21.35,13.13,34.47-4.34,9.67-13.87,15.41-23.84,15.41Zm-5.74-13.21c7.11,3.19,15.47,0,18.65-7.1,3.18-7.1,0-15.47-7.1-18.65-7.12-3.18-15.47,0-18.65,7.1-3.18,7.1,0,15.46,7.1,18.65h0Z"></path>
  <path d="m178.44,199.27c-3.56,0-7.18-.73-10.63-2.28h0c-6.36-2.85-11.23-8.01-13.71-14.52-2.48-6.51-2.28-13.6.57-19.96,5.89-13.12,21.36-19.01,34.47-13.13,6.36,2.85,11.23,8.01,13.71,14.52,2.48,6.51,2.28,13.6-.57,19.96-4.34,9.67-13.88,15.41-23.85,15.41Zm.06-40.19c-5.39,0-10.55,3.11-12.9,8.34-1.54,3.44-1.65,7.27-.31,10.79,1.34,3.52,3.98,6.31,7.41,7.85h0c7.1,3.19,15.46,0,18.65-7.11,1.54-3.44,1.65-7.27.31-10.79-1.34-3.52-3.98-6.31-7.41-7.85-1.87-.84-3.83-1.23-5.75-1.23Z"></path>
  <path d="m186.86,278.2c-3.63,0-7.25-.77-10.66-2.3h0c-13.12-5.88-19.01-21.35-13.13-34.47,2.85-6.36,8.01-11.22,14.52-13.7,6.52-2.48,13.6-2.27,19.95.57,6.36,2.85,11.23,8.01,13.71,14.52,2.48,6.51,2.28,13.6-.57,19.96-2.85,6.36-8.01,11.23-14.52,13.7-3.02,1.15-6.16,1.72-9.3,1.72Zm.02-40.22c-1.7,0-3.39.31-5.03.93-3.52,1.34-6.31,3.97-7.85,7.41-3.18,7.1,0,15.47,7.1,18.65h0c3.44,1.55,7.28,1.65,10.79.31,3.52-1.34,6.31-3.98,7.85-7.42,1.54-3.44,1.65-7.27.31-10.79-1.34-3.52-3.98-6.31-7.41-7.85-1.85-.83-3.8-1.24-5.77-1.24Z"></path>
  <path d="m256.6,188.05c-2.45,0-4.93-.44-7.35-1.38-5.07-1.97-9.07-5.79-11.26-10.77-2.19-4.98-2.32-10.51-.35-15.58,4.06-10.47,15.88-15.67,26.35-11.61,10.47,4.06,15.68,15.89,11.62,26.35h0c-3.13,8.05-10.85,13-19.01,13Zm.04-28.75c-3.36,0-6.54,2.03-7.83,5.35-1.68,4.31.47,9.19,4.78,10.86,4.32,1.67,9.18-.47,10.86-4.78h0c1.67-4.31-.47-9.18-4.79-10.86-.99-.39-2.02-.57-3.02-.57Z"></path>
  <path d="m226.86,365.37c-2.46,0-4.91-.46-7.27-1.37-10.32-4.01-15.45-15.66-11.45-25.97,1.94-5,5.71-8.94,10.62-11.1,4.9-2.16,10.36-2.28,15.36-.34,10.32,4.01,15.45,15.66,11.45,25.97h0c-1.94,5-5.71,8.94-10.62,11.1-2.59,1.14-5.34,1.71-8.09,1.71Zm0-28.18c-1.11,0-2.22.23-3.26.69-1.98.87-3.5,2.46-4.28,4.48-1.61,4.16.46,8.86,4.62,10.48,2.02.79,4.22.73,6.19-.14,1.98-.87,3.5-2.46,4.28-4.48h0c1.61-4.16-.46-8.86-4.62-10.48-.95-.37-1.94-.55-2.93-.55Z"></path>
</symbol><symbol id="i541_fastfood-15" xmlns="http://www.w3.org/2000/svg" viewBox="0 0 512 512">
  <g id="fries">
    <path d="m406.67,200.96l-28.22-9.29,8.17-86.13c.2-2.08-.49-4.15-1.9-5.69-1.41-1.55-3.4-2.43-5.49-2.43h-45.59c-3.75,0-6.91,2.8-7.37,6.52l-13.82,113.43-8.15,5.8V88.62c0-4.1-3.32-7.42-7.42-7.42h-46.75c-1.98,0-3.88.79-5.27,2.2-1.39,1.41-2.17,3.31-2.15,5.29l1.44,151.24c-7-1.12-13.87-3.25-20.38-6.4l5.03-179.9c.06-2-.7-3.94-2.1-5.38-1.39-1.43-3.31-2.25-5.32-2.25h-56.21c-1.97,0-3.87.79-5.26,2.18-1.39,1.4-2.17,3.3-2.16,5.27l.19,42.23h-36.07c-2.09,0-4.08.88-5.49,2.43-1.41,1.55-2.09,3.61-1.9,5.69l8.66,91.19-17.88,5.97c-3.32,1.11-5.41,4.39-5.02,7.87l28.17,250.58c.42,3.75,3.59,6.59,7.37,6.59h237.87c3.75,0,6.91-2.8,7.37-6.52l30.67-250.58c.43-3.51-1.68-6.84-5.05-7.95Zm-66.45-88.71h30.86l-7.09,74.66-2.4-.79c-2.22-.74-4.69-.37-6.62,1l-26.15,18.6,11.39-93.47Zm-50.74-16.21v136.7c-9.57,4.91-19.98,7.57-30.46,8.02l-1.37-144.72h31.84Zm-116.83-35.2h41.13l-4.57,163.62-13.3-9.4-13.63-112.85c-.45-3.72-3.61-6.53-7.37-6.53h-2.1l-.16-34.84Zm-42.59,49.68h38.27l11.23,92.98-23.2-16.4c-1.93-1.37-4.39-1.72-6.63-.98l-12.12,4.05-7.56-79.65Zm237.05,340.64h-224.67l-26.76-238.02,35.19-11.75,53.92,38.12c2.64,1.87,5.38,3.51,8.17,5.06.11.06.21.12.32.17,11.89,6.54,24.93,10.14,38.1,10.81.1,0,.18.06.28.06h.07c.06,0,.11-.03.17-.04,19.28.86,38.77-4.51,55.21-16.2l53.4-37.98,35.72,11.76-29.14,238.01Z"></path>
    <path d="m350.64,273.2c-4.04-.51-7.77,2.37-8.3,6.43l-17.33,136.64c-.51,4.06,2.36,7.78,6.43,8.3.32.04.63.06.95.06,3.68,0,6.87-2.74,7.35-6.48l17.33-136.64c.51-4.06-2.36-7.78-6.43-8.3Z"></path>
  </g>
</symbol><symbol id="i541_fastfood-16" xmlns="http://www.w3.org/2000/svg" viewBox="0 0 512 512">
  <g id="french_fries">
    <path d="m354.06,466h-196.13c-10.54,0-19.61-7.22-21.56-17.16l-50.03-254.17c-.78-3.96.26-8.04,2.85-11.2,2.72-3.3,6.78-5.2,11.14-5.2h62.74c3.61,0,6.54,2.93,6.54,6.54,0,13.89,3.75,27.51,10.86,39.37,6.12,10.43,14.89,19.64,25.39,26.69.03.02.06.04.09.06,1.72,1.2,3.7,2.43,5.87,3.66,9.03,5.04,18.94,8.46,29.39,10.15,4.76.84,9.59,1.24,14.85,1.24s10.09-.4,14.75-1.23c.29-.05.59-.08.89-.1.05,0,.1-.02.15-.03.12-.03.24-.05.36-.07,12.8-2.28,24.44-7.03,34.6-14.12,13-8.91,23.05-20.93,29.1-34.79,4-8.96,6.17-18.66,6.48-28.89v-1.94c0-3.61,2.93-6.54,6.54-6.54h62.74c4.36,0,8.42,1.9,11.14,5.2,2.59,3.15,3.63,7.23,2.85,11.2l-50.03,254.17c-1.96,9.94-11.03,17.16-21.56,17.16ZM100.34,191.35c-.62,0-.93.3-1.04.43-.15.19-.13.3-.12.36l50.03,254.17c.75,3.83,4.43,6.6,8.73,6.6h196.13c4.31,0,7.98-2.78,8.73-6.6l50.03-254.17c.01-.06.03-.17-.12-.36-.11-.13-.42-.43-1.04-.43h-56.42c-.77,10.41-3.25,20.34-7.37,29.58-7.02,16.06-18.65,29.99-33.63,40.26-11.63,8.12-24.96,13.58-39.58,16.21-.72.16-1.38.26-2,.31-5.23.9-10.82,1.35-16.61,1.35s-11.68-.48-17.03-1.43c-11.87-1.92-23.21-5.84-33.61-11.64-2.57-1.46-4.81-2.85-6.88-4.29-12.1-8.13-22.23-18.8-29.3-30.85-7.17-11.99-11.43-25.53-12.45-39.5h-56.44Zm171.61,73.3s-.07,0-.11,0c.04,0,.07,0,.11,0Zm76.98-77.8h0,0Z"></path>
    <path d="m256.03,304.53c-28.13,0-54.58-9.21-76.52-26.63-19.93-15.83-34.52-37.64-41.48-61.86h-41.63c-3.61,0-6.54-2.93-6.54-6.54s2.93-6.54,6.54-6.54h46.66c3.02,0,5.65,2.07,6.36,5.01,11.83,49.15,55.66,83.48,106.6,83.48s94.65-34.25,106.55-83.28c.71-2.93,3.34-5,6.36-5h46.72c3.61,0,6.54,2.93,6.54,6.54s-2.93,6.54-6.54,6.54h-41.69c-6.99,24.17-21.59,45.93-41.5,61.72-21.91,17.38-48.34,26.56-76.43,26.56Z"></path>
    <path d="m142.04,191.4h-27.56c-3.29,0-6.06-2.44-6.49-5.7l-13.58-104.67c-.24-1.87.33-3.74,1.57-5.16,1.24-1.41,3.03-2.22,4.91-2.22h27.66c3.29,0,6.07,2.44,6.49,5.7l13.49,104.67c.24,1.86-.33,3.74-1.58,5.15-1.24,1.41-3.03,2.22-4.91,2.22Zm-21.81-13.08h14.38l-11.8-91.59h-14.46l11.89,91.59Z"></path>
    <path d="m174.86,234.09c-2.26,0-4.41-1.17-5.61-3.18-7.2-12.03-11.46-25.58-12.48-39.55h-14.78c-1.77,0-3.47-.72-4.7-1.99-1.23-1.27-1.89-2.99-1.83-4.77l4.11-122.28c.12-3.52,3.01-6.32,6.54-6.32h28.76c3.61,0,6.54,2.93,6.54,6.54v165.01c0,2.94-1.96,5.52-4.8,6.3-.58.16-1.16.24-1.74.24Zm-26.1-55.81h14.32c2.15,0,4.05,1.04,5.25,2.63v-111.83h-15.9l-3.67,109.2Z"></path>
    <path d="m240.16,277.74c-3.61,0-6.54-2.93-6.54-6.54V72.03h-14.94l-3.55,188.37c-.07,3.57-2.98,6.42-6.54,6.42-.04,0-.08,0-.13,0-3.61-.07-6.48-3.05-6.42-6.66l3.68-194.79c.07-3.56,2.97-6.42,6.54-6.42h27.89c3.61,0,6.54,2.93,6.54,6.54v205.7c0,3.61-2.93,6.54-6.54,6.54Z"></path>
    <path d="m271.95,277.74c-3.61,0-6.54-2.93-6.54-6.54V59.08h-18.71v212.12c0,3.61-2.93,6.54-6.54,6.54s-6.54-2.93-6.54-6.54V52.54c0-3.61,2.93-6.54,6.54-6.54h31.79c3.61,0,6.54,2.93,6.54,6.54v218.66c0,3.61-2.93,6.54-6.54,6.54Z"></path>
    <path d="m202.21,262.85c-3.57,0-6.49-2.88-6.54-6.46l-2.08-171.91h-18.73c-3.61,0-6.54-2.93-6.54-6.54s2.93-6.54,6.54-6.54h25.19c3.58,0,6.5,2.88,6.54,6.46l2.16,178.37c.04,3.61-2.85,6.57-6.46,6.62-.03,0-.05,0-.08,0Z"></path>
    <path d="m273.36,277.53c-.22,0-.43-.01-.65-.03-3.59-.36-6.22-3.56-5.86-7.15l20.11-202.75c.33-3.35,3.15-5.89,6.51-5.89h33.73c1.84,0,3.59.77,4.83,2.13,1.24,1.36,1.85,3.17,1.69,5l-1.08,11.93-15.57,175.61c-.32,3.6-3.51,6.26-7.09,5.94-3.6-.32-6.26-3.49-5.94-7.09l15.57-175.62.44-4.81h-20.65l-19.52,196.85c-.33,3.37-3.18,5.89-6.5,5.89Z"></path>
    <path d="m310.55,262.34c-.19,0-.39,0-.58-.03-3.6-.32-6.26-3.49-5.94-7.09l15.57-175.62c.3-3.37,3.13-5.96,6.51-5.96h22.16c1.79,0,3.5.73,4.73,2.02s1.89,3.03,1.8,4.82l-6.37,137.94c-.03,3.59-2.95,6.48-6.54,6.48s-6.54-2.93-6.54-6.54v-.1c0-.1,0-.2,0-.3l6.06-131.25h-9.33l-15.04,169.66c-.3,3.4-3.16,5.96-6.51,5.96Z"></path>
    <path d="m375.09,191.35c-3.61,0-6.54-2.93-6.54-6.54v-115.74h-13.73v11.1c0,3.61-2.93,6.54-6.54,6.54s-6.54-2.93-6.54-6.54v-17.64c0-3.61,2.93-6.54,6.54-6.54h26.81c3.61,0,6.54,2.93,6.54,6.54v122.28c0,3.61-2.93,6.54-6.54,6.54Z"></path>
    <path d="m375.42,191.36c-.33,0-.67-.03-1.01-.08-3.57-.55-6.02-3.89-5.46-7.46l16.54-106.88c.49-3.19,3.24-5.54,6.46-5.54h27.35c1.88,0,3.66.81,4.91,2.22s1.82,3.28,1.58,5.14l-13.51,106.88c-.45,3.58-3.74,6.12-7.31,5.67-3.58-.45-6.12-3.73-5.67-7.31l12.58-99.52h-14.33l-15.68,101.34c-.5,3.23-3.29,5.54-6.45,5.54Z"></path>
    <path d="m335.2,443.02h-42.63c-3.61,0-6.54-2.93-6.54-6.54s2.93-6.54,6.54-6.54h42.63c4.39,0,8.08-2.84,8.76-6.76l6.25-35.84c.62-3.56,4.01-5.95,7.57-5.32,3.56.62,5.94,4.01,5.32,7.57l-6.25,35.84c-1.78,10.19-10.88,17.59-21.64,17.59Z"></path>
    <path d="m150.5,356.03c-3.03,0-5.74-2.11-6.39-5.19l-18.24-86.44c-.75-3.53,1.51-7,5.05-7.75,3.53-.75,7,1.51,7.75,5.05l18.24,86.44c.75,3.53-1.51,7-5.05,7.75-.46.1-.91.14-1.36.14Z"></path>
  </g>
</symbol><symbol id="i541_fastfood-17" xmlns="http://www.w3.org/2000/svg" viewBox="0 0 512 512">
  <g id="combo_2">
    <g>
      <path d="m107.23,366.23c-4.77,0-9.13-2.13-11.97-5.83-2.73-3.56-3.63-8.08-2.46-12.38,5.84-21.58,19.99-39.26,40.91-51.12,19.3-10.94,43.9-16.72,71.13-16.72s51.71,5.75,70.99,16.64c20.89,11.8,35.06,29.39,40.97,50.88,1.18,4.3.3,8.82-2.42,12.39-2.84,3.73-7.2,5.87-11.98,5.87l-195.15.27h-.02Zm.01-6.54h0,0Zm97.6-66.44c-52.39,0-89.56,21.75-99.42,58.18-.04.13-.14.53.22,1.01.16.21.65.71,1.59.71h0l195.15-.27c.94,0,1.43-.5,1.59-.72.36-.47.25-.87.22-1-9.97-36.26-47.11-57.91-99.34-57.91Z"></path>
      <path d="m319.51,395.87H87.81c-4.44,0-8.06-3.61-8.06-8.06v-26.61c0-4.44,3.61-8.06,8.06-8.06h231.7c4.44,0,8.06,3.61,8.06,8.06v26.61c0,4.44-3.61,8.06-8.06,8.06Zm-226.68-13.08h221.65v-16.56H92.83v16.56Z"></path>
      <path d="m275.59,440.34h-143.86c-20,0-36.26-15.51-36.26-34.58v-16.43c0-3.61,2.93-6.54,6.54-6.54h203.31c3.61,0,6.54,2.93,6.54,6.54v16.43c0,19.07-16.27,34.58-36.26,34.58Zm-167.04-44.47v9.89c0,11.85,10.4,21.5,23.18,21.5h143.86c12.78,0,23.18-9.64,23.18-21.5v-9.89H108.54Z"></path>
      <path d="m195.64,324.65c-3.57,0-6.47-2.86-6.54-6.42-.06-.04-.18-.11-.38-.11s-.33.07-.38.11c-.06,3.56-2.97,6.42-6.54,6.42s-6.54-2.93-6.54-6.54c0-7.21,6.04-13.07,13.46-13.07s13.46,5.86,13.46,13.07c0,3.61-2.93,6.54-6.54,6.54Z"></path>
      <path d="m227.03,324.65c-3.57,0-6.47-2.86-6.54-6.42-.06-.04-.18-.11-.38-.11s-.33.07-.38.11c-.06,3.56-2.97,6.42-6.54,6.42s-6.54-2.93-6.54-6.54c0-7.21,6.04-13.07,13.46-13.07s13.46,5.86,13.46,13.07c0,3.61-2.93,6.54-6.54,6.54Z"></path>
      <path d="m179.19,342.12c-3.57,0-6.47-2.86-6.54-6.42-.06-.04-.18-.11-.38-.11s-.33.07-.38.11c-.06,3.56-2.97,6.42-6.54,6.42s-6.54-2.93-6.54-6.54c0-7.21,6.04-13.07,13.46-13.07s13.46,5.86,13.46,13.07c0,3.61-2.93,6.54-6.54,6.54Z"></path>
      <path d="m210.58,342.12c-3.57,0-6.47-2.86-6.54-6.42-.06-.04-.18-.11-.38-.11s-.33.07-.38.11c-.06,3.56-2.97,6.42-6.54,6.42s-6.54-2.93-6.54-6.54c0-7.21,6.04-13.07,13.46-13.07s13.46,5.86,13.46,13.07c0,3.61-2.93,6.54-6.54,6.54Z"></path>
      <path d="m241.97,342.12c-3.57,0-6.47-2.86-6.54-6.42-.06-.04-.18-.11-.38-.11s-.33.07-.38.11c-.06,3.56-2.97,6.42-6.54,6.42s-6.54-2.93-6.54-6.54c0-7.21,6.04-13.07,13.46-13.07s13.46,5.86,13.46,13.07c0,3.61-2.93,6.54-6.54,6.54Z"></path>
    </g>
    <g>
      <path d="m405.48,440.3h-96.76c-7.49,0-14.47-3.15-19.16-8.64-2.35-2.75-2.02-6.87.72-9.22,2.75-2.35,6.87-2.02,9.22.72,2.21,2.58,5.57,4.06,9.22,4.06h96.76c6.2,0,11.42-4.43,11.87-10.08l16.65-218.6h-153.81l8.36,109.55c.27,3.6-2.42,6.74-6.02,7.02-3.61.27-6.74-2.42-7.02-6.02l-8.9-116.58c-.14-1.82.49-3.61,1.72-4.94,1.24-1.34,2.98-2.09,4.8-2.09h167.93c1.82,0,3.56.76,4.8,2.09,1.24,1.34,1.86,3.13,1.72,4.94l-17.19,225.66c-1.01,12.43-11.95,22.13-24.91,22.13Z"></path>
      <path d="m444.67,198.52h-175.14c-11.76,0-21.33-9.19-21.33-20.5s9.57-20.5,21.33-20.5h175.14c11.76,0,21.33,9.19,21.33,20.5s-9.57,20.5-21.33,20.5Zm-175.14-27.91c-4.55,0-8.25,3.33-8.25,7.42s3.7,7.42,8.25,7.42h175.14c4.55,0,8.25-3.33,8.25-7.42s-3.7-7.42-8.25-7.42h-175.14Z"></path>
      <path d="m428.82,170.61h-144c-3.61,0-6.54-2.93-6.54-6.54,0-14.3,12.16-25.93,27.1-25.93h102.88c14.94,0,27.1,11.63,27.1,25.93,0,3.61-2.93,6.54-6.54,6.54Zm-135.51-13.08h127.01c-2.44-3.78-6.94-6.31-12.07-6.31h-102.88c-5.13,0-9.62,2.54-12.07,6.31Z"></path>
      <path d="m403.22,151.22h-16.46c-1.91,0-3.72-.83-4.96-2.28-1.24-1.44-1.79-3.36-1.51-5.24l9.11-60.2c1.02-6.75,7.1-11.84,14.14-11.84,4.22,0,8.2,1.79,10.92,4.91,2.6,2.98,3.78,6.9,3.25,10.77l-8.01,58.22c-.45,3.24-3.21,5.65-6.48,5.65Zm-8.85-13.08h3.15l7.23-52.57c0-.06.03-.19-.15-.39-.11-.13-.44-.43-1.06-.43-.71,0-1.16.42-1.21.72l-7.97,52.68Z"></path>
      <path d="m389.09,421.05h-20.64c-3.61,0-6.54-2.93-6.54-6.54s2.93-6.54,6.54-6.54h20.64c3.48,0,6.44-2.41,6.76-5.49l2.59-25.35c.37-3.59,3.58-6.2,7.17-5.84,3.59.37,6.21,3.58,5.84,7.17l-2.59,25.35c-1.01,9.83-9.51,17.24-19.77,17.24Z"></path>
    </g>
    <g>
      <path d="m204.86,293.25c-2.43,0-4.77-1.36-5.9-3.7-1.57-3.25-.2-7.16,3.05-8.73,2.84-1.37,5.7-3.04,8.5-4.97,9.37-6.48,16.65-15.22,21.05-25.27,2.86-6.49,4.41-13.59,4.61-21.12v-1.42c0-3.61,2.93-6.54,6.54-6.54h33.21c3.61,0,6.54,2.93,6.54,6.54s-2.93,6.54-6.54,6.54h-26.95c-.69,7.48-2.5,14.61-5.43,21.25-5.36,12.27-14.21,22.92-25.59,30.78-3.35,2.31-6.8,4.33-10.25,5.99-.92.44-1.88.65-2.84.65Z"></path>
      <path d="m246.57,440.33H101.03c-8.62,0-16.05-5.96-17.68-14.18l-37.13-190.42c-.68-3.47.23-7.02,2.49-9.76,2.34-2.84,5.84-4.47,9.6-4.47h46.5c3.61,0,6.54,2.93,6.54,6.54,0,5.13.7,10.18,2.07,15,.04.15.08.29.11.44.18.86.48,1.79.93,2.95.02.04.03.08.05.12.54,1.47,1.05,2.85,1.64,4.08.1.22.2.44.28.66.14.39.32.78.58,1.23.11.19.21.38.29.57.58,1.28,1.35,2.63,1.95,3.66,4.38,7.6,10.69,14.29,18.27,19.39.06.04.11.08.17.12,1.28.92,2.69,1.77,4.19,2.67,6.28,3.52,13.15,5.92,20.41,7.15,3.56.6,5.96,3.97,5.36,7.54-.6,3.56-3.97,5.96-7.54,5.36-8.79-1.48-17.1-4.4-24.73-8.69-.05-.03-.11-.06-.16-.1-1.67-1-3.38-2.03-5.09-3.25-9.19-6.2-16.87-14.36-22.21-23.63-.7-1.21-1.62-2.82-2.41-4.53-.52-.93-.95-1.85-1.3-2.79-.78-1.67-1.39-3.3-1.97-4.87-.67-1.72-1.14-3.23-1.47-4.71-1.09-3.85-1.82-7.81-2.21-11.84h-39.26l36.87,189.06c.41,2.09,2.45,3.62,4.84,3.62h145.54c3.61,0,6.54,2.93,6.54,6.54s-2.93,6.54-6.54,6.54Z"></path>
      <path d="m270.54,366.24c-.73,0-1.46-.12-2.19-.38-3.4-1.21-5.18-4.95-3.98-8.35l.07-.21c1.21-3.4,4.95-5.18,8.35-3.98,3.4,1.21,5.18,4.95,3.98,8.35l-.07.21c-.95,2.68-3.47,4.35-6.16,4.35Z"></path>
      <path d="m89.23,234.61h-20.45c-3.29,0-6.07-2.44-6.49-5.71l-10.08-78.42c-.24-1.86.33-3.74,1.58-5.15,1.24-1.41,3.03-2.22,4.91-2.22h20.52c3.29,0,6.07,2.45,6.49,5.71l10.01,78.42c.24,1.86-.34,3.74-1.58,5.15-1.24,1.41-3.03,2.22-4.91,2.22Zm-14.7-13.08h7.27l-8.34-65.34h-7.33l8.4,65.34Z"></path>
      <path d="m113.6,266.58c-2.27,0-4.43-1.18-5.63-3.21-5.22-8.8-8.41-18.65-9.37-28.81h-9.41c-1.77,0-3.47-.72-4.7-1.99-1.23-1.27-1.89-2.99-1.84-4.76l3.05-91.61c.12-3.52,3.01-6.32,6.54-6.32h21.34c3.61,0,6.54,2.93,6.54,6.54l.02,123.63c0,2.95-1.97,5.53-4.81,6.31-.57.16-1.16.23-1.73.23Zm-17.64-45.1h8.88c.78,0,1.52.14,2.22.38v-78.92h-8.49l-2.61,78.53Z"></path>
      <path d="m162.06,298.81c-3.61,0-6.54-2.93-6.54-6.54v-147.07h-7.75l-2.64,139.51c-.07,3.61-3.03,6.45-6.66,6.41-3.61-.07-6.48-3.05-6.41-6.66l2.76-145.92c.07-3.56,2.98-6.42,6.54-6.42h20.71c3.61,0,6.54,2.93,6.54,6.54v153.61c0,3.61-2.93,6.54-6.54,6.54Z"></path>
      <path d="m162.06,298.81c-3.61,0-6.54-2.93-6.54-6.54v-163.35c0-3.61,2.93-6.54,6.54-6.54h23.54c3.61,0,6.54,2.93,6.54,6.54v158.83c0,3.61-2.93,6.54-6.54,6.54s-6.54-2.93-6.54-6.54v-152.29h-10.46v156.81c0,3.61-2.93,6.54-6.54,6.54Z"></path>
      <path d="m133.94,288.15c-3.57,0-6.49-2.87-6.54-6.46l-1.58-127.2h-12.23c-3.61,0-6.54-2.93-6.54-6.54s2.93-6.54,6.54-6.54h18.69c3.58,0,6.49,2.88,6.54,6.46l1.66,133.66c.04,3.61-2.85,6.58-6.46,6.62-.03,0-.06,0-.08,0Z"></path>
      <path d="m187.24,294.12c-.21,0-.43-.01-.64-.03-3.59-.35-6.22-3.55-5.87-7.14l14.35-146.86c.33-3.35,3.14-5.9,6.51-5.9h25.07c1.85,0,3.6.78,4.84,2.15s1.84,3.19,1.66,5.03l-.87,8.91-11.55,131.53c-.32,3.6-3.49,6.26-7.09,5.94-3.6-.32-6.26-3.49-5.94-7.09l11.55-131.6.18-1.8h-11.93l-13.78,140.96c-.33,3.38-3.18,5.9-6.5,5.9Z"></path>
      <path d="m214.28,287.75c-.19,0-.39,0-.58-.03-3.6-.32-6.26-3.49-5.94-7.09l11.55-131.58c.3-3.38,3.12-5.97,6.51-5.97h16.45c1.79,0,3.49.73,4.73,2.02,1.23,1.29,1.89,3.03,1.8,4.81l-4.71,103.56c-.16,3.61-3.21,6.39-6.83,6.24-3.61-.16-6.4-3.22-6.24-6.83l4.4-96.72h-3.61l-11.03,125.61c-.3,3.4-3.15,5.97-6.51,5.97Z"></path>
      <path d="m262.19,172.48c-3.61,0-6.54-2.93-6.54-6.54v-23h-6.83v6.69c0,3.61-2.93,6.54-6.54,6.54s-6.54-2.93-6.54-6.54v-13.23c0-3.61,2.93-6.54,6.54-6.54h19.91c3.61,0,6.54,2.93,6.54,6.54v29.54c0,3.61-2.93,6.54-6.54,6.54Z"></path>
      <path d="m262.19,234.58c-3.61,0-6.54-2.93-6.54-6.54v-37.9c0-3.61,2.93-6.54,6.54-6.54s6.54,2.93,6.54,6.54v37.9c0,3.61-2.93,6.54-6.54,6.54Z"></path>
    </g>
  </g>
</symbol><symbol id="i541_fastfood-18" xmlns="http://www.w3.org/2000/svg" viewBox="0 0 512 512">
  <g id="combo_1">
    <g>
      <path d="m71.45,385.22c-4.99,0-9.61-2.26-12.68-6.2-3.1-3.99-4.16-9.08-2.91-13.99,6.44-25.21,22.07-45.89,45.21-59.79,21.46-12.9,48.82-19.71,79.13-19.71s57.54,6.78,78.98,19.62c23.1,13.83,38.76,34.41,45.27,59.51,1.27,4.9.23,10-2.86,14-3.06,3.96-7.69,6.24-12.69,6.25l-217.43.32h-.03Zm108.76-86.19c-58.58,0-100.18,25.92-111.26,69.34-.29,1.14.18,1.97.48,2.36.29.37.93.99,2.02.99h0l217.43-.32c1.09,0,1.74-.63,2.03-1,.3-.39.77-1.22.47-2.36-11.21-43.21-52.77-69.01-111.18-69.01Z"></path>
      <path d="m307.28,420.23H50.47c-5.02,0-9.11-4.09-9.11-9.11v-30.3c0-5.02,4.09-9.11,9.11-9.11h256.81c5.02,0,9.11,4.09,9.11,9.11v30.3c0,5.02-4.09,9.11-9.11,9.11Zm-252.42-13.5h248.03v-21.51H54.87v21.51Z"></path>
      <path d="m259.02,472.75H98.74c-21.98,0-39.87-17.88-39.87-39.87v-19.4c0-3.73,3.02-6.75,6.75-6.75h226.51c3.73,0,6.75,3.02,6.75,6.75v19.4c0,21.98-17.88,39.87-39.87,39.87Zm-186.65-52.52v12.65c0,14.54,11.83,26.37,26.37,26.37h160.28c14.54,0,26.37-11.83,26.37-26.37v-12.65H72.37Z"></path>
      <path d="m169.95,336.11c-3.73,0-6.75-3.02-6.75-6.75,0-.53-.43-.96-.96-.96s-.96.43-.96.96c0,3.73-3.02,6.75-6.75,6.75s-6.75-3.02-6.75-6.75c0-7.98,6.49-14.46,14.46-14.46s14.46,6.49,14.46,14.46c0,3.73-3.02,6.75-6.75,6.75Z"></path>
      <path d="m204.92,336.11c-3.73,0-6.75-3.02-6.75-6.75,0-.53-.43-.96-.96-.96s-.96.43-.96.96c0,3.73-3.02,6.75-6.75,6.75s-6.75-3.02-6.75-6.75c0-7.98,6.49-14.46,14.46-14.46s14.46,6.49,14.46,14.46c0,3.73-3.02,6.75-6.75,6.75Z"></path>
      <path d="m151.62,356.74c-3.73,0-6.75-3.02-6.75-6.75,0-.53-.43-.96-.96-.96s-.96.43-.96.96c0,3.73-3.02,6.75-6.75,6.75s-6.75-3.02-6.75-6.75c0-7.98,6.49-14.46,14.46-14.46s14.46,6.49,14.46,14.46c0,3.73-3.02,6.75-6.75,6.75Z"></path>
      <path d="m186.59,356.74c-3.73,0-6.75-3.02-6.75-6.75,0-.53-.43-.96-.96-.96s-.96.43-.96.96c0,3.73-3.02,6.75-6.75,6.75s-6.75-3.02-6.75-6.75c0-7.98,6.49-14.46,14.46-14.46s14.46,6.49,14.46,14.46c0,3.73-3.02,6.75-6.75,6.75Z"></path>
      <path d="m221.57,356.74c-3.73,0-6.75-3.02-6.75-6.75,0-.53-.43-.96-.96-.96s-.96.43-.96.96c0,3.73-3.02,6.75-6.75,6.75s-6.75-3.02-6.75-6.75c0-7.98,6.49-14.46,14.46-14.46s14.46,6.49,14.46,14.46c0,3.73-3.02,6.75-6.75,6.75Z"></path>
    </g>
    <g>
      <path d="m403.75,472.71h-107.8c-8.26,0-15.94-3.65-21.07-10.01-2.34-2.9-1.88-7.15,1.02-9.49,2.9-2.34,7.15-1.88,9.49,1.02,2.56,3.17,6.4,4.99,10.56,4.99h107.8c7.17,0,13.21-5.61,13.76-12.77l18.63-259.27h-172.59l9.39,130.49c.27,3.72-2.53,6.95-6.25,7.22-3.72.26-6.95-2.53-7.22-6.25l-9.91-137.73c-.13-1.87.51-3.71,1.79-5.08s3.07-2.15,4.94-2.15h187.1c1.87,0,3.66.78,4.94,2.15s1.93,3.21,1.79,5.08l-19.15,266.54c-1.08,14.19-13.04,25.27-27.22,25.27Z"></path>
      <path d="m447.4,187.14h-195.13c-12.81,0-23.23-10.42-23.23-23.23s10.42-23.23,23.23-23.23h195.13c12.81,0,23.23,10.42,23.23,23.23s-10.42,23.23-23.23,23.23Zm-195.13-32.97c-5.37,0-9.73,4.37-9.73,9.73s4.37,9.73,9.73,9.73h195.13c5.37,0,9.73-4.37,9.73-9.73s-4.37-9.73-9.73-9.73h-195.13Z"></path>
      <path d="m429.74,154.17h-160.44c-3.73,0-6.75-3.02-6.75-6.75,0-16.35,13.3-29.66,29.66-29.66h114.63c16.35,0,29.66,13.3,29.66,29.66,0,3.73-3.02,6.75-6.75,6.75Zm-152.21-13.5h143.98c-2.56-5.55-8.18-9.41-14.68-9.41h-114.63c-6.5,0-12.12,3.86-14.68,9.41Z"></path>
      <path d="m401.22,131.26h-18.34c-1.96,0-3.82-.85-5.1-2.33-1.28-1.48-1.86-3.44-1.58-5.38l10.15-71.1c1.08-7.53,7.62-13.21,15.23-13.21,4.42,0,8.64,1.91,11.56,5.23,2.92,3.32,4.27,7.75,3.7,12.13l-8.92,68.77c-.44,3.36-3.3,5.88-6.69,5.88Zm-10.55-13.5h4.62l8.16-62.89c.1-.74-.24-1.25-.45-1.49-.21-.24-.67-.64-1.42-.64-.93,0-1.73.7-1.87,1.62l-9.05,63.39Z"></path>
      <path d="m385.48,449.96h-23c-3.73,0-6.75-3.02-6.75-6.75s3.02-6.75,6.75-6.75h23c4.19,0,7.66-3.15,8.06-7.32l2.89-29.94c.36-3.71,3.66-6.42,7.37-6.07,3.71.36,6.43,3.66,6.07,7.37l-2.89,29.94c-1.08,11.13-10.32,19.52-21.5,19.52Z"></path>
    </g>
  </g>
</symbol><symbol id="i541_fastfood-2" xmlns="http://www.w3.org/2000/svg" viewBox="0 0 512 512">
  <g id="burger">
    <path d="m88.84,258.14c-6.76,0-12.93-3-16.94-8.24-3.82-4.98-5.07-11.28-3.45-17.29,9.79-36.15,33.53-65.79,68.66-85.7,32.74-18.56,74.56-28.36,120.94-28.36s88,9.76,120.7,28.23c35.08,19.81,58.86,49.31,68.75,85.29,1.65,6,.42,12.31-3.38,17.3-4,5.26-10.18,8.28-16.96,8.29l-338.3.47h0s-.02,0-.03,0Zm.02-6.54h0,0Zm169.19-119.97c-93.12,0-159.29,39.03-176.98,104.4-.76,2.79.43,4.91,1.2,5.92,1.52,1.98,3.91,3.11,6.56,3.11h.01l338.3-.47c2.66,0,5.05-1.15,6.57-3.13.77-1.01,1.95-3.13,1.18-5.91-17.89-65.06-84-103.91-176.85-103.91Z"></path>
    <path d="m455.83,309.53H56.17c-5.61,0-10.17-4.56-10.17-10.17v-44.13c0-5.61,4.56-10.17,10.17-10.17h399.66c5.61,0,10.17,4.56,10.17,10.17v44.13c0,5.61-4.56,10.17-10.17,10.17Zm-396.75-13.08h393.84v-38.31H59.08v38.31Z"></path>
    <path d="m380.69,393.45h-249.38c-32.01,0-58.06-24.74-58.06-55.14v-11.31c0-3.61,2.93-6.54,6.54-6.54s6.54,2.93,6.54,6.54v11.31c0,23.19,20.18,42.06,44.98,42.06h249.38c24.8,0,44.98-18.87,44.98-42.06v-11.31c0-3.61,2.93-6.54,6.54-6.54s6.54,2.93,6.54,6.54v11.31c0,30.4-26.05,55.14-58.06,55.14Z"></path>
    <path d="m242.11,186.07c-3.61,0-6.54-2.93-6.54-6.54,0-2.64-2.45-4.78-5.46-4.78s-5.46,2.14-5.46,4.78c0,3.61-2.93,6.54-6.54,6.54s-6.54-2.93-6.54-6.54c0-9.85,8.32-17.86,18.54-17.86s18.54,8.01,18.54,17.86c0,3.61-2.93,6.54-6.54,6.54Z"></path>
    <path d="m296.52,186.07c-3.61,0-6.54-2.93-6.54-6.54,0-2.64-2.45-4.78-5.46-4.78s-5.46,2.14-5.46,4.78c0,3.61-2.93,6.54-6.54,6.54s-6.54-2.93-6.54-6.54c0-9.85,8.32-17.86,18.54-17.86s18.54,8.01,18.54,17.86c0,3.61-2.93,6.54-6.54,6.54Z"></path>
    <path d="m213.59,216.35c-3.61,0-6.54-2.93-6.54-6.54,0-2.64-2.45-4.78-5.46-4.78s-5.46,2.14-5.46,4.78c0,3.61-2.93,6.54-6.54,6.54s-6.54-2.93-6.54-6.54c0-9.85,8.32-17.86,18.54-17.86s18.54,8.01,18.54,17.86c0,3.61-2.93,6.54-6.54,6.54Z"></path>
    <path d="m268,216.35c-3.61,0-6.54-2.93-6.54-6.54,0-2.64-2.45-4.78-5.46-4.78s-5.46,2.14-5.46,4.78c0,3.61-2.93,6.54-6.54,6.54s-6.54-2.93-6.54-6.54c0-9.85,8.32-17.86,18.54-17.86s18.54,8.01,18.54,17.86c0,3.61-2.93,6.54-6.54,6.54Z"></path>
    <path d="m322.42,216.35c-3.61,0-6.54-2.93-6.54-6.54,0-2.64-2.45-4.78-5.46-4.78s-5.46,2.14-5.46,4.78c0,3.61-2.93,6.54-6.54,6.54s-6.54-2.93-6.54-6.54c0-9.85,8.32-17.86,18.54-17.86s18.54,8.01,18.54,17.86c0,3.61-2.93,6.54-6.54,6.54Z"></path>
    <path d="m117.96,277.01h-20.41c-3.61,0-6.54-2.93-6.54-6.54s2.93-6.54,6.54-6.54h20.41c3.61,0,6.54,2.93,6.54,6.54s-2.93,6.54-6.54,6.54Z"></path>
    <path d="m185.33,290.66h-20.41c-3.61,0-6.54-2.93-6.54-6.54s2.93-6.54,6.54-6.54h20.41c3.61,0,6.54,2.93,6.54,6.54s-2.93,6.54-6.54,6.54Z"></path>
    <path d="m267.3,277.01h-20.41c-3.61,0-6.54-2.93-6.54-6.54s2.93-6.54,6.54-6.54h20.41c3.61,0,6.54,2.93,6.54,6.54s-2.93,6.54-6.54,6.54Z"></path>
    <path d="m346.69,290.66h-20.41c-3.61,0-6.54-2.93-6.54-6.54s2.93-6.54,6.54-6.54h20.41c3.61,0,6.54,2.93,6.54,6.54s-2.93,6.54-6.54,6.54Z"></path>
    <path d="m414.19,277.01h-20.41c-3.61,0-6.54-2.93-6.54-6.54s2.93-6.54,6.54-6.54h20.41c3.61,0,6.54,2.93,6.54,6.54s-2.93,6.54-6.54,6.54Z"></path>
    <path d="m384.02,357.68c-9.77,0-18.7-4.73-23.88-12.65-3.07-4.7-9.07-7.62-15.66-7.62h-4.65c-7.31,0-13.35,2.8-16.55,7.69-5.16,7.87-14.04,12.58-23.76,12.58s-18.7-4.73-23.88-12.65c-3.07-4.7-9.07-7.62-15.66-7.62h-4.65c-7.31,0-13.35,2.8-16.55,7.69-5.16,7.87-14.04,12.58-23.76,12.58s-18.7-4.73-23.88-12.65c-3.07-4.7-9.07-7.62-15.66-7.62h-4.65c-7.31,0-13.35,2.8-16.55,7.69-5.16,7.87-14.04,12.58-23.76,12.58s-18.6-4.7-23.76-12.58c-3.11-4.74-9.13-7.69-15.72-7.69h-.52c-10.76,0-20.14-7.32-21.82-17.02-1.01-5.83.61-11.78,4.44-16.33,4.07-4.83,10.11-7.61,16.58-7.61h331.48c10.76,0,20.14,7.32,21.82,17.02,1.01,5.83-.61,11.79-4.44,16.33-4.07,4.83-10.11,7.61-16.58,7.61h-1.86c-4.75,0-9.24,2.67-12.02,7.14-5.02,8.1-14.26,13.13-24.11,13.13Zm-44.19-33.35h4.65c10.95,0,21.15,5.19,26.61,13.54,2.71,4.15,7.67,6.73,12.93,6.73s10.34-2.66,13-6.94c5.18-8.34,13.83-13.33,23.13-13.33h1.86c2.6,0,5-1.08,6.57-2.95,1.36-1.61,1.91-3.63,1.56-5.68-.6-3.46-4.52-6.17-8.93-6.17H89.73c-2.6,0-5,1.08-6.58,2.95-1.36,1.61-1.91,3.63-1.55,5.68.6,3.46,4.52,6.17,8.93,6.17h.52c10.95,0,21.16,5.21,26.66,13.6,2.73,4.17,7.53,6.66,12.82,6.66s10.09-2.49,12.82-6.66c5.58-8.52,15.86-13.6,27.49-13.6h4.65c10.95,0,21.15,5.19,26.61,13.54,2.71,4.15,7.67,6.73,12.93,6.73s10.09-2.49,12.82-6.66c5.58-8.52,15.86-13.6,27.49-13.6h4.65c10.95,0,21.15,5.19,26.61,13.54,2.71,4.15,7.67,6.73,12.93,6.73s10.09-2.49,12.82-6.66c5.58-8.52,15.86-13.6,27.49-13.6Z"></path>
  </g>
</symbol><symbol id="i541_fastfood-3" xmlns="http://www.w3.org/2000/svg" viewBox="0 0 512 512">
  <g>
    <path d="m397.25,82.87H114.75c-38.57,0-69.83,31.26-69.83,69.83v29.42c0,13.94,11.3,25.24,25.24,25.24h371.68c13.94,0,25.24-11.3,25.24-25.24v-29.42c0-38.57-31.26-69.83-69.83-69.83Zm56.33,99.25c0,6.47-5.27,11.74-11.74,11.74H70.16c-6.48,0-11.74-5.27-11.74-11.74v-29.42c0-31.06,25.27-56.33,56.33-56.33h282.51c31.06,0,56.33,25.27,56.33,56.33v29.42Z"></path>
    <rect x="139.3" y="81.81" width="13.5" height="52.94" rx="6.75" ry="6.75" transform="translate(91.07 -65.02) rotate(35.84)"></rect>
    <rect x="213.56" y="81.81" width="13.5" height="52.94" rx="6.75" ry="6.75" transform="translate(105.13 -108.5) rotate(35.84)"></rect>
    <rect x="285.84" y="81.81" width="13.5" height="52.94" rx="6.75" ry="6.75" transform="translate(118.82 -150.83) rotate(35.84)"></rect>
    <rect x="358.77" y="81.81" width="13.5" height="52.94" rx="6.75" ry="6.75" transform="translate(132.63 -193.53) rotate(35.84)"></rect>
  </g>
  <path d="m441.84,340.21H70.16c-13.94,0-25.24,8.07-25.24,18.03v21.01c0,27.54,31.26,49.87,69.83,49.87h282.51c38.57,0,69.83-22.33,69.83-49.87v-21.01c0-9.96-11.3-18.03-25.24-18.03Zm11.74,39.04c0,19.71-25.8,36.37-56.33,36.37H114.75c-30.53,0-56.33-16.66-56.33-36.37v-21.01c.34-1.18,4.48-4.53,11.74-4.53h371.68c7.26,0,11.4,3.34,11.75,4.61v20.93Z"></path>
  <path d="m409.39,193.29H99.47c-15.06,0-27.27,12.31-27.27,27.51v10.51c0,15.19,12.21,27.5,27.27,27.5h309.91c15.06,0,27.27-12.31,27.27-27.5v-10.51c0-15.19-12.21-27.51-27.27-27.51Zm13.89,38.02c0,7.72-6.23,14.01-13.89,14.01H99.48c-7.66,0-13.89-6.28-13.89-14.01v-10.51c0-7.72,6.23-14,13.89-14h309.91c7.66,0,13.89,6.28,13.89,14v10.51Z"></path>
  <path d="m390,243.15h-93.95c-13.74,0-24.88,11.14-24.88,24.88v6.04c0,13.74,11.14,24.88,24.88,24.88h93.95c13.74,0,24.88-11.14,24.88-24.88v-6.04c0-13.74-11.14-24.88-24.88-24.88Zm11.38,30.92c0,6.28-5.11,11.38-11.38,11.38h-93.95c-6.28,0-11.38-5.11-11.38-11.38v-6.04c0-6.28,5.11-11.38,11.38-11.38h93.95c6.28,0,11.38,5.11,11.38,11.38v6.04Z"></path>
  <path d="m90.17,243.15l62.51,86.78c5.57,7.74,16.41,9.4,24.05,3.7l121.19-90.47H90.17Zm78.49,79.66c-.63.47-1.34.71-2.12.71-.55,0-1.94-.14-2.91-1.48l-47.1-65.38h140.74l-88.62,66.16Z"></path>
  <path d="m412.29,288.19h-197.27l-18.08,13.5h215.36c7.72,0,14,6.28,14,14v10.51c0,7.72-6.28,14.01-14,14.01H99.71c-7.72,0-14.01-6.28-14.01-14.01v-10.51c0-7.72,6.28-14,14.01-14h49.27l-9.73-13.5h-39.55c-15.19,0-27.5,12.31-27.5,27.51v10.51c0,15.19,12.31,27.5,27.5,27.5h312.58c15.19,0,27.5-12.31,27.5-27.5v-10.51c0-15.19-12.31-27.51-27.5-27.51Z"></path>
  <g>
    <path d="m137.28,285.45h-7.07c-6.28,0-11.38-5.11-11.38-11.38v-6.04c0-2.16.61-4.17,1.66-5.89l-3.96-5.49h79.17s28.46,0,28.46,0c0,0,0,0,0,0h22.12c-4.13-8.02-12.48-13.5-22.12-13.5h-93.95c-13.74,0-24.88,11.14-24.88,24.88v6.04c0,13.74,11.14,24.88,24.88,24.88h16.8l-9.73-13.5Z"></path>
    <path d="m235.54,272.87v1.2c0,6.28-5.11,11.38-11.38,11.38h-5.47l-18.08,13.5h23.55c13.74,0,24.88-11.14,24.88-24.88v-6.04c0-1.67-.17-3.3-.48-4.88l-13.02,9.72Z"></path>
  </g>
</symbol><symbol id="i541_fastfood-4" xmlns="http://www.w3.org/2000/svg" viewBox="0 0 512 512">
  <g>
    <path d="m385.23,83.76H104.17c-38.37,0-69.47,31.1-69.47,69.47v29.27c0,13.87,11.24,25.11,25.11,25.11h369.77c13.87,0,25.11-11.24,25.11-25.11v-29.27c0-38.37-31.1-69.47-69.47-69.47Zm56.04,98.74c0,6.44-5.24,11.68-11.68,11.68H59.82c-6.44,0-11.68-5.24-11.68-11.68v-29.27c0-30.9,25.14-56.04,56.04-56.04h281.06c30.9,0,56.04,25.14,56.04,56.04v29.27Z"></path>
    <rect x="128.61" y="82.71" width="13.43" height="52.67" rx="6.72" ry="6.72" transform="translate(89.48 -58.59) rotate(35.84)"></rect>
    <rect x="202.48" y="82.71" width="13.43" height="52.67" rx="6.72" ry="6.72" transform="translate(103.47 -101.85) rotate(35.84)"></rect>
    <rect x="274.4" y="82.71" width="13.43" height="52.67" rx="6.72" ry="6.72" transform="translate(117.09 -143.96) rotate(35.84)"></rect>
    <rect x="346.95" y="82.71" width="13.43" height="52.67" rx="6.72" ry="6.72" transform="translate(130.82 -186.44) rotate(35.84)"></rect>
  </g>
  <path d="m429.59,339.78H59.82c-13.87,0-25.11,8.03-25.11,17.93v20.9c0,27.4,31.1,49.61,69.47,49.61h281.06c38.37,0,69.47-22.21,69.47-49.61v-20.9c0-9.91-11.24-17.93-25.11-17.93Zm11.68,38.84c0,19.61-25.66,36.18-56.04,36.18H104.17c-30.38,0-56.04-16.57-56.04-36.18v-20.9c.34-1.18,4.46-4.5,11.68-4.5h369.77c7.22,0,11.34,3.33,11.69,4.59v20.82Z"></path>
  <path d="m400.19,288.03H89.22c-15.11,0-27.36,12.25-27.36,27.36v10.46c0,15.11,12.25,27.36,27.36,27.36h310.97c15.11,0,27.36-12.25,27.36-27.36v-10.46c0-15.11-12.25-27.36-27.36-27.36Zm13.93,37.82c0,7.68-6.25,13.93-13.93,13.93H89.22c-7.68,0-13.93-6.25-13.93-13.93v-10.46c0-7.68,6.25-13.93,13.93-13.93h310.97c7.68,0,13.93,6.25,13.93,13.93v10.46Z"></path>
  <path d="m400.19,193.61H89.22c-15.11,0-27.36,12.25-27.36,27.36v10.46c0,15.11,12.25,27.36,27.36,27.36h310.97c15.11,0,27.36-12.25,27.36-27.36v-10.46c0-15.11-12.25-27.36-27.36-27.36Zm13.93,37.82c0,7.68-6.25,13.93-13.93,13.93H89.22c-7.68,0-13.93-6.25-13.93-13.93v-10.46c0-7.68,6.25-13.93,13.93-13.93h310.97c7.68,0,13.93,6.25,13.93,13.93v10.46Z"></path>
  <path d="m213.03,245.94h-93.47c-13.67,0-24.75,11.08-24.75,24.75v6.01c0,13.67,11.08,24.75,24.75,24.75h93.47c13.67,0,24.75-11.08,24.75-24.75v-6.01c0-13.67-11.08-24.75-24.75-24.75Zm11.32,30.76c0,6.24-5.08,11.32-11.32,11.32h-93.47c-6.24,0-11.32-5.08-11.32-11.32v-6.01c0-6.24,5.08-11.32,11.32-11.32h93.47c6.24,0,11.32,5.08,11.32,11.32v6.01Z"></path>
  <path d="m378.01,245.94h-93.47c-13.67,0-24.75,11.08-24.75,24.75v6.01c0,13.67,11.08,24.75,24.75,24.75h93.47c13.67,0,24.75-11.08,24.75-24.75v-6.01c0-13.67-11.08-24.75-24.75-24.75Zm11.32,30.76c0,6.24-5.08,11.32-11.32,11.32h-93.47c-6.24,0-11.32-5.08-11.32-11.32v-6.01c0-6.24,5.08-11.32,11.32-11.32h93.47c6.24,0,11.32,5.08,11.32,11.32v6.01Z"></path>
</symbol><symbol id="i541_fastfood-5" xmlns="http://www.w3.org/2000/svg" viewBox="0 0 512 512">
  <path d="m339.77,74.66h-157.73c-69.72,0-126.23,62.97-126.23,140.65h0c0,16.14,11.74,29.22,26.23,29.22h357.74c14.48,0,26.23-13.08,26.23-29.22h0c0-77.68-56.52-140.65-126.23-140.65Zm100.01,152.93H82.03c-6.07,0-11.02-5.51-11.02-12.27,0-68.21,49.8-123.71,111.02-123.71h157.73c61.22,0,111.02,55.49,111.02,123.71,0,6.77-4.94,12.28-11.02,12.28Z"></path>
  <path d="m431.71,350.77H85.42c-10.54,0-19.08,10.16-19.08,22.69v1.24c0,34.6,23.59,62.65,52.69,62.65h279.06c29.1,0,52.69-28.05,52.69-62.65v-1.24c0-12.53-8.54-22.69-19.08-22.69Zm4.83,23.92c0,25.2-17.24,45.7-38.44,45.7H119.04c-21.2,0-38.44-20.5-38.44-45.7v-1.24c0-3.16,2.17-5.74,4.83-5.74h346.29c2.66,0,4.83,2.57,4.83,5.74v1.24Z"></path>
  <path d="m441.44,263.66H70.56c-13.56,0-24.56,11.75-24.56,26.25v23.72c0,14.5,11,26.25,24.56,26.25h370.88c13.56,0,24.56-11.75,24.56-26.25v-23.72c0-14.5-11-26.25-24.56-26.25Zm8.71,49.97c0,5.13-3.91,9.31-8.71,9.31H70.56c-4.8,0-8.71-4.18-8.71-9.31v-23.72c0-5.13,3.91-9.31,8.71-9.31h370.88c4.8,0,8.71,4.17,8.71,9.31v23.72Z"></path>
  <rect x="185.17" y="72.38" width="16.95" height="66.46" rx="6.75" ry="6.75" transform="translate(98.51 -93.39) rotate(35.84)"></rect>
  <rect x="247.53" y="72.38" width="16.95" height="66.46" rx="6.75" ry="6.75" transform="translate(110.32 -129.9) rotate(35.84)"></rect>
  <rect x="308.68" y="72.38" width="16.95" height="66.46" rx="6.75" ry="6.75" transform="translate(121.9 -165.71) rotate(35.84)"></rect>
</symbol><symbol id="i541_fastfood-6" xmlns="http://www.w3.org/2000/svg" viewBox="0 0 512 512">
  <path d="m339.77,48.94h-157.73c-69.72,0-126.23,62.97-126.23,140.65h0c0,16.14,11.74,29.22,26.23,29.22h357.74c14.48,0,26.23-13.08,26.23-29.22h0c0-77.68-56.52-140.65-126.23-140.65Zm100.01,152.93H82.03c-6.07,0-11.02-5.51-11.02-12.27,0-68.21,49.8-123.71,111.02-123.71h157.73c61.22,0,111.02,55.49,111.02,123.71,0,6.77-4.94,12.28-11.02,12.28Z"></path>
  <path d="m429.14,377.76H82.86c-10.54,0-19.08,10.16-19.08,22.69v1.24c0,34.6,23.59,62.65,52.69,62.65h279.06c29.1,0,52.69-28.05,52.69-62.65v-1.24c0-12.53-8.54-22.69-19.08-22.69Zm4.83,23.92c0,25.2-17.24,45.7-38.44,45.7H116.47c-21.2,0-38.44-20.5-38.44-45.7v-1.24c0-3.16,2.17-5.74,4.83-5.74h346.29c2.66,0,4.83,2.57,4.83,5.74v1.24Z"></path>
  <rect x="185.17" y="43.66" width="16.95" height="66.46" rx="6.75" ry="6.75" transform="translate(81.7 -98.83) rotate(35.84)"></rect>
  <rect x="247.53" y="43.66" width="16.95" height="66.46" rx="6.75" ry="6.75" transform="translate(93.5 -135.34) rotate(35.84)"></rect>
  <rect x="308.68" y="43.66" width="16.95" height="66.46" rx="6.75" ry="6.75" transform="translate(105.08 -171.15) rotate(35.84)"></rect>
  <path d="m88.6,233.28l78.47,108.93c7,9.71,20.6,11.8,30.19,4.64l152.13-113.57H88.6Zm98.53,99.99c-.79.59-1.68.89-2.66.89h0c-.69,0-2.44-.18-3.64-1.86l-59.13-82.08h176.67l-111.24,83.05Z"></path>
  <path d="m441.44,232.92H70.56c-13.56,0-24.56,11.75-24.56,26.25v23.72c0,14.5,11,26.25,24.56,26.25h93.57l-12.21-16.95h-81.37c-4.8,0-8.71-4.18-8.71-9.31v-23.72c0-5.13,3.91-9.31,8.71-9.31h370.88c4.8,0,8.71,4.17,8.71,9.31v23.72c0,5.13-3.91,9.31-8.71,9.31h-199.29l-22.7,16.95h221.99c13.56,0,24.56-11.75,24.56-26.25v-23.72c0-14.5-11-26.25-24.56-26.25Z"></path>
  <path d="m441.44,292.2h-199.29l-22.7,16.95h221.99c4.8,0,8.71,4.17,8.71,9.31v23.72c0,5.13-3.91,9.31-8.71,9.31H70.56c-4.8,0-8.71-4.18-8.71-9.31v-23.72c0-5.13,3.91-9.31,8.71-9.31h93.57l-12.21-16.95h-81.37c-13.56,0-24.56,11.75-24.56,26.25v23.72c0,14.5,11,26.25,24.56,26.25h370.88c13.56,0,24.56-11.75,24.56-26.25v-23.72c0-14.5-11-26.25-24.56-26.25Z"></path>
</symbol><symbol id="i541_fastfood-7" xmlns="http://www.w3.org/2000/svg" viewBox="0 0 512 512">
  <g id="sandwich_2">
    <path d="m401.6,365.8H102.5c-20.9,0-37.91-16.21-37.91-36.13,0-13.17,7.45-25.25,19.43-31.61,3.19-1.69,7.15-.48,8.84,2.72,1.69,3.19.48,7.15-2.72,8.84-7.7,4.08-12.48,11.73-12.48,19.96,0,12.8,11.14,23.14,24.83,23.14h299.1c13.69,0,24.83-10.34,24.83-23.05,0-8.32-4.78-15.97-12.48-20.05-3.19-1.69-4.41-5.65-2.72-8.84,1.69-3.19,5.65-4.41,8.84-2.72,11.99,6.35,19.43,18.43,19.43,31.52,0,20.01-17.01,36.22-37.91,36.22Z"></path>
    <path d="m380.2,330.65c-9.22,0-17.87-4.33-23.13-11.57-4.01-5.53-9.99-8.7-16.41-8.7h-5.47c-6.41,0-12.41,3.19-16.46,8.76-5.24,7.21-13.85,11.51-23.02,11.51s-17.87-4.33-23.13-11.57c-4.01-5.53-9.99-8.7-16.41-8.7h-5.47c-6.41,0-12.41,3.19-16.46,8.76-5.24,7.21-13.85,11.51-23.02,11.51s-17.87-4.33-23.13-11.57c-4.01-5.53-9.99-8.7-16.41-8.7h-5.47c-6.41,0-12.41,3.19-16.46,8.76-5.24,7.21-13.85,11.51-23.02,11.51s-17.79-4.3-23.02-11.51c-4.05-5.57-10.05-8.76-16.46-8.76h-.52c-10.76,0-20.14-7.32-21.82-17.02-1.01-5.83.61-11.78,4.44-16.33,4.07-4.83,10.11-7.61,16.58-7.61h331.48c10.76,0,20.14,7.32,21.82,17.02,1.01,5.83-.61,11.79-4.44,16.33-4.07,4.83-10.11,7.61-16.58,7.61h-10.8c-3.06,11.63-14.09,20.27-27.18,20.27Zm-45.02-33.35h5.47c10.5,0,20.59,5.27,26.99,14.09,2.81,3.87,7.5,6.18,12.55,6.18,8.24,0,14.95-6.16,14.95-13.73,0-3.61,2.93-6.54,6.54-6.54h16.5c2.6,0,5-1.07,6.58-2.95,1.36-1.61,1.91-3.63,1.56-5.68-.6-3.46-4.52-6.17-8.93-6.17H85.91c-2.6,0-5,1.08-6.58,2.95-1.36,1.61-1.91,3.63-1.56,5.68.6,3.46,4.52,6.17,8.93,6.17h.52c10.65,0,20.5,5.16,27.04,14.15,2.79,3.83,7.44,6.12,12.44,6.12s9.66-2.29,12.44-6.12c6.54-8.99,16.39-14.15,27.04-14.15h5.47c10.5,0,20.59,5.27,26.99,14.09,2.81,3.87,7.5,6.18,12.55,6.18s9.66-2.29,12.44-6.12c6.54-8.99,16.39-14.15,27.04-14.15h5.47c10.5,0,20.59,5.27,26.99,14.09,2.81,3.87,7.5,6.18,12.55,6.18s9.66-2.29,12.44-6.12c6.54-8.99,16.39-14.15,27.04-14.15Z"></path>
    <path d="m456.78,282.5H55.22c-5.09,0-9.22-4.14-9.22-9.22v-32.62c0-5.09,4.14-9.22,9.22-9.22h401.55c5.09,0,9.22,4.14,9.22,9.22v32.62c0,5.09-4.14,9.22-9.22,9.22Zm-397.7-13.08h393.84v-24.91H59.08v24.91Z"></path>
    <path d="m414.84,244.51H89.27c-13.6,0-24.67-10.61-24.67-23.64,0-18.35,6.73-34.83,19.47-47.65,11.58-11.65,27.86-20.09,47.08-24.4,7.95-1.78,16.67-2.61,27.43-2.61h186.94c10.77,0,19.48.83,27.43,2.61,19.22,4.31,35.51,12.75,47.08,24.4,12.74,12.82,19.47,29.3,19.47,47.65,0,13.04-11.07,23.64-24.67,23.64Zm-256.26-85.23c-9.78,0-17.58.73-24.57,2.3-35.28,7.92-56.34,30.08-56.34,59.29,0,5.83,5.2,10.56,11.59,10.56h325.57c6.39,0,11.59-4.74,11.59-10.56,0-29.21-21.06-51.37-56.34-59.29-6.99-1.57-14.79-2.3-24.57-2.3h-186.94Z"></path>
    <path d="m178.08,201.89c-12.59,0-22.82-9.82-22.82-21.9v-27.25c0-3.61,2.93-6.54,6.54-6.54s6.54,2.93,6.54,6.54v27.25c0,4.86,4.37,8.82,9.75,8.82s9.74-3.96,9.74-8.82v-27.25c0-3.61,2.93-6.54,6.54-6.54s6.54,2.93,6.54,6.54v27.25c0,12.08-10.24,21.9-22.82,21.9Z"></path>
    <path d="m326.02,201.89c-12.59,0-22.82-9.82-22.82-21.9v-27.25c0-3.61,2.93-6.54,6.54-6.54s6.54,2.93,6.54,6.54v27.25c0,4.86,4.37,8.82,9.75,8.82s9.75-3.96,9.75-8.82v-27.25c0-3.61,2.93-6.54,6.54-6.54s6.54,2.93,6.54,6.54v27.25c0,12.08-10.24,21.9-22.82,21.9Z"></path>
    <path d="m252.05,201.89c-12.58,0-22.82-9.82-22.82-21.9v-27.25c0-3.61,2.93-6.54,6.54-6.54s6.54,2.93,6.54,6.54v27.25c0,4.86,4.37,8.82,9.74,8.82s9.75-3.96,9.75-8.82v-27.25c0-3.61,2.93-6.54,6.54-6.54s6.54,2.93,6.54,6.54v27.25c0,12.08-10.24,21.9-22.82,21.9Z"></path>
  </g>
</symbol><symbol id="i541_fastfood-8" xmlns="http://www.w3.org/2000/svg" viewBox="0 0 512 512">
  <g id="hot_dog">
    <path d="m168.28,453.34c-14.84,0-29.51-4-42.01-11.54-3.09-1.87-4.09-5.89-2.22-8.98,1.87-3.09,5.89-4.09,8.98-2.22,25.61,15.45,59.79,11.97,81.26-8.29l218.56-206.16c21.22-20.02,24.9-51.83,8.75-75.65-2.03-2.99-1.25-7.06,1.74-9.08,2.99-2.03,7.06-1.25,9.08,1.74,19.77,29.15,15.31,68.06-10.6,92.5l-218.56,206.16c-12.64,11.93-29.38,19.43-47.13,21.14-2.62.25-5.24.37-7.85.37Z"></path>
    <path d="m65.01,381.63c-2.09,0-4.14-1-5.41-2.85-19.82-29.04-15.37-67.89,10.59-92.38l218.56-206.16c12.65-11.93,29.37-19.45,47.08-21.16,17.44-1.69,35.12,2.29,49.79,11.2,3.09,1.88,4.07,5.9,2.19,8.98-1.88,3.09-5.9,4.07-8.98,2.19-25.48-15.48-59.59-11.99-81.1,8.3l-218.56,206.16c-21.25,20.05-24.94,51.8-8.76,75.49,2.04,2.98,1.27,7.05-1.71,9.09-1.13.77-2.41,1.14-3.68,1.14Z"></path>
    <path d="m98.39,454.41c-13.37,0-26.73-4.8-36.91-14.4h0c-9.98-9.42-15.48-21.97-15.48-35.34s5.5-25.92,15.48-35.34L376.7,71.99c20.35-19.2,53.47-19.2,73.82,0,9.98,9.42,15.48,21.97,15.48,35.34s-5.5,25.92-15.48,35.34L135.3,440.01c-10.17,9.6-23.54,14.4-36.91,14.4ZM413.61,70.6c-10.12,0-20.23,3.63-27.93,10.9L70.46,378.85c-7.34,6.92-11.38,16.09-11.38,25.83s4.04,18.91,11.38,25.83h0c15.4,14.53,40.47,14.53,55.87,0L441.54,133.15c7.34-6.92,11.38-16.09,11.38-25.83s-4.04-18.91-11.38-25.83c-7.7-7.27-17.82-10.9-27.93-10.9Z"></path>
    <path d="m125.48,396.16c-.15,0-.3,0-.46-.02-3.6-.25-6.32-3.37-6.07-6.98l.87-12.52c1.28-18.48,16.89-33.05,36.3-33.9,12.81-.56,23.05-9.94,23.83-21.82l.14-2.11c1.18-17.96,15.67-32.22,34.47-33.91l6.1-.55c12.23-1.1,21.72-10.16,22.57-21.54l.46-6.12c1.26-16.83,14.34-30.51,31.81-33.27l14.8-2.33c11.64-1.83,20.4-11.11,20.84-22.06l.11-2.83c.72-17.94,15.39-32.87,34.12-34.74l8.24-.82c11.61-1.16,20.73-9.49,22.18-20.25l2.35-17.54c.48-3.58,3.77-6.1,7.35-5.61,3.58.48,6.09,3.77,5.61,7.35l-2.35,17.54c-2.25,16.8-16.17,29.76-33.84,31.53l-8.24.82c-12.28,1.23-21.89,10.79-22.35,22.25l-.11,2.83c-.69,17.16-14.1,31.65-31.87,34.45l-14.8,2.33c-11.44,1.8-20,10.57-20.8,21.32l-.46,6.12c-1.33,17.79-15.82,31.92-34.45,33.59l-6.1.55c-12.34,1.11-21.84,10.25-22.59,21.74l-.14,2.11c-1.21,18.55-16.82,33.18-36.31,34.03-12.76.56-23,9.9-23.82,21.74l-.87,12.52c-.24,3.45-3.11,6.09-6.52,6.09Z"></path>
  </g>
</symbol><symbol id="i541_fastfood-9" xmlns="http://www.w3.org/2000/svg" viewBox="0 0 512 512">
  <path d="m438.43,313.3s-.02-.01-.03-.02c-.01-.01-.02-.03-.03-.05l-4.68-4.95c-8.81-8.79-20.92-13.11-33.44-12.33l-16.55-36.82c-.45-1.01-1.08-1.92-1.86-2.7-8.78-8.77-20.85-13.09-33.34-12.34l-15.37-35.47c-.46-1.05-1.11-2-1.91-2.81-8.79-8.79-20.9-13.13-33.43-12.34l-16.35-36.59c-.45-1.01-1.09-1.93-1.87-2.71-8.79-8.79-20.9-13.11-33.42-12.33l-16.35-36.59c-.45-1.01-1.09-1.93-1.87-2.72-9.42-9.43-22.66-13.76-36.13-12.12-41.45-37.32-78.41-50.96-107.14-39.29-18.01,7.31-34.22,29.41-39.43,53.73-3.95,18.41-.8,34.42,8.87,45.24.28.39.58.75.92,1.09l303.47,303.47c.35.35.72.66,1.12.94,6.92,6.16,15.83,9.35,25.85,9.35,3.54,0,7.23-.4,11.01-1.21,23.34-5.01,47.28-24.4,55.7-45.11,12.37-30.42,22.52-66.15-13.74-105.33Zm-3.07,98.49c-6.04,14.87-25.59,30.54-42.68,34.2-9.16,1.95-16.38.48-21.47-4.39-.21-.2-.43-.39-.66-.58L68.7,139.2c-.19-.24-.39-.48-.61-.71-5.97-6.26-7.84-17.14-5.12-29.84,3.9-18.2,16.16-35.71,28.53-40.73,23.84-9.71,53.72,7.32,78.08,27.28l-30.03,6.9c-4.88,1.12-7.94,5.99-6.81,10.87,1.12,4.89,5.99,7.92,10.87,6.81l47.4-10.88c8.47-1.94,16.91.08,22.97,5.4l13.86,31.02-36.64,8.41c-4.88,1.12-7.94,5.99-6.81,10.87,1.13,4.89,5.98,7.9,10.87,6.81l47.4-10.88c8.47-1.93,16.91.08,22.97,5.4l13.86,31.02-36.64,8.42c-4.88,1.12-7.94,5.99-6.81,10.87,1.13,4.9,6,7.91,10.87,6.81l47.4-10.89c8.44-1.92,16.87.08,22.92,5.37l13,30.01-36.77,8.44c-4.88,1.12-7.94,5.99-6.81,10.87,1.13,4.89,6.01,7.94,10.87,6.81l47.41-10.89c8.41-1.93,16.9.08,22.98,5.41l14.04,31.23-36.63,8.41c-4.88,1.12-7.94,5.99-6.81,10.87,1.13,4.89,6,7.94,10.87,6.81l47.41-10.89c9-2.07,17.99.35,23.92,6.27l4.49,4.75c29.02,31.4,21.79,57.58,10.18,86.1Z"></path>
</symbol>
</svg>