<svg xmlns="http://www.w3.org/2000/svg" style="display: none;">

<symbol id="i711_google-1" xmlns="http://www.w3.org/2000/svg" viewBox="0 0 512 512">
  <path d="m234.55,191.77c-22.74,0-44.83,3.27-66.28,9.8-21.45,6.54-41.51,16.01-60.17,28.43l25.22,225.62c.3,3.59,1.87,6.58,4.71,8.97,2.84,2.39,6.06,3.59,9.65,3.59h216.64c3.59,0,6.81-1.2,9.65-3.59,2.84-2.39,4.41-5.38,4.71-8.97l26.52-240.51h-22.62c-13.89,0-26.76-1.07-38.62-3.21-11.86-2.14-27.84-6.12-47.94-11.96-10.32-2.72-20.54-4.76-30.67-6.12-10.13-1.36-20.39-2.04-30.8-2.04Zm-128.29,18.89c19.23-11.85,39.79-20.92,61.68-27.24,21.88-6.31,44.24-9.51,67.06-9.6,11.07,0,22.11.78,33.14,2.33,11.02,1.56,21.79,3.74,32.29,6.55,20.48,5.74,36.07,9.59,46.75,11.53,10.69,1.94,22.3,2.92,34.82,2.92h25.49l12.25-113.08H91.81l14.45,126.58Zm41.42,275.47c-8.74,0-16.09-2.68-22.05-8.04-5.96-5.36-9.38-12.24-10.25-20.64L72.03,66.13h367.95l-43.35,391.33c-.88,8.4-4.29,15.28-10.25,20.64-5.96,5.36-13.31,8.04-22.05,8.04h-216.64Zm86.87-17.95h143.99-245.22,101.23Z"></path>
</symbol><symbol id="i711_google-10" xmlns="http://www.w3.org/2000/svg" viewBox="0 0 512 512">
  <path d="m155.33,444.81h187.56v-253.26h-51.92c-13.56,0-24.53,3.21-32.9,9.62-8.37,6.41-18.07,15.82-29.09,28.21-14.06,15.79-27.06,27.41-39,34.86-11.94,7.45-23.49,11.96-34.65,13.51,0,0,0,167.06,0,167.06Zm-21.19,21.19v-188.94c-21.41-4.66-39.47-14.09-54.2-28.29-14.73-14.2-22.09-32.74-22.09-55.63,0-19.04,5.68-36.12,17.03-51.24,11.36-15.12,26.82-25.82,46.39-32.11,8.8-18.86,21.52-34.21,38.17-46.04,16.65-11.83,36.13-17.75,58.41-17.75,12.89,0,25.11,2.23,36.64,6.68,11.53,4.45,23.04,11.44,34.52,20.98,3.53-1.27,6.92-2.25,10.17-2.94,3.25-.69,6.87-1.03,10.86-1.03,23.24,0,42.65,8.67,58.23,26.01,15.58,17.34,23.37,37.64,23.37,60.88,0,7.98-.92,15.17-2.76,21.56-1.84,6.39-4.38,11.92-7.63,16.58h34.76c10.42,0,19.38,3.75,26.89,11.26,7.51,7.51,11.26,16.47,11.26,26.89v146.23c0,10.42-3.75,19.38-11.26,26.89-7.51,7.51-16.47,11.26-26.89,11.26h-51.92v48.74s-229.95,0-229.95,0Zm-55.1-272.86c0,17.45,6.59,32.23,19.76,44.35,13.18,12.12,28.49,18.17,45.94,18.17,14.34,0,26.77-3.75,37.3-11.26,10.53-7.51,20.93-17.25,31.21-29.22,10.91-12.5,22.31-23.1,34.17-31.79,11.87-8.69,26.39-13.03,43.55-13.03h79.48c1.77-22.08-3.08-40.84-14.54-56.3-11.46-15.45-26.75-23.18-45.86-23.18-5.09,0-10.06.56-14.91,1.67-4.86,1.11-8.7,2.38-11.52,3.79l-10.97-8.9c-6.15-5.58-13.97-10.35-23.47-14.31-9.5-3.96-19.94-5.93-31.31-5.93-15.72,0-30.39,4.04-44.03,12.13-13.63,8.09-23.72,19.3-30.25,33.64l-6.99,14.31-15.15,4.93c-12.65,4.49-22.87,12.46-30.68,23.92-7.81,11.46-11.71,23.8-11.71,37.01Zm285.05,202.93h51.92c4.95,0,9.01-1.59,12.19-4.77,3.18-3.18,4.77-7.24,4.77-12.19v-146.23c0-4.95-1.59-9.01-4.77-12.19-3.18-3.18-7.24-4.77-12.19-4.77h-51.92s0,180.14,0,180.14Zm-208.75,48.75h187.56-187.56Z"></path>
</symbol><symbol id="i711_google-11" xmlns="http://www.w3.org/2000/svg" viewBox="0 0 512 512">
  <path d="m158.23,466v-190.22h-46.41c-10.44,0-19.27-3.6-26.47-10.8-7.21-7.2-10.81-16.04-10.81-26.52s3.6-19.3,10.81-26.48c7.21-7.18,16.03-10.77,26.47-10.77h46.41v-28.91h-46.41c-10.44,0-19.27-3.6-26.47-10.8-7.21-7.2-10.81-16.04-10.81-26.52s3.6-19.3,10.81-26.48c7.21-7.18,16.03-10.77,26.47-10.77h46.41v-51.74h15.22v51.74h46.41c10.44,0,19.26,3.6,26.47,10.81,7.21,7.2,10.81,16.02,10.81,26.46s-3.6,19.27-10.81,26.48c-7.21,7.22-16.03,10.82-26.47,10.82h-46.41v28.91h46.41c10.44,0,19.26,3.6,26.47,10.81,7.21,7.2,10.81,16.02,10.81,26.46s-3.6,19.27-10.81,26.48c-7.21,7.22-16.03,10.82-26.47,10.82h-46.41v190.22h-15.22Zm-46.41-205.43h108.04c6.06,0,11.25-2.17,15.58-6.51,4.32-4.34,6.49-9.52,6.49-15.56s-2.16-11.25-6.49-15.58c-4.32-4.32-9.52-6.49-15.58-6.49h-108.04c-6.04,0-11.22,2.16-15.56,6.49-4.34,4.32-6.51,9.5-6.51,15.52s2.17,11.22,6.51,15.58c4.34,4.36,9.52,6.54,15.56,6.54Zm0-103.48h108.04c6.06,0,11.25-2.17,15.58-6.51,4.32-4.34,6.49-9.52,6.49-15.56s-2.16-11.25-6.49-15.58c-4.32-4.32-9.52-6.49-15.58-6.49h-108.04c-6.04,0-11.22,2.16-15.56,6.49-4.34,4.32-6.51,9.5-6.51,15.52s2.17,11.22,6.51,15.58c4.34,4.36,9.52,6.54,15.56,6.54Zm206.96,308.91v-15.22h41.85v-165.18c-17.7-4.13-32.4-12.53-44.09-25.18-11.69-12.66-17.54-27.31-17.54-43.98V46h138.48v170.43c0,16.33-5.85,30.91-17.54,43.73-11.69,12.82-26.39,21.3-44.09,25.43v165.18h41.85v15.22h-98.91Zm49.53-195.54c14.81,0,27.51-5.31,38.08-15.92,10.58-10.61,15.86-23.31,15.86-38.11v-54.02h-108.04v54.1c0,14.81,5.31,27.51,15.94,38.08,10.63,10.58,23.34,15.86,38.16,15.86Zm-54.1-118.7h108.04V61.22h-108.04v90.54Zm-224.46,108.8v-44.13s0,44.13,0,44.13Zm0-103.48v-44.13s0,44.13,0,44.13Z"></path>
</symbol><symbol id="i711_google-12" xmlns="http://www.w3.org/2000/svg" viewBox="0 0 512 512">
  <path d="m101.99,407.04v-17.21h45.7v-130.91L46,104.96h221.02l-102.12,153.97v130.91h46.13v17.21h-109.05Zm5.55-238.49h97.51l30.34-46.39H77.63s29.91,46.39,29.91,46.39Zm234.36,238.49c-15.81,0-28.92-5.18-39.32-15.55-10.4-10.37-15.6-23.45-15.6-39.27s5.19-28.49,15.56-38.89c10.38-10.4,23.48-15.6,39.3-15.6,6.28,0,12.48,1.13,18.61,3.4,6.13,2.27,12.33,5.77,18.61,10.5V104.96h86.93v34.3h-69.71v212.93c0,15.83-5.18,28.93-15.55,39.3-10.37,10.38-23.31,15.56-38.84,15.56Z"></path>
</symbol><symbol id="i711_google-13" xmlns="http://www.w3.org/2000/svg" viewBox="0 0 512 512">
  <path d="m412.83,368.37c12.57,6.71,22.89,5.02,30.96-5.07,8.08-10.08,9.02-20.95,2.82-32.59l-41.19-77.24-35.78,91.03,43.19,23.88Zm-108.49-19.04h46.45l49.18-121.16c3.28-8.5,4.15-15.7,2.63-21.59-1.52-5.9-5.68-10.27-12.46-13.11l-40.66-16.82c-6.96-3.1-13.73-3.54-20.31-1.34-6.58,2.2-10.03,6.91-10.37,14.13l-14.47,159.9Zm-143.89,0h46.34l-14.36-161.43c-.33-5.76-3.6-9.93-9.81-12.52-6.21-2.58-13.16-2.16-20.87,1.27l-39.43,16.2c-6.88,2.94-10.7,8.03-11.46,15.26-.76,7.23.34,14.71,3.28,22.44,0,0,46.3,118.78,46.3,118.78Zm-62.04,19.04l43.19-23.88-35.01-91.03-41.96,80.12c-6.45,12.39-5.26,22.71,3.57,30.96,8.83,8.25,18.9,9.53,30.21,3.82Zm123.73-19.04h66.84l16.47-183.97c.41-6.71-1.48-12.41-5.66-17.1-4.18-4.7-9.89-7.05-17.1-7.05h-54.13c-6.09,0-11.49,2.16-16.2,6.47-4.71,4.31-6.9,9.69-6.56,16.14,0,0,16.35,185.51,16.35,185.51Zm-136.59,36.82c-11.09,0-20.45-3.7-28.09-11.1-7.64-7.4-11.46-16.43-11.46-27.1,0-3.73.49-7.38,1.48-10.96.99-3.57,2.44-7.06,4.36-10.47l47.07-90.87c-4.48-11.44-5.3-22.73-2.46-33.88,2.84-11.15,9.35-18.87,19.54-23.17l40.66-16.59c6.09-2.51,12.27-3.74,18.52-3.69,6.26.05,11.72,2.34,16.37,6.87.1-10.65,3.76-19.87,10.98-27.66,7.22-7.79,16.09-11.69,26.62-11.69h53.54c10.39,0,19.26,3.52,26.6,10.56,7.35,7.04,11.33,15.84,11.94,26.41,3.97-4.3,9.06-6.09,15.28-5.37,6.22.72,12.21,2.24,17.97,4.57l40.77,16.59c10.26,3.89,17.03,11.39,20.29,22.5,3.26,11.11,2.45,22.01-2.44,32.71l47.07,92.22c1.08,2.64,2.32,5.29,3.72,7.96,1.41,2.67,2.11,5.51,2.11,8.51,0,12.18-4.22,22.5-12.67,30.96-8.45,8.46-18.7,12.69-30.77,12.69-3.01,0-5.75-.56-8.23-1.67-2.48-1.11-5.04-2.21-7.68-3.28l-31.98-16.51h-237.83l-30.87,15.74c-3.22,1.41-6.53,2.71-9.92,3.92-3.39,1.2-6.89,1.8-10.49,1.8Z"></path>
</symbol><symbol id="i711_google-14" xmlns="http://www.w3.org/2000/svg" viewBox="0 0 512 512">
  <path d="m158.23,466v-91.3h-25.49c-10.44,0-19.27-3.6-26.47-10.8-7.21-7.2-10.81-16.04-10.81-26.52s3.6-19.3,10.81-26.48c7.21-7.18,16.03-10.77,26.47-10.77h25.49v-36.52h-62.77v-74.57h62.77v-36.52h-25.49c-10.44,0-19.27-3.6-26.47-10.8-7.21-7.2-10.81-16.04-10.81-26.52s3.6-19.3,10.81-26.48c7.21-7.18,16.03-10.77,26.47-10.77h25.49v-31.96h12.93v31.96h25.49c10.44,0,19.26,3.6,26.47,10.81,7.21,7.2,10.81,16.02,10.81,26.46s-3.6,19.27-10.81,26.48c-7.21,7.22-16.03,10.82-26.47,10.82h-25.49v36.52h62.77v74.57h-62.77v36.52h25.49c10.44,0,19.26,3.6,26.47,10.81,7.21,7.2,10.81,16.02,10.81,26.46s-3.6,19.27-10.81,26.48c-7.21,7.22-16.03,10.82-26.47,10.82h-25.49v91.3s-12.93,0-12.93,0Zm182.61,0v-91.3h-25.49c-10.44,0-19.27-3.6-26.47-10.8-7.21-7.2-10.81-16.04-10.81-26.52s3.6-19.3,10.81-26.48c7.21-7.18,16.03-10.77,26.47-10.77h25.49v-36.52h-62.77v-74.57h62.77v-36.52h-25.49c-10.44,0-19.27-3.6-26.47-10.8s-10.81-16.04-10.81-26.52,3.6-19.3,10.81-26.48c7.21-7.18,16.03-10.77,26.47-10.77h25.49v-31.96h12.93v31.96h25.49c10.44,0,19.26,3.6,26.47,10.81,7.21,7.2,10.81,16.02,10.81,26.46s-3.6,19.27-10.81,26.48c-7.21,7.22-16.03,10.82-26.47,10.82h-25.49v36.52h62.77v74.57h-62.77v36.52h25.49c10.44,0,19.26,3.6,26.47,10.81,7.21,7.2,10.81,16.02,10.81,26.46s-3.6,19.27-10.81,26.48c-7.21,7.22-16.03,10.82-26.47,10.82h-25.49v91.3h-12.93ZM132.74,137.3h63.91c6.06,0,11.25-2.17,15.58-6.51,4.32-4.34,6.49-9.52,6.49-15.56s-2.16-11.25-6.49-15.58c-4.32-4.32-9.52-6.49-15.58-6.49h-63.91c-6.04,0-11.22,2.16-15.56,6.49-4.34,4.32-6.51,9.5-6.51,15.52s2.17,11.22,6.51,15.58c4.34,4.36,9.52,6.54,15.56,6.54Zm182.61,0h63.91c6.06,0,11.25-2.17,15.58-6.51,4.32-4.34,6.49-9.52,6.49-15.56s-2.16-11.25-6.49-15.58c-4.32-4.32-9.52-6.49-15.58-6.49h-63.91c-6.04,0-11.22,2.16-15.56,6.49-4.34,4.32-6.51,9.5-6.51,15.52s2.17,11.22,6.51,15.58c4.34,4.36,9.52,6.54,15.56,6.54Zm-204.67,111.09h108.04v-44.13h-108.04s0,44.13,0,44.13Zm182.61,0h108.04v-44.13h-108.04s0,44.13,0,44.13Zm-160.54,111.09h63.91c6.06,0,11.25-2.17,15.58-6.51,4.32-4.34,6.49-9.52,6.49-15.56s-2.16-11.25-6.49-15.58c-4.32-4.32-9.52-6.49-15.58-6.49h-63.91c-6.04,0-11.22,2.16-15.56,6.49-4.34,4.32-6.51,9.5-6.51,15.52s2.17,11.22,6.51,15.58c4.34,4.36,9.52,6.54,15.56,6.54Zm182.61,0h63.91c6.06,0,11.25-2.17,15.58-6.51,4.32-4.34,6.49-9.52,6.49-15.56s-2.16-11.25-6.49-15.58c-4.32-4.32-9.52-6.49-15.58-6.49h-63.91c-6.04,0-11.22,2.16-15.56,6.49-4.34,4.32-6.51,9.5-6.51,15.52s2.17,11.22,6.51,15.58c4.34,4.36,9.52,6.54,15.56,6.54ZM110.67,137.3v-44.13,44.13Zm182.61,0v-44.13,44.13Zm-182.61,111.09v-44.13s0,44.13,0,44.13Zm182.61,0v-44.13s0,44.13,0,44.13Zm-182.61,111.09v-44.13s0,44.13,0,44.13Zm182.61,0v-44.13s0,44.13,0,44.13Z"></path>
</symbol><symbol id="i711_google-15" xmlns="http://www.w3.org/2000/svg" viewBox="0 0 512 512">
  <path d="m46,205.56v-14.36c0-35.51,15.93-63.95,47.79-85.32,31.86-21.37,85.93-32.06,162.21-32.06s130.35,10.69,162.21,32.06c31.86,21.37,47.79,49.81,47.79,85.32v14.36H46Zm17.77-17.95h384.46c1.53-28.63-13.87-51.76-46.2-69.39-32.32-17.63-81-26.45-146.04-26.45s-113.83,8.82-146.39,26.45c-32.56,17.63-47.84,40.77-45.84,69.39Zm-17.77,109.85v-17.95c13.13,0,23.71-4.05,31.75-12.16,8.03-8.11,20.98-12.16,38.84-12.16s30.27,4.05,37.22,12.16c6.95,8.11,17.66,12.16,32.11,12.16s25.32-4.05,32.6-12.16c7.28-8.11,19.78-12.16,37.49-12.16s30.21,4.05,37.49,12.16c7.28,8.11,18.15,12.16,32.6,12.16s25-4.05,31.66-12.16c6.66-8.11,18.91-12.16,36.77-12.16s30.9,4.05,39.11,12.16c8.22,8.11,19.01,12.16,32.37,12.16v17.95c-17.71,0-30.25-4.05-37.62-12.16-7.37-8.11-18.28-12.16-32.73-12.16s-25.23,4.05-32.33,12.16c-7.1,8.11-19.51,12.16-37.22,12.16s-30.21-4.05-37.49-12.16c-7.28-8.11-18.15-12.16-32.6-12.16s-25.32,4.05-32.6,12.16c-7.28,8.11-19.78,12.16-37.49,12.16s-30.04-4.05-37-12.16c-6.96-8.11-17.66-12.16-32.11-12.16s-25.41,4.05-32.87,12.16c-7.47,8.11-20.11,12.16-37.93,12.16Zm32.31,140.72c-8.97,0-16.59-3.14-22.88-9.43-6.29-6.29-9.43-13.91-9.43-22.88v-57.62h420v57.62c0,8.97-3.14,16.59-9.43,22.88-6.29,6.29-13.91,9.43-22.88,9.43H78.31Zm0-17.95h355.39c3.59,0,6.88-1.5,9.87-4.49,2.99-2.99,4.49-6.28,4.49-9.87v-39.67H63.95v39.67c0,3.59,1.5,6.88,4.49,9.87,2.99,2.99,6.28,4.49,9.87,4.49Zm0-54.03h-14.36,384.1s-369.74,0-369.74,0Zm-14.54-178.59h384.46H63.77Z"></path>
</symbol><symbol id="i711_google-16" xmlns="http://www.w3.org/2000/svg" viewBox="0 0 512 512">
  <path d="m349.33,466c-22.17,0-38.91-3.93-50.23-11.78-11.32-7.85-20.9-15.89-28.74-24.12-8.59-9.27-17.25-17.28-26-24.01-8.75-6.73-20.62-10.1-35.61-10.1s-32.08-2.71-50.93-8.14c-18.85-5.43-36.5-14.15-52.97-26.16-16.47-12.01-30.37-27.6-41.71-46.78-11.34-19.18-17.05-42.51-17.14-70-.18-56.57,14.14-103.86,42.96-141.88,28.82-38.02,68.75-57.03,119.78-57.03,23.12,0,42.94,3.31,59.45,9.94,16.51,6.63,30.77,15.14,42.78,25.55,12.01,10.41,22.41,21.93,31.19,34.57,8.78,12.64,16.85,24.87,24.21,36.68,5.86,9.57,11.65,18.54,17.37,26.9,5.71,8.36,12.04,16.01,18.98,22.95,21.24,21.24,37.09,39.56,47.56,54.97,10.47,15.41,15.71,38.41,15.71,69.01,0,39.79-12.09,72.97-36.28,99.55-24.19,26.58-50.98,39.87-80.39,39.87Zm-.22-17.95c23.93,0,46.4-11.48,67.41-34.44,21.01-22.96,31.52-51.92,31.52-86.88,0-26.83-3.84-46.48-11.51-58.94-7.67-12.46-23.07-30.06-46.2-52.8-7.78-7.78-14.93-16.29-21.45-25.53-6.52-9.24-12.89-18.92-19.12-29.03-16.12-25.94-33.47-48.5-52.03-67.69-18.57-19.19-48.23-28.79-89-28.79-51.39,0-88.45,18.29-111.17,54.88-22.72,36.59-33.88,77.94-33.48,124.08.2,27.4,5.93,49.81,17.19,67.23,11.26,17.42,24.63,31.2,40.11,41.32,15.48,10.12,31.39,17.09,47.74,20.89,16.35,3.8,29.55,5.7,39.6,5.7,18.86,0,34.02,4.56,45.48,13.69,11.46,9.13,20.89,17.61,28.29,25.43,8.66,9.56,17.25,17.1,25.77,22.61,8.52,5.51,22.13,8.27,40.83,8.27Zm-92.94-139.1c14.54,0,26.97-5.22,37.29-15.66,10.32-10.44,15.48-22.93,15.48-37.47s-5.22-26.97-15.66-37.29c-10.44-10.32-22.93-15.48-37.47-15.48s-26.97,5.22-37.29,15.66c-10.32,10.44-15.48,22.93-15.48,37.47s5.22,26.97,15.66,37.29c10.44,10.32,22.93,15.48,37.47,15.48Z"></path>
</symbol><symbol id="i711_google-17" xmlns="http://www.w3.org/2000/svg" viewBox="0 0 512 512">
  <path d="m255.89,466c-43.94,0-81.18-15.69-111.71-47.06-30.54-31.37-45.8-69.46-45.8-114.24,0-29.48,4.81-59.47,14.43-89.99,9.62-30.52,22.09-58.29,37.42-83.32,15.33-25.03,32.31-45.52,50.96-61.46,18.65-15.95,36.92-23.92,54.82-23.92s36.37,7.88,55.02,23.63c18.65,15.76,35.61,36.14,50.88,61.15,15.26,25.01,27.7,52.88,37.31,83.61,9.61,30.72,14.41,60.83,14.41,90.3,0,44.79-15.3,82.87-45.91,114.24-30.61,31.37-67.88,47.06-111.82,47.06Zm.11-14.1c39.91,0,73.8-14.28,101.69-42.84,27.89-28.56,41.83-63.22,41.83-103.99,0-27.28-4.49-55.38-13.47-84.3-8.98-28.92-20.5-55.28-34.56-79.06-14.06-23.78-29.58-43.33-46.55-58.64-16.98-15.31-33.29-22.97-48.94-22.97s-32.04,7.68-49.08,23.04c-17.04,15.36-32.55,34.88-46.53,58.57-13.98,23.69-25.46,50.02-34.45,78.99-8.98,28.97-13.47,57.02-13.47,84.15,0,40.91,13.94,75.65,41.83,104.21,27.89,28.56,61.79,42.84,101.69,42.84Zm22.41-64.61c2,0,3.67-.68,5.02-2.03,1.35-1.35,2.03-3.03,2.03-5.04,0-2.36-.68-4.12-2.03-5.28-1.35-1.17-3.03-1.75-5.02-1.75-27.42,0-50.56-9.5-69.41-28.5-18.86-19-28.29-42.06-28.29-69.2,0-2.35-.68-4.11-2.03-5.29-1.35-1.17-3.03-1.76-5.04-1.76-2.36,0-4.12.59-5.28,1.76-1.17,1.18-1.75,2.94-1.75,5.29,0,30.93,10.9,57.3,32.7,79.1,21.8,21.8,48.17,32.7,79.1,32.7Z"></path>
</symbol><symbol id="i711_google-18" xmlns="http://www.w3.org/2000/svg" viewBox="0 0 512 512">
  <path d="m113.31,442.67c-5.03,0-9.27-1.74-12.74-5.21-3.47-3.47-5.21-7.72-5.21-12.74v-219.92c-13.07-7.36-24.57-16.48-34.48-27.35-9.92-10.87-14.88-24.72-14.88-41.53,0-18.82,6.39-34.62,19.18-47.41,12.79-12.79,28.59-19.18,47.41-19.18h286.82c18.82,0,34.62,6.39,47.41,19.18,12.79,12.79,19.18,28.59,19.18,47.41,0,16.81-4.96,30.65-14.88,41.53-9.92,10.87-21.37,19.99-34.35,27.35v219.92c0,5.03-1.74,9.27-5.21,12.74-3.47,3.47-7.72,5.21-12.74,5.21H113.31Zm0-17.95h285.52v-228.17l11.44-7.45c9.54-6.04,18.23-13.16,26.05-21.36,7.82-8.2,11.73-18.8,11.73-31.81,0-13.49-4.73-24.97-14.2-34.44-9.47-9.47-20.95-14.2-34.44-14.2H112.59c-13.49,0-24.97,4.73-34.44,14.2-9.47,9.47-14.2,20.95-14.2,34.44s3.89,23.73,11.67,31.88c7.78,8.15,16.68,15.29,26.7,21.43l10.99,7.31s0,228.17,0,228.17Zm135.38-53.71c2.39,2.39,4.85,3.59,7.38,3.59s4.99-1.2,7.38-3.59l85.26-84.36c2.39-2.39,3.59-4.85,3.59-7.38s-1.2-4.99-3.59-7.38l-85.26-85.26c-1.91-1.91-4.38-2.87-7.38-2.87s-5.47.96-7.38,2.87l-84.36,85.26c-2.39,2.39-3.59,4.85-3.59,7.38s1.2,4.99,3.59,7.38l84.36,84.36Zm7.31-17.63l-73.32-73.32,73.32-74.67,74.22,74.67-74.22,73.32Z"></path>
</symbol><symbol id="i711_google-19" xmlns="http://www.w3.org/2000/svg" viewBox="0 0 512 512">
  <path d="m256,452.47L46,136.3c30.43-23.83,63.47-42.58,99.12-56.26,35.65-13.67,72.61-20.51,110.88-20.51s75.23,6.84,110.88,20.51c35.65,13.67,68.69,32.43,99.12,56.26l-210,316.17Zm0-33.18l185.41-278.69c-27.56-18.39-57.06-33.38-88.49-44.99-31.43-11.6-63.73-17.41-96.92-17.41s-65.6,5.8-96.8,17.41c-31.2,11.6-60.73,26.6-88.61,44.99l185.41,278.69Zm-79.46-229.79c6.44,0,11.92-2.14,16.45-6.42,4.52-4.28,6.78-9.64,6.78-16.08s-2.25-11.92-6.76-16.45c-4.51-4.52-9.99-6.78-16.43-6.78s-11.81,2.25-16.1,6.76c-4.29,4.51-6.44,9.99-6.44,16.43s2.14,11.81,6.42,16.1c4.28,4.29,9.64,6.44,16.08,6.44Zm79.33,127.63c6.44,0,11.92-2.22,16.45-6.67,4.52-4.45,6.78-9.84,6.78-16.19s-2.25-11.75-6.76-16.2c-4.51-4.45-9.99-6.67-16.43-6.67s-11.81,2.2-16.1,6.6c-4.29,4.4-6.44,9.74-6.44,16.02s2.14,11.87,6.42,16.37c4.28,4.5,9.64,6.75,16.08,6.75Z"></path>
</symbol><symbol id="i711_google-2" xmlns="http://www.w3.org/2000/svg" viewBox="0 0 512 512">
  <path d="m152.55,466c-10.34,0-19-3.17-25.99-9.51-6.98-6.34-11.07-14.46-12.25-24.37L72.03,46h367.95l-42.29,386.12c-1.18,9.9-4.96,18.03-11.35,24.37-6.39,6.34-14.61,9.51-24.66,9.51h-209.12Zm-46.79-276.41l27.08,244.1c.3,4.19,2.02,7.63,5.16,10.32,3.14,2.69,6.81,4.04,10.99,4.04h215.77c3.59,0,6.81-1.5,9.65-4.49,2.84-2.99,4.41-6.28,4.71-9.87l27.1-244.1H105.77Zm-2.29-17.95h305.04l11.22-107.69H92.26l11.22,107.69Zm152.52,228.89c14.81,0,27.21-5.07,37.22-15.21,10.01-10.14,15.01-22.69,15.01-37.65,0-13.49-3.75-27.7-11.24-42.63-7.49-14.93-21.16-34.27-40.99-58.02-19.83,23.75-33.5,43.09-40.99,58.02-7.49,14.93-11.24,29.14-11.24,42.63,0,14.96,5,27.51,15.01,37.65,10.01,10.14,22.41,15.21,37.22,15.21Zm150.23-210.94H105.77h300.46Zm-150.23,192.99c-9.73,0-17.87-3.21-24.44-9.62-6.56-6.41-9.84-14.48-9.84-24.21,0-10.86,2.98-22.15,8.95-33.88,5.97-11.73,14.41-24.56,25.33-38.5,10.92,14.63,19.36,27.66,25.33,39.08,5.97,11.43,8.95,22.53,8.95,33.29,0,9.73-3.28,17.8-9.84,24.21-6.56,6.41-14.71,9.62-24.44,9.62Z"></path>
</symbol><symbol id="i711_google-20" xmlns="http://www.w3.org/2000/svg" viewBox="0 0 512 512">
  <path d="m186,466v-33.21c-39.04-15.44-72.13-38.54-99.28-69.33-27.15-30.78-40.72-66.6-40.72-107.47,0-29.05,5.51-56.35,16.53-81.9,11.02-25.55,25.98-47.78,44.87-66.67,18.89-18.9,41.11-33.86,66.65-44.89,25.54-11.02,52.83-16.54,81.87-16.54s56.34,5.51,81.91,16.54c25.56,11.03,47.8,25.99,66.71,44.89,18.91,18.9,33.88,41.12,44.91,66.67,11.03,25.55,16.55,52.85,16.55,81.9,0,40.86-13.57,76.69-40.72,107.47-27.15,30.78-60.24,53.89-99.28,69.33v33.21h-140Zm8.97-209.87h122.05V74.09c-10.1-3.53-20.23-6.1-30.4-7.72-10.17-1.62-20.34-2.42-30.51-2.42s-20.38.81-30.62,2.42c-10.25,1.62-20.42,4.15-30.51,7.62v182.14Zm-131.03,0h113.08V80.78c-34.52,15.83-62,39.46-82.43,70.9-20.43,31.44-30.65,66.26-30.65,104.46Zm271.03,0h113.08c0-38.11-10.22-72.91-30.65-104.39-20.43-31.48-47.91-55.14-82.43-70.96v175.36Zm-131.03,191.92h104.1v-27.51c34.01-13.82,64.38-32.74,91.11-56.76,26.73-24.02,42.62-53.92,47.68-89.7H65.16c5.06,35.78,20.95,65.68,47.68,89.7,26.73,24.02,57.1,42.96,91.11,56.82v27.45Zm0,0h104.1-104.1Z"></path>
</symbol><symbol id="i711_google-21" xmlns="http://www.w3.org/2000/svg" viewBox="0 0 512 512">
  <path d="m108.44,282.36c2.01-4.14,3.45-8.29,4.31-12.46.86-4.17,1.3-8.8,1.3-13.9,0-13.46-3.68-26.8-11.05-40.02-7.37-13.22-11.05-26.59-11.05-40.11,0-3.2.3-6.84.89-10.9.6-4.07,2.03-8.3,4.29-12.69h17c-1.81,4.02-3.13,8.09-3.95,12.2-.82,4.11-1.23,7.91-1.23,11.39,0,12.53,3.68,25.44,11.05,38.73,7.37,13.29,11.05,27.09,11.05,41.4,0,5.1-.5,9.88-1.51,14.33-1.01,4.45-2.37,8.46-4.1,12.03,0,0-17,0-17,0Zm143.68,0c2.01-4.14,3.45-8.29,4.31-12.46.86-4.17,1.3-8.8,1.3-13.9,0-13.46-3.68-26.8-11.05-40.02-7.37-13.22-11.05-26.59-11.05-40.11,0-3.2.3-6.84.89-10.9.6-4.07,2.03-8.3,4.29-12.69h17c-1.81,4.02-3.13,8.09-3.95,12.2-.82,4.11-1.23,7.91-1.23,11.39,0,12.53,3.68,25.44,11.05,38.73,7.37,13.29,11.05,27.09,11.05,41.4,0,5.1-.5,9.88-1.51,14.33-1.01,4.45-2.37,8.46-4.1,12.03,0,0-17,0-17,0Zm-71.84,0c2.01-4.14,3.45-8.29,4.31-12.46.86-4.17,1.3-8.8,1.3-13.9,0-13.46-3.68-26.8-11.05-40.02-7.37-13.22-11.05-26.59-11.05-40.11,0-3.2.3-6.84.89-10.9.6-4.07,2.03-8.3,4.29-12.69h17c-1.81,4.02-3.13,8.09-3.95,12.2-.82,4.11-1.23,7.91-1.23,11.39,0,12.53,3.68,25.44,11.05,38.73,7.37,13.29,11.05,27.09,11.05,41.4,0,5.1-.5,9.88-1.51,14.33-1.01,4.45-2.37,8.46-4.1,12.03,0,0-17,0-17,0Zm19.43,183.64c-34.01,0-64.25-11.7-90.72-35.09-26.47-23.39-42.28-51.77-47.44-85.13-.45-2.89.04-5.26,1.47-7.1,1.43-1.84,3.78-2.76,7.04-2.76h249.96l25.72-243.54c1.56-12.84,7.27-23.78,17.13-32.82,9.86-9.04,21.54-13.56,35.03-13.56,14.68,0,27.14,5.12,37.37,15.35,10.23,10.23,15.35,22.69,15.35,37.37,0,1.9-.04,4.31-.13,7.25-.08,2.93-.5,6.57-1.23,10.9l-16.88-2.72c.28-1.7.56-4.27.83-7.69.27-3.43.4-6.01.4-7.74,0-10-3.45-18.46-10.35-25.36s-15.35-10.35-25.36-10.35-17.81,3.1-24.53,9.31c-6.72,6.21-10.44,13.8-11.18,22.79l-25.42,242.95c-3.77,36.22-18.61,66.6-44.53,91.14-25.92,24.54-56.76,36.81-92.52,36.81Zm0-17c27.91,0,52.32-8.67,73.2-26.02,20.89-17.34,36.12-40.7,45.7-70.06H79.15c9.58,29.36,25.09,52.71,46.53,70.06,21.44,17.34,46.12,26.02,74.03,26.02Z"></path>
</symbol><symbol id="i711_google-22" xmlns="http://www.w3.org/2000/svg" viewBox="0 0 512 512">
  <path d="m108.6,376.65c-17.33,0-32.1-6.1-44.3-18.3-12.2-12.2-18.3-26.96-18.3-44.3v-79.76h420v79.76c0,17.33-6.1,32.1-18.3,44.3-12.2,12.2-26.97,18.3-44.3,18.3H108.6Zm0-20.19h294.81c11.99,0,22.05-4.07,30.19-12.21,8.14-8.14,12.21-18.2,12.21-30.19v-59.57H66.19v59.57c0,11.99,4.07,22.05,12.21,30.19,8.14,8.14,18.2,12.21,30.19,12.21Zm-62.6-168.61v-20.19h147.4v-14.13c0-5.23,1.72-9.57,5.16-13.01,3.44-3.44,7.78-5.16,13.01-5.16h88.85c5.23,0,9.57,1.72,13.01,5.16,3.44,3.44,5.16,7.78,5.16,13.01v14.13h147.4v20.19H46Zm20.19,168.61v-101.97,101.97Z"></path>
</symbol><symbol id="i711_google-23" xmlns="http://www.w3.org/2000/svg" viewBox="0 0 512 512">
  <path d="m74.75,308.56c-7.77,0-14.5-2.85-20.2-8.55-5.7-5.7-8.55-12.43-8.55-20.2V104.15c0-7.77,2.85-14.5,8.55-20.2,5.7-5.7,12.43-8.55,20.2-8.55h362.51c7.77,0,14.5,2.85,20.2,8.55,5.7,5.7,8.55,12.43,8.55,20.2v175.67c0,7.77-2.85,14.5-8.55,20.2-5.7,5.7-12.43,8.55-20.2,8.55,0,0-362.51,0-362.51,0Zm0-217.19c-3.73,0-6.79,1.2-9.18,3.59-2.4,2.4-3.59,5.46-3.59,9.18v175.67c0,3.73,1.2,6.79,3.59,9.18,2.4,2.4,5.46,3.59,9.18,3.59h362.51c3.73,0,6.79-1.2,9.18-3.59,2.4-2.4,3.59-5.46,3.59-9.18V104.15c0-3.73-1.2-6.79-3.59-9.18-2.4-2.4-5.46-3.59-9.18-3.59H74.75Zm1.96,293.44l-.76-18.37,360.39-18.92.76,18.37s-360.39,18.92-360.39,18.92Zm-1.16,51.78v-18.37h360.91v18.37H75.54Zm155.51-194.31c21.71,0,42.69-3.5,62.94-10.51,20.25-7.01,38.27-18.14,54.07-33.4,2,10.41,7.4,18.42,16.21,24.05,8.81,5.63,18.63,8.92,29.46,9.88v-80.65c-10.91,1.3-20.93,4.82-30.04,10.54-9.12,5.72-14.37,13.83-15.75,24.31-15.97-14.7-34.01-25.84-54.1-33.44-20.1-7.6-40.96-11.39-62.6-11.39-23.16,0-45.52,3.9-67.06,11.69-21.54,7.79-39.56,20.68-54.07,38.67,14.24,17.98,32.18,30.85,53.81,38.61s44.01,11.64,67.13,11.64ZM61.97,91.37v201.22V91.37Z"></path>
</symbol><symbol id="i711_google-24" xmlns="http://www.w3.org/2000/svg" viewBox="0 0 512 512">
  <path d="m193.04,437.77h100.98v-28.57l8.9-2.78c29.71-9.49,54.7-24.36,74.98-44.61,20.27-20.24,33.97-41.16,41.1-62.74H68.5c7.41,21.58,21.16,42.52,41.23,62.81,20.07,20.29,44.88,35.14,74.42,44.54l8.9,2.78s0,28.57,0,28.57Zm-17.11,17.11v-33.96c-35.21-13.86-64.17-32.98-86.87-57.35-22.7-24.38-37.05-51.54-43.07-81.48v-.86l31.48.86V99.16l385.96-42.04v17.11l-267.91,29.04v50.51h270.48v17.11H195.52v111.2h246.4c-5.36,29.94-19.79,57.1-43.28,81.48-23.5,24.38-52.66,43.5-87.51,57.35v33.96h-135.2Zm-30.88-301.1h33.36v-48.16l-33.36,3.81v44.35Zm-50.47,0h33.36v-43.33l-33.36,3.12s0,40.2,0,40.2Zm50.47,128.31h33.36v-111.2h-33.36v111.2Zm-50.47,0h33.36v-111.2h-33.36v111.2Z"></path>
</symbol><symbol id="i711_google-25" xmlns="http://www.w3.org/2000/svg" viewBox="0 0 512 512">
  <path d="m63.43,441.17l-17.43-17.43h420l-17.43,17.43H63.43Zm9.63-62.87c2.06-4.01,4.47-8.03,7.21-12.07,2.75-4.04,6.18-8.26,10.3-12.68v-185.82h-22.79v-17.43h22.79v-22.31h-22.79v-17.43h22.79v-22.31h-22.79v-17.43h146.83c6.74,0,13,2.38,18.78,7.14,5.78,4.76,8.67,12.69,8.67,23.79v8.8h219.59v17.43h-219.59v8.8c0,11.1-2.89,19.03-8.67,23.79-5.78,4.76-12.04,7.14-18.78,7.14h-48.58v158.28c9.88.76,19.56,3.15,29.06,7.19,9.5,4.04,17.89,9.57,25.18,16.6,2.27-21.46,13.01-40.48,32.22-57.05,19.21-16.57,43.31-24.86,72.3-24.86,30.18,0,55.3,9.05,75.35,27.14,20.06,18.1,30.52,40.64,31.39,67.62v15.64s-358.48,0-358.48,0Zm163.77-17.43h176.8c.09-20.48-8.58-38.19-26.01-53.13-17.43-14.94-38.37-22.42-62.83-22.42s-45.18,7.47-62.17,22.42c-16.99,14.94-25.59,32.65-25.79,53.13Zm-70.8-250.3h61.21v-8.37c0-3.49-1.45-6.68-4.36-9.58-2.9-2.9-6.1-4.36-9.59-4.36h-47.27v22.31Zm0,39.73h47.27c3.49,0,6.68-1.45,9.59-4.36,2.9-2.9,4.36-6.1,4.36-9.58v-8.37h-61.21v22.31Zm-58.16-39.73h40.74v-22.31h-40.74v22.31Zm0,39.73h40.74v-22.31h-40.74v22.31Zm0,189.96c5.34-3.72,11.47-6.88,18.39-9.48,6.91-2.6,14.36-4.09,22.35-4.47v-158.59h-40.74v172.53Zm128.96,20.61h176.8-176.8Z"></path>
</symbol><symbol id="i711_google-26" xmlns="http://www.w3.org/2000/svg" viewBox="0 0 512 512">
  <path d="m86.38,466c-4.82,0-8.86-1.79-12.14-5.36-3.28-3.57-4.91-7.77-4.91-12.59v-116.53c0-8.73,3.2-16.29,9.61-22.7,6.41-6.41,13.97-9.61,22.7-9.61h16.2v-102.58c0-8.96,3.2-16.58,9.61-22.87,6.41-6.29,13.97-9.43,22.7-9.43h96.88v-36.44c-6.88-4.55-12.51-9.58-16.89-15.1s-6.57-12.02-6.57-19.5c0-4.6.85-8.94,2.54-13.01,1.69-4.07,4.03-7.59,7.02-10.54l22.88-23.74,22.94,23.95c2.96,2.85,5.38,6.3,7.26,10.36,1.88,4.05,2.83,8.38,2.83,12.98,0,7.48-2.29,13.98-6.87,19.5-4.58,5.52-10.31,10.56-17.19,15.1v36.44h96.88c8.73,0,16.29,3.14,22.7,9.43,6.41,6.29,9.61,13.91,9.61,22.87v102.58h16.2c8.73,0,16.29,3.2,22.7,9.61,6.41,6.41,9.61,13.97,9.61,22.7v116.53c0,4.82-1.79,9.01-5.36,12.59-3.57,3.57-7.77,5.36-12.59,5.36H86.38Zm49.4-166.79h240.42v-102.58c0-4.19-1.42-7.63-4.26-10.32-2.84-2.69-6.21-4.04-10.1-4.04h-211.71c-3.89,0-7.25,1.35-10.1,4.04-2.84,2.69-4.26,6.13-4.26,10.32,0,0,0,102.58,0,102.58Zm-48.51,148.84h337.44v-116.53c0-3.89-1.35-7.25-4.04-10.1-2.69-2.84-6.13-4.26-10.32-4.26H101.64c-4.19,0-7.63,1.42-10.32,4.26-2.69,2.84-4.04,6.21-4.04,10.1v116.53Zm48.51-148.84h240.42-240.42Zm-48.51,148.84h337.44s-337.44,0-337.44,0Zm314.1-148.84H110.62s290.77,0,290.77,0Z"></path>
</symbol><symbol id="i711_google-27" xmlns="http://www.w3.org/2000/svg" viewBox="0 0 512 512">
  <path d="m256.3,466l-90.13-181.03c-20.49,9.03-40.35,7.17-59.59-5.57-19.24-12.74-28.86-30.76-28.86-54.04,0-13,4.32-25.99,12.96-38.96,8.64-12.97,23.09-21.96,43.35-26.96,4.23-35.91,18.38-63.8,42.45-83.66,24.07-19.86,50.58-29.79,79.52-29.79s55.43,9.93,79.46,29.79c24.03,19.86,38.2,47.74,42.51,83.66,20.26,5,34.71,13.99,43.35,26.96,8.64,12.97,12.96,25.96,12.96,38.96,0,23.86-9.35,41.8-28.05,53.83-18.7,12.03-38.18,13.96-58.44,5.79l-91.5,181.03Zm-115.24-193.5c6.11,0,12-.86,17.66-2.57,5.66-1.71,10.44-4.67,14.36-8.87l13.2-13.33,13.67,9.86c8.43,5.74,17.62,9.66,27.58,11.76,9.96,2.1,19.72,3.15,29.29,3.15,9.29,0,18.61-1.05,27.99-3.15,9.37-2.1,18.41-6.02,27.13-11.76l13.8-9.86,13.07,13.33c3.91,4.2,8.72,7.16,14.42,8.87,5.7,1.71,11.56,2.57,17.59,2.57,12.34,0,23.15-4.68,32.42-14.04,9.27-9.36,13.91-20.39,13.91-33.11,0-11.23-3.53-21.04-10.59-29.44-7.06-8.4-16.51-13.57-28.37-15.51l-18.21-2.79-1.11-19.59c-2.66-27.34-13.58-49.99-32.76-67.95-19.19-17.96-42.55-26.94-70.09-26.94s-50.93,8.98-70.16,26.94c-19.23,17.96-30.13,40.61-32.7,67.95l-1.24,19.59-18.21,4.03c-11.14,2.4-20.4,7.48-27.77,15.24-7.37,7.76-11.06,17.25-11.06,28.48,0,12.71,4.64,23.75,13.91,33.11,9.27,9.36,20.04,14.04,32.29,14.04Zm115.24,154.16l76.46-149.83-7.63-6.77c-12.11,6.43-24.28,11.3-36.49,14.61-12.21,3.31-22.82,4.97-31.82,4.97-9.6,0-20.53-1.44-32.79-4.33-12.26-2.89-24.17-7.97-35.74-15.26l-7.2,6.21s75.21,150.39,75.21,150.39Z"></path>
</symbol><symbol id="i711_google-28" xmlns="http://www.w3.org/2000/svg" viewBox="0 0 512 512">
  <path d="m256,466c-43.87,0-81.15-15.34-111.82-46.01-30.67-30.67-46.01-67.94-46.01-111.82,0-37.43,11.46-70.47,34.37-99.12,22.92-28.65,52.77-47.07,89.56-55.26-10.05-1.52-19.83-4.19-29.34-8.02-9.51-3.83-17.76-9.4-24.74-16.72-10.93-10.69-18.13-23.27-21.63-37.74-3.49-14.47-5.4-29.46-5.74-44.97,6.41-.51,12.73-.46,18.97.15,6.24.61,11.89,2.68,16.95,6.22,22.86,4.18,41.65,15.47,56.35,33.87,14.7,18.4,22.17,39.82,22.41,64.27,5.46-15.48,12.77-29.98,21.93-43.5,9.16-13.52,19.57-26.12,31.24-37.79,1.92-1.92,4.33-2.88,7.23-2.88s5.31.96,7.23,2.88c1.92,1.92,2.88,4.25,2.88,6.98s-.96,5.06-2.88,6.98c-9.95,10.29-18.8,21.03-26.56,32.22-7.76,11.2-14.37,22.97-19.83,35.31,39.52,5.13,72.28,22.55,98.26,52.28,25.98,29.73,38.98,64.67,38.98,104.84,0,43.87-15.34,81.15-46.01,111.82-30.67,30.67-67.94,46.01-111.82,46.01Zm0-20.23c38.31,0,70.82-13.35,97.53-40.06,26.71-26.71,40.06-59.22,40.06-97.53s-13.35-70.82-40.06-97.53c-26.71-26.71-59.22-40.06-97.53-40.06s-70.82,13.35-97.53,40.06c-26.71,26.71-40.06,59.22-40.06,97.53s13.35,70.82,40.06,97.53c26.71,26.71,59.22,40.06,97.53,40.06Z"></path>
</symbol><symbol id="i711_google-29" xmlns="http://www.w3.org/2000/svg" viewBox="0 0 512 512">
  <path d="m159.33,407.86h193.34l13.41-172.69h-220.15s13.41,172.69,13.41,172.69Zm-14.8-190.04h222.5l4.12-48.99-65.95-64.69h-98.41l-65.95,64.69s3.69,48.99,3.69,48.99Zm-16.1,17.44l-82.44-80.31,11.24-13.41,70.12,67.47-3.69-45.69,75.84-76.54h112.98l75.84,76.54-3.25,45.69,69.68-67.47,11.24,13.41-82.44,80.31s-255.12,0-255.12,0Zm14.49,189.95l-14.49-189.95h255.12l-14.49,189.95h-226.14Z"></path>
</symbol><symbol id="i711_google-3" xmlns="http://www.w3.org/2000/svg" viewBox="0 0 512 512">
  <path d="m54.2,466v-20.49h360.43v20.49H54.2Zm76.98-88.1c-21.49,0-39.69-7.47-54.61-22.42-14.92-14.95-22.38-33.08-22.38-54.41V46h366.73c9.88,0,18.49,3.68,25.85,11.03,7.35,7.35,11.03,15.97,11.03,25.85v65.56c0,9.88-3.68,18.49-11.03,25.85-7.35,7.35-15.97,11.03-25.85,11.03h-46v115.76c0,21.32-7.46,39.46-22.38,54.41-14.92,14.95-33.12,22.42-54.61,22.42,0,0-166.77,0-166.77,0Zm0-20.49h166.78c15.29,0,28.52-5.59,39.71-16.77,11.18-11.18,16.77-24.37,16.77-39.57V66.49H74.68v234.58c0,15.2,5.62,28.38,16.85,39.57,11.23,11.18,24.45,16.77,39.64,16.77Zm243.75-192.59h46c4.78,0,8.71-1.54,11.78-4.61,3.07-3.07,4.61-7,4.61-11.78v-65.56c0-4.78-1.54-8.71-4.61-11.78-3.07-3.07-7-4.61-11.78-4.61h-46v98.34Z"></path>
</symbol><symbol id="i711_google-30" xmlns="http://www.w3.org/2000/svg" viewBox="0 0 512 512">
  <path d="m65.99,463.42l-13.58-13.58,253.03-253.03c-9.05-20.7-11.35-40.46-6.88-59.27,4.46-18.82,15.16-36.85,32.09-54.1,14.4-14.31,33.58-24.9,57.54-31.78,23.96-6.88,44.21-2.21,60.77,14.03,16.33,16.33,20.93,36.43,13.79,60.29-7.14,23.86-18.16,43.45-33.07,58.77-16.24,16.01-33.63,26.38-52.2,31.1-18.56,4.72-38,2.85-58.32-5.6l-49.89,49.89,190.18,189.7-13.58,13.58-190.18-189.23s-189.7,189.23-189.7,189.23Zm77.62-210.92l-68.22-67.74c-17.82-18.13-27.53-39.23-29.15-63.28-1.61-24.05,4.92-46.4,19.61-67.03l137.91,137.91s-60.15,60.15-60.15,60.15Z"></path>
</symbol><symbol id="i711_google-31" xmlns="http://www.w3.org/2000/svg" viewBox="0 0 512 512">
  <path d="m175.02,466v-200.39c-17.46-1.79-32.27-9.26-44.44-22.42-12.17-13.16-18.26-29.3-18.26-48.4V46h17v148.79h45.7V46h17v148.79h45.27V46h17v148.79c0,19.1-6.09,35.23-18.26,48.4-12.17,13.16-26.85,20.64-44.02,22.42v200.39h-17Zm207.66,0v-176.84h-52.93v-150.27c0-23.72,6.01-44.21,18.02-61.47,12.02-17.26,29.32-27.45,51.9-30.56v419.15h-17Z"></path>
</symbol><symbol id="i711_google-4" xmlns="http://www.w3.org/2000/svg" viewBox="0 0 512 512">
  <path d="m54.2,466v-20.49h360.43v20.49H54.2Zm76.98-88.1c-21.49,0-39.69-7.47-54.61-22.42-14.92-14.95-22.38-33.08-22.38-54.41V46h366.54c10.37,0,19.14,3.59,26.31,10.76,7.17,7.17,10.76,15.88,10.76,26.12v65.56c0,10.24-3.59,18.94-10.76,26.12-7.18,7.17-15.88,10.76-26.12,10.76h-46v115.76c0,21.32-7.47,39.46-22.42,54.41-14.95,14.95-33.13,22.42-54.56,22.42,0,0-166.77,0-166.77,0Zm243.75-213.07h46c4.78,0,8.71-1.54,11.78-4.61s4.61-7,4.61-11.78v-65.56c0-4.78-1.54-8.71-4.61-11.78-3.07-3.07-7-4.61-11.78-4.61h-46v98.34Zm-243.75,192.59h166.78c15.29,0,28.52-5.59,39.71-16.77,11.18-11.18,16.77-24.37,16.77-39.57V66.49h-171.12v33.24l40.62,33.5c.79.79,2.61,4.61,5.48,11.47v74.27c0,3.58-1.35,6.88-4.05,9.91-2.7,3.03-6.21,4.54-10.55,4.54h-83.64c-4.34,0-7.85-1.51-10.55-4.54-2.7-3.03-4.05-6.33-4.05-9.91v-74.27c0-1.54,1.83-5.36,5.48-11.47l40.77-33.5v-33.24h-88.15v234.58c0,15.2,5.62,28.38,16.85,39.57,11.23,11.18,24.45,16.77,39.64,16.77Zm31.65-290.93h20.49-20.49Z"></path>
</symbol><symbol id="i711_google-5" xmlns="http://www.w3.org/2000/svg" viewBox="0 0 512 512">
  <path d="m317.56,321.8c-4.78-15.18-17.23-28.3-37.35-39.36-20.12-11.06-48.82-16.59-86.1-16.59s-65.98,5.53-86.1,16.59c-20.12,11.06-32.61,24.18-37.47,39.36h247.02Zm-266.21,16.47c0-10.54,2.64-21.06,7.93-31.56,5.28-10.5,13.73-20,25.32-28.49,11.6-8.5,26.42-15.43,44.47-20.79,18.05-5.37,39.75-8.05,65.1-8.05s47.03,2.68,65.04,8.05c18.01,5.37,32.74,12.3,44.2,20.79,11.46,8.5,19.83,17.99,25.12,28.49,5.28,10.5,7.93,21.02,7.93,31.56,0,0-285.11,0-285.11,0Zm0,62.75v-16.47h285.11v16.47H51.35Zm322.99,64.98v-16.47h37.39l30.51-296.47h-196.99l-2.1-16.47h99.85V46h16.47v90.59h101.17l-32.16,309.24c-.8,6.81-3.39,11.87-7.8,15.19-4.4,3.32-9.65,4.98-15.75,4.98h-30.6Zm0-16.47h37.39-37.39Zm-312.28,16.47c-3.05,0-5.59-1.02-7.64-3.07-2.05-2.04-3.07-4.59-3.07-7.64v-5.76h285.11v5.77c0,3.05-.92,5.59-2.76,7.64-1.84,2.05-4.49,3.07-7.95,3.07H62.06h0Z"></path>
</symbol><symbol id="i711_google-6" xmlns="http://www.w3.org/2000/svg" viewBox="0 0 512 512">
  <path d="m169.17,466v-20.19h76.73v-124.94c-40.28-5.79-71.05-22.18-92.3-49.17-21.25-26.99-31.88-58.48-31.88-94.44V46h268.56v131.25c0,36.01-10.63,67.5-31.88,94.48-21.25,26.97-52.02,43.35-92.3,49.14v124.94h76.73v20.19h-173.65Zm86.81-164.57c30.2,0,56.48-11.48,78.85-34.45,22.36-22.97,34.18-49.51,35.46-79.63h-228.58c1.18,30.12,12.97,56.66,35.37,79.63,22.4,22.97,48.7,34.45,78.9,34.45Zm-114.06-134.28h228.17v-100.96h-228.17v100.96Z"></path>
</symbol><symbol id="i711_google-7" xmlns="http://www.w3.org/2000/svg" viewBox="0 0 512 512">
  <path d="m59.33,451c-4.31,0-7.6-1.15-9.9-3.44-2.29-2.29-3.44-5.59-3.44-9.9v-8.33h305.83v8.33c0,4.31-1.15,7.6-3.44,9.9-2.29,2.29-5.59,3.44-9.9,3.44,0,0-279.17,0-279.17,0Zm-13.33-69.25v-8.33c0-4.31,1.15-7.6,3.44-9.9,2.29-2.29,5.59-3.44,9.9-3.44h98.17v-23.29h82.83v23.29h98.17c4.31,0,7.6,1.15,9.9,3.44,2.29,2.29,3.44,5.59,3.44,9.9v8.33s-305.83,0-305.83,0Zm369.25,69.25v-139.67c-9.25-6.89-17.52-16.99-24.81-30.29-7.29-13.31-10.94-27.9-10.94-43.79V61h86.5v176.25c0,15.89-3.37,30.49-10.1,43.79-6.74,13.31-14.73,23.4-23.98,30.29v123h34.08v16.67s-50.75,0-50.75,0Zm-19.08-273.46h53.17v-99.87h-53.17v99.87Zm27.42,118c7.47-4.72,13.63-12.59,18.48-23.6,4.85-11.01,7.27-22.58,7.27-34.69v-43.04h-53.17v43.04c0,12.11,2.77,23.67,8.31,34.69,5.54,11.01,11.91,18.88,19.1,23.6Z"></path>
</symbol><symbol id="i711_google-8" xmlns="http://www.w3.org/2000/svg" viewBox="0 0 512 512">
  <path d="m128.73,466v-19.58h117.48v-177.3L61.17,65.58v-19.58h389.65v19.58l-185.03,203.54v177.3h117.48v19.58h-254.55Zm6.51-348.29h241.52l48.9-51.06H86.34s48.9,51.06,48.9,51.06Zm120.76,133.54l102.89-113.96h-205.79l102.89,113.96Z"></path>
</symbol><symbol id="i711_google-9" xmlns="http://www.w3.org/2000/svg" viewBox="0 0 512 512">
  <path d="m56.91,466v-18.18h38.36v-84.68c-12.27-2.42-21.73-8-28.39-16.72-6.65-8.72-9.98-18.83-9.98-30.32v-165.55h95.36v165.55c0,10.38-3.34,20.24-10.01,29.59-6.67,9.35-16.27,15.17-28.81,17.45v84.68h38.82v18.18H56.91Zm18.18-206.23h59v-91.05h-59s0,91.05,0,91.05Zm29.5,86.05c8.06,0,14.99-2.99,20.8-8.96,5.8-5.97,8.7-12.9,8.7-20.77v-38.14h-59v38.14c0,7.87,2.9,14.79,8.7,20.77,5.8,5.97,12.73,8.96,20.8,8.96Zm161.41,120.18c-4.7,0-8.91-1.85-12.62-5.56-3.71-3.71-5.56-7.92-5.56-12.62v-232.91c0-3.92,1.18-7.11,3.55-9.57,2.36-2.47,5.52-4.56,9.45-6.29l22-9.14c12.48-4.94,21.88-11,28.18-18.18,6.3-7.18,9.45-18.36,9.45-33.55V62.68c0-4.78,1.48-8.76,4.44-11.93,2.96-3.17,7.01-4.75,12.15-4.75h27.82c4.76,0,8.71,1.58,11.86,4.75,3.15,3.17,4.73,7.14,4.73,11.93v75.5c0,15.19,3.49,26.37,10.48,33.55,6.98,7.18,16.57,13.24,28.75,18.18l22.45,9.14c3.85,1.66,6.8,3.74,8.86,6.25,2.06,2.5,3.09,5.71,3.09,9.62v232.91c0,4.7-1.85,8.91-5.56,12.62-3.71,3.71-7.92,5.56-12.62,5.56h-170.91Zm72.64-375.36h24.64v-26.45h-24.64v26.45Zm-72.64,182.86h170.91v-58.59l-23.45-8.55c-15.45-5.61-27.68-13.74-36.68-24.41-9-10.67-13.5-25.74-13.5-45.23v-27.91h-24.64v27.91c0,19.49-4.43,34.27-13.3,44.36-8.86,10.09-20.63,18.03-35.3,23.82l-24.05,10.23s0,58.36,0,58.36Zm0,174.32h170.91v-69.05h-170.91v69.05Zm0-87.23h170.91v-68.91h-170.91v68.91Zm0,0v-68.91,68.91Z"></path>
</symbol>
</svg>