<svg width="500" height="500" viewBox="0 0 500 500" fill="none" xmlns="http://www.w3.org/2000/svg">
<g id="shushi-1">

<path id="path502" d="M250 458.691C210.194 458.691 171.322 455.067 137.583 448.198L137.317 448.149L116.469 443.311L116.187 443.241C40.8203 423.401 25 393.506 25 371.924V128.767C25 93.9444 65.1381 73.5469 98.8094 62.5666C139.486 49.3067 193.18 41.9999 250 41.9999C306.82 41.9999 360.514 49.3067 401.191 62.5666C434.862 73.5469 475 93.9444 475 128.767V371.924C475 406.756 434.862 427.154 401.191 438.134C360.515 451.394 306.82 458.691 250 458.691Z" fill="white"/>
<path id="path504" d="M250 441.569C211.323 441.569 173.63 438.065 140.997 431.425L120.625 426.697C70.7089 413.556 42.1265 393.607 42.1265 371.925V128.767C42.1265 109.614 64.1427 91.8845 104.117 78.8536C143.126 66.1313 194.935 59.133 250 59.133C305.065 59.133 356.875 66.1313 395.883 78.8536C435.859 91.8845 457.874 109.614 457.874 128.767V371.925C457.874 391.088 435.859 408.818 395.883 421.849C356.875 434.571 305.066 441.569 250 441.569Z" fill="#FA8B6B"/>
<path id="path506" d="M250 56.3448C194.649 56.3448 142.534 63.4028 103.255 76.2048C83.8137 82.5461 68.4633 89.9923 57.6294 98.3345C45.4954 107.692 39.3433 117.926 39.3433 128.767V371.924C39.3433 384.189 47.1449 395.607 62.5321 405.88C76.3365 415.089 95.6172 422.993 119.837 429.364L119.916 429.384L119.996 429.404L140.294 434.112L140.368 434.132L140.442 434.142C173.255 440.822 211.139 444.356 250 444.356C305.351 444.356 357.466 437.298 396.746 424.496C416.187 418.155 431.537 410.708 442.372 402.366C454.505 393.009 460.657 382.775 460.657 371.924V128.767C460.657 117.926 454.505 107.692 442.372 98.3345C431.537 89.9923 416.187 82.5461 396.746 76.2048C357.466 63.4028 305.351 56.3448 250 56.3448ZM250 61.9096C363.267 61.9096 455.091 91.8439 455.091 128.767V371.924C455.091 408.857 363.267 438.781 250 438.781C210.181 438.781 173.009 435.088 141.552 428.687L121.254 423.978C74.695 411.724 44.91 392.949 44.91 371.924V128.767C44.91 91.8439 136.734 61.9096 250 61.9096Z" fill="black"/>
<path id="path508" d="M432.635 98.3256C434.303 101.76 435.179 105.274 435.179 108.858V352.016C435.179 388.938 343.355 418.872 230.089 418.872C190.269 418.872 153.098 415.179 121.64 408.778L101.342 404.07C79.0602 398.206 60.6347 390.849 47.4624 382.467C55.5736 399.162 82.632 413.815 121.254 423.979L141.552 428.698C173.009 435.089 210.181 438.782 250 438.782C363.267 438.782 455.091 408.858 455.091 371.935V128.768C455.091 117.807 446.991 107.454 432.635 98.3256Z" fill="#F06C5B"/>
<path id="path510" d="M455.09 248.246V256.976C420.816 264.621 390.025 276.308 371.688 279.623C355.611 282.47 347.468 278.22 336.418 272.476C325.916 266.851 313.959 232.258 300.181 232.178C284.015 232.019 265.121 266.513 251.633 273.163C237.646 279.783 227.611 286.054 214.829 284.033C184.547 278.578 129.495 266.821 94.913 262.272C76.6548 259.564 58.8694 257.533 44.9097 232.815V216.28C69.2882 236.987 70.428 243.517 84.544 245.279C120.043 249.291 172.939 258.967 207.513 263.934C221.937 265.786 233.873 259.485 249.582 252.954C264.813 246.404 285.269 212.159 302.959 212.657C318.041 213.025 331.889 248.076 344.561 254.408C357.761 260.848 368.353 266.035 386.282 264.173C402.548 262.362 427.316 254.826 455.09 248.246Z" fill="#F9B39A"/>
<path id="path512" d="M455.09 332.036V340.756C420.816 348.411 390.025 379.998 371.688 383.323C355.611 386.16 347.468 381.919 336.418 376.175C325.916 370.551 312.507 367.405 298.729 367.335C282.562 367.176 265.121 370.212 251.633 376.852C237.646 383.482 227.611 389.754 214.829 387.733C184.547 382.268 129.495 370.511 94.913 365.962C76.6548 363.254 58.8694 351.278 44.9097 326.56V310.025C51.903 331.797 49.9737 338.397 84.544 348.979C118.63 359.411 172.939 362.667 207.513 367.634C221.937 369.486 233.873 363.184 249.582 356.644C264.813 350.104 283.817 347.316 301.506 347.804C316.588 348.182 331.889 351.776 344.561 358.107C357.761 364.548 368.353 369.735 386.282 367.863C402.548 366.061 427.316 338.616 455.09 332.036Z" fill="#F9B39A"/>
<path id="path514" d="M455.09 302.36V311.091C420.816 318.736 390.025 330.423 371.688 333.748C355.611 336.585 333.387 328.153 301.57 328.591C271.678 328.999 227.611 340.169 214.829 338.158C184.547 332.693 127.385 309.349 92.8016 304.799C74.5443 302.091 53.4629 292.346 44.9097 280.28V271.062C49.2181 281.923 72.8829 285.955 86.9989 287.717C122.498 291.728 172.939 313.082 207.513 318.049C221.937 319.901 255.494 307.447 301.57 308.054C332.964 308.462 368.353 320.159 386.282 318.288C402.548 316.486 427.316 308.94 455.09 302.36Z" fill="#F9B39A"/>
<path id="path516" d="M249.999 180.92C198.676 180.92 150.379 174.908 114.006 164.007C76.3465 152.718 55.6055 137.169 55.6055 120.216C55.6055 103.253 76.3465 87.703 114.006 76.4142C150.379 65.5136 198.676 59.5009 249.999 59.5009C301.323 59.5009 349.621 65.5136 385.994 76.4142C423.654 87.703 444.394 103.253 444.394 120.216C444.394 137.169 423.654 152.718 385.994 164.007C349.621 174.908 301.323 180.92 249.999 180.92Z" fill="white"/>
<path id="path518" d="M250 56.0168C198.346 56.0168 149.695 62.0793 113.005 73.0695C73.1746 85.0154 52.1211 101.311 52.1211 120.216C52.1211 139.11 73.1746 155.406 113.005 167.352C149.695 178.342 198.346 184.405 250 184.405C301.652 184.405 350.304 178.342 386.994 167.352C426.824 155.406 447.878 139.11 447.878 120.216C447.878 101.311 426.824 85.0154 386.994 73.0695C350.304 62.0793 301.653 56.0168 250 56.0168ZM250 62.9852C355.436 62.9852 440.91 88.6091 440.91 120.216C440.91 151.813 355.436 177.436 250 177.436C144.563 177.436 59.0895 151.813 59.0895 120.216C59.0895 88.6091 144.563 62.9852 250 62.9852Z" fill="black"/>
<path id="path520" d="M68.6943 138.175C81.1688 103.034 180.389 75.6582 300.945 75.6582C331.744 75.6582 361.149 77.4501 388.073 80.6954C353.31 69.7848 304.303 62.9857 250 62.9857C144.563 62.9857 59.0898 88.6095 59.0898 120.216C59.0898 126.488 62.4646 132.53 68.6943 138.175Z" fill="#DBDBDB"/>
<path id="path522" d="M225.277 159.617C220.898 159.617 216.521 159.547 212.267 159.388C207.543 159.219 202.964 158.96 198.657 158.631C195.392 158.382 192.032 158.064 188.39 157.666C187.245 157.526 186.122 157.397 185.009 157.257C183.595 157.078 182.198 156.899 180.82 156.7L178.463 156.352L178.703 153.982C178.775 153.266 178.809 152.678 178.809 152.131C178.8 144.446 173.987 138.184 168.078 138.184C163.049 138.194 158.641 142.823 157.57 149.194L157.103 151.971L154.402 151.165C153.698 150.956 153.014 150.737 152.331 150.528C151.895 150.379 151.54 150.269 151.182 150.15C150.651 149.98 150.133 149.801 149.626 149.632L148.097 149.084L145.6 148.169L146.68 145.74C147.244 144.465 147.538 143.042 147.531 141.618C147.531 137.248 144.793 133.565 141.553 133.565C138.961 133.575 136.615 135.924 135.84 139.289L134.954 143.122L131.869 140.673C131.331 140.245 130.822 139.816 130.342 139.398C130.203 139.289 130.075 139.169 129.959 139.05C129.492 138.612 129.112 138.234 128.768 137.865C128.56 137.646 128.333 137.397 128.116 137.149C127.92 136.91 127.746 136.701 127.569 136.482C127.569 136.482 127.459 136.342 127.442 136.322C127.255 136.073 127.085 135.844 126.914 135.596C126.793 135.436 126.658 135.237 126.527 135.038L126.455 134.959L126.313 134.71L126.218 134.54C126.11 134.361 126.005 134.192 125.906 134.003C125.759 133.744 125.606 133.455 125.468 133.147C125.349 132.908 125.215 132.609 125.104 132.32C125.002 132.082 124.892 131.783 124.792 131.484C124.698 131.196 124.616 130.917 124.545 130.648C124.456 130.32 124.4 130.051 124.349 129.782C124.293 129.533 124.251 129.244 124.212 128.966L124.2 128.856C124.164 128.538 124.13 128.219 124.119 127.891C123.631 117.975 133.967 110.012 154.843 104.248L156.197 103.889C158.555 103.262 160.953 102.675 163.327 102.147C163.488 102.107 163.653 102.078 163.812 102.038C165.327 101.699 166.825 101.391 168.262 101.112C173.342 100.097 178.936 99.1508 184.872 98.3146C190.346 97.5381 196.206 96.8313 202.289 96.2042C205.712 95.8557 209.319 95.5173 213.312 95.1788C215.954 94.9598 218.633 94.7607 221.341 94.5716C221.502 94.5616 221.678 94.5517 221.852 94.5517C223.885 94.5517 225.82 95.4476 227.163 97.0005L268.893 145.939C270.575 147.91 271.035 150.637 270.094 153.046C269.154 155.466 266.973 157.158 264.404 157.466C261.752 157.785 259.05 158.064 256.366 158.313C252.403 158.671 248.441 158.95 244.585 159.139C238.101 159.457 231.606 159.617 225.277 159.617Z" fill="#98B15D"/>
<path id="path524" d="M221.852 92.063C221.614 92.063 221.375 92.073 221.136 92.0929C218.14 92.3019 215.504 92.501 213.108 92.7001C209.092 93.0386 205.471 93.3771 202.031 93.7354C195.928 94.3526 190.037 95.0694 184.524 95.8459C178.545 96.692 172.905 97.6477 167.758 98.6731C166.344 98.9418 164.823 99.2604 163.268 99.6088H163.257C163.088 99.6486 162.915 99.6885 162.746 99.7283C160.351 100.266 157.937 100.853 155.566 101.48L155.453 101.51C155.03 101.62 154.608 101.739 154.193 101.849C144.004 104.656 136.449 107.861 131.086 111.654C124.518 116.293 121.337 121.798 121.633 128.02C121.65 128.458 121.693 128.846 121.728 129.155L121.735 129.215L121.744 129.284C121.778 129.533 121.824 129.882 121.908 130.27C121.959 130.529 122.018 130.837 122.111 131.176L122.125 131.225L122.131 131.255L122.138 131.275C122.219 131.594 122.314 131.912 122.411 132.211L122.421 132.241L122.431 132.271C122.543 132.609 122.67 132.948 122.808 133.286C122.954 133.654 123.11 133.993 123.223 134.222C123.376 134.56 123.544 134.889 123.739 135.227C123.851 135.436 123.97 135.635 124.09 135.835L124.165 135.964C124.229 136.074 124.299 136.183 124.374 136.293C124.527 136.531 124.698 136.78 124.899 137.059C125.002 137.208 125.103 137.348 125.209 137.487L125.252 137.577L125.502 137.885L125.626 138.045C125.816 138.283 126.006 138.502 126.208 138.741C126.465 139.04 126.711 139.309 126.967 139.578C127.335 139.976 127.736 140.384 128.218 140.832C128.381 140.991 128.555 141.15 128.738 141.3C129.24 141.748 129.772 142.186 130.324 142.624L136.495 147.512L138.265 139.846C138.762 137.686 140.175 136.064 141.551 136.054C143.199 136.054 145.042 138.423 145.042 141.598C145.048 142.703 144.828 143.779 144.406 144.724L142.246 149.582L147.238 151.424C147.552 151.533 147.865 151.643 148.181 151.762L148.742 151.961L148.783 151.971L148.824 151.991C149.339 152.161 149.866 152.34 150.403 152.509C150.759 152.628 151.102 152.738 151.453 152.857L151.525 152.887L151.597 152.907C152.286 153.116 152.975 153.335 153.685 153.544L159.09 155.167L160.025 149.602C160.893 144.436 164.271 140.683 168.056 140.673C172.538 140.673 176.313 145.929 176.32 152.141C176.32 152.589 176.29 153.096 176.227 153.733L175.746 158.472L180.459 159.159C181.827 159.358 183.182 159.537 184.685 159.726C185.819 159.876 186.952 160.005 188.095 160.134C191.784 160.543 195.175 160.861 198.48 161.11C202.803 161.438 207.416 161.697 212.175 161.877C216.463 162.026 220.872 162.105 225.281 162.105C231.651 162.105 238.187 161.946 244.706 161.628C248.603 161.429 252.597 161.15 256.583 160.791C259.309 160.543 262.034 160.254 264.689 159.945C268.187 159.517 271.139 157.218 272.413 153.952C273.687 150.687 273.065 146.994 270.788 144.326L229.066 95.3979C227.232 93.2676 224.609 92.063 221.852 92.063ZM221.852 97.0405C223.165 97.0405 224.416 97.6278 225.278 98.6233L266.999 147.551C269.349 150.309 267.686 154.56 264.102 154.998C261.504 155.306 258.856 155.585 256.138 155.834C252.365 156.172 248.473 156.451 244.461 156.65C237.938 156.979 231.529 157.128 225.281 157.128C220.889 157.128 216.577 157.058 212.357 156.899C207.738 156.73 203.228 156.481 198.848 156.143C195.364 155.884 191.969 155.555 188.664 155.187C187.539 155.057 186.424 154.928 185.319 154.789C183.926 154.609 182.542 154.43 181.178 154.231C181.248 153.544 181.298 152.847 181.298 152.131C181.288 143.062 175.371 135.695 168.078 135.695C168.067 135.695 168.058 135.695 168.048 135.695C161.677 135.705 156.371 141.31 155.116 148.776C154.419 148.567 153.743 148.358 153.066 148.149C152.687 148.019 152.319 147.9 151.951 147.78C151.433 147.611 150.925 147.442 150.428 147.273C149.93 147.094 149.442 146.924 148.954 146.745C149.631 145.222 150.029 143.47 150.019 141.598C150.019 135.795 146.225 131.076 141.552 131.076C141.548 131.076 141.543 131.076 141.538 131.076C137.675 131.086 134.43 134.321 133.415 138.721C132.887 138.303 132.389 137.885 131.921 137.467C131.852 137.417 131.782 137.358 131.722 137.288C131.324 136.92 130.946 136.551 130.597 136.173C130.388 135.954 130.189 135.735 130 135.516C129.831 135.317 129.672 135.128 129.512 134.929C129.492 134.899 129.463 134.869 129.453 134.849C129.273 134.62 129.114 134.401 128.955 134.172C128.796 133.953 128.636 133.724 128.497 133.495C128.487 133.485 128.477 133.475 128.467 133.455C128.338 133.236 128.208 133.027 128.089 132.808C127.959 132.579 127.84 132.35 127.73 132.111C127.621 131.882 127.511 131.644 127.422 131.415C127.322 131.176 127.233 130.937 127.153 130.698C127.083 130.479 127.014 130.25 126.954 130.021C126.944 129.981 126.934 129.941 126.924 129.901C126.864 129.692 126.825 129.473 126.785 129.264C126.735 129.045 126.705 128.826 126.675 128.607C126.645 128.339 126.616 128.07 126.606 127.801C126.158 118.682 137.028 111.744 155.505 106.647C155.943 106.527 156.391 106.408 156.839 106.289C159.098 105.691 161.458 105.114 163.926 104.566C164.066 104.526 164.215 104.497 164.354 104.467C165.778 104.148 167.241 103.84 168.735 103.551C173.861 102.526 179.376 101.6 185.22 100.774C190.715 99.9971 196.499 99.3002 202.541 98.683C206.115 98.3147 209.779 97.9762 213.522 97.6576C216.15 97.4386 218.818 97.2395 221.515 97.0504C221.628 97.0404 221.74 97.0405 221.852 97.0405Z" fill="black"/>
<path id="path526" d="M296.158 149.742C292.881 149.742 289.766 148.487 287.386 146.228L238.435 99.5791C237.499 98.6832 237.038 97.4289 237.171 96.1447C237.301 94.8804 237.992 93.7754 239.064 93.1084C239.565 92.7998 240.059 92.6405 240.574 92.6306C249.834 92.2622 257.819 91.9736 264.962 91.7645C276.7 91.4161 286.619 91.2469 295.287 91.2469C335.103 91.2469 354.057 94.8406 360.711 103.651C361.012 104.049 361.291 104.467 361.539 104.895C362.535 106.577 363.105 108.459 363.226 110.47C363.77 119.559 355.717 128.727 340.547 136.293C339.377 136.87 338.152 137.457 336.905 138.015C331.131 140.623 324.507 143.002 317.213 145.083C311.414 146.735 305.142 148.229 298.575 149.513C297.779 149.662 296.967 149.742 296.158 149.742Z" fill="#98B15D"/>
<path id="path528" d="M295.291 88.7582V93.7356L295.289 88.7582C286.591 88.7582 276.648 88.9274 264.887 89.2759C257.803 89.4849 249.808 89.7736 240.448 90.1419C239.542 90.1718 238.625 90.4605 237.759 90.9881C236.022 92.0632 234.907 93.8451 234.696 95.8859C234.485 97.9167 235.241 99.9674 236.719 101.381L242.767 107.135L285.669 148.029C288.513 150.737 292.238 152.23 296.157 152.23C297.126 152.23 298.1 152.131 299.05 151.952C305.688 150.658 312.029 149.154 317.897 147.472C325.306 145.362 332.046 142.943 337.927 140.285C339.208 139.707 340.462 139.11 341.655 138.523C357.776 130.479 366.317 120.464 365.709 110.32C365.566 107.911 364.88 105.652 363.67 103.611C363.388 103.123 363.054 102.625 362.693 102.147C355.513 92.6406 335.984 88.7582 295.291 88.7582ZM295.284 93.7356C329.953 93.7356 352.164 96.4633 358.725 105.154C358.971 105.482 359.191 105.811 359.389 106.149C360.19 107.503 360.643 108.987 360.741 110.619C361.212 118.473 353.923 126.846 339.436 134.063C338.296 134.63 337.108 135.198 335.879 135.755C330.329 138.254 323.872 140.593 316.53 142.684C310.9 144.296 304.75 145.77 298.098 147.064C297.453 147.193 296.802 147.253 296.157 147.253C293.555 147.253 291.022 146.248 289.103 144.426L246.201 103.531L240.151 97.7773C239.392 97.0506 239.481 95.7764 240.374 95.2289C240.484 95.1592 240.578 95.1193 240.646 95.1094C249.176 94.7709 257.31 94.4823 265.035 94.2533C275.957 93.9248 286.064 93.7356 295.284 93.7356Z" fill="black"/>
<path id="path530" d="M339.437 134.063C338.546 134.511 337.625 134.949 336.679 135.387C336.249 135.586 335.744 135.377 335.568 134.929C329.501 119.598 309.596 101.6 260.634 103.053C256.077 103.193 251.382 103.342 246.548 103.521C246.327 103.531 246.111 103.452 245.952 103.292L240.162 97.7774C239.4 97.0607 239.486 95.7864 240.376 95.229C240.485 95.1593 240.579 95.1194 240.647 95.1095C249.177 94.771 257.311 94.4824 265.036 94.2534C317.024 92.7004 350.419 94.1538 358.726 105.154C358.971 105.482 359.191 105.811 359.389 106.149C360.191 107.503 360.644 108.987 360.741 110.619C361.212 118.474 353.923 126.846 339.437 134.063Z" fill="#749946"/>
<path id="path532" d="M264.106 154.998C261.508 155.307 258.86 155.586 256.142 155.834L213.525 97.6582C216.153 97.4392 218.821 97.2401 221.519 97.0509C222.953 96.9414 224.346 97.5388 225.282 98.6238L267.003 147.552C269.352 150.31 267.69 154.56 264.106 154.998Z" fill="#749946"/>
<path id="path534" d="M212.357 156.9C207.738 156.731 203.228 156.482 198.848 156.143C195.364 155.884 191.969 155.556 188.664 155.188C187.539 155.058 186.424 154.929 185.319 154.789C183.926 154.61 182.542 154.431 181.178 154.232C181.248 153.545 181.298 152.848 181.298 152.132C181.288 143.043 175.355 135.676 168.048 135.696C161.677 135.706 156.371 141.311 155.116 148.777C154.42 148.568 153.743 148.359 153.066 148.15C152.687 148.02 152.319 147.901 151.951 147.781C151.433 147.612 150.925 147.443 150.428 147.274C149.93 147.094 149.442 146.925 148.954 146.746C149.631 145.223 150.029 143.471 150.019 141.599C150.019 135.786 146.217 131.067 141.538 131.077C137.675 131.087 134.43 134.322 133.415 138.722C132.887 138.304 132.389 137.886 131.922 137.468C131.852 137.418 131.782 137.358 131.722 137.289C131.324 136.92 130.946 136.552 130.598 136.174C130.388 135.955 130.189 135.736 130 135.517C129.831 135.318 129.672 135.129 129.512 134.929C129.493 134.9 129.463 134.87 129.453 134.85C129.274 134.621 129.114 134.402 128.955 134.173C128.796 133.954 128.636 133.725 128.497 133.496C128.487 133.486 128.477 133.476 128.467 133.456C128.338 133.237 128.208 133.028 128.089 132.809C127.959 132.58 127.84 132.351 127.731 132.112C127.621 131.883 127.512 131.644 127.422 131.415C127.322 131.177 127.233 130.938 127.153 130.699C127.083 130.48 127.014 130.251 126.954 130.022C126.944 129.982 126.934 129.942 126.924 129.902C126.864 129.693 126.825 129.474 126.785 129.265C126.735 129.046 126.705 128.827 126.675 128.608C126.645 128.339 126.616 128.071 126.606 127.802C126.158 118.683 137.028 111.745 155.505 106.648C155.943 106.528 156.391 106.409 156.839 106.289C159.098 105.692 161.458 105.115 163.926 104.567C163.926 111.555 167.51 120.993 185.22 124.766C205.787 129.136 211.063 146.597 212.357 156.9Z" fill="#749946"/>
<path id="path536" d="M102.505 93.7358C95.1967 93.7457 89.2825 101.132 89.2945 110.231C89.3064 119.32 95.2395 126.686 102.547 126.666C109.854 126.657 115.768 119.27 115.756 110.171C115.746 101.082 109.811 93.7159 102.505 93.7358Z" fill="white"/>
<path id="path538" d="M116.818 89.1168C112.141 89.1267 108.355 93.8553 108.363 99.6789C108.37 105.502 112.168 110.211 116.846 110.201C121.523 110.191 125.308 105.463 125.301 99.639C125.294 93.8254 121.496 89.1068 116.818 89.1168Z" fill="white"/>
<path id="path540" d="M419.744 126.288C419.744 128.986 409.255 131.166 396.318 131.166C383.381 131.166 372.893 128.986 372.893 126.288C372.893 123.59 383.381 121.41 396.318 121.41C409.255 121.41 419.744 123.59 419.744 126.288Z" fill="white"/>
<path id="path542" d="M419.744 126.288C419.744 128.986 409.255 131.166 396.318 131.166C383.381 131.166 372.893 128.986 372.893 126.288C372.893 123.59 383.381 121.41 396.318 121.41C409.255 121.41 419.744 123.59 419.744 126.288Z" stroke="black" stroke-width="6.39112" stroke-miterlimit="10"/>

</g>
</svg>
