<svg width="65" height="65" viewBox="0 0 65 65" fill="none" xmlns="http://www.w3.org/2000/svg">
<path d="M7 1H26V26H1V7C1 3.68629 3.68629 1 7 1Z" stroke="#BBBBBB" stroke-width="2"/>
<rect x="8" y="8" width="11" height="11" rx="2" fill="#BBBBBB"/>
<rect x="46" y="8" width="11" height="11" rx="2" fill="#BBBBBB"/>
<rect x="8" y="46" width="11" height="11" rx="2" fill="#BBBBBB"/>
<rect x="57" y="38" width="8" height="8" rx="1" fill="#BBBBBB"/>
<rect x="48" y="57" width="8" height="8" rx="1" fill="#BBBBBB"/>
<rect x="57" y="47" width="8" height="8" rx="1" fill="#BBBBBB"/>
<rect x="38" y="38" width="8" height="8" rx="1" fill="#BBBBBB"/>
<rect x="38" y="57" width="8" height="8" rx="1" fill="#BBBBBB"/>
<rect x="48" y="47" width="8" height="8" rx="1" fill="#BBBBBB"/>
<path d="M39 1H58C61.3137 1 64 3.68629 64 7V26H39V1Z" stroke="#BBBBBB" stroke-width="2"/>
<path d="M1 39H26V64H7C3.68629 64 1 61.3137 1 58V39Z" stroke="#BBBBBB" stroke-width="2"/>
</svg>
