<svg width="71" height="71" viewBox="0 0 71 71" fill="none" xmlns="http://www.w3.org/2000/svg">
<circle cx="35.5" cy="35.5" r="34" stroke="#BBBBBB" stroke-width="3"/>
<path d="M35.0923 10.9231C35.0923 11.7515 35.7639 12.4231 36.5923 12.4231C37.4207 12.4231 38.0923 11.7515 38.0923 10.9231L35.0923 10.9231ZM35.0923 1.09229L35.0923 10.9231L38.0923 10.9231L38.0923 1.09229L35.0923 1.09229Z" fill="#BBBBBB"/>
<path d="M38.0923 16.3848C38.0923 15.5563 37.4207 14.8848 36.5923 14.8848C35.7639 14.8848 35.0923 15.5563 35.0923 16.3848L38.0923 16.3848ZM35.0923 16.3848L35.0923 36.0463L38.0923 36.0463L38.0923 16.3848L35.0923 16.3848Z" fill="#BBBBBB"/>
<path d="M51.6135 49.4599C52.271 49.964 53.2126 49.8396 53.7166 49.1822C54.2206 48.5247 54.0963 47.5832 53.4388 47.0791L51.6135 49.4599ZM53.4388 47.0791L37.0542 34.5176L35.2289 36.8984L51.6135 49.4599L53.4388 47.0791Z" fill="#BBBBBB"/>
<path d="M38.0923 61.1692C38.0923 60.3408 37.4207 59.6692 36.5923 59.6692C35.7639 59.6692 35.0923 60.3408 35.0923 61.1692L38.0923 61.1692ZM35.0923 61.1692L35.0923 71L38.0923 71L38.0923 61.1692L35.0923 61.1692Z" fill="#BBBBBB"/>
<path d="M9.83077 35.9077C10.6592 35.9077 11.3308 35.2361 11.3308 34.4077C11.3308 33.5793 10.6592 32.9077 9.83077 32.9077V35.9077ZM0 35.9077H9.83077V32.9077H0V35.9077Z" fill="#BBBBBB"/>
<path d="M61.1692 34.5461C60.3408 34.5461 59.6692 35.2177 59.6692 36.0461C59.6692 36.8746 60.3408 37.5461 61.1692 37.5461V34.5461ZM61.1692 37.5461H71V34.5461H61.1692V37.5461Z" fill="#BBBBBB"/>
</svg>
