<svg width="54" height="51" viewBox="0 0 54 51" fill="none" xmlns="http://www.w3.org/2000/svg">
<path d="M14.2882 21.5169C11.948 21.5169 10.0509 19.7336 10.0509 17.5338V13.5508H18.5255V17.5338C18.5255 19.7336 16.6283 21.5169 14.2882 21.5169Z" stroke="black" stroke-width="4" stroke-miterlimit="10" stroke-linecap="round" stroke-linejoin="round"/>
<path d="M14.2881 21.5168V29.4829" stroke="black" stroke-width="4" stroke-miterlimit="10" stroke-linecap="round" stroke-linejoin="round"/>
<path d="M10.0509 29.4832H18.5255" stroke="black" stroke-width="4" stroke-miterlimit="10" stroke-linecap="round" stroke-linejoin="round"/>
<path d="M10.0509 37.4492H18.5255" stroke="black" stroke-width="4" stroke-miterlimit="10" stroke-linecap="round" stroke-linejoin="round"/>
<path d="M52 5.98305V45.0169C52 47.2076 50.0932 49 47.7627 49H31.2373C28.9068 49 27 47.2076 27 45.0169C27 47.2076 25.0932 49 22.7627 49H6.23729C3.90678 49 2 47.2076 2 45.0169V5.98305C2 3.79237 3.90678 2 6.23729 2H22.7627C25.0932 2 27 3.79237 27 5.98305C27 3.79237 28.9068 2 31.2373 2H47.7627C50.0932 2 52 3.79237 52 5.98305Z" stroke="black" stroke-width="4" stroke-miterlimit="10" stroke-linecap="round" stroke-linejoin="round"/>
<path d="M14.2882 21.5169C11.948 21.5169 10.0509 19.7336 10.0509 17.5338V13.5508H18.5255V17.5338C18.5255 19.7336 16.6283 21.5169 14.2882 21.5169Z" stroke="black" stroke-width="4" stroke-miterlimit="10" stroke-linecap="round" stroke-linejoin="round"/>
<path d="M14.2881 21.5168V29.4829" stroke="black" stroke-width="4" stroke-miterlimit="10" stroke-linecap="round" stroke-linejoin="round"/>
<path d="M10.0509 29.4832H18.5255" stroke="black" stroke-width="4" stroke-miterlimit="10" stroke-linecap="round" stroke-linejoin="round"/>
<path d="M10.0509 37.4492H18.5255" stroke="black" stroke-width="4" stroke-miterlimit="10" stroke-linecap="round" stroke-linejoin="round"/>
<path d="M52 5.98305V45.0169C52 47.2076 50.0932 49 47.7627 49H31.2373C28.9068 49 27 47.2076 27 45.0169C27 47.2076 25.0932 49 22.7627 49H6.23729C3.90678 49 2 47.2076 2 45.0169V5.98305C2 3.79237 3.90678 2 6.23729 2H22.7627C25.0932 2 27 3.79237 27 5.98305C27 3.79237 28.9068 2 31.2373 2H47.7627C50.0932 2 52 3.79237 52 5.98305Z" stroke="black" stroke-width="4" stroke-miterlimit="10" stroke-linecap="round" stroke-linejoin="round"/>
<path d="M29.0576 30.5508C30.21 31.1172 31.4404 31.5322 32.749 31.7959C34.0674 32.0498 35.3516 32.1768 36.6016 32.1768C37.7148 32.1768 38.6768 32.0889 39.4873 31.9131C40.2979 31.7275 40.9668 31.4785 41.4941 31.166C42.0215 30.8535 42.4121 30.4824 42.666 30.0527C42.9199 29.623 43.0469 29.1592 43.0469 28.6611C43.0469 27.9873 42.8174 27.3867 42.3584 26.8594C41.8994 26.3223 41.2012 25.9219 40.2637 25.6582C39.3359 25.3848 38.1592 25.2773 36.7334 25.3359C35.3174 25.3945 33.6475 25.6729 31.7236 26.1709L31.7383 22.7432L40.293 17.1768H28.1787V13.1045H46.5039V17.0889L38.9746 21.8643C40.3516 21.8643 41.582 22.04 42.666 22.3916C43.75 22.7432 44.6631 23.2266 45.4053 23.8418C46.1475 24.457 46.7139 25.1846 47.1045 26.0244C47.4951 26.8643 47.6904 27.7676 47.6904 28.7344C47.6904 29.877 47.4365 30.917 46.9287 31.8545C46.4307 32.7822 45.7031 33.5781 44.7461 34.2422C43.7891 34.8965 42.6172 35.4043 41.2305 35.7656C39.8535 36.127 38.291 36.3076 36.543 36.3076C34.6875 36.3076 32.9736 36.1123 31.4014 35.7217C29.8291 35.3213 28.335 34.7695 26.9189 34.0664L29.0576 30.5508Z" fill="black"/>
</svg>
