<svg width="54" height="51" viewBox="0 0 54 51" fill="none" xmlns="http://www.w3.org/2000/svg">
<path d="M14.2882 21.5169C11.948 21.5169 10.0509 19.7336 10.0509 17.5338V13.5508H18.5255V17.5338C18.5255 19.7336 16.6283 21.5169 14.2882 21.5169Z" stroke="black" stroke-width="4" stroke-miterlimit="10" stroke-linecap="round" stroke-linejoin="round"/>
<path d="M14.2881 21.5168V29.4829" stroke="black" stroke-width="4" stroke-miterlimit="10" stroke-linecap="round" stroke-linejoin="round"/>
<path d="M10.0509 29.4832H18.5255" stroke="black" stroke-width="4" stroke-miterlimit="10" stroke-linecap="round" stroke-linejoin="round"/>
<path d="M10.0509 37.4492H18.5255" stroke="black" stroke-width="4" stroke-miterlimit="10" stroke-linecap="round" stroke-linejoin="round"/>
<path d="M52 5.98305V45.0169C52 47.2076 50.0932 49 47.7627 49H31.2373C28.9068 49 27 47.2076 27 45.0169C27 47.2076 25.0932 49 22.7627 49H6.23729C3.90678 49 2 47.2076 2 45.0169V5.98305C2 3.79237 3.90678 2 6.23729 2H22.7627C25.0932 2 27 3.79237 27 5.98305C27 3.79237 28.9068 2 31.2373 2H47.7627C50.0932 2 52 3.79237 52 5.98305Z" stroke="black" stroke-width="4" stroke-miterlimit="10" stroke-linecap="round" stroke-linejoin="round"/>
<path d="M14.2882 21.5169C11.948 21.5169 10.0509 19.7336 10.0509 17.5338V13.5508H18.5255V17.5338C18.5255 19.7336 16.6283 21.5169 14.2882 21.5169Z" stroke="black" stroke-width="4" stroke-miterlimit="10" stroke-linecap="round" stroke-linejoin="round"/>
<path d="M14.2881 21.5168V29.4829" stroke="black" stroke-width="4" stroke-miterlimit="10" stroke-linecap="round" stroke-linejoin="round"/>
<path d="M10.0509 29.4832H18.5255" stroke="black" stroke-width="4" stroke-miterlimit="10" stroke-linecap="round" stroke-linejoin="round"/>
<path d="M10.0509 37.4492H18.5255" stroke="black" stroke-width="4" stroke-miterlimit="10" stroke-linecap="round" stroke-linejoin="round"/>
<path d="M52 5.98305V45.0169C52 47.2076 50.0932 49 47.7627 49H31.2373C28.9068 49 27 47.2076 27 45.0169C27 47.2076 25.0932 49 22.7627 49H6.23729C3.90678 49 2 47.2076 2 45.0169V5.98305C2 3.79237 3.90678 2 6.23729 2H22.7627C25.0932 2 27 3.79237 27 5.98305C27 3.79237 28.9068 2 31.2373 2H47.7627C50.0932 2 52 3.79237 52 5.98305Z" stroke="black" stroke-width="4" stroke-miterlimit="10" stroke-linecap="round" stroke-linejoin="round"/>
<path d="M28.2227 32.0156L36.2939 26.4785C37.5049 25.6484 38.4961 24.9258 39.2676 24.3105C40.0391 23.6953 40.6445 23.1484 41.084 22.6699C41.5234 22.1816 41.8262 21.7422 41.9922 21.3516C42.1582 20.9609 42.2412 20.5703 42.2412 20.1797C42.2412 19.7305 42.1484 19.3105 41.9629 18.9199C41.7773 18.5293 41.4844 18.1875 41.084 17.8945C40.6934 17.6016 40.1855 17.3721 39.5605 17.2061C38.9453 17.04 38.208 16.957 37.3486 16.957C36.0986 16.957 34.8535 17.1328 33.6133 17.4844C32.373 17.8359 31.1084 18.3975 29.8193 19.1689L27.6807 15.6533C29.1162 14.7646 30.6689 14.0713 32.3389 13.5732C34.0186 13.0752 35.7812 12.8262 37.627 12.8262C39.2383 12.8262 40.6348 13.0215 41.8164 13.4121C43.0078 13.793 43.9893 14.3154 44.7607 14.9795C45.542 15.6436 46.123 16.415 46.5039 17.2939C46.8848 18.1729 47.0752 19.1055 47.0752 20.0918C47.0752 20.8535 46.9482 21.5811 46.6943 22.2744C46.4404 22.9678 45.9961 23.6855 45.3613 24.4277C44.7266 25.1699 43.8672 25.9707 42.7832 26.8301C41.709 27.6797 40.3516 28.6465 38.7109 29.7305L35.3711 31.9277H47.9102V36H28.2227V32.0156Z" fill="black"/>
</svg>
