<svg width="54" height="51" viewBox="0 0 54 51" fill="none" xmlns="http://www.w3.org/2000/svg">
<path d="M14.2882 21.5169C11.948 21.5169 10.0509 19.7336 10.0509 17.5338V13.5508H18.5255V17.5338C18.5255 19.7336 16.6283 21.5169 14.2882 21.5169Z" stroke="black" stroke-width="4" stroke-miterlimit="10" stroke-linecap="round" stroke-linejoin="round"/>
<path d="M14.2881 21.5168V29.4829" stroke="black" stroke-width="4" stroke-miterlimit="10" stroke-linecap="round" stroke-linejoin="round"/>
<path d="M10.0509 29.4832H18.5255" stroke="black" stroke-width="4" stroke-miterlimit="10" stroke-linecap="round" stroke-linejoin="round"/>
<path d="M10.0509 37.4492H18.5255" stroke="black" stroke-width="4" stroke-miterlimit="10" stroke-linecap="round" stroke-linejoin="round"/>
<path d="M52 5.98305V45.0169C52 47.2076 50.0932 49 47.7627 49H31.2373C28.9068 49 27 47.2076 27 45.0169C27 47.2076 25.0932 49 22.7627 49H6.23729C3.90678 49 2 47.2076 2 45.0169V5.98305C2 3.79237 3.90678 2 6.23729 2H22.7627C25.0932 2 27 3.79237 27 5.98305C27 3.79237 28.9068 2 31.2373 2H47.7627C50.0932 2 52 3.79237 52 5.98305Z" stroke="black" stroke-width="4" stroke-miterlimit="10" stroke-linecap="round" stroke-linejoin="round"/>
<path d="M32.3877 31.9277H37.5879V17.6748C36.9043 17.8311 36.2451 18.0361 35.6104 18.29C34.9854 18.5439 34.4141 18.8516 33.8965 19.2129L31.6113 15.9463C32.4512 15.4189 33.3057 14.9746 34.1748 14.6133C35.0537 14.2422 35.9375 13.9492 36.8262 13.7344C37.7246 13.5098 38.623 13.3486 39.5215 13.251C40.4297 13.1533 41.333 13.1045 42.2314 13.1045L42.2168 13.1338H42.2314V31.9277H47.1973V36H32.3877V31.9277Z" fill="black"/>
</svg>
