<svg width="65" height="65" viewBox="0 0 65 65" fill="none" xmlns="http://www.w3.org/2000/svg">
<g clip-path="url(#clip0_193_199)">
<mask id="mask0_193_199" style="mask-type:luminance" maskUnits="userSpaceOnUse" x="0" y="0" width="65" height="65">
<path d="M0 7.62939e-06H65V65H0V7.62939e-06Z" fill="white"/>
</mask>
<g mask="url(#mask0_193_199)">
<path d="M55.5483 38.185C57.2694 37.1914 57.8591 34.9906 56.8654 33.2695L39.4393 3.08682C38.4457 1.36571 36.2449 0.776018 34.5238 1.76968C32.8028 2.76334 32.2131 4.96408 33.2068 6.68518L50.6328 36.8679C51.6264 38.589 53.8272 39.1787 55.5483 38.185Z" stroke="#BBBBBB" stroke-width="3" stroke-miterlimit="10" stroke-linecap="round" stroke-linejoin="round"/>
<path d="M17.3648 50.2572C18.8963 49.373 19.4211 47.4147 18.5368 45.8833L9.35141 29.9737C8.46718 28.4421 6.50893 27.9174 4.97737 28.8016C3.44593 29.6859 2.92123 31.6441 3.80546 33.1756L12.9909 49.0852C13.875 50.6168 15.8334 51.1415 17.3648 50.2572Z" stroke="#BBBBBB" stroke-width="3" stroke-miterlimit="10" stroke-linecap="round" stroke-linejoin="round"/>
<path d="M11.4714 47.2088L11.7985 47.02L4.99771 35.2407L4.67068 35.4295C1.41789 37.3075 0.303366 41.4667 2.18138 44.7195C4.0594 47.9723 8.21864 49.0868 11.4714 47.2088Z" stroke="#BBBBBB" stroke-width="3" stroke-miterlimit="10" stroke-linecap="round" stroke-linejoin="round"/>
<path d="M25.3382 14.3616L33.3634 6.95645L50.4763 36.5967L18.8609 46.4446L9.02734 29.4122L16.9422 22.1088" stroke="#BBBBBB" stroke-width="3" stroke-miterlimit="10" stroke-linecap="round" stroke-linejoin="round"/>
<path d="M50.9054 22.947C53.539 21.4265 54.4414 18.0588 52.9209 15.4252C51.4002 12.7915 48.0327 11.8893 45.399 13.4098" stroke="#BBBBBB" stroke-width="3" stroke-miterlimit="10" stroke-linecap="round" stroke-linejoin="round"/>
<path d="M18.8609 46.4446L28.4738 63.0947C28.8152 63.6858 29.5712 63.8884 30.1624 63.5471L36.0077 60.1723C36.7485 59.7446 36.8414 58.7119 36.1889 58.1589L31.7734 54.4165L26.0057 44.4267" stroke="#BBBBBB" stroke-width="3" stroke-miterlimit="10" stroke-linecap="round" stroke-linejoin="round"/>
<path d="M57.3383 12.9202L61.6262 10.4446" stroke="#BBBBBB" stroke-width="3" stroke-miterlimit="10" stroke-linecap="round" stroke-linejoin="round"/>
<path d="M51.1299 7.24512L52.4428 2.34574" stroke="#BBBBBB" stroke-width="3" stroke-miterlimit="10" stroke-linecap="round" stroke-linejoin="round"/>
<path d="M59.0526 21.1471L63.7309 22.4006" stroke="#BBBBBB" stroke-width="3" stroke-miterlimit="10" stroke-linecap="round" stroke-linejoin="round"/>
</g>
</g>
<defs>
<clipPath id="clip0_193_199">
<rect width="65" height="65" fill="white"/>
</clipPath>
</defs>
</svg>
