<svg width="500" height="500" viewBox="0 0 500 500" fill="none" xmlns="http://www.w3.org/2000/svg">
<path d="M464.711 378.4C468.031 376.053 470.844 374.04 473.257 372.32C473.591 365.974 473.684 360.387 470.271 355.573C467.684 358.493 465.124 361.374 461.724 365.214C462.497 368.014 458.791 373.787 464.711 378.4ZM52.2843 376.32C54.2976 375.534 55.7911 375.014 57.2445 374.387C58.4445 373.854 60.1376 373.52 60.6976 372.56C63.4309 367.867 66.2043 363.014 64.8976 357.28C64.5909 355.96 63.0178 354.187 61.7778 353.96C59.0178 353.467 56.0844 354.053 53.2577 353.733C50.4444 353.427 47.6843 352.573 43.6176 351.667C46.4043 356.987 42.8177 360.787 43.9911 365.694C45.3644 371.36 49.751 372.827 52.2843 376.32ZM275.111 137.84C278.604 137.173 281.924 138.08 285.391 139.173C288.391 140.133 291.697 139.467 294.991 140.814C298.071 142.067 301.857 141.013 305.391 142.6C308.551 144.013 311.138 142.333 312.044 139.467C314.124 132.867 316.791 126.573 320.578 120.733C321.711 119.013 322.098 116.8 322.711 115.094C319.271 110.747 315.497 107.547 312.591 103.347C309.511 98.9069 304.338 96.4535 298.485 96.4401C293.791 96.4135 289.151 96.1201 285.271 99.8001C284.058 100.947 281.778 100.88 280.098 101.627C272.938 104.774 265.818 108 257.911 111.547C266.031 119.107 270.911 128.027 275.111 137.84ZM324.031 147.68C328.351 149.614 332.244 151.227 336.031 153.094C344.791 157.44 353.791 161.347 361.951 166.814C364.871 168.76 367.538 171.12 370.564 172.867C373.391 174.493 375.338 173.96 376.938 171.36C379.284 167.52 381.698 163.667 383.538 159.573C387.831 150.013 385.044 137.36 376.538 132.947C368.578 128.827 361.938 122.08 352.671 120.467C347.804 116.427 343.177 119.547 339.324 121.854C335.684 124.04 332.684 127.627 330.911 131.88C328.804 136.987 326.511 142.027 324.031 147.68ZM410.578 209.454C412.071 208.68 413.711 208.214 414.871 207.187C421.578 201.214 428.178 195.134 434.778 189.027C435.764 188.107 436.738 187 437.271 185.787C440.938 177.334 438.924 167.907 432.404 160.973C427.418 155.68 422.538 150.28 417.871 144.707C414.031 140.107 410.711 135.067 406.898 130.44C401.911 124.4 396.071 120.094 387.604 122.827C389.938 125.44 392.471 127.774 394.338 130.547C396.404 133.6 398.578 136.893 399.378 140.4C400.231 144.2 399.578 148.347 399.564 152.347C399.551 155.187 400.364 158.4 399.311 160.814C396.578 167.107 393.471 173.36 389.604 179.014C387.764 181.694 387.444 183.92 387.711 186.48C395.484 194.294 403.124 201.96 410.578 209.454ZM462.138 341.814C474.484 330.467 480.564 316.48 480.138 299.773C480.071 297.147 478.644 294.56 478.564 291.92C478.364 284.974 474.751 279.147 472.151 273.147C469.565 267.187 465.497 261.8 460.324 257.467C459.164 256.493 458.911 254.48 457.791 253.467C456.324 252.133 455.764 250.614 456.257 248.96C456.791 247.227 457.551 244.64 458.818 244.214C461.538 243.307 464.124 240.827 467.764 243.787C470.551 246.054 473.324 247.934 475.138 251.147C475.951 252.6 477.604 253.6 479.404 255.294C479.831 253.507 480.097 252.747 480.191 251.973C480.271 251.133 480.058 250.24 480.231 249.414C482.284 239.187 482.031 239.254 478.657 227.52C477.737 224.32 476.351 221.653 474.898 218.773C471.498 211.96 465.138 208.36 459.618 203.973C456.658 201.613 452.471 200.627 448.698 199.48C446.538 198.827 444.484 199.494 442.724 201.56C439.777 205.027 436.818 208.907 433.004 211.12C427.484 214.32 424.071 219.2 420.191 222.867C423.537 228.6 426.204 233.88 429.538 238.694C436.578 248.814 440.644 260.36 445.844 271.347C447.298 274.44 448.564 277.72 449.244 281.054C450.844 288.894 454.244 296.2 455.578 304.16C456.831 311.587 458.884 318.933 459.457 326.44C459.857 331.653 459.791 336.827 462.138 341.814ZM104.511 170.04C105.738 170.147 106.364 170.04 106.831 170.254C112.124 172.667 117.924 173.787 122.804 177.28C126.684 180.067 131.071 182.147 135.151 184.654C137.284 185.96 139.018 186.2 141.058 184.333C144.324 181.347 147.724 178.494 151.244 175.827C160.044 169.2 169.058 163 178.991 158.014C184.004 155.494 189.164 153.56 194.231 151.294C199.578 148.907 205.111 147.2 210.644 145.373C224.138 140.947 237.964 138.787 252.018 137.654C253.631 137.52 255.271 137.627 257.578 137.627C254.498 128.187 248.884 121.827 241.284 117.054C233.511 112.174 225.244 109.067 215.831 110.16C214.711 110.294 213.551 110.187 212.404 110.173C207.404 110.173 202.778 111.973 198.858 114.64C191.991 119.293 185.564 124.494 181.124 131.894C179.724 134.254 177.578 136.707 174.258 137.787C170.631 138.96 168.484 138.28 166.124 135.467C162.564 131.227 165.578 128.294 167.538 125.36C168.991 123.174 170.911 121.547 168.871 118.787C168.258 119.36 167.578 120.467 167.058 120.387C161.351 119.627 156.431 122.334 151.338 123.96C138.858 127.96 127.778 134.387 118.258 143.507C114.244 147.347 111.578 152.093 108.471 156.573C107.111 158.52 106.924 160.893 105.911 162.333C104.151 164.827 104.698 167.067 104.511 170.04ZM53.7111 240.667C62.2311 232.853 66.831 222.92 70.071 212.32C71.1644 208.747 72.3243 206.147 76.551 205.773C78.8976 205.573 79.4043 205.4 83.671 208.627C84.7643 215.96 83.5377 222.907 80.3377 229.454C78.8177 232.56 76.8709 235.48 74.8976 238.347C73.0309 241.054 71.2045 243.92 68.7778 246.054C66.2045 248.32 65.1909 252.04 61.6976 253.32C62.0176 257.68 56.0844 257.173 55.7377 261C45.1244 267.707 37.3778 277.373 29.9111 287.107C26.1245 292.053 22.9776 298.187 22.2976 304.414C20.1776 324.134 32.2577 335.947 51.7377 338.294C55.9244 338.8 60.231 338.36 64.2044 338.36C67.191 331.427 65.6045 323.987 68.4445 317.387C67.7378 307.654 72.6844 298.987 73.9244 289.547C74.5377 284.867 77.0578 280.067 78.7778 275.347C80.4978 270.64 82.4976 266.027 84.4976 261.427C86.4976 256.827 88.3643 252.12 90.8176 247.76C94.7376 240.774 98.8843 233.88 103.338 227.214C109.298 218.294 115.418 209.467 123.258 201.987C126.071 199.307 125.831 196.16 122.538 194.4C114.604 190.173 106.844 184.96 98.3377 182.547C86.151 179.107 74.0444 178.613 62.271 187C53.5377 193.213 48.7645 204.2 47.9111 212C46.8178 222.027 49.6711 231.387 53.7111 240.667ZM23.5377 342.88C22.9644 347.507 22.7644 350.987 22.071 354.373C19.8177 365.44 19.4977 372.467 22.1911 380.373C24.6844 387.76 28.4177 394.414 35.3377 398.814C41.5244 402.76 49.0043 405.28 55.8176 405.28C176.751 405.28 297.671 405.28 418.604 405.28C420.031 405.28 421.471 405.387 422.885 405.254C430.018 404.627 435.858 401.2 440.431 396C444.058 391.88 447.951 379.16 447.524 373.28C446.924 364.947 445.618 356.694 445.764 348.254C445.884 341.934 446.524 335.614 444.444 329.16C442.991 324.64 444.698 319.254 442.471 314.52C440.391 310.08 440.484 305.12 439.271 300.44C436.951 291.427 429.791 270.24 425.604 262.32C422.991 257.4 420.191 252.574 417.764 247.56C413.364 238.52 407.138 230.72 401.311 222.654C394.511 213.24 386.111 205.187 377.604 197.36C371.591 191.827 364.791 187.133 358.178 182.267C347.818 174.653 336.364 169.187 324.431 164.373C308.231 157.84 291.724 153.44 274.218 153.094C268.791 152.974 263.364 153.067 257.924 153.067C254.218 153.067 250.484 152.853 246.791 153.133C243.564 153.387 240.378 154.747 237.204 154.654C233.498 154.534 230.204 155.654 226.751 156.48C214.858 159.32 203.324 162.947 192.204 168.36C173.911 177.28 157.258 188.294 143.071 202.88C137.404 208.707 131.658 214.414 126.484 220.787C118.418 230.734 111.551 241.28 105.391 252.427C98.0711 265.707 92.911 279.867 87.951 294.094C86.551 298.134 87.1911 303.08 85.1911 306.64C83.0044 310.48 84.3777 314.547 82.5244 318.454C80.8044 322.08 80.9378 327.107 80.7778 331.32C80.3245 342.814 77.4578 354.174 78.7111 365.76C79.1378 369.694 77.4709 373.187 75.6976 376.494C71.2709 384.8 64.6442 389.427 54.8309 389.987C46.1643 390.48 39.3645 386.733 34.8445 380.6C31.0445 375.44 27.6577 369.12 28.871 361.667C29.6177 357.093 28.0576 352.187 31.0176 347.68C28.8043 346.254 26.751 344.947 23.5377 342.88ZM88.3911 165.373C90.1111 160.853 91.1643 156.96 93.0043 153.48C99.791 140.614 109.124 129.947 121.564 122.2C131.058 116.307 140.751 110.96 151.778 108.107C156.751 106.827 161.524 105.134 166.751 104.947C170.244 104.827 173.698 103.667 177.204 103.373C180.604 103.093 184.164 103.854 187.458 103.16C190.751 102.48 193.844 100.694 196.924 99.1869C202.311 96.5469 207.871 94.6801 213.938 94.7335C220.044 94.8001 226.204 94.2402 232.098 96.4535C235.804 97.8402 239.724 98.8402 243.191 100.694C245.138 101.747 245.831 101.027 247.444 100.333C256.911 96.2535 266.204 91.7868 275.604 87.5602C282.391 84.5202 289.124 81.0269 296.898 81.0003C306.018 80.9736 313.964 84.2134 320.404 90.3867C325.644 95.4001 330.111 101.213 334.857 106.6C345.391 103.733 355.644 103.733 365.044 109.307C369.791 112.133 373.791 112.493 378.578 109.8C390.284 103.2 403.857 107.52 412.324 115.294C418.871 121.307 424.151 128.44 429.418 135.6C433.031 140.52 437.004 145.36 441.564 149.4C448.898 155.88 451.871 164.52 454.244 173.333C455.151 176.72 453.471 180.813 452.885 185.133C455.511 186.107 458.578 186.92 461.338 188.32C477.258 196.374 488.884 208.174 494.031 225.76C495.138 229.534 495.458 233.227 495.711 237.08C496.524 249.067 494.738 260.534 489.698 271.494C489.084 272.827 488.658 274.88 489.244 276.054C495.444 288.614 494.204 302.067 493.698 315.28C493.498 320.654 491.684 326.44 488.311 330.92C483.898 336.774 485.871 343.227 485.351 349.454C488.445 351.867 486.858 355.24 487.004 358.187C487.244 363.027 487.111 367.894 487.057 372.76C486.991 379.28 480.751 387.374 474.644 389.92C469.871 391.92 464.924 391.333 460.111 391.6C457.538 395.76 455.098 399.614 452.764 403.52C448.178 411.2 440.258 414.6 433.031 418.84C431.751 419.587 429.671 419 427.964 419C301.058 419 174.151 418.974 47.2445 419.08C40.6978 419.08 34.9776 416.56 29.8176 413.547C18.6443 407 11.2177 396.96 7.47102 384.52C6.15102 380.147 5.19107 375.507 5.12441 370.96C5.05774 366.654 4.53769 362.4 6.27102 357.8C7.68436 354.053 7.28425 349.213 8.36425 344.933C9.35092 341.04 10.2445 337.107 10.9778 333.16C11.3511 331.08 12.1778 328.347 11.2445 326.92C8.97779 323.494 9.52446 319.374 8.11113 316.187C4.27113 307.534 8.87113 300.267 10.5778 292.627C11.9778 286.334 16.1509 281.214 19.9643 275.92C25.2976 268.507 32.0709 262.6 38.3642 256.187C41.1242 253.387 41.4711 251 40.1911 247.294C38.4577 242.294 35.4176 237.707 35.151 232.2C35.111 231.48 34.2045 230.8 34.1778 230.067C34.0045 226.507 33.9376 223.107 32.6843 219.533C31.8443 217.12 31.8709 213.84 33.6309 210.667C35.4976 207.28 34.0444 202.8 35.6577 198.694C39.6977 188.427 45.8977 180.107 54.7377 173.667C64.6977 166.387 75.8977 163.853 88.3911 165.373Z" fill="black"/>
<path d="M246.459 367.534C247.845 365.174 249.085 363.107 250.579 360.587C249.232 358.547 247.912 356.214 246.245 354.16C245.472 353.187 244.085 352.44 242.859 352.147C235.472 350.347 234.832 349.64 234.872 342.147C234.885 341.627 235.099 341.107 235.152 340.867C239.445 334.707 244.885 338.294 249.845 338.867C251.779 339.094 254.165 339.974 255.339 341.4C258.045 344.68 261.059 347.72 263.072 351.694C264.245 354.014 263.859 356.04 263.965 358.174C264.192 362.827 263.805 367.16 261.165 371.587C258.312 376.387 254.885 379.654 249.725 381.24C245.085 382.667 240.392 384.827 235.725 381.267C228.419 381.56 225.085 376.227 222.245 370.987C220.525 367.8 220.032 363.84 219.512 360.16C219.152 357.52 224.299 352.24 226.859 352.12C227.645 352.08 228.832 352.067 229.192 352.547C231.352 355.28 235.245 356.614 235.019 361.32C234.859 364.76 238.112 367.294 241.445 367.52C243.099 367.627 244.765 367.534 246.459 367.534Z" fill="black"/>
<path d="M388.046 302.574C394.392 301.254 399.046 304.267 403.552 307.254C409.072 310.934 411.779 316.854 413.112 322.907C414.592 329.64 409.299 341.134 400.912 345.294C390.072 350.654 376.592 347.854 370.979 337.814C368.472 333.36 367.925 327.827 368.739 322.547C369.099 320.214 373.245 317.68 375.859 317.774C378.579 317.88 381.672 320.4 382.405 323.147C382.472 323.414 382.366 323.734 382.419 324C384.086 332.76 384.632 333.2 394.125 333.134C394.739 331.894 395.459 330.467 396.139 329.027C399.312 322.214 398.405 320.294 391.059 317.747C389.312 317.147 387.552 316.414 386.072 315.36C381.285 311.96 381.205 309.694 385.432 305.32C386.419 304.294 387.392 303.254 388.046 302.574Z" fill="black"/>
<path d="M164.524 276.827C161.924 275.094 159.404 272.84 156.471 271.547C151.017 269.134 150.911 269.36 150.791 264.52C150.777 263.667 150.791 262.814 150.791 262.027C152.257 260.56 153.671 259.147 154.604 258.2C162.071 255.8 167.791 259.4 172.364 263.373C178.311 268.56 181.537 276.147 179.671 284.04C178.564 288.693 176.537 293.56 172.404 297.373C168.577 300.907 164.044 302.427 159.591 303.854C155.057 305.294 150.911 301.667 146.537 300.507C144.564 299.987 142.711 298.427 141.217 296.92C139.724 295.427 138.764 293.4 137.511 291.64C134.537 287.427 135.337 282.614 135.431 277.96C135.471 276.16 139.631 273.307 141.644 273.173C145.031 272.933 147.924 274.747 148.991 278.56C149.804 281.48 150.924 284 152.764 286.467C154.737 289.08 157.431 289.227 159.591 288.427C161.991 287.534 164.684 285.88 164.537 282.387C164.457 280.694 164.524 279 164.524 276.827Z" fill="black"/>
<path d="M264.711 190.813C266.258 190.813 267.965 191.013 269.605 190.787C277.938 189.64 284.031 194.36 287.618 200.373C290.805 205.707 294.445 212.493 289.765 219.387C289.311 228.68 282.005 232.253 275.191 235.107C266.765 238.64 255.058 232.613 250.058 224.24C248.325 221.333 246.831 218.733 246.845 215.28C246.858 208.547 248.911 206.373 255.751 206.267C256.578 206.253 257.418 206.347 258.458 206.4C259.725 208.387 262.298 210.587 262.071 212.453C261.365 218.373 264.831 220.24 269.551 221.787C270.058 221.387 270.658 220.867 271.325 220.413C272.885 219.387 275.471 218.667 275.831 217.333C276.538 214.667 276.671 211.467 275.805 208.907C275.258 207.28 272.631 206.04 270.671 205.267C260.031 201.027 261.018 199.68 264.711 190.813Z" fill="black"/>
<path d="M377.258 248.32C378.752 246.827 380.152 245.414 381.819 243.72C383.606 244.574 385.472 245.467 387.565 246.467C387.565 252.68 387.645 258.934 387.525 265.187C387.458 268.52 385.632 269.88 382.045 269.733C379.032 269.627 377.365 268.227 377.299 265.307C377.179 259.627 377.258 253.92 377.258 248.32Z" fill="black"/>
<path d="M314.524 278.2C310.751 282.667 307.391 286.973 303.658 290.933C299.698 295.12 299.058 294.987 294.858 291.12C294.244 290.56 293.725 289.907 293.071 289.214C295.005 282.334 300.938 278.654 305.498 273.947C306.271 273.147 308.751 273.2 309.951 273.827C311.578 274.667 312.738 276.413 314.524 278.2Z" fill="black"/>
<path d="M333.204 376.147C330.311 368.894 328.351 361.934 329.418 354.454C334.791 352.294 337.364 352.947 338.791 357.48C339.991 361.294 340.884 365.294 341.137 369.267C341.524 375.36 340.844 375.747 333.204 376.147Z" fill="black"/>
<path d="M181.711 214.307C181.711 211.574 181.711 209.307 181.711 207.427C186.204 204.667 190.431 201.894 194.844 199.507C195.764 199.014 197.591 199.6 198.697 200.24C200.137 201.067 201.257 202.427 202.604 203.654C200.151 211.254 193.097 212.16 187.497 215C186.857 215.334 183.551 214.974 181.711 214.307Z" fill="black"/>
<path d="M145.845 346.947C150.738 346.934 157.924 351.907 159.951 355.107C161.364 357.32 161.618 359.027 159.911 361C157.858 363.387 154.991 362.96 153.031 361.827C149.751 359.933 147.044 357.04 143.964 354.76C142.018 353.32 141.565 351.213 142.405 349.573C143.125 348.133 145.218 347.4 145.845 346.947Z" fill="black"/>
<path d="M346.805 207.253C345.672 209.533 344.978 210.947 343.898 213.12C342.552 213.12 340.619 213.333 338.752 213.04C337.499 212.853 335.725 212.227 335.312 211.293C334.392 209.227 333.005 208.227 331.125 207.093C328.472 205.48 328.405 201.093 330.432 199.04C332.192 197.267 336.005 197 337.979 198.76C340.939 201.427 343.725 204.28 346.805 207.253Z" fill="black"/>
<path d="M221.752 278.48C215.299 265.64 213.832 264.267 219.965 259.76C224.632 261.254 226.552 264.667 228.352 268.867C229.579 271.72 230.259 273.947 228.872 276.52C227.285 279.467 224.325 277.894 221.752 278.48Z" fill="black"/>
</svg>
