<svg width="95" height="99" viewBox="0 0 95 99" fill="none" xmlns="http://www.w3.org/2000/svg">
<path d="M88.5862 73.6642H6.41362C2.87152 73.6642 0 70.7928 0 67.2505V65.9878C0 62.4457 2.87152 59.5742 6.41362 59.5742H88.5864C92.1285 59.5742 95 62.4457 95 65.9878V67.2505C94.9998 70.7928 92.1285 73.6642 88.5862 73.6642Z" fill="#F56868"/>
<path d="M94.9995 65.9868V67.2499C94.9995 70.7927 92.1293 73.6648 88.5865 73.6648H84.8335C88.3763 73.6648 91.2466 70.7927 91.2466 67.2499V65.9868C91.2466 62.4458 88.3763 59.5737 84.8335 59.5737H88.5865C92.1293 59.5737 94.9995 62.446 94.9995 65.9868Z" fill="#D83131"/>
<path d="M88.5863 73.6641H47.5H6.4137C6.4137 73.6641 3.57991 87.3476 19.7058 92.7307C22.4682 93.6528 25.3521 94.0822 28.2442 94.0822H47.5002H66.7562C69.6482 94.0822 72.5322 93.6528 75.2946 92.7307C91.4201 87.3476 88.5863 73.6641 88.5863 73.6641Z" fill="#FBAD66"/>
<path d="M75.2941 92.7304C72.531 93.6535 69.6475 94.0834 66.7561 94.0834H62.4031C65.2962 94.0834 68.1798 93.6535 70.9429 92.7304C87.0671 87.3473 84.2333 73.6653 84.2333 73.6653H88.5864C88.5864 73.6651 91.4204 87.3473 75.2941 92.7304Z" fill="#FE860A"/>
<path d="M88.7366 62.1286C88.7366 65.3307 85.0158 67.0666 82.542 65.0335C81.5252 64.1977 80.3242 63.5355 78.4209 63.5355C73.2639 63.5355 73.2639 67.6205 68.1067 67.6205C62.9495 67.6205 62.9495 63.5355 57.7923 63.5355C52.6353 63.5355 52.6353 67.6205 47.4783 67.6205C42.3215 67.6205 42.3215 63.5355 37.1644 63.5355C32.0072 63.5355 32.0072 67.6205 26.85 67.6205C21.693 67.6205 21.693 63.5355 16.536 63.5355C14.6336 63.5355 13.4331 64.1973 12.4164 65.0327C9.94241 67.0659 6.22162 65.3304 6.22162 62.1281V54.5498H88.7362V62.1286H88.7366Z" fill="#BBEC6C"/>
<path d="M88.7373 54.5503V62.1289C88.7373 65.1253 85.4792 66.8374 83.0352 65.3793C84.1147 64.7487 84.8906 63.5925 84.8906 62.1289V54.5503H88.7373Z" fill="#A2E62E"/>
<path d="M6.26324 48.4778V54.6063H15.1092C16.9495 54.6063 18.4414 56.0982 18.4414 57.9385V75.589C18.4414 77.9418 20.3487 79.8492 22.7016 79.8492C25.0544 79.8492 26.9616 77.9418 26.9616 75.589V57.9385C26.9616 56.0982 28.4535 54.6063 30.2937 54.6063H88.7368V48.4778H6.26324Z" fill="#FEE45A"/>
<path d="M84.8909 48.4773H88.7376V54.6057H84.8909V48.4773Z" fill="#FEDF30"/>
<path d="M88.5862 48.8973H6.41362C2.87152 48.8973 0 46.026 0 42.4837V41.221C0 37.6789 2.87152 34.8074 6.41362 34.8074H88.5864C92.1285 34.8074 95 37.6789 95 41.221V42.4837C94.9998 46.026 92.1285 48.8973 88.5862 48.8973Z" fill="#C17E55"/>
<path d="M94.9995 41.2204V42.4835C94.9995 46.0263 92.1293 48.8966 88.5865 48.8966H84.8335C88.3763 48.8966 91.2466 46.0263 91.2466 42.4835V41.2204C91.2466 37.6795 88.3763 34.8074 84.8335 34.8074H88.5865C92.1293 34.8076 94.9995 37.6796 94.9995 41.2204Z" fill="#904D24"/>
<path d="M47.5 0.000732422C15.467 0.464305 4.70441 17.8405 1.1514 27.9368C-0.0661717 31.3964 2.52972 35.0169 6.19724 35.0169H47.5H88.8023C92.497 35.0169 95.0594 31.36 93.8273 27.8767C90.2528 17.7717 79.4695 0.46338 47.5 0.000732422Z" fill="#FBAD66"/>
<path d="M88.8023 35.0175H88.3456C89.5896 33.6301 90.1017 31.6102 89.4082 29.6459C85.8328 19.539 75.0496 2.23203 43.0801 1.76957C34.8096 1.88796 27.9552 3.13587 22.2798 5.09449C28.7158 2.13824 36.9556 0.152798 47.5 0C79.4695 0.464312 90.2528 17.7715 93.828 27.8763C95.0585 31.36 92.4959 35.0175 88.8023 35.0175Z" fill="#E59D52"/>
<path d="M34.2776 14.6902C34.0548 14.6902 33.829 14.6363 33.6192 14.5231C32.9451 14.1589 32.6941 13.317 33.0583 12.6429L34.3016 10.3425C34.6658 9.66838 35.5077 9.41735 36.1818 9.78159C36.8559 10.1458 37.1069 10.9877 36.7427 11.6618L35.4994 13.9623C35.2485 14.4266 34.7709 14.6902 34.2776 14.6902Z" fill="#E57917"/>
<path d="M47.4827 14.8472C46.7165 14.8472 46.0953 14.2261 46.0953 13.4599V10.8449C46.0953 10.0787 46.7165 9.45752 47.4827 9.45752C48.2489 9.45752 48.87 10.0787 48.87 10.8449V13.4599C48.87 14.2261 48.2489 14.8472 47.4827 14.8472Z" fill="#E57917"/>
<path d="M60.7222 14.6709C60.2437 14.6709 59.7781 14.4231 59.5207 13.9793L58.2088 11.7171C57.8244 11.0543 58.0501 10.2054 58.7129 9.821C59.3757 9.4366 60.2246 9.66229 60.609 10.3251L61.9209 12.5873C62.3053 13.2501 62.0796 14.099 61.4168 14.4834C61.1978 14.6106 60.9586 14.6709 60.7222 14.6709Z" fill="#E57917"/>
<path fill-rule="evenodd" clip-rule="evenodd" d="M67.6555 74.7992C65.9548 75.4929 65.0066 75.7817 64.1458 77.5583C63.3389 79.2231 62.5914 82.6768 63.2564 84.4529C65.8628 91.4138 69.8123 91.0897 69.8705 98H90.379C90.3986 94.114 93.6783 88.0169 93.6783 84.1309V74.6182C93.6783 69.7671 88.4445 68.4575 86.8796 70.0784L86.8771 70.0794C85.8387 67.6373 82.3281 66.8865 80.6271 68.2045L80.6239 68.2057C79.3528 65.6382 75.3453 65.3401 74.394 67.0505L74.1611 56.3823C74.1274 54.8319 73.1326 53.516 71.766 53.1209C71.4933 53.0422 71.206 53 70.9083 53C69.3168 53 67.9827 54.2046 67.7074 55.7801C67.6733 55.9758 67.6555 56.177 67.6555 56.3823V74.7992Z" fill="#FFDCD5"/>
<path d="M67.6076 74.8187C65.9369 75.4984 64.9986 75.7986 64.1459 77.5583C63.3391 79.2232 62.5914 82.6768 63.2564 84.4531C65.8627 91.414 69.8124 91.0897 69.8705 98H90.3789C90.3987 94.114 93.6783 88.0169 93.6783 84.1309V74.6184C93.6783 69.7672 88.4446 68.4576 86.8797 70.0786M74.4865 71.2924L74.1612 56.3823C74.1207 54.5227 72.6974 53.0001 70.9084 53.0001C69.1193 53.0001 67.6556 54.5221 67.6556 56.3823V81.2702M81.0126 69.9467C81.0126 65.8279 75.5287 65.0103 74.3944 67.0505M87.1727 71.5743C87.1727 67.9781 82.6371 66.6475 80.627 68.2045" stroke="#7F635D" stroke-miterlimit="22.926" stroke-linecap="round" stroke-linejoin="round"/>
</svg>
