<svg width="427" height="239" viewBox="0 0 427 239" fill="none" xmlns="http://www.w3.org/2000/svg">
<rect width="427" height="239" rx="2" fill="#C2DAF0"/>
<path d="M38.9958 211H277.29C280.049 211 282.286 208.763 282.286 206.004V33.9958C282.286 31.2365 280.049 29 277.29 29H38.9958C36.2365 29 34 31.2365 34 33.9958V206.004C34 208.763 36.2365 211 38.9958 211Z" fill="#C2DAF0"/>
<path d="M5.4001 0H27C24.0174 0 21.5999 2.93696 21.5999 6.5604V232.44C21.5999 236.062 24.0174 239 27 239H5.4001C2.41752 239 -1.05396e-06 236.063 -1.05396e-06 232.44V6.55977C-1.05396e-06 2.93696 2.41752 0 5.4001 0Z" fill="#B7D2EB"/>
<path d="M261.632 32.0545V164.097C261.632 166.857 259.395 169.093 256.636 169.093H123.912C121.152 169.093 118.916 166.857 118.916 164.097V32.0545C118.916 29.2952 121.152 27.0587 123.912 27.0587H256.636C259.395 27.0587 261.632 29.2952 261.632 32.0545Z" fill="#9599BD"/>
<path d="M168.274 114.6C148.306 114.6 132.119 98.4127 132.119 78.4445C132.119 58.4764 148.306 42.2889 168.274 42.2889C188.243 42.2889 204.43 58.4764 204.43 78.4445C204.43 98.4127 188.243 114.6 168.274 114.6Z" fill="#FFECC6"/>
<path d="M166.578 67.115C167.536 67.115 168.495 66.7489 169.227 66.0176C171.164 64.0808 174.315 64.0808 176.251 66.0176C177.715 67.4806 180.087 67.4806 181.55 66.0176C183.014 64.5546 183.014 62.1823 181.55 60.7187C176.692 55.8602 168.786 55.8602 163.928 60.7187C162.465 62.1818 162.465 64.5541 163.928 66.0176C164.66 66.7489 165.618 67.115 166.578 67.115Z" fill="#EDBD5C"/>
<path d="M148.442 85.9906C149.401 85.9906 150.36 85.6245 151.091 84.8932C153.028 82.9564 156.179 82.9564 158.116 84.8932C159.579 86.3562 161.951 86.3562 163.415 84.8932C164.878 83.4302 164.878 81.0579 163.415 79.5943C158.557 74.7358 150.651 74.7358 145.793 79.5943C144.329 81.0574 144.329 83.4297 145.793 84.8932C146.524 85.6245 147.483 85.9906 148.442 85.9906Z" fill="#EDBD5C"/>
<path d="M205.489 89.8541L223.441 53.6437C219.577 51.4236 218.063 46.6475 220.082 42.6662C222.198 38.4934 227.386 36.7811 231.67 38.8416C234.07 39.9957 235.677 42.0892 236.254 44.4406C238.522 43.4576 241.205 43.4271 243.605 44.5812C247.89 46.6417 249.648 51.6947 247.533 55.8676C245.537 59.8038 240.808 61.5471 236.681 60.0026L218.782 96.1053L205.489 89.8541Z" fill="#FFECC6"/>
<path d="M201.567 71.4944C204.247 66.0898 210.917 63.8237 216.467 66.4336C217.833 67.0757 219.003 67.9534 219.951 68.9926C221.69 70.8979 224.187 71.9216 226.797 72.1166C228.184 72.2203 229.576 72.5807 230.901 73.2217C236.436 75.899 238.524 82.5552 235.837 87.9753C227.185 105.428 241.424 118.616 231.554 138.523C223.034 155.708 201.639 163.415 182.163 154.349C163.645 145.728 155.709 124.305 164.111 106.212C164.111 106.212 164.086 106.207 164.089 106.202C174.968 84.2569 194.293 88.1708 201.567 71.4944Z" fill="#FFDA03"/>
<path d="M164.111 106.212C164.111 106.212 164.086 106.207 164.089 106.202C174.968 84.2569 194.293 88.1708 201.567 71.4944C204.247 66.0898 210.917 63.8237 216.467 66.4336C217.832 67.0757 219.003 67.9534 219.951 68.9926C220.556 69.6551 221.256 70.204 222.017 70.6555C221.851 70.9265 221.694 71.2054 221.55 71.4949C214.276 88.1712 194.951 84.2573 184.072 106.202C184.07 106.208 184.094 106.213 184.094 106.213C175.692 124.305 183.628 145.728 202.146 154.349C204.433 155.413 206.746 156.238 209.062 156.852C200.67 159.148 191.21 158.561 182.163 154.349C163.645 145.728 155.709 124.305 164.111 106.212Z" fill="#F2CF00"/>
<path d="M198.923 146.786C208.611 146.786 217.947 141.521 222.497 132.476C223.427 130.628 222.682 128.375 220.834 127.445C218.985 126.516 216.733 127.26 215.803 129.109C211.262 138.135 200.004 141.87 190.706 137.432C188.838 136.541 186.602 137.333 185.711 139.2C184.819 141.068 185.611 143.304 187.479 144.195C191.163 145.953 195.071 146.786 198.923 146.786Z" fill="#FFE654"/>
<path d="M77.4158 26C79.485 26 81.1624 27.6774 81.1624 29.7466V161.605C81.1624 163.674 79.485 165.352 77.4158 165.352C75.3466 165.352 73.6692 163.674 73.6692 161.605V29.7471C73.6688 27.6774 75.3466 26 77.4158 26Z" fill="#EBF3FF"/>
<path d="M90.2663 26C92.3355 26 94.0128 27.6774 94.0128 29.7466V69.689C94.0128 71.7582 92.3355 73.4356 90.2663 73.4356C88.1971 73.4356 86.5197 71.7582 86.5197 69.689V29.7466C86.5197 27.6774 88.1971 26 90.2663 26Z" fill="#EBF3FF"/>
<path d="M64.5651 26C66.6343 26 68.3117 27.6774 68.3117 29.7466V69.689C68.3117 71.7582 66.6343 73.4356 64.5651 73.4356C62.4959 73.4356 60.8185 71.7582 60.8185 69.689V29.7466C60.8185 27.6774 62.4959 26 64.5651 26Z" fill="#EBF3FF"/>
<path d="M94.0311 58.844V69.5208C94.0311 77.6283 87.4588 84.2006 79.3512 84.2006H75.498C67.3904 84.2006 60.8181 77.6283 60.8181 69.5208V58.844H94.0311Z" fill="#EBF3FF"/>
<path d="M97.8354 169.093H56.9958C54.2366 169.093 52.0001 166.856 52.0001 164.097V138.733L102.831 97.3848V164.097C102.831 166.856 100.595 169.093 97.8354 169.093Z" fill="#FF6D50"/>
<path d="M294.003 33.4865C281.943 33.4865 272.132 43.2977 272.132 55.3574C272.132 67.4172 281.943 77.2287 294.003 77.2287C294.63 77.2287 295.264 77.2017 295.888 77.1483L297.237 77.0333L315.874 56.7087V55.3577C315.874 43.2977 306.063 33.4865 294.003 33.4865Z" fill="#FFDD33"/>
<path d="M294.003 81.3601C279.665 81.3601 268 69.6953 268 55.3573C268 41.0193 279.665 29.3545 294.003 29.3545C308.341 29.3545 320.006 41.0193 320.006 55.3573H311.749C311.749 45.5719 303.788 37.611 294.003 37.611C284.218 37.611 276.256 45.5719 276.256 55.3573C276.256 65.1427 284.217 73.1036 294.003 73.1036C294.514 73.1036 295.032 73.0816 295.541 73.0381L296.244 81.2646C295.502 81.3282 294.749 81.3601 294.003 81.3601Z" fill="#FFBB33"/>
<path d="M291.152 53.6924L300.968 166.899H357.218L367.033 53.6924H291.152Z" fill="#CFF3FC"/>
<path d="M329.093 53.6924V166.899H357.218L367.033 53.6924H329.093Z" fill="#99EEFF"/>
<path d="M347.67 81.9441L339.496 80.7764L347.265 29H388V37.2565H354.426L347.67 81.9441Z" fill="#FF6A4D"/>
<path d="M356.442 78.1648C356.371 78.2011 349.143 81.7649 338.147 79.8414L324.609 78.0902L324.538 78.0817C307.289 76.2039 299.306 79.1726 298.974 79.3001L296.452 80.2691L303.606 162.787H354.646L362.246 75.1313L356.442 78.1648Z" fill="#A8E62E"/>
<path d="M356.442 78.1648C356.371 78.2012 349.143 81.7649 338.147 79.8414L329.093 78.6701V162.786H354.646L362.246 75.1311L356.442 78.1648Z" fill="#7ACC29"/>
<path d="M358.442 169.363H299.744L289.501 51.2291H368.684L358.442 169.363ZM307.315 161.107H350.87L359.682 59.4856H298.504L307.315 161.107Z" fill="#99EEFF"/>
<path d="M313.562 75.6978L337.844 65.3781L348.163 89.6597L323.882 99.9794L313.562 75.6978Z" fill="#E6FBFF"/>
<path d="M311.487 130.035L325.449 107.654L347.83 121.616L333.868 143.997L311.487 130.035Z" fill="#E6FBFF"/>
<path d="M345.976 109.236C348.136 109.236 350.204 107.338 350.104 105.108C350.004 102.871 348.291 100.98 345.976 100.98C343.817 100.98 341.748 102.878 341.848 105.108C341.948 107.345 343.662 109.236 345.976 109.236Z" fill="#3BB324"/>
<path d="M311.68 104.79C313.839 104.79 315.908 102.891 315.808 100.662C315.708 98.4253 313.994 96.5337 311.68 96.5337C309.521 96.5337 307.452 98.4324 307.552 100.662C307.652 102.899 309.366 104.79 311.68 104.79Z" fill="#7ACC29"/>
<path d="M320.043 155.07C322.202 155.07 324.271 153.172 324.171 150.942C324.071 148.706 322.357 146.814 320.043 146.814C317.883 146.814 315.814 148.713 315.914 150.942C316.014 153.179 317.728 155.07 320.043 155.07Z" fill="#7ACC29"/>
<path d="M329.093 51.2291V59.4856H359.681L350.87 161.107H329.093V169.363H358.442L368.684 51.2291H329.093Z" fill="#66E6FF"/>
<path d="M329.093 97.811L348.193 89.6995L337.877 65.4064L329.093 69.1367V97.811Z" fill="#CFF3FC"/>
<path d="M329.093 109.886V140.996L333.932 144.016L347.905 121.625L329.093 109.886Z" fill="#CFF3FC"/>
<path d="M94.7496 200.858H90.4998V214.429C90.4998 216.401 88.597 218 86.2499 218H77.7501C75.403 218 73.5003 216.401 73.5003 214.429V200.858H69.2504C65.461 200.858 63.5962 196.966 66.2329 194.751L78.9825 184.037C80.6273 182.654 83.3727 182.654 85.0175 184.037L97.7672 194.751C100.403 196.965 98.5412 200.858 94.7496 200.858Z" stroke="#5993C8" stroke-width="4" stroke-miterlimit="10" stroke-linecap="round" stroke-linejoin="round"/>
<path d="M105.577 217.667V222.224C105.577 224.741 103.536 226.782 101.019 226.782H64.5577C62.0406 226.782 60 224.741 60 222.224V217.667" stroke="#5993C8" stroke-width="4" stroke-miterlimit="10" stroke-linecap="round" stroke-linejoin="round"/>
<path d="M136.31 209.885C136.53 209.885 136.725 209.97 136.895 210.14L138.485 211.865C137.605 212.955 136.52 213.79 135.23 214.37C133.95 214.95 132.41 215.24 130.61 215.24C129 215.24 127.55 214.965 126.26 214.415C124.98 213.865 123.885 213.1 122.975 212.12C122.065 211.14 121.365 209.97 120.875 208.61C120.395 207.25 120.155 205.765 120.155 204.155C120.155 202.525 120.415 201.035 120.935 199.685C121.455 198.325 122.185 197.155 123.125 196.175C124.075 195.195 125.205 194.435 126.515 193.895C127.825 193.345 129.275 193.07 130.865 193.07C132.445 193.07 133.845 193.33 135.065 193.85C136.295 194.37 137.34 195.05 138.2 195.89L136.85 197.765C136.77 197.885 136.665 197.99 136.535 198.08C136.415 198.17 136.245 198.215 136.025 198.215C135.875 198.215 135.72 198.175 135.56 198.095C135.4 198.005 135.225 197.9 135.035 197.78C134.845 197.65 134.625 197.51 134.375 197.36C134.125 197.21 133.835 197.075 133.505 196.955C133.175 196.825 132.79 196.72 132.35 196.64C131.92 196.55 131.42 196.505 130.85 196.505C129.88 196.505 128.99 196.68 128.18 197.03C127.38 197.37 126.69 197.87 126.11 198.53C125.53 199.18 125.08 199.98 124.76 200.93C124.44 201.87 124.28 202.945 124.28 204.155C124.28 205.375 124.45 206.46 124.79 207.41C125.14 208.36 125.61 209.16 126.2 209.81C126.79 210.46 127.485 210.96 128.285 211.31C129.085 211.65 129.945 211.82 130.865 211.82C131.415 211.82 131.91 211.79 132.35 211.73C132.8 211.67 133.21 211.575 133.58 211.445C133.96 211.315 134.315 211.15 134.645 210.95C134.985 210.74 135.32 210.485 135.65 210.185C135.75 210.095 135.855 210.025 135.965 209.975C136.075 209.915 136.19 209.885 136.31 209.885ZM149.994 208.43C148.924 208.48 148.024 208.575 147.294 208.715C146.564 208.845 145.979 209.015 145.539 209.225C145.099 209.435 144.784 209.68 144.594 209.96C144.404 210.24 144.309 210.545 144.309 210.875C144.309 211.525 144.499 211.99 144.879 212.27C145.269 212.55 145.774 212.69 146.394 212.69C147.154 212.69 147.809 212.555 148.359 212.285C148.919 212.005 149.464 211.585 149.994 211.025V208.43ZM141.504 201.755C143.274 200.135 145.404 199.325 147.894 199.325C148.794 199.325 149.599 199.475 150.309 199.775C151.019 200.065 151.619 200.475 152.109 201.005C152.599 201.525 152.969 202.15 153.219 202.88C153.479 203.61 153.609 204.41 153.609 205.28V215H151.929C151.579 215 151.309 214.95 151.119 214.85C150.929 214.74 150.779 214.525 150.669 214.205L150.339 213.095C149.949 213.445 149.569 213.755 149.199 214.025C148.829 214.285 148.444 214.505 148.044 214.685C147.644 214.865 147.214 215 146.754 215.09C146.304 215.19 145.804 215.24 145.254 215.24C144.604 215.24 144.004 215.155 143.454 214.985C142.904 214.805 142.429 214.54 142.029 214.19C141.629 213.84 141.319 213.405 141.099 212.885C140.879 212.365 140.769 211.76 140.769 211.07C140.769 210.68 140.834 210.295 140.964 209.915C141.094 209.525 141.304 209.155 141.594 208.805C141.894 208.455 142.279 208.125 142.749 207.815C143.219 207.505 143.794 207.235 144.474 207.005C145.164 206.775 145.964 206.59 146.874 206.45C147.784 206.3 148.824 206.21 149.994 206.18V205.28C149.994 204.25 149.774 203.49 149.334 203C148.894 202.5 148.259 202.25 147.429 202.25C146.829 202.25 146.329 202.32 145.929 202.46C145.539 202.6 145.194 202.76 144.894 202.94C144.594 203.11 144.319 203.265 144.069 203.405C143.829 203.545 143.559 203.615 143.259 203.615C142.999 203.615 142.779 203.55 142.599 203.42C142.419 203.28 142.274 203.12 142.164 202.94L141.504 201.755ZM163.223 215.24C161.883 215.24 160.853 214.865 160.133 214.115C159.423 213.355 159.068 212.31 159.068 210.98V202.385H157.493C157.293 202.385 157.123 202.32 156.983 202.19C156.843 202.06 156.773 201.865 156.773 201.605V200.135L159.248 199.73L160.028 195.53C160.078 195.33 160.173 195.175 160.313 195.065C160.453 194.955 160.633 194.9 160.853 194.9H162.773V199.745H166.883V202.385H162.773V210.725C162.773 211.205 162.888 211.58 163.118 211.85C163.358 212.12 163.683 212.255 164.093 212.255C164.323 212.255 164.513 212.23 164.663 212.18C164.823 212.12 164.958 212.06 165.068 212C165.188 211.94 165.293 211.885 165.383 211.835C165.473 211.775 165.563 211.745 165.653 211.745C165.763 211.745 165.853 211.775 165.923 211.835C165.993 211.885 166.068 211.965 166.148 212.075L167.258 213.875C166.718 214.325 166.098 214.665 165.398 214.895C164.698 215.125 163.973 215.24 163.223 215.24ZM178.585 208.43C177.515 208.48 176.615 208.575 175.885 208.715C175.155 208.845 174.57 209.015 174.13 209.225C173.69 209.435 173.375 209.68 173.185 209.96C172.995 210.24 172.9 210.545 172.9 210.875C172.9 211.525 173.09 211.99 173.47 212.27C173.86 212.55 174.365 212.69 174.985 212.69C175.745 212.69 176.4 212.555 176.95 212.285C177.51 212.005 178.055 211.585 178.585 211.025V208.43ZM170.095 201.755C171.865 200.135 173.995 199.325 176.485 199.325C177.385 199.325 178.19 199.475 178.9 199.775C179.61 200.065 180.21 200.475 180.7 201.005C181.19 201.525 181.56 202.15 181.81 202.88C182.07 203.61 182.2 204.41 182.2 205.28V215H180.52C180.17 215 179.9 214.95 179.71 214.85C179.52 214.74 179.37 214.525 179.26 214.205L178.93 213.095C178.54 213.445 178.16 213.755 177.79 214.025C177.42 214.285 177.035 214.505 176.635 214.685C176.235 214.865 175.805 215 175.345 215.09C174.895 215.19 174.395 215.24 173.845 215.24C173.195 215.24 172.595 215.155 172.045 214.985C171.495 214.805 171.02 214.54 170.62 214.19C170.22 213.84 169.91 213.405 169.69 212.885C169.47 212.365 169.36 211.76 169.36 211.07C169.36 210.68 169.425 210.295 169.555 209.915C169.685 209.525 169.895 209.155 170.185 208.805C170.485 208.455 170.87 208.125 171.34 207.815C171.81 207.505 172.385 207.235 173.065 207.005C173.755 206.775 174.555 206.59 175.465 206.45C176.375 206.3 177.415 206.21 178.585 206.18V205.28C178.585 204.25 178.365 203.49 177.925 203C177.485 202.5 176.85 202.25 176.02 202.25C175.42 202.25 174.92 202.32 174.52 202.46C174.13 202.6 173.785 202.76 173.485 202.94C173.185 203.11 172.91 203.265 172.66 203.405C172.42 203.545 172.15 203.615 171.85 203.615C171.59 203.615 171.37 203.55 171.19 203.42C171.01 203.28 170.865 203.12 170.755 202.94L170.095 201.755ZM196.805 205.535C196.805 205.055 196.735 204.605 196.595 204.185C196.465 203.755 196.265 203.38 195.995 203.06C195.725 202.74 195.38 202.49 194.96 202.31C194.55 202.12 194.07 202.025 193.52 202.025C192.45 202.025 191.605 202.33 190.985 202.94C190.375 203.55 189.985 204.415 189.815 205.535H196.805ZM189.74 207.77C189.8 208.56 189.94 209.245 190.16 209.825C190.38 210.395 190.67 210.87 191.03 211.25C191.39 211.62 191.815 211.9 192.305 212.09C192.805 212.27 193.355 212.36 193.955 212.36C194.555 212.36 195.07 212.29 195.5 212.15C195.94 212.01 196.32 211.855 196.64 211.685C196.97 211.515 197.255 211.36 197.495 211.22C197.745 211.08 197.985 211.01 198.215 211.01C198.525 211.01 198.755 211.125 198.905 211.355L199.97 212.705C199.56 213.185 199.1 213.59 198.59 213.92C198.08 214.24 197.545 214.5 196.985 214.7C196.435 214.89 195.87 215.025 195.29 215.105C194.72 215.185 194.165 215.225 193.625 215.225C192.555 215.225 191.56 215.05 190.64 214.7C189.72 214.34 188.92 213.815 188.24 213.125C187.56 212.425 187.025 211.565 186.635 210.545C186.245 209.515 186.05 208.325 186.05 206.975C186.05 205.925 186.22 204.94 186.56 204.02C186.9 203.09 187.385 202.285 188.015 201.605C188.655 200.915 189.43 200.37 190.34 199.97C191.26 199.57 192.295 199.37 193.445 199.37C194.415 199.37 195.31 199.525 196.13 199.835C196.95 200.145 197.655 200.6 198.245 201.2C198.835 201.79 199.295 202.52 199.625 203.39C199.965 204.25 200.135 205.235 200.135 206.345C200.135 206.905 200.075 207.285 199.955 207.485C199.835 207.675 199.605 207.77 199.265 207.77H189.74ZM209.74 206.93C210.2 206.93 210.6 206.87 210.94 206.75C211.28 206.62 211.56 206.445 211.78 206.225C212.01 206.005 212.18 205.74 212.29 205.43C212.41 205.12 212.47 204.78 212.47 204.41C212.47 203.65 212.24 203.05 211.78 202.61C211.33 202.16 210.65 201.935 209.74 201.935C208.83 201.935 208.145 202.16 207.685 202.61C207.235 203.05 207.01 203.65 207.01 204.41C207.01 204.77 207.065 205.105 207.175 205.415C207.295 205.725 207.465 205.995 207.685 206.225C207.915 206.445 208.2 206.62 208.54 206.75C208.89 206.87 209.29 206.93 209.74 206.93ZM213.925 215.69C213.925 215.39 213.835 215.145 213.655 214.955C213.475 214.765 213.23 214.62 212.92 214.52C212.61 214.41 212.245 214.33 211.825 214.28C211.415 214.23 210.975 214.195 210.505 214.175C210.045 214.145 209.565 214.12 209.065 214.1C208.575 214.08 208.095 214.04 207.625 213.98C207.215 214.21 206.88 214.48 206.62 214.79C206.37 215.1 206.245 215.46 206.245 215.87C206.245 216.14 206.31 216.39 206.44 216.62C206.58 216.86 206.795 217.065 207.085 217.235C207.385 217.405 207.77 217.535 208.24 217.625C208.71 217.725 209.285 217.775 209.965 217.775C210.655 217.775 211.25 217.72 211.75 217.61C212.25 217.51 212.66 217.365 212.98 217.175C213.31 216.995 213.55 216.775 213.7 216.515C213.85 216.265 213.925 215.99 213.925 215.69ZM217.615 200.135V201.515C217.615 201.955 217.35 202.225 216.82 202.325L215.44 202.58C215.65 203.11 215.755 203.69 215.755 204.32C215.755 205.08 215.6 205.77 215.29 206.39C214.99 207 214.57 207.52 214.03 207.95C213.49 208.38 212.85 208.715 212.11 208.955C211.38 209.185 210.59 209.3 209.74 209.3C209.44 209.3 209.15 209.285 208.87 209.255C208.59 209.225 208.315 209.185 208.045 209.135C207.565 209.425 207.325 209.75 207.325 210.11C207.325 210.42 207.465 210.65 207.745 210.8C208.035 210.94 208.415 211.04 208.885 211.1C209.355 211.16 209.89 211.2 210.49 211.22C211.09 211.23 211.705 211.26 212.335 211.31C212.965 211.36 213.58 211.45 214.18 211.58C214.78 211.7 215.315 211.895 215.785 212.165C216.255 212.435 216.63 212.805 216.91 213.275C217.2 213.735 217.345 214.33 217.345 215.06C217.345 215.74 217.175 216.4 216.835 217.04C216.505 217.68 216.02 218.25 215.38 218.75C214.75 219.25 213.97 219.65 213.04 219.95C212.12 220.26 211.07 220.415 209.89 220.415C208.73 220.415 207.72 220.3 206.86 220.07C206 219.85 205.285 219.55 204.715 219.17C204.145 218.8 203.72 218.37 203.44 217.88C203.16 217.39 203.02 216.88 203.02 216.35C203.02 215.63 203.235 215.03 203.665 214.55C204.105 214.06 204.705 213.67 205.465 213.38C205.055 213.17 204.73 212.89 204.49 212.54C204.25 212.19 204.13 211.73 204.13 211.16C204.13 210.93 204.17 210.695 204.25 210.455C204.34 210.205 204.465 209.96 204.625 209.72C204.795 209.48 205.005 209.255 205.255 209.045C205.505 208.825 205.8 208.63 206.14 208.46C205.36 208.04 204.745 207.48 204.295 206.78C203.855 206.08 203.635 205.26 203.635 204.32C203.635 203.56 203.785 202.875 204.085 202.265C204.395 201.645 204.82 201.12 205.36 200.69C205.91 200.25 206.555 199.915 207.295 199.685C208.045 199.455 208.86 199.34 209.74 199.34C210.4 199.34 211.02 199.41 211.6 199.55C212.18 199.68 212.71 199.875 213.19 200.135H217.615ZM227.711 199.37C228.851 199.37 229.886 199.555 230.816 199.925C231.756 200.295 232.556 200.82 233.216 201.5C233.886 202.18 234.401 203.01 234.761 203.99C235.121 204.97 235.301 206.065 235.301 207.275C235.301 208.495 235.121 209.595 234.761 210.575C234.401 211.555 233.886 212.39 233.216 213.08C232.556 213.77 231.756 214.3 230.816 214.67C229.886 215.04 228.851 215.225 227.711 215.225C226.561 215.225 225.516 215.04 224.576 214.67C223.636 214.3 222.831 213.77 222.161 213.08C221.501 212.39 220.986 211.555 220.616 210.575C220.256 209.595 220.076 208.495 220.076 207.275C220.076 206.065 220.256 204.97 220.616 203.99C220.986 203.01 221.501 202.18 222.161 201.5C222.831 200.82 223.636 200.295 224.576 199.925C225.516 199.555 226.561 199.37 227.711 199.37ZM227.711 212.375C228.991 212.375 229.936 211.945 230.546 211.085C231.166 210.225 231.476 208.965 231.476 207.305C231.476 205.645 231.166 204.38 230.546 203.51C229.936 202.64 228.991 202.205 227.711 202.205C226.411 202.205 225.446 202.645 224.816 203.525C224.196 204.395 223.886 205.655 223.886 207.305C223.886 208.955 224.196 210.215 224.816 211.085C225.446 211.945 226.411 212.375 227.711 212.375ZM242.823 202.28C243.303 201.36 243.873 200.64 244.533 200.12C245.193 199.59 245.973 199.325 246.873 199.325C247.583 199.325 248.153 199.48 248.583 199.79L248.343 202.565C248.293 202.745 248.218 202.875 248.118 202.955C248.028 203.025 247.903 203.06 247.743 203.06C247.593 203.06 247.368 203.035 247.068 202.985C246.778 202.935 246.493 202.91 246.213 202.91C245.803 202.91 245.438 202.97 245.118 203.09C244.798 203.21 244.508 203.385 244.248 203.615C243.998 203.835 243.773 204.105 243.573 204.425C243.383 204.745 243.203 205.11 243.033 205.52V215H239.328V199.61H241.503C241.883 199.61 242.148 199.68 242.298 199.82C242.448 199.95 242.548 200.19 242.598 200.54L242.823 202.28ZM265.699 199.61L257.314 219.23C257.204 219.49 257.059 219.685 256.879 219.815C256.709 219.955 256.444 220.025 256.084 220.025H253.324L256.204 213.845L249.979 199.61H253.234C253.524 199.61 253.749 199.68 253.909 199.82C254.079 199.96 254.204 200.12 254.284 200.3L257.554 208.28C257.664 208.55 257.754 208.82 257.824 209.09C257.904 209.36 257.979 209.635 258.049 209.915C258.139 209.635 258.229 209.36 258.319 209.09C258.409 208.81 258.509 208.535 258.619 208.265L261.709 200.3C261.789 200.1 261.919 199.935 262.099 199.805C262.289 199.675 262.499 199.61 262.729 199.61H265.699ZM284.108 204.215C284.848 204.215 285.493 204.125 286.043 203.945C286.593 203.755 287.048 203.49 287.408 203.15C287.778 202.8 288.053 202.38 288.233 201.89C288.413 201.39 288.503 200.835 288.503 200.225C288.503 199.645 288.413 199.12 288.233 198.65C288.053 198.18 287.783 197.78 287.423 197.45C287.063 197.12 286.608 196.87 286.058 196.7C285.508 196.52 284.858 196.43 284.108 196.43H281.093V204.215H284.108ZM284.108 193.31C285.558 193.31 286.813 193.48 287.873 193.82C288.933 194.16 289.808 194.635 290.498 195.245C291.188 195.855 291.698 196.585 292.028 197.435C292.368 198.285 292.538 199.215 292.538 200.225C292.538 201.275 292.363 202.24 292.013 203.12C291.663 203.99 291.138 204.74 290.438 205.37C289.738 206 288.858 206.49 287.798 206.84C286.748 207.19 285.518 207.365 284.108 207.365H281.093V215H277.058V193.31H284.108ZM299.893 201.26C300.493 200.7 301.153 200.245 301.873 199.895C302.593 199.545 303.438 199.37 304.408 199.37C305.248 199.37 305.993 199.515 306.643 199.805C307.293 200.085 307.833 200.485 308.263 201.005C308.703 201.515 309.033 202.13 309.253 202.85C309.483 203.56 309.598 204.345 309.598 205.205V215H305.893V205.205C305.893 204.265 305.678 203.54 305.248 203.03C304.818 202.51 304.163 202.25 303.283 202.25C302.643 202.25 302.043 202.395 301.483 202.685C300.923 202.975 300.393 203.37 299.893 203.87V215H296.188V192.71H299.893V201.26ZM321.132 199.37C322.272 199.37 323.307 199.555 324.237 199.925C325.177 200.295 325.977 200.82 326.637 201.5C327.307 202.18 327.822 203.01 328.182 203.99C328.542 204.97 328.722 206.065 328.722 207.275C328.722 208.495 328.542 209.595 328.182 210.575C327.822 211.555 327.307 212.39 326.637 213.08C325.977 213.77 325.177 214.3 324.237 214.67C323.307 215.04 322.272 215.225 321.132 215.225C319.982 215.225 318.937 215.04 317.997 214.67C317.057 214.3 316.252 213.77 315.582 213.08C314.922 212.39 314.407 211.555 314.037 210.575C313.677 209.595 313.497 208.495 313.497 207.275C313.497 206.065 313.677 204.97 314.037 203.99C314.407 203.01 314.922 202.18 315.582 201.5C316.252 200.82 317.057 200.295 317.997 199.925C318.937 199.555 319.982 199.37 321.132 199.37ZM321.132 212.375C322.412 212.375 323.357 211.945 323.967 211.085C324.587 210.225 324.897 208.965 324.897 207.305C324.897 205.645 324.587 204.38 323.967 203.51C323.357 202.64 322.412 202.205 321.132 202.205C319.832 202.205 318.867 202.645 318.237 203.525C317.617 204.395 317.307 205.655 317.307 207.305C317.307 208.955 317.617 210.215 318.237 211.085C318.867 211.945 319.832 212.375 321.132 212.375ZM337.585 215.24C336.245 215.24 335.215 214.865 334.495 214.115C333.785 213.355 333.43 212.31 333.43 210.98V202.385H331.855C331.655 202.385 331.485 202.32 331.345 202.19C331.205 202.06 331.135 201.865 331.135 201.605V200.135L333.61 199.73L334.39 195.53C334.44 195.33 334.535 195.175 334.675 195.065C334.815 194.955 334.995 194.9 335.215 194.9H337.135V199.745H341.245V202.385H337.135V210.725C337.135 211.205 337.25 211.58 337.48 211.85C337.72 212.12 338.045 212.255 338.455 212.255C338.685 212.255 338.875 212.23 339.025 212.18C339.185 212.12 339.32 212.06 339.43 212C339.55 211.94 339.655 211.885 339.745 211.835C339.835 211.775 339.925 211.745 340.015 211.745C340.125 211.745 340.215 211.775 340.285 211.835C340.355 211.885 340.43 211.965 340.51 212.075L341.62 213.875C341.08 214.325 340.46 214.665 339.76 214.895C339.06 215.125 338.335 215.24 337.585 215.24ZM351.51 199.37C352.65 199.37 353.685 199.555 354.615 199.925C355.555 200.295 356.355 200.82 357.015 201.5C357.685 202.18 358.2 203.01 358.56 203.99C358.92 204.97 359.1 206.065 359.1 207.275C359.1 208.495 358.92 209.595 358.56 210.575C358.2 211.555 357.685 212.39 357.015 213.08C356.355 213.77 355.555 214.3 354.615 214.67C353.685 215.04 352.65 215.225 351.51 215.225C350.36 215.225 349.315 215.04 348.375 214.67C347.435 214.3 346.63 213.77 345.96 213.08C345.3 212.39 344.785 211.555 344.415 210.575C344.055 209.595 343.875 208.495 343.875 207.275C343.875 206.065 344.055 204.97 344.415 203.99C344.785 203.01 345.3 202.18 345.96 201.5C346.63 200.82 347.435 200.295 348.375 199.925C349.315 199.555 350.36 199.37 351.51 199.37ZM351.51 212.375C352.79 212.375 353.735 211.945 354.345 211.085C354.965 210.225 355.275 208.965 355.275 207.305C355.275 205.645 354.965 204.38 354.345 203.51C353.735 202.64 352.79 202.205 351.51 202.205C350.21 202.205 349.245 202.645 348.615 203.525C347.995 204.395 347.685 205.655 347.685 207.305C347.685 208.955 347.995 210.215 348.615 211.085C349.245 211.945 350.21 212.375 351.51 212.375Z" fill="#5993C8"/>
</svg>
