<svg width="427" height="239" viewBox="0 0 427 239" fill="none" xmlns="http://www.w3.org/2000/svg">
<rect width="427" height="239" fill="#D9D9D9"/>
<g style="mix-blend-mode:luminosity">
<path d="M425 0H2C0.89543 0 0 0.89543 0 2V237C0 238.105 0.89543 239 2 239H425C426.105 239 427 238.105 427 237V2C427 0.89543 426.105 0 425 0Z" fill="#DEEBF7"/>
<path d="M5.4001 0H27C24.0174 0 21.5999 2.93696 21.5999 6.5604V232.44C21.5999 236.062 24.0174 239 27 239H5.4001C2.41752 239 0 236.063 0 232.44V6.55977C0 2.93696 2.41752 0 5.4001 0Z" fill="#D4E6F8"/>
<path d="M269.632 53.0544V185.097C269.632 187.857 267.395 190.093 264.636 190.093H131.912C129.152 190.093 126.916 187.857 126.916 185.097V53.0544C126.916 50.2951 129.152 48.0586 131.912 48.0586H264.636C267.395 48.0586 269.632 50.2951 269.632 53.0544Z" fill="#C4C5D3"/>
<path d="M176.274 135.6C156.306 135.6 140.119 119.413 140.119 99.4444C140.119 79.4763 156.306 63.2888 176.274 63.2888C196.243 63.2888 212.43 79.4763 212.43 99.4444C212.43 119.413 196.243 135.6 176.274 135.6Z" fill="#FFECC6"/>
<path d="M174.578 88.1149C175.536 88.1149 176.495 87.7488 177.227 87.0175C179.164 85.0807 182.315 85.0807 184.251 87.0175C185.715 88.4805 188.087 88.4805 189.55 87.0175C191.014 85.5545 191.014 83.1822 189.55 81.7186C184.692 76.8601 176.786 76.8601 171.928 81.7186C170.465 83.1817 170.465 85.554 171.928 87.0175C172.66 87.7488 173.618 88.1149 174.578 88.1149Z" fill="#EDBD5C"/>
<path d="M156.442 106.991C157.401 106.991 158.36 106.625 159.091 105.893C161.028 103.956 164.179 103.956 166.116 105.893C167.579 107.356 169.951 107.356 171.415 105.893C172.878 104.43 172.878 102.058 171.415 100.594C166.557 95.7358 158.651 95.7358 153.793 100.594C152.329 102.057 152.329 104.43 153.793 105.893C154.524 106.625 155.483 106.991 156.442 106.991Z" fill="#EDBD5C"/>
<path d="M213.489 110.854L231.441 74.6437C227.577 72.4236 226.063 67.6475 228.082 63.6662C230.198 59.4934 235.386 57.7811 239.67 59.8416C242.07 60.9957 243.677 63.0892 244.254 65.4406C246.522 64.4576 249.205 64.4271 251.605 65.5812C255.89 67.6417 257.648 72.6947 255.533 76.8676C253.537 80.8038 248.808 82.5471 244.681 81.0026L226.782 117.105L213.489 110.854Z" fill="#FFECC6"/>
<path d="M209.567 92.4943C212.247 87.0897 218.917 84.8236 224.467 87.4335C225.833 88.0756 227.003 88.9533 227.951 89.9925C229.69 91.8978 232.187 92.9215 234.797 93.1165C236.184 93.2202 237.576 93.5806 238.901 94.2216C244.436 96.8989 246.524 103.555 243.837 108.975C235.185 126.428 249.424 139.616 239.554 159.523C231.034 176.708 209.639 184.415 190.163 175.349C171.645 166.728 163.709 145.305 172.111 127.212C172.111 127.212 172.086 127.207 172.089 127.202C182.968 105.257 202.293 109.171 209.567 92.4943Z" fill="#F8E369"/>
<path d="M172.111 127.212C172.111 127.212 172.086 127.207 172.089 127.202C182.968 105.257 202.293 109.171 209.567 92.4943C212.247 87.0897 218.917 84.8236 224.467 87.4335C225.832 88.0756 227.003 88.9533 227.951 89.9925C228.556 90.655 229.256 91.2039 230.017 91.6554C229.851 91.9264 229.694 92.2053 229.55 92.4948C222.276 109.171 202.951 105.257 192.072 127.202C192.07 127.208 192.094 127.213 192.094 127.213C183.692 145.305 191.628 166.728 210.146 175.349C212.433 176.413 214.746 177.238 217.062 177.852C208.67 180.148 199.21 179.561 190.163 175.349C171.645 166.728 163.709 145.305 172.111 127.212Z" fill="#FBE357"/>
<path d="M206.923 167.786C216.611 167.786 225.947 162.521 230.497 153.476C231.427 151.628 230.682 149.375 228.834 148.445C226.985 147.516 224.733 148.26 223.803 150.109C219.262 159.135 208.004 162.87 198.706 158.432C196.838 157.541 194.602 158.333 193.711 160.2C192.819 162.068 193.611 164.304 195.479 165.195C199.163 166.953 203.071 167.786 206.923 167.786Z" fill="#FFE654"/>
<path d="M85.4157 47C87.4849 47 89.1623 48.6774 89.1623 50.7466V182.605C89.1623 184.674 87.4849 186.352 85.4157 186.352C83.3465 186.352 81.6691 184.674 81.6691 182.605V50.7471C81.6687 48.6774 83.3465 47 85.4157 47Z" fill="#EBF3FF"/>
<path d="M98.2661 47C100.335 47 102.013 48.6774 102.013 50.7466V90.689C102.013 92.7582 100.335 94.4356 98.2661 94.4356C96.1969 94.4356 94.5195 92.7582 94.5195 90.689V50.7466C94.5195 48.6774 96.1969 47 98.2661 47Z" fill="#EBF3FF"/>
<path d="M72.565 47C74.6342 47 76.3116 48.6774 76.3116 50.7466V90.689C76.3116 92.7582 74.6342 94.4356 72.565 94.4356C70.4958 94.4356 68.8184 92.7582 68.8184 90.689V50.7466C68.8184 48.6774 70.4958 47 72.565 47Z" fill="#EBF3FF"/>
<path d="M102.031 79.844V90.5208C102.031 98.6283 95.4587 105.201 87.3511 105.201H83.4979C75.3903 105.201 68.818 98.6283 68.818 90.5208V79.844H102.031Z" fill="#EBF3FF"/>
<path d="M105.835 190.093H64.9957C62.2365 190.093 60 187.856 60 185.097V159.733L110.831 118.385V185.097C110.831 187.856 108.595 190.093 105.835 190.093Z" fill="#FBB5A7"/>
<path d="M302.003 54.4866C289.943 54.4866 280.132 64.2978 280.132 76.3575C280.132 88.4173 289.943 98.2288 302.003 98.2288C302.63 98.2288 303.264 98.2018 303.888 98.1484L305.237 98.0334L323.874 77.7088V76.3578C323.874 64.2978 314.063 54.4866 302.003 54.4866Z" fill="#FFDD33"/>
<path d="M302.003 102.36C287.665 102.36 276 90.6953 276 76.3573C276 62.0193 287.665 50.3545 302.003 50.3545C316.341 50.3545 328.006 62.0193 328.006 76.3573H319.749C319.749 66.5719 311.788 58.611 302.003 58.611C292.218 58.611 284.256 66.5719 284.256 76.3573C284.256 86.1427 292.217 94.1036 302.003 94.1036C302.514 94.1036 303.032 94.0816 303.541 94.0381L304.244 102.265C303.502 102.328 302.749 102.36 302.003 102.36Z" fill="#FBD383"/>
<path d="M299.152 74.6924L308.968 187.899H365.218L375.033 74.6924H299.152Z" fill="#F5CAC6"/>
<path d="M337.093 74.6924V187.899H365.218L375.033 74.6924H337.093Z" fill="#99EEFF"/>
<path d="M355.67 102.944L347.496 101.776L355.265 50H396V58.2565H362.426L355.67 102.944Z" fill="#FFAE9E"/>
<path d="M364.442 99.1648C364.371 99.2011 357.143 102.765 346.147 100.841L332.609 99.0902L332.538 99.0817C315.289 97.2039 307.306 100.173 306.974 100.3L304.452 101.269L311.606 183.787H362.646L370.246 96.1313L364.442 99.1648Z" fill="#D9F5A2"/>
<path d="M364.442 99.1648C364.371 99.2012 357.143 102.765 346.147 100.841L337.093 99.6701V183.786H362.646L370.246 96.1311L364.442 99.1648Z" fill="#B3D98E"/>
<path d="M366.442 190.363H307.744L297.501 72.229H376.684L366.442 190.363ZM315.315 182.107H358.87L367.682 80.4855H306.504L315.315 182.107Z" fill="#99EEFF"/>
<path d="M321.562 96.6979L345.844 86.3782L356.163 110.66L331.882 120.979L321.562 96.6979Z" fill="#E6FBFF"/>
<path d="M319.487 151.035L333.449 128.654L355.83 142.616L341.868 164.997L319.487 151.035Z" fill="#E6FBFF"/>
<path d="M353.976 130.236C356.136 130.236 358.204 128.338 358.104 126.108C358.004 123.871 356.291 121.98 353.976 121.98C351.817 121.98 349.748 123.878 349.848 126.108C349.948 128.345 351.662 130.236 353.976 130.236Z" fill="#69BA59"/>
<path d="M319.68 125.79C321.839 125.79 323.908 123.891 323.808 121.662C323.708 119.425 321.994 117.534 319.68 117.534C317.521 117.534 315.452 119.432 315.552 121.662C315.652 123.899 317.366 125.79 319.68 125.79Z" fill="#9ACD68"/>
<path d="M328.043 176.07C330.202 176.07 332.271 174.172 332.171 171.942C332.071 169.706 330.357 167.814 328.043 167.814C325.883 167.814 323.814 169.713 323.914 171.942C324.014 174.179 325.728 176.07 328.043 176.07Z" fill="#9ACD68"/>
<path d="M337.093 72.229V80.4855H367.681L358.87 182.107H337.093V190.363H366.442L376.684 72.229H337.093Z" fill="#66E6FF"/>
<path d="M337.093 118.811L356.193 110.7L345.877 86.4065L337.093 90.1368V118.811Z" fill="#F5CAC6"/>
<path d="M337.093 130.886V161.996L341.932 165.016L355.905 142.625L337.093 130.886Z" fill="#F5CAC6"/>
</g>
<circle cx="383.5" cy="181.5" r="27.5" fill="#CC1600"/>
<path d="M383.5 172.125V190.875" stroke="white" stroke-width="3" stroke-linecap="round"/>
<path d="M374.125 181.5H392.875" stroke="white" stroke-width="3" stroke-linecap="round"/>
<rect x="367.5" y="165.5" width="32" height="32" rx="8.5" stroke="white" stroke-width="3"/>
<path d="M355.583 215.338L353.069 223H351.044L354.479 213.758H355.767L355.583 215.338ZM357.671 223L355.151 215.338L354.948 213.758H356.25L359.703 223H357.671ZM357.557 219.56V221.051H352.676V219.56H357.557ZM364.501 221.502V213.25H366.342V223H364.686L364.501 221.502ZM360.16 219.648V219.515C360.16 218.99 360.219 218.514 360.337 218.087C360.456 217.655 360.629 217.285 360.858 216.976C361.086 216.667 361.368 216.428 361.702 216.259C362.036 216.09 362.417 216.005 362.845 216.005C363.247 216.005 363.598 216.09 363.898 216.259C364.203 216.428 364.461 216.669 364.673 216.982C364.889 217.291 365.062 217.657 365.193 218.081C365.325 218.5 365.42 218.959 365.479 219.458V219.75C365.42 220.228 365.325 220.673 365.193 221.083C365.062 221.493 364.889 221.853 364.673 222.162C364.461 222.467 364.203 222.704 363.898 222.873C363.594 223.042 363.238 223.127 362.832 223.127C362.405 223.127 362.024 223.04 361.689 222.867C361.359 222.693 361.08 222.45 360.852 222.137C360.627 221.824 360.456 221.455 360.337 221.032C360.219 220.609 360.16 220.148 360.16 219.648ZM361.988 219.515V219.648C361.988 219.932 362.009 220.196 362.051 220.442C362.098 220.687 362.172 220.905 362.273 221.096C362.379 221.282 362.515 221.428 362.68 221.534C362.849 221.635 363.054 221.686 363.295 221.686C363.609 221.686 363.867 221.616 364.07 221.477C364.273 221.333 364.427 221.136 364.533 220.886C364.643 220.637 364.707 220.349 364.724 220.023V219.191C364.711 218.925 364.673 218.686 364.609 218.474C364.55 218.258 364.461 218.074 364.343 217.922C364.229 217.77 364.085 217.651 363.911 217.566C363.742 217.482 363.541 217.439 363.308 217.439C363.071 217.439 362.868 217.494 362.699 217.604C362.529 217.71 362.392 217.856 362.286 218.042C362.185 218.229 362.108 218.449 362.058 218.703C362.011 218.952 361.988 219.223 361.988 219.515ZM371.827 221.502V213.25H373.667V223H372.011L371.827 221.502ZM367.485 219.648V219.515C367.485 218.99 367.544 218.514 367.663 218.087C367.781 217.655 367.955 217.285 368.183 216.976C368.412 216.667 368.693 216.428 369.027 216.259C369.362 216.09 369.743 216.005 370.17 216.005C370.572 216.005 370.923 216.09 371.224 216.259C371.528 216.428 371.786 216.669 371.998 216.982C372.214 217.291 372.387 217.657 372.519 218.081C372.65 218.5 372.745 218.959 372.804 219.458V219.75C372.745 220.228 372.65 220.673 372.519 221.083C372.387 221.493 372.214 221.853 371.998 222.162C371.786 222.467 371.528 222.704 371.224 222.873C370.919 223.042 370.563 223.127 370.157 223.127C369.73 223.127 369.349 223.04 369.015 222.867C368.685 222.693 368.405 222.45 368.177 222.137C367.952 221.824 367.781 221.455 367.663 221.032C367.544 220.609 367.485 220.148 367.485 219.648ZM369.313 219.515V219.648C369.313 219.932 369.334 220.196 369.376 220.442C369.423 220.687 369.497 220.905 369.599 221.096C369.704 221.282 369.84 221.428 370.005 221.534C370.174 221.635 370.379 221.686 370.621 221.686C370.934 221.686 371.192 221.616 371.395 221.477C371.598 221.333 371.753 221.136 371.858 220.886C371.968 220.637 372.032 220.349 372.049 220.023V219.191C372.036 218.925 371.998 218.686 371.935 218.474C371.875 218.258 371.786 218.074 371.668 217.922C371.554 217.77 371.41 217.651 371.236 217.566C371.067 217.482 370.866 217.439 370.633 217.439C370.396 217.439 370.193 217.494 370.024 217.604C369.855 217.71 369.717 217.856 369.611 218.042C369.51 218.229 369.434 218.449 369.383 218.703C369.336 218.952 369.313 219.223 369.313 219.515ZM382.046 219.706H379.691V218.22H382.046C382.41 218.22 382.707 218.161 382.935 218.042C383.164 217.92 383.331 217.75 383.437 217.535C383.542 217.319 383.595 217.076 383.595 216.805C383.595 216.53 383.542 216.274 383.437 216.037C383.331 215.8 383.164 215.609 382.935 215.465C382.707 215.321 382.41 215.25 382.046 215.25H380.352V223H378.447V213.758H382.046C382.77 213.758 383.39 213.889 383.906 214.151C384.427 214.41 384.825 214.767 385.1 215.224C385.375 215.681 385.512 216.204 385.512 216.792C385.512 217.389 385.375 217.905 385.1 218.341C384.825 218.777 384.427 219.113 383.906 219.35C383.39 219.587 382.77 219.706 382.046 219.706ZM388.496 213.25V223H386.667V213.25H388.496ZM388.235 219.325H387.734C387.738 218.847 387.802 218.406 387.924 218.004C388.047 217.598 388.223 217.247 388.451 216.951C388.68 216.65 388.953 216.417 389.27 216.252C389.592 216.087 389.947 216.005 390.336 216.005C390.675 216.005 390.982 216.054 391.257 216.151C391.536 216.244 391.775 216.396 391.974 216.608C392.177 216.815 392.334 217.088 392.444 217.427C392.554 217.765 392.609 218.176 392.609 218.658V223H390.768V218.646C390.768 218.341 390.724 218.102 390.635 217.928C390.55 217.75 390.425 217.626 390.26 217.554C390.099 217.478 389.901 217.439 389.664 217.439C389.401 217.439 389.177 217.488 388.991 217.585C388.809 217.683 388.663 217.818 388.553 217.992C388.443 218.161 388.362 218.36 388.312 218.588C388.261 218.817 388.235 219.062 388.235 219.325ZM393.707 219.636V219.502C393.707 218.999 393.779 218.535 393.923 218.112C394.067 217.685 394.276 217.315 394.551 217.001C394.826 216.688 395.165 216.445 395.567 216.271C395.969 216.094 396.43 216.005 396.951 216.005C397.471 216.005 397.935 216.094 398.341 216.271C398.747 216.445 399.088 216.688 399.363 217.001C399.642 217.315 399.854 217.685 399.998 218.112C400.141 218.535 400.213 218.999 400.213 219.502V219.636C400.213 220.135 400.141 220.598 399.998 221.026C399.854 221.449 399.642 221.819 399.363 222.137C399.088 222.45 398.749 222.693 398.347 222.867C397.945 223.04 397.484 223.127 396.963 223.127C396.443 223.127 395.979 223.04 395.573 222.867C395.171 222.693 394.831 222.45 394.551 222.137C394.276 221.819 394.067 221.449 393.923 221.026C393.779 220.598 393.707 220.135 393.707 219.636ZM395.535 219.502V219.636C395.535 219.924 395.561 220.192 395.611 220.442C395.662 220.692 395.743 220.912 395.853 221.102C395.967 221.288 396.115 221.434 396.297 221.54C396.479 221.646 396.701 221.699 396.963 221.699C397.217 221.699 397.435 221.646 397.617 221.54C397.799 221.434 397.945 221.288 398.055 221.102C398.165 220.912 398.246 220.692 398.296 220.442C398.351 220.192 398.379 219.924 398.379 219.636V219.502C398.379 219.223 398.351 218.961 398.296 218.715C398.246 218.466 398.163 218.246 398.049 218.055C397.939 217.861 397.793 217.708 397.611 217.598C397.429 217.488 397.209 217.433 396.951 217.433C396.693 217.433 396.472 217.488 396.291 217.598C396.113 217.708 395.967 217.861 395.853 218.055C395.743 218.246 395.662 218.466 395.611 218.715C395.561 218.961 395.535 219.223 395.535 219.502ZM404.701 216.132V217.427H400.702V216.132H404.701ZM401.692 214.437H403.521V220.931C403.521 221.13 403.546 221.282 403.597 221.388C403.652 221.493 403.732 221.568 403.838 221.61C403.944 221.648 404.077 221.667 404.238 221.667C404.352 221.667 404.454 221.663 404.542 221.654C404.636 221.642 404.714 221.629 404.777 221.616L404.784 222.962C404.627 223.013 404.458 223.053 404.276 223.083C404.094 223.112 403.893 223.127 403.673 223.127C403.271 223.127 402.92 223.061 402.619 222.93C402.323 222.795 402.094 222.579 401.934 222.283C401.773 221.986 401.692 221.597 401.692 221.115V214.437ZM405.285 219.636V219.502C405.285 218.999 405.357 218.535 405.501 218.112C405.645 217.685 405.854 217.315 406.129 217.001C406.404 216.688 406.743 216.445 407.145 216.271C407.547 216.094 408.008 216.005 408.529 216.005C409.049 216.005 409.513 216.094 409.919 216.271C410.325 216.445 410.666 216.688 410.941 217.001C411.22 217.315 411.432 217.685 411.576 218.112C411.72 218.535 411.792 218.999 411.792 219.502V219.636C411.792 220.135 411.72 220.598 411.576 221.026C411.432 221.449 411.22 221.819 410.941 222.137C410.666 222.45 410.327 222.693 409.925 222.867C409.523 223.04 409.062 223.127 408.542 223.127C408.021 223.127 407.558 223.04 407.151 222.867C406.749 222.693 406.409 222.45 406.129 222.137C405.854 221.819 405.645 221.449 405.501 221.026C405.357 220.598 405.285 220.135 405.285 219.636ZM407.113 219.502V219.636C407.113 219.924 407.139 220.192 407.189 220.442C407.24 220.692 407.321 220.912 407.431 221.102C407.545 221.288 407.693 221.434 407.875 221.54C408.057 221.646 408.279 221.699 408.542 221.699C408.795 221.699 409.013 221.646 409.195 221.54C409.377 221.434 409.523 221.288 409.633 221.102C409.743 220.912 409.824 220.692 409.875 220.442C409.93 220.192 409.957 219.924 409.957 219.636V219.502C409.957 219.223 409.93 218.961 409.875 218.715C409.824 218.466 409.741 218.246 409.627 218.055C409.517 217.861 409.371 217.708 409.189 217.598C409.007 217.488 408.787 217.433 408.529 217.433C408.271 217.433 408.051 217.488 407.869 217.598C407.691 217.708 407.545 217.861 407.431 218.055C407.321 218.246 407.24 218.466 407.189 218.715C407.139 218.961 407.113 219.223 407.113 219.502Z" fill="black"/>
</svg>
