<svg width="427" height="239" viewBox="0 0 427 239" fill="none" xmlns="http://www.w3.org/2000/svg">
<path d="M252.19 177.676C252.211 177.661 252.236 177.65 252.261 177.638C253.14 177.166 254.365 176.815 254.339 176.696C254.282 176.432 251.942 176.156 250.722 175.177C249.192 173.949 248.352 172.59 248.189 172.723C248.138 172.767 248.51 173.274 248.319 174.875C248.265 175.281 248.189 175.74 248.05 176.298C248.003 176.491 247.997 176.668 248.001 176.839C247.964 176.828 247.929 176.818 247.929 176.818C247.929 176.818 247.819 176.771 247.667 176.709C247.384 176.596 246.874 176.418 246.25 176.303C245.158 176.103 243.706 176.095 242.462 176.99C240.117 178.671 237.367 182.378 235.986 183.848C234.604 185.316 229.247 188.936 227.353 189.71C225.146 190.607 219.266 192.425 216.26 192.157C213.253 191.888 208.093 190.906 207.3 190.566C206.137 190.069 201.996 188.568 200.872 187.794C199.658 186.964 195.164 186.997 192.93 189.168C192.761 188.921 192.195 188.503 191.686 187.717C191.136 186.87 190.682 185.603 190.566 185.642C190.421 185.683 190.318 186.424 190.108 187.291C189.953 187.926 189.735 188.625 189.397 189.178C189.364 189.234 189.335 189.299 189.298 189.354C189.128 189.595 188.957 189.816 188.786 190.028C187.82 191.221 186.9 191.918 187.023 192.051C187.056 192.082 187.288 191.908 187.919 191.814C188.465 191.732 189.299 191.714 190.601 191.944C190.884 191.996 191.138 191.97 191.372 191.91C190.797 193.516 190.529 195.633 192.103 197.254C195.013 200.256 199.912 202.363 202.591 203.317C204.887 204.132 210.757 206.117 217.981 205.583C223.953 205.139 228.875 204.341 236.167 200.481C243.458 196.625 249.26 189.527 249.26 189.527C249.26 189.527 250.527 188.269 251.44 186.482C252.252 184.893 252.784 182.889 251.866 180.962C251.598 180.394 251.317 179.925 251.031 179.5C250.878 179.271 250.729 179.05 250.579 178.86C250.581 178.859 250.584 178.857 250.585 178.857C250.828 178.775 251.304 178.167 252.19 177.676Z" fill="#D85335"/>
<path d="M427 0H0V239H427V0Z" fill="url(#paint0_linear_94_1200)"/>
<path opacity="0.2" d="M102.141 213.464C101.458 208.704 88.71 184.855 88.71 184.855C87.9391 183.263 87.2095 181.715 86.5713 180.31C83.8496 174.289 77.9371 157.061 76.6969 153.1C75.4699 149.131 76.0459 149.358 76.2423 147.039C76.4289 144.725 78.2876 142.286 77.4311 137.978C76.5878 133.663 72.2503 124.9 68.3216 116.227C64.3867 107.563 64.9101 109.298 65.3558 110.55C65.7928 111.814 73.6514 134.052 73.8876 135.332C74.1223 136.625 72.3943 137.21 71.9477 136.329C71.4938 135.444 71.1787 134.71 69.189 130.026C67.2032 125.327 61.5795 111.592 61.3646 111.766C61.1381 111.958 69.7347 136.227 70.1175 137.409C70.4513 138.468 69.753 138.65 69.5823 138.737L69.5538 138.746C69.3809 138.846 68.7784 139.317 68.3842 138.288C67.9552 137.132 59.652 112.713 59.3818 112.774C59.1214 112.828 63.2921 127.317 64.6749 132.323C66.0587 137.321 66.256 138.115 66.4663 139.111C66.6739 140.126 65.1202 141.206 64.5277 140.101C63.9285 138.991 56.3107 116.637 55.8735 115.374C55.4369 114.119 54.7875 112.452 57.1422 121.92C59.5101 131.395 61.6558 141.262 63.5901 145.025C65.5365 148.784 68.2801 148.868 69.7823 150.318C71.296 151.785 71.5605 151.116 73.0359 154.962C74.5186 158.8 80.5326 175.973 82.1782 182.554C83.0662 186.114 84.0622 190.64 84.8916 194.732C84.8916 194.732 89.2915 216.136 90.9765 218.046C95.3058 222.955 102.825 218.224 102.141 213.464Z" fill="#8C877C"/>
<path opacity="0.2" d="M96.6988 92.7539L151.203 219.196L63.6254 185.038L96.6988 92.7539Z" fill="#8C877C"/>
<path d="M101.712 92.7539L156.216 219.196L68.6382 185.038L101.712 92.7539Z" fill="#6D893B"/>
<path d="M104.42 211.869C103.736 207.109 90.9885 183.26 90.9885 183.26C90.2177 181.668 89.4881 180.12 88.8499 178.715C86.1281 172.694 80.2157 155.466 78.9755 151.505C77.7484 147.536 78.3245 147.763 78.5209 145.444C78.7075 143.13 80.5661 140.691 79.7096 136.383C78.8663 132.068 74.5288 123.305 70.6001 114.632C66.6653 105.968 67.1886 107.703 67.6343 108.956C68.0714 110.219 75.9299 132.457 76.1662 133.737C76.4009 135.03 74.6728 135.615 74.2262 134.734C73.7723 133.849 73.4572 133.115 71.4676 128.431C69.4818 123.732 63.8581 109.997 63.6432 110.171C63.4167 110.363 72.0133 134.632 72.3961 135.814C72.7299 136.873 72.0315 137.055 71.8608 137.142L71.8324 137.151C71.6594 137.251 71.057 137.722 70.6628 136.693C70.2337 135.537 61.9306 111.117 61.6604 111.179C61.3999 111.233 65.5706 125.722 66.9535 130.728C68.3373 135.726 68.5346 136.52 68.7449 137.516C68.9525 138.531 67.3987 139.611 66.8063 138.506C66.207 137.396 58.5893 115.041 58.1521 113.779C57.7155 112.524 57.0661 110.857 59.4208 120.324C61.7887 129.8 63.9344 139.667 65.8687 143.429C67.815 147.189 70.5586 147.273 72.0609 148.723C73.5746 150.19 73.8391 149.52 75.3145 153.367C76.7971 157.205 82.8112 174.378 84.4568 180.959C85.3448 184.518 86.3407 189.045 87.1701 193.137C87.1701 193.137 91.57 214.541 93.255 216.451C97.5843 221.36 105.104 216.629 104.42 211.869Z" fill="#E8E1D4"/>
<path opacity="0.2" d="M306.256 121.957C306.256 175.476 260.665 218.86 204.429 218.86C148.194 218.86 102.604 175.476 102.604 121.957C102.604 68.4395 148.194 25.0548 204.429 25.0548C260.665 25.0548 306.256 68.4395 306.256 121.957Z" fill="#8C877C"/>
<path d="M301.333 126.508C301.333 180.027 257.948 223.411 204.43 223.411C150.913 223.411 107.527 180.027 107.527 126.508C107.527 72.9901 150.913 29.6061 204.43 29.6061C257.948 29.6061 301.333 72.9901 301.333 126.508Z" fill="#FFF4DC"/>
<path opacity="0.2" d="M271.412 126.508C271.412 163.502 241.424 193.49 204.43 193.49C167.438 193.49 137.448 163.502 137.448 126.508C137.448 89.5149 167.438 59.5269 204.43 59.5269C241.424 59.5266 271.412 89.5149 271.412 126.508Z" fill="#8C877C"/>
<path d="M138.897 91.1671C118.332 111.476 119.285 118.366 123.801 123.647C125.837 126.029 128.158 127.117 136.188 128.194C136.188 128.194 154.451 150.733 159.484 155.347C160.593 156.363 161.78 156.961 163.011 157.234C163.038 128.766 165.168 100.751 165.175 72.4578C159.872 73.4168 152.024 78.3613 138.897 91.1671Z" fill="#EACB9D"/>
<path d="M204.295 111.376C199.796 106.236 177.457 87.696 177.457 87.696C176.798 79.3858 175.804 76.9979 173.45 74.9273C171.31 73.0459 168.856 71.792 165.175 72.4578C165.169 100.752 163.038 128.766 163.011 157.234C170.723 158.943 180.163 147.827 182.84 145.778C183.666 145.146 185.564 143.365 187.899 141.103C190.379 138.641 192.334 136.64 193.037 135.772C195.678 132.51 211.491 119.595 204.295 111.376Z" fill="#D6B890"/>
<path d="M286.424 148.839L287.894 148.003L242.586 68.3215L241.116 69.1573L286.424 148.839Z" fill="#3F0C04"/>
<path d="M270.13 136.705C269.522 135.635 272.538 132.771 276.867 130.311C281.195 127.85 285.198 126.722 285.806 127.792C286.414 128.86 283.397 131.724 279.069 134.185C274.741 136.645 270.738 137.773 270.13 136.705Z" fill="#D85B1D"/>
<path d="M252.451 105.61C251.687 104.267 254.578 101.182 258.906 98.7209C263.234 96.2602 267.363 95.3545 268.127 96.6971C268.891 98.041 266 101.125 261.672 103.586C257.344 106.046 253.215 106.954 252.451 105.61Z" fill="#7D9F3D"/>
<path d="M265.396 128.377C264.242 126.348 266.817 122.707 271.145 120.246C275.473 117.786 279.918 117.435 281.071 119.464C282.225 121.493 279.65 125.133 275.322 127.594C270.994 130.055 266.549 130.406 265.396 128.377Z" fill="#EACE57"/>
<path d="M258.811 118.507C257.657 116.479 260.232 112.839 264.56 110.378C268.89 107.917 273.333 107.566 274.486 109.595C275.641 111.625 273.067 115.264 268.737 117.725C264.409 120.186 259.965 120.538 258.811 118.507Z" fill="#634253"/>
<path d="M245.273 92.9846C243.389 89.6711 245.371 84.9886 249.699 82.5278C254.027 80.0669 259.065 80.7582 260.949 84.0717C262.833 87.3852 260.85 92.0677 256.522 94.5283C252.194 96.9892 247.157 96.2983 245.273 92.9846Z" fill="#AB483A"/>
<path d="M232.069 54.3885C234.431 53.0455 237.331 51.8507 240.211 52.5939C242.312 53.1353 244.091 54.6636 245.495 57.1331C247.047 59.8628 247.428 62.3916 246.627 64.651C245.352 68.2473 241.551 69.7682 241.387 69.8334L240.857 68.479C240.888 68.4644 244.214 67.1255 245.26 64.1563C245.91 62.3143 245.563 60.1936 244.231 57.8517C243.029 55.7363 241.554 54.4418 239.847 54.0014C237.109 53.2962 234.155 54.7877 231.906 56.1745L231.148 54.9331C231.444 54.752 231.751 54.5688 232.069 54.3885Z" fill="#3F0C04"/>
<path opacity="0.2" d="M108.535 46.823C108.535 64.6704 93.6406 79.1373 75.2676 79.1373C56.8948 79.1373 42 64.6704 42 46.823C42 28.9766 56.8948 14.509 75.2676 14.509C93.6409 14.509 108.535 28.9766 108.535 46.823Z" fill="#8C877C"/>
<path d="M112.054 46.3138C112.054 64.1612 97.1604 78.6283 78.7871 78.6283C60.4143 78.6283 45.5195 64.1612 45.5195 46.3138C45.5195 28.4673 60.4143 14 78.7871 14C97.1604 13.9998 112.054 28.4671 112.054 46.3138Z" fill="#EDE9D6"/>
<path opacity="0.2" d="M104.569 42.7202C104.569 57.4749 93.0264 69.4369 78.7876 69.4369C64.5483 69.4369 53.006 57.4747 53.006 42.7202C53.006 27.9644 64.5483 16.0033 78.7876 16.0033C93.0264 16.0033 104.569 27.9644 104.569 42.7202Z" fill="#8C877C"/>
<path d="M78.7875 65.7666C91.8944 65.7666 102.52 55.1414 102.52 42.0346C102.52 28.9278 91.8944 18.3026 78.7875 18.3026C65.6807 18.3026 55.0555 28.9278 55.0555 42.0346C55.0555 55.1414 65.6807 65.7666 78.7875 65.7666Z" fill="#FCF9EB"/>
<path d="M78.7873 62.3322C90.1142 62.3322 99.2965 53.2447 99.2965 42.0347C99.2965 30.8247 90.1142 21.7372 78.7873 21.7372C67.4604 21.7372 58.2781 30.8247 58.2781 42.0347C58.2781 53.2447 67.4604 62.3322 78.7873 62.3322Z" fill="#47331B"/>
<path d="M98.5109 42.6856C98.5109 53.8953 89.0865 63.2709 77.7594 63.2709C66.4327 63.2709 57.4929 53.8953 57.4929 42.6856C57.4929 31.4755 66.6751 22.3875 78.0021 22.3875C89.3287 22.3875 98.5109 31.4755 98.5109 42.6856Z" fill="#47331B"/>
<path d="M59.2921 28.4988L56.7736 33.1564C56.7736 33.1564 50.6937 28.1467 48.3802 27.8385C46.7914 27.6261 47.0033 28.0508 47.3214 29.0039C47.6388 29.9575 43.984 25.0832 49.1224 23.6003C51.2831 22.9771 59.2921 28.4988 59.2921 28.4988Z" fill="#FCF9EB"/>
<path d="M55.6956 36.541L56.7736 33.1564C56.7736 33.1564 50.6734 27.7459 47.7978 27.7316C46.8445 27.7275 46.8923 28.7547 47.3159 29.1256L55.6956 36.541Z" fill="#DDDACA"/>
<path opacity="0.4" d="M47.1208 28.9271L55.2323 39.124C55.2763 38.19 55.6956 36.541 55.6956 36.541L47.1208 28.9271Z" fill="#7C776D"/>
<path d="M182.826 127.298C177.955 93.154 191.783 81.6864 192.373 81.2134L195.327 84.9151L193.849 83.0654L195.341 84.9033C195.218 85.0045 183.066 95.446 187.514 126.629L182.826 127.298Z" fill="#D1A63D"/>
<path d="M191.298 126.698L186.711 125.521C196.298 88.1581 196.588 66.835 196.588 66.6233L201.323 66.6586C201.316 67.5411 201.047 88.7017 191.298 126.698Z" fill="#D1A63D"/>
<path d="M225.861 111.576L221.163 110.982C223.764 90.2921 238.679 82.5969 239.312 82.2793L241.432 86.5127L240.371 84.3972L241.439 86.5104C240.896 86.7861 228.136 93.4812 225.861 111.576Z" fill="#D1A63D"/>
<path d="M204.09 116.012C200.535 88.1157 203.956 67.1291 204.104 66.2489L208.773 67.0302C208.738 67.2396 205.326 88.2522 208.787 115.414L204.09 116.012Z" fill="#D1A63D"/>
<path d="M221.472 119.892C212.35 89.2615 219.055 83.1194 220.49 82.1993L223.046 86.1857C223.046 86.1857 223.109 86.1577 223.206 86.0704C223.152 86.1199 217.911 91.3419 226.009 118.541L221.472 119.892Z" fill="#D1A63D"/>
<path d="M216.897 120.224C206.192 90.6292 212.531 61.0625 212.807 59.8152L217.431 60.8364C217.368 61.1283 211.124 90.349 221.349 118.617L216.897 120.224Z" fill="#D1A63D"/>
<path d="M174.134 131.753C174.134 131.753 175.42 129.812 175.378 127.848C175.299 124.214 172.238 118.772 163.826 118.203C150.876 117.328 145.585 131.87 144.919 135.498C144.25 139.122 142.113 149.487 151.728 157.969C161.348 166.451 171.066 167.086 181.907 160.665C193.098 154.036 190.636 143.08 189.711 140.383C188.789 137.688 183.607 130.861 176.277 133.627C172.069 135.218 173.985 132.469 174.134 131.753Z" fill="#EF4E29"/>
<path d="M166.994 135.035C166.994 135.035 171.951 128.393 167.749 124.56C164.56 121.649 159.607 122.603 155.157 127.057C150.711 131.512 147.268 141.37 150.326 146.383C152.322 149.659 156.037 151.717 160.049 145.558C161.552 143.247 158.244 139.07 160.003 136.721C160.825 135.625 163.577 133.037 166.994 135.035Z" fill="#D72E2A"/>
<path d="M165.357 128.619C165.357 128.619 164.963 125.649 166.236 126.005C167.509 126.36 166.726 127.401 165.357 128.619Z" fill="#6E8ABE"/>
<path d="M161.855 128.08C161.855 128.08 159.648 126.057 160.852 125.513C162.057 124.968 162.125 126.268 161.855 128.08Z" fill="#6E8ABE"/>
<path d="M157.386 131.551C157.386 131.551 154.397 131.721 154.847 130.48C155.295 129.239 156.273 130.09 157.386 131.551Z" fill="#6E8ABE"/>
<path d="M155.755 137.23C155.755 137.23 152.851 137.955 153.061 136.651C153.273 135.347 154.392 136.005 155.755 137.23Z" fill="#6E8ABE"/>
<path d="M155.147 141.992C155.147 141.992 152.737 143.768 152.434 142.482C152.133 141.195 153.42 141.378 155.147 141.992Z" fill="#6E8ABE"/>
<path d="M155.279 145.864C155.279 145.864 153.522 148.289 152.844 147.157C152.166 146.02 153.448 145.807 155.279 145.864Z" fill="#6E8ABE"/>
<path d="M154.852 139.214C154.852 139.214 152.923 140.364 152.791 139.384C152.658 138.401 153.607 138.631 154.852 139.214Z" fill="#6E8ABE"/>
<path d="M156.216 134.078C156.216 134.078 153.972 134.131 154.341 133.212C154.71 132.29 155.42 132.959 156.216 134.078Z" fill="#6E8ABE"/>
<path d="M159.114 128.834C159.114 128.834 156.912 128.385 157.478 127.57C158.043 126.756 158.587 127.564 159.114 128.834Z" fill="#6E8ABE"/>
<path d="M173.989 141.463C173.989 141.463 184.249 136.67 185.446 145.469C186.648 154.265 174.363 158.466 170.288 158.381C167.607 158.324 148.84 157.186 162.578 148.335C164.725 146.949 173.585 151.412 175.199 146.948C176.815 142.483 173.989 141.463 173.989 141.463Z" fill="#D72E2A"/>
<path d="M180.098 143.624C180.098 143.624 183.053 144.115 182.741 142.83C182.427 141.548 181.364 142.294 180.098 143.624Z" fill="#6E8ABE"/>
<path d="M180.52 147.139C180.52 147.139 182.47 149.412 183.056 148.226C183.637 147.041 182.341 146.93 180.52 147.139Z" fill="#6E8ABE"/>
<path d="M176.904 151.492C176.904 151.492 176.634 154.475 177.89 154.067C179.148 153.659 178.325 152.654 176.904 151.492Z" fill="#6E8ABE"/>
<path d="M171.174 152.932C171.174 152.932 170.351 155.81 171.665 155.643C172.974 155.476 172.352 154.334 171.174 152.932Z" fill="#6E8ABE"/>
<path d="M166.396 153.383C166.396 153.383 164.539 155.732 165.817 156.077C167.091 156.421 166.95 155.128 166.396 153.383Z" fill="#6E8ABE"/>
<path d="M162.527 153.122C162.527 153.122 160.044 154.797 161.156 155.514C162.265 156.229 162.527 154.954 162.527 153.122Z" fill="#6E8ABE"/>
<path d="M169.161 153.771C169.161 153.771 167.948 155.657 168.923 155.824C169.902 155.987 169.704 155.034 169.161 153.771Z" fill="#6E8ABE"/>
<path d="M174.338 152.577C174.338 152.577 174.212 154.817 175.142 154.481C176.075 154.142 175.433 153.409 174.338 152.577Z" fill="#6E8ABE"/>
<path d="M179.676 149.856C179.676 149.856 180.053 152.068 180.886 151.533C181.718 150.994 180.928 150.423 179.676 149.856Z" fill="#6E8ABE"/>
<path d="M183.327 115.866L178.599 115.56C179.524 101.292 174.585 83.0188 174.535 82.8351L179.101 81.5856C179.315 82.3644 184.301 100.793 183.327 115.866Z" fill="#D1A63D"/>
<path d="M204.464 87.5508H199.732V119.419H204.464V87.5508Z" fill="#D1A63D"/>
<path d="M189.396 118.741L184.812 117.548C190.776 94.6461 180.08 77.1471 179.969 76.973L183.979 74.455C184.468 75.2315 195.891 93.7848 189.396 118.741Z" fill="#F4BF3D"/>
<path d="M197.035 119.207L192.804 117.087C203.879 94.9851 187.071 61.7423 186.9 61.4083L191.11 59.2434C191.853 60.6905 209.194 94.9473 197.035 119.207Z" fill="#F4BF3D"/>
<path d="M178.799 111.58L174.102 110.98C176.281 93.9566 167.508 86.2753 167.422 86.2001L170.488 82.5924C170.93 82.9693 181.301 92.0385 178.799 111.58Z" fill="#F4BF3D"/>
<path d="M226.562 113.821C226.166 90.2642 231.546 70.398 231.777 69.5647L236.342 70.8191C236.288 71.0166 230.911 90.8926 231.297 113.741L226.562 113.821Z" fill="#F4BF3D"/>
<path d="M219.431 121.669C215.885 101.517 223.549 74.876 223.879 73.7535L228.423 75.0783C228.348 75.3442 220.739 101.795 224.096 120.85L219.431 121.669Z" fill="#F4BF3D"/>
<path d="M207.634 124.022C207.128 122.224 195.315 79.8109 203.459 61.4857L207.787 63.4107C200.33 80.1898 212.073 122.314 212.193 122.737L207.634 124.022Z" fill="#F4BF3D"/>
<path d="M215.864 118.626C215.407 117.831 204.766 98.9574 210.115 82.8419C212.586 75.3985 218.036 69.8024 226.315 66.2065L228.202 70.5506C221.211 73.5864 216.638 78.2224 214.609 84.3314C209.92 98.4629 219.872 116.098 219.973 116.275L215.864 118.626Z" fill="#F4BF3D"/>
<path d="M187.311 114.785C198.289 102.726 215.172 114.492 226.439 111.746C243.734 107.532 245.615 124.313 248.321 133.869C252.574 148.884 241.143 164.866 222.575 171.789C204.005 178.711 174.55 162.164 174.869 142.44C175.103 127.954 182.591 119.97 187.311 114.785Z" fill="white"/>
<path d="M228.122 140.453C228.122 149.393 220.875 156.64 211.934 156.64C202.995 156.64 195.749 149.393 195.749 140.453C195.749 131.511 202.995 124.265 211.934 124.265C220.875 124.265 228.122 131.511 228.122 140.453Z" fill="#F9BB21"/>
<path d="M221.386 133.406C221.386 134.677 220.354 135.708 219.083 135.708C217.813 135.708 216.782 134.677 216.782 133.406C216.782 132.135 217.813 131.105 219.083 131.105C220.354 131.105 221.386 132.135 221.386 133.406Z" fill="#FFF7E3"/>
<path opacity="0.2" d="M206.285 152.507C197.491 148.306 196.559 139.853 197.071 134.176C196.222 136.141 195.749 138.306 195.749 140.583C195.749 149.523 202.995 156.77 211.934 156.77C216.935 156.77 221.401 154.502 224.37 150.941C219.8 154.126 213.748 156.071 206.285 152.507Z" fill="#8C877C"/>
<path opacity="0.1" d="M237.952 120.022C239.411 122.457 239.149 125.299 237.364 126.37C235.579 127.439 232.949 126.33 231.488 123.893C230.029 121.458 230.292 118.614 232.077 117.545C233.862 116.476 236.492 117.584 237.952 120.022Z" fill="#8C877C"/>
<path opacity="0.1" d="M237.37 132.427C238.109 133.658 237.976 135.097 237.072 135.64C236.169 136.181 234.838 135.619 234.098 134.386C233.36 133.153 233.493 131.714 234.396 131.173C235.3 130.632 236.63 131.192 237.37 132.427Z" fill="#8C877C"/>
<path d="M190.905 176.479C195.006 177.391 198.88 177.846 202.753 178.074C223.329 178.261 242.522 168.313 258.947 156.046C258.873 155.148 258.64 154.242 258.193 153.351C257.782 152.522 257.352 151.836 256.916 151.216C256.685 150.884 256.455 150.564 256.229 150.285C256.233 150.285 256.236 150.281 256.241 150.281C256.596 150.149 257.28 149.237 258.574 148.485C258.605 148.463 258.641 148.444 258.678 148.429C259.965 147.706 261.766 147.144 261.722 146.972C261.626 146.583 258.161 146.245 256.331 144.835C254.028 143.068 252.749 141.08 252.508 141.286C252.433 141.354 253.001 142.088 252.766 144.463C252.702 145.064 252.603 145.743 252.411 146.578C252.35 146.861 252.345 147.122 252.354 147.374C252.302 147.359 252.25 147.346 252.25 147.346C252.25 147.346 252.087 147.279 251.858 147.192C250.702 146.758 247.022 145.634 244.173 147.764C240.76 150.323 236.808 155.888 234.81 158.099C232.808 160.312 225.001 165.824 222.226 167.027C218.991 168.421 210.355 171.285 205.904 170.979C201.447 170.676 193.792 169.381 192.611 168.902C190.876 168.201 184.707 166.11 183.024 165.001C181.205 163.808 174.56 163.992 171.323 167.272C171.067 166.909 170.218 166.31 169.443 165.164C168.605 163.927 167.894 162.07 167.723 162.128C167.511 162.195 167.381 163.296 167.098 164.582C167.051 164.794 166.998 165.01 166.941 165.228C169.43 167.466 172.101 168.852 174.955 169.871C180.423 171.922 185.208 175.112 190.905 176.479Z" fill="#BA4D42"/>
<path d="M202.753 178.074C198.88 177.846 195.006 177.391 190.905 176.479C185.208 175.112 180.423 171.922 174.955 169.871C172.101 168.852 169.43 167.466 166.941 165.228C166.742 165.981 166.477 166.748 166.102 167.393C166.053 167.476 166.016 167.573 165.96 167.655C164.355 170.07 162.46 171.486 162.681 171.709C162.73 171.755 163.067 171.492 163.999 171.333C164.801 171.195 166.035 171.144 167.969 171.445C168.389 171.513 168.76 171.468 169.105 171.374C168.303 173.762 167.971 176.9 170.347 179.248C174.74 183.596 182.045 186.562 186.033 187.894C189.457 189.03 198.192 191.782 208.853 190.776C217.669 189.937 224.918 188.605 235.58 182.682C246.241 176.76 254.605 166.091 254.605 166.091C254.605 166.091 256.438 164.194 257.733 161.526C258.521 159.901 259.108 157.992 258.947 156.046C242.522 168.313 223.329 178.262 202.753 178.074Z" fill="#AB483A"/>
<path d="M226.338 187.966C228.044 187.809 228.886 187.665 229.181 187.764C229.475 187.865 232.676 190.794 233.616 191.427C234.558 192.06 235.213 192.181 235.385 191.999C235.559 191.817 235.329 191.043 235.433 190.899C235.535 190.755 236.499 191.663 236.738 191.573C236.978 191.484 236.765 190.807 236.854 190.743C236.945 190.676 237.48 191.146 237.786 190.842C238.092 190.539 238.351 190.724 238.603 190.252C238.855 189.777 238.065 189.299 237.827 189.083C237.589 188.87 237.691 188.555 237.557 188.367C237.3 188.003 235.474 187.85 235.033 187.691C234.632 187.545 234.44 187.481 234.717 187.464C234.993 187.444 238.562 188.303 239.089 188.42C239.615 188.535 239.724 188.796 239.917 188.055C240.041 187.579 240.836 188.233 241.463 187.419C241.463 187.419 241.837 187.207 240.999 186.607C240.365 186.153 241.518 186.369 241.518 186.369C241.518 186.369 242.655 186.488 242.907 186.015C243.159 185.541 242.474 185.704 242.58 185.56C242.682 185.417 243.497 185.434 243.767 185.15C244.039 184.863 243.503 184.697 243.762 184.578C244.023 184.459 244.911 184.618 244.843 184.046C244.774 183.472 243.54 183.066 242.691 182.852C241.844 182.634 242.422 182.433 242.693 182.238C242.966 182.043 241.775 181.883 240.72 182.132C240.305 182.232 240.745 181.976 240.565 181.803C240.565 181.803 237.899 182.115 237.323 182.313C236.745 182.509 236.839 182.315 237.096 182.019C237.353 181.723 238.387 181.07 237.706 180.318C237.023 179.567 233.916 180.434 233.734 180.566C233.554 180.697 233.506 181.189 233.331 180.887C233.154 180.583 232.94 180.518 232.45 180.776C231.958 181.036 231.498 181.779 231.391 182.374C231.285 182.967 231.22 183.341 231.1 183.994C230.981 184.651 229.781 186.671 229.355 186.933C228.93 187.194 226.939 187.746 225.31 187.638C224.972 187.615 225.901 188.007 226.338 187.966Z" fill="#6D893B"/>
<path d="M245.58 193.051C245.096 192.928 244.949 192.98 244.827 192.881C244.704 192.779 245.023 192.388 245.189 192.353C245.358 192.318 243.423 191.866 242.867 191.96C242.309 192.052 243.164 191.134 243.384 191.077C243.605 191.016 241.48 189.962 239.816 190.693C238.15 191.423 237.357 192.735 236.44 193.135C236.111 193.279 235.305 193.558 234.967 193.433C234.522 193.205 234.036 192.927 233.542 192.581C232.042 191.527 230.388 189.94 228.032 188.604C226.487 187.73 215.059 184.534 208.277 185.877C201.502 187.221 195.356 190.766 189.809 194.758C189.632 194.885 190.154 195.011 190.273 194.925C195.527 191.146 201.249 187.838 207.591 186.313C214.07 184.754 225.886 188.012 227.449 188.741C228.103 189.046 228.447 189.269 228.841 189.557C230.442 190.723 232.327 192.213 232.953 192.922C233.834 193.919 234.084 195.225 233.336 196.328C232.587 197.431 231.654 200.41 231.694 202.027C231.713 202.839 232.451 202.138 232.613 201.851C232.476 202.197 231.982 203.599 232.677 204.454C233.014 204.865 233.143 203.871 233.143 203.871C233.143 203.871 233.266 205.674 233.946 206.014C234.625 206.355 235.149 204.514 235.149 204.514C235.149 204.514 235.436 205.207 235.674 204.936C235.915 204.663 235.707 202.865 235.596 202.5C235.487 202.139 236.08 203.638 236.588 203.158C237.096 202.682 235.845 196.363 235.561 195.73C235.279 195.095 236.684 197.584 236.888 198.564C237.091 199.543 237.136 203.056 237.327 203.413C237.518 203.771 237.851 203.014 237.951 203.23C238.051 203.446 238.446 204.99 239.101 204.768C239.758 204.545 239.8 203.215 239.8 203.215C239.8 203.215 240.187 203.049 240.342 203.379C240.497 203.706 240.853 204.537 241.475 204.696C242.097 204.855 241.866 203.782 241.866 203.782L242.733 204.783C242.733 204.783 243.065 204.371 243.136 203.984C243.198 203.649 243.952 204.671 244.862 204.379C244.862 204.379 245.357 203.549 244.93 202.764C244.504 201.982 245.287 202.404 245.42 202.41C245.553 202.414 245.147 201.644 244.8 201.401C244.451 201.156 245.089 201.123 245.414 200.972C245.736 200.827 244.655 199.751 244.341 199.636C244.026 199.519 245.479 199.663 245.977 199.381C246.475 199.098 244.438 197.772 244.438 197.772L244.56 197.325C244.56 197.325 243.816 196.86 242.155 196.4C242.445 196.353 243.151 196.23 243.408 196.116C243.733 195.969 243.237 195.528 243.352 195.556C243.469 195.582 244.632 196.235 245.307 195.646C245.468 195.504 245.04 195.425 245.04 195.425C245.04 195.425 246.611 195.101 246.979 194.614C247.346 194.123 246.064 193.173 245.58 193.051ZM239.963 195.921C239.736 195.883 239.176 195.603 238.589 195.28C239.346 195.433 240.098 195.62 240.49 195.817C240.816 195.981 241.092 196.099 241.319 196.189C240.909 196.096 240.46 196.004 239.963 195.921Z" fill="#6D893B"/>
<path d="M230.671 193.051C229.946 192.595 227.735 191.116 227.001 190.543C226.329 190.02 226.016 189.203 226.016 189.203C226.016 189.203 225.99 188.303 225.77 188.001C225.439 187.548 225.109 187.838 225.109 187.838C225.109 187.838 225.727 187.762 225.735 189.115C225.735 189.115 225.613 189.481 225.386 189.776C225.236 189.97 222.608 193.409 219.342 195.13C216.074 196.849 219.251 197.046 219.939 196.421C220.629 195.793 218.973 197.646 218.864 198.058C218.752 198.473 219.406 198.458 219.547 198.62C219.69 198.783 218.737 200.359 219.334 201.058C219.616 201.39 220.889 201.017 221.342 199.846C221.342 199.846 221.613 200.514 221.958 200.43C222.301 200.345 222.243 199.749 222.673 199.505C223.1 199.26 222.965 201.945 223.374 202.281C223.785 202.616 224.319 201.13 224.453 200.966C224.587 200.801 224.471 203.454 224.954 203.759C225.437 204.064 225.54 203.324 225.54 203.324C225.54 203.324 225.729 204.67 226.003 204.805C226.277 204.938 226.266 204.425 226.436 204.567C226.608 204.705 227.029 205.6 227.405 205.497C227.783 205.394 227.856 203.574 228.077 203.529C228.299 203.48 228.528 203.853 228.559 203.741C228.59 203.63 228.768 202.629 228.603 202.217C228.437 201.806 228.979 202.276 229.211 202.187C229.496 202.08 228.959 199.438 228.964 198.986C228.97 198.531 228.987 198.456 229.306 198.625C229.624 198.794 230.042 199.64 230.432 199.41C230.821 199.179 231.116 198.274 230.951 197.547C230.789 196.818 231.449 197.634 231.449 197.634C231.449 197.634 231.606 196.66 230.796 195.858C229.988 195.058 230.811 195.505 230.893 195.574C230.976 195.64 231.97 196.504 232.277 195.93C232.584 195.357 231.393 193.508 230.671 193.051Z" fill="#6D893B"/>
<path d="M131.452 29.3709C131.327 28.8628 131.147 28.1546 131.599 27.304C131.964 26.6174 132.615 25.3068 131.801 23.1718C130.993 21.0338 130.405 20.4446 127.549 16.2069C124.692 11.9731 119.207 15.4144 121.256 20.0918C123.314 24.7732 123.358 25.2387 124.723 27.0716C126.096 28.9015 127.143 28.9853 128.303 29.1209C129.083 29.2114 129.591 29.7621 129.873 29.9993" fill="#FFF7E3"/>
<path d="M129.873 29.999C130.101 30.2324 130.361 30.5965 130.865 31.4639C131.876 33.1963 136.153 40.9243 137.533 43.8607C138.909 46.7951 140.797 51.1852 141.535 53.1058C142.274 55.0285 143.277 57.9099 144.504 58.6386C145.606 59.2898 146.672 59.1301 146.84 59.0417L146.87 59.0226C147.042 58.9296 147.743 58.1146 147.778 56.8317C147.821 55.4069 145.917 53.019 144.69 51.3682C143.462 49.7173 140.76 45.777 139.013 43.0427C137.271 40.3093 133.028 32.5622 132.099 30.7842C131.731 30.0749 131.549 29.668 131.452 29.3706" fill="#FFF7E3"/>
<g opacity="0.2">
<path d="M290 36.8148C290 54.9393 304.692 69.6286 322.816 69.6286C340.937 69.6286 355.632 54.9393 355.632 36.8148C355.632 18.6911 340.937 4 322.816 4C304.692 4 290 18.6911 290 36.8148ZM313.194 36.8148C313.194 31.4985 317.501 27.1897 322.816 27.1897C328.132 27.1897 332.44 31.4985 332.44 36.8148C332.44 42.1292 328.132 46.4379 322.816 46.4379C317.501 46.4379 313.194 42.1292 313.194 36.8148Z" fill="#8C877C"/>
</g>
<path d="M292.869 35.738C292.869 53.1417 306.973 67.2447 324.37 67.2447C341.769 67.2447 355.876 53.1415 355.876 35.738C355.876 18.3436 341.769 4.23853 324.37 4.23853C306.973 4.23853 292.869 18.3436 292.869 35.738ZM315.133 35.738C315.133 30.6403 319.269 26.5036 324.37 26.5036C329.475 26.5036 333.611 30.6403 333.611 35.738C333.611 40.8458 329.476 44.9805 324.37 44.9805C319.269 44.9808 315.133 40.8458 315.133 35.738Z" fill="#DDC697"/>
<path d="M296.98 46.3445C298.448 50.0066 300.653 53.2962 303.412 56.0346C306.38 58.979 309.506 58.7201 313.528 60.1556C316.571 61.243 320.334 64.3983 323.75 64.3983C328.23 64.3983 332.471 63.3796 336.253 61.5677C340.551 59.5033 344.257 56.4085 347.043 52.6076C348.776 50.2393 349.488 46.0253 350.445 43.1928C352.022 38.5267 352.428 41.2209 352.555 35.7521C352.694 29.7374 349.514 29.9502 348.115 27.1772C346.954 24.874 347.547 22.5865 346.363 20.6292C343.954 16.6563 341.063 14.7325 337.572 12.4061C333.757 9.86641 329.224 7.10205 323.751 7.10205C319.104 7.10205 314.715 8.19782 310.83 10.1421C308.391 11.3607 306.925 14.2472 304.947 16.0751C303.288 17.6006 301.039 17.9877 299.781 19.863C296.728 24.408 296.644 29.8572 296.644 35.7325C296.644 39.4755 295.671 43.0663 296.98 46.3445ZM315.304 35.7521C315.304 32.1474 318.138 28.8478 321.339 27.6516C322.664 27.4091 325.687 25.8526 329.548 28.3488C332.395 30.189 334.158 33.4469 333.548 36.8144C332.962 40.0311 332.299 41.3396 329.225 43.6034C326.668 45.4871 321.65 44.0413 322.357 44.0375C318.357 43.3762 315.304 39.9185 315.304 35.7521Z" fill="#5B4736"/>
<path d="M334.582 19.1101C334.727 19.4282 335.104 19.5649 335.421 19.4182C335.736 19.271 335.873 18.8962 335.727 18.5808L334.535 16.0088C334.388 15.6907 334.012 15.5549 333.693 15.7C333.379 15.8479 333.242 16.223 333.39 16.5381L334.582 19.1101Z" fill="#66E836"/>
<path d="M311.254 24.8551C311.403 25.1725 311.779 25.3102 312.091 25.1648C312.409 25.0171 312.545 24.6421 312.398 24.3267L311.209 21.7526C311.06 21.4364 310.684 21.2987 310.368 21.443C310.054 21.5929 309.915 21.9686 310.061 22.284L311.254 24.8551Z" fill="#66E836"/>
<path d="M304.768 52.1239C304.918 52.4393 305.293 52.576 305.608 52.429C305.924 52.2814 306.061 51.9072 305.914 51.5882L304.722 49.0192C304.575 48.7029 304.199 48.5653 303.883 48.7131C303.566 48.8574 303.431 49.2338 303.578 49.5494L304.768 52.1239Z" fill="#66E836"/>
<path d="M311.254 39.206C311.403 39.5204 311.779 39.6569 312.091 39.512C312.409 39.3644 312.545 38.9902 312.4 38.6719L311.209 36.1017C311.06 35.7836 310.684 35.645 310.368 35.7947C310.054 35.9408 309.915 36.3165 310.061 36.6292L311.254 39.206Z" fill="#66E836"/>
<path d="M333.353 19.0376C333.5 19.3509 333.877 19.4894 334.192 19.3436C334.51 19.1957 334.644 18.8218 334.499 18.5044L333.305 15.9324C333.159 15.6179 332.783 15.4785 332.467 15.6243C332.154 15.7722 332.014 16.1463 332.162 16.4617L333.353 19.0376Z" fill="#66E836"/>
<path d="M326.763 22.9379C326.907 23.2544 327.285 23.3938 327.6 23.246C327.914 23.1008 328.055 22.7251 327.906 22.4079L326.713 19.8356C326.565 19.5194 326.192 19.3826 325.876 19.5278C325.559 19.6757 325.421 20.0523 325.568 20.3649L326.763 22.9379Z" fill="#66E836"/>
<path d="M336.771 40.2821C336.916 40.5975 337.293 40.736 337.607 40.5918C337.924 40.4409 338.061 40.0698 337.914 39.7517L336.72 37.1814C336.573 36.8624 336.199 36.7257 335.884 36.8734C335.568 37.0197 335.431 37.3945 335.578 37.7096L336.771 40.2821Z" fill="#66E836"/>
<path d="M326.778 59.0756C326.927 59.39 327.299 59.526 327.618 59.3789C327.934 59.2317 328.071 58.8598 327.924 58.5415L326.732 55.9724C326.584 55.657 326.207 55.5167 325.892 55.6636C325.574 55.8088 325.439 56.1845 325.586 56.5019L326.778 59.0756Z" fill="#66E836"/>
<path d="M343.233 27.9901C343.382 28.3037 343.757 28.4347 344.075 28.2859C344.389 28.1353 344.52 27.7602 344.371 27.4421L343.144 24.8867C342.996 24.5752 342.617 24.4394 342.303 24.591C341.988 24.7407 341.854 25.1157 342.008 25.4311L343.233 27.9901Z" fill="#9E0820"/>
<path d="M341.988 49.2579C342.139 49.5733 342.517 49.7064 342.832 49.5528C343.144 49.4058 343.276 49.0271 343.127 48.7129L341.901 46.1575C341.751 45.8401 341.377 45.7109 341.06 45.8597C340.746 46.0094 340.615 46.3862 340.764 46.6998L341.988 49.2579Z" fill="#9E0820"/>
<path d="M302.548 29.8999C302.701 30.2134 303.076 30.3483 303.391 30.1977C303.704 30.0461 303.837 29.6693 303.687 29.356L302.462 26.7976C302.312 26.484 301.935 26.3501 301.622 26.4989C301.306 26.6515 301.173 27.0282 301.327 27.3417L302.548 29.8999Z" fill="#9E0820"/>
<path d="M350.532 35.4523C350.684 35.7661 351.059 35.898 351.373 35.7474C351.685 35.5986 351.819 35.2208 351.671 34.9073L350.443 32.3489C350.294 32.0356 349.918 31.8996 349.604 32.054C349.289 32.2028 349.154 32.5788 349.307 32.8957L350.532 35.4523Z" fill="#9E0820"/>
<path d="M303.895 38.7868C304.046 39.1001 304.425 39.2352 304.738 39.0834C305.053 38.9337 305.185 38.5578 305.034 38.2427L303.81 35.6845C303.659 35.3719 303.281 35.2379 302.967 35.3867C302.652 35.5403 302.52 35.9178 302.673 36.2305L303.895 38.7868Z" fill="#9E0820"/>
<path d="M318.061 21.0292C318.211 21.3427 318.59 21.4746 318.904 21.327C319.219 21.1743 319.349 20.8004 319.2 20.4823L317.974 17.926C317.823 17.6125 317.449 17.4815 317.134 17.63C316.819 17.7809 316.683 18.1575 316.836 18.4729L318.061 21.0292Z" fill="#9E0820"/>
<path d="M328.025 13.2943C328.174 13.6079 328.551 13.7391 328.869 13.5903C329.181 13.4386 329.315 13.0601 329.162 12.7475L327.938 10.1912C327.786 9.8758 327.408 9.74182 327.096 9.89335C326.781 10.0431 326.647 10.4202 326.8 10.7316L328.025 13.2943Z" fill="#9E0820"/>
<path d="M311.275 49.2579C311.425 49.5733 311.801 49.7064 312.118 49.5528C312.432 49.4058 312.562 49.0271 312.413 48.7129L311.187 46.1575C311.036 45.8401 310.659 45.7109 310.346 45.8597C310.031 46.0094 309.9 46.3862 310.05 46.6998L311.275 49.2579Z" fill="#9E0820"/>
<path d="M345.074 38.5324C344.893 38.8318 344.987 39.2201 345.285 39.4012C345.582 39.5826 345.966 39.4887 346.151 39.19L347.628 36.7704C347.813 36.4726 347.714 36.0838 347.419 35.9043C347.122 35.722 346.733 35.8168 346.55 36.1116L345.074 38.5324Z" fill="#F9DC87"/>
<path d="M314.752 48.5185C314.567 48.8179 314.664 49.2041 314.958 49.3864C315.257 49.5708 315.644 49.476 315.827 49.1782L317.306 46.7576C317.485 46.4628 317.392 46.0729 317.096 45.8891C316.796 45.7065 316.409 45.8025 316.227 46.1021L314.752 48.5185Z" fill="#F9DC87"/>
<path d="M336.839 31.071C336.655 31.367 336.752 31.7577 337.047 31.9382C337.347 32.1205 337.734 32.0266 337.914 31.7297L339.392 29.3064C339.574 29.0116 339.479 28.6217 339.183 28.4385C338.884 28.2581 338.497 28.351 338.316 28.6516L336.839 31.071Z" fill="#F9DC87"/>
<path d="M340.541 20.3586C340.359 20.6564 340.454 21.0433 340.754 21.2247C341.049 21.409 341.439 21.3131 341.617 21.02L343.098 18.5968C343.278 18.2981 343.181 17.9112 342.887 17.7282C342.59 17.5466 342.2 17.6405 342.019 17.9374L340.541 20.3586Z" fill="#F9DC87"/>
<path d="M304.433 33.6748C304.102 33.7714 303.911 34.1211 304.01 34.4582C304.109 34.7874 304.459 34.9809 304.794 34.8797L307.511 34.074C307.848 33.9744 308.037 33.621 307.938 33.289C307.84 32.9541 307.485 32.7661 307.154 32.8638L304.433 33.6748Z" fill="#F9DC87"/>
<path d="M316.48 53.3231C316.143 53.4208 315.955 53.7742 316.052 54.1071C316.152 54.4403 316.504 54.6319 316.836 54.5332L319.557 53.7239C319.891 53.6261 320.081 53.2718 319.98 52.9398C319.88 52.6058 319.531 52.416 319.196 52.5128L316.48 53.3231Z" fill="#F9DC87"/>
<path d="M304.433 21.1205C304.102 21.2192 303.911 21.5678 304.01 21.903C304.109 22.2368 304.459 22.4275 304.794 22.3279L307.511 21.5216C307.848 21.4193 308.037 21.0704 307.938 20.7345C307.84 20.4023 307.485 20.2127 307.154 20.3103L304.433 21.1205Z" fill="#F9DC87"/>
<path d="M331.792 24.3287C331.457 24.4285 331.267 24.7783 331.365 25.1128C331.464 25.445 331.816 25.6339 332.151 25.5359L334.866 24.7313C335.204 24.6272 335.396 24.2774 335.293 23.9445C335.194 23.6114 334.845 23.4216 334.51 23.5184L331.792 24.3287Z" fill="#F9DC87"/>
<path d="M335.205 56.2859C334.871 56.3862 334.681 56.7378 334.783 57.0709C334.882 57.4058 335.231 57.5975 335.567 57.497L338.284 56.6876C338.619 56.589 338.809 56.2374 338.706 55.9036C338.608 55.5705 338.259 55.3788 337.923 55.4766L335.205 56.2859Z" fill="#F9DC87"/>
<path d="M314.126 12.6228C313.944 12.9176 314.039 13.3084 314.337 13.488C314.634 13.6711 315.022 13.5782 315.202 13.2795L316.681 10.8571C316.863 10.5623 316.77 10.1726 316.472 9.99308C316.175 9.8117 315.786 9.90285 315.604 10.2023L314.126 12.6228Z" fill="#F9DC87"/>
<path d="M323.788 16.5259C323.606 16.8199 323.697 17.2106 323.995 17.392C324.296 17.5716 324.682 17.4816 324.863 17.1819L326.341 14.7623C326.523 14.4654 326.428 14.0758 326.13 13.8962C325.832 13.7119 325.444 13.8097 325.265 14.1027L323.788 16.5259Z" fill="#F9DC87"/>
<path d="M332.052 51.4506C331.87 51.75 331.965 52.138 332.262 52.3192C332.562 52.5014 332.949 52.4067 333.128 52.1061L334.606 49.6885C334.791 49.3928 334.694 49.0048 334.398 48.8204C334.102 48.639 333.712 48.7331 333.533 49.0319L332.052 51.4506Z" fill="#F9DC87"/>
<path opacity="0.2" d="M121.509 207.651C118.059 200.161 105.409 170.135 105.409 170.135C101.96 162.359 101.535 160.376 100.635 157.264C99.5762 153.592 97.5834 146.614 96.7558 144.079C95.9248 141.554 79.3293 98.6188 77.8033 94.9485C76.2785 91.2859 74.6254 92.7562 73.7226 94.1439C72.8167 95.5284 72.4783 100.528 72.4783 100.528C72.4721 104.927 74.1107 112.509 77.8124 123.186C81.4946 133.85 86.6243 146.262 88.4372 149.803C90.2514 153.328 93.9597 160.069 95.1305 163.052C95.8583 164.907 96.399 166.714 97.901 171.706C98.8363 174.812 100.144 179.153 102.102 185.508C107.218 202.08 110.677 209.654 110.677 209.654C114.674 219.186 125.383 216.06 121.509 207.651Z" fill="#8C877C"/>
<path d="M122.876 206.056C119.426 198.566 106.776 168.54 106.776 168.54C103.327 160.764 102.902 158.781 102.002 155.669C100.943 151.997 98.9505 145.019 98.123 142.484C97.292 139.959 80.6965 97.0238 79.1705 93.3535C77.6457 89.6909 75.9926 91.1613 75.0898 92.5489C74.1838 93.9334 73.8455 98.9335 73.8455 98.9335C73.8393 103.332 75.4778 110.914 79.1796 121.591C82.8618 132.255 87.9915 144.667 89.8044 148.208C91.6186 151.733 95.3269 158.474 96.4977 161.457C97.2254 163.312 97.7661 165.119 99.2682 170.111C100.204 173.217 101.511 177.558 103.469 183.913C108.585 200.485 112.044 208.059 112.044 208.059C116.041 217.591 126.75 214.465 122.876 206.056Z" fill="#E8E1D4"/>
<path d="M343.173 86.7449L343.179 86.7191C342.994 86.6562 342.808 86.597 342.62 86.5409C342.577 86.5261 342.537 86.509 342.494 86.4945L342.491 86.5042C342.409 86.4808 342.329 86.4557 342.245 86.4343C341.844 86.3304 341.443 86.2506 341.039 86.183C337.896 85.6596 334.732 86.2794 331.905 87.7823C331.918 87.7832 331.93 87.7846 331.942 87.7855C327.676 90.1023 324.201 94.4419 322.762 99.9592L308.133 155.971L312.328 162.029L317.976 170.188L319.738 173.048L319.734 173.064L330.786 189.022L331.345 189.826L352.327 109.498L352.745 107.9C355.111 98.8416 351.138 89.8606 343.173 86.7449ZM341.015 89.6555L341.015 89.6535C341.021 89.6562 341.027 89.6592 341.033 89.6621C341.027 89.6596 341.021 89.6578 341.015 89.6555Z" fill="#8C877C"/>
<path d="M318.48 175.478L316.59 172.75L310.556 164.029L306.7 158.462L303 172.627L307.127 178.4L312.853 186.412L314.781 189.108L325.573 204.203L326.592 205.632L330.088 192.243L328.91 190.54L318.48 175.478Z" fill="#8C877C"/>
<path d="M305.556 180.567L301.7 175L298 189.166L302.127 194.938L307.853 202.95L311.59 189.289L305.556 180.567Z" fill="#8C877C"/>
<path d="M314.379 191.656L314.362 191.717L312.554 189.108L308.817 202.769L310.745 205.465L310.762 205.401L321.472 220.381L322.491 221.809L325.986 208.421L324.809 206.718L314.379 191.656Z" fill="#8C877C"/>
<path d="M344.889 89.6535C345.3 89.8367 345.699 90.0484 346.094 90.2562L347.053 86.7194C346.745 86.6148 346.437 86.5168 346.119 86.4348C345.717 86.3309 345.317 86.2511 344.912 86.1835C341.769 85.6601 338.606 86.2798 335.779 87.7828C335.791 87.7837 335.803 87.7851 335.815 87.786C331.549 90.1028 328.074 94.4424 326.636 99.9597L312.006 155.972L316.201 162.03L322.01 170.42L344.889 89.6535Z" fill="#E0792D"/>
<path d="M346.368 86.4944L345.448 89.8726C344.806 89.5331 345.453 89.8758 344.753 89.6044L321.837 170.168L323.612 173.049L323.608 173.064L334.66 189.022L335.219 189.826L356.201 109.498L356.618 107.9C359.051 98.5874 354.785 89.3544 346.368 86.4944Z" fill="#F99D58"/>
<path d="M320.464 172.75L314.43 164.029L310.574 158.462L306.874 172.627L311.001 178.4L316.726 186.412L320.464 172.75Z" fill="#E0792D"/>
<path d="M314.59 191.289L308.556 182.567L304.7 177L301 191.166L305.127 196.938L310.853 204.95L314.59 191.289Z" fill="#E0792D"/>
<path d="M332.784 190.54L322.354 175.478L320.464 172.75L316.726 186.412L318.655 189.108L329.447 204.203L330.466 205.632L333.961 192.243L332.784 190.54Z" fill="#F99D58"/>
<path d="M318.253 191.656L318.236 191.717L316.427 189.108L312.69 202.769L314.618 205.465L314.636 205.401L325.345 220.381L326.364 221.809L329.86 208.421L328.682 206.718L318.253 191.656Z" fill="#F99D58"/>
<path d="M346.67 130.06C346.67 130.079 346.67 130.099 346.669 130.118C347.939 122.321 346.721 113.977 341.369 110.764C333.196 105.86 331.757 101.141 331.326 99.7019C331.245 100.317 331.213 100.926 331.224 101.527C331.21 100.907 331.242 100.278 331.326 99.6422C331.268 99.4406 331.223 99.302 331.188 99.2378C327.074 107.769 330.315 114.127 338.177 118.46C345.102 122.273 346.258 128.553 346.602 130.453C346.628 130.32 346.647 130.189 346.67 130.06Z" fill="#EFDDAB"/>
<path d="M334.567 176.886C334.589 176.756 334.611 176.624 334.63 176.495C334.646 175.855 334.638 175.214 334.609 174.578C335.42 167.335 334.002 159.994 329.063 157.032C321.875 152.717 319.896 148.549 319.23 146.627C319.246 146.444 319.264 146.26 319.289 146.076C319.228 145.876 319.187 145.738 319.152 145.672C315.038 154.201 318.276 160.561 326.141 164.894C332.13 168.192 333.804 173.334 334.37 175.892C334.369 176.056 334.367 176.22 334.363 176.384C334.379 176.281 334.394 176.178 334.41 176.075C334.478 176.394 334.528 176.67 334.567 176.886Z" fill="#EFDDAB"/>
<path d="M339.569 152.536C339.573 152.363 339.575 152.191 339.576 152.018C339.576 152.21 339.573 152.402 339.569 152.593C340.837 144.799 339.619 136.454 334.266 133.242C326.094 128.337 324.655 123.617 324.225 122.178C324.141 122.807 324.109 123.429 324.122 124.043C324.105 123.41 324.136 122.768 324.222 122.119C324.165 121.918 324.123 121.779 324.084 121.715C319.973 130.245 323.212 136.602 331.075 140.936C338.001 144.751 339.155 151.03 339.502 152.93C339.525 152.797 339.546 152.667 339.569 152.536Z" fill="#EFDDAB"/>
<path d="M337.707 154.99C330.656 155.578 319.793 146.003 317.234 139.356C312.063 124.343 330.027 135.041 333.16 124.668C336.548 113.897 317.221 106.273 337.82 102.923C342.151 102.273 358.383 100.229 360.137 95.0432C356.905 101.987 353.53 103.797 346.477 106.104C334.336 110.269 339.52 111.837 342.429 121.507C345.488 131.833 337.985 132.179 333.849 139.677C331.074 144.105 329.803 155.081 337.707 154.99Z" fill="#FCFCF7"/>
<rect width="427" height="239" transform="matrix(1 0 0 -1 0 239)" fill="#D6EEFF" fill-opacity="0.5"/>
<circle cx="373.5" cy="145.5" r="27.5" fill="#F56E4F"/>
<path d="M345.583 179.338L343.069 187H341.044L344.479 177.758H345.767L345.583 179.338ZM347.671 187L345.151 179.338L344.948 177.758H346.25L349.703 187H347.671ZM347.557 183.56V185.051H342.676V183.56H347.557ZM354.501 185.502V177.25H356.342V187H354.686L354.501 185.502ZM350.16 183.648V183.515C350.16 182.99 350.219 182.514 350.337 182.087C350.456 181.655 350.629 181.285 350.858 180.976C351.086 180.667 351.368 180.428 351.702 180.259C352.036 180.09 352.417 180.005 352.845 180.005C353.247 180.005 353.598 180.09 353.898 180.259C354.203 180.428 354.461 180.669 354.673 180.982C354.889 181.291 355.062 181.657 355.193 182.081C355.325 182.5 355.42 182.959 355.479 183.458V183.75C355.42 184.228 355.325 184.673 355.193 185.083C355.062 185.493 354.889 185.853 354.673 186.162C354.461 186.467 354.203 186.704 353.898 186.873C353.594 187.042 353.238 187.127 352.832 187.127C352.405 187.127 352.024 187.04 351.689 186.867C351.359 186.693 351.08 186.45 350.852 186.137C350.627 185.824 350.456 185.455 350.337 185.032C350.219 184.609 350.16 184.148 350.16 183.648ZM351.988 183.515V183.648C351.988 183.932 352.009 184.196 352.051 184.442C352.098 184.687 352.172 184.905 352.273 185.096C352.379 185.282 352.515 185.428 352.68 185.534C352.849 185.635 353.054 185.686 353.295 185.686C353.609 185.686 353.867 185.616 354.07 185.477C354.273 185.333 354.427 185.136 354.533 184.886C354.643 184.637 354.707 184.349 354.724 184.023V183.191C354.711 182.925 354.673 182.686 354.609 182.474C354.55 182.258 354.461 182.074 354.343 181.922C354.229 181.77 354.085 181.651 353.911 181.566C353.742 181.482 353.541 181.439 353.308 181.439C353.071 181.439 352.868 181.494 352.699 181.604C352.529 181.71 352.392 181.856 352.286 182.042C352.185 182.229 352.108 182.449 352.058 182.703C352.011 182.952 351.988 183.223 351.988 183.515ZM361.827 185.502V177.25H363.667V187H362.011L361.827 185.502ZM357.485 183.648V183.515C357.485 182.99 357.544 182.514 357.663 182.087C357.781 181.655 357.955 181.285 358.183 180.976C358.412 180.667 358.693 180.428 359.027 180.259C359.362 180.09 359.743 180.005 360.17 180.005C360.572 180.005 360.923 180.09 361.224 180.259C361.528 180.428 361.786 180.669 361.998 180.982C362.214 181.291 362.387 181.657 362.519 182.081C362.65 182.5 362.745 182.959 362.804 183.458V183.75C362.745 184.228 362.65 184.673 362.519 185.083C362.387 185.493 362.214 185.853 361.998 186.162C361.786 186.467 361.528 186.704 361.224 186.873C360.919 187.042 360.563 187.127 360.157 187.127C359.73 187.127 359.349 187.04 359.015 186.867C358.685 186.693 358.405 186.45 358.177 186.137C357.952 185.824 357.781 185.455 357.663 185.032C357.544 184.609 357.485 184.148 357.485 183.648ZM359.313 183.515V183.648C359.313 183.932 359.334 184.196 359.376 184.442C359.423 184.687 359.497 184.905 359.599 185.096C359.704 185.282 359.84 185.428 360.005 185.534C360.174 185.635 360.379 185.686 360.621 185.686C360.934 185.686 361.192 185.616 361.395 185.477C361.598 185.333 361.753 185.136 361.858 184.886C361.968 184.637 362.032 184.349 362.049 184.023V183.191C362.036 182.925 361.998 182.686 361.935 182.474C361.875 182.258 361.786 182.074 361.668 181.922C361.554 181.77 361.41 181.651 361.236 181.566C361.067 181.482 360.866 181.439 360.633 181.439C360.396 181.439 360.193 181.494 360.024 181.604C359.855 181.71 359.717 181.856 359.611 182.042C359.51 182.229 359.434 182.449 359.383 182.703C359.336 182.952 359.313 183.223 359.313 183.515ZM372.046 183.706H369.691V182.22H372.046C372.41 182.22 372.707 182.161 372.935 182.042C373.164 181.92 373.331 181.75 373.437 181.535C373.542 181.319 373.595 181.076 373.595 180.805C373.595 180.53 373.542 180.274 373.437 180.037C373.331 179.8 373.164 179.609 372.935 179.465C372.707 179.321 372.41 179.25 372.046 179.25H370.352V187H368.447V177.758H372.046C372.77 177.758 373.39 177.889 373.906 178.151C374.427 178.41 374.825 178.767 375.1 179.224C375.375 179.681 375.512 180.204 375.512 180.792C375.512 181.389 375.375 181.905 375.1 182.341C374.825 182.777 374.427 183.113 373.906 183.35C373.39 183.587 372.77 183.706 372.046 183.706ZM378.496 177.25V187H376.667V177.25H378.496ZM378.235 183.325H377.734C377.738 182.847 377.802 182.406 377.924 182.004C378.047 181.598 378.223 181.247 378.451 180.951C378.68 180.65 378.953 180.417 379.27 180.252C379.592 180.087 379.947 180.005 380.336 180.005C380.675 180.005 380.982 180.054 381.257 180.151C381.536 180.244 381.775 180.396 381.974 180.608C382.177 180.815 382.334 181.088 382.444 181.427C382.554 181.765 382.609 182.176 382.609 182.658V187H380.768V182.646C380.768 182.341 380.724 182.102 380.635 181.928C380.55 181.75 380.425 181.626 380.26 181.554C380.099 181.478 379.901 181.439 379.664 181.439C379.401 181.439 379.177 181.488 378.991 181.585C378.809 181.683 378.663 181.818 378.553 181.992C378.443 182.161 378.362 182.36 378.312 182.588C378.261 182.817 378.235 183.062 378.235 183.325ZM383.707 183.636V183.502C383.707 182.999 383.779 182.535 383.923 182.112C384.067 181.685 384.276 181.315 384.551 181.001C384.826 180.688 385.165 180.445 385.567 180.271C385.969 180.094 386.43 180.005 386.951 180.005C387.471 180.005 387.935 180.094 388.341 180.271C388.747 180.445 389.088 180.688 389.363 181.001C389.642 181.315 389.854 181.685 389.998 182.112C390.141 182.535 390.213 182.999 390.213 183.502V183.636C390.213 184.135 390.141 184.598 389.998 185.026C389.854 185.449 389.642 185.819 389.363 186.137C389.088 186.45 388.749 186.693 388.347 186.867C387.945 187.04 387.484 187.127 386.963 187.127C386.443 187.127 385.979 187.04 385.573 186.867C385.171 186.693 384.831 186.45 384.551 186.137C384.276 185.819 384.067 185.449 383.923 185.026C383.779 184.598 383.707 184.135 383.707 183.636ZM385.535 183.502V183.636C385.535 183.924 385.561 184.192 385.611 184.442C385.662 184.692 385.743 184.912 385.853 185.102C385.967 185.288 386.115 185.434 386.297 185.54C386.479 185.646 386.701 185.699 386.963 185.699C387.217 185.699 387.435 185.646 387.617 185.54C387.799 185.434 387.945 185.288 388.055 185.102C388.165 184.912 388.246 184.692 388.296 184.442C388.351 184.192 388.379 183.924 388.379 183.636V183.502C388.379 183.223 388.351 182.961 388.296 182.715C388.246 182.466 388.163 182.246 388.049 182.055C387.939 181.861 387.793 181.708 387.611 181.598C387.429 181.488 387.209 181.433 386.951 181.433C386.693 181.433 386.472 181.488 386.291 181.598C386.113 181.708 385.967 181.861 385.853 182.055C385.743 182.246 385.662 182.466 385.611 182.715C385.561 182.961 385.535 183.223 385.535 183.502ZM394.701 180.132V181.427H390.702V180.132H394.701ZM391.692 178.437H393.521V184.931C393.521 185.13 393.546 185.282 393.597 185.388C393.652 185.493 393.732 185.568 393.838 185.61C393.944 185.648 394.077 185.667 394.238 185.667C394.352 185.667 394.454 185.663 394.542 185.654C394.636 185.642 394.714 185.629 394.777 185.616L394.784 186.962C394.627 187.013 394.458 187.053 394.276 187.083C394.094 187.112 393.893 187.127 393.673 187.127C393.271 187.127 392.92 187.061 392.619 186.93C392.323 186.795 392.094 186.579 391.934 186.283C391.773 185.986 391.692 185.597 391.692 185.115V178.437ZM395.285 183.636V183.502C395.285 182.999 395.357 182.535 395.501 182.112C395.645 181.685 395.854 181.315 396.129 181.001C396.404 180.688 396.743 180.445 397.145 180.271C397.547 180.094 398.008 180.005 398.529 180.005C399.049 180.005 399.513 180.094 399.919 180.271C400.325 180.445 400.666 180.688 400.941 181.001C401.22 181.315 401.432 181.685 401.576 182.112C401.72 182.535 401.792 182.999 401.792 183.502V183.636C401.792 184.135 401.72 184.598 401.576 185.026C401.432 185.449 401.22 185.819 400.941 186.137C400.666 186.45 400.327 186.693 399.925 186.867C399.523 187.04 399.062 187.127 398.542 187.127C398.021 187.127 397.558 187.04 397.151 186.867C396.749 186.693 396.409 186.45 396.129 186.137C395.854 185.819 395.645 185.449 395.501 185.026C395.357 184.598 395.285 184.135 395.285 183.636ZM397.113 183.502V183.636C397.113 183.924 397.139 184.192 397.189 184.442C397.24 184.692 397.321 184.912 397.431 185.102C397.545 185.288 397.693 185.434 397.875 185.54C398.057 185.646 398.279 185.699 398.542 185.699C398.795 185.699 399.013 185.646 399.195 185.54C399.377 185.434 399.523 185.288 399.633 185.102C399.743 184.912 399.824 184.692 399.875 184.442C399.93 184.192 399.957 183.924 399.957 183.636V183.502C399.957 183.223 399.93 182.961 399.875 182.715C399.824 182.466 399.741 182.246 399.627 182.055C399.517 181.861 399.371 181.708 399.189 181.598C399.007 181.488 398.787 181.433 398.529 181.433C398.271 181.433 398.051 181.488 397.869 181.598C397.691 181.708 397.545 181.861 397.431 182.055C397.321 182.246 397.24 182.466 397.189 182.715C397.139 182.961 397.113 183.223 397.113 183.502Z" fill="black"/>
<path d="M374 130V160" stroke="white" stroke-width="3" stroke-linecap="round"/>
<path d="M359 145H389" stroke="white" stroke-width="3" stroke-linecap="round"/>
<path d="M228 212.5C228 204.492 234.492 198 242.5 198H404.5C412.508 198 419 204.492 419 212.5V212.5C419 220.508 412.508 227 404.5 227H242.5C234.492 227 228 220.508 228 212.5V212.5Z" fill="white" fill-opacity="0.8"/>
<path d="M249.917 207.006L248.215 217H247.415L248.967 208.065L246.171 209.05L246.308 208.257L249.767 207.006H249.917ZM258.216 206.965H258.359L258.284 207.689H258.182C257.525 207.689 256.938 207.806 256.418 208.038C255.903 208.271 255.454 208.592 255.071 209.002C254.693 209.408 254.383 209.879 254.142 210.417C253.905 210.95 253.738 211.518 253.643 212.119L253.438 213.5C253.392 213.824 253.39 214.156 253.431 214.498C253.472 214.84 253.563 215.157 253.704 215.448C253.845 215.74 254.044 215.977 254.299 216.159C254.554 216.337 254.878 216.428 255.27 216.433C255.634 216.437 255.96 216.362 256.247 216.207C256.539 216.048 256.789 215.838 256.999 215.578C257.213 215.314 257.384 215.022 257.512 214.703C257.644 214.384 257.733 214.063 257.778 213.739C257.819 213.434 257.822 213.131 257.785 212.83C257.749 212.529 257.664 212.256 257.532 212.01C257.4 211.759 257.215 211.559 256.979 211.408C256.742 211.253 256.443 211.174 256.083 211.169C255.673 211.164 255.279 211.256 254.9 211.442C254.527 211.625 254.205 211.875 253.937 212.194C253.668 212.509 253.485 212.864 253.39 213.261L252.925 213.254C253.007 212.853 253.146 212.481 253.342 212.14C253.538 211.798 253.779 211.502 254.066 211.251C254.358 210.996 254.686 210.8 255.051 210.663C255.415 210.526 255.81 210.46 256.233 210.465C256.685 210.469 257.07 210.565 257.389 210.752C257.708 210.934 257.963 211.18 258.154 211.49C258.346 211.8 258.476 212.146 258.544 212.529C258.612 212.912 258.621 213.306 258.571 213.712C258.521 214.149 258.407 214.573 258.229 214.983C258.056 215.389 257.826 215.756 257.539 216.084C257.257 216.412 256.922 216.672 256.534 216.863C256.151 217.05 255.723 217.141 255.249 217.137C254.748 217.132 254.317 217.025 253.957 216.815C253.602 216.606 253.314 216.326 253.096 215.975C252.882 215.619 252.736 215.225 252.658 214.792C252.581 214.359 252.572 213.922 252.631 213.479L252.761 212.604C252.875 211.848 253.066 211.132 253.335 210.458C253.608 209.779 253.968 209.18 254.415 208.66C254.862 208.136 255.399 207.724 256.028 207.423C256.657 207.122 257.386 206.969 258.216 206.965ZM259.597 216.501C259.601 216.346 259.66 216.212 259.774 216.098C259.888 215.984 260.025 215.924 260.185 215.92C260.349 215.92 260.483 215.975 260.588 216.084C260.693 216.193 260.741 216.33 260.731 216.494C260.722 216.654 260.661 216.788 260.547 216.897C260.433 217.007 260.296 217.062 260.137 217.062C259.973 217.066 259.838 217.016 259.733 216.911C259.629 216.802 259.583 216.665 259.597 216.501ZM260.711 210.191C260.715 210.036 260.775 209.902 260.889 209.788C261.003 209.674 261.139 209.615 261.299 209.61C261.463 209.61 261.597 209.665 261.702 209.774C261.807 209.884 261.855 210.021 261.846 210.185C261.837 210.344 261.775 210.479 261.661 210.588C261.547 210.697 261.41 210.752 261.251 210.752C261.087 210.757 260.952 210.706 260.848 210.602C260.743 210.492 260.697 210.355 260.711 210.191ZM263.753 216.357H263.91C264.557 216.357 265.132 216.255 265.633 216.05C266.134 215.84 266.565 215.551 266.925 215.182C267.289 214.808 267.583 214.368 267.807 213.862C268.035 213.352 268.196 212.794 268.292 212.188L268.497 210.8C268.543 210.467 268.556 210.118 268.538 209.754C268.52 209.385 268.451 209.041 268.333 208.722C268.215 208.398 268.028 208.134 267.772 207.929C267.517 207.724 267.178 207.619 266.754 207.614C266.385 207.61 266.05 207.689 265.749 207.854C265.453 208.018 265.193 208.234 264.97 208.503C264.751 208.772 264.573 209.073 264.437 209.405C264.304 209.733 264.215 210.062 264.17 210.39C264.129 210.681 264.127 210.98 264.163 211.285C264.2 211.59 264.282 211.875 264.409 212.14C264.541 212.399 264.721 212.611 264.949 212.775C265.182 212.939 265.471 213.024 265.817 213.028C266.159 213.033 266.485 212.971 266.795 212.844C267.105 212.716 267.385 212.541 267.636 212.317C267.891 212.094 268.105 211.837 268.278 211.545C268.456 211.253 268.579 210.946 268.647 210.622L269.058 210.615C268.994 211.03 268.866 211.426 268.675 211.805C268.483 212.178 268.237 212.511 267.937 212.803C267.64 213.094 267.301 213.325 266.918 213.493C266.54 213.662 266.132 213.744 265.694 213.739C265.248 213.735 264.865 213.634 264.546 213.438C264.231 213.243 263.979 212.985 263.787 212.666C263.6 212.342 263.473 211.987 263.404 211.6C263.336 211.212 263.325 210.82 263.37 210.424C263.425 209.982 263.541 209.551 263.719 209.132C263.901 208.708 264.136 208.33 264.423 207.997C264.715 207.66 265.056 207.393 265.448 207.197C265.845 207.001 266.285 206.906 266.768 206.91C267.324 206.915 267.779 207.035 268.135 207.272C268.49 207.505 268.761 207.815 268.948 208.202C269.14 208.585 269.258 209.009 269.304 209.474C269.349 209.938 269.34 210.403 269.276 210.868L269.167 211.668C269.08 212.27 268.946 212.841 268.764 213.384C268.581 213.922 268.347 214.416 268.06 214.867C267.772 215.314 267.428 215.703 267.027 216.036C266.626 216.364 266.164 216.619 265.64 216.802C265.12 216.984 264.53 217.077 263.869 217.082H263.671L263.753 216.357ZM273.74 213.438L273.774 213.213C273.843 212.73 273.975 212.263 274.171 211.812C274.367 211.36 274.622 210.959 274.937 210.608C275.256 210.253 275.629 209.973 276.058 209.768C276.486 209.562 276.962 209.462 277.486 209.467C278.006 209.471 278.448 209.581 278.812 209.795C279.177 210.005 279.469 210.287 279.688 210.643C279.911 210.998 280.063 211.397 280.146 211.839C280.228 212.276 280.241 212.725 280.187 213.186L280.159 213.411C280.091 213.894 279.956 214.359 279.756 214.806C279.56 215.252 279.302 215.653 278.983 216.009C278.669 216.36 278.298 216.638 277.869 216.843C277.441 217.043 276.965 217.141 276.44 217.137C275.925 217.132 275.483 217.025 275.114 216.815C274.75 216.601 274.458 216.319 274.239 215.968C274.021 215.612 273.87 215.216 273.788 214.778C273.706 214.341 273.69 213.894 273.74 213.438ZM274.574 213.213L274.547 213.438C274.501 213.78 274.499 214.127 274.54 214.478C274.581 214.828 274.674 215.152 274.82 215.448C274.971 215.74 275.18 215.977 275.449 216.159C275.718 216.341 276.055 216.435 276.461 216.439C276.876 216.444 277.249 216.36 277.582 216.187C277.915 216.013 278.202 215.781 278.443 215.489C278.689 215.193 278.888 214.865 279.038 214.505C279.188 214.14 279.293 213.776 279.353 213.411L279.38 213.186C279.425 212.848 279.425 212.504 279.38 212.153C279.339 211.798 279.245 211.472 279.1 211.176C278.954 210.88 278.746 210.64 278.478 210.458C278.209 210.271 277.871 210.175 277.466 210.171C277.051 210.162 276.677 210.246 276.345 210.424C276.012 210.597 275.725 210.832 275.483 211.128C275.242 211.424 275.044 211.755 274.889 212.119C274.738 212.479 274.633 212.844 274.574 213.213ZM283.023 210.854L281.964 217H281.164L282.442 209.604H283.222L283.023 210.854ZM285.765 209.549L285.662 210.294C285.58 210.28 285.496 210.269 285.409 210.26C285.323 210.251 285.236 210.246 285.149 210.246C284.78 210.242 284.452 210.31 284.165 210.451C283.882 210.592 283.634 210.784 283.42 211.025C283.21 211.267 283.035 211.54 282.894 211.846C282.752 212.146 282.643 212.456 282.565 212.775L282.244 212.892C282.312 212.495 282.415 212.094 282.552 211.688C282.693 211.283 282.88 210.911 283.112 210.574C283.349 210.232 283.639 209.959 283.98 209.754C284.327 209.549 284.737 209.451 285.211 209.46C285.307 209.46 285.4 209.469 285.491 209.487C285.582 209.501 285.674 209.521 285.765 209.549ZM295.916 213.787L295.807 214.484H288.95L289.039 213.979L294.679 207.054H295.396L294.146 208.77L290.085 213.787H295.916ZM295.574 207.047L293.858 217H293.059L294.781 207.047H295.574ZM296.524 216.501C296.529 216.346 296.588 216.212 296.702 216.098C296.816 215.984 296.953 215.924 297.112 215.92C297.276 215.92 297.411 215.975 297.516 216.084C297.62 216.193 297.668 216.33 297.659 216.494C297.65 216.654 297.589 216.788 297.475 216.897C297.361 217.007 297.224 217.062 297.064 217.062C296.9 217.066 296.766 217.016 296.661 216.911C296.556 216.802 296.511 216.665 296.524 216.501ZM297.639 210.191C297.643 210.036 297.702 209.902 297.816 209.788C297.93 209.674 298.067 209.615 298.227 209.61C298.391 209.61 298.525 209.665 298.63 209.774C298.735 209.884 298.783 210.021 298.773 210.185C298.764 210.344 298.703 210.479 298.589 210.588C298.475 210.697 298.338 210.752 298.179 210.752C298.015 210.757 297.88 210.706 297.775 210.602C297.671 210.492 297.625 210.355 297.639 210.191ZM302.123 211.572L302.896 211.579C303.301 211.57 303.688 211.493 304.058 211.347C304.431 211.201 304.746 210.984 305.001 210.697C305.261 210.41 305.42 210.05 305.479 209.617C305.539 209.221 305.509 208.874 305.391 208.578C305.272 208.277 305.078 208.043 304.81 207.874C304.541 207.701 304.203 207.612 303.798 207.607C303.379 207.603 302.998 207.687 302.656 207.86C302.314 208.034 302.03 208.275 301.802 208.585C301.578 208.89 301.428 209.246 301.351 209.651H300.558C300.635 209.109 300.826 208.631 301.132 208.216C301.442 207.801 301.831 207.48 302.301 207.252C302.77 207.02 303.278 206.906 303.825 206.91C304.363 206.91 304.828 207.026 305.22 207.259C305.612 207.487 305.903 207.806 306.095 208.216C306.286 208.626 306.35 209.102 306.286 209.645C306.241 210.05 306.113 210.408 305.903 210.718C305.698 211.023 305.438 211.281 305.124 211.49C304.814 211.695 304.475 211.853 304.105 211.962C303.736 212.067 303.365 212.121 302.991 212.126L302.041 212.119L302.123 211.572ZM302.014 212.276L302.096 211.736H302.95C303.347 211.745 303.72 211.8 304.071 211.9C304.427 212.001 304.737 212.153 305.001 212.358C305.27 212.559 305.47 212.819 305.603 213.138C305.739 213.452 305.783 213.83 305.732 214.272C305.682 214.71 305.562 215.106 305.37 215.462C305.183 215.813 304.939 216.114 304.639 216.364C304.338 216.615 303.996 216.809 303.613 216.945C303.23 217.077 302.823 217.141 302.39 217.137C301.97 217.132 301.588 217.062 301.241 216.925C300.895 216.788 300.596 216.597 300.346 216.351C300.1 216.1 299.915 215.801 299.792 215.455C299.674 215.104 299.632 214.717 299.669 214.293L300.462 214.3C300.421 214.719 300.476 215.088 300.626 215.407C300.781 215.726 301.011 215.977 301.316 216.159C301.626 216.337 301.991 216.428 302.41 216.433C302.857 216.437 303.258 216.353 303.613 216.18C303.973 216.007 304.267 215.76 304.495 215.441C304.728 215.118 304.873 214.735 304.933 214.293C304.996 213.828 304.942 213.45 304.769 213.158C304.595 212.862 304.34 212.643 304.003 212.502C303.67 212.361 303.292 212.288 302.868 212.283L302.014 212.276ZM315.084 215.674L315.72 211.853C315.77 211.502 315.738 211.201 315.624 210.95C315.515 210.695 315.337 210.501 315.091 210.369C314.849 210.232 314.551 210.162 314.195 210.157C313.881 210.153 313.571 210.207 313.266 210.321C312.96 210.435 312.694 210.602 312.466 210.82C312.243 211.039 312.094 211.312 312.021 211.641L311.222 211.634C311.272 211.283 311.395 210.973 311.591 210.704C311.787 210.431 312.028 210.203 312.315 210.021C312.607 209.834 312.922 209.695 313.259 209.604C313.596 209.508 313.929 209.462 314.257 209.467C314.744 209.467 315.168 209.565 315.528 209.761C315.888 209.952 316.157 210.228 316.335 210.588C316.517 210.943 316.576 211.372 316.513 211.873L315.911 215.448C315.87 215.69 315.843 215.936 315.829 216.187C315.815 216.433 315.834 216.674 315.884 216.911L315.877 217H315.043C315.011 216.781 315 216.56 315.009 216.337C315.022 216.114 315.048 215.893 315.084 215.674ZM315.774 212.693L315.686 213.322H314.175C313.892 213.322 313.594 213.347 313.279 213.397C312.965 213.448 312.664 213.534 312.377 213.657C312.09 213.78 311.846 213.951 311.646 214.17C311.445 214.384 311.317 214.658 311.263 214.99C311.217 215.277 311.249 215.528 311.358 215.742C311.472 215.952 311.639 216.116 311.857 216.234C312.076 216.348 312.322 216.408 312.596 216.412C312.997 216.417 313.377 216.344 313.737 216.193C314.097 216.038 314.419 215.824 314.701 215.551C314.984 215.277 315.205 214.958 315.364 214.594L315.645 215.072C315.521 215.382 315.348 215.667 315.125 215.927C314.906 216.182 314.656 216.401 314.373 216.583C314.09 216.761 313.787 216.9 313.464 217C313.14 217.096 312.812 217.144 312.479 217.144C312.074 217.134 311.709 217.046 311.386 216.877C311.067 216.708 310.818 216.469 310.641 216.159C310.463 215.849 310.397 215.485 310.442 215.065C310.493 214.619 310.634 214.245 310.866 213.944C311.103 213.639 311.397 213.395 311.748 213.213C312.099 213.031 312.477 212.898 312.883 212.816C313.288 212.734 313.683 212.693 314.065 212.693H315.774ZM319.623 210.854L318.563 217H317.764L319.042 209.604H319.821L319.623 210.854ZM322.364 209.549L322.262 210.294C322.18 210.28 322.095 210.269 322.009 210.26C321.922 210.251 321.836 210.246 321.749 210.246C321.38 210.242 321.052 210.31 320.765 210.451C320.482 210.592 320.234 210.784 320.02 211.025C319.81 211.267 319.634 211.54 319.493 211.846C319.352 212.146 319.243 212.456 319.165 212.775L318.844 212.892C318.912 212.495 319.015 212.094 319.151 211.688C319.293 211.283 319.479 210.911 319.712 210.574C319.949 210.232 320.238 209.959 320.58 209.754C320.926 209.549 321.337 209.451 321.811 209.46C321.906 209.46 322 209.469 322.091 209.487C322.182 209.501 322.273 209.521 322.364 209.549ZM325.085 217.137C324.584 217.132 324.151 217.027 323.786 216.822C323.422 216.617 323.125 216.344 322.897 216.002C322.674 215.656 322.517 215.268 322.426 214.84C322.339 214.411 322.321 213.972 322.371 213.521L322.412 213.22C322.471 212.764 322.597 212.313 322.788 211.866C322.979 211.42 323.228 211.016 323.533 210.656C323.843 210.292 324.205 210.002 324.62 209.788C325.035 209.569 325.495 209.462 326.001 209.467C326.479 209.471 326.881 209.572 327.204 209.768C327.532 209.959 327.792 210.216 327.983 210.54C328.175 210.864 328.3 211.226 328.359 211.627C328.423 212.028 328.43 212.438 328.38 212.857L328.312 213.356H322.87L322.973 212.659H327.594L327.614 212.563C327.674 212.176 327.653 211.8 327.553 211.436C327.457 211.071 327.279 210.77 327.02 210.533C326.76 210.296 326.411 210.175 325.974 210.171C325.563 210.162 325.199 210.248 324.88 210.431C324.561 210.608 324.285 210.85 324.053 211.155C323.825 211.456 323.64 211.789 323.499 212.153C323.358 212.513 323.26 212.869 323.205 213.22L323.171 213.514C323.125 213.855 323.128 214.197 323.178 214.539C323.232 214.881 323.337 215.195 323.492 215.482C323.652 215.765 323.866 215.995 324.135 216.173C324.408 216.346 324.741 216.435 325.133 216.439C325.57 216.449 325.965 216.362 326.315 216.18C326.671 215.993 326.997 215.747 327.293 215.441L327.771 215.838C327.553 216.12 327.302 216.36 327.02 216.556C326.742 216.752 326.438 216.897 326.11 216.993C325.782 217.089 325.44 217.137 325.085 217.137ZM334.457 210.854L333.397 217H332.598L333.876 209.604H334.655L334.457 210.854ZM337.198 209.549L337.096 210.294C337.014 210.28 336.929 210.269 336.843 210.26C336.756 210.251 336.67 210.246 336.583 210.246C336.214 210.242 335.886 210.31 335.599 210.451C335.316 210.592 335.068 210.784 334.854 211.025C334.644 211.267 334.468 211.54 334.327 211.846C334.186 212.146 334.076 212.456 333.999 212.775L333.678 212.892C333.746 212.495 333.849 212.094 333.985 211.688C334.127 211.283 334.313 210.911 334.546 210.574C334.783 210.232 335.072 209.959 335.414 209.754C335.76 209.549 336.171 209.451 336.645 209.46C336.74 209.46 336.834 209.469 336.925 209.487C337.016 209.501 337.107 209.521 337.198 209.549ZM339.919 217.137C339.418 217.132 338.985 217.027 338.62 216.822C338.256 216.617 337.959 216.344 337.731 216.002C337.508 215.656 337.351 215.268 337.26 214.84C337.173 214.411 337.155 213.972 337.205 213.521L337.246 213.22C337.305 212.764 337.431 212.313 337.622 211.866C337.813 211.42 338.062 211.016 338.367 210.656C338.677 210.292 339.039 210.002 339.454 209.788C339.869 209.569 340.329 209.462 340.835 209.467C341.313 209.471 341.715 209.572 342.038 209.768C342.366 209.959 342.626 210.216 342.817 210.54C343.009 210.864 343.134 211.226 343.193 211.627C343.257 212.028 343.264 212.438 343.214 212.857L343.146 213.356H337.704L337.807 212.659H342.428L342.448 212.563C342.507 212.176 342.487 211.8 342.387 211.436C342.291 211.071 342.113 210.77 341.854 210.533C341.594 210.296 341.245 210.175 340.808 210.171C340.397 210.162 340.033 210.248 339.714 210.431C339.395 210.608 339.119 210.85 338.887 211.155C338.659 211.456 338.474 211.789 338.333 212.153C338.192 212.513 338.094 212.869 338.039 213.22L338.005 213.514C337.959 213.855 337.962 214.197 338.012 214.539C338.066 214.881 338.171 215.195 338.326 215.482C338.486 215.765 338.7 215.995 338.969 216.173C339.242 216.346 339.575 216.435 339.967 216.439C340.404 216.449 340.799 216.362 341.149 216.18C341.505 215.993 341.831 215.747 342.127 215.441L342.605 215.838C342.387 216.12 342.136 216.36 341.854 216.556C341.576 216.752 341.272 216.897 340.944 216.993C340.616 217.089 340.274 217.137 339.919 217.137ZM346.844 216.439C347.208 216.439 347.546 216.369 347.855 216.228C348.165 216.086 348.427 215.886 348.642 215.626C348.86 215.366 349.018 215.063 349.113 214.717H349.886C349.795 215.2 349.599 215.624 349.298 215.988C348.997 216.353 348.63 216.638 348.197 216.843C347.769 217.043 347.311 217.141 346.823 217.137C346.304 217.132 345.868 217.023 345.518 216.809C345.167 216.594 344.891 216.312 344.69 215.961C344.49 215.605 344.355 215.211 344.287 214.778C344.223 214.341 344.221 213.899 344.28 213.452L344.314 213.165C344.378 212.691 344.501 212.233 344.684 211.791C344.866 211.344 345.105 210.946 345.401 210.595C345.702 210.244 346.06 209.968 346.475 209.768C346.889 209.562 347.356 209.462 347.876 209.467C348.391 209.471 348.833 209.59 349.202 209.822C349.571 210.05 349.852 210.362 350.043 210.759C350.239 211.151 350.328 211.597 350.31 212.099L349.551 212.092C349.564 211.736 349.507 211.415 349.38 211.128C349.257 210.836 349.065 210.606 348.806 210.438C348.546 210.264 348.229 210.173 347.855 210.164C347.432 210.16 347.06 210.244 346.741 210.417C346.427 210.586 346.158 210.816 345.935 211.107C345.711 211.399 345.531 211.723 345.395 212.078C345.258 212.434 345.162 212.796 345.107 213.165L345.066 213.452C345.025 213.789 345.016 214.133 345.039 214.484C345.066 214.831 345.142 215.152 345.265 215.448C345.392 215.74 345.584 215.977 345.839 216.159C346.094 216.337 346.429 216.43 346.844 216.439ZM351.246 213.438L351.28 213.213C351.349 212.73 351.481 212.263 351.677 211.812C351.873 211.36 352.128 210.959 352.442 210.608C352.761 210.253 353.135 209.973 353.563 209.768C353.992 209.562 354.468 209.462 354.992 209.467C355.512 209.471 355.954 209.581 356.318 209.795C356.683 210.005 356.975 210.287 357.193 210.643C357.417 210.998 357.569 211.397 357.651 211.839C357.733 212.276 357.747 212.725 357.692 213.186L357.665 213.411C357.597 213.894 357.462 214.359 357.262 214.806C357.066 215.252 356.808 215.653 356.489 216.009C356.175 216.36 355.803 216.638 355.375 216.843C354.947 217.043 354.47 217.141 353.946 217.137C353.431 217.132 352.989 217.025 352.62 216.815C352.256 216.601 351.964 216.319 351.745 215.968C351.526 215.612 351.376 215.216 351.294 214.778C351.212 214.341 351.196 213.894 351.246 213.438ZM352.08 213.213L352.053 213.438C352.007 213.78 352.005 214.127 352.046 214.478C352.087 214.828 352.18 215.152 352.326 215.448C352.477 215.74 352.686 215.977 352.955 216.159C353.224 216.341 353.561 216.435 353.967 216.439C354.382 216.444 354.755 216.36 355.088 216.187C355.421 216.013 355.708 215.781 355.949 215.489C356.195 215.193 356.394 214.865 356.544 214.505C356.694 214.14 356.799 213.776 356.858 213.411L356.886 213.186C356.931 212.848 356.931 212.504 356.886 212.153C356.845 211.798 356.751 211.472 356.605 211.176C356.46 210.88 356.252 210.64 355.983 210.458C355.715 210.271 355.377 210.175 354.972 210.171C354.557 210.162 354.183 210.246 353.851 210.424C353.518 210.597 353.231 210.832 352.989 211.128C352.748 211.424 352.549 211.755 352.395 212.119C352.244 212.479 352.139 212.844 352.08 213.213ZM360.44 211.169L359.429 217H358.629L359.9 209.604H360.673L360.44 211.169ZM360.01 212.844L359.661 212.639C359.752 212.229 359.889 211.834 360.071 211.456C360.254 211.073 360.481 210.731 360.755 210.431C361.033 210.13 361.354 209.893 361.719 209.72C362.088 209.547 362.503 209.462 362.963 209.467C363.355 209.471 363.683 209.542 363.947 209.679C364.216 209.811 364.428 209.998 364.583 210.239C364.738 210.476 364.838 210.752 364.884 211.066C364.934 211.381 364.936 211.718 364.891 212.078L364.057 217H363.257L364.091 212.099C364.146 211.739 364.139 211.415 364.07 211.128C364.002 210.836 363.858 210.606 363.64 210.438C363.421 210.264 363.111 210.175 362.71 210.171C362.332 210.171 361.992 210.246 361.691 210.396C361.391 210.547 361.129 210.75 360.905 211.005C360.682 211.26 360.495 211.547 360.345 211.866C360.199 212.185 360.087 212.511 360.01 212.844ZM364.897 212.201L364.344 212.208C364.43 211.83 364.569 211.474 364.761 211.142C364.952 210.804 365.189 210.51 365.472 210.26C365.754 210.009 366.071 209.813 366.422 209.672C366.777 209.531 367.16 209.462 367.57 209.467C367.98 209.467 368.322 209.54 368.596 209.686C368.869 209.827 369.081 210.023 369.231 210.273C369.386 210.52 369.487 210.807 369.532 211.135C369.578 211.463 369.576 211.812 369.525 212.181L368.705 217H367.898L368.719 212.167C368.773 211.802 368.771 211.47 368.712 211.169C368.653 210.864 368.514 210.622 368.295 210.444C368.081 210.262 367.766 210.173 367.352 210.178C367.051 210.178 366.766 210.23 366.497 210.335C366.233 210.435 365.993 210.579 365.779 210.766C365.565 210.948 365.381 211.162 365.226 211.408C365.075 211.65 364.966 211.914 364.897 212.201ZM373.606 217.137C373.105 217.132 372.672 217.027 372.308 216.822C371.943 216.617 371.647 216.344 371.419 216.002C371.196 215.656 371.038 215.268 370.947 214.84C370.861 214.411 370.842 213.972 370.893 213.521L370.934 213.22C370.993 212.764 371.118 212.313 371.31 211.866C371.501 211.42 371.749 211.016 372.055 210.656C372.365 210.292 372.727 210.002 373.142 209.788C373.556 209.569 374.017 209.462 374.522 209.467C375.001 209.471 375.402 209.572 375.726 209.768C376.054 209.959 376.313 210.216 376.505 210.54C376.696 210.864 376.822 211.226 376.881 211.627C376.945 212.028 376.951 212.438 376.901 212.857L376.833 213.356H371.392L371.494 212.659H376.115L376.136 212.563C376.195 212.176 376.174 211.8 376.074 211.436C375.979 211.071 375.801 210.77 375.541 210.533C375.281 210.296 374.933 210.175 374.495 210.171C374.085 210.162 373.72 210.248 373.401 210.431C373.082 210.608 372.807 210.85 372.574 211.155C372.346 211.456 372.162 211.789 372.021 212.153C371.879 212.513 371.781 212.869 371.727 213.22L371.692 213.514C371.647 213.855 371.649 214.197 371.699 214.539C371.754 214.881 371.859 215.195 372.014 215.482C372.173 215.765 372.387 215.995 372.656 216.173C372.93 216.346 373.262 216.435 373.654 216.439C374.092 216.449 374.486 216.362 374.837 216.18C375.192 215.993 375.518 215.747 375.814 215.441L376.293 215.838C376.074 216.12 375.824 216.36 375.541 216.556C375.263 216.752 374.96 216.897 374.632 216.993C374.304 217.089 373.962 217.137 373.606 217.137ZM379.54 211.217L378.542 217H377.742L379.021 209.604H379.786L379.54 211.217ZM379.096 212.844L378.774 212.639C378.866 212.238 379.005 211.848 379.191 211.47C379.378 211.087 379.611 210.745 379.889 210.444C380.171 210.139 380.495 209.9 380.859 209.727C381.229 209.549 381.639 209.462 382.09 209.467C382.495 209.471 382.83 209.547 383.095 209.692C383.364 209.834 383.571 210.032 383.717 210.287C383.863 210.538 383.954 210.827 383.99 211.155C384.031 211.479 384.027 211.823 383.977 212.188L383.163 217H382.356L383.184 212.174C383.234 211.818 383.231 211.49 383.177 211.189C383.127 210.884 382.999 210.64 382.794 210.458C382.589 210.271 382.281 210.178 381.871 210.178C381.507 210.173 381.172 210.248 380.866 210.403C380.561 210.554 380.287 210.759 380.046 211.019C379.809 211.274 379.608 211.561 379.444 211.88C379.285 212.194 379.169 212.516 379.096 212.844ZM390.122 215.53L391.688 206.5H392.487L390.669 217H389.924L390.122 215.53ZM385.515 213.404L385.535 213.261C385.604 212.814 385.72 212.368 385.884 211.921C386.048 211.47 386.267 211.057 386.54 210.684C386.813 210.31 387.144 210.011 387.531 209.788C387.923 209.565 388.377 209.458 388.892 209.467C389.297 209.471 389.653 209.558 389.958 209.727C390.263 209.891 390.516 210.114 390.717 210.396C390.922 210.679 391.07 210.998 391.161 211.354C391.257 211.704 391.293 212.069 391.271 212.447L390.977 214.272C390.895 214.664 390.756 215.034 390.56 215.38C390.364 215.726 390.122 216.034 389.835 216.303C389.552 216.567 389.229 216.774 388.864 216.925C388.504 217.075 388.117 217.146 387.702 217.137C387.205 217.132 386.8 217.011 386.485 216.774C386.175 216.537 385.941 216.232 385.781 215.858C385.622 215.485 385.524 215.081 385.487 214.648C385.455 214.215 385.465 213.801 385.515 213.404ZM386.355 213.254L386.335 213.397C386.289 213.707 386.269 214.035 386.273 214.382C386.278 214.728 386.328 215.056 386.424 215.366C386.524 215.672 386.69 215.922 386.923 216.118C387.155 216.314 387.472 216.417 387.873 216.426C388.27 216.43 388.648 216.348 389.008 216.18C389.368 216.007 389.682 215.77 389.951 215.469C390.225 215.168 390.416 214.828 390.525 214.45L390.895 212.317C390.913 212.03 390.879 211.759 390.792 211.504C390.71 211.249 390.585 211.023 390.416 210.827C390.247 210.631 390.042 210.476 389.801 210.362C389.564 210.244 389.299 210.185 389.008 210.185C388.593 210.175 388.231 210.264 387.921 210.451C387.616 210.633 387.356 210.877 387.142 211.183C386.927 211.483 386.757 211.816 386.629 212.181C386.501 212.541 386.41 212.898 386.355 213.254ZM395.646 217.137C395.144 217.132 394.711 217.027 394.347 216.822C393.982 216.617 393.686 216.344 393.458 216.002C393.235 215.656 393.077 215.268 392.986 214.84C392.9 214.411 392.882 213.972 392.932 213.521L392.973 213.22C393.032 212.764 393.157 212.313 393.349 211.866C393.54 211.42 393.788 211.016 394.094 210.656C394.404 210.292 394.766 210.002 395.181 209.788C395.595 209.569 396.056 209.462 396.562 209.467C397.04 209.471 397.441 209.572 397.765 209.768C398.093 209.959 398.353 210.216 398.544 210.54C398.735 210.864 398.861 211.226 398.92 211.627C398.984 212.028 398.991 212.438 398.94 212.857L398.872 213.356H393.431L393.533 212.659H398.154L398.175 212.563C398.234 212.176 398.214 211.8 398.113 211.436C398.018 211.071 397.84 210.77 397.58 210.533C397.32 210.296 396.972 210.175 396.534 210.171C396.124 210.162 395.759 210.248 395.44 210.431C395.121 210.608 394.846 210.85 394.613 211.155C394.385 211.456 394.201 211.789 394.06 212.153C393.918 212.513 393.82 212.869 393.766 213.22L393.731 213.514C393.686 213.855 393.688 214.197 393.738 214.539C393.793 214.881 393.898 215.195 394.053 215.482C394.212 215.765 394.426 215.995 394.695 216.173C394.969 216.346 395.301 216.435 395.693 216.439C396.131 216.449 396.525 216.362 396.876 216.18C397.231 215.993 397.557 215.747 397.854 215.441L398.332 215.838C398.113 216.12 397.863 216.36 397.58 216.556C397.302 216.752 396.999 216.897 396.671 216.993C396.343 217.089 396.001 217.137 395.646 217.137ZM404.696 215.53L406.262 206.5H407.062L405.243 217H404.498L404.696 215.53ZM400.089 213.404L400.109 213.261C400.178 212.814 400.294 212.368 400.458 211.921C400.622 211.47 400.841 211.057 401.114 210.684C401.388 210.31 401.718 210.011 402.105 209.788C402.497 209.565 402.951 209.458 403.466 209.467C403.871 209.471 404.227 209.558 404.532 209.727C404.838 209.891 405.09 210.114 405.291 210.396C405.496 210.679 405.644 210.998 405.735 211.354C405.831 211.704 405.868 212.069 405.845 212.447L405.551 214.272C405.469 214.664 405.33 215.034 405.134 215.38C404.938 215.726 404.696 216.034 404.409 216.303C404.127 216.567 403.803 216.774 403.438 216.925C403.078 217.075 402.691 217.146 402.276 217.137C401.78 217.132 401.374 217.011 401.06 216.774C400.75 216.537 400.515 216.232 400.355 215.858C400.196 215.485 400.098 215.081 400.062 214.648C400.03 214.215 400.039 213.801 400.089 213.404ZM400.93 213.254L400.909 213.397C400.864 213.707 400.843 214.035 400.848 214.382C400.852 214.728 400.902 215.056 400.998 215.366C401.098 215.672 401.265 215.922 401.497 216.118C401.729 216.314 402.046 216.417 402.447 216.426C402.844 216.43 403.222 216.348 403.582 216.18C403.942 216.007 404.257 215.77 404.525 215.469C404.799 215.168 404.99 214.828 405.1 214.45L405.469 212.317C405.487 212.03 405.453 211.759 405.366 211.504C405.284 211.249 405.159 211.023 404.99 210.827C404.822 210.631 404.617 210.476 404.375 210.362C404.138 210.244 403.874 210.185 403.582 210.185C403.167 210.175 402.805 210.264 402.495 210.451C402.19 210.633 401.93 210.877 401.716 211.183C401.502 211.483 401.331 211.816 401.203 212.181C401.076 212.541 400.984 212.898 400.93 213.254Z" fill="#444444"/>
<defs>
<linearGradient id="paint0_linear_94_1200" x1="202.977" y1="-72.9194" x2="209.707" y2="269.193" gradientUnits="userSpaceOnUse">
<stop stop-color="#7E9CD4"/>
<stop offset="1" stop-color="#CFDEFF"/>
</linearGradient>
</defs>
</svg>
