<svg width="60" height="60" viewBox="0 0 60 60" fill="none" xmlns="http://www.w3.org/2000/svg">
<path d="M30 60C46.5685 60 60 46.5685 60 30C60 13.4315 46.5685 0 30 0C13.4315 0 0 13.4315 0 30C0 46.5685 13.4315 60 30 60Z" fill="url(#paint0_linear_306_459)"/>
<path d="M42.546 33.5063C43.4829 32.9271 43.8038 31.6444 43.263 30.6412L33.7774 13.049C33.2365 12.0459 32.0386 11.7021 31.1017 12.2813C30.1649 12.8605 29.8439 14.1432 30.3848 15.1463L39.8703 32.7386C40.4112 33.7417 41.6091 34.0854 42.546 33.5063Z" stroke="white" stroke-width="2" stroke-miterlimit="10" stroke-linecap="round" stroke-linejoin="round"/>
<path d="M21.7613 40.5426C22.595 40.0272 22.8806 38.8858 22.3993 37.9932L17.3994 28.7202C16.9181 27.8275 15.8521 27.5217 15.0184 28.0371C14.1848 28.5524 13.8992 29.6938 14.3805 30.5864L19.3805 39.8595C19.8617 40.7522 20.9277 41.058 21.7613 40.5426Z" stroke="white" stroke-width="2" stroke-miterlimit="10" stroke-linecap="round" stroke-linejoin="round"/>
<path d="M18.5535 38.7659L18.7315 38.6558L15.0296 31.7902L14.8516 31.9002C13.081 32.9948 12.4743 35.4191 13.4966 37.315C14.5188 39.2109 16.7829 39.8605 18.5535 38.7659Z" stroke="white" stroke-width="2" stroke-miterlimit="10" stroke-linecap="round" stroke-linejoin="round"/>
<path d="M26.1016 19.6208L30.47 15.3046L39.7851 32.5806L22.5759 38.3206L17.2231 28.3931L21.5315 24.1363" stroke="white" stroke-width="2" stroke-miterlimit="10" stroke-linecap="round" stroke-linejoin="round"/>
<path d="M40.0185 24.6245C41.4521 23.7383 41.9433 21.7754 41.1156 20.2404C40.2879 18.7053 38.4548 18.1794 37.0212 19.0657" stroke="white" stroke-width="2" stroke-miterlimit="10" stroke-linecap="round" stroke-linejoin="round"/>
<path d="M22.5757 38.3203L27.8083 48.025C27.9941 48.3695 28.4056 48.4876 28.7275 48.2886L31.9092 46.3216C32.3125 46.0723 32.3631 45.4704 32.0079 45.1481L29.6044 42.9668L26.4648 37.1441" stroke="white" stroke-width="2" stroke-miterlimit="10" stroke-linecap="round" stroke-linejoin="round"/>
<path d="M43.5203 18.7805L45.8543 17.3376" stroke="white" stroke-width="2" stroke-miterlimit="10" stroke-linecap="round" stroke-linejoin="round"/>
<path d="M40.1409 15.4727L40.8555 12.617" stroke="white" stroke-width="2" stroke-miterlimit="10" stroke-linecap="round" stroke-linejoin="round"/>
<path d="M44.4534 23.5755L46.9999 24.3062" stroke="white" stroke-width="2" stroke-miterlimit="10" stroke-linecap="round" stroke-linejoin="round"/>
<defs>
<linearGradient id="paint0_linear_306_459" x1="30" y1="0" x2="30" y2="60" gradientUnits="userSpaceOnUse">
<stop stop-color="#FEA28C"/>
<stop offset="1" stop-color="#FE4085"/>
</linearGradient>
</defs>
</svg>
