<?xml version="1.0" encoding="UTF-8"?>
<svg id="Layer_1" data-name="Layer 1" xmlns="http://www.w3.org/2000/svg" xmlns:xlink="http://www.w3.org/1999/xlink" viewBox="0 0 60 60">
  <defs>
    <linearGradient id="linear-gradient" x1="29.77" y1="142" x2="30.23" y2="82" gradientTransform="translate(0 142) scale(1 -1)" gradientUnits="userSpaceOnUse">
      <stop offset="0" stop-color="#90f9ab"/>
      <stop offset="1" stop-color="#0cbb9e"/>
    </linearGradient>
  </defs>
  <path d="m30,60c16.57,0,30-13.43,30-30S46.57,0,30,0,0,13.43,0,30s13.43,30,30,30Z" fill="url(#linear-gradient)"/>
  <path d="m47.22,20.51v16.31c0,1.15-.49,2.26-1.37,3.07-.88.81-2.07,1.27-3.32,1.27h-11.75c-.78.11-1.52.39-2.16.83-2.1,1.36-4.11,2.83-6.03,4.4-.2-1.11-.53-2.19-.98-3.23-.18-.53-.52-.99-.97-1.35-.46-.35-1.01-.58-1.61-.65-1.24,0-2.44-.46-3.32-1.27s-1.37-1.92-1.37-3.07v-16.31c0-1.15.49-2.26,1.37-3.07.88-.81,2.07-1.27,3.32-1.27h23.49c.62,0,1.23.11,1.8.33.57.22,1.09.54,1.52.94s.78.88,1.02,1.41c.24.53.36,1.09.36,1.66Zm-28.25,22.84c.12.11.22.24.31.37.2.35.37.71.49,1.09.4,1.25.66,2.54.8,3.84.02.2.1.39.23.55.13.16.31.28.51.36.2.07.42.09.64.06.21-.04.41-.13.57-.26,0,0,3.63-3.04,6.33-4.85.64-.42,1.31-.8,2-1.15h11.67c1.87,0,3.66-.69,4.97-1.91,1.32-1.22,2.06-2.88,2.06-4.61v-16.33c0-1.73-.74-3.38-2.06-4.61-1.32-1.22-3.11-1.91-4.97-1.91h-23.5c-1.87,0-3.66.69-4.97,1.91-1.32,1.22-2.06,2.88-2.06,4.61v16.31c0,1.72.73,3.37,2.03,4.59,1.31,1.22,3.08,1.92,4.94,1.93Z" fill="#fff" fill-rule="evenodd" stroke="#fff" stroke-miterlimit="10" stroke-width=".5"/>
  <path d="m37.73,25.59c-.1-.31-.38-.53-.71-.56l-4.49-.4-1.77-4.1c-.13-.3-.43-.5-.76-.5s-.63.19-.76.5l-1.77,4.1-4.49.4c-.33.03-.61.25-.71.56-.1.31,0,.65.24.87l3.39,2.94-1,4.35c-.07.32.05.65.32.84.14.1.31.16.48.16.15,0,.29-.04.42-.12l3.87-2.29,3.87,2.29c.28.17.64.15.91-.04.27-.19.39-.52.32-.84l-1-4.35,3.39-2.94c.25-.22.34-.56.24-.87Z" fill="#ed4d1b"/>
</svg>