<svg width="60" height="60" viewBox="0 0 60 60" fill="none" xmlns="http://www.w3.org/2000/svg">
<g clip-path="url(#clip0_302_202)">
<path d="M30 60C46.5685 60 60 46.5685 60 30C60 13.4315 46.5685 0 30 0C13.4315 0 0 13.4315 0 30C0 46.5685 13.4315 60 30 60Z" fill="url(#paint0_linear_302_202)"/>
<path d="M21.627 33.1891L22.4224 35.2775H20.8389L21.627 33.1891ZM38.3639 24.1557C39.08 23.4213 39.5884 22.4839 39.7932 21.4387H36.9346C37.1395 22.4839 37.6479 23.4212 38.3639 24.1557ZM47.6954 13.3416V31.3133C47.6954 31.8859 47.2313 32.3502 46.6586 32.3502H43.416L42.0561 35.07C41.674 35.8342 40.5834 35.8342 40.2014 35.07L38.8416 32.3502H30.0693C29.4967 32.3502 29.0324 31.886 29.0324 31.3133V13.3416C29.0324 12.769 29.4966 12.3047 30.0693 12.3047H46.6586C47.2313 12.3047 47.6954 12.7689 47.6954 13.3416ZM40.0888 25.3448C41.0404 24.2727 41.6879 22.9253 41.8957 21.4387H42.215C42.7876 21.4387 43.2519 20.9746 43.2519 20.4019C43.2519 19.8292 42.7877 19.365 42.215 19.365H39.4008V17.8344C39.4008 17.2618 38.9366 16.7975 38.3639 16.7975C37.7913 16.7975 37.327 17.2617 37.327 17.8344V19.365H34.5128C33.9402 19.365 33.4759 19.8292 33.4759 20.4019C33.4759 20.9746 33.9401 21.4387 34.5128 21.4387H34.8321C35.0399 22.9253 35.6875 24.2727 36.639 25.3448C35.9864 25.6267 35.2677 25.7836 34.5128 25.7836C33.9402 25.7836 33.4759 26.2478 33.4759 26.8205C33.4759 27.393 33.9401 27.8573 34.5128 27.8573C35.921 27.8573 37.2391 27.4648 38.3638 26.7834C39.4884 27.4648 40.8067 27.8573 42.2148 27.8573C42.7874 27.8573 43.2517 27.3932 43.2517 26.8205C43.2517 26.2479 42.7875 25.7836 42.2148 25.7836C41.4601 25.7836 40.7414 25.6267 40.0888 25.3448ZM30.0693 34.4238H30.9679V43.3656C30.9679 43.9382 30.5037 44.4025 29.931 44.4025H21.1587L19.7988 47.1223C19.4167 47.8864 18.3261 47.8864 17.9441 47.1223L16.5841 44.4023H13.3416C12.769 44.4023 12.3047 43.9382 12.3047 43.3655V25.3937C12.3047 24.8211 12.7689 24.3568 13.3416 24.3568H26.9586V31.3132C26.9588 33.0285 28.3541 34.4238 30.0693 34.4238ZM25.6068 37.8123L22.7517 30.3159L22.7425 30.2926C22.556 29.8365 22.117 29.5416 21.6243 29.5411H21.6232C21.131 29.5411 20.692 29.8352 20.5049 30.2906L17.6647 37.8154C17.4626 38.3511 17.7329 38.9493 18.2686 39.1515C18.8044 39.3537 19.4025 39.0833 19.6046 38.5475L20.0561 37.3513H23.212L23.6687 38.5505C23.8725 39.0855 24.4716 39.3541 25.0066 39.1504C25.5421 38.9464 25.8107 38.3475 25.6068 37.8123Z" fill="url(#paint1_linear_302_202)"/>
</g>
<defs>
<linearGradient id="paint0_linear_302_202" x1="30" y1="60" x2="30" y2="0" gradientUnits="userSpaceOnUse">
<stop stop-color="#ADDCFF"/>
<stop offset="0.5028" stop-color="#EAF6FF"/>
<stop offset="1" stop-color="#EAF6FF"/>
</linearGradient>
<linearGradient id="paint1_linear_302_202" x1="30.0001" y1="47.6953" x2="30.0001" y2="12.3047" gradientUnits="userSpaceOnUse">
<stop stop-color="#00C0FF"/>
<stop offset="1" stop-color="#5558FF"/>
</linearGradient>
<clipPath id="clip0_302_202">
<rect width="60" height="60" fill="white"/>
</clipPath>
</defs>
</svg>
