<?xml version="1.0" encoding="UTF-8"?>
<svg id="Layer_1" data-name="Layer 1" xmlns="http://www.w3.org/2000/svg" xmlns:xlink="http://www.w3.org/1999/xlink" viewBox="0 0 60 60">
  <defs>
    <linearGradient id="linear-gradient" x1="30" y1="-18" x2="30" y2="-78" gradientTransform="translate(0 -18) scale(1 -1)" gradientUnits="userSpaceOnUse">
      <stop offset="0" stop-color="#09c6f9"/>
      <stop offset="1" stop-color="#045de9"/>
    </linearGradient>
    <linearGradient id="linear-gradient-2" x1="-1236.96" y1="-327.97" x2="-1187.3" y2="-327.97" gradientTransform="translate(357.97 -1182.13) rotate(-90)" gradientUnits="userSpaceOnUse">
      <stop offset="0" stop-color="#addcff"/>
      <stop offset=".5" stop-color="#eaf6ff"/>
      <stop offset="1" stop-color="#eaf6ff"/>
    </linearGradient>
  </defs>
  <g>
    <path d="m30,60c16.57,0,30-13.43,30-30S46.57,0,30,0,0,13.43,0,30s13.43,30,30,30Z" fill="url(#linear-gradient)"/>
    <circle cx="30" cy="30" r="24.83" fill="url(#linear-gradient-2)"/>
  </g>
  <g>
    <path d="m36.4,28.47c1.72.63,2.89,2.05,2.89,3.93,0,2.75-2.33,4.7-5.41,4.7-1.93,0-3.39-.64-4.23-1.34-.38-.33-.59-.68-.59-1.08,0-.61.42-1.03,1.03-1.03.33,0,.64.14.96.42.73.64,1.72.92,2.8.92,1.86,0,3.06-1.11,3.06-2.66s-1.27-2.7-3.34-2.7h-1.11c-.59,0-1.06-.42-1.06-1.04,0-.56.47-.99,1.08-.99h.96c1.79,0,3.1-1.01,3.1-2.52,0-1.39-.99-2.35-2.66-2.35-1.08,0-1.9.4-2.47.82-.31.23-.56.33-.85.33-.56,0-.96-.42-.96-.99,0-.28.12-.59.45-.89.87-.82,2.35-1.39,4.04-1.39,2.77,0,4.75,1.65,4.75,4.16,0,1.58-.94,3.01-2.47,3.69Z" fill="#2890ff" stroke="#2890ff" stroke-miterlimit="10" stroke-width=".5"/>
    <path d="m41.97,15.2h-21.81c-2.15,0-3.9,1.75-3.9,3.9v1.2h-1.27c-.47,0-.86.38-.86.86s.38.86.86.86h1.27v7.14h-1.27c-.47,0-.86.38-.86.86s.38.86.86.86h1.27v7.14h-1.27c-.47,0-.86.38-.86.86s.38.86.86.86h1.27v1.2c0,2.15,1.75,3.9,3.9,3.9h21.81c2.15,0,3.9-1.75,3.9-3.9v-21.81c0-2.15-1.75-3.9-3.9-3.9Zm-19.07,27.89h-2.74c-1.2,0-2.18-.98-2.18-2.18v-1.2h1.27c.47,0,.86-.38.86-.86s-.38-.86-.86-.86h-1.27v-7.14h1.27c.47,0,.86-.38.86-.86s-.38-.86-.86-.86h-1.27v-7.14h1.27c.47,0,.86-.38.86-.86s-.38-.86-.86-.86h-1.27v-1.2c0-1.2.98-2.18,2.18-2.18h2.83l-.09,26.17Zm21.25-2.18c0,1.2-.98,2.18-2.18,2.18h-17.36l.09-26.17h17.27c1.2,0,2.18.98,2.18,2.18v21.81Z" fill="#2890ff" stroke="#2890ff" stroke-miterlimit="10" stroke-width=".5"/>
  </g>
</svg>