<svg width="60" height="60" viewBox="0 0 60 60" fill="none" xmlns="http://www.w3.org/2000/svg">
<path d="M30 60C46.5685 60 60 46.5685 60 30C60 13.4315 46.5685 0 30 0C13.4315 0 0 13.4315 0 30C0 46.5685 13.4315 60 30 60Z" fill="url(#paint0_linear_301_160)"/>
<path d="M21.356 27.2714C19.7647 27.2714 18.4746 26.0588 18.4746 24.563V21.8545H24.2373V24.563C24.2373 26.0588 22.9473 27.2714 21.356 27.2714Z" stroke="white" stroke-width="2" stroke-miterlimit="10" stroke-linecap="round" stroke-linejoin="round"/>
<path d="M21.3558 27.2715V32.6884" stroke="white" stroke-width="2" stroke-miterlimit="10" stroke-linecap="round" stroke-linejoin="round"/>
<path d="M18.4746 32.6887H24.2373" stroke="white" stroke-width="2" stroke-miterlimit="10" stroke-linecap="round" stroke-linejoin="round"/>
<path d="M18.4746 38.1055H24.2373" stroke="white" stroke-width="2" stroke-miterlimit="10" stroke-linecap="round" stroke-linejoin="round"/>
<path d="M47 16.7085V43.2515C47 44.7412 45.7034 45.96 44.1186 45.96H32.8814C31.2966 45.96 30 44.7412 30 43.2515C30 44.7412 28.7034 45.96 27.1186 45.96H15.8814C14.2966 45.96 13 44.7412 13 43.2515V16.7085C13 15.2188 14.2966 14 15.8814 14H27.1186C28.7034 14 30 15.2188 30 16.7085C30 15.2188 31.2966 14 32.8814 14H44.1186C45.7034 14 47 15.2188 47 16.7085Z" stroke="white" stroke-width="2" stroke-miterlimit="10" stroke-linecap="round" stroke-linejoin="round"/>
<path d="M31.5269 34.1816L36.9077 30.4902C37.715 29.9368 38.3758 29.4551 38.8901 29.0449C39.4045 28.6348 39.8081 28.2702 40.1011 27.9512C40.394 27.6257 40.5959 27.3327 40.7065 27.0723C40.8172 26.8118 40.8726 26.5514 40.8726 26.291C40.8726 25.9915 40.8107 25.7116 40.687 25.4512C40.5633 25.1908 40.368 24.9629 40.1011 24.7676C39.8407 24.5723 39.5021 24.4193 39.0854 24.3086C38.6753 24.1979 38.1838 24.1426 37.6108 24.1426C36.7775 24.1426 35.9474 24.2598 35.1206 24.4941C34.2938 24.7285 33.4507 25.1029 32.5913 25.6172L31.1655 23.2734C32.1226 22.681 33.1577 22.2188 34.271 21.8867C35.3908 21.5547 36.5659 21.3887 37.7964 21.3887C38.8706 21.3887 39.8016 21.5189 40.5894 21.7793C41.3836 22.0332 42.0379 22.3815 42.5522 22.8242C43.0731 23.2669 43.4604 23.7812 43.7144 24.3672C43.9683 24.9531 44.0952 25.5749 44.0952 26.2324C44.0952 26.7402 44.0106 27.2253 43.8413 27.6875C43.672 28.1497 43.3758 28.6283 42.9526 29.123C42.5295 29.6178 41.9565 30.1517 41.2339 30.7246C40.5177 31.291 39.6128 31.9355 38.519 32.6582L36.2925 34.123H44.6519V36.8379H31.5269V34.1816Z" fill="white"/>
<defs>
<linearGradient id="paint0_linear_301_160" x1="30" y1="0" x2="30" y2="60" gradientUnits="userSpaceOnUse">
<stop stop-color="#09C6F9"/>
<stop offset="1" stop-color="#045DE9"/>
</linearGradient>
</defs>
</svg>
