<svg width="26" height="40" viewBox="0 0 26 40" fill="none" xmlns="http://www.w3.org/2000/svg">
<path d="M5 0.5H21C23.4853 0.5 25.5 2.51472 25.5 5V5.5H0.5V5C0.5 2.51472 2.51472 0.5 5 0.5Z" fill="#5EAC24" stroke="#5EAC24"/>
<path d="M0 9.5C0 8.11929 1.11929 7 2.5 7V7C3.88071 7 5 8.11929 5 9.5V9.5C5 10.8807 3.88071 12 2.5 12V12C1.11929 12 0 10.8807 0 9.5V9.5Z" fill="#ED1C24"/>
<rect y="13" width="5" height="5" rx="2.5" fill="#ED1C24"/>
<rect y="19" width="5" height="5" rx="2.5" fill="#ED1C24"/>
<rect y="25" width="5" height="5" rx="2.5" fill="#ED1C24"/>
<path d="M0.5 33.5H25.5V35C25.5 37.4853 23.4853 39.5 21 39.5H5C2.51472 39.5 0.5 37.4853 0.5 35V33.5Z" fill="#5EAC24" stroke="#5EAC24"/>
<path d="M6.22534 9C6.22534 7.89543 7.12077 7 8.22534 7H24C25.1046 7 26 7.89543 26 9V15.6667C26 16.7712 25.1046 17.6667 24 17.6667H8.22534C7.12077 17.6667 6.22534 16.7712 6.22534 15.6667V9Z" fill="#FFCD00"/>
<rect x="6.22522" y="18.2222" width="19.7746" height="6.66667" rx="2" fill="#FFCD00"/>
<rect x="6" y="26" width="20" height="5" rx="2" fill="#FFCD00"/>
</svg>
