<?xml version="1.0" encoding="UTF-8"?>
<svg id="Layer_1" data-name="Layer 1" xmlns="http://www.w3.org/2000/svg" viewBox="0 0 40 40">
  <path d="m13.16,2.34h14.36c2.23,0,4.04,1.81,4.04,4.04v.45H9.12v-.45c0-2.23,1.81-4.04,4.04-4.04Z" fill="#a7a9ac" stroke="#231f20" stroke-width=".25"/>
  <path d="m8.67,11.12c0-1.24,1-2.24,2.24-2.24h0c1.24,0,2.24,1,2.24,2.24h0c0,1.24-1,2.24-2.24,2.24h0c-1.24,0-2.24-1-2.24-2.24h0Z" fill="#a7a9ac" stroke="#231f20" stroke-miterlimit="10" stroke-width=".25"/>
  <path d="m10.92,14.26h0c1.24,0,2.24,1,2.24,2.24h0c0,1.24-1,2.24-2.24,2.24h0c-1.24,0-2.24-1-2.24-2.24h0c0-1.24,1-2.24,2.24-2.24Z" fill="#a7a9ac" stroke="#231f20" stroke-miterlimit="10" stroke-width=".25"/>
  <path d="m10.92,19.65h0c1.24,0,2.24,1,2.24,2.24h0c0,1.24-1,2.24-2.24,2.24h0c-1.24,0-2.24-1-2.24-2.24h0c0-1.24,1-2.24,2.24-2.24Z" fill="#a7a9ac" stroke="#231f20" stroke-miterlimit="10" stroke-width=".25"/>
  <path d="m10.92,25.03h0c1.24,0,2.24,1,2.24,2.24h0c0,1.24-1,2.24-2.24,2.24h0c-1.24,0-2.24-1-2.24-2.24h0c0-1.24,1-2.24,2.24-2.24Z" fill="#a7a9ac" stroke="#231f20" stroke-miterlimit="10" stroke-width=".25"/>
  <path d="m9.12,31.96h22.44v1.35c0,2.23-1.81,4.04-4.04,4.04h-14.36c-2.23,0-4.04-1.81-4.04-4.04v-1.35Z" fill="#a7a9ac" stroke="#231f20" stroke-width=".25"/>
  <rect x="14.26" y="9.09" width="17.3" height="5.62" fill="#a7a9ac" stroke="#231f20" stroke-miterlimit="10" stroke-width=".25"/>
  <rect x="14.26" y="23.66" width="17.3" height="5.62" fill="#a7a9ac" stroke="#231f20" stroke-miterlimit="10" stroke-width=".25"/>
  <rect x="14.26" y="16.38" width="17.3" height="5.62" fill="#a7a9ac" stroke="#231f20" stroke-miterlimit="10" stroke-width=".25"/>
</svg>