<?xml version="1.0" encoding="UTF-8"?>
<svg id="Layer_1" data-name="Layer 1" xmlns="http://www.w3.org/2000/svg" viewBox="0 0 40 40">
  <path d="m12.7,2.5h15.08c2.34,0,4.24,1.81,4.24,4.04v.45H8.45v-.45c0-2.23,1.9-4.04,4.24-4.04Z" fill="none" stroke="#231f20" stroke-width=".25"/>
  <path d="m7.98,11.28c0-1.24,1.05-2.24,2.36-2.24h0c1.3,0,2.36,1,2.36,2.24h0c0,1.24-1.05,2.24-2.36,2.24h0c-1.3,0-2.36-1-2.36-2.24h0Z" fill="#a7a9ac" stroke="#231f20" stroke-miterlimit="10" stroke-width=".25"/>
  <path d="m10.34,14.42h0c1.3,0,2.36,1,2.36,2.24h0c0,1.24-1.05,2.24-2.36,2.24h0c-1.3,0-2.36-1-2.36-2.24h0c0-1.24,1.05-2.24,2.36-2.24Z" fill="#a7a9ac" stroke="#231f20" stroke-miterlimit="10" stroke-width=".25"/>
  <path d="m10.34,19.8h0c1.3,0,2.36,1,2.36,2.24h0c0,1.24-1.05,2.24-2.36,2.24h0c-1.3,0-2.36-1-2.36-2.24h0c0-1.24,1.05-2.24,2.36-2.24Z" fill="#a7a9ac" stroke="#231f20" stroke-miterlimit="10" stroke-width=".25"/>
  <path d="m10.34,25.19h0c1.3,0,2.36,1,2.36,2.24h0c0,1.24-1.05,2.24-2.36,2.24h0c-1.3,0-2.36-1-2.36-2.24h0c0-1.24,1.05-2.24,2.36-2.24Z" fill="#a7a9ac" stroke="#231f20" stroke-miterlimit="10" stroke-width=".25"/>
  <path d="m8.45,32.12h23.56v1.35c0,2.23-1.9,4.04-4.24,4.04h-15.08c-2.34,0-4.24-1.81-4.24-4.04v-1.35Z" fill="none" stroke="#231f20" stroke-width=".25"/>
  <rect x="13.85" y="9.25" width="18.17" height="5.62" fill="none" stroke="#231f20" stroke-miterlimit="10" stroke-width=".25"/>
  <rect x="13.85" y="23.82" width="18.17" height="5.62" fill="none" stroke="#231f20" stroke-miterlimit="10" stroke-width=".25"/>
  <rect x="13.85" y="16.53" width="18.17" height="5.62" fill="none" stroke="#231f20" stroke-miterlimit="10" stroke-width=".25"/>
</svg>