<svg width="50" height="47" viewBox="0 0 50 47" fill="none" xmlns="http://www.w3.org/2000/svg">
<path d="M49.8692 17.7586C49.5399 16.7655 48.6419 16.0624 47.5837 15.9685L33.1502 14.6831L27.446 1.58357C27.025 0.621152 26.0667 0 25 0C23.9334 0 22.9748 0.621152 22.5563 1.58357L16.8521 14.6831L2.4163 15.9685C1.35808 16.0643 0.461997 16.7674 0.130876 17.7586C-0.198337 18.7517 0.105699 19.841 0.906034 20.5295L11.8166 29.9138L8.59964 43.8118C8.36426 44.8337 8.76864 45.8904 9.63306 46.5034C10.0977 46.8345 10.6436 47 11.1914 47C11.6621 47 12.1332 46.8771 12.554 46.6302L25 39.3306L37.4437 46.6302C38.3567 47.1653 39.5044 47.1162 40.3669 46.5034C41.2314 45.8904 41.6357 44.8337 41.4004 43.8118L38.1834 29.9138L49.0939 20.5295C49.8939 19.841 50.1984 18.7539 49.8692 17.7586Z" fill="#ED4D1B"/>
</svg>
