<?xml version="1.0" encoding="UTF-8"?>
<svg id="Layer_1" data-name="Layer 1" xmlns="http://www.w3.org/2000/svg" xmlns:xlink="http://www.w3.org/1999/xlink" viewBox="0 0 60 60">
  <defs>
    <linearGradient id="linear-gradient" x1="30" y1="-18" x2="30" y2="-78" gradientTransform="translate(0 -18) scale(1 -1)" gradientUnits="userSpaceOnUse">
      <stop offset="0" stop-color="#ffbb32"/>
      <stop offset="1" stop-color="#fc4422"/>
    </linearGradient>
    <linearGradient id="linear-gradient-2" x1="-33.08" y1="61.78" x2="54.62" y2="17.61" gradientUnits="userSpaceOnUse">
      <stop offset="0" stop-color="#ffbb32"/>
      <stop offset="1" stop-color="#fff"/>
    </linearGradient>
    <linearGradient id="linear-gradient-3" x1="-47.86" y1="69.22" x2="60.38" y2="14.7" xlink:href="#linear-gradient-2"/>
  </defs>
  <g>
    <path d="m30,60c16.57,0,30-13.43,30-30S46.57,0,30,0,0,13.43,0,30s13.43,30,30,30Z" fill="url(#linear-gradient)"/>
    <path d="m52.12,31.22h-4.22c-.94,0-1.7-.76-1.7-1.7s.76-1.7,1.7-1.7h4.22s0,0,.01,0c-1.04-10.69-9.65-19.16-20.4-19.99.03.04.06.08.06.14v4.22c0,.94-.76,1.7-1.7,1.7s-1.7-.76-1.7-1.7v-4.22c0-.06.03-.11.07-.15-10.85.74-19.56,9.27-20.59,20.04.03-.02.06-.04.11-.04h4.22c.94,0,1.7.76,1.7,1.7s-.76,1.7-1.7,1.7h-4.22c-.09,0-.15-.06-.18-.15.53,11.24,9.41,20.28,20.57,21.1-.04-.04-.06-.09-.06-.14v-4.22c0-.94.76-1.7,1.7-1.7s1.7.76,1.7,1.7v4.22c0,.06-.02.11-.06.14,11.13-.81,19.98-9.8,20.57-20.99-.03.02-.05.04-.09.04Zm-20.81-.22l-7.84,7.84c-.65.65-1.69.65-2.34,0s-.65-1.69,0-2.34l7.36-7.36v-10.49c0-.91.74-1.65,1.65-1.65s1.65.74,1.65,1.65v11.09s0,.03,0,.04c.01.44-.15.88-.48,1.21Z" fill="url(#linear-gradient-2)"/>
  </g>
  <path d="m30,2.55C14.84,2.55,2.55,14.84,2.55,30s12.29,27.45,27.45,27.45,27.45-12.29,27.45-27.45S45.16,2.55,30,2.55Zm0,53.91c-14.59,0-26.47-11.87-26.47-26.47S15.41,3.53,30,3.53s26.47,11.87,26.47,26.47-11.87,26.47-26.47,26.47Z" fill="url(#linear-gradient-3)"/>
</svg>