<svg id="Layer_1" enable-background="new 0 0 512 512" height="512" viewBox="0 0 512 512" width="512" xmlns="http://www.w3.org/2000/svg" xmlns:xlink="http://www.w3.org/1999/xlink"><linearGradient id="SVGID_1_" gradientUnits="userSpaceOnUse" x1="299.286" x2="299.286" y1="367.004" y2="0"><stop offset="0" stop-color="#addcff"/><stop offset=".5028" stop-color="#eaf6ff"/><stop offset="1" stop-color="#eaf6ff"/></linearGradient><linearGradient id="SVGID_00000098902392524303860900000001624462585564182178_" gradientUnits="userSpaceOnUse" x1="218.857" x2="218.857" y1="512" y2="75"><stop offset="0" stop-color="#5558ff"/><stop offset="1" stop-color="#00c0ff"/></linearGradient><g><path d="m367.729 310h-130.729c-8.284 0-15-6.716-15-15v-280c0-8.284 6.716-15 15-15h260c8.284 0 15 6.716 15 15v280c0 8.284-6.716 15-15 15h-50.729m-243.829 36.661-41.305-108.451-.134-.338c-2.697-6.599-9.048-10.866-16.177-10.873h-.016c-7.121 0-13.471 4.255-16.179 10.843l-41.088 108.862c-2.925 7.75.986 16.405 8.737 19.33 7.75 2.925 16.405-.987 19.33-8.737l6.531-17.306h45.658l6.608 17.349c2.948 7.742 11.615 11.627 19.356 8.679h.001c7.741-2.95 11.626-11.616 8.678-19.358zm-68.979-36.671 11.403-30.214 11.508 30.214z" fill="url(#SVGID_1_)"/><path d="m144.865 279.776 11.508 30.214h-22.91zm145.135 30.224v127c0 8.284-6.716 15-15 15h-130.729l-25.854 51.708c-5.528 11.056-21.305 11.056-26.833 0l-25.855-51.708h-50.729c-8.284 0-15-6.716-15-15v-280c0-8.284 6.716-15 15-15h207v153c0 8.284 6.716 15 15 15zm-87.558 36.661-41.305-108.451-.134-.338c-2.697-6.599-9.048-10.866-16.177-10.873h-.016c-7.121 0-13.471 4.255-16.179 10.843l-41.088 108.862c-2.925 7.75.986 16.405 8.737 19.33 7.75 2.925 16.405-.987 19.33-8.737l6.531-17.306h45.658l6.608 17.349c2.948 7.742 11.615 11.627 19.356 8.679h.001c7.741-2.95 11.626-11.616 8.678-19.358zm235.272-126.661c0 8.284-6.716 15-15 15-20.373 0-39.443-5.68-55.714-15.536-16.271 9.856-35.341 15.536-55.714 15.536-8.284 0-15-6.716-15-15s6.716-15 15-15c10.921 0 21.318-2.27 30.76-6.347-13.766-15.512-23.135-35.004-26.141-56.51h-4.619c-8.284 0-15-6.716-15-15s6.716-15 15-15h40.714v-22.143c0-8.284 6.716-15 15-15s15 6.716 15 15v22.143h40.714c8.284 0 15 6.716 15 15s-6.716 15-15 15h-4.619c-3.006 21.506-12.375 40.999-26.141 56.51 9.442 4.077 19.839 6.347 30.76 6.347 8.284 0 15 6.716 15 15zm-91.392-77.857c2.964 15.122 10.319 28.682 20.678 39.308 10.36-10.626 17.714-24.186 20.678-39.308z" fill="url(#SVGID_00000098902392524303860900000001624462585564182178_)"/></g></svg>