<?xml version="1.0" encoding="UTF-8"?>
<svg id="Layer_1" data-name="Layer 1" xmlns="http://www.w3.org/2000/svg" xmlns:xlink="http://www.w3.org/1999/xlink" viewBox="0 0 60 60">
  <defs>
    <linearGradient id="linear-gradient" x1="30" y1="142" x2="30" y2="82" gradientTransform="translate(0 142) scale(1 -1)" gradientUnits="userSpaceOnUse">
      <stop offset="0" stop-color="#f95f09"/>
      <stop offset="1" stop-color="#cc1600"/>
    </linearGradient>
  </defs>
  <path d="m30,60c16.57,0,30-13.43,30-30S46.57,0,30,0,0,13.43,0,30s13.43,30,30,30Z" fill="url(#linear-gradient)"/>
  <circle cx="30" cy="25.94" r="7.46" fill="none" stroke="#fff" stroke-linecap="round" stroke-linejoin="round" stroke-width="2"/>
  <circle cx="30" cy="30" r="17.47" fill="none" stroke="#fff" stroke-linecap="round" stroke-linejoin="round" stroke-width="2"/>
  <path d="m30,47.47c4.65,0,8.86-1.83,11.99-4.79-1.05-3.7-3.64-6.72-7.01-8.24l-4.98,5.95-4.98-5.95c-3.37,1.52-5.97,4.53-7.01,8.24,3.13,2.96,7.34,4.79,11.99,4.79Z" fill="none" stroke="#fff" stroke-linecap="round" stroke-linejoin="round" stroke-width="2"/>
</svg>